<?xml version='1.0' encoding='ascii'?>
<svg xmlns="http://www.w3.org/2000/svg" version="1.1" width="512" height="512">
    <g id="ViewLayer_LineSet" xmlns:inkscape="http://www.inkscape.org/namespaces/inkscape" inkscape:groupmode="lineset" inkscape:label="ViewLayer_LineSet">
        <g xmlns:inkscape="http://www.inkscape.org/namespaces/inkscape" inkscape:groupmode="layer" id="strokes" inkscape:label="strokes">
            <path fill="none" stroke-width="1.0" stroke-linecap="round" stroke-opacity="1.0" stroke="rgb(0, 0, 0)" stroke-linejoin="round" d=" M 192.784, 323.282 186.747, 323.358 176.748, 323.470 176.295, 323.475 166.297, 323.658 164.972, 323.682 154.973, 323.865 146.076, 324.028 143.197, 324.081 135.777, 324.228 125.779, 324.425 121.424, 324.511 115.857, 324.620 105.858, 324.787 99.649, 324.891 89.650, 325.043 85.636, 325.104 77.874, 325.223 67.875, 325.375 57.858, 325.528 56.098, 325.556 55.416, 325.566 45.418, 325.767 35.420, 325.968 34.325, 325.990 25.198, 326.173 15.200, 326.374 12.551, 326.427 2.553, 326.621 -5.021, 326.767 " stroke-name="p1g9_newyork_plane" stroke-occlusion=" True True True True True True True True True True True True True True True True True True True True True True True True True True True True True True " />
            <path fill="none" stroke-width="1.0" stroke-linecap="round" stroke-opacity="1.0" stroke="rgb(0, 0, 0)" stroke-linejoin="round" d=" M 333.576, 321.219 327.404, 321.316 317.402, 321.471 307.403, 321.620 297.405, 321.769 297.182, 321.773 295.627, 321.795 291.616, 321.853 281.617, 321.996 273.851, 322.108 266.961, 322.222 258.421, 322.363 " stroke-name="p1g9_newyork_plane" stroke-occlusion=" True True True True True True True True True True True True " />
            <path fill="none" stroke-width="1.0" stroke-linecap="round" stroke-opacity="1.0" stroke="rgb(0, 0, 0)" stroke-linejoin="round" d=" M 513.365, 317.614 508.720, 317.711 498.723, 317.919 491.592, 318.067 482.802, 318.305 " stroke-name="p1g9_newyork_plane" stroke-occlusion=" True True True True True " />
            <path fill="none" stroke-width="1.0" stroke-linecap="round" stroke-opacity="1.0" stroke="rgb(0, 0, 0)" stroke-linejoin="round" d=" M 433.209, 319.390 426.275, 319.528 418.065, 319.692 408.067, 319.865 404.500, 319.927 400.156, 320.012 " stroke-name="p1g9_newyork_plane" stroke-occlusion=" True True True True True True " />
            <path fill="none" stroke-width="1.0" stroke-linecap="round" stroke-opacity="1.0" stroke="rgb(0, 0, 0)" stroke-linejoin="round" d=" M 555.394, 327.303 545.417, 326.633 535.439, 325.963 525.462, 325.293 515.484, 324.623 505.507, 323.952 495.529, 323.282 490.482, 322.943 490.677, 321.172 485.919, 318.492 482.802, 318.305 477.504, 317.988 475.600, 316.871 465.620, 316.233 455.641, 315.595 454.594, 315.528 454.618, 316.182 " stroke-name="b_2430_p1b2429" stroke-occlusion=" True True True True True True True True True True True True True True True True True " />
            <path fill="none" stroke-width="1.0" stroke-linecap="round" stroke-opacity="1.0" stroke="rgb(0, 0, 0)" stroke-linejoin="round" d=" M 455.564, 316.271 454.618, 316.182 449.463, 315.693 448.732, 315.103 439.576, 314.859 439.599, 315.772 " stroke-name="b_2430_p1b2429" stroke-occlusion=" True True True True True True " />
            <path fill="none" stroke-width="1.0" stroke-linecap="round" stroke-opacity="1.0" stroke="rgb(0, 0, 0)" stroke-linejoin="round" d=" M 447.412, 318.659 447.910, 319.098 448.596, 319.703 447.311, 319.616 441.499, 319.225 440.696, 319.171 439.681, 319.103 439.422, 319.086 439.429, 319.267 439.446, 319.747 439.491, 321.023 " stroke-name="b_2430_p1b2429" stroke-occlusion=" True True True True True True True True True True True " />
            <path fill="none" stroke-width="1.0" stroke-linecap="round" stroke-opacity="1.0" stroke="rgb(0, 0, 0)" stroke-linejoin="round" d=" M 454.594, 315.528 455.564, 316.271 " stroke-name="b_2430_p1b2429" stroke-occlusion=" True True " />
            <path fill="none" stroke-width="1.0" stroke-linecap="round" stroke-opacity="1.0" stroke="rgb(0, 0, 0)" stroke-linejoin="round" d=" M 439.491, 321.023 439.735, 321.275 440.760, 322.334 441.225, 322.814 " stroke-name="b_2430_p1b2429" stroke-occlusion=" True True True True " />
            <path fill="none" stroke-width="1.0" stroke-linecap="round" stroke-opacity="1.0" stroke="rgb(0, 0, 0)" stroke-linejoin="round" d=" M 459.767, 319.521 461.097, 320.503 471.076, 321.142 473.969, 321.328 475.117, 322.091 475.613, 322.420 475.722, 322.493 477.196, 323.473 476.999, 325.294 475.781, 325.210 475.620, 325.198 465.644, 324.507 455.752, 323.821 454.905, 323.762 444.929, 323.071 441.225, 322.814 441.403, 321.107 441.407, 321.069 " stroke-name="b_2430_p1b2429" stroke-occlusion=" True True True True True True True True True True True True True True True True True True " />
            <path fill="none" stroke-width="1.0" stroke-linecap="round" stroke-opacity="1.0" stroke="rgb(0, 0, 0)" stroke-linejoin="round" d=" M 435.160, 319.418 435.167, 319.351 435.334, 317.759 " stroke-name="b_2430_p1b2429" stroke-occlusion=" True True True " />
            <path fill="none" stroke-width="1.0" stroke-linecap="round" stroke-opacity="1.0" stroke="rgb(0, 0, 0)" stroke-linejoin="round" d=" M 447.311, 319.616 447.365, 319.109 447.412, 318.659 440.675, 318.157 439.656, 318.081 435.334, 317.759 433.062, 315.379 " stroke-name="b_2430_p1b2429" stroke-occlusion=" True True True True True True True " />
            <path fill="none" stroke-width="1.0" stroke-linecap="round" stroke-opacity="1.0" stroke="rgb(0, 0, 0)" stroke-linejoin="round" d=" M 435.160, 319.418 434.374, 319.367 433.208, 319.292 433.213, 319.390 433.716, 329.378 434.081, 336.633 434.001, 339.709 433.987, 340.272 433.919, 342.875 " stroke-name="b_2430_p1b2429" stroke-occlusion=" True True True True True True True True True " />
            <path fill="none" stroke-width="1.0" stroke-linecap="round" stroke-opacity="1.0" stroke="rgb(0, 0, 0)" stroke-linejoin="round" d=" M 486.044, 384.100 486.094, 394.100 486.145, 404.100 486.195, 414.100 486.221, 419.162 486.483, 429.159 486.568, 432.385 " stroke-name="b_2430_p1b2429" stroke-occlusion=" True True True True True True True " />
            <path fill="none" stroke-width="1.0" stroke-linecap="round" stroke-opacity="1.0" stroke="rgb(0, 0, 0)" stroke-linejoin="round" d=" M 490.230, 384.661 491.868, 386.517 490.269, 386.526 486.347, 386.548 486.397, 396.548 486.448, 406.547 486.498, 416.547 486.526, 422.127 486.668, 423.331 " stroke-name="b_2430_p1b2429" stroke-occlusion=" True True True True True True True True True " />
            <path fill="none" stroke-width="1.0" stroke-linecap="round" stroke-opacity="1.0" stroke="rgb(0, 0, 0)" stroke-linejoin="round" d=" M 486.507, 391.338 489.689, 395.243 492.111, 398.215 498.427, 405.968 504.743, 413.721 507.142, 416.666 514.293, 419.727 " stroke-name="b_2430_p1b2429" stroke-occlusion=" True True True True True True True " />
            <path fill="none" stroke-width="1.0" stroke-linecap="round" stroke-opacity="1.0" stroke="rgb(0, 0, 0)" stroke-linejoin="round" d=" M 489.589, 390.412 486.507, 391.338 486.558, 401.337 486.608, 411.337 486.658, 421.337 486.668, 423.331 486.693, 428.205 487.150, 432.402 488.136, 441.454 " stroke-name="b_2430_p1b2429" stroke-occlusion=" True True True True True True True True True " />
            <path fill="none" stroke-width="1.0" stroke-linecap="round" stroke-opacity="1.0" stroke="rgb(0, 0, 0)" stroke-linejoin="round" d=" M 486.347, 386.548 489.589, 390.412 " stroke-name="b_2430_p1b2429" stroke-occlusion=" True True " />
            <path fill="none" stroke-width="1.0" stroke-linecap="round" stroke-opacity="1.0" stroke="rgb(0, 0, 0)" stroke-linejoin="round" d=" M 440.628, 315.833 439.599, 315.772 433.062, 315.379 433.209, 319.390 433.577, 329.384 433.735, 333.663 433.579, 339.671 " stroke-name="b_2430_p1b2429" stroke-occlusion=" True True True True True True True " />
            <path fill="none" stroke-width="1.0" stroke-linecap="round" stroke-opacity="1.0" stroke="rgb(0, 0, 0)" stroke-linejoin="round" d=" M 477.196, 323.473 475.741, 323.375 475.615, 323.367 475.040, 323.328 465.062, 322.658 455.707, 322.029 454.838, 321.971 444.860, 321.301 443.060, 321.180 441.407, 321.069 440.720, 320.383 439.687, 319.350 439.600, 319.263 439.422, 319.086 " stroke-name="b_2430_p1b2429" stroke-occlusion=" True True True True True True True True True True True True True True " />
            <path fill="none" stroke-width="1.0" stroke-linecap="round" stroke-opacity="1.0" stroke="rgb(0, 0, 0)" stroke-linejoin="round" d=" M 516.603, 329.083 506.788, 328.401 503.050, 328.141 493.074, 327.447 490.596, 327.275 485.853, 326.946 485.708, 326.935 483.170, 325.318 " stroke-name="b_2430_p1b2429" stroke-occlusion=" True True True True True True True True " />
            <path fill="none" stroke-width="1.0" stroke-linecap="round" stroke-opacity="1.0" stroke="rgb(0, 0, 0)" stroke-linejoin="round" d=" M 490.269, 386.526 490.230, 384.661 486.044, 384.100 479.725, 376.350 473.406, 368.599 467.087, 360.848 460.768, 353.098 454.450, 345.347 450.383, 340.358 444.064, 332.607 440.889, 328.713 439.889, 327.487 435.249, 321.795 433.287, 319.389 433.208, 319.292 " stroke-name="b_2430_p1b2429" stroke-occlusion=" True True True True True True True True True True True True True True True " />
            <path fill="none" stroke-width="1.0" stroke-linecap="round" stroke-opacity="1.0" stroke="rgb(0, 0, 0)" stroke-linejoin="round" d=" M 490.482, 322.943 480.497, 322.389 475.714, 322.124 475.612, 322.118 475.117, 322.091 " stroke-name="b_2430_p1b2429" stroke-occlusion=" True True True True True " />
            <path fill="none" stroke-width="1.0" stroke-linecap="round" stroke-opacity="1.0" stroke="rgb(0, 0, 0)" stroke-linejoin="round" d=" M 440.628, 315.833 439.576, 314.859 " stroke-name="b_2430_p1b2429" stroke-occlusion=" True True " />
            <path fill="none" stroke-width="1.0" stroke-linecap="round" stroke-opacity="1.0" stroke="rgb(0, 0, 0)" stroke-linejoin="round" d=" M 459.767, 319.521 469.753, 320.054 475.608, 320.367 475.676, 320.370 485.662, 320.904 490.677, 321.172 " stroke-name="b_2430_p1b2429" stroke-occlusion=" True True True True True True " />
            <path fill="none" stroke-width="1.0" stroke-linecap="round" stroke-opacity="1.0" stroke="rgb(0, 0, 0)" stroke-linejoin="round" d=" M 435.160, 319.418 439.446, 319.747 " stroke-name="b_2430_p1b2429" stroke-occlusion=" True True " />
            <path fill="none" stroke-width="1.0" stroke-linecap="round" stroke-opacity="1.0" stroke="rgb(0, 0, 0)" stroke-linejoin="round" d=" M 516.574, 327.753 506.601, 327.026 503.054, 326.767 493.081, 326.040 483.170, 325.318 " stroke-name="b_2430_p1b2429" stroke-occlusion=" True True True True True " />
            <path fill="none" stroke-width="1.0" stroke-linecap="round" stroke-opacity="1.0" stroke="rgb(0, 0, 0)" stroke-linejoin="round" d=" M 405.762, 375.144 405.980, 366.716 405.626, 356.722 405.525, 353.869 405.268, 351.319 404.005, 347.911 403.525, 345.288 402.991, 344.852 " stroke-name="b_2429_p1b2428" stroke-occlusion=" True True True True True True True True " />
            <path fill="none" stroke-width="1.0" stroke-linecap="round" stroke-opacity="1.0" stroke="rgb(0, 0, 0)" stroke-linejoin="round" d=" M 387.341, 316.009 387.132, 315.760 387.036, 315.987 386.927, 316.246 386.685, 316.824 " stroke-name="b_2429_p1b2428" stroke-occlusion=" True True True True True " />
            <path fill="none" stroke-width="1.0" stroke-linecap="round" stroke-opacity="1.0" stroke="rgb(0, 0, 0)" stroke-linejoin="round" d=" M 387.140, 319.356 387.019, 318.593 387.016, 318.573 387.004, 318.500 386.985, 318.381 386.978, 318.334 386.967, 318.264 386.926, 318.007 386.889, 317.773 386.861, 317.599 386.764, 316.982 387.014, 316.560 387.067, 316.471 387.199, 316.248 387.341, 316.009 387.319, 316.249 387.133, 318.266 " stroke-name="b_2429_p1b2428" stroke-occlusion=" True True True True True True True True True True True True True True True True True " />
            <path fill="none" stroke-width="1.0" stroke-linecap="round" stroke-opacity="1.0" stroke="rgb(0, 0, 0)" stroke-linejoin="round" d=" M 386.685, 316.824 386.764, 316.982 386.706, 316.978 385.912, 316.917 385.900, 316.916 383.816, 316.757 375.992, 316.158 " stroke-name="b_2429_p1b2428" stroke-occlusion=" True True True True True True True " />
            <path fill="none" stroke-width="1.0" stroke-linecap="round" stroke-opacity="1.0" stroke="rgb(0, 0, 0)" stroke-linejoin="round" d=" M 355.332, 313.930 355.221, 315.784 355.217, 315.857 355.174, 316.577 " stroke-name="b_2429_p1b2428" stroke-occlusion=" True True True True " />
            <path fill="none" stroke-width="1.0" stroke-linecap="round" stroke-opacity="1.0" stroke="rgb(0, 0, 0)" stroke-linejoin="round" d=" M 364.555, 315.782 364.557, 315.541 364.572, 313.074 363.653, 313.025 363.652, 313.025 363.634, 313.024 361.380, 312.905 361.192, 312.895 359.764, 312.819 359.383, 312.799 357.683, 312.709 357.166, 312.681 356.981, 312.671 356.950, 312.670 355.825, 312.610 355.332, 313.930 356.023, 313.952 356.362, 313.963 356.478, 313.967 357.174, 313.989 357.719, 314.006 359.391, 314.060 359.771, 314.072 361.192, 314.117 361.388, 314.123 361.438, 314.125 " stroke-name="b_2429_p1b2428" stroke-occlusion=" True True True True True True True True True True True True True True True True True True True True True True True True True True " />
            <path fill="none" stroke-width="1.0" stroke-linecap="round" stroke-opacity="1.0" stroke="rgb(0, 0, 0)" stroke-linejoin="round" d=" M 365.858, 311.373 366.086, 310.506 366.227, 308.109 365.100, 308.057 365.054, 308.055 361.350, 307.885 361.192, 307.877 359.733, 307.810 359.352, 307.793 358.188, 307.740 357.656, 308.755 357.643, 311.264 " stroke-name="b_2429_p1b2428" stroke-occlusion=" True True True True True True True True True True True True " />
            <path fill="none" stroke-width="1.0" stroke-linecap="round" stroke-opacity="1.0" stroke="rgb(0, 0, 0)" stroke-linejoin="round" d=" M 352.470, 344.564 351.947, 345.993 351.393, 348.292 351.368, 357.011 351.365, 358.098 351.361, 359.582 351.521, 362.553 351.760, 366.982 " stroke-name="b_2429_p1b2428" stroke-occlusion=" True True True True True True True True " />
            <path fill="none" stroke-width="1.0" stroke-linecap="round" stroke-opacity="1.0" stroke="rgb(0, 0, 0)" stroke-linejoin="round" d=" M 354.014, 339.595 353.047, 342.745 352.470, 344.564 352.868, 342.881 " stroke-name="b_2429_p1b2428" stroke-occlusion=" True True True True " />
            <path fill="none" stroke-width="1.0" stroke-linecap="round" stroke-opacity="1.0" stroke="rgb(0, 0, 0)" stroke-linejoin="round" d=" M 355.314, 331.436 355.190, 325.825 355.104, 321.971 355.080, 320.884 354.993, 317.001 " stroke-name="b_2429_p1b2428" stroke-occlusion=" True True True True True " />
            <path fill="none" stroke-width="1.0" stroke-linecap="round" stroke-opacity="1.0" stroke="rgb(0, 0, 0)" stroke-linejoin="round" d=" M 365.038, 304.646 361.329, 304.521 361.192, 304.517 359.739, 304.468 " stroke-name="b_2429_p1b2428" stroke-occlusion=" True True True True " />
            <path fill="none" stroke-width="1.0" stroke-linecap="round" stroke-opacity="1.0" stroke="rgb(0, 0, 0)" stroke-linejoin="round" d=" M 367.457, 306.011 367.469, 304.206 367.472, 303.720 361.322, 303.413 361.273, 303.410 359.923, 303.343 359.739, 304.468 359.727, 306.783 " stroke-name="b_2429_p1b2428" stroke-occlusion=" True True True True True True True True " />
            <path fill="none" stroke-width="1.0" stroke-linecap="round" stroke-opacity="1.0" stroke="rgb(0, 0, 0)" stroke-linejoin="round" d=" M 370.420, 307.022 370.379, 308.297 365.099, 308.003 365.054, 308.000 361.349, 307.794 361.192, 307.785 359.732, 307.704 359.352, 307.683 359.727, 306.783 359.732, 307.704 " stroke-name="b_2429_p1b2428" stroke-occlusion=" True True True True True True True True True True " />
            <path fill="none" stroke-width="1.0" stroke-linecap="round" stroke-opacity="1.0" stroke="rgb(0, 0, 0)" stroke-linejoin="round" d=" M 367.308, 306.854 367.314, 306.007 367.324, 304.525 " stroke-name="b_2429_p1b2428" stroke-occlusion=" True True True " />
            <path fill="none" stroke-width="1.0" stroke-linecap="round" stroke-opacity="1.0" stroke="rgb(0, 0, 0)" stroke-linejoin="round" d=" M 367.472, 303.720 367.384, 304.199 367.324, 304.525 365.082, 304.505 " stroke-name="b_2429_p1b2428" stroke-occlusion=" True True True True " />
            <path fill="none" stroke-width="1.0" stroke-linecap="round" stroke-opacity="1.0" stroke="rgb(0, 0, 0)" stroke-linejoin="round" d=" M 354.169, 339.472 355.610, 339.631 355.806, 339.653 361.980, 340.333 362.002, 340.335 362.060, 340.342 368.385, 341.039 368.515, 341.053 378.455, 342.148 388.395, 343.243 398.335, 344.339 399.850, 344.506 402.991, 344.852 401.194, 335.305 400.785, 325.314 400.640, 321.766 400.156, 320.012 397.493, 310.373 396.442, 306.570 388.249, 304.926 381.799, 304.625 " stroke-name="b_2429_p1b2428" stroke-occlusion=" True True True True True True True True True True True True True True True True True True True True True " />
            <path fill="none" stroke-width="1.0" stroke-linecap="round" stroke-opacity="1.0" stroke="rgb(0, 0, 0)" stroke-linejoin="round" d=" M 338.061, 360.539 337.772, 355.060 337.694, 353.579 337.704, 343.579 337.706, 340.684 338.903, 338.623 339.595, 337.431 349.539, 338.492 354.707, 339.043 354.169, 339.472 354.160, 339.479 354.150, 339.487 354.014, 339.595 352.868, 342.881 342.972, 341.447 337.706, 340.684 " stroke-name="b_2429_p1b2428" stroke-occlusion=" True True True True True True True True True True True True True True True True " />
            <path fill="none" stroke-width="1.0" stroke-linecap="round" stroke-opacity="1.0" stroke="rgb(0, 0, 0)" stroke-linejoin="round" d=" M 361.322, 303.413 361.321, 303.227 351.333, 302.731 347.307, 302.531 344.578, 306.366 344.708, 307.246 342.169, 307.547 341.473, 308.448 340.121, 308.559 333.983, 316.453 333.580, 316.972 333.576, 321.219 333.568, 329.716 " stroke-name="b_2429_p1b2428" stroke-occlusion=" True True True True True True True True True True True True True " />
            <path fill="none" stroke-width="1.0" stroke-linecap="round" stroke-opacity="1.0" stroke="rgb(0, 0, 0)" stroke-linejoin="round" d=" M 341.227, 330.346 333.568, 329.716 327.925, 337.812 328.262, 347.252 328.597, 353.744 " stroke-name="b_2429_p1b2428" stroke-occlusion=" True True True True True " />
            <path fill="none" stroke-width="1.0" stroke-linecap="round" stroke-opacity="1.0" stroke="rgb(0, 0, 0)" stroke-linejoin="round" d=" M 368.193, 317.472 367.875, 317.882 367.938, 320.641 367.964, 321.787 368.103, 327.857 368.195, 331.911 368.210, 332.564 364.116, 332.206 364.013, 332.197 364.013, 332.197 361.897, 332.012 361.871, 332.009 361.822, 332.005 360.048, 331.850 359.695, 331.819 358.207, 331.689 357.282, 331.608 355.583, 331.459 355.314, 331.436 355.317, 331.504 355.318, 331.528 " stroke-name="b_2429_p1b2428" stroke-occlusion=" True True True True True True True True True True True True True True True True True True True True True " />
            <path fill="none" stroke-width="1.0" stroke-linecap="round" stroke-opacity="1.0" stroke="rgb(0, 0, 0)" stroke-linejoin="round" d=" M 355.583, 331.459 355.429, 325.845 355.323, 321.986 355.292, 320.881 355.174, 316.577 354.993, 317.001 354.393, 316.960 344.416, 316.278 342.976, 316.179 342.538, 316.149 341.419, 316.252 333.580, 316.972 " stroke-name="b_2429_p1b2428" stroke-occlusion=" True True True True True True True True True True True True " />
            <path fill="none" stroke-width="1.0" stroke-linecap="round" stroke-opacity="1.0" stroke="rgb(0, 0, 0)" stroke-linejoin="round" d=" M 357.163, 312.201 357.670, 312.229 359.380, 312.323 359.761, 312.344 361.192, 312.422 361.378, 312.433 363.625, 312.556 363.640, 312.557 363.644, 312.557 365.076, 312.636 365.122, 312.639 367.277, 312.757 368.980, 312.851 369.403, 311.795 367.184, 311.531 365.858, 311.373 365.864, 310.495 365.874, 308.847 " stroke-name="b_2429_p1b2428" stroke-occlusion=" True True True True True True True True True True True True True True True True True True " />
            <path fill="none" stroke-width="1.0" stroke-linecap="round" stroke-opacity="1.0" stroke="rgb(0, 0, 0)" stroke-linejoin="round" d=" M 366.227, 308.109 365.874, 308.847 363.575, 308.900 " stroke-name="b_2429_p1b2428" stroke-occlusion=" True True True " />
            <path fill="none" stroke-width="1.0" stroke-linecap="round" stroke-opacity="1.0" stroke="rgb(0, 0, 0)" stroke-linejoin="round" d=" M 364.320, 316.979 364.328, 315.756 364.330, 315.549 364.338, 314.217 " stroke-name="b_2429_p1b2428" stroke-occlusion=" True True True True " />
            <path fill="none" stroke-width="1.0" stroke-linecap="round" stroke-opacity="1.0" stroke="rgb(0, 0, 0)" stroke-linejoin="round" d=" M 364.572, 313.074 364.338, 314.217 363.680, 314.204 363.658, 314.203 361.686, 314.163 " stroke-name="b_2429_p1b2428" stroke-occlusion=" True True True True True " />
            <path fill="none" stroke-width="1.0" stroke-linecap="round" stroke-opacity="1.0" stroke="rgb(0, 0, 0)" stroke-linejoin="round" d=" M 368.193, 317.472 367.542, 317.389 366.682, 317.280 364.320, 316.979 364.555, 315.782 " stroke-name="b_2429_p1b2428" stroke-occlusion=" True True True True True " />
            <path fill="none" stroke-width="1.0" stroke-linecap="round" stroke-opacity="1.0" stroke="rgb(0, 0, 0)" stroke-linejoin="round" d=" M 363.559, 309.197 361.357, 309.032 361.192, 309.020 359.359, 308.883 357.656, 308.755 " stroke-name="b_2429_p1b2428" stroke-occlusion=" True True True True True " />
            <path fill="none" stroke-width="1.0" stroke-linecap="round" stroke-opacity="1.0" stroke="rgb(0, 0, 0)" stroke-linejoin="round" d=" M 357.163, 312.201 357.643, 311.264 357.670, 312.229 " stroke-name="b_2429_p1b2428" stroke-occlusion=" True True True " />
            <path fill="none" stroke-width="1.0" stroke-linecap="round" stroke-opacity="1.0" stroke="rgb(0, 0, 0)" stroke-linejoin="round" d=" M 376.834, 304.393 371.158, 304.128 370.906, 304.474 367.469, 304.206 " stroke-name="b_2429_p1b2428" stroke-occlusion=" True True True True " />
            <path fill="none" stroke-width="1.0" stroke-linecap="round" stroke-opacity="1.0" stroke="rgb(0, 0, 0)" stroke-linejoin="round" d=" M 367.457, 306.011 367.308, 306.854 370.420, 307.022 " stroke-name="b_2429_p1b2428" stroke-occlusion=" True True True " />
            <path fill="none" stroke-width="1.0" stroke-linecap="round" stroke-opacity="1.0" stroke="rgb(0, 0, 0)" stroke-linejoin="round" d=" M 344.578, 306.366 348.483, 306.748 344.708, 307.246 " stroke-name="b_2429_p1b2428" stroke-occlusion=" True True True " />
            <path fill="none" stroke-width="1.0" stroke-linecap="round" stroke-opacity="1.0" stroke="rgb(0, 0, 0)" stroke-linejoin="round" d=" M 375.899, 314.954 374.542, 314.542 371.208, 313.528 370.459, 313.301 370.003, 313.162 369.437, 312.990 368.980, 312.851 369.437, 312.996 370.004, 313.176 370.459, 313.320 371.128, 313.533 374.540, 314.615 375.905, 315.048 " stroke-name="b_2429_p1b2428" stroke-occlusion=" True True True True True True True True True True True True True " />
            <path fill="none" stroke-width="1.0" stroke-linecap="round" stroke-opacity="1.0" stroke="rgb(0, 0, 0)" stroke-linejoin="round" d=" M 386.574, 313.228 386.545, 312.802 386.440, 311.281 386.400, 310.708 383.730, 310.620 382.090, 310.565 381.945, 309.950 379.667, 309.820 376.777, 309.655 376.777, 310.840 376.925, 312.749 " stroke-name="b_2429_p1b2428" stroke-occlusion=" True True True True True True True True True True True " />
            <path fill="none" stroke-width="1.0" stroke-linecap="round" stroke-opacity="1.0" stroke="rgb(0, 0, 0)" stroke-linejoin="round" d=" M 386.424, 311.297 386.400, 310.708 " stroke-name="b_2429_p1b2428" stroke-occlusion=" True True " />
            <path fill="none" stroke-width="1.0" stroke-linecap="round" stroke-opacity="1.0" stroke="rgb(0, 0, 0)" stroke-linejoin="round" d=" M 356.950, 312.670 357.163, 312.201 356.981, 312.671 " stroke-name="b_2429_p1b2428" stroke-occlusion=" True True True " />
            <path fill="none" stroke-width="1.0" stroke-linecap="round" stroke-opacity="1.0" stroke="rgb(0, 0, 0)" stroke-linejoin="round" d=" M 387.140, 319.356 389.998, 319.431 " stroke-name="b_2429_p1b2428" stroke-occlusion=" True True " />
            <path fill="none" stroke-width="1.0" stroke-linecap="round" stroke-opacity="1.0" stroke="rgb(0, 0, 0)" stroke-linejoin="round" d=" M 376.155, 318.247 376.138, 318.116 376.106, 317.865 " stroke-name="b_2429_p1b2428" stroke-occlusion=" True True True " />
            <path fill="none" stroke-width="1.0" stroke-linecap="round" stroke-opacity="1.0" stroke="rgb(0, 0, 0)" stroke-linejoin="round" d=" M 367.924, 318.039 368.201, 318.046 368.943, 318.064 369.579, 318.080 370.155, 318.095 370.489, 318.103 371.594, 318.131 374.623, 318.208 376.155, 318.247 376.145, 318.116 376.118, 317.773 375.992, 316.158 375.877, 314.644 382.371, 314.941 382.535, 315.668 382.914, 315.695 383.841, 315.761 385.893, 315.906 385.911, 315.908 387.036, 315.987 " stroke-name="b_2429_p1b2428" stroke-occlusion=" True True True True True True True True True True True True True True True True True True True True " />
            <path fill="none" stroke-width="1.0" stroke-linecap="round" stroke-opacity="1.0" stroke="rgb(0, 0, 0)" stroke-linejoin="round" d=" M 367.875, 317.882 367.924, 318.039 367.975, 320.640 367.998, 321.789 368.117, 327.859 368.197, 331.911 368.210, 332.564 368.406, 332.580 369.988, 332.712 370.934, 332.790 380.900, 333.619 390.865, 334.447 398.024, 335.042 401.194, 335.305 " stroke-name="b_2429_p1b2428" stroke-occlusion=" True True True True True True True True True True True True True True " />
            <path fill="none" stroke-width="1.0" stroke-linecap="round" stroke-opacity="1.0" stroke="rgb(0, 0, 0)" stroke-linejoin="round" d=" M 385.940, 308.740 385.950, 305.484 385.933, 305.009 381.803, 304.706 381.801, 304.664 381.799, 304.625 381.782, 304.277 376.867, 303.844 376.834, 304.393 376.830, 304.462 376.808, 304.841 376.746, 306.912 " stroke-name="b_2429_p1b2428" stroke-occlusion=" True True True True True True True True True True True True " />
            <path fill="none" stroke-width="1.0" stroke-linecap="round" stroke-opacity="1.0" stroke="rgb(0, 0, 0)" stroke-linejoin="round" d=" M 376.799, 308.062 376.802, 306.918 376.808, 304.841 385.950, 305.484 " stroke-name="b_2429_p1b2428" stroke-occlusion=" True True True True " />
            <path fill="none" stroke-width="1.0" stroke-linecap="round" stroke-opacity="1.0" stroke="rgb(0, 0, 0)" stroke-linejoin="round" d=" M 376.746, 306.912 376.799, 308.062 385.940, 308.740 " stroke-name="b_2429_p1b2428" stroke-occlusion=" True True True " />
            <path fill="none" stroke-width="1.0" stroke-linecap="round" stroke-opacity="1.0" stroke="rgb(0, 0, 0)" stroke-linejoin="round" d=" M 327.925, 337.812 336.841, 338.471 338.903, 338.623 " stroke-name="b_2429_p1b2428" stroke-occlusion=" True True True " />
            <path fill="none" stroke-width="1.0" stroke-linecap="round" stroke-opacity="1.0" stroke="rgb(0, 0, 0)" stroke-linejoin="round" d=" M 400.640, 321.766 395.380, 320.612 393.261, 320.147 389.998, 319.431 " stroke-name="b_2429_p1b2428" stroke-occlusion=" True True True True " />
            <path fill="none" stroke-width="1.0" stroke-linecap="round" stroke-opacity="1.0" stroke="rgb(0, 0, 0)" stroke-linejoin="round" d=" M 387.341, 316.009 386.980, 317.417 " stroke-name="b_2429_p1b2428" stroke-occlusion=" True True " />
            <path fill="none" stroke-width="1.0" stroke-linecap="round" stroke-opacity="1.0" stroke="rgb(0, 0, 0)" stroke-linejoin="round" d=" M 375.877, 314.644 375.899, 314.954 375.905, 315.048 375.967, 315.913 375.985, 316.166 376.106, 317.865 " stroke-name="b_2429_p1b2428" stroke-occlusion=" True True True True True True " />
            <path fill="none" stroke-width="1.0" stroke-linecap="round" stroke-opacity="1.0" stroke="rgb(0, 0, 0)" stroke-linejoin="round" d=" M 365.054, 308.000 365.044, 305.943 365.038, 304.646 365.082, 304.505 365.089, 305.945 365.099, 308.003 " stroke-name="b_2429_p1b2428" stroke-occlusion=" True True True True True True " />
            <path fill="none" stroke-width="1.0" stroke-linecap="round" stroke-opacity="1.0" stroke="rgb(0, 0, 0)" stroke-linejoin="round" d=" M 405.525, 353.869 401.579, 353.463 391.631, 352.438 381.684, 351.413 371.737, 350.388 361.789, 349.363 354.331, 348.594 352.679, 348.424 351.393, 348.292 " stroke-name="b_2429_p1b2428" stroke-occlusion=" True True True True True True True True True " />
            <path fill="none" stroke-width="1.0" stroke-linecap="round" stroke-opacity="1.0" stroke="rgb(0, 0, 0)" stroke-linejoin="round" d=" M 361.321, 303.227 361.273, 303.410 " stroke-name="b_2429_p1b2428" stroke-occlusion=" True True " />
            <path fill="none" stroke-width="1.0" stroke-linecap="round" stroke-opacity="1.0" stroke="rgb(0, 0, 0)" stroke-linejoin="round" d=" M 361.686, 314.163 361.438, 314.125 361.439, 314.154 361.470, 315.426 361.475, 315.653 361.539, 318.271 361.599, 320.764 361.606, 321.079 361.639, 322.426 361.643, 322.589 361.694, 324.722 361.752, 327.122 361.863, 331.680 361.871, 332.009 " stroke-name="b_2429_p1b2428" stroke-occlusion=" True True True True True True True True True True True True True True " />
            <path fill="none" stroke-width="1.0" stroke-linecap="round" stroke-opacity="1.0" stroke="rgb(0, 0, 0)" stroke-linejoin="round" d=" M 363.644, 312.557 363.603, 310.384 363.575, 308.900 363.559, 309.197 363.588, 310.383 363.640, 312.557 " stroke-name="b_2429_p1b2428" stroke-occlusion=" True True True True True True " />
            <path fill="none" stroke-width="1.0" stroke-linecap="round" stroke-opacity="1.0" stroke="rgb(0, 0, 0)" stroke-linejoin="round" d=" M 376.777, 310.840 377.091, 310.855 377.187, 310.859 382.026, 311.088 382.034, 311.089 383.740, 311.169 386.424, 311.297 386.574, 313.228 383.840, 313.092 377.306, 312.768 377.264, 312.765 376.925, 312.749 " stroke-name="b_2429_p1b2428" stroke-occlusion=" True True True True True True True True True True True True " />
            <path fill="none" stroke-width="1.0" stroke-linecap="round" stroke-opacity="1.0" stroke="rgb(0, 0, 0)" stroke-linejoin="round" d=" M 241.782, 397.860 251.559, 399.958 261.336, 402.057 261.552, 402.103 271.329, 404.201 281.107, 406.300 290.884, 408.398 300.661, 410.497 310.439, 412.595 320.216, 414.694 329.993, 416.792 339.771, 418.891 349.548, 420.989 359.326, 423.088 362.764, 423.825 372.575, 425.760 382.386, 427.694 392.197, 429.628 402.008, 431.562 411.820, 433.496 416.027, 434.325 422.853, 435.671 " stroke-name="b_2361_p1b2360" stroke-occlusion=" True True True True True True True True True True True True True True True True True True True True True True " />
            <path fill="none" stroke-width="1.0" stroke-linecap="round" stroke-opacity="1.0" stroke="rgb(0, 0, 0)" stroke-linejoin="round" d=" M 423.477, 471.926 423.578, 461.927 423.631, 456.664 423.261, 446.671 422.891, 436.677 422.853, 435.671 420.411, 425.974 417.969, 416.277 415.526, 406.579 415.054, 404.705 413.041, 394.910 411.029, 385.115 410.076, 380.481 400.177, 379.067 390.277, 377.652 380.378, 376.238 370.478, 374.824 360.579, 373.409 350.680, 371.995 340.780, 370.581 330.881, 369.166 320.981, 367.752 311.082, 366.338 301.182, 364.923 291.283, 363.509 281.383, 362.095 277.456, 361.534 270.543, 368.759 268.658, 370.729 264.204, 375.383 263.113, 376.524 261.094, 378.634 257.495, 382.217 250.408, 389.272 243.322, 396.327 241.782, 397.860 241.649, 407.859 241.557, 414.759 242.344, 424.728 242.448, 426.049 " stroke-name="b_2361_p1b2360" stroke-occlusion=" True True True True True True True True True True True True True True True True True True True True True True True True True True True True True True True True True True True True True True True True " />
            <path fill="none" stroke-width="1.0" stroke-linecap="round" stroke-opacity="1.0" stroke="rgb(0, 0, 0)" stroke-linejoin="round" d=" M 268.658, 370.729 263.067, 369.714 256.832, 373.767 257.495, 382.217 " stroke-name="b_2361_p1b2360" stroke-occlusion=" True True True True " />
            <path fill="none" stroke-width="1.0" stroke-linecap="round" stroke-opacity="1.0" stroke="rgb(0, 0, 0)" stroke-linejoin="round" d=" M 124.994, 346.263 134.433, 342.961 143.873, 339.659 153.312, 336.358 153.618, 336.251 156.676, 336.636 166.598, 337.888 174.570, 338.893 179.688, 339.539 181.852, 339.812 185.887, 340.321 187.675, 340.546 189.982, 340.837 195.879, 341.581 201.063, 342.235 201.913, 342.342 203.799, 342.667 208.703, 343.512 208.790, 348.171 217.617, 343.472 220.838, 341.757 224.055, 340.044 " stroke-name="b_2360_p1b2359" stroke-occlusion=" True True True True True True True True True True True True True True True True True True True True True True " />
            <path fill="none" stroke-width="1.0" stroke-linecap="round" stroke-opacity="1.0" stroke="rgb(0, 0, 0)" stroke-linejoin="round" d=" M 182.622, 335.809 179.834, 334.387 179.541, 334.237 176.755, 332.816 174.871, 331.855 171.501, 331.342 162.083, 334.705 156.676, 336.636 " stroke-name="b_2360_p1b2359" stroke-occlusion=" True True True True True True True True " />
            <path fill="none" stroke-width="1.0" stroke-linecap="round" stroke-opacity="1.0" stroke="rgb(0, 0, 0)" stroke-linejoin="round" d=" M 82.103, 386.111 82.334, 377.215 81.960, 367.222 81.615, 358.009 91.074, 354.765 100.533, 351.521 109.992, 348.277 118.759, 345.271 124.994, 346.263 134.870, 347.835 144.746, 349.407 154.621, 350.979 159.846, 351.810 169.722, 353.382 179.035, 354.865 179.662, 358.104 188.598, 353.614 197.533, 349.125 205.307, 345.219 208.703, 343.512 " stroke-name="b_2360_p1b2359" stroke-occlusion=" True True True True True True True True True True True True True True True True True True True True " />
            <path fill="none" stroke-width="1.0" stroke-linecap="round" stroke-opacity="1.0" stroke="rgb(0, 0, 0)" stroke-linejoin="round" d=" M 290.849, 340.201 291.003, 334.293 291.155, 328.385 281.197, 327.476 271.238, 326.568 270.376, 326.489 270.553, 323.227 260.578, 322.517 258.421, 322.363 248.446, 321.653 238.472, 320.943 228.497, 320.233 218.522, 319.523 208.547, 318.813 207.311, 318.725 197.740, 321.621 195.062, 322.432 192.784, 323.282 183.416, 326.781 179.327, 328.308 179.020, 332.413 176.755, 332.816 " stroke-name="b_2360_p1b2359" stroke-occlusion=" True True True True True True True True True True True True True True True True True True True True True True " />
            <path fill="none" stroke-width="1.0" stroke-linecap="round" stroke-opacity="1.0" stroke="rgb(0, 0, 0)" stroke-linejoin="round" d=" M 242.740, 327.287 241.879, 327.354 231.910, 328.139 228.548, 328.404 " stroke-name="b_2360_p1b2359" stroke-occlusion=" True True True True " />
            <path fill="none" stroke-width="1.0" stroke-linecap="round" stroke-opacity="1.0" stroke="rgb(0, 0, 0)" stroke-linejoin="round" d=" M 230.075, 333.969 231.212, 333.369 240.057, 328.702 242.740, 327.287 " stroke-name="b_2360_p1b2359" stroke-occlusion=" True True True True " />
            <path fill="none" stroke-width="1.0" stroke-linecap="round" stroke-opacity="1.0" stroke="rgb(0, 0, 0)" stroke-linejoin="round" d=" M 242.740, 327.287 232.848, 325.816 222.957, 324.346 214.017, 323.016 204.126, 321.546 203.214, 321.410 213.098, 322.930 213.686, 323.020 223.570, 324.540 233.454, 326.059 241.879, 327.354 " stroke-name="b_2360_p1b2359" stroke-occlusion=" True True True True True True True True True True True " />
            <path fill="none" stroke-width="1.0" stroke-linecap="round" stroke-opacity="1.0" stroke="rgb(0, 0, 0)" stroke-linejoin="round" d=" M 223.973, 342.134 224.055, 340.044 218.639, 336.321 216.903, 335.128 215.133, 335.872 208.805, 338.532 207.012, 339.389 205.767, 339.985 201.063, 342.235 " stroke-name="b_2360_p1b2359" stroke-occlusion=" True True True True True True True True True " />
            <path fill="none" stroke-width="1.0" stroke-linecap="round" stroke-opacity="1.0" stroke="rgb(0, 0, 0)" stroke-linejoin="round" d=" M 266.322, 329.388 270.376, 326.489 " stroke-name="b_2360_p1b2359" stroke-occlusion=" True True " />
            <path fill="none" stroke-width="1.0" stroke-linecap="round" stroke-opacity="1.0" stroke="rgb(0, 0, 0)" stroke-linejoin="round" d=" M 261.139, 328.881 261.365, 336.823 261.407, 338.319 261.452, 344.588 " stroke-name="b_2360_p1b2359" stroke-occlusion=" True True True True " />
            <path fill="none" stroke-width="1.0" stroke-linecap="round" stroke-opacity="1.0" stroke="rgb(0, 0, 0)" stroke-linejoin="round" d=" M 230.090, 337.789 229.301, 335.444 219.377, 334.219 209.452, 332.993 204.017, 332.322 194.092, 331.097 184.007, 329.851 181.188, 332.620 179.541, 334.237 " stroke-name="b_2360_p1b2359" stroke-occlusion=" True True True True True True True True True " />
            <path fill="none" stroke-width="1.0" stroke-linecap="round" stroke-opacity="1.0" stroke="rgb(0, 0, 0)" stroke-linejoin="round" d=" M 179.020, 332.413 181.188, 332.620 " stroke-name="b_2360_p1b2359" stroke-occlusion=" True True " />
            <path fill="none" stroke-width="1.0" stroke-linecap="round" stroke-opacity="1.0" stroke="rgb(0, 0, 0)" stroke-linejoin="round" d=" M 230.090, 337.789 230.075, 333.969 220.136, 332.860 210.198, 331.752 206.296, 331.316 196.358, 330.208 186.419, 329.099 179.327, 328.308 " stroke-name="b_2360_p1b2359" stroke-occlusion=" True True True True True True True True " />
            <path fill="none" stroke-width="1.0" stroke-linecap="round" stroke-opacity="1.0" stroke="rgb(0, 0, 0)" stroke-linejoin="round" d=" M 155.645, 366.314 155.139, 359.686 151.109, 359.001 144.070, 361.783 144.469, 369.210 " stroke-name="b_2360_p1b2359" stroke-occlusion=" True True True True True " />
            <path fill="none" stroke-width="1.0" stroke-linecap="round" stroke-opacity="1.0" stroke="rgb(0, 0, 0)" stroke-linejoin="round" d=" M 179.035, 354.865 174.173, 357.245 165.191, 361.641 156.209, 366.037 155.645, 366.314 " stroke-name="b_2360_p1b2359" stroke-occlusion=" True True True True True " />
            <path fill="none" stroke-width="1.0" stroke-linecap="round" stroke-opacity="1.0" stroke="rgb(0, 0, 0)" stroke-linejoin="round" d=" M 155.139, 359.686 148.166, 362.509 " stroke-name="b_2360_p1b2359" stroke-occlusion=" True True " />
            <path fill="none" stroke-width="1.0" stroke-linecap="round" stroke-opacity="1.0" stroke="rgb(0, 0, 0)" stroke-linejoin="round" d=" M 229.301, 335.444 227.680, 337.480 223.973, 342.134 " stroke-name="b_2360_p1b2359" stroke-occlusion=" True True True " />
            <path fill="none" stroke-width="1.0" stroke-linecap="round" stroke-opacity="1.0" stroke="rgb(0, 0, 0)" stroke-linejoin="round" d=" M 149.172, 402.247 148.984, 392.249 148.973, 391.640 148.696, 381.644 148.419, 371.648 148.302, 367.417 148.166, 362.509 144.070, 361.783 " stroke-name="b_2360_p1b2359" stroke-occlusion=" True True True True True True True True " />
            <path fill="none" stroke-width="1.0" stroke-linecap="round" stroke-opacity="1.0" stroke="rgb(0, 0, 0)" stroke-linejoin="round" d=" M 287.527, 331.365 277.570, 330.437 267.613, 329.508 266.322, 329.388 266.574, 334.962 266.590, 337.422 266.613, 340.962 " stroke-name="b_2360_p1b2359" stroke-occlusion=" True True True True True True True " />
            <path fill="none" stroke-width="1.0" stroke-linecap="round" stroke-opacity="1.0" stroke="rgb(0, 0, 0)" stroke-linejoin="round" d=" M 291.155, 328.385 287.527, 331.365 287.984, 337.198 287.915, 339.865 287.825, 343.320 " stroke-name="b_2360_p1b2359" stroke-occlusion=" True True True True True " />
            <path fill="none" stroke-width="1.0" stroke-linecap="round" stroke-opacity="1.0" stroke="rgb(0, 0, 0)" stroke-linejoin="round" d=" M 106.932, 362.884 107.088, 372.883 107.121, 375.072 107.245, 383.039 107.463, 392.470 " stroke-name="b_2360_p1b2359" stroke-occlusion=" True True True True True " />
            <path fill="none" stroke-width="1.0" stroke-linecap="round" stroke-opacity="1.0" stroke="rgb(0, 0, 0)" stroke-linejoin="round" d=" M 270.553, 323.227 261.980, 328.376 261.139, 328.881 251.176, 328.018 242.740, 327.287 242.886, 334.706 242.915, 336.211 243.047, 342.547 " stroke-name="b_2360_p1b2359" stroke-occlusion=" True True True True True True True True " />
            <path fill="none" stroke-width="1.0" stroke-linecap="round" stroke-opacity="1.0" stroke="rgb(0, 0, 0)" stroke-linejoin="round" d=" M 207.012, 339.389 200.734, 335.935 197.008, 337.634 194.773, 338.653 189.982, 340.837 " stroke-name="b_2360_p1b2359" stroke-occlusion=" True True True True True " />
            <path fill="none" stroke-width="1.0" stroke-linecap="round" stroke-opacity="1.0" stroke="rgb(0, 0, 0)" stroke-linejoin="round" d=" M 108.929, 391.752 109.212, 382.006 109.072, 374.212 108.892, 364.214 108.859, 362.413 " stroke-name="b_2360_p1b2359" stroke-occlusion=" True True True True True " />
            <path fill="none" stroke-width="1.0" stroke-linecap="round" stroke-opacity="1.0" stroke="rgb(0, 0, 0)" stroke-linejoin="round" d=" M 216.903, 335.128 215.309, 335.894 207.495, 339.655 206.621, 340.076 201.913, 342.342 " stroke-name="b_2360_p1b2359" stroke-occlusion=" True True True True True " />
            <path fill="none" stroke-width="1.0" stroke-linecap="round" stroke-opacity="1.0" stroke="rgb(0, 0, 0)" stroke-linejoin="round" d=" M 189.154, 336.751 185.072, 334.870 182.622, 335.809 180.227, 336.726 174.570, 338.893 " stroke-name="b_2360_p1b2359" stroke-occlusion=" True True True True True " />
            <path fill="none" stroke-width="1.0" stroke-linecap="round" stroke-opacity="1.0" stroke="rgb(0, 0, 0)" stroke-linejoin="round" d=" M 81.615, 358.009 91.434, 359.900 101.254, 361.791 106.932, 362.884 108.859, 362.413 118.682, 364.288 127.674, 366.005 137.497, 367.879 144.469, 369.210 " stroke-name="b_2360_p1b2359" stroke-occlusion=" True True True True True True True True True " />
            <path fill="none" stroke-width="1.0" stroke-linecap="round" stroke-opacity="1.0" stroke="rgb(0, 0, 0)" stroke-linejoin="round" d=" M 197.008, 337.634 194.694, 336.435 192.554, 335.326 189.154, 336.751 187.364, 337.502 181.852, 339.812 " stroke-name="b_2360_p1b2359" stroke-occlusion=" True True True True True True " />
            <path fill="none" stroke-width="1.0" stroke-linecap="round" stroke-opacity="1.0" stroke="rgb(0, 0, 0)" stroke-linejoin="round" d=" M 168.983, 454.049 169.241, 444.053 169.337, 440.340 169.188, 430.341 169.038, 420.342 169.002, 417.928 159.369, 415.244 149.736, 412.560 140.103, 409.876 130.470, 407.192 120.837, 404.508 111.204, 401.824 108.949, 401.196 99.307, 403.846 89.664, 406.496 80.022, 409.145 74.381, 410.696 73.547, 410.925 74.197, 419.055 74.205, 419.148 74.195, 419.153 70.891, 420.917 69.641, 421.584 62.725, 425.275 53.903, 429.984 45.081, 434.693 36.259, 439.402 27.437, 444.111 18.615, 448.820 9.794, 453.529 0.972, 458.238 -7.850, 462.947 -16.672, 467.656 -25.494, 472.365 -34.316, 477.074 -43.138, 481.783 -51.960, 486.492 -60.782, 491.201 -69.603, 495.910 -78.425, 500.619 -87.247, 505.328 -96.069, 510.036 -104.891, 514.745 -113.713, 519.454 -122.535, 524.163 -131.357, 528.872 -140.179, 533.581 -149.001, 538.290 -157.822, 542.999 -166.644, 547.708 -175.466, 552.417 -184.288, 557.126 -193.110, 561.835 -201.932, 566.544 -210.754, 571.253 -219.576, 575.962 -228.398, 580.671 -237.219, 585.380 -246.041, 590.089 -254.863, 594.798 -263.685, 599.506 -272.507, 604.215 -281.329, 608.924 -290.151, 613.633 -298.973, 618.342 -307.795, 623.051 -316.616, 627.760 -325.438, 632.469 -334.260, 637.178 -343.082, 641.887 -351.904, 646.596 -360.726, 651.305 -369.548, 656.014 -378.370, 660.723 -387.192, 665.432 -396.014, 670.141 -404.835, 674.850 -413.657, 679.559 -422.479, 684.268 -431.301, 688.977 -440.123, 693.685 -448.945, 698.394 -457.767, 703.103 -466.589, 707.812 -475.411, 712.521 -484.232, 717.230 -493.054, 721.939 -501.876, 726.648 -510.698, 731.357 -519.520, 736.066 -528.342, 740.775 -537.164, 745.484 -545.986, 750.193 -554.808, 754.902 -563.630, 759.611 -572.451, 764.320 -581.273, 769.029 -590.095, 773.738 -598.917, 778.447 -607.739, 783.155 -616.561, 787.864 -625.383, 792.573 -634.205, 797.282 -643.027, 801.991 -651.848, 806.700 -660.670, 811.409 -669.492, 816.118 -678.314, 820.827 -687.136, 825.536 -695.958, 830.245 -704.780, 834.954 -713.602, 839.663 -722.424, 844.372 -731.245, 849.081 -740.067, 853.790 -748.889, 858.499 -757.711, 863.208 -766.533, 867.917 -775.355, 872.626 -784.177, 877.334 -792.999, 882.043 -801.821, 886.752 -810.643, 891.461 -819.464, 896.170 -828.286, 900.879 -837.108, 905.588 -845.930, 910.297 -854.752, 915.006 -863.574, 919.715 -872.396, 924.424 -881.218, 929.133 -890.040, 933.842 -898.861, 938.551 -907.683, 943.260 -916.505, 947.969 -925.327, 952.678 -934.149, 957.387 -942.971, 962.096 -951.793, 966.804 -960.615, 971.513 -969.437, 976.222 -978.258, 980.931 -987.080, 985.640 -995.902, 990.349 -1004.724, 995.058 -1013.546, 999.767 -1022.368, 1004.476 -1031.190, 1009.185 -1040.012, 1013.894 -1048.834, 1018.603 -1057.656, 1023.312 -1066.477, 1028.021 -1075.299, 1032.730 -1084.121, 1037.439 -1092.943, 1042.148 -1101.765, 1046.857 -1110.587, 1051.566 -1119.409, 1056.275 -1128.231, 1060.983 -1137.053, 1065.692 -1145.875, 1070.401 -1154.696, 1075.110 -1163.518, 1079.819 -1172.340, 1084.528 -1181.162, 1089.237 -1189.984, 1093.946 -1198.806, 1098.655 -1207.628, 1103.364 -1216.450, 1108.073 -1225.272, 1112.782 -1234.093, 1117.491 -1242.915, 1122.200 -1251.737, 1126.909 -1260.559, 1131.618 -1269.381, 1136.327 -1278.203, 1141.036 -1287.025, 1145.745 -1295.847, 1150.453 -1304.669, 1155.162 -1313.490, 1159.871 -1322.312, 1164.580 -1331.134, 1169.289 -1339.956, 1173.998 -1348.778, 1178.707 -1357.600, 1183.416 -1366.422, 1188.125 -1375.244, 1192.834 -1384.066, 1197.543 -1392.888, 1202.252 -1401.709, 1206.961 -1410.531, 1211.670 -1419.353, 1216.379 -1428.175, 1221.088 -1436.997, 1225.797 -1445.819, 1230.506 -1454.641, 1235.215 -1463.463, 1239.924 -1472.285, 1244.632 -1481.106, 1249.341 -1489.928, 1254.050 -1498.750, 1258.759 -1507.572, 1263.468 -1516.394, 1268.177 -1525.216, 1272.886 -1534.038, 1277.595 -1542.860, 1282.304 -1551.682, 1287.013 -1560.504, 1291.722 -1569.325, 1296.431 -1578.147, 1301.140 -1586.969, 1305.849 -1595.791, 1310.558 -1604.613, 1315.267 -1613.435, 1319.976 -1622.257, 1324.685 -1631.079, 1329.394 -1639.901, 1334.102 -1648.722, 1338.811 -1657.544, 1343.520 -1666.366, 1348.229 -1675.188, 1352.938 -1684.010, 1357.647 -1692.832, 1362.356 -1701.654, 1367.065 -1710.476, 1371.774 -1719.298, 1376.483 -1728.120, 1381.192 -1736.941, 1385.901 -1745.763, 1390.610 -1754.585, 1395.319 -1763.407, 1400.028 -1772.229, 1404.737 -1781.051, 1409.446 -1789.873, 1414.155 -1798.695, 1418.864 -1807.516, 1423.573 -1816.338, 1428.281 -1825.160, 1432.990 -1833.982, 1437.699 -1842.804, 1442.408 -1851.626, 1447.117 -1860.448, 1451.826 -1869.270, 1456.535 -1878.092, 1461.244 -1886.914, 1465.953 -1895.735, 1470.662 -1904.557, 1475.371 -1931.413, 1489.706 " stroke-name="b_2270_p1b2269" stroke-occlusion=" True True True True True True True True True True True True True True True True True True True True True True True True True True True True True True True True True True True True True True True True True True True True True True True True True True True True True True True True True True True True True True True True True True True True True True True True True True True True True True True True True True True True True True True True True True True True True True True True True True True True True True True True True True True True True True True True True True True True True True True True True True True True True True True True True True True True True True True True True True True True True True True True True True True True True True True True True True True True True True True True True True True True True True True True True True True True True True True True True True True True True True True True True True True True True True True True True True True True True True True True True True True True True True True True True True True True True True True True True True True True True True True True True True True True True True True True True True True True True True True True True True True True True True True True " />
            <path fill="none" stroke-width="1.0" stroke-linecap="round" stroke-opacity="1.0" stroke="rgb(0, 0, 0)" stroke-linejoin="round" d=" M 148.878, 433.098 148.960, 442.618 " stroke-name="b_2270_p1b2269" stroke-occlusion=" True True " />
            <path fill="none" stroke-width="1.0" stroke-linecap="round" stroke-opacity="1.0" stroke="rgb(0, 0, 0)" stroke-linejoin="round" d=" M 169.002, 417.928 161.017, 423.948 153.032, 429.967 148.878, 433.098 139.285, 430.275 129.692, 427.451 120.098, 424.627 110.505, 421.804 100.912, 418.980 91.319, 416.156 81.726, 413.333 74.385, 411.172 73.547, 410.925 " stroke-name="b_2270_p1b2269" stroke-occlusion=" True True True True True True True True True True True True True " />
            <path fill="none" stroke-width="1.0" stroke-linecap="round" stroke-opacity="1.0" stroke="rgb(0, 0, 0)" stroke-linejoin="round" d=" M 432.997, 579.341 423.655, 575.773 414.313, 572.205 404.971, 568.637 395.629, 565.069 386.288, 561.501 376.946, 557.933 367.604, 554.365 358.262, 550.797 348.921, 547.229 339.579, 543.661 330.237, 540.092 320.895, 536.524 311.553, 532.956 302.212, 529.388 292.870, 525.820 283.528, 522.252 274.186, 518.684 264.845, 515.116 255.503, 511.548 246.161, 507.980 236.819, 504.412 231.574, 502.408 226.499, 511.025 221.425, 519.641 216.350, 528.258 211.275, 536.875 206.200, 545.491 201.125, 554.108 196.050, 562.725 190.976, 571.341 185.901, 579.958 180.363, 589.360 " stroke-name="b_2270_p1b2269" stroke-occlusion=" True True True True True True True True True True True True True True True True True True True True True True True True True True True True True True True True True " />
            <path fill="none" stroke-width="1.0" stroke-linecap="round" stroke-opacity="1.0" stroke="rgb(0, 0, 0)" stroke-linejoin="round" d=" M -432.205, 910.939 -424.595, 904.452 -416.985, 897.965 -409.374, 891.478 -401.764, 884.991 -394.153, 878.504 -386.543, 872.016 -378.933, 865.529 -371.322, 859.042 -363.712, 852.555 -356.102, 846.068 -348.491, 839.581 -340.881, 833.094 -333.270, 826.607 -325.660, 820.120 -318.050, 813.633 -310.439, 807.146 -302.829, 800.659 -295.218, 794.172 -287.608, 787.685 -279.998, 781.198 -272.387, 774.711 -264.777, 768.224 -257.166, 761.736 -249.556, 755.249 -241.946, 748.762 -234.335, 742.275 -226.725, 735.788 -219.114, 729.301 -211.504, 722.814 -203.894, 716.327 -196.283, 709.840 -188.673, 703.353 -181.062, 696.866 -173.452, 690.379 -165.842, 683.892 -158.231, 677.405 -150.621, 670.918 -143.010, 664.431 -135.400, 657.944 -127.790, 651.457 -120.179, 644.969 -112.569, 638.482 -104.958, 631.995 -97.348, 625.508 -89.738, 619.021 -82.127, 612.534 -74.517, 606.047 -66.907, 599.560 -59.296, 593.073 -51.686, 586.586 -44.075, 580.099 -36.465, 573.612 -28.855, 567.125 -21.244, 560.638 -13.634, 554.151 -6.023, 547.664 1.587, 541.177 9.197, 534.690 16.808, 528.202 24.418, 521.715 32.029, 515.228 39.639, 508.741 47.249, 502.254 54.860, 495.767 62.470, 489.280 70.081, 482.793 77.691, 476.306 85.301, 469.819 92.912, 463.332 100.522, 456.845 108.133, 450.358 117.428, 442.435 109.852, 448.962 102.277, 455.490 94.701, 462.017 87.125, 468.545 79.550, 475.073 71.974, 481.600 64.398, 488.128 56.823, 494.656 49.247, 501.183 41.672, 507.711 34.096, 514.239 26.520, 520.766 18.945, 527.294 11.369, 533.821 3.793, 540.349 -3.782, 546.877 -11.358, 553.404 -18.933, 559.932 -26.509, 566.460 -34.085, 572.987 -41.660, 579.515 -49.236, 586.042 -56.812, 592.570 -64.387, 599.098 -71.963, 605.625 -79.538, 612.153 -87.114, 618.681 -94.690, 625.208 -102.265, 631.736 -109.841, 638.263 -117.417, 644.791 -124.992, 651.319 -132.568, 657.846 -140.143, 664.374 -147.719, 670.902 -155.295, 677.429 -162.870, 683.957 -170.446, 690.484 -178.022, 697.012 -185.597, 703.540 -193.173, 710.067 -200.748, 716.595 -208.324, 723.123 -215.900, 729.650 -223.475, 736.178 -231.051, 742.706 -238.627, 749.233 -246.202, 755.761 -253.778, 762.288 -261.353, 768.816 -268.929, 775.344 -276.505, 781.871 -284.080, 788.399 -291.656, 794.927 -299.232, 801.454 -306.807, 807.982 -314.383, 814.509 -321.958, 821.037 -329.534, 827.565 -337.110, 834.092 -344.685, 840.620 -352.261, 847.148 -359.837, 853.675 -367.412, 860.203 -374.988, 866.730 -382.563, 873.258 -390.139, 879.786 -397.715, 886.313 -405.290, 892.841 -412.866, 899.369 -420.442, 905.896 -431.807, 915.689 " stroke-name="b_2270_p1b2269" stroke-occlusion=" True True True True True True True True True True True True True True True True True True True True True True True True True True True True True True True True True True True True True True True True True True True True True True True True True True True True True True True True True True True True True True True True True True True True True True True True True True True True True True True True True True True True True True True True True True True True True True True True True True True True True True True True True True True True True True True True True True True True True True True True True True True True True True True True True True True True True True True True True True True True True True True True True " />
            <path fill="none" stroke-width="1.0" stroke-linecap="round" stroke-opacity="1.0" stroke="rgb(0, 0, 0)" stroke-linejoin="round" d=" M 120.317, 433.934 110.949, 430.435 101.580, 426.937 97.862, 425.548 88.209, 422.937 78.556, 420.325 74.205, 419.148 " stroke-name="b_2270_p1b2269" stroke-occlusion=" True True True True True True True " />
            <path fill="none" stroke-width="1.0" stroke-linecap="round" stroke-opacity="1.0" stroke="rgb(0, 0, 0)" stroke-linejoin="round" d=" M -119.583, 660.591 -111.818, 654.289 -104.054, 647.986 -96.290, 641.684 -88.526, 635.382 -80.762, 629.080 -72.997, 622.778 -65.233, 616.476 -57.469, 610.174 -49.705, 603.871 -41.940, 597.569 -34.176, 591.267 -26.412, 584.965 -18.648, 578.663 -10.884, 572.361 -3.119, 566.059 4.645, 559.756 12.409, 553.454 20.173, 547.152 27.938, 540.850 35.702, 534.548 43.466, 528.246 51.230, 521.944 58.994, 515.642 66.759, 509.339 74.523, 503.037 82.287, 496.735 90.051, 490.433 97.815, 484.131 105.580, 477.829 113.344, 471.527 121.108, 465.224 128.872, 458.922 136.637, 452.620 145.073, 445.772 148.960, 442.618 139.390, 439.716 129.820, 436.815 120.317, 433.934 117.148, 436.105 108.899, 441.758 100.650, 447.411 92.401, 453.063 84.152, 458.716 75.903, 464.369 67.654, 470.022 59.405, 475.674 51.156, 481.327 42.907, 486.980 34.658, 492.633 26.409, 498.286 18.160, 503.938 9.911, 509.591 1.662, 515.244 -6.587, 520.897 -14.836, 526.549 -23.085, 532.202 -31.334, 537.855 -39.583, 543.508 -47.832, 549.161 -56.081, 554.813 -64.330, 560.466 -72.579, 566.119 -80.828, 571.772 -89.077, 577.424 -97.326, 583.077 -105.575, 588.730 -113.824, 594.383 -122.073, 600.036 -130.322, 605.688 -138.571, 611.341 -146.820, 616.994 -155.069, 622.647 -163.318, 628.300 -171.567, 633.952 -179.816, 639.605 -188.065, 645.258 -196.314, 650.911 -204.563, 656.563 -212.812, 662.216 -221.061, 667.869 -229.310, 673.522 -237.559, 679.175 -245.808, 684.827 -254.057, 690.480 -262.306, 696.133 -270.555, 701.786 -278.804, 707.438 -287.053, 713.091 -295.302, 718.744 -303.551, 724.397 -311.800, 730.050 -320.049, 735.702 -328.298, 741.355 -336.547, 747.008 -344.796, 752.661 -353.045, 758.314 -361.294, 763.966 -369.543, 769.619 -377.792, 775.272 -386.041, 780.925 -394.290, 786.577 -402.539, 792.230 -410.788, 797.883 -419.037, 803.536 -427.286, 809.189 -435.535, 814.841 -443.784, 820.494 -452.033, 826.147 -460.282, 831.800 -468.531, 837.452 -476.780, 843.105 -485.029, 848.758 -493.278, 854.411 -501.527, 860.064 -509.776, 865.716 -518.025, 871.369 -526.274, 877.022 -534.523, 882.675 -542.772, 888.328 -551.021, 893.980 -559.270, 899.633 -567.519, 905.286 -575.768, 910.939 -584.017, 916.591 -592.266, 922.244 -600.515, 927.897 -608.764, 933.550 -617.013, 939.203 -625.262, 944.855 -633.511, 950.508 -641.760, 956.161 -650.009, 961.814 -658.258, 967.466 -666.507, 973.119 -674.756, 978.772 -683.005, 984.425 -691.254, 990.078 -699.503, 995.730 -707.752, 1001.383 -716.001, 1007.036 -724.250, 1012.689 -732.499, 1018.341 -740.748, 1023.994 -748.997, 1029.647 -757.246, 1035.300 -765.495, 1040.953 -773.744, 1046.605 -781.993, 1052.258 -790.242, 1057.911 -798.491, 1063.564 -806.740, 1069.217 -814.989, 1074.869 -823.238, 1080.522 -831.487, 1086.175 -839.736, 1091.828 -847.985, 1097.480 -856.234, 1103.133 -864.483, 1108.786 -872.732, 1114.439 -880.981, 1120.092 -889.230, 1125.744 -897.479, 1131.397 -905.728, 1137.050 -913.977, 1142.703 -922.226, 1148.355 -930.475, 1154.008 -938.724, 1159.661 -946.973, 1165.314 -955.222, 1170.967 -963.471, 1176.619 -971.720, 1182.272 -979.969, 1187.925 -988.218, 1193.578 -996.467, 1199.231 -1004.716, 1204.883 -1012.965, 1210.536 -1021.214, 1216.189 -1029.463, 1221.842 -1037.712, 1227.494 -1045.961, 1233.147 -1054.210, 1238.800 -1062.459, 1244.453 -1070.708, 1250.106 -1078.957, 1255.758 -1087.206, 1261.411 -1095.455, 1267.064 -1103.704, 1272.717 -1111.953, 1278.370 -1120.202, 1284.022 -1128.451, 1289.675 -1136.700, 1295.328 -1144.949, 1300.981 -1153.198, 1306.633 -1161.447, 1312.286 -1169.696, 1317.939 -1177.945, 1323.592 -1186.194, 1329.245 -1194.443, 1334.897 -1202.692, 1340.550 -1210.941, 1346.203 -1219.190, 1351.856 -1227.439, 1357.508 -1235.688, 1363.161 -1243.937, 1368.814 -1252.186, 1374.467 -1260.435, 1380.120 -1268.684, 1385.772 -1276.933, 1391.425 -1285.182, 1397.078 -1293.431, 1402.731 -1301.680, 1408.383 -1309.929, 1414.036 -1318.178, 1419.689 -1326.427, 1425.342 -1334.676, 1430.995 -1342.925, 1436.647 -1351.174, 1442.300 -1359.423, 1447.953 -1367.672, 1453.606 -1375.921, 1459.258 -1384.170, 1464.911 -1392.419, 1470.564 -1400.668, 1476.217 -1408.917, 1481.870 -1417.166, 1487.522 -1425.415, 1493.175 -1433.664, 1498.828 -1441.913, 1504.481 -1450.162, 1510.134 -1458.411, 1515.786 -1466.660, 1521.439 -1474.909, 1527.092 -1483.158, 1532.745 -1491.407, 1538.397 -1499.656, 1544.050 -1507.905, 1549.703 -1516.154, 1555.356 -1524.403, 1561.009 -1532.652, 1566.661 -1540.901, 1572.314 -1549.150, 1577.967 -1557.399, 1583.620 -1565.648, 1589.272 -1573.897, 1594.925 -1582.146, 1600.578 -1590.395, 1606.231 -1598.644, 1611.884 -1606.893, 1617.536 -1615.142, 1623.189 -1623.391, 1628.842 -1631.640, 1634.495 -1639.889, 1640.147 -1648.138, 1645.800 -1656.387, 1651.453 -1664.636, 1657.106 -1672.885, 1662.759 -1681.134, 1668.411 -1689.383, 1674.064 -1697.632, 1679.717 -1705.881, 1685.370 -1714.130, 1691.023 -1722.379, 1696.675 -1730.628, 1702.328 -1738.877, 1707.981 -1747.126, 1713.634 -1755.375, 1719.286 -1763.624, 1724.939 -1771.873, 1730.592 -1780.122, 1736.245 -1788.371, 1741.898 -1796.620, 1747.550 -1804.869, 1753.203 -1813.118, 1758.856 -1821.367, 1764.509 -1829.616, 1770.161 -1837.865, 1775.814 -1846.114, 1781.467 -1854.363, 1787.120 -1862.612, 1792.773 -1870.861, 1798.425 -1879.110, 1804.078 -1887.359, 1809.731 -1895.608, 1815.384 -1903.857, 1821.036 -1912.106, 1826.689 -1920.355, 1832.342 -1928.604, 1837.995 -1936.853, 1843.648 -1945.102, 1849.300 -1953.351, 1854.953 -1961.600, 1860.606 -1969.849, 1866.259 -1978.099, 1871.912 -1986.347, 1877.564 -1994.596, 1883.217 -2002.845, 1888.870 -2011.094, 1894.523 -2019.343, 1900.175 -2027.592, 1905.828 -2035.841, 1911.481 -2044.090, 1917.134 -2052.339, 1922.787 -2060.588, 1928.439 -2068.837, 1934.092 -2077.086, 1939.745 -2085.335, 1945.398 -2093.584, 1951.051 -2101.833, 1956.703 -2110.083, 1962.356 -2118.332, 1968.009 -2126.581, 1973.662 -2134.830, 1979.314 -2143.079, 1984.967 -2151.327, 1990.620 -2159.576, 1996.273 -2167.825, 2001.926 -2176.074, 2007.578 -2184.323, 2013.231 -2192.572, 2018.884 -2200.821, 2024.537 -2209.070, 2030.189 -2217.319, 2035.842 -2225.568, 2041.495 -2233.817, 2047.148 -2242.066, 2052.801 -2250.315, 2058.453 -2258.564, 2064.106 -2266.813, 2069.759 -2275.062, 2075.412 -2283.312, 2081.064 -2291.561, 2086.717 -2299.810, 2092.370 -2308.059, 2098.023 -2316.308, 2103.676 -2324.557, 2109.328 -2332.806, 2114.981 -2341.055, 2120.634 -2349.304, 2126.287 -2357.553, 2131.940 -2365.802, 2137.592 -2374.051, 2143.245 -2382.299, 2148.898 -2390.548, 2154.551 -2398.797, 2160.203 -2407.046, 2165.856 -2415.295, 2171.509 -2423.544, 2177.162 -2431.793, 2182.815 -2440.042, 2188.467 -2448.292, 2194.120 -2456.541, 2199.773 -2464.790, 2205.426 -2473.039, 2211.078 -2481.288, 2216.731 -2489.537, 2222.384 -2497.786, 2228.037 -2506.035, 2233.690 -2514.284, 2239.342 -2522.533, 2244.995 -2530.782, 2250.648 -2539.031, 2256.301 -2547.280, 2261.954 -2555.529, 2267.606 -2563.778, 2273.259 -2572.027, 2278.912 -2580.276, 2284.565 -2588.525, 2290.217 -2596.773, 2295.870 -2605.022, 2301.523 -2613.271, 2307.176 -2621.521, 2312.828 -2629.770, 2318.481 -2638.019, 2324.134 -2646.268, 2329.787 -2654.517, 2335.440 -2662.766, 2341.093 -2671.015, 2346.745 -2679.264, 2352.398 -2687.513, 2358.051 -2695.762, 2363.704 -2704.011, 2369.356 -2712.260, 2375.009 -2720.509, 2380.662 -2728.758, 2386.315 -2737.007, 2391.967 -2745.256, 2397.620 -2753.505, 2403.273 -2761.754, 2408.926 -2770.003, 2414.579 -2778.252, 2420.231 -2786.501, 2425.884 -2794.750, 2431.537 -2802.999, 2437.190 -2811.248, 2442.843 -2819.497, 2448.495 -2827.746, 2454.148 -2835.995, 2459.801 -2844.244, 2465.454 -2852.493, 2471.106 -2860.742, 2476.759 -2868.991, 2482.412 -2877.240, 2488.065 -2885.489, 2493.718 -2893.738, 2499.370 -2901.987, 2505.023 -2910.236, 2510.676 -2918.485, 2516.329 -2926.734, 2521.981 -2934.983, 2527.634 -2943.232, 2533.287 -2951.481, 2538.940 -2959.730, 2544.593 -2967.979, 2550.245 -2976.228, 2555.898 -2984.477, 2561.551 -2992.726, 2567.204 -3000.975, 2572.856 -3009.224, 2578.509 -3017.473, 2584.162 -3025.722, 2589.815 -3033.971, 2595.468 -3042.220, 2601.120 -3050.469, 2606.773 -3058.718, 2612.426 -3066.967, 2618.079 -3075.216, 2623.732 -3083.465, 2629.384 -3091.714, 2635.037 -3099.963, 2640.690 -3108.212, 2646.343 -3116.461, 2651.995 -3124.710, 2657.648 -3132.959, 2663.301 -3141.208, 2668.954 -3149.457, 2674.606 -3157.706, 2680.259 -3165.955, 2685.912 -3174.204, 2691.565 -3182.453, 2697.218 -3190.702, 2702.871 -3198.951, 2708.523 -3207.200, 2714.176 -3215.449, 2719.829 -3223.698, 2725.482 -3231.947, 2731.135 -3240.196, 2736.787 -3248.445, 2742.440 -3256.694, 2748.093 -3264.943, 2753.746 -3273.192, 2759.398 -3281.441, 2765.051 -3289.690, 2770.704 -3297.939, 2776.357 -3306.188, 2782.009 -3314.437, 2787.662 -3322.686, 2793.315 -3330.935, 2798.968 -3339.184, 2804.621 -3347.433, 2810.273 -3355.682, 2815.926 -3363.931, 2821.579 -3372.180, 2827.232 -3380.429, 2832.885 -3388.678, 2838.537 -3396.927, 2844.190 -3405.176, 2849.843 -3413.425, 2855.496 -3421.674, 2861.148 -3429.923, 2866.801 -3438.172, 2872.454 -3446.421, 2878.107 -3454.670, 2883.760 -3462.919, 2889.412 -3499.710, 2914.624 " stroke-name="b_2270_p1b2269" stroke-occlusion=" True True True True True True True True True True True True True True True True True True True True True True True True True True True True True True True True True True True True True True True True True True True True True True True True True True True True True True True True True True True True True True True True True True True True True True True True True True True True True True True True True True True True True True True True True True True True True True True True True True True True True True True True True True True True True True True True True True True True True True True True True True True True True True True True True True True True True True True True True True True True True True True True True True True True True True True True True True True True True True True True True True True True True True True True True True True True True True True True True True True True True True True True True True True True True True True True True True True True True True True True True True True True True True True True True True True True True True True True True True True True True True True True True True True True True True True True True True True True True True True True True True True True True True True True True True True True True True True True True True True True True True True True True True True True True True True True True True True True True True True True True True True True True True True True True True True True True True True True True True True True True True True True True True True True True True True True True True True True True True True True True True True True True True True True True True True True True True True True True True True True True True True True True True True True True True True True True True True True True True True True True True True True True True True True True True True True True True True True True True True True True True True True True True True True True True True True True True True True True True True True True True True True True True True True True True True True True True True True True True True True True True True True True True True True True True True True True True True True True True True True True True True True True True True True True True True True True True True True True True True True True True True True True True True True True True True True True True True " />
            <path fill="none" stroke-width="1.0" stroke-linecap="round" stroke-opacity="1.0" stroke="rgb(0, 0, 0)" stroke-linejoin="round" d=" M 74.381, 410.696 74.300, 400.696 74.218, 390.696 74.137, 380.697 74.114, 377.837 64.365, 375.612 54.616, 373.386 44.866, 371.161 35.117, 368.935 30.853, 367.962 21.323, 370.990 11.792, 374.019 2.262, 377.047 -7.268, 380.076 -16.799, 383.104 -26.329, 386.133 -35.860, 389.161 -45.390, 392.190 -54.920, 395.218 -62.501, 397.627 " stroke-name="b_2269_p1b2268" stroke-occlusion=" True True True True True True True True True True True True True True True True True True True True " />
            <path fill="none" stroke-width="1.0" stroke-linecap="round" stroke-opacity="1.0" stroke="rgb(0, 0, 0)" stroke-linejoin="round" d=" M 70.522, 409.334 62.360, 413.366 55.755, 416.628 46.789, 421.057 37.823, 425.486 28.858, 429.915 19.892, 434.344 10.926, 438.772 1.960, 443.201 -7.006, 447.630 -10.334, 449.274 " stroke-name="b_2269_p1b2268" stroke-occlusion=" True True True True True True True True True True True " />
            <path fill="none" stroke-width="1.0" stroke-linecap="round" stroke-opacity="1.0" stroke="rgb(0, 0, 0)" stroke-linejoin="round" d=" M 70.891, 420.917 70.909, 420.223 70.554, 410.229 70.522, 409.334 62.121, 406.760 " stroke-name="b_2269_p1b2268" stroke-occlusion=" True True True True True " />
            <path fill="none" stroke-width="1.0" stroke-linecap="round" stroke-opacity="1.0" stroke="rgb(0, 0, 0)" stroke-linejoin="round" d=" M -18.266, 415.307 -8.999, 411.548 0.268, 407.790 9.534, 404.031 18.801, 400.272 28.068, 396.514 37.335, 392.755 46.601, 388.997 55.868, 385.238 65.135, 381.479 74.114, 377.837 " stroke-name="b_2269_p1b2268" stroke-occlusion=" True True True True True True True True True True True " />
            <path fill="none" stroke-width="1.0" stroke-linecap="round" stroke-opacity="1.0" stroke="rgb(0, 0, 0)" stroke-linejoin="round" d=" M -13.517, 442.967 -4.497, 438.650 4.523, 434.332 13.543, 430.014 22.563, 425.697 31.583, 421.379 40.602, 417.061 47.592, 413.715 56.612, 409.398 62.121, 406.760 " stroke-name="b_2269_p1b2268" stroke-occlusion=" True True True True True True True True True True " />
            <path fill="none" stroke-width="1.0" stroke-linecap="round" stroke-opacity="1.0" stroke="rgb(0, 0, 0)" stroke-linejoin="round" d=" M 74.195, 419.153 74.197, 419.055 " stroke-name="b_2269_p1b2268" stroke-occlusion=" True True " />
            <path fill="none" stroke-width="1.0" stroke-linecap="round" stroke-opacity="1.0" stroke="rgb(0, 0, 0)" stroke-linejoin="round" d=" M 264.204, 375.383 256.832, 373.767 " stroke-name="b_2361_p1b2360" stroke-occlusion=" True True " />
            <path fill="none" stroke-width="1.0" stroke-linecap="round" stroke-opacity="1.0" stroke="rgb(0, 0, 0)" stroke-linejoin="round" d=" M 361.897, 332.012 361.893, 331.682 361.839, 327.132 361.811, 324.734 361.764, 320.761 361.704, 315.645 361.702, 315.453 361.686, 314.163 " stroke-name="b_2429_p1b2428" stroke-occlusion=" True True True True True True True True " />
            <path fill="none" stroke-width="1.0" stroke-linecap="round" stroke-opacity="1.0" stroke="rgb(0, 0, 0)" stroke-linejoin="round" d=" M 386.978, 318.334 387.122, 318.386 389.998, 319.431 387.118, 318.427 386.985, 318.381 " stroke-name="b_2429_p1b2428" stroke-occlusion=" True True True True True " />
        </g>
    </g>
</svg>
