<?xml version='1.0' encoding='ascii'?>
<svg xmlns="http://www.w3.org/2000/svg" version="1.1" width="512" height="512">
    <g id="ViewLayer_LineSet 2" xmlns:inkscape="http://www.inkscape.org/namespaces/inkscape" inkscape:groupmode="lineset" inkscape:label="ViewLayer_LineSet 2">
        <g xmlns:inkscape="http://www.inkscape.org/namespaces/inkscape" inkscape:groupmode="layer" id="strokes" inkscape:label="strokes">
            <path fill="none" stroke-width="1.0" stroke-linecap="round" stroke-opacity="1.0" stroke="rgb(0, 0, 0)" stroke-linejoin="round" d=" M 348.855, 370.226 349.129, 370.133 371.463, 358.899 393.796, 347.664 397.213, 345.946 398.167, 345.027 386.868, 322.726 375.569, 300.425 375.040, 299.382 372.200, 300.831 372.250, 300.668 361.259, 278.214 350.941, 257.136 349.609, 257.979 326.994, 268.636 321.544, 271.204 321.243, 271.473 306.594, 278.581 305.959, 277.933 283.619, 289.153 261.488, 300.269 260.737, 300.872 260.736, 300.873 260.678, 300.919 " stroke-name="b_2465_p1b2464" stroke-occlusion=" True True True True True True True True True True True True True True True True True True True True True True True True " />
            <path fill="none" stroke-width="1.0" stroke-linecap="round" stroke-opacity="1.0" stroke="rgb(0, 0, 0)" stroke-linejoin="round" d=" M 348.372, 349.301 344.049, 351.220 343.937, 351.823 " stroke-name="b_2465_p1b2464" stroke-occlusion=" True True True " />
            <path fill="none" stroke-width="1.0" stroke-linecap="round" stroke-opacity="1.0" stroke="rgb(0, 0, 0)" stroke-linejoin="round" d=" M 302.825, 336.034 311.416, 331.941 314.793, 338.555 314.807, 338.584 " stroke-name="b_2465_p1b2464" stroke-occlusion=" True True True True " />
            <path fill="none" stroke-width="1.0" stroke-linecap="round" stroke-opacity="1.0" stroke="rgb(0, 0, 0)" stroke-linejoin="round" d=" M 335.308, 340.708 332.119, 333.406 332.294, 333.164 330.588, 329.702 330.374, 329.812 " stroke-name="b_2465_p1b2464" stroke-occlusion=" True True True True True " />
            <path fill="none" stroke-width="1.0" stroke-linecap="round" stroke-opacity="1.0" stroke="rgb(0, 0, 0)" stroke-linejoin="round" d=" M 342.298, 352.584 341.068, 353.094 338.293, 346.578 338.306, 346.371 335.393, 340.665 335.308, 340.708 " stroke-name="b_2465_p1b2464" stroke-occlusion=" True True True True True True " />
            <path fill="none" stroke-width="1.0" stroke-linecap="round" stroke-opacity="1.0" stroke="rgb(0, 0, 0)" stroke-linejoin="round" d=" M 330.374, 329.812 327.600, 324.099 327.152, 323.221 327.152, 323.221 " stroke-name="b_2465_p1b2464" stroke-occlusion=" True True True True " />
            <path fill="none" stroke-width="1.0" stroke-linecap="round" stroke-opacity="1.0" stroke="rgb(0, 0, 0)" stroke-linejoin="round" d=" M 366.487, 338.827 349.033, 347.567 348.408, 348.323 " stroke-name="b_2465_p1b2464" stroke-occlusion=" True True True " />
            <path fill="none" stroke-width="1.0" stroke-linecap="round" stroke-opacity="1.0" stroke="rgb(0, 0, 0)" stroke-linejoin="round" d=" M 220.546, 407.064 223.335, 412.608 223.459, 412.770 245.880, 401.711 263.570, 392.986 265.555, 390.806 263.028, 385.856 " stroke-name="b_2465_p1b2464" stroke-occlusion=" True True True True True True True " />
            <path fill="none" stroke-width="1.0" stroke-linecap="round" stroke-opacity="1.0" stroke="rgb(0, 0, 0)" stroke-linejoin="round" d=" M 298.608, 346.764 298.584, 346.746 295.956, 344.709 291.616, 344.121 " stroke-name="b_2465_p1b2464" stroke-occlusion=" True True True True " />
            <path fill="none" stroke-width="1.0" stroke-linecap="round" stroke-opacity="1.0" stroke="rgb(0, 0, 0)" stroke-linejoin="round" d=" M 291.616, 344.121 289.542, 343.755 288.417, 344.012 " stroke-name="b_2465_p1b2464" stroke-occlusion=" True True True " />
            <path fill="none" stroke-width="1.0" stroke-linecap="round" stroke-opacity="1.0" stroke="rgb(0, 0, 0)" stroke-linejoin="round" d=" M 236.836, 332.811 236.724, 332.919 237.874, 335.089 " stroke-name="b_2465_p1b2464" stroke-occlusion=" True True True " />
            <path fill="none" stroke-width="1.0" stroke-linecap="round" stroke-opacity="1.0" stroke="rgb(0, 0, 0)" stroke-linejoin="round" d=" M 271.559, 344.080 271.355, 344.178 271.355, 344.178 257.133, 351.015 250.460, 337.338 257.548, 333.810 263.399, 330.898 " stroke-name="b_2465_p1b2464" stroke-occlusion=" True True True True True True True " />
            <path fill="none" stroke-width="1.0" stroke-linecap="round" stroke-opacity="1.0" stroke="rgb(0, 0, 0)" stroke-linejoin="round" d=" M 237.874, 335.089 237.337, 335.311 234.811, 329.405 212.485, 340.654 194.651, 349.640 193.039, 351.351 192.777, 351.713 " stroke-name="b_2465_p1b2464" stroke-occlusion=" True True True True True True True " />
            <path fill="none" stroke-width="1.0" stroke-linecap="round" stroke-opacity="1.0" stroke="rgb(0, 0, 0)" stroke-linejoin="round" d=" M 287.764, 389.524 291.206, 397.302 291.355, 397.237 291.480, 397.399 " stroke-name="b_2465_p1b2464" stroke-occlusion=" True True True True " />
            <path fill="none" stroke-width="1.0" stroke-linecap="round" stroke-opacity="1.0" stroke="rgb(0, 0, 0)" stroke-linejoin="round" d=" M 260.671, 300.905 260.560, 301.014 268.563, 316.568 246.325, 327.989 242.720, 329.840 " stroke-name="b_2465_p1b2464" stroke-occlusion=" True True True True True " />
            <path fill="none" stroke-width="1.0" stroke-linecap="round" stroke-opacity="1.0" stroke="rgb(0, 0, 0)" stroke-linejoin="round" d=" M 360.317, 315.755 359.696, 316.599 359.421, 316.692 " stroke-name="b_2465_p1b2464" stroke-occlusion=" True True True " />
            <path fill="none" stroke-width="1.0" stroke-linecap="round" stroke-opacity="1.0" stroke="rgb(0, 0, 0)" stroke-linejoin="round" d=" M 263.028, 385.856 263.273, 385.759 281.831, 376.782 " stroke-name="b_2465_p1b2464" stroke-occlusion=" True True True " />
            <path fill="none" stroke-width="1.0" stroke-linecap="round" stroke-opacity="1.0" stroke="rgb(0, 0, 0)" stroke-linejoin="round" d=" M 281.955, 347.670 281.843, 347.779 279.263, 352.878 278.693, 356.559 " stroke-name="b_2465_p1b2464" stroke-occlusion=" True True True True " />
            <path fill="none" stroke-width="1.0" stroke-linecap="round" stroke-opacity="1.0" stroke="rgb(0, 0, 0)" stroke-linejoin="round" d=" M 195.443, 356.623 195.333, 356.667 193.336, 358.577 204.596, 380.898 215.856, 403.219 218.417, 408.296 218.540, 408.456 " stroke-name="b_2465_p1b2464" stroke-occlusion=" True True True True True True True " />
            <path fill="none" stroke-width="1.0" stroke-linecap="round" stroke-opacity="1.0" stroke="rgb(0, 0, 0)" stroke-linejoin="round" d=" M 288.417, 344.012 285.855, 344.517 285.828, 344.533 " stroke-name="b_2465_p1b2464" stroke-occlusion=" True True True " />
            <path fill="none" stroke-width="1.0" stroke-linecap="round" stroke-opacity="1.0" stroke="rgb(0, 0, 0)" stroke-linejoin="round" d=" M 327.152, 323.221 349.705, 312.434 356.871, 309.006 360.317, 315.755 " stroke-name="b_2465_p1b2464" stroke-occlusion=" True True True True " />
            <path fill="none" stroke-width="1.0" stroke-linecap="round" stroke-opacity="1.0" stroke="rgb(0, 0, 0)" stroke-linejoin="round" d=" M 293.733, 249.832 316.049, 238.563 334.379, 229.307 336.301, 227.496 325.062, 205.165 313.823, 182.834 310.971, 177.169 291.332, 187.108 " stroke-name="b_2418_p1b2417" stroke-occlusion=" True True True True True True True True " />
            <path fill="none" stroke-width="1.0" stroke-linecap="round" stroke-opacity="1.0" stroke="rgb(0, 0, 0)" stroke-linejoin="round" d=" M 291.292, 184.042 291.465, 183.954 280.292, 161.589 274.873, 150.741 252.486, 161.869 234.052, 171.031 233.775, 171.312 235.638, 174.960 " stroke-name="b_2418_p1b2417" stroke-occlusion=" True True True True True True True True " />
            <path fill="none" stroke-width="1.0" stroke-linecap="round" stroke-opacity="1.0" stroke="rgb(0, 0, 0)" stroke-linejoin="round" d=" M 291.088, 184.324 291.292, 184.042 " stroke-name="b_2418_p1b2417" stroke-occlusion=" True True " />
            <path fill="none" stroke-width="1.0" stroke-linecap="round" stroke-opacity="1.0" stroke="rgb(0, 0, 0)" stroke-linejoin="round" d=" M 373.486, 198.978 375.482, 197.351 376.056, 196.415 376.429, 195.945 380.187, 171.229 383.944, 146.513 384.941, 139.955 383.673, 133.596 380.063, 127.138 373.849, 122.471 366.576, 120.560 360.523, 121.160 354.208, 123.652 352.738, 124.939 349.991, 127.776 " stroke-name="b_2384_p1b2383" stroke-occlusion=" True True True True True True True True True True True True True True True " />
            <path fill="none" stroke-width="1.0" stroke-linecap="round" stroke-opacity="1.0" stroke="rgb(0, 0, 0)" stroke-linejoin="round" d=" M 349.991, 127.776 348.689, 129.049 347.443, 130.408 344.165, 137.525 344.178, 138.834 " stroke-name="b_2384_p1b2383" stroke-occlusion=" True True True True True " />
            <path fill="none" stroke-width="1.0" stroke-linecap="round" stroke-opacity="1.0" stroke="rgb(0, 0, 0)" stroke-linejoin="round" d=" M 372.318, 199.456 372.592, 199.364 " stroke-name="b_2384_p1b2383" stroke-occlusion=" True True " />
            <path fill="none" stroke-width="1.0" stroke-linecap="round" stroke-opacity="1.0" stroke="rgb(0, 0, 0)" stroke-linejoin="round" d=" M 507.695, 145.787 508.344, 145.314 483.731, 140.932 459.118, 136.549 446.883, 134.370 447.107, 134.202 428.662, 131.816 428.373, 132.020 " stroke-name="b_2383_p1b2382" stroke-occlusion=" True True True True True True True True " />
            <path fill="none" stroke-width="1.0" stroke-linecap="round" stroke-opacity="1.0" stroke="rgb(0, 0, 0)" stroke-linejoin="round" d=" M 448.710, 165.902 448.554, 165.597 448.093, 165.185 447.577, 165.670 " stroke-name="b_2383_p1b2382" stroke-occlusion=" True True True True " />
            <path fill="none" stroke-width="1.0" stroke-linecap="round" stroke-opacity="1.0" stroke="rgb(0, 0, 0)" stroke-linejoin="round" d=" M 447.429, 165.769 446.163, 164.420 445.353, 165.017 444.632, 163.725 443.010, 164.407 " stroke-name="b_2383_p1b2382" stroke-occlusion=" True True True True True " />
            <path fill="none" stroke-width="1.0" stroke-linecap="round" stroke-opacity="1.0" stroke="rgb(0, 0, 0)" stroke-linejoin="round" d=" M 440.314, 164.000 439.749, 162.990 438.247, 163.991 " stroke-name="b_2383_p1b2382" stroke-occlusion=" True True True " />
            <path fill="none" stroke-width="1.0" stroke-linecap="round" stroke-opacity="1.0" stroke="rgb(0, 0, 0)" stroke-linejoin="round" d=" M 435.726, 163.995 435.365, 163.475 434.040, 163.897 " stroke-name="b_2383_p1b2382" stroke-occlusion=" True True True " />
            <path fill="none" stroke-width="1.0" stroke-linecap="round" stroke-opacity="1.0" stroke="rgb(0, 0, 0)" stroke-linejoin="round" d=" M 434.040, 163.897 433.985, 163.818 433.672, 163.978 " stroke-name="b_2383_p1b2382" stroke-occlusion=" True True True " />
            <path fill="none" stroke-width="1.0" stroke-linecap="round" stroke-opacity="1.0" stroke="rgb(0, 0, 0)" stroke-linejoin="round" d=" M 436.148, 163.938 436.101, 163.846 435.726, 163.995 " stroke-name="b_2383_p1b2382" stroke-occlusion=" True True True " />
            <path fill="none" stroke-width="1.0" stroke-linecap="round" stroke-opacity="1.0" stroke="rgb(0, 0, 0)" stroke-linejoin="round" d=" M 438.247, 163.991 437.995, 163.802 437.790, 163.947 " stroke-name="b_2383_p1b2382" stroke-occlusion=" True True True " />
            <path fill="none" stroke-width="1.0" stroke-linecap="round" stroke-opacity="1.0" stroke="rgb(0, 0, 0)" stroke-linejoin="round" d=" M 440.736, 164.095 440.511, 163.899 440.314, 164.000 " stroke-name="b_2383_p1b2382" stroke-occlusion=" True True True " />
            <path fill="none" stroke-width="1.0" stroke-linecap="round" stroke-opacity="1.0" stroke="rgb(0, 0, 0)" stroke-linejoin="round" d=" M 443.010, 164.407 442.865, 164.268 442.560, 164.505 " stroke-name="b_2383_p1b2382" stroke-occlusion=" True True True " />
            <path fill="none" stroke-width="1.0" stroke-linecap="round" stroke-opacity="1.0" stroke="rgb(0, 0, 0)" stroke-linejoin="round" d=" M 428.373, 132.020 411.512, 130.022 411.260, 130.316 411.159, 130.406 407.422, 155.125 406.030, 164.337 406.154, 164.498 " stroke-name="b_2383_p1b2382" stroke-occlusion=" True True True True True True True " />
            <path fill="none" stroke-width="1.0" stroke-linecap="round" stroke-opacity="1.0" stroke="rgb(0, 0, 0)" stroke-linejoin="round" d=" M 402.949, 209.795 404.569, 212.854 408.914, 220.872 409.396, 220.518 " stroke-name="b_2383_p1b2382" stroke-occlusion=" True True True True " />
            <path fill="none" stroke-width="1.0" stroke-linecap="round" stroke-opacity="1.0" stroke="rgb(0, 0, 0)" stroke-linejoin="round" d=" M 454.588, 225.351 455.967, 224.414 458.406, 221.999 459.171, 220.384 " stroke-name="b_2383_p1b2382" stroke-occlusion=" True True True True " />
            <path fill="none" stroke-width="1.0" stroke-linecap="round" stroke-opacity="1.0" stroke="rgb(0, 0, 0)" stroke-linejoin="round" d=" M 446.126, 229.113 446.238, 229.292 447.416, 227.969 " stroke-name="b_2383_p1b2382" stroke-occlusion=" True True True " />
            <path fill="none" stroke-width="1.0" stroke-linecap="round" stroke-opacity="1.0" stroke="rgb(0, 0, 0)" stroke-linejoin="round" d=" M 444.083, 229.698 444.358, 229.605 444.735, 229.264 " stroke-name="b_2383_p1b2382" stroke-occlusion=" True True True " />
            <path fill="none" stroke-width="1.0" stroke-linecap="round" stroke-opacity="1.0" stroke="rgb(0, 0, 0)" stroke-linejoin="round" d=" M 440.309, 230.055 440.422, 230.233 441.042, 229.537 " stroke-name="b_2383_p1b2382" stroke-occlusion=" True True True " />
            <path fill="none" stroke-width="1.0" stroke-linecap="round" stroke-opacity="1.0" stroke="rgb(0, 0, 0)" stroke-linejoin="round" d=" M 420.193, 226.256 421.355, 227.707 422.329, 227.058 422.335, 227.054 " stroke-name="b_2383_p1b2382" stroke-occlusion=" True True True True " />
            <path fill="none" stroke-width="1.0" stroke-linecap="round" stroke-opacity="1.0" stroke="rgb(0, 0, 0)" stroke-linejoin="round" d=" M 435.526, 230.471 436.013, 230.180 437.412, 229.192 " stroke-name="b_2383_p1b2382" stroke-occlusion=" True True True " />
            <path fill="none" stroke-width="1.0" stroke-linecap="round" stroke-opacity="1.0" stroke="rgb(0, 0, 0)" stroke-linejoin="round" d=" M 429.878, 228.198 430.644, 229.736 431.130, 229.445 432.538, 228.451 433.273, 230.012 434.824, 228.979 " stroke-name="b_2383_p1b2382" stroke-occlusion=" True True True True True True " />
            <path fill="none" stroke-width="1.0" stroke-linecap="round" stroke-opacity="1.0" stroke="rgb(0, 0, 0)" stroke-linejoin="round" d=" M 424.989, 227.460 425.638, 228.840 427.209, 227.793 " stroke-name="b_2383_p1b2382" stroke-occlusion=" True True True " />
            <path fill="none" stroke-width="1.0" stroke-linecap="round" stroke-opacity="1.0" stroke="rgb(0, 0, 0)" stroke-linejoin="round" d=" M 422.329, 227.058 423.496, 228.273 423.756, 228.090 " stroke-name="b_2383_p1b2382" stroke-occlusion=" True True True " />
            <path fill="none" stroke-width="1.0" stroke-linecap="round" stroke-opacity="1.0" stroke="rgb(0, 0, 0)" stroke-linejoin="round" d=" M 409.623, 220.366 414.406, 224.249 414.813, 223.827 " stroke-name="b_2383_p1b2382" stroke-occlusion=" True True True " />
            <path fill="none" stroke-width="1.0" stroke-linecap="round" stroke-opacity="1.0" stroke="rgb(0, 0, 0)" stroke-linejoin="round" d=" M 401.111, 199.311 401.097, 199.335 400.745, 199.911 " stroke-name="b_2383_p1b2382" stroke-occlusion=" True True True " />
            <path fill="none" stroke-width="1.0" stroke-linecap="round" stroke-opacity="1.0" stroke="rgb(0, 0, 0)" stroke-linejoin="round" d=" M 400.814, 193.325 400.703, 193.434 401.424, 194.724 400.253, 196.060 401.080, 197.251 401.080, 197.252 401.149, 197.351 " stroke-name="b_2383_p1b2382" stroke-occlusion=" True True True True True True True " />
            <path fill="none" stroke-width="1.0" stroke-linecap="round" stroke-opacity="1.0" stroke="rgb(0, 0, 0)" stroke-linejoin="round" d=" M 403.103, 186.536 402.797, 187.383 403.034, 187.724 401.851, 188.789 402.427, 189.842 " stroke-name="b_2383_p1b2382" stroke-occlusion=" True True True True True " />
            <path fill="none" stroke-width="1.0" stroke-linecap="round" stroke-opacity="1.0" stroke="rgb(0, 0, 0)" stroke-linejoin="round" d=" M 466.813, 198.849 468.053, 197.613 466.900, 196.385 " stroke-name="b_2383_p1b2382" stroke-occlusion=" True True True " />
            <path fill="none" stroke-width="1.0" stroke-linecap="round" stroke-opacity="1.0" stroke="rgb(0, 0, 0)" stroke-linejoin="round" d=" M 466.396, 201.314 467.592, 199.971 466.813, 198.849 " stroke-name="b_2383_p1b2382" stroke-occlusion=" True True True " />
            <path fill="none" stroke-width="1.0" stroke-linecap="round" stroke-opacity="1.0" stroke="rgb(0, 0, 0)" stroke-linejoin="round" d=" M 466.040, 204.112 467.380, 202.939 466.396, 201.314 " stroke-name="b_2383_p1b2382" stroke-occlusion=" True True True " />
            <path fill="none" stroke-width="1.0" stroke-linecap="round" stroke-opacity="1.0" stroke="rgb(0, 0, 0)" stroke-linejoin="round" d=" M 465.514, 206.549 466.694, 205.224 466.040, 204.112 " stroke-name="b_2383_p1b2382" stroke-occlusion=" True True True " />
            <path fill="none" stroke-width="1.0" stroke-linecap="round" stroke-opacity="1.0" stroke="rgb(0, 0, 0)" stroke-linejoin="round" d=" M 464.328, 210.954 465.534, 209.599 464.927, 208.725 " stroke-name="b_2383_p1b2382" stroke-occlusion=" True True True " />
            <path fill="none" stroke-width="1.0" stroke-linecap="round" stroke-opacity="1.0" stroke="rgb(0, 0, 0)" stroke-linejoin="round" d=" M 462.734, 214.885 463.914, 213.561 463.611, 212.968 " stroke-name="b_2383_p1b2382" stroke-occlusion=" True True True " />
            <path fill="none" stroke-width="1.0" stroke-linecap="round" stroke-opacity="1.0" stroke="rgb(0, 0, 0)" stroke-linejoin="round" d=" M 459.171, 220.384 461.109, 218.589 460.860, 218.230 " stroke-name="b_2383_p1b2382" stroke-occlusion=" True True True " />
            <path fill="none" stroke-width="1.0" stroke-linecap="round" stroke-opacity="1.0" stroke="rgb(0, 0, 0)" stroke-linejoin="round" d=" M 442.560, 164.505 441.879, 163.287 440.736, 164.095 " stroke-name="b_2383_p1b2382" stroke-occlusion=" True True True " />
            <path fill="none" stroke-width="1.0" stroke-linecap="round" stroke-opacity="1.0" stroke="rgb(0, 0, 0)" stroke-linejoin="round" d=" M 410.105, 176.463 409.429, 176.997 406.884, 179.671 406.622, 180.032 " stroke-name="b_2383_p1b2382" stroke-occlusion=" True True True True " />
            <path fill="none" stroke-width="1.0" stroke-linecap="round" stroke-opacity="1.0" stroke="rgb(0, 0, 0)" stroke-linejoin="round" d=" M 442.413, 229.813 442.689, 229.720 443.722, 228.990 " stroke-name="b_2383_p1b2382" stroke-occlusion=" True True True " />
            <path fill="none" stroke-width="1.0" stroke-linecap="round" stroke-opacity="1.0" stroke="rgb(0, 0, 0)" stroke-linejoin="round" d=" M 451.178, 226.634 451.570, 227.401 451.693, 227.561 " stroke-name="b_2383_p1b2382" stroke-occlusion=" True True True " />
            <path fill="none" stroke-width="1.0" stroke-linecap="round" stroke-opacity="1.0" stroke="rgb(0, 0, 0)" stroke-linejoin="round" d=" M 447.416, 227.969 447.895, 228.908 448.019, 229.070 " stroke-name="b_2383_p1b2382" stroke-occlusion=" True True True " />
            <path fill="none" stroke-width="1.0" stroke-linecap="round" stroke-opacity="1.0" stroke="rgb(0, 0, 0)" stroke-linejoin="round" d=" M 418.365, 225.399 419.200, 226.872 419.323, 227.032 420.193, 226.256 420.199, 226.250 " stroke-name="b_2383_p1b2382" stroke-occlusion=" True True True True True " />
            <path fill="none" stroke-width="1.0" stroke-linecap="round" stroke-opacity="1.0" stroke="rgb(0, 0, 0)" stroke-linejoin="round" d=" M 437.553, 229.445 437.906, 230.137 438.030, 230.298 439.491, 229.111 " stroke-name="b_2383_p1b2382" stroke-occlusion=" True True True True " />
            <path fill="none" stroke-width="1.0" stroke-linecap="round" stroke-opacity="1.0" stroke="rgb(0, 0, 0)" stroke-linejoin="round" d=" M 414.813, 223.827 415.725, 225.142 416.435, 224.636 " stroke-name="b_2383_p1b2382" stroke-occlusion=" True True True " />
            <path fill="none" stroke-width="1.0" stroke-linecap="round" stroke-opacity="1.0" stroke="rgb(0, 0, 0)" stroke-linejoin="round" d=" M 401.310, 201.611 400.886, 202.009 401.272, 204.579 402.764, 209.480 " stroke-name="b_2383_p1b2382" stroke-occlusion=" True True True True " />
            <path fill="none" stroke-width="1.0" stroke-linecap="round" stroke-opacity="1.0" stroke="rgb(0, 0, 0)" stroke-linejoin="round" d=" M 401.080, 197.251 400.389, 198.019 400.127, 198.382 " stroke-name="b_2383_p1b2382" stroke-occlusion=" True True True " />
            <path fill="none" stroke-width="1.0" stroke-linecap="round" stroke-opacity="1.0" stroke="rgb(0, 0, 0)" stroke-linejoin="round" d=" M 433.672, 163.978 431.441, 164.373 430.147, 164.512 " stroke-name="b_2383_p1b2382" stroke-occlusion=" True True True " />
            <path fill="none" stroke-width="1.0" stroke-linecap="round" stroke-opacity="1.0" stroke="rgb(0, 0, 0)" stroke-linejoin="round" d=" M 464.927, 208.725 466.232, 207.582 465.514, 206.549 " stroke-name="b_2383_p1b2382" stroke-occlusion=" True True True " />
            <path fill="none" stroke-width="1.0" stroke-linecap="round" stroke-opacity="1.0" stroke="rgb(0, 0, 0)" stroke-linejoin="round" d=" M 463.611, 212.968 464.848, 211.885 464.328, 210.954 " stroke-name="b_2383_p1b2382" stroke-occlusion=" True True True " />
            <path fill="none" stroke-width="1.0" stroke-linecap="round" stroke-opacity="1.0" stroke="rgb(0, 0, 0)" stroke-linejoin="round" d=" M 461.707, 216.497 462.979, 215.237 462.734, 214.885 " stroke-name="b_2383_p1b2382" stroke-occlusion=" True True True " />
            <path fill="none" stroke-width="1.0" stroke-linecap="round" stroke-opacity="1.0" stroke="rgb(0, 0, 0)" stroke-linejoin="round" d=" M 437.790, 163.947 437.245, 163.162 436.148, 163.938 " stroke-name="b_2383_p1b2382" stroke-occlusion=" True True True " />
            <path fill="none" stroke-width="1.0" stroke-linecap="round" stroke-opacity="1.0" stroke="rgb(0, 0, 0)" stroke-linejoin="round" d=" M 466.900, 196.385 467.905, 195.385 458.317, 182.061 " stroke-name="b_2383_p1b2382" stroke-occlusion=" True True True " />
            <path fill="none" stroke-width="1.0" stroke-linecap="round" stroke-opacity="1.0" stroke="rgb(0, 0, 0)" stroke-linejoin="round" d=" M 460.860, 218.230 462.057, 217.182 461.707, 216.497 " stroke-name="b_2383_p1b2382" stroke-occlusion=" True True True " />
            <path fill="none" stroke-width="1.0" stroke-linecap="round" stroke-opacity="1.0" stroke="rgb(0, 0, 0)" stroke-linejoin="round" d=" M 402.428, 189.841 402.427, 189.842 401.165, 191.076 400.902, 191.438 " stroke-name="b_2383_p1b2382" stroke-occlusion=" True True True True " />
            <path fill="none" stroke-width="1.0" stroke-linecap="round" stroke-opacity="1.0" stroke="rgb(0, 0, 0)" stroke-linejoin="round" d=" M 477.757, 24.683 477.921, 24.579 479.518, 14.538 463.215, 12.719 458.446, 12.163 458.770, 10.616 435.195, 6.885 435.143, 7.139 " stroke-name="b_2349_p1b2348" stroke-occlusion=" True True True True True True True True " />
            <path fill="none" stroke-width="1.0" stroke-linecap="round" stroke-opacity="1.0" stroke="rgb(0, 0, 0)" stroke-linejoin="round" d=" M 455.186, 61.044 453.200, 60.767 457.270, 36.101 459.636, 21.767 " stroke-name="b_2349_p1b2348" stroke-occlusion=" True True True True " />
            <path fill="none" stroke-width="1.0" stroke-linecap="round" stroke-opacity="1.0" stroke="rgb(0, 0, 0)" stroke-linejoin="round" d=" M 434.675, 8.689 431.059, 7.981 430.458, 8.280 426.419, 32.951 422.484, 56.984 424.390, 57.210 423.698, 61.495 " stroke-name="b_2349_p1b2348" stroke-occlusion=" True True True True True True True " />
            <path fill="none" stroke-width="1.0" stroke-linecap="round" stroke-opacity="1.0" stroke="rgb(0, 0, 0)" stroke-linejoin="round" d=" M 453.742, 106.262 454.004, 105.901 455.677, 104.247 459.620, 79.560 461.530, 67.596 459.626, 67.371 460.536, 62.387 458.978, 62.126 " stroke-name="b_2349_p1b2348" stroke-occlusion=" True True True True True True True True " />
            <path fill="none" stroke-width="1.0" stroke-linecap="round" stroke-opacity="1.0" stroke="rgb(0, 0, 0)" stroke-linejoin="round" d=" M 451.344, 110.505 452.862, 109.006 453.380, 106.169 " stroke-name="b_2349_p1b2348" stroke-occlusion=" True True True " />
            <path fill="none" stroke-width="1.0" stroke-linecap="round" stroke-opacity="1.0" stroke="rgb(0, 0, 0)" stroke-linejoin="round" d=" M 461.142, 21.977 457.374, 46.692 455.186, 61.044 " stroke-name="b_2349_p1b2348" stroke-occlusion=" True True True " />
            <path fill="none" stroke-width="1.0" stroke-linecap="round" stroke-opacity="1.0" stroke="rgb(0, 0, 0)" stroke-linejoin="round" d=" M 423.698, 61.495 423.296, 61.392 421.461, 63.317 419.947, 73.089 " stroke-name="b_2349_p1b2348" stroke-occlusion=" True True True True " />
            <path fill="none" stroke-width="1.0" stroke-linecap="round" stroke-opacity="1.0" stroke="rgb(0, 0, 0)" stroke-linejoin="round" d=" M 416.804, 100.108 417.912, 100.263 417.760, 101.097 " stroke-name="b_2349_p1b2348" stroke-occlusion=" True True True " />
            <path fill="none" stroke-width="1.0" stroke-linecap="round" stroke-opacity="1.0" stroke="rgb(0, 0, 0)" stroke-linejoin="round" d=" M 459.025, 62.040 459.064, 61.980 459.265, 61.676 459.495, 60.078 " stroke-name="b_2349_p1b2348" stroke-occlusion=" True True True True " />
            <path fill="none" stroke-width="1.0" stroke-linecap="round" stroke-opacity="1.0" stroke="rgb(0, 0, 0)" stroke-linejoin="round" d=" M 459.495, 60.078 469.985, 61.909 470.247, 61.547 474.271, 36.873 474.377, 36.220 " stroke-name="b_2349_p1b2348" stroke-occlusion=" True True True True True " />
            <path fill="none" stroke-width="1.0" stroke-linecap="round" stroke-opacity="1.0" stroke="rgb(0, 0, 0)" stroke-linejoin="round" d=" M 270.835, 204.250 271.184, 204.080 " stroke-name="b_2418_p1b2417" stroke-occlusion=" True True " />
            <path fill="none" stroke-width="1.0" stroke-linecap="round" stroke-opacity="1.0" stroke="rgb(0, 0, 0)" stroke-linejoin="round" d=" M 264.968, 330.339 271.355, 344.178 " stroke-name="b_2465_p1b2464" stroke-occlusion=" True True " />
            <path fill="none" stroke-width="1.0" stroke-linecap="round" stroke-opacity="1.0" stroke="rgb(0, 0, 0)" stroke-linejoin="round" d=" M 271.432, 357.778 268.932, 352.398 " stroke-name="b_2465_p1b2464" stroke-occlusion=" True True " />
            <path fill="none" stroke-width="1.0" stroke-linecap="round" stroke-opacity="1.0" stroke="rgb(0, 0, 0)" stroke-linejoin="round" d=" M 272.329, 359.545 271.432, 357.778 " stroke-name="b_2465_p1b2464" stroke-occlusion=" True True " />
            <path fill="none" stroke-width="1.0" stroke-linecap="round" stroke-opacity="1.0" stroke="rgb(0, 0, 0)" stroke-linejoin="round" d=" M 278.693, 356.559 272.329, 359.545 " stroke-name="b_2465_p1b2464" stroke-occlusion=" True True " />
            <path fill="none" stroke-width="1.0" stroke-linecap="round" stroke-opacity="1.0" stroke="rgb(0, 0, 0)" stroke-linejoin="round" d=" M 281.831, 376.782 281.831, 376.782 287.764, 389.524 " stroke-name="b_2465_p1b2464" stroke-occlusion=" True True True " />
            <path fill="none" stroke-width="1.0" stroke-linecap="round" stroke-opacity="1.0" stroke="rgb(0, 0, 0)" stroke-linejoin="round" d=" M 291.332, 187.108 290.119, 184.819 " stroke-name="b_2418_p1b2417" stroke-occlusion=" True True " />
            <path fill="none" stroke-width="1.0" stroke-linecap="round" stroke-opacity="1.0" stroke="rgb(0, 0, 0)" stroke-linejoin="round" d=" M 271.184, 204.080 273.197, 208.085 " stroke-name="b_2418_p1b2417" stroke-occlusion=" True True " />
            <path fill="none" stroke-width="1.0" stroke-linecap="round" stroke-opacity="1.0" stroke="rgb(0, 0, 0)" stroke-linejoin="round" d=" M 343.937, 351.823 342.298, 352.584 " stroke-name="b_2465_p1b2464" stroke-occlusion=" True True " />
            <path fill="none" stroke-width="1.0" stroke-linecap="round" stroke-opacity="1.0" stroke="rgb(0, 0, 0)" stroke-linejoin="round" d=" M 348.205, 348.975 348.372, 349.301 " stroke-name="b_2465_p1b2464" stroke-occlusion=" True True " />
            <path fill="none" stroke-width="1.0" stroke-linecap="round" stroke-opacity="1.0" stroke="rgb(0, 0, 0)" stroke-linejoin="round" d=" M 401.701, 192.036 401.882, 192.362 " stroke-name="b_2383_p1b2382" stroke-occlusion=" True True " />
            <path fill="none" stroke-width="1.0" stroke-linecap="round" stroke-opacity="1.0" stroke="rgb(0, 0, 0)" stroke-linejoin="round" d=" M 411.123, 165.283 410.105, 176.463 " stroke-name="b_2383_p1b2382" stroke-occlusion=" True True " />
            <path fill="none" stroke-width="1.0" stroke-linecap="round" stroke-opacity="1.0" stroke="rgb(0, 0, 0)" stroke-linejoin="round" d=" M 430.147, 164.512 433.066, 149.299 " stroke-name="b_2383_p1b2382" stroke-occlusion=" True True " />
            <path fill="none" stroke-width="1.0" stroke-linecap="round" stroke-opacity="1.0" stroke="rgb(0, 0, 0)" stroke-linejoin="round" d=" M 435.143, 7.139 434.941, 7.416 " stroke-name="b_2349_p1b2348" stroke-occlusion=" True True " />
            <path fill="none" stroke-width="1.0" stroke-linecap="round" stroke-opacity="1.0" stroke="rgb(0, 0, 0)" stroke-linejoin="round" d=" M 447.577, 165.670 447.429, 165.769 " stroke-name="b_2383_p1b2382" stroke-occlusion=" True True " />
            <path fill="none" stroke-width="1.0" stroke-linecap="round" stroke-opacity="1.0" stroke="rgb(0, 0, 0)" stroke-linejoin="round" d=" M 456.683, 159.493 448.710, 165.902 " stroke-name="b_2383_p1b2382" stroke-occlusion=" True True " />
            <path fill="none" stroke-width="1.0" stroke-linecap="round" stroke-opacity="1.0" stroke="rgb(0, 0, 0)" stroke-linejoin="round" d=" M 474.377, 36.220 476.290, 24.815 " stroke-name="b_2349_p1b2348" stroke-occlusion=" True True " />
            <path fill="none" stroke-width="1.0" stroke-linecap="round" stroke-opacity="1.0" stroke="rgb(0, 0, 0)" stroke-linejoin="round" d=" M 458.317, 182.061 478.498, 167.305 498.679, 152.549 507.779, 145.895 " stroke-name="b_2383_p1b2382" stroke-occlusion=" True True True True " />
        </g>
    </g>
</svg>
