<?xml version='1.0' encoding='ascii'?>
<svg xmlns="http://www.w3.org/2000/svg" version="1.1" width="512" height="512">
    <g id="ViewLayer_LineSet 2" xmlns:inkscape="http://www.inkscape.org/namespaces/inkscape" inkscape:groupmode="lineset" inkscape:label="ViewLayer_LineSet 2">
        <g xmlns:inkscape="http://www.inkscape.org/namespaces/inkscape" inkscape:groupmode="layer" id="strokes" inkscape:label="strokes">
            <path fill="none" stroke-width="1.0" stroke-linecap="round" stroke-opacity="1.0" stroke="rgb(0, 0, 0)" stroke-linejoin="round" d=" M 338.053, 79.837 335.996, 78.744 320.158, 98.088 310.447, 109.948 329.694, 125.902 341.647, 135.809 343.713, 136.688 348.066, 131.283 " stroke-name="b_2534_p1b2533" stroke-occlusion=" True True True True True True True True " />
            <path fill="none" stroke-width="1.0" stroke-linecap="round" stroke-opacity="1.0" stroke="rgb(0, 0, 0)" stroke-linejoin="round" d=" M 368.777, 105.155 368.894, 104.980 353.102, 92.101 " stroke-name="b_2534_p1b2533" stroke-occlusion=" True True True " />
            <path fill="none" stroke-width="1.0" stroke-linecap="round" stroke-opacity="1.0" stroke="rgb(0, 0, 0)" stroke-linejoin="round" d=" M 410.051, 139.946 390.666, 124.159 381.919, 117.035 375.549, 111.847 373.850, 110.821 370.930, 114.269 369.972, 115.532 " stroke-name="b_2534_p1b2533" stroke-occlusion=" True True True True True True True " />
            <path fill="none" stroke-width="1.0" stroke-linecap="round" stroke-opacity="1.0" stroke="rgb(0, 0, 0)" stroke-linejoin="round" d=" M 354.035, 135.772 349.168, 141.719 368.611, 157.434 383.674, 169.609 385.044, 170.267 385.202, 170.343 401.044, 151.003 407.228, 143.453 410.081, 139.971 " stroke-name="b_2534_p1b2533" stroke-occlusion=" True True True True True True True True True " />
            <path fill="none" stroke-width="1.0" stroke-linecap="round" stroke-opacity="1.0" stroke="rgb(0, 0, 0)" stroke-linejoin="round" d=" M 348.066, 131.283 352.911, 135.494 354.035, 135.772 " stroke-name="b_2534_p1b2533" stroke-occlusion=" True True True " />
            <path fill="none" stroke-width="1.0" stroke-linecap="round" stroke-opacity="1.0" stroke="rgb(0, 0, 0)" stroke-linejoin="round" d=" M 309.152, 367.903 309.577, 368.268 308.549, 369.710 314.124, 374.094 314.073, 374.223 325.884, 383.841 326.228, 384.058 331.930, 389.067 333.603, 389.546 334.593, 388.316 " stroke-name="b_2514_p1b2513" stroke-occlusion=" True True True True True True True True True True " />
            <path fill="none" stroke-width="1.0" stroke-linecap="round" stroke-opacity="1.0" stroke="rgb(0, 0, 0)" stroke-linejoin="round" d=" M 360.269, 358.143 359.848, 357.744 360.946, 356.203 361.043, 356.024 " stroke-name="b_2514_p1b2513" stroke-occlusion=" True True True True " />
            <path fill="none" stroke-width="1.0" stroke-linecap="round" stroke-opacity="1.0" stroke="rgb(0, 0, 0)" stroke-linejoin="round" d=" M 339.649, 386.830 341.321, 387.323 357.313, 368.108 360.868, 363.837 359.626, 362.837 362.090, 359.866 362.187, 359.687 " stroke-name="b_2514_p1b2513" stroke-occlusion=" True True True True True True True " />
            <path fill="none" stroke-width="1.0" stroke-linecap="round" stroke-opacity="1.0" stroke="rgb(0, 0, 0)" stroke-linejoin="round" d=" M 334.593, 388.316 335.583, 389.113 337.159, 389.770 339.649, 386.830 " stroke-name="b_2514_p1b2513" stroke-occlusion=" True True True True " />
            <path fill="none" stroke-width="1.0" stroke-linecap="round" stroke-opacity="1.0" stroke="rgb(0, 0, 0)" stroke-linejoin="round" d=" M 342.204, 340.599 337.831, 336.959 337.688, 336.901 " stroke-name="b_2514_p1b2513" stroke-occlusion=" True True True " />
            <path fill="none" stroke-width="1.0" stroke-linecap="round" stroke-opacity="1.0" stroke="rgb(0, 0, 0)" stroke-linejoin="round" d=" M 335.359, 337.422 334.250, 336.500 338.398, 331.113 338.782, 330.613 " stroke-name="b_2514_p1b2513" stroke-occlusion=" True True True True " />
            <path fill="none" stroke-width="1.0" stroke-linecap="round" stroke-opacity="1.0" stroke="rgb(0, 0, 0)" stroke-linejoin="round" d=" M 338.793, 330.622 338.911, 330.446 319.588, 314.584 318.941, 314.053 318.205, 313.723 302.365, 333.064 286.524, 352.405 284.379, 355.025 303.653, 370.948 304.642, 371.765 305.452, 372.253 309.152, 367.903 " stroke-name="b_2514_p1b2513" stroke-occlusion=" True True True True True True True True True True True True " />
            <path fill="none" stroke-width="1.0" stroke-linecap="round" stroke-opacity="1.0" stroke="rgb(0, 0, 0)" stroke-linejoin="round" d=" M 337.718, 336.926 337.717, 336.926 337.678, 336.915 336.159, 336.480 335.359, 337.422 " stroke-name="b_2514_p1b2513" stroke-occlusion=" True True True True True " />
            <path fill="none" stroke-width="1.0" stroke-linecap="round" stroke-opacity="1.0" stroke="rgb(0, 0, 0)" stroke-linejoin="round" d=" M 267.568, 174.589 259.735, 174.768 258.762, 178.509 " stroke-name="b_2512_p1b2511" stroke-occlusion=" True True True " />
            <path fill="none" stroke-width="1.0" stroke-linecap="round" stroke-opacity="1.0" stroke="rgb(0, 0, 0)" stroke-linejoin="round" d=" M 306.449, 222.285 317.352, 231.668 323.144, 236.654 323.414, 236.712 333.387, 234.580 " stroke-name="b_2512_p1b2511" stroke-occlusion=" True True True True True " />
            <path fill="none" stroke-width="1.0" stroke-linecap="round" stroke-opacity="1.0" stroke="rgb(0, 0, 0)" stroke-linejoin="round" d=" M 270.113, 210.758 270.298, 210.909 288.009, 225.389 288.717, 225.539 294.885, 224.392 " stroke-name="b_2512_p1b2511" stroke-occlusion=" True True True True True " />
            <path fill="none" stroke-width="1.0" stroke-linecap="round" stroke-opacity="1.0" stroke="rgb(0, 0, 0)" stroke-linejoin="round" d=" M 370.700, 230.349 370.504, 230.136 368.600, 228.312 364.580, 224.657 359.727, 220.244 " stroke-name="b_2512_p1b2511" stroke-occlusion=" True True True True True " />
            <path fill="none" stroke-width="1.0" stroke-linecap="round" stroke-opacity="1.0" stroke="rgb(0, 0, 0)" stroke-linejoin="round" d=" M 258.762, 178.509 251.479, 187.882 251.876, 188.227 239.607, 203.548 252.589, 213.954 253.026, 214.046 " stroke-name="b_2512_p1b2511" stroke-occlusion=" True True True True True True " />
            <path fill="none" stroke-width="1.0" stroke-linecap="round" stroke-opacity="1.0" stroke="rgb(0, 0, 0)" stroke-linejoin="round" d=" M 305.130, 174.701 304.900, 174.622 304.824, 174.596 289.047, 170.435 267.636, 174.495 267.568, 174.589 " stroke-name="b_2512_p1b2511" stroke-occlusion=" True True True True True True " />
            <path fill="none" stroke-width="1.0" stroke-linecap="round" stroke-opacity="1.0" stroke="rgb(0, 0, 0)" stroke-linejoin="round" d=" M 338.764, 237.807 345.256, 243.359 345.524, 243.445 363.120, 239.849 " stroke-name="b_2512_p1b2511" stroke-occlusion=" True True True True " />
            <path fill="none" stroke-width="1.0" stroke-linecap="round" stroke-opacity="1.0" stroke="rgb(0, 0, 0)" stroke-linejoin="round" d=" M 121.745, 161.565 120.278, 160.800 104.549, 180.232 91.240, 196.674 110.618, 212.469 129.997, 228.263 149.376, 244.058 156.237, 249.650 157.741, 250.435 173.653, 231.152 187.119, 214.832 174.707, 204.717 " stroke-name="b_2466_p1b2465" stroke-occlusion=" True True True True True True True True True True True True " />
            <path fill="none" stroke-width="1.0" stroke-linecap="round" stroke-opacity="1.0" stroke="rgb(0, 0, 0)" stroke-linejoin="round" d=" M 114.258, -14.093 98.516, 5.329 82.775, 24.751 82.038, 25.659 84.521, 27.660 84.352, 27.680 68.345, 46.884 53.319, 64.911 54.633, 65.782 73.596, 82.073 78.166, 85.999 78.535, 86.163 91.006, 96.633 90.674, 97.476 110.040, 113.285 129.225, 128.947 130.082, 129.386 130.083, 129.387 130.148, 129.420 " stroke-name="b_2465_p1b2464" stroke-occlusion=" True True True True True True True True True True True True True True True True True True True " />
            <path fill="none" stroke-width="1.0" stroke-linecap="round" stroke-opacity="1.0" stroke="rgb(0, 0, 0)" stroke-linejoin="round" d=" M 138.496, 29.614 142.013, 32.776 142.610, 32.632 " stroke-name="b_2465_p1b2464" stroke-occlusion=" True True True " />
            <path fill="none" stroke-width="1.0" stroke-linecap="round" stroke-opacity="1.0" stroke="rgb(0, 0, 0)" stroke-linejoin="round" d=" M 144.976, 76.598 137.744, 70.438 142.402, 64.654 142.422, 64.628 " stroke-name="b_2465_p1b2464" stroke-occlusion=" True True True True " />
            <path fill="none" stroke-width="1.0" stroke-linecap="round" stroke-opacity="1.0" stroke="rgb(0, 0, 0)" stroke-linejoin="round" d=" M 135.988, 45.049 130.625, 50.942 130.333, 50.880 127.870, 53.851 128.057, 54.002 " stroke-name="b_2465_p1b2464" stroke-occlusion=" True True True True True " />
            <path fill="none" stroke-width="1.0" stroke-linecap="round" stroke-opacity="1.0" stroke="rgb(0, 0, 0)" stroke-linejoin="round" d=" M 143.974, 33.817 144.941, 34.733 140.127, 39.926 139.933, 39.999 135.915, 44.988 135.988, 45.049 " stroke-name="b_2465_p1b2464" stroke-occlusion=" True True True True True True " />
            <path fill="none" stroke-width="1.0" stroke-linecap="round" stroke-opacity="1.0" stroke="rgb(0, 0, 0)" stroke-linejoin="round" d=" M 128.057, 54.002 123.975, 58.868 123.358, 59.635 123.357, 59.635 " stroke-name="b_2465_p1b2464" stroke-occlusion=" True True True True " />
            <path fill="none" stroke-width="1.0" stroke-linecap="round" stroke-opacity="1.0" stroke="rgb(0, 0, 0)" stroke-linejoin="round" d=" M 121.537, 17.356 136.643, 29.719 137.589, 29.980 " stroke-name="b_2465_p1b2464" stroke-occlusion=" True True True " />
            <path fill="none" stroke-width="1.0" stroke-linecap="round" stroke-opacity="1.0" stroke="rgb(0, 0, 0)" stroke-linejoin="round" d=" M 243.428, 122.702 247.350, 117.892 247.446, 117.713 228.195, 101.763 213.006, 89.179 210.206, 88.258 206.719, 92.586 " stroke-name="b_2465_p1b2464" stroke-occlusion=" True True True True True True True " />
            <path fill="none" stroke-width="1.0" stroke-linecap="round" stroke-opacity="1.0" stroke="rgb(0, 0, 0)" stroke-linejoin="round" d=" M 156.505, 76.074 156.498, 76.103 155.712, 79.334 156.947, 83.536 " stroke-name="b_2465_p1b2464" stroke-occlusion=" True True True True " />
            <path fill="none" stroke-width="1.0" stroke-linecap="round" stroke-opacity="1.0" stroke="rgb(0, 0, 0)" stroke-linejoin="round" d=" M 156.947, 83.536 157.461, 85.579 158.156, 86.502 " stroke-name="b_2465_p1b2464" stroke-occlusion=" True True True " />
            <path fill="none" stroke-width="1.0" stroke-linecap="round" stroke-opacity="1.0" stroke="rgb(0, 0, 0)" stroke-linejoin="round" d=" M 168.997, 138.159 169.142, 138.216 170.652, 136.281 " stroke-name="b_2465_p1b2464" stroke-occlusion=" True True True " />
            <path fill="none" stroke-width="1.0" stroke-linecap="round" stroke-opacity="1.0" stroke="rgb(0, 0, 0)" stroke-linejoin="round" d=" M 165.103, 101.861 165.275, 102.007 165.275, 102.008 177.324, 112.196 167.565, 123.873 161.447, 118.842 156.393, 114.686 " stroke-name="b_2465_p1b2464" stroke-occlusion=" True True True True True True True " />
            <path fill="none" stroke-width="1.0" stroke-linecap="round" stroke-opacity="1.0" stroke="rgb(0, 0, 0)" stroke-linejoin="round" d=" M 170.652, 136.281 171.074, 136.680 166.715, 141.398 186.102, 157.183 201.588, 169.792 203.808, 170.564 204.245, 170.656 " stroke-name="b_2465_p1b2464" stroke-occlusion=" True True True True True True True " />
            <path fill="none" stroke-width="1.0" stroke-linecap="round" stroke-opacity="1.0" stroke="rgb(0, 0, 0)" stroke-linejoin="round" d=" M 199.967, 68.507 205.659, 62.190 205.539, 62.081 205.636, 61.901 " stroke-name="b_2465_p1b2464" stroke-occlusion=" True True True True " />
            <path fill="none" stroke-width="1.0" stroke-linecap="round" stroke-opacity="1.0" stroke="rgb(0, 0, 0)" stroke-linejoin="round" d=" M 130.138, 129.433 130.283, 129.490 141.212, 115.832 160.720, 131.467 163.892, 134.009 " stroke-name="b_2465_p1b2464" stroke-occlusion=" True True True True True " />
            <path fill="none" stroke-width="1.0" stroke-linecap="round" stroke-opacity="1.0" stroke="rgb(0, 0, 0)" stroke-linejoin="round" d=" M 102.997, 32.412 104.021, 32.634 104.218, 32.846 " stroke-name="b_2465_p1b2464" stroke-occlusion=" True True True " />
            <path fill="none" stroke-width="1.0" stroke-linecap="round" stroke-opacity="1.0" stroke="rgb(0, 0, 0)" stroke-linejoin="round" d=" M 206.719, 92.586 206.530, 92.402 190.757, 79.129 " stroke-name="b_2465_p1b2464" stroke-occlusion=" True True True " />
            <path fill="none" stroke-width="1.0" stroke-linecap="round" stroke-opacity="1.0" stroke="rgb(0, 0, 0)" stroke-linejoin="round" d=" M 164.133, 90.906 164.279, 90.963 169.987, 91.236 173.579, 90.253 " stroke-name="b_2465_p1b2464" stroke-occlusion=" True True True True " />
            <path fill="none" stroke-width="1.0" stroke-linecap="round" stroke-opacity="1.0" stroke="rgb(0, 0, 0)" stroke-linejoin="round" d=" M 207.638, 166.217 207.723, 166.299 210.283, 167.342 226.058, 147.948 241.834, 128.554 245.422, 124.142 245.518, 123.964 " stroke-name="b_2465_p1b2464" stroke-occlusion=" True True True True True True True " />
            <path fill="none" stroke-width="1.0" stroke-linecap="round" stroke-opacity="1.0" stroke="rgb(0, 0, 0)" stroke-linejoin="round" d=" M 158.156, 86.502 159.662, 88.633 159.688, 88.651 " stroke-name="b_2465_p1b2464" stroke-occlusion=" True True True " />
            <path fill="none" stroke-width="1.0" stroke-linecap="round" stroke-opacity="1.0" stroke="rgb(0, 0, 0)" stroke-linejoin="round" d=" M 157.399, 20.627 157.203, 20.414 137.826, 4.617 118.450, -11.180 115.486, -13.597 " stroke-name="b_2465_p1b2464" stroke-occlusion=" True True True True True " />
            <path fill="none" stroke-width="1.0" stroke-linecap="round" stroke-opacity="1.0" stroke="rgb(0, 0, 0)" stroke-linejoin="round" d=" M 123.358, 59.635 104.300, 43.455 98.243, 38.313 102.997, 32.412 " stroke-name="b_2465_p1b2464" stroke-occlusion=" True True True True " />
            <path fill="none" stroke-width="1.0" stroke-linecap="round" stroke-opacity="1.0" stroke="rgb(0, 0, 0)" stroke-linejoin="round" d=" M 326.056, 296.908 326.055, 296.908 326.018, 296.898 326.018, 296.898 325.634, 296.797 308.859, 302.905 298.918, 307.977 284.566, 317.299 271.178, 329.191 255.026, 348.201 255.025, 348.202 254.979, 348.255 " stroke-name="b_2446_p1b2445" stroke-occlusion=" True True True True True True True True True True True True " />
            <path fill="none" stroke-width="1.0" stroke-linecap="round" stroke-opacity="1.0" stroke="rgb(0, 0, 0)" stroke-linejoin="round" d=" M 314.954, 291.642 313.587, 287.532 313.268, 287.264 305.309, 289.608 282.548, 299.949 280.771, 300.756 267.715, 310.352 " stroke-name="b_2446_p1b2445" stroke-occlusion=" True True True True True True True " />
            <path fill="none" stroke-width="1.0" stroke-linecap="round" stroke-opacity="1.0" stroke="rgb(0, 0, 0)" stroke-linejoin="round" d=" M 267.715, 310.352 258.402, 317.003 246.051, 328.568 240.024, 336.051 " stroke-name="b_2446_p1b2445" stroke-occlusion=" True True True True " />
            <path fill="none" stroke-width="1.0" stroke-linecap="round" stroke-opacity="1.0" stroke="rgb(0, 0, 0)" stroke-linejoin="round" d=" M 267.694, 363.885 270.249, 360.713 258.730, 351.229 " stroke-name="b_2446_p1b2445" stroke-occlusion=" True True True " />
            <path fill="none" stroke-width="1.0" stroke-linecap="round" stroke-opacity="1.0" stroke="rgb(0, 0, 0)" stroke-linejoin="round" d=" M 167.650, 376.116 167.187, 375.791 167.013, 375.866 151.178, 395.211 135.342, 414.556 119.506, 433.901 115.247, 439.104 115.422, 439.307 " stroke-name="b_2446_p1b2445" stroke-occlusion=" True True True True True True True True " />
            <path fill="none" stroke-width="1.0" stroke-linecap="round" stroke-opacity="1.0" stroke="rgb(0, 0, 0)" stroke-linejoin="round" d=" M 296.104, 315.244 298.775, 313.458 301.658, 311.858 " stroke-name="b_2446_p1b2445" stroke-occlusion=" True True True " />
            <path fill="none" stroke-width="1.0" stroke-linecap="round" stroke-opacity="1.0" stroke="rgb(0, 0, 0)" stroke-linejoin="round" d=" M 326.657, 299.005 326.194, 296.944 326.050, 296.886 " stroke-name="b_2446_p1b2445" stroke-occlusion=" True True True " />
            <path fill="none" stroke-width="1.0" stroke-linecap="round" stroke-opacity="1.0" stroke="rgb(0, 0, 0)" stroke-linejoin="round" d=" M 244.056, 339.097 248.731, 333.266 259.475, 323.251 278.782, 308.221 291.795, 300.562 296.640, 298.583 " stroke-name="b_2446_p1b2445" stroke-occlusion=" True True True True True True " />
            <path fill="none" stroke-width="1.0" stroke-linecap="round" stroke-opacity="1.0" stroke="rgb(0, 0, 0)" stroke-linejoin="round" d=" M 222.754, 327.376 222.730, 327.356 222.439, 327.118 206.570, 346.435 190.700, 365.752 176.327, 383.248 " stroke-name="b_2446_p1b2445" stroke-occlusion=" True True True True True True " />
            <path fill="none" stroke-width="1.0" stroke-linecap="round" stroke-opacity="1.0" stroke="rgb(0, 0, 0)" stroke-linejoin="round" d=" M 226.612, 325.080 226.363, 325.051 223.795, 328.008 " stroke-name="b_2446_p1b2445" stroke-occlusion=" True True True " />
            <path fill="none" stroke-width="1.0" stroke-linecap="round" stroke-opacity="1.0" stroke="rgb(0, 0, 0)" stroke-linejoin="round" d=" M 115.562, 439.370 120.727, 443.730 124.577, 446.980 108.730, 466.316 92.883, 485.651 77.036, 504.987 75.612, 506.724 " stroke-name="b_2446_p1b2445" stroke-occlusion=" True True True True True True True " />
            <path fill="none" stroke-width="1.0" stroke-linecap="round" stroke-opacity="1.0" stroke="rgb(0, 0, 0)" stroke-linejoin="round" d=" M 61.628, 181.157 61.506, 181.102 59.410, 180.358 43.354, 199.519 30.601, 214.738 49.934, 230.589 69.266, 246.441 73.585, 249.983 76.021, 250.998 91.964, 231.741 104.516, 216.581 104.612, 216.402 " stroke-name="b_2444_p1b2443" stroke-occlusion=" True True True True True True True True True True True True " />
            <path fill="none" stroke-width="1.0" stroke-linecap="round" stroke-opacity="1.0" stroke="rgb(0, 0, 0)" stroke-linejoin="round" d=" M 146.148, 266.404 156.931, 253.192 137.511, 237.448 118.067, 221.684 105.246, 237.661 104.855, 237.520 100.408, 243.219 97.032, 247.143 86.317, 260.446 105.684, 276.256 124.867, 291.917 125.295, 291.883 " stroke-name="b_2444_p1b2443" stroke-occlusion=" True True True True True True True True True True True True " />
            <path fill="none" stroke-width="1.0" stroke-linecap="round" stroke-opacity="1.0" stroke="rgb(0, 0, 0)" stroke-linejoin="round" d=" M 70.017, 120.113 50.616, 104.346 34.681, 91.394 32.243, 90.380 16.450, 109.759 0.656, 129.138 -3.350, 134.055 13.743, 147.922 " stroke-name="b_2418_p1b2417" stroke-occlusion=" True True True True True True True True " />
            <path fill="none" stroke-width="1.0" stroke-linecap="round" stroke-opacity="1.0" stroke="rgb(0, 0, 0)" stroke-linejoin="round" d=" M 10.961, 149.211 10.809, 149.089 -5.042, 168.421 -12.730, 177.798 6.570, 193.689 22.462, 206.773 22.832, 206.911 25.413, 203.706 " stroke-name="b_2418_p1b2417" stroke-occlusion=" True True True True True True True True " />
            <path fill="none" stroke-width="1.0" stroke-linecap="round" stroke-opacity="1.0" stroke="rgb(0, 0, 0)" stroke-linejoin="round" d=" M 11.302, 149.282 10.961, 149.211 " stroke-name="b_2418_p1b2417" stroke-occlusion=" True True " />
            <path fill="none" stroke-width="1.0" stroke-linecap="round" stroke-opacity="1.0" stroke="rgb(0, 0, 0)" stroke-linejoin="round" d=" M 13.743, 147.922 12.149, 149.965 " stroke-name="b_2418_p1b2417" stroke-occlusion=" True True " />
            <path fill="none" stroke-width="1.0" stroke-linecap="round" stroke-opacity="1.0" stroke="rgb(0, 0, 0)" stroke-linejoin="round" d=" M 37.745, 159.616 37.464, 159.381 " stroke-name="b_2418_p1b2417" stroke-occlusion=" True True " />
            <path fill="none" stroke-width="1.0" stroke-linecap="round" stroke-opacity="1.0" stroke="rgb(0, 0, 0)" stroke-linejoin="round" d=" M 37.464, 159.381 40.293, 155.913 " stroke-name="b_2418_p1b2417" stroke-occlusion=" True True " />
            <path fill="none" stroke-width="1.0" stroke-linecap="round" stroke-opacity="1.0" stroke="rgb(0, 0, 0)" stroke-linejoin="round" d=" M 75.612, 506.724 60.642, 524.952 " stroke-name="b_2446_p1b2445" stroke-occlusion=" True True " />
            <path fill="none" stroke-width="1.0" stroke-linecap="round" stroke-opacity="1.0" stroke="rgb(0, 0, 0)" stroke-linejoin="round" d=" M 138.266, 29.900 138.496, 29.614 " stroke-name="b_2465_p1b2464" stroke-occlusion=" True True " />
            <path fill="none" stroke-width="1.0" stroke-linecap="round" stroke-opacity="1.0" stroke="rgb(0, 0, 0)" stroke-linejoin="round" d=" M 142.610, 32.632 143.974, 33.817 " stroke-name="b_2465_p1b2464" stroke-occlusion=" True True " />
            <path fill="none" stroke-width="1.0" stroke-linecap="round" stroke-opacity="1.0" stroke="rgb(0, 0, 0)" stroke-linejoin="round" d=" M 155.251, 113.489 165.275, 102.008 " stroke-name="b_2465_p1b2464" stroke-occlusion=" True True " />
            <path fill="none" stroke-width="1.0" stroke-linecap="round" stroke-opacity="1.0" stroke="rgb(0, 0, 0)" stroke-linejoin="round" d=" M 176.327, 383.248 171.841, 379.587 " stroke-name="b_2446_p1b2445" stroke-occlusion=" True True " />
            <path fill="none" stroke-width="1.0" stroke-linecap="round" stroke-opacity="1.0" stroke="rgb(0, 0, 0)" stroke-linejoin="round" d=" M 173.579, 90.253 178.904, 94.842 " stroke-name="b_2465_p1b2464" stroke-occlusion=" True True " />
            <path fill="none" stroke-width="1.0" stroke-linecap="round" stroke-opacity="1.0" stroke="rgb(0, 0, 0)" stroke-linejoin="round" d=" M 178.904, 94.842 177.659, 96.381 " stroke-name="b_2465_p1b2464" stroke-occlusion=" True True " />
            <path fill="none" stroke-width="1.0" stroke-linecap="round" stroke-opacity="1.0" stroke="rgb(0, 0, 0)" stroke-linejoin="round" d=" M 177.659, 96.381 173.768, 100.862 " stroke-name="b_2465_p1b2464" stroke-occlusion=" True True " />
            <path fill="none" stroke-width="1.0" stroke-linecap="round" stroke-opacity="1.0" stroke="rgb(0, 0, 0)" stroke-linejoin="round" d=" M 190.757, 79.129 190.757, 79.129 199.967, 68.507 " stroke-name="b_2465_p1b2464" stroke-occlusion=" True True True " />
            <path fill="none" stroke-width="1.0" stroke-linecap="round" stroke-opacity="1.0" stroke="rgb(0, 0, 0)" stroke-linejoin="round" d=" M 240.013, 336.042 240.004, 336.035 " stroke-name="b_2446_p1b2445" stroke-occlusion=" True True " />
            <path fill="none" stroke-width="1.0" stroke-linecap="round" stroke-opacity="1.0" stroke="rgb(0, 0, 0)" stroke-linejoin="round" d=" M 240.004, 336.035 226.753, 324.906 " stroke-name="b_2446_p1b2445" stroke-occlusion=" True True " />
            <path fill="none" stroke-width="1.0" stroke-linecap="round" stroke-opacity="1.0" stroke="rgb(0, 0, 0)" stroke-linejoin="round" d=" M 240.024, 336.051 240.013, 336.042 " stroke-name="b_2446_p1b2445" stroke-occlusion=" True True " />
            <path fill="none" stroke-width="1.0" stroke-linecap="round" stroke-opacity="1.0" stroke="rgb(0, 0, 0)" stroke-linejoin="round" d=" M 255.026, 348.201 244.056, 339.097 244.055, 339.096 " stroke-name="b_2446_p1b2445" stroke-occlusion=" True True True " />
            <path fill="none" stroke-width="1.0" stroke-linecap="round" stroke-opacity="1.0" stroke="rgb(0, 0, 0)" stroke-linejoin="round" d=" M 258.730, 351.229 260.801, 348.897 " stroke-name="b_2446_p1b2445" stroke-occlusion=" True True " />
            <path fill="none" stroke-width="1.0" stroke-linecap="round" stroke-opacity="1.0" stroke="rgb(0, 0, 0)" stroke-linejoin="round" d=" M 334.601, 234.334 338.764, 237.807 " stroke-name="b_2512_p1b2511" stroke-occlusion=" True True " />
            <path fill="none" stroke-width="1.0" stroke-linecap="round" stroke-opacity="1.0" stroke="rgb(0, 0, 0)" stroke-linejoin="round" d=" M 333.387, 234.580 334.601, 234.334 " stroke-name="b_2512_p1b2511" stroke-occlusion=" True True " />
            <path fill="none" stroke-width="1.0" stroke-linecap="round" stroke-opacity="1.0" stroke="rgb(0, 0, 0)" stroke-linejoin="round" d=" M 369.972, 115.532 367.170, 113.232 " stroke-name="b_2534_p1b2533" stroke-occlusion=" True True " />
        </g>
    </g>
</svg>
