<?xml version='1.0' encoding='ascii'?>
<svg xmlns="http://www.w3.org/2000/svg" version="1.1" width="512" height="512">
    <g id="ViewLayer_LineSet 2" xmlns:inkscape="http://www.inkscape.org/namespaces/inkscape" inkscape:groupmode="lineset" inkscape:label="ViewLayer_LineSet 2">
        <g xmlns:inkscape="http://www.inkscape.org/namespaces/inkscape" inkscape:groupmode="layer" id="strokes" inkscape:label="strokes">
            <path fill="none" stroke-width="1.0" stroke-linecap="round" stroke-opacity="1.0" stroke="rgb(0, 0, 0)" stroke-linejoin="round" d=" M 392.933, 394.041 395.382, 418.921 397.806, 443.550 398.089, 443.859 402.150, 443.359 426.962, 440.301 451.774, 437.243 453.779, 436.996 453.616, 434.363 453.126, 426.439 453.125, 426.418 467.742, 424.409 492.509, 421.004 494.380, 420.747 " stroke-name="b_2510_p1b2509" stroke-occlusion=" True True True True True True True True True True True True True True " />
            <path fill="none" stroke-width="1.0" stroke-linecap="round" stroke-opacity="1.0" stroke="rgb(0, 0, 0)" stroke-linejoin="round" d=" M 486.883, 360.109 486.805, 360.039 486.242, 360.019 " stroke-name="b_2510_p1b2509" stroke-occlusion=" True True True " />
            <path fill="none" stroke-width="1.0" stroke-linecap="round" stroke-opacity="1.0" stroke="rgb(0, 0, 0)" stroke-linejoin="round" d=" M 470.925, 237.916 470.916, 237.878 470.709, 237.023 445.958, 240.545 421.208, 244.067 396.457, 247.589 371.706, 251.111 368.254, 251.602 371.716, 276.361 375.177, 301.120 378.639, 325.879 379.286, 330.507 379.586, 331.100 379.642, 331.211 " stroke-name="b_2510_p1b2509" stroke-occlusion=" True True True True True True True True True True True True True True " />
            <path fill="none" stroke-width="1.0" stroke-linecap="round" stroke-opacity="1.0" stroke="rgb(0, 0, 0)" stroke-linejoin="round" d=" M 384.975, 329.276 384.968, 328.491 384.968, 328.472 385.552, 328.404 386.454, 328.300 " stroke-name="b_2510_p1b2509" stroke-occlusion=" True True True True True " />
            <path fill="none" stroke-width="1.0" stroke-linecap="round" stroke-opacity="1.0" stroke="rgb(0, 0, 0)" stroke-linejoin="round" d=" M 381.068, 331.289 381.073, 331.329 384.378, 356.109 387.684, 380.890 389.077, 391.338 390.655, 394.270 " stroke-name="b_2510_p1b2509" stroke-occlusion=" True True True True True True " />
            <path fill="none" stroke-width="1.0" stroke-linecap="round" stroke-opacity="1.0" stroke="rgb(0, 0, 0)" stroke-linejoin="round" d=" M 487.587, 368.777 488.498, 368.763 487.399, 362.876 486.985, 360.656 " stroke-name="b_2510_p1b2509" stroke-occlusion=" True True True True " />
            <path fill="none" stroke-width="1.0" stroke-linecap="round" stroke-opacity="1.0" stroke="rgb(0, 0, 0)" stroke-linejoin="round" d=" M 245.722, 290.950 245.718, 290.951 245.804, 291.507 246.006, 292.842 " stroke-name="b_2486_p1b2485" stroke-occlusion=" True True True True " />
            <path fill="none" stroke-width="1.0" stroke-linecap="round" stroke-opacity="1.0" stroke="rgb(0, 0, 0)" stroke-linejoin="round" d=" M 246.006, 292.842 245.913, 292.855 246.174, 294.592 " stroke-name="b_2486_p1b2485" stroke-occlusion=" True True True " />
            <path fill="none" stroke-width="1.0" stroke-linecap="round" stroke-opacity="1.0" stroke="rgb(0, 0, 0)" stroke-linejoin="round" d=" M 246.174, 294.592 246.162, 294.594 249.773, 319.332 251.418, 330.608 251.775, 331.167 255.215, 355.929 255.474, 357.789 " stroke-name="b_2486_p1b2485" stroke-occlusion=" True True True True True True True " />
            <path fill="none" stroke-width="1.0" stroke-linecap="round" stroke-opacity="1.0" stroke="rgb(0, 0, 0)" stroke-linejoin="round" d=" M 255.474, 357.789 255.350, 357.806 258.882, 382.555 259.654, 387.963 260.071, 388.699 284.836, 385.280 309.602, 381.860 334.367, 378.440 358.681, 375.083 " stroke-name="b_2486_p1b2485" stroke-occlusion=" True True True True True True True True True " />
            <path fill="none" stroke-width="1.0" stroke-linecap="round" stroke-opacity="1.0" stroke="rgb(0, 0, 0)" stroke-linejoin="round" d=" M 245.654, 289.917 245.571, 289.929 245.722, 290.950 " stroke-name="b_2486_p1b2485" stroke-occlusion=" True True True " />
            <path fill="none" stroke-width="1.0" stroke-linecap="round" stroke-opacity="1.0" stroke="rgb(0, 0, 0)" stroke-linejoin="round" d=" M 245.472, 287.729 245.256, 287.760 245.654, 289.917 " stroke-name="b_2486_p1b2485" stroke-occlusion=" True True True " />
            <path fill="none" stroke-width="1.0" stroke-linecap="round" stroke-opacity="1.0" stroke="rgb(0, 0, 0)" stroke-linejoin="round" d=" M 343.804, 272.817 343.766, 272.762 343.531, 272.430 318.785, 275.988 294.039, 279.545 269.294, 283.103 263.800, 283.893 245.482, 286.527 245.456, 286.530 245.162, 286.573 245.472, 287.729 " stroke-name="b_2486_p1b2485" stroke-occlusion=" True True True True True True True True True True True " />
            <path fill="none" stroke-width="1.0" stroke-linecap="round" stroke-opacity="1.0" stroke="rgb(0, 0, 0)" stroke-linejoin="round" d=" M 222.650, 327.467 222.650, 327.178 219.133, 302.426 215.617, 277.675 215.079, 273.888 214.513, 272.691 189.771, 276.279 165.030, 279.866 163.873, 280.034 164.339, 283.189 164.201, 283.089 139.413, 286.336 116.144, 289.385 116.518, 290.917 119.397, 315.750 120.090, 321.735 120.249, 322.106 122.308, 338.258 121.492, 338.652 124.993, 363.406 128.461, 387.927 128.793, 388.832 128.793, 388.833 128.818, 388.902 " stroke-name="b_2465_p1b2464" stroke-occlusion=" True True True True True True True True True True True True True True True True True True True True True True True True " />
            <path fill="none" stroke-width="1.0" stroke-linecap="round" stroke-opacity="1.0" stroke="rgb(0, 0, 0)" stroke-linejoin="round" d=" M 202.666, 321.244 203.104, 325.953 203.640, 326.252 " stroke-name="b_2465_p1b2464" stroke-occlusion=" True True True " />
            <path fill="none" stroke-width="1.0" stroke-linecap="round" stroke-opacity="1.0" stroke="rgb(0, 0, 0)" stroke-linejoin="round" d=" M 175.553, 360.187 174.415, 350.724 181.761, 349.635 181.794, 349.631 " stroke-name="b_2465_p1b2464" stroke-occlusion=" True True True True " />
            <path fill="none" stroke-width="1.0" stroke-linecap="round" stroke-opacity="1.0" stroke="rgb(0, 0, 0)" stroke-linejoin="round" d=" M 190.351, 330.881 182.413, 331.572 182.240, 331.329 178.415, 331.840 178.450, 332.078 " stroke-name="b_2465_p1b2464" stroke-occlusion=" True True True True True " />
            <path fill="none" stroke-width="1.0" stroke-linecap="round" stroke-opacity="1.0" stroke="rgb(0, 0, 0)" stroke-linejoin="round" d=" M 203.838, 328.048 203.928, 329.377 196.867, 329.927 196.675, 329.848 190.338, 330.787 190.351, 330.881 " stroke-name="b_2465_p1b2464" stroke-occlusion=" True True True True True True " />
            <path fill="none" stroke-width="1.0" stroke-linecap="round" stroke-opacity="1.0" stroke="rgb(0, 0, 0)" stroke-linejoin="round" d=" M 178.450, 332.078 172.151, 332.883 171.176, 333.027 171.176, 333.027 " stroke-name="b_2465_p1b2464" stroke-occlusion=" True True True True " />
            <path fill="none" stroke-width="1.0" stroke-linecap="round" stroke-opacity="1.0" stroke="rgb(0, 0, 0)" stroke-linejoin="round" d=" M 198.523, 300.733 201.233, 320.064 201.751, 320.898 " stroke-name="b_2465_p1b2464" stroke-occlusion=" True True True " />
            <path fill="none" stroke-width="1.0" stroke-linecap="round" stroke-opacity="1.0" stroke="rgb(0, 0, 0)" stroke-linejoin="round" d=" M 216.596, 460.822 222.740, 459.949 222.933, 459.883 219.611, 435.105 216.991, 415.555 215.558, 412.978 210.061, 413.792 " stroke-name="b_2465_p1b2464" stroke-occlusion=" True True True True True True True " />
            <path fill="none" stroke-width="1.0" stroke-linecap="round" stroke-opacity="1.0" stroke="rgb(0, 0, 0)" stroke-linejoin="round" d=" M 184.374, 367.594 184.349, 367.611 181.579, 369.450 179.634, 373.381 " stroke-name="b_2465_p1b2464" stroke-occlusion=" True True True True " />
            <path fill="none" stroke-width="1.0" stroke-linecap="round" stroke-opacity="1.0" stroke="rgb(0, 0, 0)" stroke-linejoin="round" d=" M 179.634, 373.381 178.628, 375.225 178.513, 376.367 " stroke-name="b_2465_p1b2464" stroke-occlusion=" True True True " />
            <path fill="none" stroke-width="1.0" stroke-linecap="round" stroke-opacity="1.0" stroke="rgb(0, 0, 0)" stroke-linejoin="round" d=" M 151.429, 421.679 151.496, 421.819 153.919, 421.422 " stroke-name="b_2465_p1b2464" stroke-occlusion=" True True True " />
            <path fill="none" stroke-width="1.0" stroke-linecap="round" stroke-opacity="1.0" stroke="rgb(0, 0, 0)" stroke-linejoin="round" d=" M 173.194, 392.371 173.222, 392.595 173.222, 392.596 175.161, 408.256 160.069, 410.212 158.988, 402.368 158.097, 395.893 " stroke-name="b_2465_p1b2464" stroke-occlusion=" True True True True True True True " />
            <path fill="none" stroke-width="1.0" stroke-linecap="round" stroke-opacity="1.0" stroke="rgb(0, 0, 0)" stroke-linejoin="round" d=" M 153.919, 421.422 153.958, 422.001 147.555, 422.510 151.088, 447.259 153.910, 467.029 155.017, 469.103 155.276, 469.467 " stroke-name="b_2465_p1b2464" stroke-occlusion=" True True True True True True True " />
            <path fill="none" stroke-width="1.0" stroke-linecap="round" stroke-opacity="1.0" stroke="rgb(0, 0, 0)" stroke-linejoin="round" d=" M 221.436, 391.522 229.904, 390.743 229.890, 390.581 230.083, 390.515 " stroke-name="b_2465_p1b2464" stroke-occlusion=" True True True True " />
            <path fill="none" stroke-width="1.0" stroke-linecap="round" stroke-opacity="1.0" stroke="rgb(0, 0, 0)" stroke-linejoin="round" d=" M 128.803, 388.904 128.870, 389.044 146.165, 386.426 149.889, 411.147 150.497, 415.183 " stroke-name="b_2465_p1b2464" stroke-occlusion=" True True True True True " />
            <path fill="none" stroke-width="1.0" stroke-linecap="round" stroke-opacity="1.0" stroke="rgb(0, 0, 0)" stroke-linejoin="round" d=" M 174.688, 299.215 175.290, 300.072 175.291, 300.362 " stroke-name="b_2465_p1b2464" stroke-occlusion=" True True True " />
            <path fill="none" stroke-width="1.0" stroke-linecap="round" stroke-opacity="1.0" stroke="rgb(0, 0, 0)" stroke-linejoin="round" d=" M 210.061, 413.792 210.047, 413.529 207.464, 393.077 " stroke-name="b_2465_p1b2464" stroke-occlusion=" True True True " />
            <path fill="none" stroke-width="1.0" stroke-linecap="round" stroke-opacity="1.0" stroke="rgb(0, 0, 0)" stroke-linejoin="round" d=" M 179.916, 383.665 179.983, 383.806 183.992, 387.879 187.298, 389.594 " stroke-name="b_2465_p1b2464" stroke-occlusion=" True True True True " />
            <path fill="none" stroke-width="1.0" stroke-linecap="round" stroke-opacity="1.0" stroke="rgb(0, 0, 0)" stroke-linejoin="round" d=" M 160.780, 468.507 160.786, 468.626 161.959, 471.128 186.707, 467.584 211.454, 464.039 217.083, 463.233 217.275, 463.168 " stroke-name="b_2465_p1b2464" stroke-occlusion=" True True True True True True True " />
            <path fill="none" stroke-width="1.0" stroke-linecap="round" stroke-opacity="1.0" stroke="rgb(0, 0, 0)" stroke-linejoin="round" d=" M 178.513, 376.367 178.173, 378.962 178.179, 378.992 " stroke-name="b_2465_p1b2464" stroke-occlusion=" True True True " />
            <path fill="none" stroke-width="1.0" stroke-linecap="round" stroke-opacity="1.0" stroke="rgb(0, 0, 0)" stroke-linejoin="round" d=" M 171.176, 333.027 168.153, 308.211 167.193, 300.325 174.688, 299.215 " stroke-name="b_2465_p1b2464" stroke-occlusion=" True True True True " />
            <path fill="none" stroke-width="1.0" stroke-linecap="round" stroke-opacity="1.0" stroke="rgb(0, 0, 0)" stroke-linejoin="round" d=" M 423.248, 147.839 423.061, 147.109 417.858, 147.828 " stroke-name="b_2464_p1b2463" stroke-occlusion=" True True True " />
            <path fill="none" stroke-width="1.0" stroke-linecap="round" stroke-opacity="1.0" stroke="rgb(0, 0, 0)" stroke-linejoin="round" d=" M 362.708, 120.496 362.357, 119.733 362.070, 119.544 " stroke-name="b_2464_p1b2463" stroke-occlusion=" True True True " />
            <path fill="none" stroke-width="1.0" stroke-linecap="round" stroke-opacity="1.0" stroke="rgb(0, 0, 0)" stroke-linejoin="round" d=" M 367.996, 118.695 365.293, 117.564 365.202, 117.622 363.490, 120.660 362.708, 120.496 " stroke-name="b_2464_p1b2463" stroke-occlusion=" True True True True True " />
            <path fill="none" stroke-width="1.0" stroke-linecap="round" stroke-opacity="1.0" stroke="rgb(0, 0, 0)" stroke-linejoin="round" d=" M 445.475, 160.273 445.355, 159.720 444.980, 159.034 440.030, 159.710 " stroke-name="b_2464_p1b2463" stroke-occlusion=" True True True True " />
            <path fill="none" stroke-width="1.0" stroke-linecap="round" stroke-opacity="1.0" stroke="rgb(0, 0, 0)" stroke-linejoin="round" d=" M 460.792, 182.126 460.325, 180.940 456.101, 181.566 456.247, 183.456 454.993, 183.601 454.830, 183.620 " stroke-name="b_2464_p1b2463" stroke-occlusion=" True True True True True True " />
            <path fill="none" stroke-width="1.0" stroke-linecap="round" stroke-opacity="1.0" stroke="rgb(0, 0, 0)" stroke-linejoin="round" d=" M 361.849, 117.267 362.289, 116.341 361.636, 115.600 353.029, 110.765 352.206, 112.499 350.912, 111.983 346.142, 120.693 342.741, 119.440 340.014, 124.566 340.322, 125.546 343.091, 126.936 " stroke-name="b_2464_p1b2463" stroke-occlusion=" True True True True True True True True True True True " />
            <path fill="none" stroke-width="1.0" stroke-linecap="round" stroke-opacity="1.0" stroke="rgb(0, 0, 0)" stroke-linejoin="round" d=" M 395.827, 136.188 396.867, 133.391 396.709, 133.019 396.622, 132.898 396.497, 132.931 " stroke-name="b_2464_p1b2463" stroke-occlusion=" True True True True True " />
            <path fill="none" stroke-width="1.0" stroke-linecap="round" stroke-opacity="1.0" stroke="rgb(0, 0, 0)" stroke-linejoin="round" d=" M 354.333, 207.467 354.401, 207.607 379.159, 204.141 403.918, 200.675 428.676, 197.209 453.435, 193.743 462.256, 192.509 461.962, 190.409 " stroke-name="b_2464_p1b2463" stroke-occlusion=" True True True True True True True True " />
            <path fill="none" stroke-width="1.0" stroke-linecap="round" stroke-opacity="1.0" stroke="rgb(0, 0, 0)" stroke-linejoin="round" d=" M 390.034, 130.242 390.530, 129.491 391.097, 128.632 390.939, 128.260 369.119, 117.053 369.028, 117.112 367.996, 118.695 " stroke-name="b_2464_p1b2463" stroke-occlusion=" True True True True True True True " />
            <path fill="none" stroke-width="1.0" stroke-linecap="round" stroke-opacity="1.0" stroke="rgb(0, 0, 0)" stroke-linejoin="round" d=" M 328.426, 202.533 327.791, 203.802 328.309, 204.971 " stroke-name="b_2464_p1b2463" stroke-occlusion=" True True True " />
            <path fill="none" stroke-width="1.0" stroke-linecap="round" stroke-opacity="1.0" stroke="rgb(0, 0, 0)" stroke-linejoin="round" d=" M 343.091, 126.936 331.536, 149.105 319.980, 171.275 308.371, 193.548 308.919, 194.290 " stroke-name="b_2464_p1b2463" stroke-occlusion=" True True True True True " />
            <path fill="none" stroke-width="1.0" stroke-linecap="round" stroke-opacity="1.0" stroke="rgb(0, 0, 0)" stroke-linejoin="round" d=" M 404.779, 141.013 405.009, 140.514 405.991, 138.374 405.608, 137.637 400.260, 138.542 " stroke-name="b_2464_p1b2463" stroke-occlusion=" True True True True True " />
            <path fill="none" stroke-width="1.0" stroke-linecap="round" stroke-opacity="1.0" stroke="rgb(0, 0, 0)" stroke-linejoin="round" d=" M 410.617, 140.762 410.358, 140.398 410.299, 140.020 404.826, 141.005 404.779, 141.013 " stroke-name="b_2464_p1b2463" stroke-occlusion=" True True True True True " />
            <path fill="none" stroke-width="1.0" stroke-linecap="round" stroke-opacity="1.0" stroke="rgb(0, 0, 0)" stroke-linejoin="round" d=" M 418.686, 145.902 418.686, 145.612 418.262, 145.203 413.379, 145.912 413.048, 145.960 " stroke-name="b_2464_p1b2463" stroke-occlusion=" True True True True True " />
            <path fill="none" stroke-width="1.0" stroke-linecap="round" stroke-opacity="1.0" stroke="rgb(0, 0, 0)" stroke-linejoin="round" d=" M 449.908, 162.727 449.909, 162.438 449.566, 161.751 444.730, 162.278 " stroke-name="b_2464_p1b2463" stroke-occlusion=" True True True True " />
            <path fill="none" stroke-width="1.0" stroke-linecap="round" stroke-opacity="1.0" stroke="rgb(0, 0, 0)" stroke-linejoin="round" d=" M 340.813, 210.391 341.468, 209.410 347.266, 208.777 352.784, 205.972 " stroke-name="b_2464_p1b2463" stroke-occlusion=" True True True True " />
            <path fill="none" stroke-width="1.0" stroke-linecap="round" stroke-opacity="1.0" stroke="rgb(0, 0, 0)" stroke-linejoin="round" d=" M 454.340, 165.182 454.341, 164.893 453.740, 163.986 449.210, 164.603 " stroke-name="b_2464_p1b2463" stroke-occlusion=" True True True True " />
            <path fill="none" stroke-width="1.0" stroke-linecap="round" stroke-opacity="1.0" stroke="rgb(0, 0, 0)" stroke-linejoin="round" d=" M 401.492, 135.779 401.439, 135.656 401.347, 135.424 395.827, 136.188 " stroke-name="b_2464_p1b2463" stroke-occlusion=" True True True True " />
            <path fill="none" stroke-width="1.0" stroke-linecap="round" stroke-opacity="1.0" stroke="rgb(0, 0, 0)" stroke-linejoin="round" d=" M 308.819, 194.482 319.392, 199.954 319.584, 199.888 " stroke-name="b_2464_p1b2463" stroke-occlusion=" True True True " />
            <path fill="none" stroke-width="1.0" stroke-linecap="round" stroke-opacity="1.0" stroke="rgb(0, 0, 0)" stroke-linejoin="round" d=" M 414.715, 142.732 414.714, 142.731 414.705, 142.715 414.507, 142.398 409.258, 143.225 " stroke-name="b_2464_p1b2463" stroke-occlusion=" True True True True True " />
            <path fill="none" stroke-width="1.0" stroke-linecap="round" stroke-opacity="1.0" stroke="rgb(0, 0, 0)" stroke-linejoin="round" d=" M 427.412, 150.710 427.161, 149.964 422.033, 150.690 " stroke-name="b_2464_p1b2463" stroke-occlusion=" True True True " />
            <path fill="none" stroke-width="1.0" stroke-linecap="round" stroke-opacity="1.0" stroke="rgb(0, 0, 0)" stroke-linejoin="round" d=" M 435.686, 157.662 436.677, 155.504 436.287, 154.513 431.254, 155.206 " stroke-name="b_2464_p1b2463" stroke-occlusion=" True True True True " />
            <path fill="none" stroke-width="1.0" stroke-linecap="round" stroke-opacity="1.0" stroke="rgb(0, 0, 0)" stroke-linejoin="round" d=" M 431.254, 155.206 432.244, 153.050 431.907, 152.037 426.725, 152.785 " stroke-name="b_2464_p1b2463" stroke-occlusion=" True True True True " />
            <path fill="none" stroke-width="1.0" stroke-linecap="round" stroke-opacity="1.0" stroke="rgb(0, 0, 0)" stroke-linejoin="round" d=" M 458.774, 167.347 458.759, 167.309 458.346, 166.249 453.583, 166.932 " stroke-name="b_2464_p1b2463" stroke-occlusion=" True True True True " />
            <path fill="none" stroke-width="1.0" stroke-linecap="round" stroke-opacity="1.0" stroke="rgb(0, 0, 0)" stroke-linejoin="round" d=" M 362.070, 119.544 362.451, 118.537 361.849, 117.267 " stroke-name="b_2464_p1b2463" stroke-occlusion=" True True True " />
            <path fill="none" stroke-width="1.0" stroke-linecap="round" stroke-opacity="1.0" stroke="rgb(0, 0, 0)" stroke-linejoin="round" d=" M 353.952, 206.344 353.886, 206.532 354.334, 207.467 354.334, 207.467 " stroke-name="b_2464_p1b2463" stroke-occlusion=" True True True True " />
            <path fill="none" stroke-width="1.0" stroke-linecap="round" stroke-opacity="1.0" stroke="rgb(0, 0, 0)" stroke-linejoin="round" d=" M 440.844, 157.852 440.844, 157.852 440.667, 156.989 435.686, 157.662 " stroke-name="b_2464_p1b2463" stroke-occlusion=" True True True True " />
            <path fill="none" stroke-width="1.0" stroke-linecap="round" stroke-opacity="1.0" stroke="rgb(0, 0, 0)" stroke-linejoin="round" d=" M 211.068, 192.782 209.518, 188.157 208.503, 185.735 186.382, 174.086 170.947, 165.959 165.527, 166.931 153.767, 188.992 145.258, 204.955 146.943, 210.151 147.845, 211.897 " stroke-name="b_2443_p1b2442" stroke-occlusion=" True True True True True True True True True True " />
            <path fill="none" stroke-width="1.0" stroke-linecap="round" stroke-opacity="1.0" stroke="rgb(0, 0, 0)" stroke-linejoin="round" d=" M 186.171, 232.597 190.814, 231.113 200.348, 212.927 " stroke-name="b_2443_p1b2442" stroke-occlusion=" True True True " />
            <path fill="none" stroke-width="1.0" stroke-linecap="round" stroke-opacity="1.0" stroke="rgb(0, 0, 0)" stroke-linejoin="round" d=" M 247.457, 203.253 247.037, 201.745 226.355, 191.118 221.237, 192.600 221.049, 192.654 " stroke-name="b_2443_p1b2442" stroke-occlusion=" True True True True True " />
            <path fill="none" stroke-width="1.0" stroke-linecap="round" stroke-opacity="1.0" stroke="rgb(0, 0, 0)" stroke-linejoin="round" d=" M 220.014, 194.336 209.887, 213.256 209.939, 213.669 211.624, 218.865 223.535, 225.014 " stroke-name="b_2443_p1b2442" stroke-occlusion=" True True True True True " />
            <path fill="none" stroke-width="1.0" stroke-linecap="round" stroke-opacity="1.0" stroke="rgb(0, 0, 0)" stroke-linejoin="round" d=" M 221.055, 192.642 220.862, 192.708 220.014, 194.336 " stroke-name="b_2443_p1b2442" stroke-occlusion=" True True True " />
            <path fill="none" stroke-width="1.0" stroke-linecap="round" stroke-opacity="1.0" stroke="rgb(0, 0, 0)" stroke-linejoin="round" d=" M 223.535, 225.014 231.909, 229.608 237.141, 227.942 237.155, 227.916 " stroke-name="b_2443_p1b2442" stroke-occlusion=" True True True True " />
            <path fill="none" stroke-width="1.0" stroke-linecap="round" stroke-opacity="1.0" stroke="rgb(0, 0, 0)" stroke-linejoin="round" d=" M 226.669, 137.917 238.340, 115.808 250.011, 93.700 260.867, 73.135 259.348, 70.436 237.285, 58.678 225.899, 52.610 214.176, 74.691 202.453, 96.772 191.370, 117.647 192.371, 120.198 214.582, 131.672 226.669, 137.917 " stroke-name="b_2417_p1b2416" stroke-occlusion=" True True True True True True True True True True True True True " />
            <path fill="none" stroke-width="1.0" stroke-linecap="round" stroke-opacity="1.0" stroke="rgb(0, 0, 0)" stroke-linejoin="round" d=" M 60.668, 105.285 60.427, 104.519 48.416, 126.444 36.405, 148.370 30.433, 159.270 30.346, 159.004 22.196, 175.721 22.297, 176.061 " stroke-name="b_2383_p1b2382" stroke-occlusion=" True True True True True True True True " />
            <path fill="none" stroke-width="1.0" stroke-linecap="round" stroke-opacity="1.0" stroke="rgb(0, 0, 0)" stroke-linejoin="round" d=" M 60.899, 167.605 60.560, 167.655 60.022, 167.961 60.317, 168.605 " stroke-name="b_2383_p1b2382" stroke-occlusion=" True True True True " />
            <path fill="none" stroke-width="1.0" stroke-linecap="round" stroke-opacity="1.0" stroke="rgb(0, 0, 0)" stroke-linejoin="round" d=" M 60.363, 168.776 58.681, 169.546 58.988, 170.504 57.533, 170.775 57.662, 172.529 " stroke-name="b_2383_p1b2382" stroke-occlusion=" True True True True True " />
            <path fill="none" stroke-width="1.0" stroke-linecap="round" stroke-opacity="1.0" stroke="rgb(0, 0, 0)" stroke-linejoin="round" d=" M 56.415, 174.955 55.278, 175.167 55.747, 176.910 " stroke-name="b_2383_p1b2382" stroke-occlusion=" True True True " />
            <path fill="none" stroke-width="1.0" stroke-linecap="round" stroke-opacity="1.0" stroke="rgb(0, 0, 0)" stroke-linejoin="round" d=" M 54.946, 179.301 54.338, 179.477 54.315, 180.867 " stroke-name="b_2383_p1b2382" stroke-occlusion=" True True True " />
            <path fill="none" stroke-width="1.0" stroke-linecap="round" stroke-opacity="1.0" stroke="rgb(0, 0, 0)" stroke-linejoin="round" d=" M 54.315, 180.867 54.222, 180.894 54.274, 181.241 " stroke-name="b_2383_p1b2382" stroke-occlusion=" True True True " />
            <path fill="none" stroke-width="1.0" stroke-linecap="round" stroke-opacity="1.0" stroke="rgb(0, 0, 0)" stroke-linejoin="round" d=" M 55.027, 178.882 54.924, 178.897 54.946, 179.301 " stroke-name="b_2383_p1b2382" stroke-occlusion=" True True True " />
            <path fill="none" stroke-width="1.0" stroke-linecap="round" stroke-opacity="1.0" stroke="rgb(0, 0, 0)" stroke-linejoin="round" d=" M 55.747, 176.910 55.488, 177.089 55.559, 177.330 " stroke-name="b_2383_p1b2382" stroke-occlusion=" True True True " />
            <path fill="none" stroke-width="1.0" stroke-linecap="round" stroke-opacity="1.0" stroke="rgb(0, 0, 0)" stroke-linejoin="round" d=" M 56.640, 174.585 56.383, 174.735 56.415, 174.955 " stroke-name="b_2383_p1b2382" stroke-occlusion=" True True True " />
            <path fill="none" stroke-width="1.0" stroke-linecap="round" stroke-opacity="1.0" stroke="rgb(0, 0, 0)" stroke-linejoin="round" d=" M 57.662, 172.529 57.484, 172.623 57.611, 172.988 " stroke-name="b_2383_p1b2382" stroke-occlusion=" True True True " />
            <path fill="none" stroke-width="1.0" stroke-linecap="round" stroke-opacity="1.0" stroke="rgb(0, 0, 0)" stroke-linejoin="round" d=" M 22.297, 176.061 15.021, 191.401 15.219, 191.734 15.271, 191.858 37.504, 203.291 45.789, 207.552 45.982, 207.485 " stroke-name="b_2383_p1b2382" stroke-occlusion=" True True True True True True True " />
            <path fill="none" stroke-width="1.0" stroke-linecap="round" stroke-opacity="1.0" stroke="rgb(0, 0, 0)" stroke-linejoin="round" d=" M 87.885, 224.985 91.301, 224.425 100.287, 222.869 100.106, 222.303 " stroke-name="b_2383_p1b2382" stroke-occlusion=" True True True True " />
            <path fill="none" stroke-width="1.0" stroke-linecap="round" stroke-opacity="1.0" stroke="rgb(0, 0, 0)" stroke-linejoin="round" d=" M 119.113, 181.014 118.665, 179.409 117.155, 176.326 115.869, 175.085 " stroke-name="b_2383_p1b2382" stroke-occlusion=" True True True True " />
            <path fill="none" stroke-width="1.0" stroke-linecap="round" stroke-opacity="1.0" stroke="rgb(0, 0, 0)" stroke-linejoin="round" d=" M 119.976, 190.235 120.182, 190.185 119.305, 188.647 " stroke-name="b_2383_p1b2382" stroke-occlusion=" True True True " />
            <path fill="none" stroke-width="1.0" stroke-linecap="round" stroke-opacity="1.0" stroke="rgb(0, 0, 0)" stroke-linejoin="round" d=" M 119.878, 192.357 119.878, 192.067 119.675, 191.601 " stroke-name="b_2383_p1b2382" stroke-occlusion=" True True True " />
            <path fill="none" stroke-width="1.0" stroke-linecap="round" stroke-opacity="1.0" stroke="rgb(0, 0, 0)" stroke-linejoin="round" d=" M 119.012, 196.048 119.217, 195.998 118.755, 195.188 " stroke-name="b_2383_p1b2382" stroke-occlusion=" True True True " />
            <path fill="none" stroke-width="1.0" stroke-linecap="round" stroke-opacity="1.0" stroke="rgb(0, 0, 0)" stroke-linejoin="round" d=" M 108.990, 213.899 110.736, 213.260 110.432, 212.130 110.430, 212.123 " stroke-name="b_2383_p1b2382" stroke-occlusion=" True True True True " />
            <path fill="none" stroke-width="1.0" stroke-linecap="round" stroke-opacity="1.0" stroke="rgb(0, 0, 0)" stroke-linejoin="round" d=" M 117.880, 200.713 117.759, 200.159 117.269, 198.518 " stroke-name="b_2383_p1b2382" stroke-occlusion=" True True True " />
            <path fill="none" stroke-width="1.0" stroke-linecap="round" stroke-opacity="1.0" stroke="rgb(0, 0, 0)" stroke-linejoin="round" d=" M 113.921, 205.340 115.624, 205.105 115.504, 204.552 115.011, 202.900 116.725, 202.702 116.241, 200.902 " stroke-name="b_2383_p1b2382" stroke-occlusion=" True True True True True True " />
            <path fill="none" stroke-width="1.0" stroke-linecap="round" stroke-opacity="1.0" stroke="rgb(0, 0, 0)" stroke-linejoin="round" d=" M 111.662, 209.738 113.177, 209.563 112.686, 207.740 " stroke-name="b_2383_p1b2382" stroke-occlusion=" True True True " />
            <path fill="none" stroke-width="1.0" stroke-linecap="round" stroke-opacity="1.0" stroke="rgb(0, 0, 0)" stroke-linejoin="round" d=" M 110.432, 212.130 111.956, 211.412 111.865, 211.108 " stroke-name="b_2383_p1b2382" stroke-occlusion=" True True True " />
            <path fill="none" stroke-width="1.0" stroke-linecap="round" stroke-opacity="1.0" stroke="rgb(0, 0, 0)" stroke-linejoin="round" d=" M 100.034, 222.034 105.240, 218.742 104.971, 218.221 " stroke-name="b_2383_p1b2382" stroke-occlusion=" True True True " />
            <path fill="none" stroke-width="1.0" stroke-linecap="round" stroke-opacity="1.0" stroke="rgb(0, 0, 0)" stroke-linejoin="round" d=" M 77.363, 223.379 77.381, 223.400 77.814, 223.918 " stroke-name="b_2383_p1b2382" stroke-occlusion=" True True True " />
            <path fill="none" stroke-width="1.0" stroke-linecap="round" stroke-opacity="1.0" stroke="rgb(0, 0, 0)" stroke-linejoin="round" d=" M 71.595, 221.749 71.662, 221.889 73.116, 221.618 74.008, 223.154 75.401, 222.751 75.401, 222.751 75.517, 222.717 " stroke-name="b_2383_p1b2382" stroke-occlusion=" True True True True True True True " />
            <path fill="none" stroke-width="1.0" stroke-linecap="round" stroke-opacity="1.0" stroke="rgb(0, 0, 0)" stroke-linejoin="round" d=" M 65.892, 217.413 66.597, 217.973 66.996, 217.857 67.628, 219.319 68.809, 219.109 " stroke-name="b_2383_p1b2382" stroke-occlusion=" True True True True True " />
            <path fill="none" stroke-width="1.0" stroke-linecap="round" stroke-opacity="1.0" stroke="rgb(0, 0, 0)" stroke-linejoin="round" d=" M 97.901, 160.968 97.125, 159.398 95.594, 160.099 " stroke-name="b_2383_p1b2382" stroke-occlusion=" True True True " />
            <path fill="none" stroke-width="1.0" stroke-linecap="round" stroke-opacity="1.0" stroke="rgb(0, 0, 0)" stroke-linejoin="round" d=" M 100.104, 162.151 99.213, 160.588 97.901, 160.968 " stroke-name="b_2383_p1b2382" stroke-occlusion=" True True True " />
            <path fill="none" stroke-width="1.0" stroke-linecap="round" stroke-opacity="1.0" stroke="rgb(0, 0, 0)" stroke-linejoin="round" d=" M 102.642, 163.381 101.958, 161.737 100.104, 162.151 " stroke-name="b_2383_p1b2382" stroke-occlusion=" True True True " />
            <path fill="none" stroke-width="1.0" stroke-linecap="round" stroke-opacity="1.0" stroke="rgb(0, 0, 0)" stroke-linejoin="round" d=" M 104.783, 164.657 103.904, 163.116 102.642, 163.381 " stroke-name="b_2383_p1b2382" stroke-occlusion=" True True True " />
            <path fill="none" stroke-width="1.0" stroke-linecap="round" stroke-opacity="1.0" stroke="rgb(0, 0, 0)" stroke-linejoin="round" d=" M 108.579, 167.188 107.681, 165.612 106.658, 165.909 " stroke-name="b_2383_p1b2382" stroke-occlusion=" True True True " />
            <path fill="none" stroke-width="1.0" stroke-linecap="round" stroke-opacity="1.0" stroke="rgb(0, 0, 0)" stroke-linejoin="round" d=" M 111.796, 169.953 110.918, 168.413 110.259, 168.510 " stroke-name="b_2383_p1b2382" stroke-occlusion=" True True True " />
            <path fill="none" stroke-width="1.0" stroke-linecap="round" stroke-opacity="1.0" stroke="rgb(0, 0, 0)" stroke-linejoin="round" d=" M 115.869, 175.085 114.787, 172.676 114.367, 172.797 " stroke-name="b_2383_p1b2382" stroke-occlusion=" True True True " />
            <path fill="none" stroke-width="1.0" stroke-linecap="round" stroke-opacity="1.0" stroke="rgb(0, 0, 0)" stroke-linejoin="round" d=" M 57.611, 172.988 56.240, 173.244 56.640, 174.585 " stroke-name="b_2383_p1b2382" stroke-occlusion=" True True True " />
            <path fill="none" stroke-width="1.0" stroke-linecap="round" stroke-opacity="1.0" stroke="rgb(0, 0, 0)" stroke-linejoin="round" d=" M 58.582, 207.561 58.872, 208.372 60.593, 211.638 60.852, 212.001 " stroke-name="b_2383_p1b2382" stroke-occlusion=" True True True True " />
            <path fill="none" stroke-width="1.0" stroke-linecap="round" stroke-opacity="1.0" stroke="rgb(0, 0, 0)" stroke-linejoin="round" d=" M 119.454, 193.976 119.455, 193.686 119.093, 192.474 " stroke-name="b_2383_p1b2382" stroke-occlusion=" True True True " />
            <path fill="none" stroke-width="1.0" stroke-linecap="round" stroke-opacity="1.0" stroke="rgb(0, 0, 0)" stroke-linejoin="round" d=" M 119.240, 184.655 120.092, 184.529 120.283, 184.463 " stroke-name="b_2383_p1b2382" stroke-occlusion=" True True True " />
            <path fill="none" stroke-width="1.0" stroke-linecap="round" stroke-opacity="1.0" stroke="rgb(0, 0, 0)" stroke-linejoin="round" d=" M 119.305, 188.647 120.347, 188.493 120.540, 188.427 " stroke-name="b_2383_p1b2382" stroke-occlusion=" True True True " />
            <path fill="none" stroke-width="1.0" stroke-linecap="round" stroke-opacity="1.0" stroke="rgb(0, 0, 0)" stroke-linejoin="round" d=" M 107.594, 215.357 109.256, 215.036 109.447, 214.970 108.990, 213.899 108.986, 213.890 " stroke-name="b_2383_p1b2382" stroke-occlusion=" True True True True True " />
            <path fill="none" stroke-width="1.0" stroke-linecap="round" stroke-opacity="1.0" stroke="rgb(0, 0, 0)" stroke-linejoin="round" d=" M 117.553, 198.465 118.322, 198.352 118.515, 198.286 117.856, 196.521 " stroke-name="b_2383_p1b2382" stroke-occlusion=" True True True True " />
            <path fill="none" stroke-width="1.0" stroke-linecap="round" stroke-opacity="1.0" stroke="rgb(0, 0, 0)" stroke-linejoin="round" d=" M 104.971, 218.221 106.508, 217.777 106.255, 216.942 " stroke-name="b_2383_p1b2382" stroke-occlusion=" True True True " />
            <path fill="none" stroke-width="1.0" stroke-linecap="round" stroke-opacity="1.0" stroke="rgb(0, 0, 0)" stroke-linejoin="round" d=" M 79.606, 223.925 79.848, 224.453 82.406, 224.909 87.528, 225.059 " stroke-name="b_2383_p1b2382" stroke-occlusion=" True True True True " />
            <path fill="none" stroke-width="1.0" stroke-linecap="round" stroke-opacity="1.0" stroke="rgb(0, 0, 0)" stroke-linejoin="round" d=" M 75.401, 222.751 75.908, 223.651 76.168, 224.015 " stroke-name="b_2383_p1b2382" stroke-occlusion=" True True True " />
            <path fill="none" stroke-width="1.0" stroke-linecap="round" stroke-opacity="1.0" stroke="rgb(0, 0, 0)" stroke-linejoin="round" d=" M 54.274, 181.241 53.936, 183.482 53.654, 184.753 " stroke-name="b_2383_p1b2382" stroke-occlusion=" True True True " />
            <path fill="none" stroke-width="1.0" stroke-linecap="round" stroke-opacity="1.0" stroke="rgb(0, 0, 0)" stroke-linejoin="round" d=" M 106.658, 165.909 105.992, 164.307 104.783, 164.657 " stroke-name="b_2383_p1b2382" stroke-occlusion=" True True True " />
            <path fill="none" stroke-width="1.0" stroke-linecap="round" stroke-opacity="1.0" stroke="rgb(0, 0, 0)" stroke-linejoin="round" d=" M 110.259, 168.510 109.628, 166.992 108.579, 167.188 " stroke-name="b_2383_p1b2382" stroke-occlusion=" True True True " />
            <path fill="none" stroke-width="1.0" stroke-linecap="round" stroke-opacity="1.0" stroke="rgb(0, 0, 0)" stroke-linejoin="round" d=" M 112.995, 171.442 112.207, 169.834 111.796, 169.953 " stroke-name="b_2383_p1b2382" stroke-occlusion=" True True True " />
            <path fill="none" stroke-width="1.0" stroke-linecap="round" stroke-opacity="1.0" stroke="rgb(0, 0, 0)" stroke-linejoin="round" d=" M 55.559, 177.330 54.642, 177.595 55.027, 178.882 " stroke-name="b_2383_p1b2382" stroke-occlusion=" True True True " />
            <path fill="none" stroke-width="1.0" stroke-linecap="round" stroke-opacity="1.0" stroke="rgb(0, 0, 0)" stroke-linejoin="round" d=" M 95.594, 160.099 94.966, 158.827 79.279, 163.659 " stroke-name="b_2383_p1b2382" stroke-occlusion=" True True True " />
            <path fill="none" stroke-width="1.0" stroke-linecap="round" stroke-opacity="1.0" stroke="rgb(0, 0, 0)" stroke-linejoin="round" d=" M 114.367, 172.797 113.756, 171.329 112.995, 171.442 " stroke-name="b_2383_p1b2382" stroke-occlusion=" True True True " />
            <path fill="none" stroke-width="1.0" stroke-linecap="round" stroke-opacity="1.0" stroke="rgb(0, 0, 0)" stroke-linejoin="round" d=" M 68.809, 219.108 68.809, 219.109 69.575, 220.699 69.835, 221.064 " stroke-name="b_2383_p1b2382" stroke-occlusion=" True True True True " />
            <path fill="none" stroke-width="1.0" stroke-linecap="round" stroke-opacity="1.0" stroke="rgb(0, 0, 0)" stroke-linejoin="round" d=" M 53.654, 184.753 40.170, 177.130 " stroke-name="b_2383_p1b2382" stroke-occlusion=" True True " />
            <path fill="none" stroke-width="1.0" stroke-linecap="round" stroke-opacity="1.0" stroke="rgb(0, 0, 0)" stroke-linejoin="round" d=" M 48.312, 203.027 58.582, 207.561 " stroke-name="b_2383_p1b2382" stroke-occlusion=" True True " />
            <path fill="none" stroke-width="1.0" stroke-linecap="round" stroke-opacity="1.0" stroke="rgb(0, 0, 0)" stroke-linejoin="round" d=" M 60.317, 168.605 60.363, 168.776 " stroke-name="b_2383_p1b2382" stroke-occlusion=" True True " />
            <path fill="none" stroke-width="1.0" stroke-linecap="round" stroke-opacity="1.0" stroke="rgb(0, 0, 0)" stroke-linejoin="round" d=" M 57.371, 158.003 60.899, 167.605 " stroke-name="b_2383_p1b2382" stroke-occlusion=" True True " />
            <path fill="none" stroke-width="1.0" stroke-linecap="round" stroke-opacity="1.0" stroke="rgb(0, 0, 0)" stroke-linejoin="round" d=" M 70.657, 220.498 71.023, 220.429 " stroke-name="b_2383_p1b2382" stroke-occlusion=" True True " />
            <path fill="none" stroke-width="1.0" stroke-linecap="round" stroke-opacity="1.0" stroke="rgb(0, 0, 0)" stroke-linejoin="round" d=" M 79.279, 163.659 71.738, 139.824 64.197, 115.988 60.797, 105.240 " stroke-name="b_2383_p1b2382" stroke-occlusion=" True True True True " />
            <path fill="none" stroke-width="1.0" stroke-linecap="round" stroke-opacity="1.0" stroke="rgb(0, 0, 0)" stroke-linejoin="round" d=" M 158.068, 394.229 173.222, 392.596 " stroke-name="b_2465_p1b2464" stroke-occlusion=" True True " />
            <path fill="none" stroke-width="1.0" stroke-linecap="round" stroke-opacity="1.0" stroke="rgb(0, 0, 0)" stroke-linejoin="round" d=" M 187.298, 389.594 188.096, 396.578 " stroke-name="b_2465_p1b2464" stroke-occlusion=" True True " />
            <path fill="none" stroke-width="1.0" stroke-linecap="round" stroke-opacity="1.0" stroke="rgb(0, 0, 0)" stroke-linejoin="round" d=" M 188.096, 396.578 186.135, 396.864 " stroke-name="b_2465_p1b2464" stroke-occlusion=" True True " />
            <path fill="none" stroke-width="1.0" stroke-linecap="round" stroke-opacity="1.0" stroke="rgb(0, 0, 0)" stroke-linejoin="round" d=" M 186.135, 396.864 180.238, 397.516 " stroke-name="b_2465_p1b2464" stroke-occlusion=" True True " />
            <path fill="none" stroke-width="1.0" stroke-linecap="round" stroke-opacity="1.0" stroke="rgb(0, 0, 0)" stroke-linejoin="round" d=" M 202.303, 321.298 202.666, 321.244 " stroke-name="b_2465_p1b2464" stroke-occlusion=" True True " />
            <path fill="none" stroke-width="1.0" stroke-linecap="round" stroke-opacity="1.0" stroke="rgb(0, 0, 0)" stroke-linejoin="round" d=" M 203.640, 326.252 203.838, 328.048 " stroke-name="b_2465_p1b2464" stroke-occlusion=" True True " />
            <path fill="none" stroke-width="1.0" stroke-linecap="round" stroke-opacity="1.0" stroke="rgb(0, 0, 0)" stroke-linejoin="round" d=" M 207.464, 393.077 207.464, 393.077 221.436, 391.522 " stroke-name="b_2465_p1b2464" stroke-occlusion=" True True True " />
            <path fill="none" stroke-width="1.0" stroke-linecap="round" stroke-opacity="1.0" stroke="rgb(0, 0, 0)" stroke-linejoin="round" d=" M 343.490, 155.283 343.660, 154.910 " stroke-name="b_2464_p1b2463" stroke-occlusion=" True True " />
            <path fill="none" stroke-width="1.0" stroke-linecap="round" stroke-opacity="1.0" stroke="rgb(0, 0, 0)" stroke-linejoin="round" d=" M 386.454, 328.300 386.586, 329.048 " stroke-name="b_2510_p1b2509" stroke-occlusion=" True True " />
            <path fill="none" stroke-width="1.0" stroke-linecap="round" stroke-opacity="1.0" stroke="rgb(0, 0, 0)" stroke-linejoin="round" d=" M 390.690, 394.267 391.755, 394.160 392.933, 394.041 " stroke-name="b_2510_p1b2509" stroke-occlusion=" True True True " />
            <path fill="none" stroke-width="1.0" stroke-linecap="round" stroke-opacity="1.0" stroke="rgb(0, 0, 0)" stroke-linejoin="round" d=" M 396.497, 132.931 390.134, 130.283 390.034, 130.242 " stroke-name="b_2464_p1b2463" stroke-occlusion=" True True True " />
            <path fill="none" stroke-width="1.0" stroke-linecap="round" stroke-opacity="1.0" stroke="rgb(0, 0, 0)" stroke-linejoin="round" d=" M 400.260, 138.542 400.749, 137.344 " stroke-name="b_2464_p1b2463" stroke-occlusion=" True True " />
            <path fill="none" stroke-width="1.0" stroke-linecap="round" stroke-opacity="1.0" stroke="rgb(0, 0, 0)" stroke-linejoin="round" d=" M 413.048, 145.960 414.289, 143.746 414.790, 142.853 " stroke-name="b_2464_p1b2463" stroke-occlusion=" True True True " />
            <path fill="none" stroke-width="1.0" stroke-linecap="round" stroke-opacity="1.0" stroke="rgb(0, 0, 0)" stroke-linejoin="round" d=" M 386.586, 329.048 384.975, 329.276 " stroke-name="b_2510_p1b2509" stroke-occlusion=" True True " />
            <path fill="none" stroke-width="1.0" stroke-linecap="round" stroke-opacity="1.0" stroke="rgb(0, 0, 0)" stroke-linejoin="round" d=" M 440.030, 159.710 440.168, 159.403 " stroke-name="b_2464_p1b2463" stroke-occlusion=" True True " />
            <path fill="none" stroke-width="1.0" stroke-linecap="round" stroke-opacity="1.0" stroke="rgb(0, 0, 0)" stroke-linejoin="round" d=" M 453.583, 166.932 453.723, 166.557 454.227, 165.200 " stroke-name="b_2464_p1b2463" stroke-occlusion=" True True True " />
            <path fill="none" stroke-width="1.0" stroke-linecap="round" stroke-opacity="1.0" stroke="rgb(0, 0, 0)" stroke-linejoin="round" d=" M 454.830, 183.620 454.223, 178.403 454.052, 176.940 " stroke-name="b_2464_p1b2463" stroke-occlusion=" True True True " />
            <path fill="none" stroke-width="1.0" stroke-linecap="round" stroke-opacity="1.0" stroke="rgb(0, 0, 0)" stroke-linejoin="round" d=" M 480.072, 316.934 480.184, 316.921 481.699, 316.746 " stroke-name="b_2510_p1b2509" stroke-occlusion=" True True True " />
            <path fill="none" stroke-width="1.0" stroke-linecap="round" stroke-opacity="1.0" stroke="rgb(0, 0, 0)" stroke-linejoin="round" d=" M 487.587, 368.777 487.583, 368.749 " stroke-name="b_2510_p1b2509" stroke-occlusion=" True True " />
        </g>
    </g>
</svg>
