<?xml version='1.0' encoding='ascii'?>
<svg xmlns="http://www.w3.org/2000/svg" version="1.1" width="512" height="512">
    <g id="ViewLayer_LineSet 2" xmlns:inkscape="http://www.inkscape.org/namespaces/inkscape" inkscape:groupmode="lineset" inkscape:label="ViewLayer_LineSet 2">
        <g xmlns:inkscape="http://www.inkscape.org/namespaces/inkscape" inkscape:groupmode="layer" id="strokes" inkscape:label="strokes">
            <path fill="none" stroke-width="1.0" stroke-linecap="round" stroke-opacity="1.0" stroke="rgb(0, 0, 0)" stroke-linejoin="round" d=" M 208.444, 357.077 207.903, 357.225 207.282, 355.568 200.532, 357.745 200.453, 357.631 185.879, 362.059 185.507, 362.223 178.168, 364.157 176.837, 365.277 177.304, 366.786 " stroke-name="b_2514_p1b2513" stroke-occlusion=" True True True True True True True True True True " />
            <path fill="none" stroke-width="1.0" stroke-linecap="round" stroke-opacity="1.0" stroke="rgb(0, 0, 0)" stroke-linejoin="round" d=" M 187.999, 404.934 188.565, 404.807 189.231, 406.578 189.326, 406.758 " stroke-name="b_2514_p1b2513" stroke-occlusion=" True True True True " />
            <path fill="none" stroke-width="1.0" stroke-linecap="round" stroke-opacity="1.0" stroke="rgb(0, 0, 0)" stroke-linejoin="round" d=" M 175.714, 371.810 174.371, 372.921 181.383, 396.917 182.942, 402.251 184.464, 401.780 185.553, 405.482 185.648, 405.662 " stroke-name="b_2514_p1b2513" stroke-occlusion=" True True True True True True True " />
            <path fill="none" stroke-width="1.0" stroke-linecap="round" stroke-opacity="1.0" stroke="rgb(0, 0, 0)" stroke-linejoin="round" d=" M 177.304, 366.786 176.091, 367.162 174.665, 368.102 175.714, 371.810 " stroke-name="b_2514_p1b2513" stroke-occlusion=" True True True True " />
            <path fill="none" stroke-width="1.0" stroke-linecap="round" stroke-opacity="1.0" stroke="rgb(0, 0, 0)" stroke-linejoin="round" d=" M 212.655, 399.738 218.102, 398.147 218.230, 398.060 " stroke-name="b_2514_p1b2513" stroke-occlusion=" True True True " />
            <path fill="none" stroke-width="1.0" stroke-linecap="round" stroke-opacity="1.0" stroke="rgb(0, 0, 0)" stroke-linejoin="round" d=" M 219.098, 395.838 220.482, 395.432 222.636, 401.882 222.835, 402.479 " stroke-name="b_2514_p1b2513" stroke-occlusion=" True True True True " />
            <path fill="none" stroke-width="1.0" stroke-linecap="round" stroke-opacity="1.0" stroke="rgb(0, 0, 0)" stroke-linejoin="round" d=" M 222.822, 402.483 222.902, 402.680 246.850, 395.505 247.652, 395.265 248.337, 394.839 241.136, 370.898 233.935, 346.958 232.960, 343.715 208.989, 350.815 207.758, 351.179 206.901, 351.579 208.444, 357.077 " stroke-name="b_2514_p1b2513" stroke-occlusion=" True True True True True True True True True True True True " />
            <path fill="none" stroke-width="1.0" stroke-linecap="round" stroke-opacity="1.0" stroke="rgb(0, 0, 0)" stroke-linejoin="round" d=" M 218.192, 398.072 218.192, 398.071 218.224, 398.044 219.433, 397.028 219.098, 395.838 " stroke-name="b_2514_p1b2513" stroke-occlusion=" True True True True True " />
            <path fill="none" stroke-width="1.0" stroke-linecap="round" stroke-opacity="1.0" stroke="rgb(0, 0, 0)" stroke-linejoin="round" d=" M 257.903, 410.741 257.904, 410.740 257.933, 410.715 257.933, 410.714 258.231, 410.452 262.530, 393.125 263.873, 382.047 264.153, 364.935 261.762, 347.188 255.011, 323.174 255.010, 323.173 254.991, 323.105 " stroke-name="b_2446_p1b2445" stroke-occlusion=" True True True True True True True True True True True True " />
            <path fill="none" stroke-width="1.0" stroke-linecap="round" stroke-opacity="1.0" stroke="rgb(0, 0, 0)" stroke-linejoin="round" d=" M 268.471, 404.471 272.644, 405.631 273.044, 405.516 275.544, 397.605 279.673, 372.948 279.996, 371.024 279.325, 354.839 " stroke-name="b_2446_p1b2445" stroke-occlusion=" True True True True True True True " />
            <path fill="none" stroke-width="1.0" stroke-linecap="round" stroke-opacity="1.0" stroke="rgb(0, 0, 0)" stroke-linejoin="round" d=" M 279.325, 354.839 279.007, 343.394 276.308, 326.691 273.466, 317.513 " stroke-name="b_2446_p1b2445" stroke-occlusion=" True True True True " />
            <path fill="none" stroke-width="1.0" stroke-linecap="round" stroke-opacity="1.0" stroke="rgb(0, 0, 0)" stroke-linejoin="round" d=" M 216.907, 63.210 209.886, 39.217 202.864, 15.223 199.009, 2.050 198.580, 2.116 197.264, 2.534 " stroke-name="b_2446_p1b2445" stroke-occlusion=" True True True True True True " />
            <path fill="none" stroke-width="1.0" stroke-linecap="round" stroke-opacity="1.0" stroke="rgb(0, 0, 0)" stroke-linejoin="round" d=" M 234.925, 324.926 236.130, 328.817 250.430, 324.557 " stroke-name="b_2446_p1b2445" stroke-occlusion=" True True True " />
            <path fill="none" stroke-width="1.0" stroke-linecap="round" stroke-opacity="1.0" stroke="rgb(0, 0, 0)" stroke-linejoin="round" d=" M 280.638, 235.101 281.167, 234.898 281.201, 234.712 273.995, 210.774 266.788, 186.835 259.581, 162.896 257.643, 156.457 257.377, 156.489 " stroke-name="b_2446_p1b2445" stroke-occlusion=" True True True True True True True True " />
            <path fill="none" stroke-width="1.0" stroke-linecap="round" stroke-opacity="1.0" stroke="rgb(0, 0, 0)" stroke-linejoin="round" d=" M 164.461, -0.611 174.968, 6.543 175.474, 7.623 " stroke-name="b_2446_p1b2445" stroke-occlusion=" True True True " />
            <path fill="none" stroke-width="1.0" stroke-linecap="round" stroke-opacity="1.0" stroke="rgb(0, 0, 0)" stroke-linejoin="round" d=" M 259.415, 375.657 259.406, 378.868 259.124, 382.152 " stroke-name="b_2446_p1b2445" stroke-occlusion=" True True True " />
            <path fill="none" stroke-width="1.0" stroke-linecap="round" stroke-opacity="1.0" stroke="rgb(0, 0, 0)" stroke-linejoin="round" d=" M 255.830, 410.070 257.796, 410.835 257.925, 410.748 " stroke-name="b_2446_p1b2445" stroke-occlusion=" True True True " />
            <path fill="none" stroke-width="1.0" stroke-linecap="round" stroke-opacity="1.0" stroke="rgb(0, 0, 0)" stroke-linejoin="round" d=" M 268.688, 319.157 270.915, 326.291 273.225, 340.796 274.913, 365.205 274.001, 380.278 272.937, 385.407 " stroke-name="b_2446_p1b2445" stroke-occlusion=" True True True True True True " />
            <path fill="none" stroke-width="1.0" stroke-linecap="round" stroke-opacity="1.0" stroke="rgb(0, 0, 0)" stroke-linejoin="round" d=" M 129.715, 21.948 129.586, 22.035 132.349, 31.018 " stroke-name="b_2446_p1b2445" stroke-occlusion=" True True True " />
            <path fill="none" stroke-width="1.0" stroke-linecap="round" stroke-opacity="1.0" stroke="rgb(0, 0, 0)" stroke-linejoin="round" d=" M 132.566, 30.954 132.614, 30.958 137.794, 29.436 " stroke-name="b_2446_p1b2445" stroke-occlusion=" True True True " />
            <path fill="none" stroke-width="1.0" stroke-linecap="round" stroke-opacity="1.0" stroke="rgb(0, 0, 0)" stroke-linejoin="round" d=" M 290.306, 308.029 290.335, 308.020 290.696, 307.912 283.531, 283.961 276.366, 260.009 269.877, 238.317 " stroke-name="b_2446_p1b2445" stroke-occlusion=" True True True True True True " />
            <path fill="none" stroke-width="1.0" stroke-linecap="round" stroke-opacity="1.0" stroke="rgb(0, 0, 0)" stroke-linejoin="round" d=" M 290.056, 312.512 290.220, 312.321 289.200, 308.540 " stroke-name="b_2446_p1b2445" stroke-occlusion=" True True True " />
            <path fill="none" stroke-width="1.0" stroke-linecap="round" stroke-opacity="1.0" stroke="rgb(0, 0, 0)" stroke-linejoin="round" d=" M 257.246, 156.570 250.742, 158.422 245.899, 159.800 238.706, 135.857 231.514, 111.914 224.321, 87.971 223.703, 85.915 " stroke-name="b_2446_p1b2445" stroke-occlusion=" True True True True True True True " />
            <path fill="none" stroke-width="1.0" stroke-linecap="round" stroke-opacity="1.0" stroke="rgb(0, 0, 0)" stroke-linejoin="round" d=" M 423.850, 195.273 425.171, 194.284 423.591, 189.185 424.223, 188.426 417.655, 166.125 416.629, 166.515 " stroke-name="b_2445_p1b2444" stroke-occlusion=" True True True True True True " />
            <path fill="none" stroke-width="1.0" stroke-linecap="round" stroke-opacity="1.0" stroke="rgb(0, 0, 0)" stroke-linejoin="round" d=" M 366.923, 215.409 367.471, 217.522 367.735, 217.462 368.575, 217.202 " stroke-name="b_2445_p1b2444" stroke-occlusion=" True True True True " />
            <path fill="none" stroke-width="1.0" stroke-linecap="round" stroke-opacity="1.0" stroke="rgb(0, 0, 0)" stroke-linejoin="round" d=" M 404.186, 159.495 404.041, 158.990 380.071, 166.093 366.031, 170.253 364.985, 171.143 360.207, 172.449 358.554, 173.532 355.508, 174.474 355.528, 174.550 " stroke-name="b_2445_p1b2444" stroke-occlusion=" True True True True True True True True True " />
            <path fill="none" stroke-width="1.0" stroke-linecap="round" stroke-opacity="1.0" stroke="rgb(0, 0, 0)" stroke-linejoin="round" d=" M 408.911, 158.634 408.911, 158.634 408.636, 158.042 404.186, 159.495 " stroke-name="b_2445_p1b2444" stroke-occlusion=" True True True True " />
            <path fill="none" stroke-width="1.0" stroke-linecap="round" stroke-opacity="1.0" stroke="rgb(0, 0, 0)" stroke-linejoin="round" d=" M 409.437, 158.655 409.408, 158.553 409.287, 158.581 " stroke-name="b_2445_p1b2444" stroke-occlusion=" True True True " />
            <path fill="none" stroke-width="1.0" stroke-linecap="round" stroke-opacity="1.0" stroke="rgb(0, 0, 0)" stroke-linejoin="round" d=" M 355.965, 176.138 355.587, 176.225 353.818, 176.633 354.906, 180.337 361.919, 204.333 365.316, 215.955 365.580, 215.895 365.905, 215.724 " stroke-name="b_2445_p1b2444" stroke-occlusion=" True True True True True True True True " />
            <path fill="none" stroke-width="1.0" stroke-linecap="round" stroke-opacity="1.0" stroke="rgb(0, 0, 0)" stroke-linejoin="round" d=" M 413.094, 160.448 413.018, 160.184 412.898, 160.212 " stroke-name="b_2445_p1b2444" stroke-occlusion=" True True True " />
            <path fill="none" stroke-width="1.0" stroke-linecap="round" stroke-opacity="1.0" stroke="rgb(0, 0, 0)" stroke-linejoin="round" d=" M 368.575, 217.202 392.589, 210.250 416.603, 203.297 422.618, 201.555 423.088, 201.254 422.534, 199.838 " stroke-name="b_2445_p1b2444" stroke-occlusion=" True True True True True True " />
            <path fill="none" stroke-width="1.0" stroke-linecap="round" stroke-opacity="1.0" stroke="rgb(0, 0, 0)" stroke-linejoin="round" d=" M 424.240, 198.561 424.262, 198.555 424.637, 198.452 424.230, 197.139 " stroke-name="b_2445_p1b2444" stroke-occlusion=" True True True True " />
            <path fill="none" stroke-width="1.0" stroke-linecap="round" stroke-opacity="1.0" stroke="rgb(0, 0, 0)" stroke-linejoin="round" d=" M 424.230, 197.139 424.488, 196.905 423.850, 195.273 " stroke-name="b_2445_p1b2444" stroke-occlusion=" True True True " />
            <path fill="none" stroke-width="1.0" stroke-linecap="round" stroke-opacity="1.0" stroke="rgb(0, 0, 0)" stroke-linejoin="round" d=" M 422.534, 199.838 422.973, 199.440 422.855, 199.059 422.821, 198.949 " stroke-name="b_2445_p1b2444" stroke-occlusion=" True True True True " />
            <path fill="none" stroke-width="1.0" stroke-linecap="round" stroke-opacity="1.0" stroke="rgb(0, 0, 0)" stroke-linejoin="round" d=" M 416.629, 166.515 415.236, 161.676 414.370, 161.858 413.913, 160.195 413.094, 160.448 " stroke-name="b_2445_p1b2444" stroke-occlusion=" True True True True True " />
            <path fill="none" stroke-width="1.0" stroke-linecap="round" stroke-opacity="1.0" stroke="rgb(0, 0, 0)" stroke-linejoin="round" d=" M 412.018, 160.413 410.999, 159.719 410.509, 158.323 409.437, 158.655 " stroke-name="b_2445_p1b2444" stroke-occlusion=" True True True True " />
            <path fill="none" stroke-width="1.0" stroke-linecap="round" stroke-opacity="1.0" stroke="rgb(0, 0, 0)" stroke-linejoin="round" d=" M 501.575, 256.000 501.689, 255.929 503.476, 254.607 496.545, 230.587 491.040, 211.510 467.095, 218.698 443.150, 225.885 437.800, 227.491 435.598, 228.945 442.671, 252.923 448.240, 271.801 448.335, 271.981 " stroke-name="b_2444_p1b2443" stroke-occlusion=" True True True True True True True True True True True True " />
            <path fill="none" stroke-width="1.0" stroke-linecap="round" stroke-opacity="1.0" stroke="rgb(0, 0, 0)" stroke-linejoin="round" d=" M 383.664, 278.527 388.602, 294.844 412.506, 287.523 436.441, 280.193 430.345, 260.636 430.680, 260.391 428.435, 253.519 427.065, 248.528 422.011, 232.211 398.082, 239.450 374.378, 246.621 374.168, 246.994 " stroke-name="b_2444_p1b2443" stroke-occlusion=" True True True True True True True True True True True True " />
            <path fill="none" stroke-width="1.0" stroke-linecap="round" stroke-opacity="1.0" stroke="rgb(0, 0, 0)" stroke-linejoin="round" d=" M 271.329, 56.854 271.307, 56.779 260.713, 59.546 259.792, 60.141 259.722, 60.186 259.716, 60.160 257.785, 52.272 281.622, 44.737 282.797, 44.366 283.054, 44.273 275.867, 20.328 274.085, 14.391 269.793, 15.748 269.602, 15.809 " stroke-name="b_2421_p1b2420" stroke-occlusion=" True True True True True True True True True True True True True True " />
            <path fill="none" stroke-width="1.0" stroke-linecap="round" stroke-opacity="1.0" stroke="rgb(0, 0, 0)" stroke-linejoin="round" d=" M 235.880, 68.730 232.043, 69.918 231.293, 70.214 236.428, 89.772 236.523, 89.953 " stroke-name="b_2421_p1b2420" stroke-occlusion=" True True True True True " />
            <path fill="none" stroke-width="1.0" stroke-linecap="round" stroke-opacity="1.0" stroke="rgb(0, 0, 0)" stroke-linejoin="round" d=" M 240.862, 97.788 240.796, 97.792 239.305, 98.684 244.043, 113.981 246.313, 118.522 265.563, 113.589 265.692, 113.502 " stroke-name="b_2421_p1b2420" stroke-occlusion=" True True True True True True True " />
            <path fill="none" stroke-width="1.0" stroke-linecap="round" stroke-opacity="1.0" stroke="rgb(0, 0, 0)" stroke-linejoin="round" d=" M 269.602, 15.809 269.301, 15.899 246.719, 22.683 247.282, 24.487 " stroke-name="b_2421_p1b2420" stroke-occlusion=" True True True True " />
            <path fill="none" stroke-width="1.0" stroke-linecap="round" stroke-opacity="1.0" stroke="rgb(0, 0, 0)" stroke-linejoin="round" d=" M 294.280, 103.784 294.809, 103.582 295.145, 103.417 293.884, 99.180 " stroke-name="b_2421_p1b2420" stroke-occlusion=" True True True True " />
            <path fill="none" stroke-width="1.0" stroke-linecap="round" stroke-opacity="1.0" stroke="rgb(0, 0, 0)" stroke-linejoin="round" d=" M 290.590, 105.749 290.618, 105.716 290.959, 105.318 290.847, 104.809 " stroke-name="b_2421_p1b2420" stroke-occlusion=" True True True True " />
            <path fill="none" stroke-width="1.0" stroke-linecap="round" stroke-opacity="1.0" stroke="rgb(0, 0, 0)" stroke-linejoin="round" d=" M 273.362, 109.149 274.868, 109.071 275.150, 110.359 290.684, 105.930 " stroke-name="b_2421_p1b2420" stroke-occlusion=" True True True True " />
            <path fill="none" stroke-width="1.0" stroke-linecap="round" stroke-opacity="1.0" stroke="rgb(0, 0, 0)" stroke-linejoin="round" d=" M 265.667, 113.508 265.689, 113.491 266.845, 112.589 266.209, 110.379 " stroke-name="b_2421_p1b2420" stroke-occlusion=" True True True True " />
            <path fill="none" stroke-width="1.0" stroke-linecap="round" stroke-opacity="1.0" stroke="rgb(0, 0, 0)" stroke-linejoin="round" d=" M 270.402, 112.730 270.897, 112.795 271.942, 111.719 273.362, 109.149 " stroke-name="b_2421_p1b2420" stroke-occlusion=" True True True True " />
            <path fill="none" stroke-width="1.0" stroke-linecap="round" stroke-opacity="1.0" stroke="rgb(0, 0, 0)" stroke-linejoin="round" d=" M 297.620, 98.021 297.940, 97.711 298.276, 97.546 291.164, 73.579 286.547, 58.018 281.769, 59.324 280.365, 54.601 271.329, 56.854 " stroke-name="b_2421_p1b2420" stroke-occlusion=" True True True True True True True True " />
            <path fill="none" stroke-width="1.0" stroke-linecap="round" stroke-opacity="1.0" stroke="rgb(0, 0, 0)" stroke-linejoin="round" d=" M 230.099, 68.645 230.385, 68.600 235.325, 66.939 " stroke-name="b_2421_p1b2420" stroke-occlusion=" True True True " />
            <path fill="none" stroke-width="1.0" stroke-linecap="round" stroke-opacity="1.0" stroke="rgb(0, 0, 0)" stroke-linejoin="round" d=" M 247.282, 24.487 223.406, 31.898 219.296, 33.174 219.311, 33.240 220.757, 37.856 " stroke-name="b_2421_p1b2420" stroke-occlusion=" True True True True True " />
            <path fill="none" stroke-width="1.0" stroke-linecap="round" stroke-opacity="1.0" stroke="rgb(0, 0, 0)" stroke-linejoin="round" d=" M 239.029, 90.547 236.967, 94.677 240.961, 96.793 240.862, 97.788 " stroke-name="b_2421_p1b2420" stroke-occlusion=" True True True True " />
            <path fill="none" stroke-width="1.0" stroke-linecap="round" stroke-opacity="1.0" stroke="rgb(0, 0, 0)" stroke-linejoin="round" d=" M 376.696, 111.858 376.669, 111.775 352.617, 118.591 337.619, 122.841 337.614, 123.076 337.085, 123.279 " stroke-name="b_2420_p1b2419" stroke-occlusion=" True True True True True True " />
            <path fill="none" stroke-width="1.0" stroke-linecap="round" stroke-opacity="1.0" stroke="rgb(0, 0, 0)" stroke-linejoin="round" d=" M 401.979, 126.291 396.130, 106.203 381.654, 110.434 " stroke-name="b_2420_p1b2419" stroke-occlusion=" True True True " />
            <path fill="none" stroke-width="1.0" stroke-linecap="round" stroke-opacity="1.0" stroke="rgb(0, 0, 0)" stroke-linejoin="round" d=" M 389.588, 154.579 408.600, 149.032 408.864, 148.889 401.979, 126.291 " stroke-name="b_2420_p1b2419" stroke-occlusion=" True True True True " />
            <path fill="none" stroke-width="1.0" stroke-linecap="round" stroke-opacity="1.0" stroke="rgb(0, 0, 0)" stroke-linejoin="round" d=" M 389.813, 156.622 389.830, 156.616 389.836, 156.615 390.186, 156.511 389.588, 154.579 " stroke-name="b_2420_p1b2419" stroke-occlusion=" True True True True True " />
            <path fill="none" stroke-width="1.0" stroke-linecap="round" stroke-opacity="1.0" stroke="rgb(0, 0, 0)" stroke-linejoin="round" d=" M 350.568, 168.283 350.854, 168.239 374.829, 161.151 389.858, 156.708 " stroke-name="b_2420_p1b2419" stroke-occlusion=" True True True True " />
            <path fill="none" stroke-width="1.0" stroke-linecap="round" stroke-opacity="1.0" stroke="rgb(0, 0, 0)" stroke-linejoin="round" d=" M 544.239, 112.645 520.318, 119.911 496.397, 127.177 473.587, 134.106 471.178, 135.719 471.064, 135.791 " stroke-name="b_2385_p1b2384" stroke-occlusion=" True True True True True True " />
            <path fill="none" stroke-width="1.0" stroke-linecap="round" stroke-opacity="1.0" stroke="rgb(0, 0, 0)" stroke-linejoin="round" d=" M 175.839, 8.670 175.837, 8.670 151.815, 15.594 133.400, 20.902 129.980, 21.888 " stroke-name="b_2446_p1b2445" stroke-occlusion=" True True True True True " />
            <path fill="none" stroke-width="1.0" stroke-linecap="round" stroke-opacity="1.0" stroke="rgb(0, 0, 0)" stroke-linejoin="round" d=" M 194.144, 3.397 192.102, -3.196 " stroke-name="b_2446_p1b2445" stroke-occlusion=" True True " />
            <path fill="none" stroke-width="1.0" stroke-linecap="round" stroke-opacity="1.0" stroke="rgb(0, 0, 0)" stroke-linejoin="round" d=" M 197.264, 2.534 194.144, 3.397 " stroke-name="b_2446_p1b2445" stroke-occlusion=" True True " />
            <path fill="none" stroke-width="1.0" stroke-linecap="round" stroke-opacity="1.0" stroke="rgb(0, 0, 0)" stroke-linejoin="round" d=" M 223.703, 85.915 216.907, 63.210 " stroke-name="b_2446_p1b2445" stroke-occlusion=" True True " />
            <path fill="none" stroke-width="1.0" stroke-linecap="round" stroke-opacity="1.0" stroke="rgb(0, 0, 0)" stroke-linejoin="round" d=" M 250.430, 324.557 251.212, 327.592 " stroke-name="b_2446_p1b2445" stroke-occlusion=" True True " />
            <path fill="none" stroke-width="1.0" stroke-linecap="round" stroke-opacity="1.0" stroke="rgb(0, 0, 0)" stroke-linejoin="round" d=" M 255.011, 323.174 268.688, 319.157 268.689, 319.157 " stroke-name="b_2446_p1b2445" stroke-occlusion=" True True True " />
            <path fill="none" stroke-width="1.0" stroke-linecap="round" stroke-opacity="1.0" stroke="rgb(0, 0, 0)" stroke-linejoin="round" d=" M 266.209, 110.379 268.105, 111.356 " stroke-name="b_2421_p1b2420" stroke-occlusion=" True True " />
            <path fill="none" stroke-width="1.0" stroke-linecap="round" stroke-opacity="1.0" stroke="rgb(0, 0, 0)" stroke-linejoin="round" d=" M 269.877, 238.317 275.422, 236.638 " stroke-name="b_2446_p1b2445" stroke-occlusion=" True True " />
            <path fill="none" stroke-width="1.0" stroke-linecap="round" stroke-opacity="1.0" stroke="rgb(0, 0, 0)" stroke-linejoin="round" d=" M 273.486, 317.506 290.123, 312.726 " stroke-name="b_2446_p1b2445" stroke-occlusion=" True True " />
            <path fill="none" stroke-width="1.0" stroke-linecap="round" stroke-opacity="1.0" stroke="rgb(0, 0, 0)" stroke-linejoin="round" d=" M 273.466, 317.513 273.486, 317.506 " stroke-name="b_2446_p1b2445" stroke-occlusion=" True True " />
            <path fill="none" stroke-width="1.0" stroke-linecap="round" stroke-opacity="1.0" stroke="rgb(0, 0, 0)" stroke-linejoin="round" d=" M 290.847, 104.809 292.526, 104.289 " stroke-name="b_2421_p1b2420" stroke-occlusion=" True True " />
        </g>
    </g>
</svg>
