<?xml version='1.0' encoding='ascii'?>
<svg xmlns="http://www.w3.org/2000/svg" version="1.1" width="512" height="512">
    <g id="ViewLayer_LineSet 2" xmlns:inkscape="http://www.inkscape.org/namespaces/inkscape" inkscape:groupmode="lineset" inkscape:label="ViewLayer_LineSet 2">
        <g xmlns:inkscape="http://www.inkscape.org/namespaces/inkscape" inkscape:groupmode="layer" id="strokes" inkscape:label="strokes">
            <path fill="none" stroke-width="1.0" stroke-linecap="round" stroke-opacity="1.0" stroke="rgb(0, 0, 0)" stroke-linejoin="round" d=" M 466.632, 164.279 466.632, 164.279 466.690, 164.073 466.735, 163.875 451.576, 157.334 451.065, 157.140 449.750, 160.301 " stroke-name="b_2430_p1b2429" stroke-occlusion=" True True True True True True True " />
            <path fill="none" stroke-width="1.0" stroke-linecap="round" stroke-opacity="1.0" stroke="rgb(0, 0, 0)" stroke-linejoin="round" d=" M 485.636, 172.530 485.190, 172.558 484.876, 173.303 " stroke-name="b_2430_p1b2429" stroke-occlusion=" True True True " />
            <path fill="none" stroke-width="1.0" stroke-linecap="round" stroke-opacity="1.0" stroke="rgb(0, 0, 0)" stroke-linejoin="round" d=" M 511.467, 185.599 512.000, 184.460 512.005, 184.377 " stroke-name="b_2430_p1b2429" stroke-occlusion=" True True True " />
            <path fill="none" stroke-width="1.0" stroke-linecap="round" stroke-opacity="1.0" stroke="rgb(0, 0, 0)" stroke-linejoin="round" d=" M 439.710, 152.263 439.451, 152.278 437.325, 157.174 431.986, 154.828 431.474, 154.634 426.602, 165.628 " stroke-name="b_2430_p1b2429" stroke-occlusion=" True True True True True True " />
            <path fill="none" stroke-width="1.0" stroke-linecap="round" stroke-opacity="1.0" stroke="rgb(0, 0, 0)" stroke-linejoin="round" d=" M 470.295, 205.396 450.254, 196.430 452.588, 190.779 452.588, 190.778 452.591, 190.772 " stroke-name="b_2430_p1b2429" stroke-occlusion=" True True True True True " />
            <path fill="none" stroke-width="1.0" stroke-linecap="round" stroke-opacity="1.0" stroke="rgb(0, 0, 0)" stroke-linejoin="round" d=" M 426.602, 165.628 425.732, 165.364 425.082, 165.123 415.025, 188.011 404.969, 210.899 394.912, 233.787 384.856, 256.675 374.799, 279.563 365.115, 301.603 366.578, 302.238 365.738, 304.173 " stroke-name="b_2430_p1b2429" stroke-occlusion=" True True True True True True True True True True True " />
            <path fill="none" stroke-width="1.0" stroke-linecap="round" stroke-opacity="1.0" stroke="rgb(0, 0, 0)" stroke-linejoin="round" d=" M 351.467, 328.351 351.432, 328.435 352.156, 330.629 349.517, 336.286 353.217, 337.983 351.228, 341.330 374.108, 351.406 396.987, 361.482 419.867, 371.557 423.183, 373.017 423.510, 373.083 423.511, 373.083 " stroke-name="b_2430_p1b2429" stroke-occlusion=" True True True True True True True True True True True True " />
            <path fill="none" stroke-width="1.0" stroke-linecap="round" stroke-opacity="1.0" stroke="rgb(0, 0, 0)" stroke-linejoin="round" d=" M 423.567, 373.108 423.721, 373.125 425.109, 369.789 427.831, 370.902 " stroke-name="b_2430_p1b2429" stroke-occlusion=" True True True True " />
            <path fill="none" stroke-width="1.0" stroke-linecap="round" stroke-opacity="1.0" stroke="rgb(0, 0, 0)" stroke-linejoin="round" d=" M 364.361, 303.614 363.827, 303.423 363.664, 303.572 361.963, 307.488 360.125, 308.084 359.963, 308.232 354.744, 320.590 " stroke-name="b_2430_p1b2429" stroke-occlusion=" True True True True True True True " />
            <path fill="none" stroke-width="1.0" stroke-linecap="round" stroke-opacity="1.0" stroke="rgb(0, 0, 0)" stroke-linejoin="round" d=" M 427.831, 370.902 428.472, 371.196 428.722, 371.267 429.084, 370.453 " stroke-name="b_2430_p1b2429" stroke-occlusion=" True True True True " />
            <path fill="none" stroke-width="1.0" stroke-linecap="round" stroke-opacity="1.0" stroke="rgb(0, 0, 0)" stroke-linejoin="round" d=" M 472.960, 167.203 472.717, 167.052 " stroke-name="b_2430_p1b2429" stroke-occlusion=" True True " />
            <path fill="none" stroke-width="1.0" stroke-linecap="round" stroke-opacity="1.0" stroke="rgb(0, 0, 0)" stroke-linejoin="round" d=" M 439.316, 351.674 441.642, 346.612 440.831, 344.199 443.269, 338.723 443.315, 338.524 441.919, 337.688 442.670, 336.006 " stroke-name="b_2430_p1b2429" stroke-occlusion=" True True True True True True True " />
            <path fill="none" stroke-width="1.0" stroke-linecap="round" stroke-opacity="1.0" stroke="rgb(0, 0, 0)" stroke-linejoin="round" d=" M 447.034, 155.411 439.875, 152.253 439.721, 152.237 " stroke-name="b_2430_p1b2429" stroke-occlusion=" True True True " />
            <path fill="none" stroke-width="1.0" stroke-linecap="round" stroke-opacity="1.0" stroke="rgb(0, 0, 0)" stroke-linejoin="round" d=" M 442.664, 336.003 442.670, 336.006 444.558, 336.902 444.808, 336.972 454.883, 314.092 464.959, 291.212 475.034, 268.333 485.110, 245.453 495.185, 222.573 505.261, 199.693 511.467, 185.599 " stroke-name="b_2430_p1b2429" stroke-occlusion=" True True True True True True True True True True True " />
            <path fill="none" stroke-width="1.0" stroke-linecap="round" stroke-opacity="1.0" stroke="rgb(0, 0, 0)" stroke-linejoin="round" d=" M 472.717, 167.052 472.730, 167.020 471.672, 166.576 " stroke-name="b_2430_p1b2429" stroke-occlusion=" True True True " />
            <path fill="none" stroke-width="1.0" stroke-linecap="round" stroke-opacity="1.0" stroke="rgb(0, 0, 0)" stroke-linejoin="round" d=" M 452.591, 190.772 453.130, 191.018 456.098, 192.371 472.719, 199.954 470.295, 205.396 " stroke-name="b_2430_p1b2429" stroke-occlusion=" True True True True True " />
            <path fill="none" stroke-width="1.0" stroke-linecap="round" stroke-opacity="1.0" stroke="rgb(0, 0, 0)" stroke-linejoin="round" d=" M 388.404, 78.528 384.182, 88.375 383.796, 89.273 383.675, 89.556 383.673, 89.561 383.665, 89.581 388.827, 91.912 388.976, 91.903 395.707, 77.100 " stroke-name="b_2429_p1b2428" stroke-occlusion=" True True True True True True True True True " />
            <path fill="none" stroke-width="1.0" stroke-linecap="round" stroke-opacity="1.0" stroke="rgb(0, 0, 0)" stroke-linejoin="round" d=" M 415.230, 42.230 415.248, 42.173 409.420, 39.642 " stroke-name="b_2429_p1b2428" stroke-occlusion=" True True True " />
            <path fill="none" stroke-width="1.0" stroke-linecap="round" stroke-opacity="1.0" stroke="rgb(0, 0, 0)" stroke-linejoin="round" d=" M 326.497, 197.485 326.273, 197.386 321.850, 207.191 321.821, 207.359 332.150, 211.936 " stroke-name="b_2429_p1b2428" stroke-occlusion=" True True True True True " />
            <path fill="none" stroke-width="1.0" stroke-linecap="round" stroke-opacity="1.0" stroke="rgb(0, 0, 0)" stroke-linejoin="round" d=" M 381.606, 98.422 381.360, 98.269 366.920, 91.877 364.735, 90.969 " stroke-name="b_2429_p1b2428" stroke-occlusion=" True True True True " />
            <path fill="none" stroke-width="1.0" stroke-linecap="round" stroke-opacity="1.0" stroke="rgb(0, 0, 0)" stroke-linejoin="round" d=" M 360.443, 95.974 360.268, 95.885 354.698, 108.731 352.146, 114.606 349.400, 120.817 " stroke-name="b_2429_p1b2428" stroke-occlusion=" True True True True True " />
            <path fill="none" stroke-width="1.0" stroke-linecap="round" stroke-opacity="1.0" stroke="rgb(0, 0, 0)" stroke-linejoin="round" d=" M 349.400, 120.817 349.365, 120.831 339.276, 143.705 338.295, 145.929 " stroke-name="b_2429_p1b2428" stroke-occlusion=" True True True True " />
            <path fill="none" stroke-width="1.0" stroke-linecap="round" stroke-opacity="1.0" stroke="rgb(0, 0, 0)" stroke-linejoin="round" d=" M 338.295, 145.929 330.317, 163.969 319.978, 186.731 318.122, 190.819 325.507, 194.090 " stroke-name="b_2429_p1b2428" stroke-occlusion=" True True True True True " />
            <path fill="none" stroke-width="1.0" stroke-linecap="round" stroke-opacity="1.0" stroke="rgb(0, 0, 0)" stroke-linejoin="round" d=" M 364.735, 90.969 363.034, 90.222 360.443, 95.974 " stroke-name="b_2429_p1b2428" stroke-occlusion=" True True True " />
            <path fill="none" stroke-width="1.0" stroke-linecap="round" stroke-opacity="1.0" stroke="rgb(0, 0, 0)" stroke-linejoin="round" d=" M 359.585, 173.513 359.717, 173.578 358.371, 176.264 358.370, 176.266 358.354, 176.298 " stroke-name="b_2429_p1b2428" stroke-occlusion=" True True True True True " />
            <path fill="none" stroke-width="1.0" stroke-linecap="round" stroke-opacity="1.0" stroke="rgb(0, 0, 0)" stroke-linejoin="round" d=" M 358.371, 176.264 348.638, 171.991 349.454, 170.112 " stroke-name="b_2429_p1b2428" stroke-occlusion=" True True True " />
            <path fill="none" stroke-width="1.0" stroke-linecap="round" stroke-opacity="1.0" stroke="rgb(0, 0, 0)" stroke-linejoin="round" d=" M 432.530, 49.091 432.513, 49.083 432.408, 49.034 423.590, 69.199 422.856, 70.887 " stroke-name="b_2429_p1b2428" stroke-occlusion=" True True True True True " />
            <path fill="none" stroke-width="1.0" stroke-linecap="round" stroke-opacity="1.0" stroke="rgb(0, 0, 0)" stroke-linejoin="round" d=" M 330.230, 216.665 328.348, 220.668 328.267, 221.008 351.177, 231.015 358.523, 234.224 " stroke-name="b_2429_p1b2428" stroke-occlusion=" True True True True True " />
            <path fill="none" stroke-width="1.0" stroke-linecap="round" stroke-opacity="1.0" stroke="rgb(0, 0, 0)" stroke-linejoin="round" d=" M 387.506, 61.210 387.070, 61.078 397.194, 38.220 398.979, 34.191 390.248, 30.183 389.802, 30.211 382.846, 45.916 " stroke-name="b_2429_p1b2428" stroke-occlusion=" True True True True True True True " />
            <path fill="none" stroke-width="1.0" stroke-linecap="round" stroke-opacity="1.0" stroke="rgb(0, 0, 0)" stroke-linejoin="round" d=" M 404.975, 78.665 400.419, 76.724 400.147, 76.657 394.213, 90.203 393.030, 92.905 392.343, 94.374 388.889, 101.766 391.085, 102.792 " stroke-name="b_2429_p1b2428" stroke-occlusion=" True True True True True True True True " />
            <path fill="none" stroke-width="1.0" stroke-linecap="round" stroke-opacity="1.0" stroke="rgb(0, 0, 0)" stroke-linejoin="round" d=" M 440.666, 58.318 442.698, 53.840 442.744, 53.641 440.714, 52.760 " stroke-name="b_2429_p1b2428" stroke-occlusion=" True True True True " />
            <path fill="none" stroke-width="1.0" stroke-linecap="round" stroke-opacity="1.0" stroke="rgb(0, 0, 0)" stroke-linejoin="round" d=" M 349.454, 170.112 354.006, 172.149 354.563, 172.146 354.683, 171.723 " stroke-name="b_2429_p1b2428" stroke-occlusion=" True True True True " />
            <path fill="none" stroke-width="1.0" stroke-linecap="round" stroke-opacity="1.0" stroke="rgb(0, 0, 0)" stroke-linejoin="round" d=" M 360.524, 145.528 365.238, 147.658 365.796, 147.653 366.247, 146.526 " stroke-name="b_2429_p1b2428" stroke-occlusion=" True True True True " />
            <path fill="none" stroke-width="1.0" stroke-linecap="round" stroke-opacity="1.0" stroke="rgb(0, 0, 0)" stroke-linejoin="round" d=" M 399.312, 35.193 399.282, 35.192 399.282, 35.192 399.159, 35.187 388.941, 58.004 387.506, 61.210 " stroke-name="b_2429_p1b2428" stroke-occlusion=" True True True True True True " />
            <path fill="none" stroke-width="1.0" stroke-linecap="round" stroke-opacity="1.0" stroke="rgb(0, 0, 0)" stroke-linejoin="round" d=" M 376.158, 56.368 375.924, 56.837 372.398, 63.944 380.038, 67.384 380.051, 67.391 " stroke-name="b_2429_p1b2428" stroke-occlusion=" True True True True True " />
            <path fill="none" stroke-width="1.0" stroke-linecap="round" stroke-opacity="1.0" stroke="rgb(0, 0, 0)" stroke-linejoin="round" d=" M 369.252, 147.897 370.776, 148.650 367.765, 155.170 367.760, 155.181 " stroke-name="b_2429_p1b2428" stroke-occlusion=" True True True True " />
            <path fill="none" stroke-width="1.0" stroke-linecap="round" stroke-opacity="1.0" stroke="rgb(0, 0, 0)" stroke-linejoin="round" d=" M 366.242, 146.523 366.247, 146.526 367.727, 147.303 367.769, 147.212 " stroke-name="b_2429_p1b2428" stroke-occlusion=" True True True True " />
            <path fill="none" stroke-width="1.0" stroke-linecap="round" stroke-opacity="1.0" stroke="rgb(0, 0, 0)" stroke-linejoin="round" d=" M 354.827, 171.509 356.670, 172.232 356.682, 172.202 " stroke-name="b_2429_p1b2428" stroke-occlusion=" True True True " />
            <path fill="none" stroke-width="1.0" stroke-linecap="round" stroke-opacity="1.0" stroke="rgb(0, 0, 0)" stroke-linejoin="round" d=" M 403.856, 68.720 403.914, 68.603 408.389, 70.726 408.510, 70.779 " stroke-name="b_2429_p1b2428" stroke-occlusion=" True True True True " />
            <path fill="none" stroke-width="1.0" stroke-linecap="round" stroke-opacity="1.0" stroke="rgb(0, 0, 0)" stroke-linejoin="round" d=" M 403.435, 69.638 403.878, 68.745 403.856, 68.720 " stroke-name="b_2429_p1b2428" stroke-occlusion=" True True True " />
            <path fill="none" stroke-width="1.0" stroke-linecap="round" stroke-opacity="1.0" stroke="rgb(0, 0, 0)" stroke-linejoin="round" d=" M 396.730, 74.902 400.075, 76.409 400.532, 76.325 403.435, 69.638 " stroke-name="b_2429_p1b2428" stroke-occlusion=" True True True True " />
            <path fill="none" stroke-width="1.0" stroke-linecap="round" stroke-opacity="1.0" stroke="rgb(0, 0, 0)" stroke-linejoin="round" d=" M 361.721, 235.656 361.874, 235.673 372.024, 212.826 382.174, 189.979 392.324, 167.133 402.474, 144.286 412.624, 121.439 422.774, 98.592 432.924, 75.745 440.666, 58.318 " stroke-name="b_2429_p1b2428" stroke-occlusion=" True True True True True True True True True True " />
            <path fill="none" stroke-width="1.0" stroke-linecap="round" stroke-opacity="1.0" stroke="rgb(0, 0, 0)" stroke-linejoin="round" d=" M 412.047, 72.104 422.265, 49.287 423.685, 46.116 423.704, 46.004 415.230, 42.230 " stroke-name="b_2429_p1b2428" stroke-occlusion=" True True True True True " />
            <path fill="none" stroke-width="1.0" stroke-linecap="round" stroke-opacity="1.0" stroke="rgb(0, 0, 0)" stroke-linejoin="round" d=" M 409.420, 39.642 399.441, 35.198 399.286, 35.181 " stroke-name="b_2429_p1b2428" stroke-occlusion=" True True True " />
            <path fill="none" stroke-width="1.0" stroke-linecap="round" stroke-opacity="1.0" stroke="rgb(0, 0, 0)" stroke-linejoin="round" d=" M 420.642, 75.886 412.047, 72.104 " stroke-name="b_2429_p1b2428" stroke-occlusion=" True True " />
            <path fill="none" stroke-width="1.0" stroke-linecap="round" stroke-opacity="1.0" stroke="rgb(0, 0, 0)" stroke-linejoin="round" d=" M 380.051, 67.391 377.452, 73.513 377.450, 73.517 377.442, 73.538 379.051, 74.250 " stroke-name="b_2429_p1b2428" stroke-occlusion=" True True True True True " />
            <path fill="none" stroke-width="1.0" stroke-linecap="round" stroke-opacity="1.0" stroke="rgb(0, 0, 0)" stroke-linejoin="round" d=" M 371.555, 120.755 376.297, 122.729 376.421, 122.591 " stroke-name="b_2429_p1b2428" stroke-occlusion=" True True True " />
            <path fill="none" stroke-width="1.0" stroke-linecap="round" stroke-opacity="1.0" stroke="rgb(0, 0, 0)" stroke-linejoin="round" d=" M 377.058, 121.882 378.872, 122.593 378.928, 122.461 " stroke-name="b_2429_p1b2428" stroke-occlusion=" True True True " />
            <path fill="none" stroke-width="1.0" stroke-linecap="round" stroke-opacity="1.0" stroke="rgb(0, 0, 0)" stroke-linejoin="round" d=" M 378.953, 122.471 381.833, 123.721 379.046, 130.542 379.046, 130.544 " stroke-name="b_2429_p1b2428" stroke-occlusion=" True True True True " />
            <path fill="none" stroke-width="1.0" stroke-linecap="round" stroke-opacity="1.0" stroke="rgb(0, 0, 0)" stroke-linejoin="round" d=" M 262.430, 262.763 259.748, 269.002 258.967, 270.820 248.754, 293.764 248.874, 293.922 271.762, 303.979 280.301, 307.732 " stroke-name="b_2361_p1b2360" stroke-occlusion=" True True True True True True True " />
            <path fill="none" stroke-width="1.0" stroke-linecap="round" stroke-opacity="1.0" stroke="rgb(0, 0, 0)" stroke-linejoin="round" d=" M 308.556, 320.242 320.916, 325.828 321.198, 325.839 331.271, 302.959 341.344, 280.078 342.775, 276.828 319.916, 266.705 297.058, 256.581 274.199, 246.458 270.732, 244.923 270.578, 244.905 " stroke-name="b_2361_p1b2360" stroke-occlusion=" True True True True True True True True True True True " />
            <path fill="none" stroke-width="1.0" stroke-linecap="round" stroke-opacity="1.0" stroke="rgb(0, 0, 0)" stroke-linejoin="round" d=" M 265.738, 255.287 260.604, 252.793 260.450, 252.776 259.139, 255.050 " stroke-name="b_2361_p1b2360" stroke-occlusion=" True True True True " />
            <path fill="none" stroke-width="1.0" stroke-linecap="round" stroke-opacity="1.0" stroke="rgb(0, 0, 0)" stroke-linejoin="round" d=" M 270.606, 244.918 270.574, 244.916 270.574, 244.916 270.451, 244.911 265.738, 255.287 " stroke-name="b_2361_p1b2360" stroke-occlusion=" True True True True True " />
            <path fill="none" stroke-width="1.0" stroke-linecap="round" stroke-opacity="1.0" stroke="rgb(0, 0, 0)" stroke-linejoin="round" d=" M 259.139, 255.050 256.520, 258.849 261.371, 262.057 262.432, 262.758 " stroke-name="b_2361_p1b2360" stroke-occlusion=" True True True True " />
            <path fill="none" stroke-width="1.0" stroke-linecap="round" stroke-opacity="1.0" stroke="rgb(0, 0, 0)" stroke-linejoin="round" d=" M 195.126, 121.015 184.893, 143.825 179.845, 155.078 177.206, 161.267 176.442, 163.411 " stroke-name="b_2360_p1b2359" stroke-occlusion=" True True True True True " />
            <path fill="none" stroke-width="1.0" stroke-linecap="round" stroke-opacity="1.0" stroke="rgb(0, 0, 0)" stroke-linejoin="round" d=" M 175.640, 165.225 175.382, 165.107 166.231, 186.457 " stroke-name="b_2360_p1b2359" stroke-occlusion=" True True True " />
            <path fill="none" stroke-width="1.0" stroke-linecap="round" stroke-opacity="1.0" stroke="rgb(0, 0, 0)" stroke-linejoin="round" d=" M 243.109, 155.472 260.934, 163.386 261.190, 163.483 266.607, 151.151 269.850, 152.559 " stroke-name="b_2360_p1b2359" stroke-occlusion=" True True True True True " />
            <path fill="none" stroke-width="1.0" stroke-linecap="round" stroke-opacity="1.0" stroke="rgb(0, 0, 0)" stroke-linejoin="round" d=" M 260.733, 136.421 237.901, 126.238 215.068, 116.056 200.305, 109.471 200.023, 109.460 195.126, 121.015 " stroke-name="b_2360_p1b2359" stroke-occlusion=" True True True True True True " />
            <path fill="none" stroke-width="1.0" stroke-linecap="round" stroke-opacity="1.0" stroke="rgb(0, 0, 0)" stroke-linejoin="round" d=" M 271.110, 141.049 271.117, 141.033 260.733, 136.421 " stroke-name="b_2360_p1b2359" stroke-occlusion=" True True True " />
            <path fill="none" stroke-width="1.0" stroke-linecap="round" stroke-opacity="1.0" stroke="rgb(0, 0, 0)" stroke-linejoin="round" d=" M 166.231, 186.457 165.964, 186.347 155.731, 209.156 151.104, 219.471 140.953, 242.318 139.272, 246.101 161.565, 255.886 162.035, 254.709 " stroke-name="b_2360_p1b2359" stroke-occlusion=" True True True True True True True True " />
            <path fill="none" stroke-width="1.0" stroke-linecap="round" stroke-opacity="1.0" stroke="rgb(0, 0, 0)" stroke-linejoin="round" d=" M 189.308, 266.719 189.242, 266.864 192.167, 268.135 192.704, 268.243 192.837, 268.263 " stroke-name="b_2360_p1b2359" stroke-occlusion=" True True True True True " />
            <path fill="none" stroke-width="1.0" stroke-linecap="round" stroke-opacity="1.0" stroke="rgb(0, 0, 0)" stroke-linejoin="round" d=" M 269.850, 152.559 286.637, 160.070 287.082, 160.042 290.111, 152.763 " stroke-name="b_2360_p1b2359" stroke-occlusion=" True True True True " />
            <path fill="none" stroke-width="1.0" stroke-linecap="round" stroke-opacity="1.0" stroke="rgb(0, 0, 0)" stroke-linejoin="round" d=" M 290.111, 152.763 291.402, 150.048 287.077, 148.171 " stroke-name="b_2360_p1b2359" stroke-occlusion=" True True True " />
            <path fill="none" stroke-width="1.0" stroke-linecap="round" stroke-opacity="1.0" stroke="rgb(0, 0, 0)" stroke-linejoin="round" d=" M 221.804, 423.649 221.804, 423.649 223.557, 424.423 223.838, 424.434 231.784, 406.264 " stroke-name="b_2270_p1b2269" stroke-occlusion=" True True True True True " />
            <path fill="none" stroke-width="1.0" stroke-linecap="round" stroke-opacity="1.0" stroke="rgb(0, 0, 0)" stroke-linejoin="round" d=" M 113.392, 440.780 103.275, 463.641 97.460, 476.783 117.494, 485.619 117.556, 485.625 " stroke-name="b_2270_p1b2269" stroke-occlusion=" True True True True True " />
            <path fill="none" stroke-width="1.0" stroke-linecap="round" stroke-opacity="1.0" stroke="rgb(0, 0, 0)" stroke-linejoin="round" d=" M 30.958, 490.792 30.846, 490.741 30.666, 490.809 20.645, 513.713 19.789, 515.670 " stroke-name="b_2270_p1b2269" stroke-occlusion=" True True True True True " />
            <path fill="none" stroke-width="1.0" stroke-linecap="round" stroke-opacity="1.0" stroke="rgb(0, 0, 0)" stroke-linejoin="round" d=" M 231.784, 406.264 232.636, 404.382 246.064, 410.210 " stroke-name="b_2270_p1b2269" stroke-occlusion=" True True True " />
            <path fill="none" stroke-width="1.0" stroke-linecap="round" stroke-opacity="1.0" stroke="rgb(0, 0, 0)" stroke-linejoin="round" d=" M 282.708, 393.454 286.159, 395.037 286.318, 394.971 296.212, 372.050 273.311, 362.021 260.599, 356.453 " stroke-name="b_2270_p1b2269" stroke-occlusion=" True True True True True True " />
            <path fill="none" stroke-width="1.0" stroke-linecap="round" stroke-opacity="1.0" stroke="rgb(0, 0, 0)" stroke-linejoin="round" d=" M 152.944, 473.196 175.854, 483.205 192.388, 490.429 192.543, 490.447 202.614, 467.565 207.521, 456.418 217.498, 433.496 218.679, 430.783 " stroke-name="b_2270_p1b2269" stroke-occlusion=" True True True True True True True True " />
            <path fill="none" stroke-width="1.0" stroke-linecap="round" stroke-opacity="1.0" stroke="rgb(0, 0, 0)" stroke-linejoin="round" d=" M 260.599, 356.453 248.676, 351.186 239.367, 373.153 " stroke-name="b_2270_p1b2269" stroke-occlusion=" True True True " />
            <path fill="none" stroke-width="1.0" stroke-linecap="round" stroke-opacity="1.0" stroke="rgb(0, 0, 0)" stroke-linejoin="round" d=" M 215.589, 364.096 215.206, 364.042 208.375, 379.796 197.362, 374.924 197.357, 374.935 " stroke-name="b_2270_p1b2269" stroke-occlusion=" True True True True True " />
            <path fill="none" stroke-width="1.0" stroke-linecap="round" stroke-opacity="1.0" stroke="rgb(0, 0, 0)" stroke-linejoin="round" d=" M 266.630, 419.247 266.783, 419.264 270.792, 409.892 " stroke-name="b_2270_p1b2269" stroke-occlusion=" True True True " />
            <path fill="none" stroke-width="1.0" stroke-linecap="round" stroke-opacity="1.0" stroke="rgb(0, 0, 0)" stroke-linejoin="round" d=" M 197.574, 360.303 207.700, 337.446 213.665, 323.981 218.388, 313.011 195.556, 302.827 184.706, 297.988 " stroke-name="b_2270_p1b2269" stroke-occlusion=" True True True True True True " />
            <path fill="none" stroke-width="1.0" stroke-linecap="round" stroke-opacity="1.0" stroke="rgb(0, 0, 0)" stroke-linejoin="round" d=" M 31.111, 490.782 30.958, 490.792 " stroke-name="b_2270_p1b2269" stroke-occlusion=" True True " />
            <path fill="none" stroke-width="1.0" stroke-linecap="round" stroke-opacity="1.0" stroke="rgb(0, 0, 0)" stroke-linejoin="round" d=" M 181.384, 300.169 172.214, 305.867 172.457, 305.973 " stroke-name="b_2270_p1b2269" stroke-occlusion=" True True True " />
            <path fill="none" stroke-width="1.0" stroke-linecap="round" stroke-opacity="1.0" stroke="rgb(0, 0, 0)" stroke-linejoin="round" d=" M 172.457, 305.973 162.413, 328.866 152.368, 351.759 142.324, 374.653 132.279, 397.546 122.797, 419.160 113.392, 440.780 " stroke-name="b_2270_p1b2269" stroke-occlusion=" True True True True True True True " />
            <path fill="none" stroke-width="1.0" stroke-linecap="round" stroke-opacity="1.0" stroke="rgb(0, 0, 0)" stroke-linejoin="round" d=" M 35.137, 478.842 34.947, 479.518 35.609, 480.344 36.388, 480.688 36.520, 480.709 " stroke-name="b_2269_p1b2268" stroke-occlusion=" True True True True True " />
            <path fill="none" stroke-width="1.0" stroke-linecap="round" stroke-opacity="1.0" stroke="rgb(0, 0, 0)" stroke-linejoin="round" d=" M 46.808, 454.888 46.558, 454.778 37.315, 475.390 36.853, 475.550 " stroke-name="b_2269_p1b2268" stroke-occlusion=" True True True True " />
            <path fill="none" stroke-width="1.0" stroke-linecap="round" stroke-opacity="1.0" stroke="rgb(0, 0, 0)" stroke-linejoin="round" d=" M 35.954, 475.861 35.827, 475.904 36.242, 476.960 " stroke-name="b_2269_p1b2268" stroke-occlusion=" True True True " />
            <path fill="none" stroke-width="1.0" stroke-linecap="round" stroke-opacity="1.0" stroke="rgb(0, 0, 0)" stroke-linejoin="round" d=" M 49.056, 485.138 49.028, 485.202 50.430, 485.702 " stroke-name="b_2269_p1b2268" stroke-occlusion=" True True True " />
            <path fill="none" stroke-width="1.0" stroke-linecap="round" stroke-opacity="1.0" stroke="rgb(0, 0, 0)" stroke-linejoin="round" d=" M 89.906, 473.978 89.660, 473.824 88.822, 473.471 " stroke-name="b_2269_p1b2268" stroke-occlusion=" True True True " />
            <path fill="none" stroke-width="1.0" stroke-linecap="round" stroke-opacity="1.0" stroke="rgb(0, 0, 0)" stroke-linejoin="round" d=" M 81.043, 377.572 77.348, 385.213 77.609, 385.337 67.486, 408.196 57.363, 431.054 47.239, 453.913 46.808, 454.888 " stroke-name="b_2269_p1b2268" stroke-occlusion=" True True True True True True True " />
            <path fill="none" stroke-width="1.0" stroke-linecap="round" stroke-opacity="1.0" stroke="rgb(0, 0, 0)" stroke-linejoin="round" d=" M 127.250, 273.644 127.037, 273.583 116.802, 296.392 111.746, 307.661 101.708, 330.557 91.670, 353.453 87.088, 363.904 " stroke-name="b_2269_p1b2268" stroke-occlusion=" True True True True True True True " />
            <path fill="none" stroke-width="1.0" stroke-linecap="round" stroke-opacity="1.0" stroke="rgb(0, 0, 0)" stroke-linejoin="round" d=" M 87.088, 363.904 86.956, 363.850 83.704, 371.555 " stroke-name="b_2269_p1b2268" stroke-occlusion=" True True True " />
            <path fill="none" stroke-width="1.0" stroke-linecap="round" stroke-opacity="1.0" stroke="rgb(0, 0, 0)" stroke-linejoin="round" d=" M 72.041, 495.253 84.079, 500.614 84.191, 500.638 84.964, 498.844 " stroke-name="b_2269_p1b2268" stroke-occlusion=" True True True True " />
            <path fill="none" stroke-width="1.0" stroke-linecap="round" stroke-opacity="1.0" stroke="rgb(0, 0, 0)" stroke-linejoin="round" d=" M 35.510, 477.523 35.175, 478.105 35.063, 478.504 35.137, 478.842 " stroke-name="b_2269_p1b2268" stroke-occlusion=" True True True True " />
            <path fill="none" stroke-width="1.0" stroke-linecap="round" stroke-opacity="1.0" stroke="rgb(0, 0, 0)" stroke-linejoin="round" d=" M 35.510, 477.523 35.909, 477.161 36.109, 476.980 " stroke-name="b_2269_p1b2268" stroke-occlusion=" True True True " />
            <path fill="none" stroke-width="1.0" stroke-linecap="round" stroke-opacity="1.0" stroke="rgb(0, 0, 0)" stroke-linejoin="round" d=" M 36.845, 480.719 36.983, 480.761 37.695, 480.751 " stroke-name="b_2269_p1b2268" stroke-occlusion=" True True True " />
            <path fill="none" stroke-width="1.0" stroke-linecap="round" stroke-opacity="1.0" stroke="rgb(0, 0, 0)" stroke-linejoin="round" d=" M 37.695, 480.751 37.913, 481.737 38.425, 481.931 39.134, 481.526 " stroke-name="b_2269_p1b2268" stroke-occlusion=" True True True True " />
            <path fill="none" stroke-width="1.0" stroke-linecap="round" stroke-opacity="1.0" stroke="rgb(0, 0, 0)" stroke-linejoin="round" d=" M 84.964, 498.844 92.829, 481.605 87.667, 479.274 89.906, 473.978 " stroke-name="b_2269_p1b2268" stroke-occlusion=" True True True True " />
            <path fill="none" stroke-width="1.0" stroke-linecap="round" stroke-opacity="1.0" stroke="rgb(0, 0, 0)" stroke-linejoin="round" d=" M 87.303, 472.762 97.429, 449.904 107.555, 427.047 117.681, 404.189 127.807, 381.332 137.933, 358.474 148.058, 335.617 158.184, 312.759 165.200, 296.922 159.431, 294.201 " stroke-name="b_2269_p1b2268" stroke-occlusion=" True True True True True True True True True True " />
            <path fill="none" stroke-width="1.0" stroke-linecap="round" stroke-opacity="1.0" stroke="rgb(0, 0, 0)" stroke-linejoin="round" d=" M 159.431, 294.201 159.431, 294.201 161.789, 288.906 155.203, 285.994 " stroke-name="b_2269_p1b2268" stroke-occlusion=" True True True True " />
            <path fill="none" stroke-width="1.0" stroke-linecap="round" stroke-opacity="1.0" stroke="rgb(0, 0, 0)" stroke-linejoin="round" d=" M 40.271, 481.171 41.810, 481.853 " stroke-name="b_2269_p1b2268" stroke-occlusion=" True True " />
            <path fill="none" stroke-width="1.0" stroke-linecap="round" stroke-opacity="1.0" stroke="rgb(0, 0, 0)" stroke-linejoin="round" d=" M 36.853, 475.550 35.984, 475.730 35.954, 475.861 " stroke-name="b_2269_p1b2268" stroke-occlusion=" True True True " />
            <path fill="none" stroke-width="1.0" stroke-linecap="round" stroke-opacity="1.0" stroke="rgb(0, 0, 0)" stroke-linejoin="round" d=" M 36.242, 476.960 36.109, 476.980 " stroke-name="b_2269_p1b2268" stroke-occlusion=" True True " />
            <path fill="none" stroke-width="1.0" stroke-linecap="round" stroke-opacity="1.0" stroke="rgb(0, 0, 0)" stroke-linejoin="round" d=" M 39.134, 481.526 40.271, 481.171 " stroke-name="b_2269_p1b2268" stroke-occlusion=" True True " />
            <path fill="none" stroke-width="1.0" stroke-linecap="round" stroke-opacity="1.0" stroke="rgb(0, 0, 0)" stroke-linejoin="round" d=" M 41.810, 481.853 49.056, 485.138 " stroke-name="b_2269_p1b2268" stroke-occlusion=" True True " />
            <path fill="none" stroke-width="1.0" stroke-linecap="round" stroke-opacity="1.0" stroke="rgb(0, 0, 0)" stroke-linejoin="round" d=" M 50.430, 485.702 51.229, 486.028 " stroke-name="b_2269_p1b2268" stroke-occlusion=" True True " />
            <path fill="none" stroke-width="1.0" stroke-linecap="round" stroke-opacity="1.0" stroke="rgb(0, 0, 0)" stroke-linejoin="round" d=" M 51.229, 486.028 72.041, 495.253 " stroke-name="b_2269_p1b2268" stroke-occlusion=" True True " />
            <path fill="none" stroke-width="1.0" stroke-linecap="round" stroke-opacity="1.0" stroke="rgb(0, 0, 0)" stroke-linejoin="round" d=" M 83.704, 371.555 81.043, 377.572 " stroke-name="b_2269_p1b2268" stroke-occlusion=" True True " />
            <path fill="none" stroke-width="1.0" stroke-linecap="round" stroke-opacity="1.0" stroke="rgb(0, 0, 0)" stroke-linejoin="round" d=" M 88.822, 473.471 87.303, 472.762 " stroke-name="b_2269_p1b2268" stroke-occlusion=" True True " />
            <path fill="none" stroke-width="1.0" stroke-linecap="round" stroke-opacity="1.0" stroke="rgb(0, 0, 0)" stroke-linejoin="round" d=" M 117.556, 485.625 107.625, 508.568 107.507, 508.842 " stroke-name="b_2270_p1b2269" stroke-occlusion=" True True True " />
            <path fill="none" stroke-width="1.0" stroke-linecap="round" stroke-opacity="1.0" stroke="rgb(0, 0, 0)" stroke-linejoin="round" d=" M 137.961, 473.864 140.565, 467.822 " stroke-name="b_2270_p1b2269" stroke-occlusion=" True True " />
            <path fill="none" stroke-width="1.0" stroke-linecap="round" stroke-opacity="1.0" stroke="rgb(0, 0, 0)" stroke-linejoin="round" d=" M 140.838, 539.023 117.952, 528.961 95.067, 518.900 72.181, 508.838 49.295, 498.777 31.111, 490.782 " stroke-name="b_2270_p1b2269" stroke-occlusion=" True True True True True True " />
            <path fill="none" stroke-width="1.0" stroke-linecap="round" stroke-opacity="1.0" stroke="rgb(0, 0, 0)" stroke-linejoin="round" d=" M 147.603, 478.075 137.961, 473.864 137.961, 473.864 " stroke-name="b_2270_p1b2269" stroke-occlusion=" True True True " />
            <path fill="none" stroke-width="1.0" stroke-linecap="round" stroke-opacity="1.0" stroke="rgb(0, 0, 0)" stroke-linejoin="round" d=" M 188.941, 385.095 187.109, 384.268 " stroke-name="b_2270_p1b2269" stroke-occlusion=" True True " />
            <path fill="none" stroke-width="1.0" stroke-linecap="round" stroke-opacity="1.0" stroke="rgb(0, 0, 0)" stroke-linejoin="round" d=" M 140.565, 467.822 152.944, 473.196 " stroke-name="b_2270_p1b2269" stroke-occlusion=" True True " />
            <path fill="none" stroke-width="1.0" stroke-linecap="round" stroke-opacity="1.0" stroke="rgb(0, 0, 0)" stroke-linejoin="round" d=" M 188.306, 266.269 189.308, 266.719 " stroke-name="b_2360_p1b2359" stroke-occlusion=" True True " />
            <path fill="none" stroke-width="1.0" stroke-linecap="round" stroke-opacity="1.0" stroke="rgb(0, 0, 0)" stroke-linejoin="round" d=" M 197.001, 375.728 192.207, 386.405 " stroke-name="b_2270_p1b2269" stroke-occlusion=" True True " />
            <path fill="none" stroke-width="1.0" stroke-linecap="round" stroke-opacity="1.0" stroke="rgb(0, 0, 0)" stroke-linejoin="round" d=" M 176.442, 163.411 175.640, 165.225 " stroke-name="b_2360_p1b2359" stroke-occlusion=" True True " />
            <path fill="none" stroke-width="1.0" stroke-linecap="round" stroke-opacity="1.0" stroke="rgb(0, 0, 0)" stroke-linejoin="round" d=" M 238.892, 374.203 234.584, 372.332 " stroke-name="b_2270_p1b2269" stroke-occlusion=" True True " />
            <path fill="none" stroke-width="1.0" stroke-linecap="round" stroke-opacity="1.0" stroke="rgb(0, 0, 0)" stroke-linejoin="round" d=" M 287.077, 148.171 271.110, 141.049 " stroke-name="b_2360_p1b2359" stroke-occlusion=" True True " />
            <path fill="none" stroke-width="1.0" stroke-linecap="round" stroke-opacity="1.0" stroke="rgb(0, 0, 0)" stroke-linejoin="round" d=" M 280.301, 307.732 303.161, 317.853 308.556, 320.242 " stroke-name="b_2361_p1b2360" stroke-occlusion=" True True True " />
            <path fill="none" stroke-width="1.0" stroke-linecap="round" stroke-opacity="1.0" stroke="rgb(0, 0, 0)" stroke-linejoin="round" d=" M 332.150, 211.936 330.230, 216.665 " stroke-name="b_2429_p1b2428" stroke-occlusion=" True True " />
            <path fill="none" stroke-width="1.0" stroke-linecap="round" stroke-opacity="1.0" stroke="rgb(0, 0, 0)" stroke-linejoin="round" d=" M 337.817, 199.668 336.757, 201.981 " stroke-name="b_2429_p1b2428" stroke-occlusion=" True True " />
            <path fill="none" stroke-width="1.0" stroke-linecap="round" stroke-opacity="1.0" stroke="rgb(0, 0, 0)" stroke-linejoin="round" d=" M 356.682, 172.202 359.585, 173.513 " stroke-name="b_2429_p1b2428" stroke-occlusion=" True True " />
            <path fill="none" stroke-width="1.0" stroke-linecap="round" stroke-opacity="1.0" stroke="rgb(0, 0, 0)" stroke-linejoin="round" d=" M 354.744, 320.590 351.440, 328.270 " stroke-name="b_2430_p1b2429" stroke-occlusion=" True True " />
            <path fill="none" stroke-width="1.0" stroke-linecap="round" stroke-opacity="1.0" stroke="rgb(0, 0, 0)" stroke-linejoin="round" d=" M 359.927, 146.643 360.524, 145.528 " stroke-name="b_2429_p1b2428" stroke-occlusion=" True True " />
            <path fill="none" stroke-width="1.0" stroke-linecap="round" stroke-opacity="1.0" stroke="rgb(0, 0, 0)" stroke-linejoin="round" d=" M 365.738, 304.173 364.803, 303.806 " stroke-name="b_2430_p1b2429" stroke-occlusion=" True True " />
            <path fill="none" stroke-width="1.0" stroke-linecap="round" stroke-opacity="1.0" stroke="rgb(0, 0, 0)" stroke-linejoin="round" d=" M 367.765, 155.170 358.204, 150.814 " stroke-name="b_2429_p1b2428" stroke-occlusion=" True True " />
            <path fill="none" stroke-width="1.0" stroke-linecap="round" stroke-opacity="1.0" stroke="rgb(0, 0, 0)" stroke-linejoin="round" d=" M 367.769, 147.212 369.252, 147.897 " stroke-name="b_2429_p1b2428" stroke-occlusion=" True True " />
            <path fill="none" stroke-width="1.0" stroke-linecap="round" stroke-opacity="1.0" stroke="rgb(0, 0, 0)" stroke-linejoin="round" d=" M 377.786, 57.057 377.723, 57.032 377.205, 56.833 " stroke-name="b_2429_p1b2428" stroke-occlusion=" True True True " />
            <path fill="none" stroke-width="1.0" stroke-linecap="round" stroke-opacity="1.0" stroke="rgb(0, 0, 0)" stroke-linejoin="round" d=" M 379.046, 130.542 369.091, 126.426 " stroke-name="b_2429_p1b2428" stroke-occlusion=" True True " />
            <path fill="none" stroke-width="1.0" stroke-linecap="round" stroke-opacity="1.0" stroke="rgb(0, 0, 0)" stroke-linejoin="round" d=" M 378.928, 122.461 378.953, 122.471 " stroke-name="b_2429_p1b2428" stroke-occlusion=" True True " />
            <path fill="none" stroke-width="1.0" stroke-linecap="round" stroke-opacity="1.0" stroke="rgb(0, 0, 0)" stroke-linejoin="round" d=" M 382.846, 45.916 377.786, 57.057 " stroke-name="b_2429_p1b2428" stroke-occlusion=" True True " />
            <path fill="none" stroke-width="1.0" stroke-linecap="round" stroke-opacity="1.0" stroke="rgb(0, 0, 0)" stroke-linejoin="round" d=" M 391.085, 102.792 389.610, 105.841 " stroke-name="b_2429_p1b2428" stroke-occlusion=" True True " />
            <path fill="none" stroke-width="1.0" stroke-linecap="round" stroke-opacity="1.0" stroke="rgb(0, 0, 0)" stroke-linejoin="round" d=" M 408.510, 70.779 404.975, 78.665 404.974, 78.668 " stroke-name="b_2429_p1b2428" stroke-occlusion=" True True True " />
            <path fill="none" stroke-width="1.0" stroke-linecap="round" stroke-opacity="1.0" stroke="rgb(0, 0, 0)" stroke-linejoin="round" d=" M 449.750, 160.301 445.576, 158.491 " stroke-name="b_2430_p1b2429" stroke-occlusion=" True True " />
            <path fill="none" stroke-width="1.0" stroke-linecap="round" stroke-opacity="1.0" stroke="rgb(0, 0, 0)" stroke-linejoin="round" d=" M 471.672, 166.576 466.632, 164.279 " stroke-name="b_2430_p1b2429" stroke-occlusion=" True True " />
            <path fill="none" stroke-width="1.0" stroke-linecap="round" stroke-opacity="1.0" stroke="rgb(0, 0, 0)" stroke-linejoin="round" d=" M 470.981, 171.183 471.180, 170.708 " stroke-name="b_2430_p1b2429" stroke-occlusion=" True True " />
            <path fill="none" stroke-width="1.0" stroke-linecap="round" stroke-opacity="1.0" stroke="rgb(0, 0, 0)" stroke-linejoin="round" d=" M 484.876, 173.303 483.321, 176.630 " stroke-name="b_2430_p1b2429" stroke-occlusion=" True True " />
        </g>
    </g>
</svg>
