<?xml version='1.0' encoding='ascii'?>
<svg xmlns="http://www.w3.org/2000/svg" version="1.1" width="512" height="512">
    <g id="ViewLayer_LineSet 2" xmlns:inkscape="http://www.inkscape.org/namespaces/inkscape" inkscape:groupmode="lineset" inkscape:label="ViewLayer_LineSet 2">
        <g xmlns:inkscape="http://www.inkscape.org/namespaces/inkscape" inkscape:groupmode="layer" id="strokes" inkscape:label="strokes">
            <path fill="none" stroke-width="1.0" stroke-linecap="round" stroke-opacity="1.0" stroke="rgb(0, 0, 0)" stroke-linejoin="round" d=" M 155.904, 308.704 155.577, 308.957 158.310, 323.449 182.899, 318.933 207.487, 314.417 213.255, 313.357 213.377, 313.300 210.570, 298.619 185.975, 303.099 161.379, 307.578 155.883, 308.579 155.904, 308.704 " stroke-name="b_2397_p1b2396" stroke-occlusion=" True True True True True True True True True True True True " />
            <path fill="none" stroke-width="1.0" stroke-linecap="round" stroke-opacity="1.0" stroke="rgb(0, 0, 0)" stroke-linejoin="round" d=" M 218.142, 331.226 218.404, 331.177 214.932, 313.613 214.792, 313.603 214.791, 313.603 " stroke-name="b_2396_p1b2395" stroke-occlusion=" True True True True True " />
            <path fill="none" stroke-width="1.0" stroke-linecap="round" stroke-opacity="1.0" stroke="rgb(0, 0, 0)" stroke-linejoin="round" d=" M 177.778, 338.723 182.349, 337.915 184.214, 347.512 185.258, 352.883 " stroke-name="b_2396_p1b2395" stroke-occlusion=" True True True True " />
            <path fill="none" stroke-width="1.0" stroke-linecap="round" stroke-opacity="1.0" stroke="rgb(0, 0, 0)" stroke-linejoin="round" d=" M 188.875, 373.581 213.446, 368.969 224.500, 366.894 224.762, 366.797 223.493, 359.864 " stroke-name="b_2396_p1b2395" stroke-occlusion=" True True True True True " />
            <path fill="none" stroke-width="1.0" stroke-linecap="round" stroke-opacity="1.0" stroke="rgb(0, 0, 0)" stroke-linejoin="round" d=" M 224.533, 359.568 224.603, 359.549 224.599, 359.517 222.257, 346.670 221.112, 346.852 " stroke-name="b_2396_p1b2395" stroke-occlusion=" True True True True True " />
            <path fill="none" stroke-width="1.0" stroke-linecap="round" stroke-opacity="1.0" stroke="rgb(0, 0, 0)" stroke-linejoin="round" d=" M 158.264, 323.909 161.598, 341.547 161.673, 341.735 " stroke-name="b_2396_p1b2395" stroke-occlusion=" True True True " />
            <path fill="none" stroke-width="1.0" stroke-linecap="round" stroke-opacity="1.0" stroke="rgb(0, 0, 0)" stroke-linejoin="round" d=" M 224.247, 359.790 224.533, 359.568 " stroke-name="b_2396_p1b2395" stroke-occlusion=" True True " />
            <path fill="none" stroke-width="1.0" stroke-linecap="round" stroke-opacity="1.0" stroke="rgb(0, 0, 0)" stroke-linejoin="round" d=" M 233.423, 412.809 233.710, 412.606 233.813, 412.381 234.430, 411.510 234.385, 410.555 234.680, 410.077 234.744, 409.815 234.050, 409.412 " stroke-name="b_2396_p1b2395" stroke-occlusion=" True True True True True True True True " />
            <path fill="none" stroke-width="1.0" stroke-linecap="round" stroke-opacity="1.0" stroke="rgb(0, 0, 0)" stroke-linejoin="round" d=" M 225.820, 379.909 225.343, 376.352 216.205, 378.020 207.094, 379.771 196.530, 381.699 196.291, 381.848 197.076, 385.635 " stroke-name="b_2396_p1b2395" stroke-occlusion=" True True True True True True True " />
            <path fill="none" stroke-width="1.0" stroke-linecap="round" stroke-opacity="1.0" stroke="rgb(0, 0, 0)" stroke-linejoin="round" d=" M 229.295, 389.249 229.257, 386.699 229.913, 385.865 229.937, 385.566 229.575, 383.506 229.536, 383.468 228.392, 382.766 226.455, 383.089 " stroke-name="b_2396_p1b2395" stroke-occlusion=" True True True True True True True True " />
            <path fill="none" stroke-width="1.0" stroke-linecap="round" stroke-opacity="1.0" stroke="rgb(0, 0, 0)" stroke-linejoin="round" d=" M 232.286, 399.210 232.607, 398.936 232.206, 396.838 230.671, 396.235 " stroke-name="b_2396_p1b2395" stroke-occlusion=" True True True True " />
            <path fill="none" stroke-width="1.0" stroke-linecap="round" stroke-opacity="1.0" stroke="rgb(0, 0, 0)" stroke-linejoin="round" d=" M 233.958, 409.341 232.776, 408.019 233.746, 405.490 233.409, 403.130 231.809, 402.782 " stroke-name="b_2396_p1b2395" stroke-occlusion=" True True True True True " />
            <path fill="none" stroke-width="1.0" stroke-linecap="round" stroke-opacity="1.0" stroke="rgb(0, 0, 0)" stroke-linejoin="round" d=" M 222.102, 413.572 223.178, 415.002 226.246, 414.665 226.384, 414.592 " stroke-name="b_2396_p1b2395" stroke-occlusion=" True True True True " />
            <path fill="none" stroke-width="1.0" stroke-linecap="round" stroke-opacity="1.0" stroke="rgb(0, 0, 0)" stroke-linejoin="round" d=" M 171.076, 393.815 170.939, 393.887 173.664, 408.741 " stroke-name="b_2396_p1b2395" stroke-occlusion=" True True True " />
            <path fill="none" stroke-width="1.0" stroke-linecap="round" stroke-opacity="1.0" stroke="rgb(0, 0, 0)" stroke-linejoin="round" d=" M 231.809, 402.782 231.344, 400.060 232.294, 399.248 " stroke-name="b_2396_p1b2395" stroke-occlusion=" True True True " />
            <path fill="none" stroke-width="1.0" stroke-linecap="round" stroke-opacity="1.0" stroke="rgb(0, 0, 0)" stroke-linejoin="round" d=" M 230.631, 396.002 230.592, 393.384 231.209, 392.513 230.871, 390.154 229.367, 389.563 " stroke-name="b_2396_p1b2395" stroke-occlusion=" True True True True True " />
            <path fill="none" stroke-width="1.0" stroke-linecap="round" stroke-opacity="1.0" stroke="rgb(0, 0, 0)" stroke-linejoin="round" d=" M 232.026, 413.348 232.316, 413.336 233.260, 412.990 233.397, 412.917 " stroke-name="b_2396_p1b2395" stroke-occlusion=" True True True True " />
            <path fill="none" stroke-width="1.0" stroke-linecap="round" stroke-opacity="1.0" stroke="rgb(0, 0, 0)" stroke-linejoin="round" d=" M 193.456, 418.582 204.613, 416.613 204.605, 416.546 204.418, 415.563 " stroke-name="b_2396_p1b2395" stroke-occlusion=" True True True True " />
            <path fill="none" stroke-width="1.0" stroke-linecap="round" stroke-opacity="1.0" stroke="rgb(0, 0, 0)" stroke-linejoin="round" d=" M 68.559, 173.307 67.251, 166.608 66.879, 164.701 62.387, 139.991 62.199, 139.927 37.624, 144.517 28.439, 146.232 " stroke-name="b_2361_p1b2360" stroke-occlusion=" True True True True True True True " />
            <path fill="none" stroke-width="1.0" stroke-linecap="round" stroke-opacity="1.0" stroke="rgb(0, 0, 0)" stroke-linejoin="round" d=" M -5.741, 206.963 18.847, 202.445 43.435, 197.927 68.024, 193.409 71.753, 192.724 71.890, 192.652 " stroke-name="b_2361_p1b2360" stroke-occlusion=" True True True True True True " />
            <path fill="none" stroke-width="1.0" stroke-linecap="round" stroke-opacity="1.0" stroke="rgb(0, 0, 0)" stroke-linejoin="round" d=" M 70.039, 181.348 75.685, 180.515 75.822, 180.443 75.624, 177.825 " stroke-name="b_2361_p1b2360" stroke-occlusion=" True True True True " />
            <path fill="none" stroke-width="1.0" stroke-linecap="round" stroke-opacity="1.0" stroke="rgb(0, 0, 0)" stroke-linejoin="round" d=" M 71.860, 192.657 71.887, 192.640 71.888, 192.640 71.991, 192.575 70.039, 181.348 " stroke-name="b_2361_p1b2360" stroke-occlusion=" True True True True True " />
            <path fill="none" stroke-width="1.0" stroke-linecap="round" stroke-opacity="1.0" stroke="rgb(0, 0, 0)" stroke-linejoin="round" d=" M 75.624, 177.825 75.647, 173.210 69.833, 173.294 68.560, 173.313 " stroke-name="b_2361_p1b2360" stroke-occlusion=" True True True True " />
            <path fill="none" stroke-width="1.0" stroke-linecap="round" stroke-opacity="1.0" stroke="rgb(0, 0, 0)" stroke-linejoin="round" d=" M 204.035, 252.486 199.635, 227.876 197.464, 215.731 196.156, 209.132 195.579, 206.930 " stroke-name="b_2360_p1b2359" stroke-occlusion=" True True True True True " />
            <path fill="none" stroke-width="1.0" stroke-linecap="round" stroke-opacity="1.0" stroke="rgb(0, 0, 0)" stroke-linejoin="round" d=" M 195.220, 204.979 195.500, 204.931 191.029, 182.138 " stroke-name="b_2360_p1b2359" stroke-occlusion=" True True True " />
            <path fill="none" stroke-width="1.0" stroke-linecap="round" stroke-opacity="1.0" stroke="rgb(0, 0, 0)" stroke-linejoin="round" d=" M 144.978, 251.056 125.793, 254.562 125.527, 254.626 128.001, 267.866 124.529, 268.530 " stroke-name="b_2360_p1b2359" stroke-occlusion=" True True True True True " />
            <path fill="none" stroke-width="1.0" stroke-linecap="round" stroke-opacity="1.0" stroke="rgb(0, 0, 0)" stroke-linejoin="round" d=" M 141.205, 276.715 165.805, 272.261 190.405, 267.808 206.261, 264.937 206.500, 264.787 204.035, 252.486 " stroke-name="b_2360_p1b2359" stroke-occlusion=" True True True True True True " />
            <path fill="none" stroke-width="1.0" stroke-linecap="round" stroke-opacity="1.0" stroke="rgb(0, 0, 0)" stroke-linejoin="round" d=" M 129.974, 278.748 129.977, 278.766 141.205, 276.715 " stroke-name="b_2360_p1b2359" stroke-occlusion=" True True True " />
            <path fill="none" stroke-width="1.0" stroke-linecap="round" stroke-opacity="1.0" stroke="rgb(0, 0, 0)" stroke-linejoin="round" d=" M 191.029, 182.138 191.312, 182.078 186.912, 157.468 184.922, 146.339 180.433, 121.746 179.690, 117.673 155.760, 122.152 156.035, 123.389 " stroke-name="b_2360_p1b2359" stroke-occlusion=" True True True True True True True True " />
            <path fill="none" stroke-width="1.0" stroke-linecap="round" stroke-opacity="1.0" stroke="rgb(0, 0, 0)" stroke-linejoin="round" d=" M 126.737, 128.836 126.710, 128.678 123.577, 129.277 123.072, 129.490 122.952, 129.549 " stroke-name="b_2360_p1b2359" stroke-occlusion=" True True True True True " />
            <path fill="none" stroke-width="1.0" stroke-linecap="round" stroke-opacity="1.0" stroke="rgb(0, 0, 0)" stroke-linejoin="round" d=" M 124.529, 268.530 106.428, 271.785 106.076, 272.059 107.676, 279.779 " stroke-name="b_2360_p1b2359" stroke-occlusion=" True True True True " />
            <path fill="none" stroke-width="1.0" stroke-linecap="round" stroke-opacity="1.0" stroke="rgb(0, 0, 0)" stroke-linejoin="round" d=" M 107.676, 279.779 108.139, 282.749 112.766, 281.864 " stroke-name="b_2360_p1b2359" stroke-occlusion=" True True True " />
            <path fill="none" stroke-width="1.0" stroke-linecap="round" stroke-opacity="1.0" stroke="rgb(0, 0, 0)" stroke-linejoin="round" d=" M 248.423, 298.219 242.556, 299.341 247.171, 323.912 248.334, 330.099 248.192, 330.138 252.133, 350.455 252.181, 350.560 260.207, 349.192 258.428, 337.573 265.573, 336.291 265.710, 336.218 " stroke-name="b_2359_p1b2358" stroke-occlusion=" True True True True True True True True True True True " />
            <path fill="none" stroke-width="1.0" stroke-linecap="round" stroke-opacity="1.0" stroke="rgb(0, 0, 0)" stroke-linejoin="round" d=" M 266.490, 331.933 271.279, 307.396 273.916, 293.886 271.605, 268.993 270.906, 261.468 268.656, 236.570 266.999, 218.230 266.686, 218.208 " stroke-name="b_2359_p1b2358" stroke-occlusion=" True True True True True True True True " />
            <path fill="none" stroke-width="1.0" stroke-linecap="round" stroke-opacity="1.0" stroke="rgb(0, 0, 0)" stroke-linejoin="round" d=" M 242.296, 222.517 229.344, 224.765 229.280, 224.862 " stroke-name="b_2359_p1b2358" stroke-occlusion=" True True True " />
            <path fill="none" stroke-width="1.0" stroke-linecap="round" stroke-opacity="1.0" stroke="rgb(0, 0, 0)" stroke-linejoin="round" d=" M 228.960, 224.920 233.450, 249.513 234.545, 255.513 " stroke-name="b_2359_p1b2358" stroke-occlusion=" True True True " />
            <path fill="none" stroke-width="1.0" stroke-linecap="round" stroke-opacity="1.0" stroke="rgb(0, 0, 0)" stroke-linejoin="round" d=" M 234.545, 255.513 236.578, 267.534 236.742, 267.548 237.954, 267.316 " stroke-name="b_2359_p1b2358" stroke-occlusion=" True True True True " />
            <path fill="none" stroke-width="1.0" stroke-linecap="round" stroke-opacity="1.0" stroke="rgb(0, 0, 0)" stroke-linejoin="round" d=" M 415.497, 290.445 415.786, 290.433 440.341, 285.736 442.410, 285.341 442.649, 285.192 438.067, 260.615 434.128, 239.491 434.168, 239.177 429.681, 214.583 425.195, 189.989 422.803, 176.876 421.534, 177.232 " stroke-name="b_2301_p1b2300" stroke-occlusion=" True True True True True True True True True True True True " />
            <path fill="none" stroke-width="1.0" stroke-linecap="round" stroke-opacity="1.0" stroke="rgb(0, 0, 0)" stroke-linejoin="round" d=" M 409.662, 178.143 409.451, 178.177 409.040, 178.247 410.487, 187.042 385.914, 191.953 388.323, 199.925 " stroke-name="b_2301_p1b2300" stroke-occlusion=" True True True True True True " />
            <path fill="none" stroke-width="1.0" stroke-linecap="round" stroke-opacity="1.0" stroke="rgb(0, 0, 0)" stroke-linejoin="round" d=" M 421.422, 177.254 421.231, 176.258 420.967, 176.301 " stroke-name="b_2301_p1b2300" stroke-occlusion=" True True True " />
            <path fill="none" stroke-width="1.0" stroke-linecap="round" stroke-opacity="1.0" stroke="rgb(0, 0, 0)" stroke-linejoin="round" d=" M 420.958, 176.256 409.662, 178.143 " stroke-name="b_2301_p1b2300" stroke-occlusion=" True True " />
            <path fill="none" stroke-width="1.0" stroke-linecap="round" stroke-opacity="1.0" stroke="rgb(0, 0, 0)" stroke-linejoin="round" d=" M 485.013, 154.657 485.018, 154.656 485.129, 154.634 484.304, 146.927 " stroke-name="b_2233_p1b2232" stroke-occlusion=" True True True True " />
            <path fill="none" stroke-width="1.0" stroke-linecap="round" stroke-opacity="1.0" stroke="rgb(0, 0, 0)" stroke-linejoin="round" d=" M 489.370, 136.923 488.991, 134.118 488.230, 130.135 " stroke-name="b_2233_p1b2232" stroke-occlusion=" True True True " />
            <path fill="none" stroke-width="1.0" stroke-linecap="round" stroke-opacity="1.0" stroke="rgb(0, 0, 0)" stroke-linejoin="round" d=" M 453.061, 109.305 453.034, 109.169 442.391, 111.130 " stroke-name="b_2233_p1b2232" stroke-occlusion=" True True True " />
            <path fill="none" stroke-width="1.0" stroke-linecap="round" stroke-opacity="1.0" stroke="rgb(0, 0, 0)" stroke-linejoin="round" d=" M 458.924, 142.328 459.149, 142.287 456.943, 129.054 " stroke-name="b_2233_p1b2232" stroke-occlusion=" True True True " />
            <path fill="none" stroke-width="1.0" stroke-linecap="round" stroke-opacity="1.0" stroke="rgb(0, 0, 0)" stroke-linejoin="round" d=" M 506.039, 142.852 506.041, 142.851 506.042, 142.851 506.168, 142.839 505.055, 134.103 503.923, 134.310 " stroke-name="b_2233_p1b2232" stroke-occlusion=" True True True True True True " />
            <path fill="none" stroke-width="1.0" stroke-linecap="round" stroke-opacity="1.0" stroke="rgb(0, 0, 0)" stroke-linejoin="round" d=" M 508.114, 159.102 507.405, 159.170 505.875, 150.970 504.709, 151.120 " stroke-name="b_2233_p1b2232" stroke-occlusion=" True True True True " />
            <path fill="none" stroke-width="1.0" stroke-linecap="round" stroke-opacity="1.0" stroke="rgb(0, 0, 0)" stroke-linejoin="round" d=" M 468.536, 99.278 468.398, 99.350 468.402, 99.384 468.703, 100.835 " stroke-name="b_2233_p1b2232" stroke-occlusion=" True True True True " />
            <path fill="none" stroke-width="1.0" stroke-linecap="round" stroke-opacity="1.0" stroke="rgb(0, 0, 0)" stroke-linejoin="round" d=" M 453.248, 90.749 453.538, 90.736 456.192, 90.254 " stroke-name="b_2233_p1b2232" stroke-occlusion=" True True True " />
            <path fill="none" stroke-width="1.0" stroke-linecap="round" stroke-opacity="1.0" stroke="rgb(0, 0, 0)" stroke-linejoin="round" d=" M 512.295, 180.058 508.423, 159.012 508.114, 159.102 " stroke-name="b_2233_p1b2232" stroke-occlusion=" True True True " />
            <path fill="none" stroke-width="1.0" stroke-linecap="round" stroke-opacity="1.0" stroke="rgb(0, 0, 0)" stroke-linejoin="round" d=" M 493.306, 90.039 495.740, 89.660 491.417, 65.037 490.754, 61.262 476.769, 63.801 480.946, 88.449 481.560, 92.067 493.306, 90.039 " stroke-name="b_2233_p1b2232" stroke-occlusion=" True True True True True True True True " />
            <path fill="none" stroke-width="1.0" stroke-linecap="round" stroke-opacity="1.0" stroke="rgb(0, 0, 0)" stroke-linejoin="round" d=" M 475.227, 130.614 476.924, 139.200 472.908, 140.027 " stroke-name="b_2233_p1b2232" stroke-occlusion=" True True True " />
            <path fill="none" stroke-width="1.0" stroke-linecap="round" stroke-opacity="1.0" stroke="rgb(0, 0, 0)" stroke-linejoin="round" d=" M 472.908, 140.027 455.793, 143.367 454.195, 143.678 454.194, 143.679 454.176, 143.682 454.734, 146.755 " stroke-name="b_2233_p1b2232" stroke-occlusion=" True True True True True True " />
            <path fill="none" stroke-width="1.0" stroke-linecap="round" stroke-opacity="1.0" stroke="rgb(0, 0, 0)" stroke-linejoin="round" d=" M 490.692, 149.858 490.741, 150.153 491.046, 150.127 492.719, 149.761 " stroke-name="b_2233_p1b2232" stroke-occlusion=" True True True True " />
            <path fill="none" stroke-width="1.0" stroke-linecap="round" stroke-opacity="1.0" stroke="rgb(0, 0, 0)" stroke-linejoin="round" d=" M 454.608, 185.123 455.551, 190.665 455.706, 190.636 " stroke-name="b_2233_p1b2232" stroke-occlusion=" True True True " />
            <path fill="none" stroke-width="1.0" stroke-linecap="round" stroke-opacity="1.0" stroke="rgb(0, 0, 0)" stroke-linejoin="round" d=" M 459.426, 128.591 461.416, 139.489 461.685, 139.459 473.259, 137.308 473.397, 137.236 " stroke-name="b_2233_p1b2232" stroke-occlusion=" True True True True True " />
            <path fill="none" stroke-width="1.0" stroke-linecap="round" stroke-opacity="1.0" stroke="rgb(0, 0, 0)" stroke-linejoin="round" d=" M 471.034, 87.762 469.382, 77.002 451.791, 80.120 451.670, 80.177 " stroke-name="b_2233_p1b2232" stroke-occlusion=" True True True True " />
            <path fill="none" stroke-width="1.0" stroke-linecap="round" stroke-opacity="1.0" stroke="rgb(0, 0, 0)" stroke-linejoin="round" d=" M 493.414, 153.520 487.962, 154.480 487.414, 154.623 489.007, 162.561 481.756, 163.904 " stroke-name="b_2233_p1b2232" stroke-occlusion=" True True True True True " />
            <path fill="none" stroke-width="1.0" stroke-linecap="round" stroke-opacity="1.0" stroke="rgb(0, 0, 0)" stroke-linejoin="round" d=" M 511.848, 180.475 512.201, 180.202 " stroke-name="b_2233_p1b2232" stroke-occlusion=" True True " />
            <path fill="none" stroke-width="1.0" stroke-linecap="round" stroke-opacity="1.0" stroke="rgb(0, 0, 0)" stroke-linejoin="round" d=" M 458.502, 168.228 451.911, 169.404 451.558, 169.677 454.608, 185.123 " stroke-name="b_2233_p1b2232" stroke-occlusion=" True True True True " />
            <path fill="none" stroke-width="1.0" stroke-linecap="round" stroke-opacity="1.0" stroke="rgb(0, 0, 0)" stroke-linejoin="round" d=" M 499.227, 109.042 496.589, 93.959 496.299, 93.971 " stroke-name="b_2233_p1b2232" stroke-occlusion=" True True True " />
            <path fill="none" stroke-width="1.0" stroke-linecap="round" stroke-opacity="1.0" stroke="rgb(0, 0, 0)" stroke-linejoin="round" d=" M 442.391, 111.130 440.921, 111.382 445.460, 135.966 447.036, 144.498 447.110, 144.688 " stroke-name="b_2233_p1b2232" stroke-occlusion=" True True True True True " />
            <path fill="none" stroke-width="1.0" stroke-linecap="round" stroke-opacity="1.0" stroke="rgb(0, 0, 0)" stroke-linejoin="round" d=" M 28.439, 146.232 3.851, 150.751 -1.932, 151.815 " stroke-name="b_2361_p1b2360" stroke-occlusion=" True True True " />
            <path fill="none" stroke-width="1.0" stroke-linecap="round" stroke-opacity="1.0" stroke="rgb(0, 0, 0)" stroke-linejoin="round" d=" M 127.833, 128.640 126.737, 128.836 " stroke-name="b_2360_p1b2359" stroke-occlusion=" True True " />
            <path fill="none" stroke-width="1.0" stroke-linecap="round" stroke-opacity="1.0" stroke="rgb(0, 0, 0)" stroke-linejoin="round" d=" M 197.614, 388.849 179.310, 392.306 " stroke-name="b_2396_p1b2395" stroke-occlusion=" True True " />
            <path fill="none" stroke-width="1.0" stroke-linecap="round" stroke-opacity="1.0" stroke="rgb(0, 0, 0)" stroke-linejoin="round" d=" M 189.364, 419.330 193.456, 418.582 " stroke-name="b_2396_p1b2395" stroke-occlusion=" True True " />
            <path fill="none" stroke-width="1.0" stroke-linecap="round" stroke-opacity="1.0" stroke="rgb(0, 0, 0)" stroke-linejoin="round" d=" M 112.766, 281.864 129.974, 278.748 " stroke-name="b_2360_p1b2359" stroke-occlusion=" True True " />
            <path fill="none" stroke-width="1.0" stroke-linecap="round" stroke-opacity="1.0" stroke="rgb(0, 0, 0)" stroke-linejoin="round" d=" M 195.579, 206.930 195.220, 204.979 " stroke-name="b_2360_p1b2359" stroke-occlusion=" True True " />
            <path fill="none" stroke-width="1.0" stroke-linecap="round" stroke-opacity="1.0" stroke="rgb(0, 0, 0)" stroke-linejoin="round" d=" M 221.112, 346.852 218.142, 331.226 " stroke-name="b_2396_p1b2395" stroke-occlusion=" True True " />
            <path fill="none" stroke-width="1.0" stroke-linecap="round" stroke-opacity="1.0" stroke="rgb(0, 0, 0)" stroke-linejoin="round" d=" M 221.846, 412.391 222.038, 412.962 " stroke-name="b_2396_p1b2395" stroke-occlusion=" True True " />
            <path fill="none" stroke-width="1.0" stroke-linecap="round" stroke-opacity="1.0" stroke="rgb(0, 0, 0)" stroke-linejoin="round" d=" M 204.418, 415.563 221.846, 412.391 " stroke-name="b_2396_p1b2395" stroke-occlusion=" True True " />
            <path fill="none" stroke-width="1.0" stroke-linecap="round" stroke-opacity="1.0" stroke="rgb(0, 0, 0)" stroke-linejoin="round" d=" M 223.493, 359.864 223.504, 359.861 223.838, 359.756 " stroke-name="b_2396_p1b2395" stroke-occlusion=" True True True " />
            <path fill="none" stroke-width="1.0" stroke-linecap="round" stroke-opacity="1.0" stroke="rgb(0, 0, 0)" stroke-linejoin="round" d=" M 226.362, 414.122 226.593, 413.036 " stroke-name="b_2396_p1b2395" stroke-occlusion=" True True " />
            <path fill="none" stroke-width="1.0" stroke-linecap="round" stroke-opacity="1.0" stroke="rgb(0, 0, 0)" stroke-linejoin="round" d=" M 230.671, 396.235 230.631, 396.002 " stroke-name="b_2396_p1b2395" stroke-occlusion=" True True " />
            <path fill="none" stroke-width="1.0" stroke-linecap="round" stroke-opacity="1.0" stroke="rgb(0, 0, 0)" stroke-linejoin="round" d=" M 234.050, 409.412 233.958, 409.341 " stroke-name="b_2396_p1b2395" stroke-occlusion=" True True " />
            <path fill="none" stroke-width="1.0" stroke-linecap="round" stroke-opacity="1.0" stroke="rgb(0, 0, 0)" stroke-linejoin="round" d=" M 455.706, 190.636 455.763, 190.781 " stroke-name="b_2233_p1b2232" stroke-occlusion=" True True " />
            <path fill="none" stroke-width="1.0" stroke-linecap="round" stroke-opacity="1.0" stroke="rgb(0, 0, 0)" stroke-linejoin="round" d=" M 459.298, 128.603 459.426, 128.591 459.427, 128.591 " stroke-name="b_2233_p1b2232" stroke-occlusion=" True True True " />
            <path fill="none" stroke-width="1.0" stroke-linecap="round" stroke-opacity="1.0" stroke="rgb(0, 0, 0)" stroke-linejoin="round" d=" M 456.943, 129.054 459.298, 128.603 " stroke-name="b_2233_p1b2232" stroke-occlusion=" True True " />
            <path fill="none" stroke-width="1.0" stroke-linecap="round" stroke-opacity="1.0" stroke="rgb(0, 0, 0)" stroke-linejoin="round" d=" M 469.312, 106.524 453.061, 109.305 " stroke-name="b_2233_p1b2232" stroke-occlusion=" True True " />
            <path fill="none" stroke-width="1.0" stroke-linecap="round" stroke-opacity="1.0" stroke="rgb(0, 0, 0)" stroke-linejoin="round" d=" M 473.179, 136.200 472.357, 131.163 " stroke-name="b_2233_p1b2232" stroke-occlusion=" True True " />
            <path fill="none" stroke-width="1.0" stroke-linecap="round" stroke-opacity="1.0" stroke="rgb(0, 0, 0)" stroke-linejoin="round" d=" M 481.510, 162.738 480.204, 155.580 " stroke-name="b_2233_p1b2232" stroke-occlusion=" True True " />
            <path fill="none" stroke-width="1.0" stroke-linecap="round" stroke-opacity="1.0" stroke="rgb(0, 0, 0)" stroke-linejoin="round" d=" M 481.757, 163.910 481.756, 163.904 481.510, 162.738 " stroke-name="b_2233_p1b2232" stroke-occlusion=" True True True " />
            <path fill="none" stroke-width="1.0" stroke-linecap="round" stroke-opacity="1.0" stroke="rgb(0, 0, 0)" stroke-linejoin="round" d=" M 480.204, 155.580 482.150, 155.206 " stroke-name="b_2233_p1b2232" stroke-occlusion=" True True " />
            <path fill="none" stroke-width="1.0" stroke-linecap="round" stroke-opacity="1.0" stroke="rgb(0, 0, 0)" stroke-linejoin="round" d=" M 484.304, 146.927 489.761, 145.816 " stroke-name="b_2233_p1b2232" stroke-occlusion=" True True " />
            <path fill="none" stroke-width="1.0" stroke-linecap="round" stroke-opacity="1.0" stroke="rgb(0, 0, 0)" stroke-linejoin="round" d=" M 488.230, 130.135 490.544, 129.729 490.548, 129.728 " stroke-name="b_2233_p1b2232" stroke-occlusion=" True True True " />
            <path fill="none" stroke-width="1.0" stroke-linecap="round" stroke-opacity="1.0" stroke="rgb(0, 0, 0)" stroke-linejoin="round" d=" M 490.544, 129.729 491.798, 136.473 " stroke-name="b_2233_p1b2232" stroke-occlusion=" True True " />
            <path fill="none" stroke-width="1.0" stroke-linecap="round" stroke-opacity="1.0" stroke="rgb(0, 0, 0)" stroke-linejoin="round" d=" M 491.798, 136.473 489.370, 136.923 " stroke-name="b_2233_p1b2232" stroke-occlusion=" True True " />
            <path fill="none" stroke-width="1.0" stroke-linecap="round" stroke-opacity="1.0" stroke="rgb(0, 0, 0)" stroke-linejoin="round" d=" M 492.719, 149.761 492.719, 149.761 492.880, 150.493 " stroke-name="b_2233_p1b2232" stroke-occlusion=" True True True " />
            <path fill="none" stroke-width="1.0" stroke-linecap="round" stroke-opacity="1.0" stroke="rgb(0, 0, 0)" stroke-linejoin="round" d=" M 503.923, 134.310 499.355, 109.730 499.227, 109.042 " stroke-name="b_2233_p1b2232" stroke-occlusion=" True True True " />
            <path fill="none" stroke-width="1.0" stroke-linecap="round" stroke-opacity="1.0" stroke="rgb(0, 0, 0)" stroke-linejoin="round" d=" M 504.709, 151.120 503.556, 143.295 " stroke-name="b_2233_p1b2232" stroke-occlusion=" True True " />
            <path fill="none" stroke-width="1.0" stroke-linecap="round" stroke-opacity="1.0" stroke="rgb(0, 0, 0)" stroke-linejoin="round" d=" M 503.556, 143.295 503.830, 143.224 " stroke-name="b_2233_p1b2232" stroke-occlusion=" True True " />
        </g>
    </g>
</svg>
