<?xml version='1.0' encoding='ascii'?>
<svg xmlns="http://www.w3.org/2000/svg" version="1.1" width="512" height="512">
    <g id="ViewLayer_LineSet 2" xmlns:inkscape="http://www.inkscape.org/namespaces/inkscape" inkscape:groupmode="lineset" inkscape:label="ViewLayer_LineSet 2">
        <g xmlns:inkscape="http://www.inkscape.org/namespaces/inkscape" inkscape:groupmode="layer" id="strokes" inkscape:label="strokes">
            <path fill="none" stroke-width="1.0" stroke-linecap="round" stroke-opacity="1.0" stroke="rgb(0, 0, 0)" stroke-linejoin="round" d=" M 219.413, 439.623 219.413, 439.623 219.565, 439.774 219.715, 439.909 232.824, 429.872 233.243, 429.520 231.126, 426.830 " stroke-name="b_2430_p1b2429" stroke-occlusion=" True True True True True True True " />
            <path fill="none" stroke-width="1.0" stroke-linecap="round" stroke-opacity="1.0" stroke="rgb(0, 0, 0)" stroke-linejoin="round" d=" M 202.936, 452.182 203.129, 451.779 202.633, 451.143 " stroke-name="b_2430_p1b2429" stroke-occlusion=" True True True " />
            <path fill="none" stroke-width="1.0" stroke-linecap="round" stroke-opacity="1.0" stroke="rgb(0, 0, 0)" stroke-linejoin="round" d=" M 178.922, 468.348 179.655, 469.368 179.725, 469.414 179.875, 469.550 " stroke-name="b_2430_p1b2429" stroke-occlusion=" True True True True " />
            <path fill="none" stroke-width="1.0" stroke-linecap="round" stroke-opacity="1.0" stroke="rgb(0, 0, 0)" stroke-linejoin="round" d=" M 243.041, 421.991 243.155, 421.757 239.920, 417.512 244.573, 413.997 244.992, 413.645 237.775, 404.027 " stroke-name="b_2430_p1b2429" stroke-occlusion=" True True True True True True " />
            <path fill="none" stroke-width="1.0" stroke-linecap="round" stroke-opacity="1.0" stroke="rgb(0, 0, 0)" stroke-linejoin="round" d=" M 181.739, 422.750 199.347, 409.635 203.140, 414.430 203.141, 414.431 203.145, 414.436 " stroke-name="b_2430_p1b2429" stroke-occlusion=" True True True True True " />
            <path fill="none" stroke-width="1.0" stroke-linecap="round" stroke-opacity="1.0" stroke="rgb(0, 0, 0)" stroke-linejoin="round" d=" M 237.775, 404.027 238.430, 403.397 238.957, 402.947 223.890, 382.998 208.822, 363.048 193.755, 343.099 178.687, 323.150 163.619, 303.201 149.111, 283.992 147.842, 284.959 146.564, 283.281 " stroke-name="b_2430_p1b2429" stroke-occlusion=" True True True True True True True True True True True " />
            <path fill="none" stroke-width="1.0" stroke-linecap="round" stroke-opacity="1.0" stroke="rgb(0, 0, 0)" stroke-linejoin="round" d=" M 132.427, 259.024 132.371, 258.952 130.102, 258.513 126.453, 253.449 123.166, 255.850 121.215, 252.480 101.254, 267.531 81.292, 282.582 61.331, 297.633 58.438, 299.814 58.221, 300.068 58.220, 300.068 " stroke-name="b_2430_p1b2429" stroke-occlusion=" True True True True True True True True True True True True " />
            <path fill="none" stroke-width="1.0" stroke-linecap="round" stroke-opacity="1.0" stroke="rgb(0, 0, 0)" stroke-linejoin="round" d=" M 58.172, 300.105 58.081, 300.231 60.316, 303.071 58.016, 304.902 " stroke-name="b_2430_p1b2429" stroke-occlusion=" True True True True " />
            <path fill="none" stroke-width="1.0" stroke-linecap="round" stroke-opacity="1.0" stroke="rgb(0, 0, 0)" stroke-linejoin="round" d=" M 147.723, 282.352 148.150, 281.979 148.100, 281.764 145.512, 278.368 145.890, 276.473 145.840, 276.259 137.599, 265.670 " stroke-name="b_2430_p1b2429" stroke-occlusion=" True True True True True True True " />
            <path fill="none" stroke-width="1.0" stroke-linecap="round" stroke-opacity="1.0" stroke="rgb(0, 0, 0)" stroke-linejoin="round" d=" M 58.016, 304.902 57.445, 305.319 57.262, 305.503 57.797, 306.219 " stroke-name="b_2430_p1b2429" stroke-occlusion=" True True True True " />
            <path fill="none" stroke-width="1.0" stroke-linecap="round" stroke-opacity="1.0" stroke="rgb(0, 0, 0)" stroke-linejoin="round" d=" M 213.772, 443.718 214.023, 443.580 " stroke-name="b_2430_p1b2429" stroke-occlusion=" True True " />
            <path fill="none" stroke-width="1.0" stroke-linecap="round" stroke-opacity="1.0" stroke="rgb(0, 0, 0)" stroke-linejoin="round" d=" M 69.191, 324.312 72.474, 328.814 74.976, 329.283 78.565, 334.085 78.716, 334.221 80.127, 333.411 81.229, 334.888 " stroke-name="b_2430_p1b2429" stroke-occlusion=" True True True True True True True " />
            <path fill="none" stroke-width="1.0" stroke-linecap="round" stroke-opacity="1.0" stroke="rgb(0, 0, 0)" stroke-linejoin="round" d=" M 236.719, 426.846 242.969, 422.140 243.059, 422.013 " stroke-name="b_2430_p1b2429" stroke-occlusion=" True True True " />
            <path fill="none" stroke-width="1.0" stroke-linecap="round" stroke-opacity="1.0" stroke="rgb(0, 0, 0)" stroke-linejoin="round" d=" M 81.234, 334.884 81.229, 334.888 79.525, 336.098 79.342, 336.282 94.393, 356.243 109.445, 376.205 124.496, 396.166 139.547, 416.128 154.598, 436.089 169.649, 456.051 178.922, 468.348 " stroke-name="b_2430_p1b2429" stroke-occlusion=" True True True True True True True True True True True " />
            <path fill="none" stroke-width="1.0" stroke-linecap="round" stroke-opacity="1.0" stroke="rgb(0, 0, 0)" stroke-linejoin="round" d=" M 214.023, 443.580 214.044, 443.607 214.949, 442.900 " stroke-name="b_2430_p1b2429" stroke-occlusion=" True True True " />
            <path fill="none" stroke-width="1.0" stroke-linecap="round" stroke-opacity="1.0" stroke="rgb(0, 0, 0)" stroke-linejoin="round" d=" M 203.145, 414.436 202.674, 414.782 200.064, 416.696 185.306, 427.522 181.739, 422.750 " stroke-name="b_2430_p1b2429" stroke-occlusion=" True True True True True " />
            <path fill="none" stroke-width="1.0" stroke-linecap="round" stroke-opacity="1.0" stroke="rgb(0, 0, 0)" stroke-linejoin="round" d=" M 332.438, 413.203 325.905, 404.710 325.310, 403.936 325.122, 403.692 325.119, 403.688 325.106, 403.671 320.551, 407.039 320.486, 407.173 330.122, 420.274 " stroke-name="b_2429_p1b2428" stroke-occlusion=" True True True True True True True True True " />
            <path fill="none" stroke-width="1.0" stroke-linecap="round" stroke-opacity="1.0" stroke="rgb(0, 0, 0)" stroke-linejoin="round" d=" M 351.025, 454.333 351.067, 454.376 356.122, 450.524 " stroke-name="b_2429_p1b2428" stroke-occlusion=" True True True " />
            <path fill="none" stroke-width="1.0" stroke-linecap="round" stroke-opacity="1.0" stroke="rgb(0, 0, 0)" stroke-linejoin="round" d=" M 258.832, 301.107 259.028, 300.960 252.630, 292.313 252.497, 292.206 243.461, 298.987 " stroke-name="b_2429_p1b2428" stroke-occlusion=" True True True True True " />
            <path fill="none" stroke-width="1.0" stroke-linecap="round" stroke-opacity="1.0" stroke="rgb(0, 0, 0)" stroke-linejoin="round" d=" M 318.394, 397.559 318.647, 397.419 331.274, 387.936 333.135, 386.470 " stroke-name="b_2429_p1b2428" stroke-occlusion=" True True True True " />
            <path fill="none" stroke-width="1.0" stroke-linecap="round" stroke-opacity="1.0" stroke="rgb(0, 0, 0)" stroke-linejoin="round" d=" M 330.860, 380.283 331.023, 380.174 322.531, 369.042 318.648, 363.947 314.568, 358.519 " stroke-name="b_2429_p1b2428" stroke-occlusion=" True True True True True " />
            <path fill="none" stroke-width="1.0" stroke-linecap="round" stroke-opacity="1.0" stroke="rgb(0, 0, 0)" stroke-linejoin="round" d=" M 314.568, 358.519 314.573, 358.481 299.533, 338.511 298.083, 336.585 " stroke-name="b_2429_p1b2428" stroke-occlusion=" True True True True " />
            <path fill="none" stroke-width="1.0" stroke-linecap="round" stroke-opacity="1.0" stroke="rgb(0, 0, 0)" stroke-linejoin="round" d=" M 298.083, 336.585 286.220, 320.801 271.400, 300.667 268.739, 297.051 262.279, 301.899 " stroke-name="b_2429_p1b2428" stroke-occlusion=" True True True True True " />
            <path fill="none" stroke-width="1.0" stroke-linecap="round" stroke-opacity="1.0" stroke="rgb(0, 0, 0)" stroke-linejoin="round" d=" M 333.135, 386.470 334.616, 385.351 330.860, 380.283 " stroke-name="b_2429_p1b2428" stroke-occlusion=" True True True " />
            <path fill="none" stroke-width="1.0" stroke-linecap="round" stroke-opacity="1.0" stroke="rgb(0, 0, 0)" stroke-linejoin="round" d=" M 263.605, 341.686 263.483, 341.770 261.795, 339.284 261.795, 339.283 261.775, 339.253 " stroke-name="b_2429_p1b2428" stroke-occlusion=" True True True True True " />
            <path fill="none" stroke-width="1.0" stroke-linecap="round" stroke-opacity="1.0" stroke="rgb(0, 0, 0)" stroke-linejoin="round" d=" M 261.795, 339.284 270.276, 332.875 271.518, 334.505 " stroke-name="b_2429_p1b2428" stroke-occlusion=" True True True " />
            <path fill="none" stroke-width="1.0" stroke-linecap="round" stroke-opacity="1.0" stroke="rgb(0, 0, 0)" stroke-linejoin="round" d=" M 336.593, 466.083 336.608, 466.073 336.702, 466.005 323.407, 448.466 322.290, 447.000 " stroke-name="b_2429_p1b2428" stroke-occlusion=" True True True True True " />
            <path fill="none" stroke-width="1.0" stroke-linecap="round" stroke-opacity="1.0" stroke="rgb(0, 0, 0)" stroke-linejoin="round" d=" M 240.270, 295.004 237.696, 291.407 237.438, 291.170 217.522, 306.281 211.132, 311.129 " stroke-name="b_2429_p1b2428" stroke-occlusion=" True True True True True " />
            <path fill="none" stroke-width="1.0" stroke-linecap="round" stroke-opacity="1.0" stroke="rgb(0, 0, 0)" stroke-linejoin="round" d=" M 347.992, 420.871 348.320, 420.555 363.328, 440.549 365.974, 444.073 373.733, 438.410 373.927, 438.007 363.609, 424.262 " stroke-name="b_2429_p1b2428" stroke-occlusion=" True True True True True True True " />
            <path fill="none" stroke-width="1.0" stroke-linecap="round" stroke-opacity="1.0" stroke="rgb(0, 0, 0)" stroke-linejoin="round" d=" M 324.231, 427.598 328.149, 424.569 328.340, 424.365 319.414, 412.574 317.633, 410.223 316.686, 408.907 311.921, 402.283 309.953, 403.699 " stroke-name="b_2429_p1b2428" stroke-occlusion=" True True True True True True True True " />
            <path fill="none" stroke-width="1.0" stroke-linecap="round" stroke-opacity="1.0" stroke="rgb(0, 0, 0)" stroke-linejoin="round" d=" M 324.573, 468.687 327.485, 472.640 327.636, 472.777 329.402, 471.430 " stroke-name="b_2429_p1b2428" stroke-occlusion=" True True True True " />
            <path fill="none" stroke-width="1.0" stroke-linecap="round" stroke-opacity="1.0" stroke="rgb(0, 0, 0)" stroke-linejoin="round" d=" M 271.518, 334.505 267.518, 337.483 267.249, 337.971 267.560, 338.282 " stroke-name="b_2429_p1b2428" stroke-occlusion=" True True True True " />
            <path fill="none" stroke-width="1.0" stroke-linecap="round" stroke-opacity="1.0" stroke="rgb(0, 0, 0)" stroke-linejoin="round" d=" M 287.571, 356.166 283.411, 359.241 283.143, 359.730 283.906, 360.674 " stroke-name="b_2429_p1b2428" stroke-occlusion=" True True True True " />
            <path fill="none" stroke-width="1.0" stroke-linecap="round" stroke-opacity="1.0" stroke="rgb(0, 0, 0)" stroke-linejoin="round" d=" M 364.936, 443.875 364.952, 443.849 364.952, 443.849 365.016, 443.744 350.090, 423.689 347.992, 420.871 " stroke-name="b_2429_p1b2428" stroke-occlusion=" True True True True True True " />
            <path fill="none" stroke-width="1.0" stroke-linecap="round" stroke-opacity="1.0" stroke="rgb(0, 0, 0)" stroke-linejoin="round" d=" M 357.758, 413.330 357.461, 412.897 352.980, 406.351 346.248, 411.340 346.236, 411.349 " stroke-name="b_2429_p1b2428" stroke-occlusion=" True True True True True " />
            <path fill="none" stroke-width="1.0" stroke-linecap="round" stroke-opacity="1.0" stroke="rgb(0, 0, 0)" stroke-linejoin="round" d=" M 281.244, 362.626 279.843, 363.590 275.621, 357.779 275.614, 357.769 " stroke-name="b_2429_p1b2428" stroke-occlusion=" True True True True " />
            <path fill="none" stroke-width="1.0" stroke-linecap="round" stroke-opacity="1.0" stroke="rgb(0, 0, 0)" stroke-linejoin="round" d=" M 283.911, 360.671 283.906, 360.674 282.506, 361.586 282.565, 361.667 " stroke-name="b_2429_p1b2428" stroke-occlusion=" True True True True " />
            <path fill="none" stroke-width="1.0" stroke-linecap="round" stroke-opacity="1.0" stroke="rgb(0, 0, 0)" stroke-linejoin="round" d=" M 267.676, 338.512 266.146, 339.768 266.165, 339.793 " stroke-name="b_2429_p1b2428" stroke-occlusion=" True True True " />
            <path fill="none" stroke-width="1.0" stroke-linecap="round" stroke-opacity="1.0" stroke="rgb(0, 0, 0)" stroke-linejoin="round" d=" M 333.457, 431.476 333.531, 431.583 329.493, 434.453 329.388, 434.533 " stroke-name="b_2429_p1b2428" stroke-occlusion=" True True True True " />
            <path fill="none" stroke-width="1.0" stroke-linecap="round" stroke-opacity="1.0" stroke="rgb(0, 0, 0)" stroke-linejoin="round" d=" M 332.861, 430.660 333.424, 431.483 333.457, 431.476 " stroke-name="b_2429_p1b2428" stroke-occlusion=" True True True " />
            <path fill="none" stroke-width="1.0" stroke-linecap="round" stroke-opacity="1.0" stroke="rgb(0, 0, 0)" stroke-linejoin="round" d=" M 331.539, 422.239 328.591, 424.423 328.442, 424.862 332.861, 430.660 " stroke-name="b_2429_p1b2428" stroke-occlusion=" True True True True " />
            <path fill="none" stroke-width="1.0" stroke-linecap="round" stroke-opacity="1.0" stroke="rgb(0, 0, 0)" stroke-linejoin="round" d=" M 208.325, 313.218 208.235, 313.344 223.221, 333.354 238.207, 353.365 253.193, 373.375 268.179, 393.386 283.165, 413.396 298.151, 433.406 313.137, 453.417 324.573, 468.687 " stroke-name="b_2429_p1b2428" stroke-occlusion=" True True True True True True True True True True " />
            <path fill="none" stroke-width="1.0" stroke-linecap="round" stroke-opacity="1.0" stroke="rgb(0, 0, 0)" stroke-linejoin="round" d=" M 326.506, 436.973 341.432, 457.028 343.506, 459.816 343.594, 459.887 351.025, 454.333 " stroke-name="b_2429_p1b2428" stroke-occlusion=" True True True True True " />
            <path fill="none" stroke-width="1.0" stroke-linecap="round" stroke-opacity="1.0" stroke="rgb(0, 0, 0)" stroke-linejoin="round" d=" M 356.122, 450.524 364.869, 443.985 364.959, 443.858 " stroke-name="b_2429_p1b2428" stroke-occlusion=" True True True " />
            <path fill="none" stroke-width="1.0" stroke-linecap="round" stroke-opacity="1.0" stroke="rgb(0, 0, 0)" stroke-linejoin="round" d=" M 319.009, 442.629 326.506, 436.973 " stroke-name="b_2429_p1b2428" stroke-occlusion=" True True " />
            <path fill="none" stroke-width="1.0" stroke-linecap="round" stroke-opacity="1.0" stroke="rgb(0, 0, 0)" stroke-linejoin="round" d=" M 346.236, 411.349 342.162, 406.092 342.159, 406.088 342.145, 406.071 340.743, 407.124 " stroke-name="b_2429_p1b2428" stroke-occlusion=" True True True True True " />
            <path fill="none" stroke-width="1.0" stroke-linecap="round" stroke-opacity="1.0" stroke="rgb(0, 0, 0)" stroke-linejoin="round" d=" M 303.808, 377.886 299.771, 381.061 299.830, 381.236 " stroke-name="b_2429_p1b2428" stroke-occlusion=" True True True " />
            <path fill="none" stroke-width="1.0" stroke-linecap="round" stroke-opacity="1.0" stroke="rgb(0, 0, 0)" stroke-linejoin="round" d=" M 300.138, 382.138 298.632, 383.374 298.721, 383.488 " stroke-name="b_2429_p1b2428" stroke-occlusion=" True True True " />
            <path fill="none" stroke-width="1.0" stroke-linecap="round" stroke-opacity="1.0" stroke="rgb(0, 0, 0)" stroke-linejoin="round" d=" M 298.700, 383.505 296.203, 385.408 291.609, 379.647 291.608, 379.645 " stroke-name="b_2429_p1b2428" stroke-occlusion=" True True True True " />
            <path fill="none" stroke-width="1.0" stroke-linecap="round" stroke-opacity="1.0" stroke="rgb(0, 0, 0)" stroke-linejoin="round" d=" M 233.131, 213.327 228.978, 207.921 227.789, 206.373 212.749, 186.260 212.552, 186.287 192.603, 201.354 185.148, 206.985 " stroke-name="b_2361_p1b2360" stroke-occlusion=" True True True True True True True " />
            <path fill="none" stroke-width="1.0" stroke-linecap="round" stroke-opacity="1.0" stroke="rgb(0, 0, 0)" stroke-linejoin="round" d=" M 160.453, 225.527 149.541, 233.591 149.394, 233.831 164.447, 253.791 179.500, 273.751 181.638, 276.586 201.631, 261.577 221.624, 246.567 241.617, 231.558 244.649, 229.282 244.739, 229.156 " stroke-name="b_2361_p1b2360" stroke-occlusion=" True True True True True True True True True True True " />
            <path fill="none" stroke-width="1.0" stroke-linecap="round" stroke-opacity="1.0" stroke="rgb(0, 0, 0)" stroke-linejoin="round" d=" M 238.041, 219.864 242.723, 216.600 242.814, 216.475 241.469, 214.220 " stroke-name="b_2361_p1b2360" stroke-occlusion=" True True True True " />
            <path fill="none" stroke-width="1.0" stroke-linecap="round" stroke-opacity="1.0" stroke="rgb(0, 0, 0)" stroke-linejoin="round" d=" M 244.715, 229.174 244.732, 229.147 244.732, 229.146 244.796, 229.042 238.041, 219.864 " stroke-name="b_2361_p1b2360" stroke-occlusion=" True True True True True " />
            <path fill="none" stroke-width="1.0" stroke-linecap="round" stroke-opacity="1.0" stroke="rgb(0, 0, 0)" stroke-linejoin="round" d=" M 241.469, 214.220 239.431, 210.080 234.266, 212.747 233.134, 213.332 " stroke-name="b_2361_p1b2360" stroke-occlusion=" True True True True " />
            <path fill="none" stroke-width="1.0" stroke-linecap="round" stroke-opacity="1.0" stroke="rgb(0, 0, 0)" stroke-linejoin="round" d=" M 389.697, 223.774 374.784, 203.709 367.427, 193.811 363.313, 188.487 361.814, 186.773 " stroke-name="b_2360_p1b2359" stroke-occlusion=" True True True True True " />
            <path fill="none" stroke-width="1.0" stroke-linecap="round" stroke-opacity="1.0" stroke="rgb(0, 0, 0)" stroke-linejoin="round" d=" M 360.623, 185.188 360.852, 185.020 346.685, 166.613 " stroke-name="b_2360_p1b2359" stroke-occlusion=" True True True " />
            <path fill="none" stroke-width="1.0" stroke-linecap="round" stroke-opacity="1.0" stroke="rgb(0, 0, 0)" stroke-linejoin="round" d=" M 336.203, 248.835 320.596, 260.529 320.386, 260.705 328.505, 271.452 325.689, 273.598 " stroke-name="b_2360_p1b2359" stroke-occlusion=" True True True True True " />
            <path fill="none" stroke-width="1.0" stroke-linecap="round" stroke-opacity="1.0" stroke="rgb(0, 0, 0)" stroke-linejoin="round" d=" M 344.252, 273.497 364.284, 258.540 384.316, 243.583 397.245, 233.929 397.392, 233.688 389.697, 223.774 " stroke-name="b_2360_p1b2359" stroke-occlusion=" True True True True True True " />
            <path fill="none" stroke-width="1.0" stroke-linecap="round" stroke-opacity="1.0" stroke="rgb(0, 0, 0)" stroke-linejoin="round" d=" M 335.124, 280.313 335.135, 280.327 344.252, 273.497 " stroke-name="b_2360_p1b2359" stroke-occlusion=" True True True " />
            <path fill="none" stroke-width="1.0" stroke-linecap="round" stroke-opacity="1.0" stroke="rgb(0, 0, 0)" stroke-linejoin="round" d=" M 346.685, 166.613 346.912, 166.433 331.998, 146.368 325.255, 137.295 310.269, 117.284 307.787, 113.971 288.366, 128.652 289.164, 129.636 " stroke-name="b_2360_p1b2359" stroke-occlusion=" True True True True True True True True " />
            <path fill="none" stroke-width="1.0" stroke-linecap="round" stroke-opacity="1.0" stroke="rgb(0, 0, 0)" stroke-linejoin="round" d=" M 265.370, 147.578 265.275, 147.449 262.739, 149.381 262.382, 149.798 262.300, 149.904 " stroke-name="b_2360_p1b2359" stroke-occlusion=" True True True True True " />
            <path fill="none" stroke-width="1.0" stroke-linecap="round" stroke-opacity="1.0" stroke="rgb(0, 0, 0)" stroke-linejoin="round" d=" M 325.689, 273.598 310.944, 284.581 310.751, 284.983 315.626, 291.179 " stroke-name="b_2360_p1b2359" stroke-occlusion=" True True True True " />
            <path fill="none" stroke-width="1.0" stroke-linecap="round" stroke-opacity="1.0" stroke="rgb(0, 0, 0)" stroke-linejoin="round" d=" M 315.626, 291.179 317.365, 293.631 321.118, 290.770 " stroke-name="b_2360_p1b2359" stroke-occlusion=" True True True " />
            <path fill="none" stroke-width="1.0" stroke-linecap="round" stroke-opacity="1.0" stroke="rgb(0, 0, 0)" stroke-linejoin="round" d=" M 449.824, 244.915 445.074, 248.536 460.163, 268.469 463.962, 273.489 463.853, 273.587 476.442, 290.014 476.531, 290.087 483.104, 285.283 476.331, 275.677 482.154, 271.342 482.244, 271.216 " stroke-name="b_2359_p1b2358" stroke-occlusion=" True True True True True True True True True True True " />
            <path fill="none" stroke-width="1.0" stroke-linecap="round" stroke-opacity="1.0" stroke="rgb(0, 0, 0)" stroke-linejoin="round" d=" M 481.030, 267.032 474.374, 242.934 470.710, 229.667 457.539, 208.418 453.558, 201.994 440.440, 180.712 430.779, 165.037 430.488, 165.156 " stroke-name="b_2359_p1b2358" stroke-occlusion=" True True True True True True True True " />
            <path fill="none" stroke-width="1.0" stroke-linecap="round" stroke-opacity="1.0" stroke="rgb(0, 0, 0)" stroke-linejoin="round" d=" M 410.585, 179.887 399.990, 187.678 399.976, 187.794 " stroke-name="b_2359_p1b2358" stroke-occlusion=" True True True " />
            <path fill="none" stroke-width="1.0" stroke-linecap="round" stroke-opacity="1.0" stroke="rgb(0, 0, 0)" stroke-linejoin="round" d=" M 454.534, 206.624 453.360, 205.452 453.654, 205.745 454.534, 206.624 " stroke-name="b_2359_p1b2358" stroke-occlusion=" True True True True " />
            <path fill="none" stroke-width="1.0" stroke-linecap="round" stroke-opacity="1.0" stroke="rgb(0, 0, 0)" stroke-linejoin="round" d=" M 399.715, 187.989 414.702, 207.999 418.357, 212.879 " stroke-name="b_2359_p1b2358" stroke-occlusion=" True True True " />
            <path fill="none" stroke-width="1.0" stroke-linecap="round" stroke-opacity="1.0" stroke="rgb(0, 0, 0)" stroke-linejoin="round" d=" M 418.357, 212.879 425.539, 222.733 425.691, 222.672 426.672, 221.925 " stroke-name="b_2359_p1b2358" stroke-occlusion=" True True True True " />
            <path fill="none" stroke-width="1.0" stroke-linecap="round" stroke-opacity="1.0" stroke="rgb(0, 0, 0)" stroke-linejoin="round" d=" M -54.804, 162.196 -34.771, 147.240 -14.739, 132.283 5.294, 117.327 17.894, 107.920 17.926, 107.601 3.059, 87.502 -11.195, 68.232 " stroke-name="b_2333_p1b2332" stroke-occlusion=" True True True True True True True True " />
            <path fill="none" stroke-width="1.0" stroke-linecap="round" stroke-opacity="1.0" stroke="rgb(0, 0, 0)" stroke-linejoin="round" d=" M 112.542, 99.340 112.542, 99.340 111.011, 100.492 110.864, 100.732 122.846, 116.538 " stroke-name="b_2270_p1b2269" stroke-occlusion=" True True True True True " />
            <path fill="none" stroke-width="1.0" stroke-linecap="round" stroke-opacity="1.0" stroke="rgb(0, 0, 0)" stroke-linejoin="round" d=" M 122.846, 116.538 124.071, 118.199 112.424, 127.078 " stroke-name="b_2270_p1b2269" stroke-occlusion=" True True True " />
            <path fill="none" stroke-width="1.0" stroke-linecap="round" stroke-opacity="1.0" stroke="rgb(0, 0, 0)" stroke-linejoin="round" d=" M 109.167, 167.235 106.101, 169.474 106.082, 169.644 121.258, 189.468 141.189, 174.376 152.261, 165.993 " stroke-name="b_2270_p1b2269" stroke-occlusion=" True True True True True True " />
            <path fill="none" stroke-width="1.0" stroke-linecap="round" stroke-opacity="1.0" stroke="rgb(0, 0, 0)" stroke-linejoin="round" d=" M 102.912, 15.054 82.995, 30.163 68.616, 41.071 68.525, 41.197 83.579, 61.156 90.914, 70.879 106.050, 90.776 107.799, 93.076 " stroke-name="b_2270_p1b2269" stroke-occlusion=" True True True True True True True True " />
            <path fill="none" stroke-width="1.0" stroke-linecap="round" stroke-opacity="1.0" stroke="rgb(0, 0, 0)" stroke-linejoin="round" d=" M 152.261, 165.993 162.670, 158.163 148.043, 139.317 " stroke-name="b_2270_p1b2269" stroke-occlusion=" True True True " />
            <path fill="none" stroke-width="1.0" stroke-linecap="round" stroke-opacity="1.0" stroke="rgb(0, 0, 0)" stroke-linejoin="round" d=" M 167.553, 122.984 167.787, 122.676 157.371, 109.025 166.998, 101.791 166.991, 101.781 " stroke-name="b_2270_p1b2269" stroke-occlusion=" True True True True True " />
            <path fill="none" stroke-width="1.0" stroke-linecap="round" stroke-opacity="1.0" stroke="rgb(0, 0, 0)" stroke-linejoin="round" d=" M 94.505, 140.612 94.414, 140.738 100.640, 148.813 " stroke-name="b_2270_p1b2269" stroke-occlusion=" True True True " />
            <path fill="none" stroke-width="1.0" stroke-linecap="round" stroke-opacity="1.0" stroke="rgb(0, 0, 0)" stroke-linejoin="round" d=" M 179.646, 109.100 194.654, 129.094 203.504, 140.885 210.773, 150.362 230.805, 135.405 240.324, 128.298 " stroke-name="b_2270_p1b2269" stroke-occlusion=" True True True True True True " />
            <path fill="none" stroke-width="1.0" stroke-linecap="round" stroke-opacity="1.0" stroke="rgb(0, 0, 0)" stroke-linejoin="round" d=" M 240.042, 124.333 239.546, 113.549 239.335, 113.710 " stroke-name="b_2270_p1b2269" stroke-occlusion=" True True True " />
            <path fill="none" stroke-width="1.0" stroke-linecap="round" stroke-opacity="1.0" stroke="rgb(0, 0, 0)" stroke-linejoin="round" d=" M 239.335, 113.710 224.256, 93.769 209.178, 73.828 194.100, 53.887 179.022, 33.946 164.787, 15.120 150.509, -3.639 " stroke-name="b_2270_p1b2269" stroke-occlusion=" True True True True True True True " />
            <path fill="none" stroke-width="1.0" stroke-linecap="round" stroke-opacity="1.0" stroke="rgb(0, 0, 0)" stroke-linejoin="round" d=" M 101.254, 8.016 109.640, 1.653 109.640, 1.653 " stroke-name="b_2270_p1b2269" stroke-occlusion=" True True True " />
            <path fill="none" stroke-width="1.0" stroke-linecap="round" stroke-opacity="1.0" stroke="rgb(0, 0, 0)" stroke-linejoin="round" d=" M 109.640, 1.653 113.642, 6.875 " stroke-name="b_2270_p1b2269" stroke-occlusion=" True True " />
            <path fill="none" stroke-width="1.0" stroke-linecap="round" stroke-opacity="1.0" stroke="rgb(0, 0, 0)" stroke-linejoin="round" d=" M 113.642, 6.875 102.912, 15.054 " stroke-name="b_2270_p1b2269" stroke-occlusion=" True True " />
            <path fill="none" stroke-width="1.0" stroke-linecap="round" stroke-opacity="1.0" stroke="rgb(0, 0, 0)" stroke-linejoin="round" d=" M 137.599, 265.670 132.511, 259.039 " stroke-name="b_2430_p1b2429" stroke-occlusion=" True True " />
            <path fill="none" stroke-width="1.0" stroke-linecap="round" stroke-opacity="1.0" stroke="rgb(0, 0, 0)" stroke-linejoin="round" d=" M 146.564, 283.281 147.340, 282.644 " stroke-name="b_2430_p1b2429" stroke-occlusion=" True True " />
            <path fill="none" stroke-width="1.0" stroke-linecap="round" stroke-opacity="1.0" stroke="rgb(0, 0, 0)" stroke-linejoin="round" d=" M 162.231, 89.477 163.848, 88.282 " stroke-name="b_2270_p1b2269" stroke-occlusion=" True True " />
            <path fill="none" stroke-width="1.0" stroke-linecap="round" stroke-opacity="1.0" stroke="rgb(0, 0, 0)" stroke-linejoin="round" d=" M 166.472, 101.082 159.494, 91.688 " stroke-name="b_2270_p1b2269" stroke-occlusion=" True True " />
            <path fill="none" stroke-width="1.0" stroke-linecap="round" stroke-opacity="1.0" stroke="rgb(0, 0, 0)" stroke-linejoin="round" d=" M 147.357, 138.389 151.093, 135.542 " stroke-name="b_2270_p1b2269" stroke-occlusion=" True True " />
            <path fill="none" stroke-width="1.0" stroke-linecap="round" stroke-opacity="1.0" stroke="rgb(0, 0, 0)" stroke-linejoin="round" d=" M 202.633, 451.143 200.487, 448.159 " stroke-name="b_2430_p1b2429" stroke-occlusion=" True True " />
            <path fill="none" stroke-width="1.0" stroke-linecap="round" stroke-opacity="1.0" stroke="rgb(0, 0, 0)" stroke-linejoin="round" d=" M 185.148, 206.985 165.156, 221.996 160.453, 225.527 " stroke-name="b_2361_p1b2360" stroke-occlusion=" True True True " />
            <path fill="none" stroke-width="1.0" stroke-linecap="round" stroke-opacity="1.0" stroke="rgb(0, 0, 0)" stroke-linejoin="round" d=" M 211.265, 440.048 211.582, 440.455 " stroke-name="b_2430_p1b2429" stroke-occlusion=" True True " />
            <path fill="none" stroke-width="1.0" stroke-linecap="round" stroke-opacity="1.0" stroke="rgb(0, 0, 0)" stroke-linejoin="round" d=" M 214.949, 442.900 219.413, 439.623 " stroke-name="b_2430_p1b2429" stroke-occlusion=" True True " />
            <path fill="none" stroke-width="1.0" stroke-linecap="round" stroke-opacity="1.0" stroke="rgb(0, 0, 0)" stroke-linejoin="round" d=" M 231.126, 426.830 234.742, 424.071 " stroke-name="b_2430_p1b2429" stroke-occlusion=" True True " />
            <path fill="none" stroke-width="1.0" stroke-linecap="round" stroke-opacity="1.0" stroke="rgb(0, 0, 0)" stroke-linejoin="round" d=" M 243.461, 298.987 240.270, 295.004 " stroke-name="b_2429_p1b2428" stroke-occlusion=" True True " />
            <path fill="none" stroke-width="1.0" stroke-linecap="round" stroke-opacity="1.0" stroke="rgb(0, 0, 0)" stroke-linejoin="round" d=" M 251.402, 309.922 249.901, 307.867 " stroke-name="b_2429_p1b2428" stroke-occlusion=" True True " />
            <path fill="none" stroke-width="1.0" stroke-linecap="round" stroke-opacity="1.0" stroke="rgb(0, 0, 0)" stroke-linejoin="round" d=" M 266.165, 339.793 263.605, 341.686 " stroke-name="b_2429_p1b2428" stroke-occlusion=" True True " />
            <path fill="none" stroke-width="1.0" stroke-linecap="round" stroke-opacity="1.0" stroke="rgb(0, 0, 0)" stroke-linejoin="round" d=" M 282.565, 361.667 281.244, 362.626 " stroke-name="b_2429_p1b2428" stroke-occlusion=" True True " />
            <path fill="none" stroke-width="1.0" stroke-linecap="round" stroke-opacity="1.0" stroke="rgb(0, 0, 0)" stroke-linejoin="round" d=" M 275.621, 357.779 284.090, 351.561 " stroke-name="b_2429_p1b2428" stroke-occlusion=" True True " />
            <path fill="none" stroke-width="1.0" stroke-linecap="round" stroke-opacity="1.0" stroke="rgb(0, 0, 0)" stroke-linejoin="round" d=" M 286.889, 355.101 287.571, 356.166 " stroke-name="b_2429_p1b2428" stroke-occlusion=" True True " />
            <path fill="none" stroke-width="1.0" stroke-linecap="round" stroke-opacity="1.0" stroke="rgb(0, 0, 0)" stroke-linejoin="round" d=" M 266.254, 146.921 265.370, 147.578 " stroke-name="b_2360_p1b2359" stroke-occlusion=" True True " />
            <path fill="none" stroke-width="1.0" stroke-linecap="round" stroke-opacity="1.0" stroke="rgb(0, 0, 0)" stroke-linejoin="round" d=" M 298.721, 383.488 298.700, 383.505 " stroke-name="b_2429_p1b2428" stroke-occlusion=" True True " />
            <path fill="none" stroke-width="1.0" stroke-linecap="round" stroke-opacity="1.0" stroke="rgb(0, 0, 0)" stroke-linejoin="round" d=" M 291.609, 379.647 300.061, 372.967 " stroke-name="b_2429_p1b2428" stroke-occlusion=" True True " />
            <path fill="none" stroke-width="1.0" stroke-linecap="round" stroke-opacity="1.0" stroke="rgb(0, 0, 0)" stroke-linejoin="round" d=" M 309.953, 403.699 308.011, 400.923 " stroke-name="b_2429_p1b2428" stroke-occlusion=" True True " />
            <path fill="none" stroke-width="1.0" stroke-linecap="round" stroke-opacity="1.0" stroke="rgb(0, 0, 0)" stroke-linejoin="round" d=" M 329.388, 434.533 324.231, 427.598 324.229, 427.596 " stroke-name="b_2429_p1b2428" stroke-occlusion=" True True True " />
            <path fill="none" stroke-width="1.0" stroke-linecap="round" stroke-opacity="1.0" stroke="rgb(0, 0, 0)" stroke-linejoin="round" d=" M 356.361, 414.416 356.413, 414.372 356.840, 414.018 " stroke-name="b_2429_p1b2428" stroke-occlusion=" True True True " />
            <path fill="none" stroke-width="1.0" stroke-linecap="round" stroke-opacity="1.0" stroke="rgb(0, 0, 0)" stroke-linejoin="round" d=" M 363.609, 424.262 356.361, 414.416 " stroke-name="b_2429_p1b2428" stroke-occlusion=" True True " />
            <path fill="none" stroke-width="1.0" stroke-linecap="round" stroke-opacity="1.0" stroke="rgb(0, 0, 0)" stroke-linejoin="round" d=" M 321.118, 290.770 335.124, 280.313 " stroke-name="b_2360_p1b2359" stroke-occlusion=" True True " />
            <path fill="none" stroke-width="1.0" stroke-linecap="round" stroke-opacity="1.0" stroke="rgb(0, 0, 0)" stroke-linejoin="round" d=" M 361.814, 186.773 360.623, 185.188 " stroke-name="b_2360_p1b2359" stroke-occlusion=" True True " />
        </g>
    </g>
</svg>
