<?xml version='1.0' encoding='ascii'?>
<svg xmlns="http://www.w3.org/2000/svg" version="1.1" width="512" height="512">
    <g id="ViewLayer_LineSet 2" xmlns:inkscape="http://www.inkscape.org/namespaces/inkscape" inkscape:groupmode="lineset" inkscape:label="ViewLayer_LineSet 2">
        <g xmlns:inkscape="http://www.inkscape.org/namespaces/inkscape" inkscape:groupmode="layer" id="strokes" inkscape:label="strokes">
            <path fill="none" stroke-width="1.0" stroke-linecap="round" stroke-opacity="1.0" stroke="rgb(0, 0, 0)" stroke-linejoin="round" d=" M 191.161, 361.843 191.240, 361.839 195.568, 355.445 190.605, 330.942 189.722, 326.583 189.663, 326.379 165.103, 331.048 160.563, 331.911 156.297, 338.042 156.356, 338.245 156.611, 338.395 " stroke-name="b_2476_p1b2475" stroke-occlusion=" True True True True True True True True True True True " />
            <path fill="none" stroke-width="1.0" stroke-linecap="round" stroke-opacity="1.0" stroke="rgb(0, 0, 0)" stroke-linejoin="round" d=" M 189.647, 326.394 188.048, 326.697 " stroke-name="b_2476_p1b2475" stroke-occlusion=" True True " />
            <path fill="none" stroke-width="1.0" stroke-linecap="round" stroke-opacity="1.0" stroke="rgb(0, 0, 0)" stroke-linejoin="round" d=" M 176.867, 363.284 177.157, 363.270 177.418, 363.170 182.288, 355.832 " stroke-name="b_2476_p1b2475" stroke-occlusion=" True True True True " />
            <path fill="none" stroke-width="1.0" stroke-linecap="round" stroke-opacity="1.0" stroke="rgb(0, 0, 0)" stroke-linejoin="round" d=" M 143.826, 283.980 143.826, 283.980 143.896, 284.182 143.972, 284.370 160.154, 281.097 160.685, 280.964 159.962, 277.618 " stroke-name="b_2430_p1b2429" stroke-occlusion=" True True True True True True True " />
            <path fill="none" stroke-width="1.0" stroke-linecap="round" stroke-opacity="1.0" stroke="rgb(0, 0, 0)" stroke-linejoin="round" d=" M 123.510, 288.044 123.861, 287.766 123.694, 286.977 " stroke-name="b_2430_p1b2429" stroke-occlusion=" True True True " />
            <path fill="none" stroke-width="1.0" stroke-linecap="round" stroke-opacity="1.0" stroke="rgb(0, 0, 0)" stroke-linejoin="round" d=" M 94.839, 292.043 95.051, 293.283 95.094, 293.354 95.170, 293.542 " stroke-name="b_2430_p1b2429" stroke-occlusion=" True True True True " />
            <path fill="none" stroke-width="1.0" stroke-linecap="round" stroke-opacity="1.0" stroke="rgb(0, 0, 0)" stroke-linejoin="round" d=" M 172.793, 278.493 172.997, 278.333 171.951, 273.098 177.674, 271.980 178.205, 271.847 175.935, 260.039 " stroke-name="b_2430_p1b2429" stroke-occlusion=" True True True True True True " />
            <path fill="none" stroke-width="1.0" stroke-linecap="round" stroke-opacity="1.0" stroke="rgb(0, 0, 0)" stroke-linejoin="round" d=" M 117.364, 252.297 138.939, 248.231 140.246, 254.203 140.246, 254.204 140.247, 254.211 " stroke-name="b_2430_p1b2429" stroke-occlusion=" True True True True True " />
            <path fill="none" stroke-width="1.0" stroke-linecap="round" stroke-opacity="1.0" stroke="rgb(0, 0, 0)" stroke-linejoin="round" d=" M 175.935, 260.039 176.800, 259.759 177.472, 259.586 172.676, 235.050 167.881, 210.515 163.085, 185.979 158.289, 161.443 153.493, 136.908 148.876, 113.282 147.312, 113.595 146.898, 111.526 " stroke-name="b_2430_p1b2429" stroke-occlusion=" True True True True True True True True True True True " />
            <path fill="none" stroke-width="1.0" stroke-linecap="round" stroke-opacity="1.0" stroke="rgb(0, 0, 0)" stroke-linejoin="round" d=" M 144.828, 83.527 144.809, 83.438 142.962, 82.048 141.903, 75.897 137.896, 76.614 137.621, 72.730 113.081, 77.505 88.541, 82.280 64.002, 87.056 60.445, 87.748 60.139, 87.880 60.139, 87.881 " stroke-name="b_2430_p1b2429" stroke-occlusion=" True True True True True True True True True True True True " />
            <path fill="none" stroke-width="1.0" stroke-linecap="round" stroke-opacity="1.0" stroke="rgb(0, 0, 0)" stroke-linejoin="round" d=" M 60.079, 87.892 59.942, 87.966 60.705, 91.498 57.836, 92.136 " stroke-name="b_2430_p1b2429" stroke-occlusion=" True True True True " />
            <path fill="none" stroke-width="1.0" stroke-linecap="round" stroke-opacity="1.0" stroke="rgb(0, 0, 0)" stroke-linejoin="round" d=" M 148.348, 111.199 148.895, 111.051 148.944, 110.837 148.107, 106.650 149.277, 105.112 149.326, 104.898 146.562, 91.764 " stroke-name="b_2430_p1b2429" stroke-occlusion=" True True True True True True True " />
            <path fill="none" stroke-width="1.0" stroke-linecap="round" stroke-opacity="1.0" stroke="rgb(0, 0, 0)" stroke-linejoin="round" d=" M 57.836, 92.136 57.140, 92.260 56.894, 92.345 57.061, 93.223 " stroke-name="b_2430_p1b2429" stroke-occlusion=" True True True True " />
            <path fill="none" stroke-width="1.0" stroke-linecap="round" stroke-opacity="1.0" stroke="rgb(0, 0, 0)" stroke-linejoin="round" d=" M 136.960, 285.188 137.246, 285.173 " stroke-name="b_2430_p1b2429" stroke-occlusion=" True True " />
            <path fill="none" stroke-width="1.0" stroke-linecap="round" stroke-opacity="1.0" stroke="rgb(0, 0, 0)" stroke-linejoin="round" d=" M 59.370, 114.481 60.346, 119.965 62.389, 121.484 63.510, 127.373 63.586, 127.562 65.208, 127.453 65.551, 129.263 " stroke-name="b_2430_p1b2429" stroke-occlusion=" True True True True True True True " />
            <path fill="none" stroke-width="1.0" stroke-linecap="round" stroke-opacity="1.0" stroke="rgb(0, 0, 0)" stroke-linejoin="round" d=" M 164.981, 280.084 172.663, 278.595 172.799, 278.521 " stroke-name="b_2430_p1b2429" stroke-occlusion=" True True True " />
            <path fill="none" stroke-width="1.0" stroke-linecap="round" stroke-opacity="1.0" stroke="rgb(0, 0, 0)" stroke-linejoin="round" d=" M 65.558, 129.262 65.551, 129.263 63.490, 129.604 63.244, 129.689 68.020, 154.228 72.795, 178.768 77.571, 203.308 82.346, 227.847 87.122, 252.387 91.897, 276.927 94.839, 292.043 " stroke-name="b_2430_p1b2429" stroke-occlusion=" True True True True True True True True True True True " />
            <path fill="none" stroke-width="1.0" stroke-linecap="round" stroke-opacity="1.0" stroke="rgb(0, 0, 0)" stroke-linejoin="round" d=" M 137.246, 285.173 137.253, 285.207 138.377, 284.969 " stroke-name="b_2430_p1b2429" stroke-occlusion=" True True True " />
            <path fill="none" stroke-width="1.0" stroke-linecap="round" stroke-opacity="1.0" stroke="rgb(0, 0, 0)" stroke-linejoin="round" d=" M 140.247, 254.211 139.669, 254.315 136.470, 254.894 118.477, 258.151 117.364, 252.297 " stroke-name="b_2430_p1b2429" stroke-occlusion=" True True True True True " />
            <path fill="none" stroke-width="1.0" stroke-linecap="round" stroke-opacity="1.0" stroke="rgb(0, 0, 0)" stroke-linejoin="round" d=" M 256.992, 309.789 254.844, 299.295 254.648, 298.337 254.586, 298.034 254.585, 298.030 254.581, 298.008 249.011, 299.038 248.894, 299.130 251.809, 315.126 " stroke-name="b_2429_p1b2428" stroke-occlusion=" True True True True True True True True True " />
            <path fill="none" stroke-width="1.0" stroke-linecap="round" stroke-opacity="1.0" stroke="rgb(0, 0, 0)" stroke-linejoin="round" d=" M 255.664, 354.905 255.682, 354.962 261.910, 353.717 " stroke-name="b_2429_p1b2428" stroke-occlusion=" True True True " />
            <path fill="none" stroke-width="1.0" stroke-linecap="round" stroke-opacity="1.0" stroke="rgb(0, 0, 0)" stroke-linejoin="round" d=" M 239.985, 176.771 240.226, 176.724 238.266, 166.148 238.194, 165.993 227.100, 168.126 " stroke-name="b_2429_p1b2428" stroke-occlusion=" True True True True True " />
            <path fill="none" stroke-width="1.0" stroke-linecap="round" stroke-opacity="1.0" stroke="rgb(0, 0, 0)" stroke-linejoin="round" d=" M 251.228, 289.572 251.517, 289.557 267.024, 286.571 269.338, 286.069 " stroke-name="b_2429_p1b2428" stroke-occlusion=" True True True True " />
            <path fill="none" stroke-width="1.0" stroke-linecap="round" stroke-opacity="1.0" stroke="rgb(0, 0, 0)" stroke-linejoin="round" d=" M 270.007, 279.511 270.201, 279.484 267.449, 265.756 266.194, 259.474 264.907, 252.807 " stroke-name="b_2429_p1b2428" stroke-occlusion=" True True True True True " />
            <path fill="none" stroke-width="1.0" stroke-linecap="round" stroke-opacity="1.0" stroke="rgb(0, 0, 0)" stroke-linejoin="round" d=" M 264.907, 252.807 264.927, 252.775 260.166, 228.232 259.710, 225.883 " stroke-name="b_2429_p1b2428" stroke-occlusion=" True True True True " />
            <path fill="none" stroke-width="1.0" stroke-linecap="round" stroke-opacity="1.0" stroke="rgb(0, 0, 0)" stroke-linejoin="round" d=" M 259.710, 225.883 255.965, 206.478 251.474, 181.885 250.667, 177.468 242.737, 178.994 " stroke-name="b_2429_p1b2428" stroke-occlusion=" True True True True True " />
            <path fill="none" stroke-width="1.0" stroke-linecap="round" stroke-opacity="1.0" stroke="rgb(0, 0, 0)" stroke-linejoin="round" d=" M 269.338, 286.069 271.160, 285.713 270.007, 279.511 " stroke-name="b_2429_p1b2428" stroke-occlusion=" True True True " />
            <path fill="none" stroke-width="1.0" stroke-linecap="round" stroke-opacity="1.0" stroke="rgb(0, 0, 0)" stroke-linejoin="round" d=" M 226.482, 215.334 226.336, 215.356 225.910, 212.382 225.910, 212.380 225.905, 212.345 " stroke-name="b_2429_p1b2428" stroke-occlusion=" True True True True True " />
            <path fill="none" stroke-width="1.0" stroke-linecap="round" stroke-opacity="1.0" stroke="rgb(0, 0, 0)" stroke-linejoin="round" d=" M 225.910, 212.382 236.342, 210.340 236.743, 212.349 " stroke-name="b_2429_p1b2428" stroke-occlusion=" True True True " />
            <path fill="none" stroke-width="1.0" stroke-linecap="round" stroke-opacity="1.0" stroke="rgb(0, 0, 0)" stroke-linejoin="round" d=" M 237.542, 359.138 237.559, 359.135 237.674, 359.116 233.414, 337.523 233.055, 335.721 " stroke-name="b_2429_p1b2428" stroke-occlusion=" True True True True True " />
            <path fill="none" stroke-width="1.0" stroke-linecap="round" stroke-opacity="1.0" stroke="rgb(0, 0, 0)" stroke-linejoin="round" d=" M 225.978, 163.146 225.241, 158.785 225.114, 158.460 200.589, 163.309 192.735, 164.861 " stroke-name="b_2429_p1b2428" stroke-occlusion=" True True True True True " />
            <path fill="none" stroke-width="1.0" stroke-linecap="round" stroke-opacity="1.0" stroke="rgb(0, 0, 0)" stroke-linejoin="round" d=" M 267.609, 323.501 268.042, 323.361 272.765, 347.911 273.598, 352.238 283.055, 350.550 283.405, 350.273 280.159, 333.399 " stroke-name="b_2429_p1b2428" stroke-occlusion=" True True True True True True True " />
            <path fill="none" stroke-width="1.0" stroke-linecap="round" stroke-opacity="1.0" stroke="rgb(0, 0, 0)" stroke-linejoin="round" d=" M 243.304, 319.129 248.153, 318.125 248.415, 318.025 245.561, 303.510 244.993, 300.620 244.719, 299.023 243.339, 290.980 240.950, 291.390 " stroke-name="b_2429_p1b2428" stroke-occlusion=" True True True True True True True True " />
            <path fill="none" stroke-width="1.0" stroke-linecap="round" stroke-opacity="1.0" stroke="rgb(0, 0, 0)" stroke-linejoin="round" d=" M 225.597, 356.208 226.480, 361.038 226.556, 361.227 228.730, 360.792 " stroke-name="b_2429_p1b2428" stroke-occlusion=" True True True True " />
            <path fill="none" stroke-width="1.0" stroke-linecap="round" stroke-opacity="1.0" stroke="rgb(0, 0, 0)" stroke-linejoin="round" d=" M 236.743, 212.349 231.843, 213.272 231.387, 213.593 231.530, 214.008 " stroke-name="b_2429_p1b2428" stroke-occlusion=" True True True True " />
            <path fill="none" stroke-width="1.0" stroke-linecap="round" stroke-opacity="1.0" stroke="rgb(0, 0, 0)" stroke-linejoin="round" d=" M 241.675, 238.856 236.587, 239.796 236.131, 240.117 236.404, 241.300 " stroke-name="b_2429_p1b2428" stroke-occlusion=" True True True True " />
            <path fill="none" stroke-width="1.0" stroke-linecap="round" stroke-opacity="1.0" stroke="rgb(0, 0, 0)" stroke-linejoin="round" d=" M 272.752, 351.605 272.778, 351.589 272.778, 351.589 272.882, 351.523 268.259, 326.954 267.609, 323.501 " stroke-name="b_2429_p1b2428" stroke-occlusion=" True True True True True True " />
            <path fill="none" stroke-width="1.0" stroke-linecap="round" stroke-opacity="1.0" stroke="rgb(0, 0, 0)" stroke-linejoin="round" d=" M 279.692, 321.005 279.616, 320.486 278.458, 312.638 270.221, 314.170 270.206, 314.173 " stroke-name="b_2429_p1b2428" stroke-occlusion=" True True True True True " />
            <path fill="none" stroke-width="1.0" stroke-linecap="round" stroke-opacity="1.0" stroke="rgb(0, 0, 0)" stroke-linejoin="round" d=" M 233.157, 241.888 231.474, 242.139 230.227, 235.066 230.225, 235.054 " stroke-name="b_2429_p1b2428" stroke-occlusion=" True True True True " />
            <path fill="none" stroke-width="1.0" stroke-linecap="round" stroke-opacity="1.0" stroke="rgb(0, 0, 0)" stroke-linejoin="round" d=" M 236.410, 241.300 236.404, 241.300 234.745, 241.506 234.763, 241.605 " stroke-name="b_2429_p1b2428" stroke-occlusion=" True True True True " />
            <path fill="none" stroke-width="1.0" stroke-linecap="round" stroke-opacity="1.0" stroke="rgb(0, 0, 0)" stroke-linejoin="round" d=" M 231.534, 214.266 229.608, 214.724 229.614, 214.755 " stroke-name="b_2429_p1b2428" stroke-occlusion=" True True True " />
            <path fill="none" stroke-width="1.0" stroke-linecap="round" stroke-opacity="1.0" stroke="rgb(0, 0, 0)" stroke-linejoin="round" d=" M 249.896, 326.660 249.915, 326.788 245.028, 327.597 244.898, 327.623 " stroke-name="b_2429_p1b2428" stroke-occlusion=" True True True True " />
            <path fill="none" stroke-width="1.0" stroke-linecap="round" stroke-opacity="1.0" stroke="rgb(0, 0, 0)" stroke-linejoin="round" d=" M 249.718, 325.664 249.863, 326.651 249.896, 326.660 " stroke-name="b_2429_p1b2428" stroke-occlusion=" True True True " />
            <path fill="none" stroke-width="1.0" stroke-linecap="round" stroke-opacity="1.0" stroke="rgb(0, 0, 0)" stroke-linejoin="round" d=" M 252.222, 317.517 248.615, 318.188 248.289, 318.517 249.718, 325.664 " stroke-name="b_2429_p1b2428" stroke-occlusion=" True True True True " />
            <path fill="none" stroke-width="1.0" stroke-linecap="round" stroke-opacity="1.0" stroke="rgb(0, 0, 0)" stroke-linejoin="round" d=" M 189.281, 165.511 189.145, 165.585 193.840, 190.140 198.536, 214.695 203.231, 239.250 207.927, 263.805 212.622, 288.360 217.318, 312.915 222.014, 337.470 225.597, 356.208 " stroke-name="b_2429_p1b2428" stroke-occlusion=" True True True True True True True True True True " />
            <path fill="none" stroke-width="1.0" stroke-linecap="round" stroke-opacity="1.0" stroke="rgb(0, 0, 0)" stroke-linejoin="round" d=" M 241.238, 328.552 245.860, 353.121 246.503, 356.536 246.551, 356.639 255.664, 354.905 " stroke-name="b_2429_p1b2428" stroke-occlusion=" True True True True True " />
            <path fill="none" stroke-width="1.0" stroke-linecap="round" stroke-opacity="1.0" stroke="rgb(0, 0, 0)" stroke-linejoin="round" d=" M 261.910, 353.717 272.644, 351.675 272.780, 351.600 " stroke-name="b_2429_p1b2428" stroke-occlusion=" True True True " />
            <path fill="none" stroke-width="1.0" stroke-linecap="round" stroke-opacity="1.0" stroke="rgb(0, 0, 0)" stroke-linejoin="round" d=" M 232.021, 330.349 241.238, 328.552 " stroke-name="b_2429_p1b2428" stroke-occlusion=" True True " />
            <path fill="none" stroke-width="1.0" stroke-linecap="round" stroke-opacity="1.0" stroke="rgb(0, 0, 0)" stroke-linejoin="round" d=" M 270.206, 314.173 268.849, 307.662 268.848, 307.657 268.843, 307.635 267.116, 307.969 " stroke-name="b_2429_p1b2428" stroke-occlusion=" True True True True True " />
            <path fill="none" stroke-width="1.0" stroke-linecap="round" stroke-opacity="1.0" stroke="rgb(0, 0, 0)" stroke-linejoin="round" d=" M 246.745, 265.496 241.724, 266.579 241.701, 266.762 " stroke-name="b_2429_p1b2428" stroke-occlusion=" True True True " />
            <path fill="none" stroke-width="1.0" stroke-linecap="round" stroke-opacity="1.0" stroke="rgb(0, 0, 0)" stroke-linejoin="round" d=" M 241.582, 267.709 239.687, 268.159 239.716, 268.300 " stroke-name="b_2429_p1b2428" stroke-occlusion=" True True True " />
            <path fill="none" stroke-width="1.0" stroke-linecap="round" stroke-opacity="1.0" stroke="rgb(0, 0, 0)" stroke-linejoin="round" d=" M 239.687, 268.307 236.611, 268.922 235.009, 261.730 235.008, 261.727 " stroke-name="b_2429_p1b2428" stroke-occlusion=" True True True True " />
            <path fill="none" stroke-width="1.0" stroke-linecap="round" stroke-opacity="1.0" stroke="rgb(0, 0, 0)" stroke-linejoin="round" d=" M 313.843, 287.070 313.841, 287.070 311.500, 287.458 310.962, 287.660 " stroke-name="b_2428_p1b2427" stroke-occlusion=" True True True True " />
            <path fill="none" stroke-width="1.0" stroke-linecap="round" stroke-opacity="1.0" stroke="rgb(0, 0, 0)" stroke-linejoin="round" d=" M 287.423, 256.329 287.388, 254.999 287.633, 253.767 " stroke-name="b_2428_p1b2427" stroke-occlusion=" True True True " />
            <path fill="none" stroke-width="1.0" stroke-linecap="round" stroke-opacity="1.0" stroke="rgb(0, 0, 0)" stroke-linejoin="round" d=" M 288.588, 263.697 288.953, 263.534 288.775, 262.642 " stroke-name="b_2428_p1b2427" stroke-occlusion=" True True True " />
            <path fill="none" stroke-width="1.0" stroke-linecap="round" stroke-opacity="1.0" stroke="rgb(0, 0, 0)" stroke-linejoin="round" d=" M 288.775, 262.642 292.251, 262.021 292.522, 262.806 288.591, 263.711 " stroke-name="b_2428_p1b2427" stroke-occlusion=" True True True True " />
            <path fill="none" stroke-width="1.0" stroke-linecap="round" stroke-opacity="1.0" stroke="rgb(0, 0, 0)" stroke-linejoin="round" d=" M 278.101, 252.964 276.424, 253.172 276.597, 253.930 " stroke-name="b_2428_p1b2427" stroke-occlusion=" True True True " />
            <path fill="none" stroke-width="1.0" stroke-linecap="round" stroke-opacity="1.0" stroke="rgb(0, 0, 0)" stroke-linejoin="round" d=" M 347.361, 307.304 347.501, 307.276 346.965, 305.040 " stroke-name="b_2428_p1b2427" stroke-occlusion=" True True True " />
            <path fill="none" stroke-width="1.0" stroke-linecap="round" stroke-opacity="1.0" stroke="rgb(0, 0, 0)" stroke-linejoin="round" d=" M 346.965, 305.040 346.581, 302.834 341.495, 278.357 340.599, 274.044 339.626, 274.238 " stroke-name="b_2428_p1b2427" stroke-occlusion=" True True True True True " />
            <path fill="none" stroke-width="1.0" stroke-linecap="round" stroke-opacity="1.0" stroke="rgb(0, 0, 0)" stroke-linejoin="round" d=" M 286.528, 247.763 277.847, 249.367 277.496, 249.645 278.193, 252.944 " stroke-name="b_2428_p1b2427" stroke-occlusion=" True True True True " />
            <path fill="none" stroke-width="1.0" stroke-linecap="round" stroke-opacity="1.0" stroke="rgb(0, 0, 0)" stroke-linejoin="round" d=" M 283.602, 292.853 284.088, 292.969 285.180, 292.615 285.180, 292.615 285.222, 292.602 " stroke-name="b_2428_p1b2427" stroke-occlusion=" True True True True True " />
            <path fill="none" stroke-width="1.0" stroke-linecap="round" stroke-opacity="1.0" stroke="rgb(0, 0, 0)" stroke-linejoin="round" d=" M 290.667, 271.253 300.315, 269.538 300.106, 268.530 " stroke-name="b_2428_p1b2427" stroke-occlusion=" True True True " />
            <path fill="none" stroke-width="1.0" stroke-linecap="round" stroke-opacity="1.0" stroke="rgb(0, 0, 0)" stroke-linejoin="round" d=" M 304.385, 256.152 303.379, 256.354 303.348, 256.360 303.253, 255.828 302.856, 253.611 302.624, 253.329 301.231, 253.780 " stroke-name="b_2428_p1b2427" stroke-occlusion=" True True True True True True True " />
            <path fill="none" stroke-width="1.0" stroke-linecap="round" stroke-opacity="1.0" stroke="rgb(0, 0, 0)" stroke-linejoin="round" d=" M 301.231, 253.780 301.096, 253.794 300.655, 252.465 300.470, 252.435 291.089, 254.312 290.848, 254.430 290.727, 254.489 290.985, 255.691 " stroke-name="b_2428_p1b2427" stroke-occlusion=" True True True True True True True True " />
            <path fill="none" stroke-width="1.0" stroke-linecap="round" stroke-opacity="1.0" stroke="rgb(0, 0, 0)" stroke-linejoin="round" d=" M 312.498, 260.917 312.656, 261.710 311.093, 262.022 310.973, 262.081 312.633, 270.005 314.196, 269.692 314.461, 270.845 " stroke-name="b_2428_p1b2427" stroke-occlusion=" True True True True True True True " />
            <path fill="none" stroke-width="1.0" stroke-linecap="round" stroke-opacity="1.0" stroke="rgb(0, 0, 0)" stroke-linejoin="round" d=" M 334.550, 248.186 335.668, 247.809 335.733, 247.581 334.120, 238.943 309.564, 243.635 306.037, 244.308 305.776, 244.408 305.655, 244.467 " stroke-name="b_2428_p1b2427" stroke-occlusion=" True True True True True True True True " />
            <path fill="none" stroke-width="1.0" stroke-linecap="round" stroke-opacity="1.0" stroke="rgb(0, 0, 0)" stroke-linejoin="round" d=" M 295.754, 252.062 296.363, 251.947 295.391, 247.366 289.260, 248.345 " stroke-name="b_2428_p1b2427" stroke-occlusion=" True True True True " />
            <path fill="none" stroke-width="1.0" stroke-linecap="round" stroke-opacity="1.0" stroke="rgb(0, 0, 0)" stroke-linejoin="round" d=" M 283.215, 283.344 282.204, 283.547 282.211, 283.614 282.414, 284.658 " stroke-name="b_2428_p1b2427" stroke-occlusion=" True True True True " />
            <path fill="none" stroke-width="1.0" stroke-linecap="round" stroke-opacity="1.0" stroke="rgb(0, 0, 0)" stroke-linejoin="round" d=" M 292.709, 330.254 295.939, 347.140 320.504, 342.498 345.069, 337.855 352.437, 336.463 352.788, 336.186 352.912, 336.160 348.189, 311.610 347.361, 307.304 " stroke-name="b_2428_p1b2427" stroke-occlusion=" True True True True True True True True True " />
            <path fill="none" stroke-width="1.0" stroke-linecap="round" stroke-opacity="1.0" stroke="rgb(0, 0, 0)" stroke-linejoin="round" d=" M 298.859, 261.788 301.842, 261.191 302.341, 260.940 302.088, 259.788 " stroke-name="b_2428_p1b2427" stroke-occlusion=" True True True True " />
            <path fill="none" stroke-width="1.0" stroke-linecap="round" stroke-opacity="1.0" stroke="rgb(0, 0, 0)" stroke-linejoin="round" d=" M 278.885, 265.617 278.888, 265.632 279.072, 265.661 279.226, 265.561 " stroke-name="b_2428_p1b2427" stroke-occlusion=" True True True True " />
            <path fill="none" stroke-width="1.0" stroke-linecap="round" stroke-opacity="1.0" stroke="rgb(0, 0, 0)" stroke-linejoin="round" d=" M 310.552, 287.646 310.540, 287.327 309.926, 284.350 " stroke-name="b_2428_p1b2427" stroke-occlusion=" True True True " />
            <path fill="none" stroke-width="1.0" stroke-linecap="round" stroke-opacity="1.0" stroke="rgb(0, 0, 0)" stroke-linejoin="round" d=" M 276.597, 253.930 278.587, 265.545 278.885, 265.617 " stroke-name="b_2428_p1b2427" stroke-occlusion=" True True True " />
            <path fill="none" stroke-width="1.0" stroke-linecap="round" stroke-opacity="1.0" stroke="rgb(0, 0, 0)" stroke-linejoin="round" d=" M 289.260, 248.345 289.201, 247.423 289.125, 247.235 286.528, 247.763 " stroke-name="b_2428_p1b2427" stroke-occlusion=" True True True True " />
            <path fill="none" stroke-width="1.0" stroke-linecap="round" stroke-opacity="1.0" stroke="rgb(0, 0, 0)" stroke-linejoin="round" d=" M 308.886, 278.663 312.047, 277.997 313.841, 287.070 " stroke-name="b_2428_p1b2427" stroke-occlusion=" True True True " />
            <path fill="none" stroke-width="1.0" stroke-linecap="round" stroke-opacity="1.0" stroke="rgb(0, 0, 0)" stroke-linejoin="round" d=" M 308.270, 256.975 309.124, 261.158 309.199, 261.347 312.438, 260.665 " stroke-name="b_2428_p1b2427" stroke-occlusion=" True True True True " />
            <path fill="none" stroke-width="1.0" stroke-linecap="round" stroke-opacity="1.0" stroke="rgb(0, 0, 0)" stroke-linejoin="round" d=" M 311.297, 271.338 310.846, 268.820 286.278, 273.449 285.476, 273.601 281.902, 274.274 281.900, 274.274 281.882, 274.278 281.941, 274.557 " stroke-name="b_2428_p1b2427" stroke-occlusion=" True True True True True True True True " />
            <path fill="none" stroke-width="1.0" stroke-linecap="round" stroke-opacity="1.0" stroke="rgb(0, 0, 0)" stroke-linejoin="round" d=" M 302.088, 259.788 303.941, 259.348 304.038, 259.237 303.776, 258.145 " stroke-name="b_2428_p1b2427" stroke-occlusion=" True True True True " />
            <path fill="none" stroke-width="1.0" stroke-linecap="round" stroke-opacity="1.0" stroke="rgb(0, 0, 0)" stroke-linejoin="round" d=" M 285.180, 292.615 289.693, 315.384 289.769, 315.574 " stroke-name="b_2428_p1b2427" stroke-occlusion=" True True True " />
            <path fill="none" stroke-width="1.0" stroke-linecap="round" stroke-opacity="1.0" stroke="rgb(0, 0, 0)" stroke-linejoin="round" d=" M 406.276, 243.266 406.537, 243.215 402.918, 225.680 402.778, 225.671 402.777, 225.671 " stroke-name="b_2396_p1b2395" stroke-occlusion=" True True True True True " />
            <path fill="none" stroke-width="1.0" stroke-linecap="round" stroke-opacity="1.0" stroke="rgb(0, 0, 0)" stroke-linejoin="round" d=" M 365.975, 251.102 370.540, 250.255 372.486, 259.837 373.576, 265.201 " stroke-name="b_2396_p1b2395" stroke-occlusion=" True True True True " />
            <path fill="none" stroke-width="1.0" stroke-linecap="round" stroke-opacity="1.0" stroke="rgb(0, 0, 0)" stroke-linejoin="round" d=" M 377.365, 285.865 401.897, 281.047 412.933, 278.880 413.194, 278.780 411.867, 271.858 " stroke-name="b_2396_p1b2395" stroke-occlusion=" True True True True True " />
            <path fill="none" stroke-width="1.0" stroke-linecap="round" stroke-opacity="1.0" stroke="rgb(0, 0, 0)" stroke-linejoin="round" d=" M 412.904, 271.554 412.974, 271.534 412.971, 271.501 410.521, 258.675 409.377, 258.867 " stroke-name="b_2396_p1b2395" stroke-occlusion=" True True True True True " />
            <path fill="none" stroke-width="1.0" stroke-linecap="round" stroke-opacity="1.0" stroke="rgb(0, 0, 0)" stroke-linejoin="round" d=" M 346.339, 236.453 349.820, 254.062 349.897, 254.249 " stroke-name="b_2396_p1b2395" stroke-occlusion=" True True True " />
            <path fill="none" stroke-width="1.0" stroke-linecap="round" stroke-opacity="1.0" stroke="rgb(0, 0, 0)" stroke-linejoin="round" d=" M 412.620, 271.778 412.904, 271.554 " stroke-name="b_2396_p1b2395" stroke-occlusion=" True True " />
            <path fill="none" stroke-width="1.0" stroke-linecap="round" stroke-opacity="1.0" stroke="rgb(0, 0, 0)" stroke-linejoin="round" d=" M 423.184, 322.456 423.476, 321.976 423.537, 321.713 422.839, 321.315 " stroke-name="b_2396_p1b2395" stroke-occlusion=" True True True True " />
            <path fill="none" stroke-width="1.0" stroke-linecap="round" stroke-opacity="1.0" stroke="rgb(0, 0, 0)" stroke-linejoin="round" d=" M 414.362, 291.883 413.856, 288.331 404.732, 290.074 395.635, 291.902 385.088, 293.919 384.851, 294.070 385.667, 297.851 " stroke-name="b_2396_p1b2395" stroke-occlusion=" True True True True True True True " />
            <path fill="none" stroke-width="1.0" stroke-linecap="round" stroke-opacity="1.0" stroke="rgb(0, 0, 0)" stroke-linejoin="round" d=" M 417.916, 301.194 417.856, 298.644 418.505, 297.804 418.527, 297.505 418.148, 295.448 418.109, 295.411 416.958, 294.718 415.024, 295.058 " stroke-name="b_2396_p1b2395" stroke-occlusion=" True True True True True True True True " />
            <path fill="none" stroke-width="1.0" stroke-linecap="round" stroke-opacity="1.0" stroke="rgb(0, 0, 0)" stroke-linejoin="round" d=" M 422.242, 324.718 422.527, 324.512 422.628, 324.287 423.237, 323.411 423.184, 322.456 " stroke-name="b_2396_p1b2395" stroke-occlusion=" True True True True True " />
            <path fill="none" stroke-width="1.0" stroke-linecap="round" stroke-opacity="1.0" stroke="rgb(0, 0, 0)" stroke-linejoin="round" d=" M 420.990, 311.129 421.309, 310.852 420.890, 308.758 419.350, 308.168 " stroke-name="b_2396_p1b2395" stroke-occlusion=" True True True True " />
            <path fill="none" stroke-width="1.0" stroke-linecap="round" stroke-opacity="1.0" stroke="rgb(0, 0, 0)" stroke-linejoin="round" d=" M 422.747, 321.246 421.554, 319.933 422.503, 317.396 422.146, 315.040 420.543, 314.705 " stroke-name="b_2396_p1b2395" stroke-occlusion=" True True True True True " />
            <path fill="none" stroke-width="1.0" stroke-linecap="round" stroke-opacity="1.0" stroke="rgb(0, 0, 0)" stroke-linejoin="round" d=" M 410.927, 325.576 412.015, 326.997 415.080, 326.634 415.217, 326.560 " stroke-name="b_2396_p1b2395" stroke-occlusion=" True True True True " />
            <path fill="none" stroke-width="1.0" stroke-linecap="round" stroke-opacity="1.0" stroke="rgb(0, 0, 0)" stroke-linejoin="round" d=" M 359.737, 306.248 359.601, 306.321 362.450, 321.151 " stroke-name="b_2396_p1b2395" stroke-occlusion=" True True True " />
            <path fill="none" stroke-width="1.0" stroke-linecap="round" stroke-opacity="1.0" stroke="rgb(0, 0, 0)" stroke-linejoin="round" d=" M 420.543, 314.705 420.056, 311.986 420.998, 311.167 " stroke-name="b_2396_p1b2395" stroke-occlusion=" True True True " />
            <path fill="none" stroke-width="1.0" stroke-linecap="round" stroke-opacity="1.0" stroke="rgb(0, 0, 0)" stroke-linejoin="round" d=" M 419.308, 307.935 419.247, 305.318 419.857, 304.441 419.499, 302.085 417.991, 301.506 " stroke-name="b_2396_p1b2395" stroke-occlusion=" True True True True True " />
            <path fill="none" stroke-width="1.0" stroke-linecap="round" stroke-opacity="1.0" stroke="rgb(0, 0, 0)" stroke-linejoin="round" d=" M 420.849, 325.269 421.139, 325.254 422.080, 324.900 422.216, 324.826 " stroke-name="b_2396_p1b2395" stroke-occlusion=" True True True True " />
            <path fill="none" stroke-width="1.0" stroke-linecap="round" stroke-opacity="1.0" stroke="rgb(0, 0, 0)" stroke-linejoin="round" d=" M 382.326, 330.826 393.464, 328.764 393.456, 328.697 393.260, 327.716 " stroke-name="b_2396_p1b2395" stroke-occlusion=" True True True True " />
            <path fill="none" stroke-width="1.0" stroke-linecap="round" stroke-opacity="1.0" stroke="rgb(0, 0, 0)" stroke-linejoin="round" d=" M 255.372, 86.609 254.013, 79.943 253.620, 78.017 248.921, 53.346 248.732, 53.284 224.196, 58.079 215.050, 59.867 " stroke-name="b_2361_p1b2360" stroke-occlusion=" True True True True True True True " />
            <path fill="none" stroke-width="1.0" stroke-linecap="round" stroke-opacity="1.0" stroke="rgb(0, 0, 0)" stroke-linejoin="round" d=" M 184.699, 65.710 171.360, 68.173 171.123, 68.323 175.901, 92.863 180.678, 117.402 181.357, 120.887 205.906, 116.163 230.456, 111.439 255.006, 106.715 258.729, 105.998 258.865, 105.925 " stroke-name="b_2361_p1b2360" stroke-occlusion=" True True True True True True True True True True True " />
            <path fill="none" stroke-width="1.0" stroke-linecap="round" stroke-opacity="1.0" stroke="rgb(0, 0, 0)" stroke-linejoin="round" d=" M 256.919, 94.637 262.558, 93.757 262.695, 93.683 262.474, 91.067 " stroke-name="b_2361_p1b2360" stroke-occlusion=" True True True True " />
            <path fill="none" stroke-width="1.0" stroke-linecap="round" stroke-opacity="1.0" stroke="rgb(0, 0, 0)" stroke-linejoin="round" d=" M 258.836, 105.931 258.863, 105.913 258.863, 105.913 258.966, 105.848 256.919, 94.637 " stroke-name="b_2361_p1b2360" stroke-occlusion=" True True True True True " />
            <path fill="none" stroke-width="1.0" stroke-linecap="round" stroke-opacity="1.0" stroke="rgb(0, 0, 0)" stroke-linejoin="round" d=" M 262.474, 91.067 262.458, 86.453 256.642, 86.586 255.373, 86.615 " stroke-name="b_2361_p1b2360" stroke-occlusion=" True True True True " />
            <path fill="none" stroke-width="1.0" stroke-linecap="round" stroke-opacity="1.0" stroke="rgb(0, 0, 0)" stroke-linejoin="round" d=" M 391.507, 164.643 386.901, 140.071 384.629, 127.949 383.266, 121.361 382.670, 119.163 " stroke-name="b_2360_p1b2359" stroke-occlusion=" True True True True True " />
            <path fill="none" stroke-width="1.0" stroke-linecap="round" stroke-opacity="1.0" stroke="rgb(0, 0, 0)" stroke-linejoin="round" d=" M 382.294, 117.216 382.574, 117.166 377.911, 94.411 " stroke-name="b_2360_p1b2359" stroke-occlusion=" True True True " />
            <path fill="none" stroke-width="1.0" stroke-linecap="round" stroke-opacity="1.0" stroke="rgb(0, 0, 0)" stroke-linejoin="round" d=" M 332.442, 163.713 313.286, 167.380 313.021, 167.446 315.606, 180.665 312.138, 181.358 " stroke-name="b_2360_p1b2359" stroke-occlusion=" True True True True True " />
            <path fill="none" stroke-width="1.0" stroke-linecap="round" stroke-opacity="1.0" stroke="rgb(0, 0, 0)" stroke-linejoin="round" d=" M 328.871, 189.406 353.433, 184.745 377.995, 180.085 393.839, 177.079 394.076, 176.927 391.507, 164.643 " stroke-name="b_2360_p1b2359" stroke-occlusion=" True True True True True True " />
            <path fill="none" stroke-width="1.0" stroke-linecap="round" stroke-opacity="1.0" stroke="rgb(0, 0, 0)" stroke-linejoin="round" d=" M 317.670, 191.531 317.673, 191.548 328.871, 189.406 " stroke-name="b_2360_p1b2359" stroke-occlusion=" True True True " />
            <path fill="none" stroke-width="1.0" stroke-linecap="round" stroke-opacity="1.0" stroke="rgb(0, 0, 0)" stroke-linejoin="round" d=" M 377.911, 94.411 378.194, 94.348 373.588, 69.776 371.505, 58.665 366.809, 34.110 366.032, 30.044 342.140, 34.723 342.426, 35.958 " stroke-name="b_2360_p1b2359" stroke-occlusion=" True True True True True True True True " />
            <path fill="none" stroke-width="1.0" stroke-linecap="round" stroke-opacity="1.0" stroke="rgb(0, 0, 0)" stroke-linejoin="round" d=" M 313.174, 41.651 313.146, 41.493 310.018, 42.118 309.515, 42.336 309.395, 42.395 " stroke-name="b_2360_p1b2359" stroke-occlusion=" True True True True True " />
            <path fill="none" stroke-width="1.0" stroke-linecap="round" stroke-opacity="1.0" stroke="rgb(0, 0, 0)" stroke-linejoin="round" d=" M 312.138, 181.358 294.067, 184.766 293.717, 185.042 295.381, 192.748 " stroke-name="b_2360_p1b2359" stroke-occlusion=" True True True True " />
            <path fill="none" stroke-width="1.0" stroke-linecap="round" stroke-opacity="1.0" stroke="rgb(0, 0, 0)" stroke-linejoin="round" d=" M 295.381, 192.748 295.870, 195.715 300.501, 194.788 " stroke-name="b_2360_p1b2359" stroke-occlusion=" True True True " />
            <path fill="none" stroke-width="1.0" stroke-linecap="round" stroke-opacity="1.0" stroke="rgb(0, 0, 0)" stroke-linejoin="round" d=" M 436.278, 210.006 430.421, 211.177 435.243, 235.708 436.457, 241.886 436.316, 241.926 440.428, 262.209 440.476, 262.313 448.490, 260.879 446.614, 249.275 453.748, 247.932 453.884, 247.859 " stroke-name="b_2359_p1b2358" stroke-occlusion=" True True True True True True True True True True True " />
            <path fill="none" stroke-width="1.0" stroke-linecap="round" stroke-opacity="1.0" stroke="rgb(0, 0, 0)" stroke-linejoin="round" d=" M 454.628, 243.567 459.211, 218.991 461.735, 205.459 459.214, 180.586 458.452, 173.068 455.993, 148.189 454.183, 129.864 453.869, 129.844 " stroke-name="b_2359_p1b2358" stroke-occlusion=" True True True True True True True True " />
            <path fill="none" stroke-width="1.0" stroke-linecap="round" stroke-opacity="1.0" stroke="rgb(0, 0, 0)" stroke-linejoin="round" d=" M 429.511, 134.359 416.584, 136.715 416.520, 136.813 " stroke-name="b_2359_p1b2358" stroke-occlusion=" True True True " />
            <path fill="none" stroke-width="1.0" stroke-linecap="round" stroke-opacity="1.0" stroke="rgb(0, 0, 0)" stroke-linejoin="round" d=" M 416.201, 136.873 420.897, 161.428 422.043, 167.419 " stroke-name="b_2359_p1b2358" stroke-occlusion=" True True True " />
            <path fill="none" stroke-width="1.0" stroke-linecap="round" stroke-opacity="1.0" stroke="rgb(0, 0, 0)" stroke-linejoin="round" d=" M 422.043, 167.419 424.177, 179.422 424.341, 179.434 425.550, 179.192 " stroke-name="b_2359_p1b2358" stroke-occlusion=" True True True True " />
            <path fill="none" stroke-width="1.0" stroke-linecap="round" stroke-opacity="1.0" stroke="rgb(0, 0, 0)" stroke-linejoin="round" d=" M 123.694, 286.977 123.073, 283.355 " stroke-name="b_2430_p1b2429" stroke-occlusion=" True True " />
            <path fill="none" stroke-width="1.0" stroke-linecap="round" stroke-opacity="1.0" stroke="rgb(0, 0, 0)" stroke-linejoin="round" d=" M 136.316, 280.790 136.423, 281.295 " stroke-name="b_2430_p1b2429" stroke-occlusion=" True True " />
            <path fill="none" stroke-width="1.0" stroke-linecap="round" stroke-opacity="1.0" stroke="rgb(0, 0, 0)" stroke-linejoin="round" d=" M 138.377, 284.969 143.826, 283.980 " stroke-name="b_2430_p1b2429" stroke-occlusion=" True True " />
            <path fill="none" stroke-width="1.0" stroke-linecap="round" stroke-opacity="1.0" stroke="rgb(0, 0, 0)" stroke-linejoin="round" d=" M 146.898, 111.526 147.874, 111.294 " stroke-name="b_2430_p1b2429" stroke-occlusion=" True True " />
            <path fill="none" stroke-width="1.0" stroke-linecap="round" stroke-opacity="1.0" stroke="rgb(0, 0, 0)" stroke-linejoin="round" d=" M 146.562, 91.764 144.897, 83.578 " stroke-name="b_2430_p1b2429" stroke-occlusion=" True True " />
            <path fill="none" stroke-width="1.0" stroke-linecap="round" stroke-opacity="1.0" stroke="rgb(0, 0, 0)" stroke-linejoin="round" d=" M 159.962, 277.618 164.422, 276.724 " stroke-name="b_2430_p1b2429" stroke-occlusion=" True True " />
            <path fill="none" stroke-width="1.0" stroke-linecap="round" stroke-opacity="1.0" stroke="rgb(0, 0, 0)" stroke-linejoin="round" d=" M 175.010, 351.047 170.050, 358.522 170.043, 358.532 " stroke-name="b_2476_p1b2475" stroke-occlusion=" True True True " />
            <path fill="none" stroke-width="1.0" stroke-linecap="round" stroke-opacity="1.0" stroke="rgb(0, 0, 0)" stroke-linejoin="round" d=" M 182.288, 355.832 191.026, 362.041 " stroke-name="b_2476_p1b2475" stroke-occlusion=" True True " />
            <path fill="none" stroke-width="1.0" stroke-linecap="round" stroke-opacity="1.0" stroke="rgb(0, 0, 0)" stroke-linejoin="round" d=" M 227.100, 168.126 225.978, 163.146 " stroke-name="b_2429_p1b2428" stroke-occlusion=" True True " />
            <path fill="none" stroke-width="1.0" stroke-linecap="round" stroke-opacity="1.0" stroke="rgb(0, 0, 0)" stroke-linejoin="round" d=" M 229.443, 181.435 228.994, 178.931 " stroke-name="b_2429_p1b2428" stroke-occlusion=" True True " />
            <path fill="none" stroke-width="1.0" stroke-linecap="round" stroke-opacity="1.0" stroke="rgb(0, 0, 0)" stroke-linejoin="round" d=" M 229.614, 214.755 226.482, 215.334 " stroke-name="b_2429_p1b2428" stroke-occlusion=" True True " />
            <path fill="none" stroke-width="1.0" stroke-linecap="round" stroke-opacity="1.0" stroke="rgb(0, 0, 0)" stroke-linejoin="round" d=" M 234.763, 241.605 233.157, 241.888 " stroke-name="b_2429_p1b2428" stroke-occlusion=" True True " />
            <path fill="none" stroke-width="1.0" stroke-linecap="round" stroke-opacity="1.0" stroke="rgb(0, 0, 0)" stroke-linejoin="round" d=" M 230.227, 235.066 240.565, 233.190 " stroke-name="b_2429_p1b2428" stroke-occlusion=" True True " />
            <path fill="none" stroke-width="1.0" stroke-linecap="round" stroke-opacity="1.0" stroke="rgb(0, 0, 0)" stroke-linejoin="round" d=" M 240.950, 291.390 240.422, 288.044 " stroke-name="b_2429_p1b2428" stroke-occlusion=" True True " />
            <path fill="none" stroke-width="1.0" stroke-linecap="round" stroke-opacity="1.0" stroke="rgb(0, 0, 0)" stroke-linejoin="round" d=" M 239.716, 268.300 239.687, 268.307 " stroke-name="b_2429_p1b2428" stroke-occlusion=" True True " />
            <path fill="none" stroke-width="1.0" stroke-linecap="round" stroke-opacity="1.0" stroke="rgb(0, 0, 0)" stroke-linejoin="round" d=" M 241.529, 237.599 241.675, 238.856 " stroke-name="b_2429_p1b2428" stroke-occlusion=" True True " />
            <path fill="none" stroke-width="1.0" stroke-linecap="round" stroke-opacity="1.0" stroke="rgb(0, 0, 0)" stroke-linejoin="round" d=" M 244.898, 327.623 243.304, 319.129 243.303, 319.126 " stroke-name="b_2429_p1b2428" stroke-occlusion=" True True True " />
            <path fill="none" stroke-width="1.0" stroke-linecap="round" stroke-opacity="1.0" stroke="rgb(0, 0, 0)" stroke-linejoin="round" d=" M 235.009, 261.730 245.534, 259.432 " stroke-name="b_2429_p1b2428" stroke-occlusion=" True True " />
            <path fill="none" stroke-width="1.0" stroke-linecap="round" stroke-opacity="1.0" stroke="rgb(0, 0, 0)" stroke-linejoin="round" d=" M 215.050, 59.867 190.501, 64.593 184.699, 65.710 " stroke-name="b_2361_p1b2360" stroke-occlusion=" True True True " />
            <path fill="none" stroke-width="1.0" stroke-linecap="round" stroke-opacity="1.0" stroke="rgb(0, 0, 0)" stroke-linejoin="round" d=" M 278.195, 252.943 278.193, 252.944 278.101, 252.964 " stroke-name="b_2428_p1b2427" stroke-occlusion=" True True True " />
            <path fill="none" stroke-width="1.0" stroke-linecap="round" stroke-opacity="1.0" stroke="rgb(0, 0, 0)" stroke-linejoin="round" d=" M 277.961, 321.369 278.027, 321.353 278.566, 321.221 " stroke-name="b_2429_p1b2428" stroke-occlusion=" True True True " />
            <path fill="none" stroke-width="1.0" stroke-linecap="round" stroke-opacity="1.0" stroke="rgb(0, 0, 0)" stroke-linejoin="round" d=" M 280.159, 333.399 277.961, 321.369 " stroke-name="b_2429_p1b2428" stroke-occlusion=" True True " />
            <path fill="none" stroke-width="1.0" stroke-linecap="round" stroke-opacity="1.0" stroke="rgb(0, 0, 0)" stroke-linejoin="round" d=" M 279.226, 265.561 279.478, 265.509 " stroke-name="b_2428_p1b2427" stroke-occlusion=" True True " />
            <path fill="none" stroke-width="1.0" stroke-linecap="round" stroke-opacity="1.0" stroke="rgb(0, 0, 0)" stroke-linejoin="round" d=" M 307.877, 255.300 304.385, 256.152 " stroke-name="b_2428_p1b2427" stroke-occlusion=" True True " />
            <path fill="none" stroke-width="1.0" stroke-linecap="round" stroke-opacity="1.0" stroke="rgb(0, 0, 0)" stroke-linejoin="round" d=" M 303.714, 257.886 303.739, 257.881 303.740, 257.881 308.270, 256.975 308.271, 256.974 " stroke-name="b_2428_p1b2427" stroke-occlusion=" True True True True True " />
            <path fill="none" stroke-width="1.0" stroke-linecap="round" stroke-opacity="1.0" stroke="rgb(0, 0, 0)" stroke-linejoin="round" d=" M 309.926, 284.350 308.886, 278.663 308.886, 278.662 " stroke-name="b_2428_p1b2427" stroke-occlusion=" True True True " />
            <path fill="none" stroke-width="1.0" stroke-linecap="round" stroke-opacity="1.0" stroke="rgb(0, 0, 0)" stroke-linejoin="round" d=" M 310.569, 287.730 310.568, 287.726 310.552, 287.646 " stroke-name="b_2428_p1b2427" stroke-occlusion=" True True True " />
            <path fill="none" stroke-width="1.0" stroke-linecap="round" stroke-opacity="1.0" stroke="rgb(0, 0, 0)" stroke-linejoin="round" d=" M 314.471, 270.843 314.461, 270.845 311.297, 271.338 " stroke-name="b_2428_p1b2427" stroke-occlusion=" True True True " />
            <path fill="none" stroke-width="1.0" stroke-linecap="round" stroke-opacity="1.0" stroke="rgb(0, 0, 0)" stroke-linejoin="round" d=" M 339.626, 274.238 334.845, 249.699 334.550, 248.186 " stroke-name="b_2428_p1b2427" stroke-occlusion=" True True True " />
            <path fill="none" stroke-width="1.0" stroke-linecap="round" stroke-opacity="1.0" stroke="rgb(0, 0, 0)" stroke-linejoin="round" d=" M 314.258, 41.448 313.174, 41.651 " stroke-name="b_2360_p1b2359" stroke-occlusion=" True True " />
            <path fill="none" stroke-width="1.0" stroke-linecap="round" stroke-opacity="1.0" stroke="rgb(0, 0, 0)" stroke-linejoin="round" d=" M 386.233, 301.060 367.947, 304.672 " stroke-name="b_2396_p1b2395" stroke-occlusion=" True True " />
            <path fill="none" stroke-width="1.0" stroke-linecap="round" stroke-opacity="1.0" stroke="rgb(0, 0, 0)" stroke-linejoin="round" d=" M 378.220, 331.612 382.326, 330.826 " stroke-name="b_2396_p1b2395" stroke-occlusion=" True True " />
            <path fill="none" stroke-width="1.0" stroke-linecap="round" stroke-opacity="1.0" stroke="rgb(0, 0, 0)" stroke-linejoin="round" d=" M 300.501, 194.788 317.670, 191.531 " stroke-name="b_2360_p1b2359" stroke-occlusion=" True True " />
            <path fill="none" stroke-width="1.0" stroke-linecap="round" stroke-opacity="1.0" stroke="rgb(0, 0, 0)" stroke-linejoin="round" d=" M 382.670, 119.163 382.294, 117.216 " stroke-name="b_2360_p1b2359" stroke-occlusion=" True True " />
            <path fill="none" stroke-width="1.0" stroke-linecap="round" stroke-opacity="1.0" stroke="rgb(0, 0, 0)" stroke-linejoin="round" d=" M 409.377, 258.867 406.276, 243.266 " stroke-name="b_2396_p1b2395" stroke-occlusion=" True True " />
            <path fill="none" stroke-width="1.0" stroke-linecap="round" stroke-opacity="1.0" stroke="rgb(0, 0, 0)" stroke-linejoin="round" d=" M 410.662, 324.397 410.858, 324.966 " stroke-name="b_2396_p1b2395" stroke-occlusion=" True True " />
            <path fill="none" stroke-width="1.0" stroke-linecap="round" stroke-opacity="1.0" stroke="rgb(0, 0, 0)" stroke-linejoin="round" d=" M 393.260, 327.716 410.662, 324.397 " stroke-name="b_2396_p1b2395" stroke-occlusion=" True True " />
            <path fill="none" stroke-width="1.0" stroke-linecap="round" stroke-opacity="1.0" stroke="rgb(0, 0, 0)" stroke-linejoin="round" d=" M 411.867, 271.858 411.877, 271.855 412.208, 271.748 " stroke-name="b_2396_p1b2395" stroke-occlusion=" True True True " />
            <path fill="none" stroke-width="1.0" stroke-linecap="round" stroke-opacity="1.0" stroke="rgb(0, 0, 0)" stroke-linejoin="round" d=" M 415.191, 326.090 415.414, 325.002 " stroke-name="b_2396_p1b2395" stroke-occlusion=" True True " />
            <path fill="none" stroke-width="1.0" stroke-linecap="round" stroke-opacity="1.0" stroke="rgb(0, 0, 0)" stroke-linejoin="round" d=" M 419.350, 308.168 419.308, 307.935 " stroke-name="b_2396_p1b2395" stroke-occlusion=" True True " />
            <path fill="none" stroke-width="1.0" stroke-linecap="round" stroke-opacity="1.0" stroke="rgb(0, 0, 0)" stroke-linejoin="round" d=" M 422.839, 321.315 422.747, 321.246 " stroke-name="b_2396_p1b2395" stroke-occlusion=" True True " />
        </g>
    </g>
</svg>
