<?xml version='1.0' encoding='ascii'?>
<svg xmlns="http://www.w3.org/2000/svg" version="1.1" width="512" height="512">
    <g id="ViewLayer_LineSet" xmlns:inkscape="http://www.inkscape.org/namespaces/inkscape" inkscape:groupmode="lineset" inkscape:label="ViewLayer_LineSet">
        <g xmlns:inkscape="http://www.inkscape.org/namespaces/inkscape" inkscape:groupmode="layer" id="strokes" inkscape:label="strokes">
            <path fill="none" stroke-width="1.0" stroke-linecap="round" stroke-opacity="1.0" stroke="rgb(0, 0, 0)" stroke-linejoin="round" d=" M 360.826, 322.976 350.773, 322.927 340.773, 322.879 334.306, 322.848 329.796, 322.806 320.850, 322.739 315.220, 322.693 " stroke-name="p1g9_newyork_plane" stroke-occlusion=" True True True True True True True " />
            <path fill="none" stroke-width="1.0" stroke-linecap="round" stroke-opacity="1.0" stroke="rgb(0, 0, 0)" stroke-linejoin="round" d=" M 86.213, 311.325 86.252, 310.619 86.373, 308.411 86.441, 307.170 86.602, 304.240 86.618, 303.946 86.672, 302.963 76.730, 301.889 75.449, 301.751 65.604, 303.501 61.733, 304.190 62.074, 308.401 62.475, 313.358 52.747, 315.674 43.018, 317.990 36.317, 319.586 36.256, 319.844 36.068, 320.639 35.795, 321.790 35.327, 321.854 " stroke-name="b_1352_p1b1351" stroke-occlusion=" True True True True True True True True True True True True True True True True True True True True " />
            <path fill="none" stroke-width="1.0" stroke-linecap="round" stroke-opacity="1.0" stroke="rgb(0, 0, 0)" stroke-linejoin="round" d=" M 95.096, 308.752 95.365, 305.404 87.186, 304.122 86.602, 304.240 " stroke-name="b_1352_p1b1351" stroke-occlusion=" True True True True " />
            <path fill="none" stroke-width="1.0" stroke-linecap="round" stroke-opacity="1.0" stroke="rgb(0, 0, 0)" stroke-linejoin="round" d=" M 124.779, 298.064 134.644, 296.426 142.436, 295.133 " stroke-name="b_1352_p1b1351" stroke-occlusion=" True True True " />
            <path fill="none" stroke-width="1.0" stroke-linecap="round" stroke-opacity="1.0" stroke="rgb(0, 0, 0)" stroke-linejoin="round" d=" M 142.460, 302.024 142.436, 295.133 137.666, 294.679 127.711, 293.732 120.253, 293.023 110.416, 294.821 101.936, 296.371 101.990, 301.155 102.015, 303.370 " stroke-name="b_1352_p1b1351" stroke-occlusion=" True True True True True True True True True " />
            <path fill="none" stroke-width="1.0" stroke-linecap="round" stroke-opacity="1.0" stroke="rgb(0, 0, 0)" stroke-linejoin="round" d=" M 237.552, 303.872 243.621, 304.339 253.592, 305.108 263.712, 305.888 " stroke-name="b_1352_p1b1351" stroke-occlusion=" True True True True " />
            <path fill="none" stroke-width="1.0" stroke-linecap="round" stroke-opacity="1.0" stroke="rgb(0, 0, 0)" stroke-linejoin="round" d=" M 270.099, 311.956 270.141, 310.891 270.201, 309.353 270.217, 308.940 270.218, 308.919 270.234, 308.509 270.428, 303.568 270.511, 301.451 260.612, 300.029 253.934, 299.070 246.539, 299.420 246.001, 299.979 242.529, 301.579 239.963, 302.761 237.552, 303.872 237.603, 305.756 237.617, 306.269 237.647, 307.370 " stroke-name="b_1352_p1b1351" stroke-occlusion=" True True True True True True True True True True True True True True True True True True " />
            <path fill="none" stroke-width="1.0" stroke-linecap="round" stroke-opacity="1.0" stroke="rgb(0, 0, 0)" stroke-linejoin="round" d=" M 264.003, 316.447 263.946, 314.363 263.863, 311.351 263.793, 308.813 263.782, 308.413 263.781, 308.392 263.769, 307.964 263.712, 305.888 267.577, 303.365 270.511, 301.451 " stroke-name="b_1352_p1b1351" stroke-occlusion=" True True True True True True True True True True " />
            <path fill="none" stroke-width="1.0" stroke-linecap="round" stroke-opacity="1.0" stroke="rgb(0, 0, 0)" stroke-linejoin="round" d=" M 273.677, 325.022 273.673, 323.267 273.671, 322.427 273.671, 322.179 273.669, 321.051 273.658, 315.950 273.657, 315.169 273.649, 311.166 273.646, 309.643 273.645, 309.221 273.645, 309.200 270.218, 308.919 " stroke-name="b_1352_p1b1351" stroke-occlusion=" True True True True True True True True True True True True " />
            <path fill="none" stroke-width="1.0" stroke-linecap="round" stroke-opacity="1.0" stroke="rgb(0, 0, 0)" stroke-linejoin="round" d=" M 273.910, 323.300 273.816, 322.428 273.669, 321.051 " stroke-name="b_1352_p1b1351" stroke-occlusion=" True True True " />
            <path fill="none" stroke-width="1.0" stroke-linecap="round" stroke-opacity="1.0" stroke="rgb(0, 0, 0)" stroke-linejoin="round" d=" M 130.043, 417.130 138.149, 411.275 146.256, 405.420 154.362, 399.564 162.469, 393.709 170.575, 387.854 178.681, 381.998 186.788, 376.143 194.718, 370.415 196.998, 370.747 201.456, 371.397 211.075, 372.799 210.991, 382.799 210.908, 392.798 210.824, 402.798 210.741, 412.798 210.657, 422.797 210.574, 432.797 210.490, 442.796 210.407, 452.796 210.324, 462.796 210.240, 472.795 210.157, 482.795 210.073, 492.795 210.062, 494.190 210.017, 499.550 209.108, 509.508 208.892, 511.883 208.319, 518.161 " stroke-name="b_1352_p1b1351" stroke-occlusion=" True True True True True True True True True True True True True True True True True True True True True True True True True True True True True " />
            <path fill="none" stroke-width="1.0" stroke-linecap="round" stroke-opacity="1.0" stroke="rgb(0, 0, 0)" stroke-linejoin="round" d=" M 130.952, 376.402 130.729, 386.400 130.506, 396.397 130.280, 406.503 130.057, 416.500 130.043, 417.130 127.073, 416.583 " stroke-name="b_1352_p1b1351" stroke-occlusion=" True True True True True True True " />
            <path fill="none" stroke-width="1.0" stroke-linecap="round" stroke-opacity="1.0" stroke="rgb(0, 0, 0)" stroke-linejoin="round" d=" M 195.265, 341.844 190.853, 344.215 182.044, 348.948 174.711, 352.889 171.642, 354.538 162.833, 359.271 154.025, 364.005 145.216, 368.738 136.407, 373.471 130.952, 376.402 127.910, 376.484 " stroke-name="b_1352_p1b1351" stroke-occlusion=" True True True True True True True True True True True " />
            <path fill="none" stroke-width="1.0" stroke-linecap="round" stroke-opacity="1.0" stroke="rgb(0, 0, 0)" stroke-linejoin="round" d=" M 122.230, 420.128 127.073, 416.583 127.240, 408.574 127.449, 398.576 127.658, 388.579 127.867, 378.581 127.910, 376.484 121.821, 380.070 " stroke-name="b_1352_p1b1351" stroke-occlusion=" True True True True True True True True " />
            <path fill="none" stroke-width="1.0" stroke-linecap="round" stroke-opacity="1.0" stroke="rgb(0, 0, 0)" stroke-linejoin="round" d=" M 275.198, 325.036 277.979, 322.441 284.785, 316.092 290.202, 311.039 291.033, 310.264 " stroke-name="b_1352_p1b1351" stroke-occlusion=" True True True True True " />
            <path fill="none" stroke-width="1.0" stroke-linecap="round" stroke-opacity="1.0" stroke="rgb(0, 0, 0)" stroke-linejoin="round" d=" M 290.026, 371.082 290.037, 362.314 290.151, 356.359 290.342, 346.360 290.534, 336.362 290.725, 326.364 290.776, 323.708 290.799, 322.497 290.912, 316.601 290.990, 312.527 291.017, 311.108 291.033, 310.264 288.393, 310.041 " stroke-name="b_1352_p1b1351" stroke-occlusion=" True True True True True True True True True True True True True " />
            <path fill="none" stroke-width="1.0" stroke-linecap="round" stroke-opacity="1.0" stroke="rgb(0, 0, 0)" stroke-linejoin="round" d=" M 239.963, 302.761 230.000, 301.901 226.933, 301.637 220.670, 304.327 219.589, 304.791 217.170, 305.830 217.187, 306.309 217.230, 307.535 " stroke-name="b_1352_p1b1351" stroke-occlusion=" True True True True True True True True " />
            <path fill="none" stroke-width="1.0" stroke-linecap="round" stroke-opacity="1.0" stroke="rgb(0, 0, 0)" stroke-linejoin="round" d=" M 217.187, 306.309 216.206, 306.117 212.937, 305.478 208.315, 307.459 206.462, 308.253 204.952, 308.900 201.892, 308.655 191.924, 307.858 190.664, 307.757 184.410, 307.257 179.650, 306.876 177.251, 307.667 169.778, 307.060 159.811, 306.250 159.001, 306.184 153.546, 305.741 153.190, 305.712 152.938, 305.777 149.341, 306.695 139.652, 309.167 129.962, 311.639 120.273, 314.112 110.583, 316.584 100.893, 319.056 93.217, 321.015 83.527, 323.487 76.441, 325.295 71.611, 326.528 61.693, 325.250 51.775, 323.973 41.990, 322.713 41.824, 322.691 36.400, 321.993 35.327, 321.854 25.610, 320.603 15.692, 319.325 14.043, 319.113 4.125, 317.835 -5.793, 316.558 -15.711, 315.281 -25.629, 314.003 -31.158, 313.291 " stroke-name="b_1352_p1b1351" stroke-occlusion=" True True True True True True True True True True True True True True True True True True True True True True True True True True True True True True True True True True True True True True True True True True " />
            <path fill="none" stroke-width="1.0" stroke-linecap="round" stroke-opacity="1.0" stroke="rgb(0, 0, 0)" stroke-linejoin="round" d=" M 146.933, 425.725 154.646, 419.360 162.360, 412.996 170.073, 406.631 177.786, 400.267 185.499, 393.902 193.212, 387.538 194.500, 386.476 202.213, 380.111 209.926, 373.747 211.075, 372.799 " stroke-name="b_1352_p1b1351" stroke-occlusion=" True True True True True True True True True True True " />
            <path fill="none" stroke-width="1.0" stroke-linecap="round" stroke-opacity="1.0" stroke="rgb(0, 0, 0)" stroke-linejoin="round" d=" M 217.230, 307.535 224.510, 307.952 " stroke-name="b_1352_p1b1351" stroke-occlusion=" True True " />
            <path fill="none" stroke-width="1.0" stroke-linecap="round" stroke-opacity="1.0" stroke="rgb(0, 0, 0)" stroke-linejoin="round" d=" M 62.475, 313.358 72.434, 314.261 72.829, 314.297 " stroke-name="b_1352_p1b1351" stroke-occlusion=" True True True " />
            <path fill="none" stroke-width="1.0" stroke-linecap="round" stroke-opacity="1.0" stroke="rgb(0, 0, 0)" stroke-linejoin="round" d=" M 86.213, 311.325 76.451, 313.493 72.829, 314.297 73.004, 311.178 73.274, 306.368 73.323, 305.502 " stroke-name="b_1352_p1b1351" stroke-occlusion=" True True True True True True " />
            <path fill="none" stroke-width="1.0" stroke-linecap="round" stroke-opacity="1.0" stroke="rgb(0, 0, 0)" stroke-linejoin="round" d=" M 124.398, 305.545 134.214, 303.632 142.460, 302.024 " stroke-name="b_1352_p1b1351" stroke-occlusion=" True True True " />
            <path fill="none" stroke-width="1.0" stroke-linecap="round" stroke-opacity="1.0" stroke="rgb(0, 0, 0)" stroke-linejoin="round" d=" M 102.015, 303.370 111.968, 304.337 121.921, 305.304 124.398, 305.545 124.648, 300.643 124.779, 298.064 120.690, 297.761 110.717, 297.022 101.936, 296.371 " stroke-name="b_1352_p1b1351" stroke-occlusion=" True True True True True True True True True " />
            <path fill="none" stroke-width="1.0" stroke-linecap="round" stroke-opacity="1.0" stroke="rgb(0, 0, 0)" stroke-linejoin="round" d=" M 252.082, 436.521 252.105, 431.470 252.145, 422.681 252.306, 412.683 252.467, 402.684 252.628, 392.685 252.789, 382.686 252.950, 372.688 253.059, 365.883 253.220, 355.885 253.285, 351.850 253.446, 341.851 253.584, 333.262 245.396, 332.188 243.794, 331.978 233.879, 330.678 230.342, 330.214 229.512, 330.105 227.794, 329.880 " stroke-name="b_1352_p1b1351" stroke-occlusion=" True True True True True True True True True True True True True True True True True True True " />
            <path fill="none" stroke-width="1.0" stroke-linecap="round" stroke-opacity="1.0" stroke="rgb(0, 0, 0)" stroke-linejoin="round" d=" M 175.375, 339.242 185.291, 340.539 195.265, 341.844 195.142, 344.740 194.925, 349.864 194.599, 357.569 194.377, 362.819 194.273, 365.272 197.029, 363.338 " stroke-name="b_1352_p1b1351" stroke-occlusion=" True True True True True True True True True " />
            <path fill="none" stroke-width="1.0" stroke-linecap="round" stroke-opacity="1.0" stroke="rgb(0, 0, 0)" stroke-linejoin="round" d=" M 35.795, 321.790 36.402, 321.876 41.990, 322.666 " stroke-name="b_1352_p1b1351" stroke-occlusion=" True True True " />
            <path fill="none" stroke-width="1.0" stroke-linecap="round" stroke-opacity="1.0" stroke="rgb(0, 0, 0)" stroke-linejoin="round" d=" M 175.375, 339.242 184.380, 334.892 190.149, 332.105 199.154, 327.756 201.702, 326.525 205.269, 324.802 211.094, 321.988 218.938, 318.199 226.009, 314.784 227.760, 313.938 232.540, 311.629 233.987, 310.930 " stroke-name="b_1352_p1b1351" stroke-occlusion=" True True True True True True True True True True True True " />
            <path fill="none" stroke-width="1.0" stroke-linecap="round" stroke-opacity="1.0" stroke="rgb(0, 0, 0)" stroke-linejoin="round" d=" M 233.076, 315.507 233.286, 314.449 233.498, 313.386 233.511, 313.318 233.822, 311.755 233.987, 310.930 228.368, 310.543 227.208, 310.464 224.731, 310.293 224.053, 310.246 220.226, 309.983 " stroke-name="b_1352_p1b1351" stroke-occlusion=" True True True True True True True True True True True " />
            <path fill="none" stroke-width="1.0" stroke-linecap="round" stroke-opacity="1.0" stroke="rgb(0, 0, 0)" stroke-linejoin="round" d=" M 220.226, 309.983 222.891, 308.720 224.510, 307.952 224.332, 308.844 224.053, 310.246 " stroke-name="b_1352_p1b1351" stroke-occlusion=" True True True True True " />
            <path fill="none" stroke-width="1.0" stroke-linecap="round" stroke-opacity="1.0" stroke="rgb(0, 0, 0)" stroke-linejoin="round" d=" M 242.529, 301.579 232.554, 300.867 222.580, 300.156 215.289, 299.636 205.792, 302.768 201.942, 304.038 195.048, 306.311 " stroke-name="b_1352_p1b1351" stroke-occlusion=" True True True True True True True " />
            <path fill="none" stroke-width="1.0" stroke-linecap="round" stroke-opacity="1.0" stroke="rgb(0, 0, 0)" stroke-linejoin="round" d=" M 144.379, 611.119 144.516, 601.120 144.654, 591.121 144.792, 581.122 144.930, 571.123 145.067, 561.124 145.205, 551.125 145.343, 541.126 145.481, 531.127 145.619, 521.128 145.756, 511.129 145.894, 501.129 146.032, 491.130 146.170, 481.131 146.308, 471.132 146.445, 461.133 146.583, 451.134 146.721, 441.135 146.859, 431.136 146.933, 425.725 137.180, 423.515 134.153, 422.829 124.400, 420.620 122.230, 420.128 122.147, 412.046 122.045, 402.046 121.943, 392.047 121.841, 382.047 121.821, 380.070 112.008, 378.144 102.332, 376.245 92.519, 374.319 82.707, 372.393 72.894, 370.467 63.081, 368.541 53.268, 366.615 43.455, 364.689 35.759, 363.178 25.946, 361.252 16.133, 359.326 13.822, 358.873 4.009, 356.947 -0.240, 356.113 " stroke-name="b_1352_p1b1351" stroke-occlusion=" True True True True True True True True True True True True True True True True True True True True True True True True True True True True True True True True True True True True True True True True True True True " />
            <path fill="none" stroke-width="1.0" stroke-linecap="round" stroke-opacity="1.0" stroke="rgb(0, 0, 0)" stroke-linejoin="round" d=" M 273.645, 309.200 273.620, 309.219 273.130, 309.600 270.099, 311.956 " stroke-name="b_1352_p1b1351" stroke-occlusion=" True True True True " />
            <path fill="none" stroke-width="1.0" stroke-linecap="round" stroke-opacity="1.0" stroke="rgb(0, 0, 0)" stroke-linejoin="round" d=" M 259.090, 320.184 261.219, 318.565 263.017, 317.196 264.003, 316.447 261.216, 316.161 251.268, 315.140 241.321, 314.119 233.612, 313.328 233.511, 313.318 " stroke-name="b_1352_p1b1351" stroke-occlusion=" True True True True True True True True True " />
            <path fill="none" stroke-width="1.0" stroke-linecap="round" stroke-opacity="1.0" stroke="rgb(0, 0, 0)" stroke-linejoin="round" d=" M 212.164, 366.484 208.799, 365.785 199.009, 363.749 197.029, 363.338 196.998, 370.747 " stroke-name="b_1352_p1b1351" stroke-occlusion=" True True True True True " />
            <path fill="none" stroke-width="1.0" stroke-linecap="round" stroke-opacity="1.0" stroke="rgb(0, 0, 0)" stroke-linejoin="round" d=" M 62.074, 308.401 52.235, 310.187 42.395, 311.973 32.556, 313.760 22.717, 315.546 14.054, 317.118 14.043, 319.113 " stroke-name="b_1352_p1b1351" stroke-occlusion=" True True True True True True True " />
            <path fill="none" stroke-width="1.0" stroke-linecap="round" stroke-opacity="1.0" stroke="rgb(0, 0, 0)" stroke-linejoin="round" d=" M 201.942, 304.038 202.044, 294.433 192.059, 293.883 182.074, 293.334 172.090, 292.784 162.105, 292.234 153.689, 291.770 153.199, 291.859 149.499, 292.531 139.659, 294.317 137.666, 294.679 " stroke-name="b_1352_p1b1351" stroke-occlusion=" True True True True True True True True True True True " />
            <path fill="none" stroke-width="1.0" stroke-linecap="round" stroke-opacity="1.0" stroke="rgb(0, 0, 0)" stroke-linejoin="round" d=" M 273.947, 402.378 273.974, 392.378 273.977, 391.194 274.161, 381.196 274.346, 371.198 274.389, 368.883 274.573, 358.885 274.655, 354.463 274.839, 344.465 275.024, 334.467 275.198, 325.036 273.677, 325.022 273.525, 335.021 273.374, 345.020 273.234, 354.290 273.083, 364.289 273.017, 368.690 272.866, 378.689 272.715, 388.688 272.681, 390.891 272.460, 400.888 272.431, 402.191 " stroke-name="b_1352_p1b1351" stroke-occlusion=" True True True True True True True True True True True True True True True True True True True True True True " />
            <path fill="none" stroke-width="1.0" stroke-linecap="round" stroke-opacity="1.0" stroke="rgb(0, 0, 0)" stroke-linejoin="round" d=" M 230.446, 316.973 240.384, 318.087 250.322, 319.201 259.090, 320.184 259.077, 320.956 259.056, 322.100 259.053, 322.323 258.922, 329.681 258.912, 330.256 258.735, 340.254 258.558, 350.252 258.519, 352.490 258.342, 362.489 258.269, 366.616 258.092, 376.615 257.915, 386.613 257.738, 396.611 257.561, 406.610 257.384, 416.608 257.327, 419.853 256.554, 429.823 256.356, 432.374 " stroke-name="b_1352_p1b1351" stroke-occlusion=" True True True True True True True True True True True True True True True True True True True True True True " />
            <path fill="none" stroke-width="1.0" stroke-linecap="round" stroke-opacity="1.0" stroke="rgb(0, 0, 0)" stroke-linejoin="round" d=" M 252.105, 431.470 256.356, 432.374 261.057, 423.548 265.758, 414.722 270.458, 405.896 272.431, 402.191 273.947, 402.378 278.517, 393.483 283.087, 384.588 287.657, 375.694 290.026, 371.082 " stroke-name="b_1352_p1b1351" stroke-occlusion=" True True True True True True True True True True True " />
            <path fill="none" stroke-width="1.0" stroke-linecap="round" stroke-opacity="1.0" stroke="rgb(0, 0, 0)" stroke-linejoin="round" d=" M 208.315, 307.459 201.911, 306.905 195.048, 306.311 185.085, 305.450 177.229, 304.770 169.778, 307.060 " stroke-name="b_1352_p1b1351" stroke-occlusion=" True True True True True True " />
            <path fill="none" stroke-width="1.0" stroke-linecap="round" stroke-opacity="1.0" stroke="rgb(0, 0, 0)" stroke-linejoin="round" d=" M 217.170, 305.830 227.142, 306.580 237.114, 307.330 237.647, 307.370 " stroke-name="b_1352_p1b1351" stroke-occlusion=" True True True True " />
            <path fill="none" stroke-width="1.0" stroke-linecap="round" stroke-opacity="1.0" stroke="rgb(0, 0, 0)" stroke-linejoin="round" d=" M 288.436, 310.434 288.393, 310.041 287.820, 304.809 277.846, 304.097 270.428, 303.568 " stroke-name="b_1352_p1b1351" stroke-occlusion=" True True True True True " />
            <path fill="none" stroke-width="1.0" stroke-linecap="round" stroke-opacity="1.0" stroke="rgb(0, 0, 0)" stroke-linejoin="round" d=" M 288.436, 310.434 287.965, 310.851 282.282, 315.885 274.890, 322.431 273.910, 323.300 273.673, 323.267 " stroke-name="b_1352_p1b1351" stroke-occlusion=" True True True True True True " />
            <path fill="none" stroke-width="1.0" stroke-linecap="round" stroke-opacity="1.0" stroke="rgb(0, 0, 0)" stroke-linejoin="round" d=" M 86.672, 302.963 76.848, 304.832 73.323, 305.502 63.387, 304.377 61.733, 304.190 " stroke-name="b_1352_p1b1351" stroke-occlusion=" True True True True True " />
            <path fill="none" stroke-width="1.0" stroke-linecap="round" stroke-opacity="1.0" stroke="rgb(0, 0, 0)" stroke-linejoin="round" d=" M 210.062, 494.190 210.068, 494.111 210.232, 484.112 210.396, 474.114 210.560, 464.115 210.725, 454.116 210.889, 444.118 211.053, 434.119 211.217, 424.120 211.381, 414.122 211.546, 404.123 211.710, 394.124 211.874, 384.126 212.038, 374.127 212.164, 366.484 218.902, 361.079 226.703, 354.823 227.622, 354.086 233.436, 349.423 241.237, 343.166 249.038, 336.909 253.584, 333.262 " stroke-name="b_1352_p1b1351" stroke-occlusion=" True True True True True True True True True True True True True True True True True True True True True True " />
            <path fill="none" stroke-width="1.0" stroke-linecap="round" stroke-opacity="1.0" stroke="rgb(0, 0, 0)" stroke-linejoin="round" d=" M 233.076, 315.507 230.446, 316.973 230.430, 319.061 230.406, 322.116 230.367, 327.084 230.347, 329.583 230.342, 330.214 " stroke-name="b_1352_p1b1351" stroke-occlusion=" True True True True True True True " />
            <path fill="none" stroke-width="1.0" stroke-linecap="round" stroke-opacity="1.0" stroke="rgb(0, 0, 0)" stroke-linejoin="round" d=" M 287.820, 304.809 281.869, 309.491 281.403, 309.857 280.898, 310.255 274.556, 315.243 273.658, 315.950 " stroke-name="b_1352_p1b1351" stroke-occlusion=" True True True True True True " />
            <path fill="none" stroke-width="1.0" stroke-linecap="round" stroke-opacity="1.0" stroke="rgb(0, 0, 0)" stroke-linejoin="round" d=" M 41.824, 322.691 41.990, 322.666 41.990, 322.713 " stroke-name="b_1352_p1b1351" stroke-occlusion=" True True True " />
            <path fill="none" stroke-width="1.0" stroke-linecap="round" stroke-opacity="1.0" stroke="rgb(0, 0, 0)" stroke-linejoin="round" d=" M 202.044, 294.433 192.397, 297.067 182.750, 299.701 173.103, 302.334 163.456, 304.968 159.001, 306.184 " stroke-name="b_1352_p1b1351" stroke-occlusion=" True True True True True True " />
            <path fill="none" stroke-width="1.0" stroke-linecap="round" stroke-opacity="1.0" stroke="rgb(0, 0, 0)" stroke-linejoin="round" d=" M 203.749, 276.595 199.677, 276.430 " stroke-name="b_1253_p1b1252" stroke-occlusion=" True True " />
            <path fill="none" stroke-width="1.0" stroke-linecap="round" stroke-opacity="1.0" stroke="rgb(0, 0, 0)" stroke-linejoin="round" d=" M 206.606, 288.237 205.969, 288.193 204.330, 288.276 204.269, 287.966 204.378, 283.338 204.465, 279.010 204.473, 277.984 204.500, 276.927 204.500, 276.488 203.048, 276.462 199.677, 276.430 190.212, 279.658 186.491, 280.927 176.974, 283.998 171.230, 285.851 " stroke-name="b_1253_p1b1252" stroke-occlusion=" True True True True True True True True True True True True True True True " />
            <path fill="none" stroke-width="1.0" stroke-linecap="round" stroke-opacity="1.0" stroke="rgb(0, 0, 0)" stroke-linejoin="round" d=" M 198.868, 287.727 202.883, 278.569 203.749, 276.595 204.500, 276.488 " stroke-name="b_1253_p1b1252" stroke-occlusion=" True True True True " />
            <path fill="none" stroke-width="1.0" stroke-linecap="round" stroke-opacity="1.0" stroke="rgb(0, 0, 0)" stroke-linejoin="round" d=" M 290.522, 292.974 292.638, 283.201 293.098, 281.075 293.247, 271.076 293.396, 261.078 293.544, 251.079 293.693, 241.080 293.842, 231.081 293.917, 226.030 293.967, 222.717 " stroke-name="b_1253_p1b1252" stroke-occlusion=" True True True True True True True True True True " />
            <path fill="none" stroke-width="1.0" stroke-linecap="round" stroke-opacity="1.0" stroke="rgb(0, 0, 0)" stroke-linejoin="round" d=" M 280.058, 281.375 279.506, 281.713 " stroke-name="b_1253_p1b1252" stroke-occlusion=" True True " />
            <path fill="none" stroke-width="1.0" stroke-linecap="round" stroke-opacity="1.0" stroke="rgb(0, 0, 0)" stroke-linejoin="round" d=" M 245.618, 281.057 248.650, 281.191 249.689, 281.237 259.679, 281.679 269.669, 282.121 276.546, 282.425 283.522, 289.590 288.329, 294.526 288.473, 296.866 " stroke-name="b_1253_p1b1252" stroke-occlusion=" True True True True True True True True True " />
            <path fill="none" stroke-width="1.0" stroke-linecap="round" stroke-opacity="1.0" stroke="rgb(0, 0, 0)" stroke-linejoin="round" d=" M 280.381, 221.670 280.320, 225.878 280.174, 235.877 280.028, 245.876 279.883, 255.875 279.737, 265.874 279.591, 275.873 279.506, 281.713 269.523, 281.123 259.541, 280.533 249.896, 279.963 249.703, 279.951 249.370, 279.932 " stroke-name="b_1253_p1b1252" stroke-occlusion=" True True True True True True True True True True True True True " />
            <path fill="none" stroke-width="1.0" stroke-linecap="round" stroke-opacity="1.0" stroke="rgb(0, 0, 0)" stroke-linejoin="round" d=" M 250.526, 222.805 244.783, 223.618 244.646, 233.617 244.508, 243.616 244.370, 253.615 244.233, 263.614 244.095, 273.613 244.023, 278.824 241.438, 285.424 " stroke-name="b_1253_p1b1252" stroke-occlusion=" True True True True True True True True True " />
            <path fill="none" stroke-width="1.0" stroke-linecap="round" stroke-opacity="1.0" stroke="rgb(0, 0, 0)" stroke-linejoin="round" d=" M 298.516, 281.033 298.148, 278.437 298.277, 268.438 298.407, 258.439 298.536, 248.440 298.665, 238.441 298.795, 228.441 298.829, 225.807 293.967, 222.717 283.988, 222.067 280.815, 221.860 280.381, 221.670 270.383, 221.873 260.385, 222.076 250.537, 222.275 250.526, 222.805 250.472, 225.455 250.270, 235.452 250.068, 245.450 249.866, 255.448 249.663, 265.446 249.461, 275.444 249.370, 279.932 245.618, 281.057 241.438, 285.424 238.246, 288.758 235.538, 291.588 235.323, 293.414 " stroke-name="b_1253_p1b1252" stroke-occlusion=" True True True True True True True True True True True True True True True True True True True True True True True True True True True True " />
            <path fill="none" stroke-width="1.0" stroke-linecap="round" stroke-opacity="1.0" stroke="rgb(0, 0, 0)" stroke-linejoin="round" d=" M 206.621, 282.869 208.075, 282.932 218.066, 283.363 218.765, 283.393 " stroke-name="b_1253_p1b1252" stroke-occlusion=" True True True True " />
            <path fill="none" stroke-width="1.0" stroke-linecap="round" stroke-opacity="1.0" stroke="rgb(0, 0, 0)" stroke-linejoin="round" d=" M 238.246, 288.758 228.473, 288.589 221.609, 288.464 221.642, 287.072 221.810, 282.774 212.937, 282.789 209.870, 282.920 208.075, 282.858 " stroke-name="b_1253_p1b1252" stroke-occlusion=" True True True True True True True True " />
            <path fill="none" stroke-width="1.0" stroke-linecap="round" stroke-opacity="1.0" stroke="rgb(0, 0, 0)" stroke-linejoin="round" d=" M 208.075, 282.858 206.621, 282.869 206.606, 288.237 206.606, 288.397 " stroke-name="b_1253_p1b1252" stroke-occlusion=" True True True True " />
            <path fill="none" stroke-width="1.0" stroke-linecap="round" stroke-opacity="1.0" stroke="rgb(0, 0, 0)" stroke-linejoin="round" d=" M 218.520, 289.246 218.765, 283.393 221.810, 282.774 " stroke-name="b_1253_p1b1252" stroke-occlusion=" True True True " />
            <path fill="none" stroke-width="1.0" stroke-linecap="round" stroke-opacity="1.0" stroke="rgb(0, 0, 0)" stroke-linejoin="round" d=" M 206.606, 288.397 216.581, 289.108 218.520, 289.246 221.609, 288.464 " stroke-name="b_1253_p1b1252" stroke-occlusion=" True True True True " />
            <path fill="none" stroke-width="1.0" stroke-linecap="round" stroke-opacity="1.0" stroke="rgb(0, 0, 0)" stroke-linejoin="round" d=" M 171.230, 285.851 171.112, 286.080 170.959, 287.688 170.958, 287.691 " stroke-name="b_1253_p1b1252" stroke-occlusion=" True True True True " />
            <path fill="none" stroke-width="1.0" stroke-linecap="round" stroke-opacity="1.0" stroke="rgb(0, 0, 0)" stroke-linejoin="round" d=" M 170.958, 287.691 180.938, 288.326 190.918, 288.961 199.245, 289.490 " stroke-name="b_1253_p1b1252" stroke-occlusion=" True True True True " />
            <path fill="none" stroke-width="1.0" stroke-linecap="round" stroke-opacity="1.0" stroke="rgb(0, 0, 0)" stroke-linejoin="round" d=" M 204.330, 288.276 199.245, 289.490 198.868, 287.727 188.886, 287.135 178.903, 286.542 171.197, 286.085 171.112, 286.080 " stroke-name="b_1253_p1b1252" stroke-occlusion=" True True True True True True True " />
            <path fill="none" stroke-width="1.0" stroke-linecap="round" stroke-opacity="1.0" stroke="rgb(0, 0, 0)" stroke-linejoin="round" d=" M 307.093, 337.796 311.832, 328.990 315.220, 322.693 316.954, 319.470 317.274, 315.287 317.290, 315.013 317.292, 314.076 317.390, 304.077 317.488, 294.077 317.518, 291.064 317.547, 290.103 307.551, 289.803 300.061, 289.578 298.230, 289.546 298.216, 289.288 298.277, 287.633 298.479, 281.679 298.516, 281.033 " stroke-name="b_1253_p1b1252" stroke-occlusion=" True True True True True True True True True True True True True True True True True True " />
            <path fill="none" stroke-width="1.0" stroke-linecap="round" stroke-opacity="1.0" stroke="rgb(0, 0, 0)" stroke-linejoin="round" d=" M 309.337, 313.966 309.608, 303.969 309.762, 298.290 " stroke-name="b_1253_p1b1252" stroke-occlusion=" True True True " />
            <path fill="none" stroke-width="1.0" stroke-linecap="round" stroke-opacity="1.0" stroke="rgb(0, 0, 0)" stroke-linejoin="round" d=" M 317.547, 290.103 310.656, 297.350 309.762, 298.290 299.785, 297.623 289.807, 296.955 288.473, 296.866 296.472, 290.865 298.230, 289.546 " stroke-name="b_1253_p1b1252" stroke-occlusion=" True True True True True True True True " />
            <path fill="none" stroke-width="1.0" stroke-linecap="round" stroke-opacity="1.0" stroke="rgb(0, 0, 0)" stroke-linejoin="round" d=" M 307.797, 313.845 309.337, 313.966 307.759, 316.542 " stroke-name="b_1253_p1b1252" stroke-occlusion=" True True True " />
            <path fill="none" stroke-width="1.0" stroke-linecap="round" stroke-opacity="1.0" stroke="rgb(0, 0, 0)" stroke-linejoin="round" d=" M 298.237, 324.375 290.776, 323.708 " stroke-name="b_1253_p1b1252" stroke-occlusion=" True True " />
            <path fill="none" stroke-width="1.0" stroke-linecap="round" stroke-opacity="1.0" stroke="rgb(0, 0, 0)" stroke-linejoin="round" d=" M 306.913, 339.587 307.093, 337.796 307.517, 333.581 307.659, 323.582 307.672, 322.633 307.759, 316.542 307.797, 313.845 307.816, 312.524 297.851, 311.684 291.017, 311.108 " stroke-name="b_1253_p1b1252" stroke-occlusion=" True True True True True True True True True True " />
            <path fill="none" stroke-width="1.0" stroke-linecap="round" stroke-opacity="1.0" stroke="rgb(0, 0, 0)" stroke-linejoin="round" d=" M 307.816, 312.524 303.665, 317.659 299.697, 322.569 298.237, 324.375 298.165, 334.375 298.094, 344.375 298.056, 349.740 298.068, 357.327 " stroke-name="b_1253_p1b1252" stroke-occlusion=" True True True True True True True True " />
            <path fill="none" stroke-width="1.0" stroke-linecap="round" stroke-opacity="1.0" stroke="rgb(0, 0, 0)" stroke-linejoin="round" d=" M 290.151, 356.359 298.068, 357.327 302.530, 348.378 306.913, 339.587 " stroke-name="b_1253_p1b1252" stroke-occlusion=" True True True True " />
            <path fill="none" stroke-width="1.0" stroke-linecap="round" stroke-opacity="1.0" stroke="rgb(0, 0, 0)" stroke-linejoin="round" d=" M 153.280, 287.533 149.547, 288.138 149.499, 292.531 " stroke-name="b_1253_p1b1252" stroke-occlusion=" True True True " />
            <path fill="none" stroke-width="1.0" stroke-linecap="round" stroke-opacity="1.0" stroke="rgb(0, 0, 0)" stroke-linejoin="round" d=" M 149.547, 288.138 153.264, 288.367 163.246, 288.981 173.227, 289.595 183.208, 290.208 193.189, 290.822 203.170, 291.436 213.151, 292.050 223.132, 292.664 233.113, 293.278 235.323, 293.414 " stroke-name="b_1253_p1b1252" stroke-occlusion=" True True True True True True True True True True True " />
            <path fill="none" stroke-width="1.0" stroke-linecap="round" stroke-opacity="1.0" stroke="rgb(0, 0, 0)" stroke-linejoin="round" d=" M 364.705, 432.294 370.301, 435.675 378.860, 440.846 387.419, 446.018 395.978, 451.189 397.641, 452.194 405.291, 456.816 397.363, 462.911 389.435, 469.006 381.508, 475.102 373.580, 481.197 372.186, 482.269 365.374, 487.507 365.392, 497.507 365.411, 507.507 365.429, 517.507 365.444, 525.506 " stroke-name="b_1252_p1b1251" stroke-occlusion=" True True True True True True True True True True True True True True True True True " />
            <path fill="none" stroke-width="1.0" stroke-linecap="round" stroke-opacity="1.0" stroke="rgb(0, 0, 0)" stroke-linejoin="round" d=" M 370.540, 430.317 369.045, 430.823 364.705, 432.294 364.723, 442.294 364.742, 452.294 364.758, 461.160 364.431, 466.609 364.235, 469.858 363.863, 476.056 " stroke-name="b_1252_p1b1251" stroke-occlusion=" True True True True True True True True True " />
            <path fill="none" stroke-width="1.0" stroke-linecap="round" stroke-opacity="1.0" stroke="rgb(0, 0, 0)" stroke-linejoin="round" d=" M 363.295, 426.237 370.540, 430.317 " stroke-name="b_1252_p1b1251" stroke-occlusion=" True True " />
            <path fill="none" stroke-width="1.0" stroke-linecap="round" stroke-opacity="1.0" stroke="rgb(0, 0, 0)" stroke-linejoin="round" d=" M 402.903, 411.596 396.728, 414.066 394.628, 413.180 389.115, 410.855 380.524, 415.973 378.234, 417.337 369.643, 422.455 363.295, 426.237 363.240, 427.494 362.796, 437.484 362.353, 447.474 362.121, 452.703 362.040, 462.703 361.993, 468.402 " stroke-name="b_1252_p1b1251" stroke-occlusion=" True True True True True True True True True True True True True True " />
            <path fill="none" stroke-width="1.0" stroke-linecap="round" stroke-opacity="1.0" stroke="rgb(0, 0, 0)" stroke-linejoin="round" d=" M 413.157, 383.698 407.843, 386.345 398.892, 390.804 394.951, 392.767 385.769, 388.805 377.720, 385.331 368.525, 389.262 364.043, 391.179 360.707, 392.605 360.553, 402.604 360.399, 412.603 360.390, 413.162 360.312, 423.162 360.291, 425.802 " stroke-name="b_1252_p1b1251" stroke-occlusion=" True True True True True True True True True True True True True True " />
            <path fill="none" stroke-width="1.0" stroke-linecap="round" stroke-opacity="1.0" stroke="rgb(0, 0, 0)" stroke-linejoin="round" d=" M 378.455, 179.906 378.501, 176.417 369.276, 173.221 363.632, 174.480 363.469, 183.103 " stroke-name="b_1252_p1b1251" stroke-occlusion=" True True True True True " />
            <path fill="none" stroke-width="1.0" stroke-linecap="round" stroke-opacity="1.0" stroke="rgb(0, 0, 0)" stroke-linejoin="round" d=" M 583.049, 120.529 573.337, 122.912 563.625, 125.294 553.912, 127.676 544.200, 130.059 534.488, 132.441 524.776, 134.823 515.064, 137.205 505.352, 139.588 495.640, 141.970 485.928, 144.352 476.216, 146.735 466.504, 149.117 456.518, 151.566 456.081, 161.557 456.002, 163.362 " stroke-name="b_1252_p1b1251" stroke-occlusion=" True True True True True True True True True True True True True True True True " />
            <path fill="none" stroke-width="1.0" stroke-linecap="round" stroke-opacity="1.0" stroke="rgb(0, 0, 0)" stroke-linejoin="round" d=" M 512.063, 441.774 502.828, 437.937 498.108, 435.975 505.264, 428.990 509.724, 424.635 512.868, 421.566 503.520, 418.015 494.171, 414.465 484.823, 410.915 475.474, 407.364 466.126, 403.814 456.777, 400.263 447.429, 396.713 438.080, 393.163 428.732, 389.612 419.383, 386.062 413.157, 383.698 " stroke-name="b_1252_p1b1251" stroke-occlusion=" True True True True True True True True True True True True True True True True True " />
            <path fill="none" stroke-width="1.0" stroke-linecap="round" stroke-opacity="1.0" stroke="rgb(0, 0, 0)" stroke-linejoin="round" d=" M 559.836, 141.210 550.056, 143.296 540.277, 145.383 530.497, 147.469 520.717, 149.555 510.937, 151.642 501.157, 153.728 491.377, 155.815 481.597, 157.901 471.817, 159.988 463.941, 161.668 456.002, 163.362 446.222, 165.448 436.443, 167.535 426.663, 169.621 416.883, 171.708 407.103, 173.794 397.323, 175.881 387.543, 177.967 378.455, 179.906 372.826, 181.107 368.954, 181.933 363.469, 183.103 363.153, 183.170 363.007, 193.169 362.862, 203.168 362.716, 213.167 362.570, 223.166 362.424, 233.165 362.279, 243.164 362.133, 253.163 362.091, 256.023 361.945, 266.022 361.800, 276.021 361.654, 286.020 361.508, 296.019 361.362, 306.018 361.216, 316.017 361.115, 322.977 360.969, 332.976 360.823, 342.975 360.678, 352.974 360.532, 362.973 360.386, 372.972 360.284, 379.953 360.078, 382.206 360.048, 382.535 359.442, 389.153 " stroke-name="b_1252_p1b1251" stroke-occlusion=" True True True True True True True True True True True True True True True True True True True True True True True True True True True True True True True True True True True True True True True True True True True True True True True True " />
            <path fill="none" stroke-width="1.0" stroke-linecap="round" stroke-opacity="1.0" stroke="rgb(0, 0, 0)" stroke-linejoin="round" d=" M 362.091, 256.023 361.902, 266.022 361.713, 276.020 361.524, 286.018 361.335, 296.016 361.147, 306.015 360.958, 316.013 360.826, 322.976 360.637, 332.974 360.448, 342.972 360.259, 352.970 360.070, 362.969 359.888, 372.618 359.644, 382.382 " stroke-name="b_1252_p1b1251" stroke-occlusion=" True True True True True True True True True True True True True True " />
            <path fill="none" stroke-width="1.0" stroke-linecap="round" stroke-opacity="1.0" stroke="rgb(0, 0, 0)" stroke-linejoin="round" d=" M 363.863, 476.056 371.877, 482.038 372.186, 482.269 " stroke-name="b_1252_p1b1251" stroke-occlusion=" True True True " />
            <path fill="none" stroke-width="1.0" stroke-linecap="round" stroke-opacity="1.0" stroke="rgb(0, 0, 0)" stroke-linejoin="round" d=" M 360.291, 425.802 363.240, 427.494 " stroke-name="b_1252_p1b1251" stroke-occlusion=" True True " />
            <path fill="none" stroke-width="1.0" stroke-linecap="round" stroke-opacity="1.0" stroke="rgb(0, 0, 0)" stroke-linejoin="round" d=" M 360.707, 392.605 369.826, 396.709 378.945, 400.814 388.064, 404.918 397.183, 409.022 402.903, 411.596 " stroke-name="b_1252_p1b1251" stroke-occlusion=" True True True True True True " />
            <path fill="none" stroke-width="1.0" stroke-linecap="round" stroke-opacity="1.0" stroke="rgb(0, 0, 0)" stroke-linejoin="round" d=" M 359.442, 389.153 364.043, 391.179 " stroke-name="b_1252_p1b1251" stroke-occlusion=" True True " />
            <path fill="none" stroke-width="1.0" stroke-linecap="round" stroke-opacity="1.0" stroke="rgb(0, 0, 0)" stroke-linejoin="round" d=" M 359.644, 382.382 360.048, 382.535 " stroke-name="b_1252_p1b1251" stroke-occlusion=" True True " />
            <path fill="none" stroke-width="1.0" stroke-linecap="round" stroke-opacity="1.0" stroke="rgb(0, 0, 0)" stroke-linejoin="round" d=" M 361.993, 468.402 364.235, 469.858 " stroke-name="b_1252_p1b1251" stroke-occlusion=" True True " />
            <path fill="none" stroke-width="1.0" stroke-linecap="round" stroke-opacity="1.0" stroke="rgb(0, 0, 0)" stroke-linejoin="round" d=" M 36.256, 319.844 26.331, 318.625 16.405, 317.407 14.054, 317.118 " stroke-name="b_1352_p1b1351" stroke-occlusion=" True True True True " />
            <path fill="none" stroke-width="1.0" stroke-linecap="round" stroke-opacity="1.0" stroke="rgb(0, 0, 0)" stroke-linejoin="round" d=" M 76.441, 325.295 66.541, 323.886 56.641, 322.478 46.740, 321.069 44.093, 320.692 37.104, 319.698 36.317, 319.586 " stroke-name="b_1352_p1b1351" stroke-occlusion=" True True True True True True True " />
            <path fill="none" stroke-width="1.0" stroke-linecap="round" stroke-opacity="1.0" stroke="rgb(0, 0, 0)" stroke-linejoin="round" d=" M 86.252, 310.619 95.096, 308.752 " stroke-name="b_1352_p1b1351" stroke-occlusion=" True True " />
            <path fill="none" stroke-width="1.0" stroke-linecap="round" stroke-opacity="1.0" stroke="rgb(0, 0, 0)" stroke-linejoin="round" d=" M 86.441, 307.170 95.365, 305.404 " stroke-name="b_1352_p1b1351" stroke-occlusion=" True True " />
            <path fill="none" stroke-width="1.0" stroke-linecap="round" stroke-opacity="1.0" stroke="rgb(0, 0, 0)" stroke-linejoin="round" d=" M 101.990, 301.155 92.151, 302.941 86.618, 303.946 " stroke-name="b_1352_p1b1351" stroke-occlusion=" True True True " />
            <path fill="none" stroke-width="1.0" stroke-linecap="round" stroke-opacity="1.0" stroke="rgb(0, 0, 0)" stroke-linejoin="round" d=" M 170.959, 287.688 160.959, 287.600 153.280, 287.533 " stroke-name="b_1253_p1b1252" stroke-occlusion=" True True True " />
            <path fill="none" stroke-width="1.0" stroke-linecap="round" stroke-opacity="1.0" stroke="rgb(0, 0, 0)" stroke-linejoin="round" d=" M 194.925, 349.864 201.495, 345.869 201.978, 345.576 210.523, 340.380 219.068, 335.185 224.586, 331.830 225.361, 331.359 227.794, 329.880 " stroke-name="b_1352_p1b1351" stroke-occlusion=" True True True True True True True True " />
            <path fill="none" stroke-width="1.0" stroke-linecap="round" stroke-opacity="1.0" stroke="rgb(0, 0, 0)" stroke-linejoin="round" d=" M 208.892, 511.883 213.864, 503.207 218.836, 494.531 223.809, 485.855 228.781, 477.178 233.753, 468.502 238.725, 459.826 243.698, 451.150 248.670, 442.474 252.082, 436.521 " stroke-name="b_1352_p1b1351" stroke-occlusion=" True True True True True True True True True True " />
            <path fill="none" stroke-width="1.0" stroke-linecap="round" stroke-opacity="1.0" stroke="rgb(0, 0, 0)" stroke-linejoin="round" d=" M 368.954, 181.933 369.276, 173.221 " stroke-name="b_1252_p1b1251" stroke-occlusion=" True True " />
            <path fill="none" stroke-width="1.0" stroke-linecap="round" stroke-opacity="1.0" stroke="rgb(0, 0, 0)" stroke-linejoin="round" d=" M 398.369, 512.386 390.385, 506.365 382.400, 500.345 374.416, 494.324 366.431, 488.304 365.374, 487.507 " stroke-name="b_1252_p1b1251" stroke-occlusion=" True True True True True True " />
        </g>
    </g>
</svg>
