<?xml version='1.0' encoding='ascii'?>
<svg xmlns="http://www.w3.org/2000/svg" version="1.1" width="512" height="512">
    <g id="ViewLayer_LineSet 2" xmlns:inkscape="http://www.inkscape.org/namespaces/inkscape" inkscape:groupmode="lineset" inkscape:label="ViewLayer_LineSet 2">
        <g xmlns:inkscape="http://www.inkscape.org/namespaces/inkscape" inkscape:groupmode="layer" id="strokes" inkscape:label="strokes">
            <path fill="none" stroke-width="1.0" stroke-linecap="round" stroke-opacity="1.0" stroke="rgb(0, 0, 0)" stroke-linejoin="round" d=" M 265.926, 280.846 266.530, 280.994 274.307, 257.234 280.456, 238.451 256.757, 230.491 233.058, 222.530 225.678, 220.051 224.981, 220.215 217.091, 243.938 209.201, 267.660 201.311, 291.382 193.421, 315.105 187.565, 332.710 " stroke-name="b_1352_p1b1351" stroke-occlusion=" True True True True True True True True True True True True True " />
            <path fill="none" stroke-width="1.0" stroke-linecap="round" stroke-opacity="1.0" stroke="rgb(0, 0, 0)" stroke-linejoin="round" d=" M 212.246, 370.839 232.578, 377.621 233.240, 377.633 241.203, 353.935 242.345, 350.537 237.080, 348.749 " stroke-name="b_1352_p1b1351" stroke-occlusion=" True True True True True True " />
            <path fill="none" stroke-width="1.0" stroke-linecap="round" stroke-opacity="1.0" stroke="rgb(0, 0, 0)" stroke-linejoin="round" d=" M 256.162, 308.204 256.602, 308.133 257.399, 308.152 259.846, 300.225 263.578, 288.354 263.486, 288.088 " stroke-name="b_1352_p1b1351" stroke-occlusion=" True True True True True True " />
            <path fill="none" stroke-width="1.0" stroke-linecap="round" stroke-opacity="1.0" stroke="rgb(0, 0, 0)" stroke-linejoin="round" d=" M 241.559, 348.365 242.389, 348.661 250.209, 324.916 254.927, 310.590 243.461, 306.740 " stroke-name="b_1352_p1b1351" stroke-occlusion=" True True True True True " />
            <path fill="none" stroke-width="1.0" stroke-linecap="round" stroke-opacity="1.0" stroke="rgb(0, 0, 0)" stroke-linejoin="round" d=" M 147.099, 319.163 132.112, 314.187 131.185, 314.104 131.051, 314.096 " stroke-name="b_1352_p1b1351" stroke-occlusion=" True True True True " />
            <path fill="none" stroke-width="1.0" stroke-linecap="round" stroke-opacity="1.0" stroke="rgb(0, 0, 0)" stroke-linejoin="round" d=" M 180.682, 313.227 180.816, 313.235 181.591, 313.399 189.474, 289.674 197.356, 265.949 205.238, 242.224 213.120, 218.499 214.038, 215.735 190.308, 207.869 171.342, 201.581 170.709, 201.450 170.268, 201.521 162.405, 225.252 154.542, 248.983 146.678, 272.714 138.815, 296.445 138.012, 298.871 137.985, 299.073 152.297, 303.835 147.099, 319.163 " stroke-name="b_1352_p1b1351" stroke-occlusion=" True True True True True True True True True True True True True True True True True True True True " />
            <path fill="none" stroke-width="1.0" stroke-linecap="round" stroke-opacity="1.0" stroke="rgb(0, 0, 0)" stroke-linejoin="round" d=" M 265.629, 280.938 265.863, 281.039 265.926, 280.846 " stroke-name="b_1352_p1b1351" stroke-occlusion=" True True True " />
            <path fill="none" stroke-width="1.0" stroke-linecap="round" stroke-opacity="1.0" stroke="rgb(0, 0, 0)" stroke-linejoin="round" d=" M 237.080, 348.749 237.137, 348.578 237.013, 348.539 " stroke-name="b_1352_p1b1351" stroke-occlusion=" True True True " />
            <path fill="none" stroke-width="1.0" stroke-linecap="round" stroke-opacity="1.0" stroke="rgb(0, 0, 0)" stroke-linejoin="round" d=" M 131.051, 314.096 123.179, 337.825 122.128, 340.993 145.860, 348.853 169.592, 356.713 193.325, 364.572 212.246, 370.839 " stroke-name="b_1352_p1b1351" stroke-occlusion=" True True True True True True True " />
            <path fill="none" stroke-width="1.0" stroke-linecap="round" stroke-opacity="1.0" stroke="rgb(0, 0, 0)" stroke-linejoin="round" d=" M 241.194, 348.423 241.559, 348.365 " stroke-name="b_1352_p1b1351" stroke-occlusion=" True True " />
            <path fill="none" stroke-width="1.0" stroke-linecap="round" stroke-opacity="1.0" stroke="rgb(0, 0, 0)" stroke-linejoin="round" d=" M 197.033, 142.437 179.271, 136.271 178.843, 136.310 173.145, 152.417 " stroke-name="b_1253_p1b1252" stroke-occlusion=" True True True True " />
            <path fill="none" stroke-width="1.0" stroke-linecap="round" stroke-opacity="1.0" stroke="rgb(0, 0, 0)" stroke-linejoin="round" d=" M 310.829, 144.803 311.215, 144.932 319.087, 121.204 326.960, 97.476 334.832, 73.748 336.071, 70.015 312.351, 62.117 288.632, 54.218 264.912, 46.320 241.193, 38.421 217.473, 30.523 193.754, 22.625 170.034, 14.726 148.112, 7.426 147.550, 7.355 " stroke-name="b_1253_p1b1252" stroke-occlusion=" True True True True True True True True True True True True True True True " />
            <path fill="none" stroke-width="1.0" stroke-linecap="round" stroke-opacity="1.0" stroke="rgb(0, 0, 0)" stroke-linejoin="round" d=" M 170.917, 171.510 171.285, 171.848 195.015, 179.714 218.745, 187.580 242.475, 195.446 266.206, 203.312 289.458, 211.020 289.610, 210.800 297.687, 187.140 305.763, 163.481 305.957, 162.911 305.175, 162.442 310.678, 145.252 " stroke-name="b_1253_p1b1252" stroke-occlusion=" True True True True True True True True True True True True True " />
            <path fill="none" stroke-width="1.0" stroke-linecap="round" stroke-opacity="1.0" stroke="rgb(0, 0, 0)" stroke-linejoin="round" d=" M 229.899, 137.472 221.182, 134.527 221.171, 134.556 " stroke-name="b_1253_p1b1252" stroke-occlusion=" True True True " />
            <path fill="none" stroke-width="1.0" stroke-linecap="round" stroke-opacity="1.0" stroke="rgb(0, 0, 0)" stroke-linejoin="round" d=" M 217.847, 143.477 199.120, 137.079 199.074, 137.197 " stroke-name="b_1253_p1b1252" stroke-occlusion=" True True True " />
            <path fill="none" stroke-width="1.0" stroke-linecap="round" stroke-opacity="1.0" stroke="rgb(0, 0, 0)" stroke-linejoin="round" d=" M 260.637, 130.473 248.768, 126.466 248.327, 126.537 " stroke-name="b_1253_p1b1252" stroke-occlusion=" True True True " />
            <path fill="none" stroke-width="1.0" stroke-linecap="round" stroke-opacity="1.0" stroke="rgb(0, 0, 0)" stroke-linejoin="round" d=" M 248.327, 126.537 243.828, 140.610 " stroke-name="b_1253_p1b1252" stroke-occlusion=" True True " />
            <path fill="none" stroke-width="1.0" stroke-linecap="round" stroke-opacity="1.0" stroke="rgb(0, 0, 0)" stroke-linejoin="round" d=" M 221.171, 134.556 220.749, 134.624 217.847, 143.477 " stroke-name="b_1253_p1b1252" stroke-occlusion=" True True True " />
            <path fill="none" stroke-width="1.0" stroke-linecap="round" stroke-opacity="1.0" stroke="rgb(0, 0, 0)" stroke-linejoin="round" d=" M 147.466, 7.327 147.311, 7.324 139.403, 31.040 131.495, 54.757 123.587, 78.473 122.304, 82.322 " stroke-name="b_1253_p1b1252" stroke-occlusion=" True True True True True True " />
            <path fill="none" stroke-width="1.0" stroke-linecap="round" stroke-opacity="1.0" stroke="rgb(0, 0, 0)" stroke-linejoin="round" d=" M 198.847, 137.120 197.033, 142.437 " stroke-name="b_1253_p1b1252" stroke-occlusion=" True True " />
            <path fill="none" stroke-width="1.0" stroke-linecap="round" stroke-opacity="1.0" stroke="rgb(0, 0, 0)" stroke-linejoin="round" d=" M 122.304, 82.322 146.021, 90.229 169.737, 98.136 193.454, 106.043 217.171, 113.950 240.887, 121.857 261.230, 128.639 260.637, 130.473 " stroke-name="b_1253_p1b1252" stroke-occlusion=" True True True True True True True True " />
            <path fill="none" stroke-width="1.0" stroke-linecap="round" stroke-opacity="1.0" stroke="rgb(0, 0, 0)" stroke-linejoin="round" d=" M 173.145, 152.417 168.021, 166.514 170.917, 171.510 " stroke-name="b_1253_p1b1252" stroke-occlusion=" True True True " />
            <path fill="none" stroke-width="1.0" stroke-linecap="round" stroke-opacity="1.0" stroke="rgb(0, 0, 0)" stroke-linejoin="round" d=" M 334.902, 252.988 334.991, 252.872 332.614, 249.859 330.651, 249.762 325.251, 253.728 " stroke-name="b_1252_p1b1251" stroke-occlusion=" True True True True True " />
            <path fill="none" stroke-width="1.0" stroke-linecap="round" stroke-opacity="1.0" stroke="rgb(0, 0, 0)" stroke-linejoin="round" d=" M 296.174, 329.548 296.126, 329.755 297.872, 332.219 297.286, 332.652 " stroke-name="b_1252_p1b1251" stroke-occlusion=" True True True True " />
            <path fill="none" stroke-width="1.0" stroke-linecap="round" stroke-opacity="1.0" stroke="rgb(0, 0, 0)" stroke-linejoin="round" d=" M 312.454, 319.801 311.559, 318.510 311.420, 318.560 311.286, 318.552 " stroke-name="b_1252_p1b1251" stroke-occlusion=" True True True True " />
            <path fill="none" stroke-width="1.0" stroke-linecap="round" stroke-opacity="1.0" stroke="rgb(0, 0, 0)" stroke-linejoin="round" d=" M 383.882, 320.671 391.196, 315.350 376.554, 295.086 361.912, 274.823 347.269, 254.559 342.932, 248.556 341.069, 248.643 334.902, 252.988 " stroke-name="b_1252_p1b1251" stroke-occlusion=" True True True True True True True True " />
            <path fill="none" stroke-width="1.0" stroke-linecap="round" stroke-opacity="1.0" stroke="rgb(0, 0, 0)" stroke-linejoin="round" d=" M 366.270, 331.473 368.005, 331.503 374.096, 327.360 " stroke-name="b_1252_p1b1251" stroke-occlusion=" True True True " />
            <path fill="none" stroke-width="1.0" stroke-linecap="round" stroke-opacity="1.0" stroke="rgb(0, 0, 0)" stroke-linejoin="round" d=" M 323.783, 258.083 325.628, 260.654 318.482, 265.547 332.963, 285.926 336.527, 290.941 332.663, 293.849 " stroke-name="b_1252_p1b1251" stroke-occlusion=" True True True True True True " />
            <path fill="none" stroke-width="1.0" stroke-linecap="round" stroke-opacity="1.0" stroke="rgb(0, 0, 0)" stroke-linejoin="round" d=" M 303.582, 382.450 303.696, 382.524 323.982, 367.913 344.268, 353.302 353.995, 346.297 344.707, 333.021 359.569, 322.483 " stroke-name="b_1252_p1b1251" stroke-occlusion=" True True True True True True True " />
            <path fill="none" stroke-width="1.0" stroke-linecap="round" stroke-opacity="1.0" stroke="rgb(0, 0, 0)" stroke-linejoin="round" d=" M 365.990, 331.670 366.270, 331.473 " stroke-name="b_1252_p1b1251" stroke-occlusion=" True True " />
            <path fill="none" stroke-width="1.0" stroke-linecap="round" stroke-opacity="1.0" stroke="rgb(0, 0, 0)" stroke-linejoin="round" d=" M 297.286, 332.652 295.257, 333.830 303.771, 345.731 286.303, 358.467 " stroke-name="b_1252_p1b1251" stroke-occlusion=" True True True True " />
            <path fill="none" stroke-width="1.0" stroke-linecap="round" stroke-opacity="1.0" stroke="rgb(0, 0, 0)" stroke-linejoin="round" d=" M 305.387, 302.661 305.339, 302.868 316.855, 318.620 " stroke-name="b_1252_p1b1251" stroke-occlusion=" True True True " />
            <path fill="none" stroke-width="1.0" stroke-linecap="round" stroke-opacity="1.0" stroke="rgb(0, 0, 0)" stroke-linejoin="round" d=" M 376.299, 330.341 376.585, 330.124 " stroke-name="b_1252_p1b1251" stroke-occlusion=" True True " />
            <path fill="none" stroke-width="1.0" stroke-linecap="round" stroke-opacity="1.0" stroke="rgb(0, 0, 0)" stroke-linejoin="round" d=" M 286.300, 358.481 286.269, 358.503 286.256, 358.674 295.437, 371.324 " stroke-name="b_1252_p1b1251" stroke-occlusion=" True True True True " />
            <path fill="none" stroke-width="1.0" stroke-linecap="round" stroke-opacity="1.0" stroke="rgb(0, 0, 0)" stroke-linejoin="round" d=" M 376.585, 330.124 378.180, 330.028 386.514, 324.262 383.882, 320.671 " stroke-name="b_1252_p1b1251" stroke-occlusion=" True True True True " />
            <path fill="none" stroke-width="1.0" stroke-linecap="round" stroke-opacity="1.0" stroke="rgb(0, 0, 0)" stroke-linejoin="round" d=" M 286.303, 358.467 286.300, 358.481 " stroke-name="b_1252_p1b1251" stroke-occlusion=" True True " />
            <path fill="none" stroke-width="1.0" stroke-linecap="round" stroke-opacity="1.0" stroke="rgb(0, 0, 0)" stroke-linejoin="round" d=" M 321.977, 301.577 317.020, 294.637 316.881, 294.686 310.967, 298.879 " stroke-name="b_1252_p1b1251" stroke-occlusion=" True True True True " />
            <path fill="none" stroke-width="1.0" stroke-linecap="round" stroke-opacity="1.0" stroke="rgb(0, 0, 0)" stroke-linejoin="round" d=" M 325.251, 253.728 322.109, 255.928 323.783, 258.083 " stroke-name="b_1252_p1b1251" stroke-occlusion=" True True True " />
            <path fill="none" stroke-width="1.0" stroke-linecap="round" stroke-opacity="1.0" stroke="rgb(0, 0, 0)" stroke-linejoin="round" d=" M 295.437, 371.324 303.423, 382.565 303.582, 382.450 " stroke-name="b_1252_p1b1251" stroke-occlusion=" True True True " />
            <path fill="none" stroke-width="1.0" stroke-linecap="round" stroke-opacity="1.0" stroke="rgb(0, 0, 0)" stroke-linejoin="round" d=" M 311.286, 318.552 296.174, 329.548 " stroke-name="b_1252_p1b1251" stroke-occlusion=" True True " />
            <path fill="none" stroke-width="1.0" stroke-linecap="round" stroke-opacity="1.0" stroke="rgb(0, 0, 0)" stroke-linejoin="round" d=" M 151.408, 320.633 156.729, 305.358 " stroke-name="b_1352_p1b1351" stroke-occlusion=" True True " />
            <path fill="none" stroke-width="1.0" stroke-linecap="round" stroke-opacity="1.0" stroke="rgb(0, 0, 0)" stroke-linejoin="round" d=" M 170.234, 309.774 180.682, 313.227 " stroke-name="b_1352_p1b1351" stroke-occlusion=" True True " />
            <path fill="none" stroke-width="1.0" stroke-linecap="round" stroke-opacity="1.0" stroke="rgb(0, 0, 0)" stroke-linejoin="round" d=" M 156.729, 305.358 170.234, 309.774 " stroke-name="b_1352_p1b1351" stroke-occlusion=" True True " />
            <path fill="none" stroke-width="1.0" stroke-linecap="round" stroke-opacity="1.0" stroke="rgb(0, 0, 0)" stroke-linejoin="round" d=" M 187.565, 332.710 163.853, 324.790 151.408, 320.633 " stroke-name="b_1352_p1b1351" stroke-occlusion=" True True True " />
            <path fill="none" stroke-width="1.0" stroke-linecap="round" stroke-opacity="1.0" stroke="rgb(0, 0, 0)" stroke-linejoin="round" d=" M 199.074, 137.197 198.847, 137.120 " stroke-name="b_1253_p1b1252" stroke-occlusion=" True True " />
            <path fill="none" stroke-width="1.0" stroke-linecap="round" stroke-opacity="1.0" stroke="rgb(0, 0, 0)" stroke-linejoin="round" d=" M 237.013, 348.539 237.260, 347.151 " stroke-name="b_1352_p1b1351" stroke-occlusion=" True True " />
            <path fill="none" stroke-width="1.0" stroke-linecap="round" stroke-opacity="1.0" stroke="rgb(0, 0, 0)" stroke-linejoin="round" d=" M 237.260, 347.151 241.194, 348.423 " stroke-name="b_1352_p1b1351" stroke-occlusion=" True True " />
            <path fill="none" stroke-width="1.0" stroke-linecap="round" stroke-opacity="1.0" stroke="rgb(0, 0, 0)" stroke-linejoin="round" d=" M 243.349, 141.980 229.899, 137.472 " stroke-name="b_1253_p1b1252" stroke-occlusion=" True True " />
            <path fill="none" stroke-width="1.0" stroke-linecap="round" stroke-opacity="1.0" stroke="rgb(0, 0, 0)" stroke-linejoin="round" d=" M 243.461, 306.740 244.272, 304.279 " stroke-name="b_1352_p1b1351" stroke-occlusion=" True True " />
            <path fill="none" stroke-width="1.0" stroke-linecap="round" stroke-opacity="1.0" stroke="rgb(0, 0, 0)" stroke-linejoin="round" d=" M 243.828, 140.610 243.349, 141.980 " stroke-name="b_1253_p1b1252" stroke-occlusion=" True True " />
            <path fill="none" stroke-width="1.0" stroke-linecap="round" stroke-opacity="1.0" stroke="rgb(0, 0, 0)" stroke-linejoin="round" d=" M 244.272, 304.279 256.162, 308.204 " stroke-name="b_1352_p1b1351" stroke-occlusion=" True True " />
            <path fill="none" stroke-width="1.0" stroke-linecap="round" stroke-opacity="1.0" stroke="rgb(0, 0, 0)" stroke-linejoin="round" d=" M 263.486, 288.088 265.629, 280.938 " stroke-name="b_1352_p1b1351" stroke-occlusion=" True True " />
            <path fill="none" stroke-width="1.0" stroke-linecap="round" stroke-opacity="1.0" stroke="rgb(0, 0, 0)" stroke-linejoin="round" d=" M 313.455, 321.004 312.454, 319.801 " stroke-name="b_1252_p1b1251" stroke-occlusion=" True True " />
            <path fill="none" stroke-width="1.0" stroke-linecap="round" stroke-opacity="1.0" stroke="rgb(0, 0, 0)" stroke-linejoin="round" d=" M 310.967, 298.879 305.387, 302.661 " stroke-name="b_1252_p1b1251" stroke-occlusion=" True True " />
            <path fill="none" stroke-width="1.0" stroke-linecap="round" stroke-opacity="1.0" stroke="rgb(0, 0, 0)" stroke-linejoin="round" d=" M 316.855, 318.620 313.455, 321.004 " stroke-name="b_1252_p1b1251" stroke-occlusion=" True True " />
            <path fill="none" stroke-width="1.0" stroke-linecap="round" stroke-opacity="1.0" stroke="rgb(0, 0, 0)" stroke-linejoin="round" d=" M 147.550, 7.355 147.466, 7.327 " stroke-name="b_1253_p1b1252" stroke-occlusion=" True True " />
            <path fill="none" stroke-width="1.0" stroke-linecap="round" stroke-opacity="1.0" stroke="rgb(0, 0, 0)" stroke-linejoin="round" d=" M 310.678, 145.252 310.829, 144.803 " stroke-name="b_1253_p1b1252" stroke-occlusion=" True True " />
            <path fill="none" stroke-width="1.0" stroke-linecap="round" stroke-opacity="1.0" stroke="rgb(0, 0, 0)" stroke-linejoin="round" d=" M 332.663, 293.849 321.977, 301.577 " stroke-name="b_1252_p1b1251" stroke-occlusion=" True True " />
            <path fill="none" stroke-width="1.0" stroke-linecap="round" stroke-opacity="1.0" stroke="rgb(0, 0, 0)" stroke-linejoin="round" d=" M 362.647, 326.773 365.990, 331.670 " stroke-name="b_1252_p1b1251" stroke-occlusion=" True True " />
            <path fill="none" stroke-width="1.0" stroke-linecap="round" stroke-opacity="1.0" stroke="rgb(0, 0, 0)" stroke-linejoin="round" d=" M 359.569, 322.483 362.647, 326.773 " stroke-name="b_1252_p1b1251" stroke-occlusion=" True True " />
            <path fill="none" stroke-width="1.0" stroke-linecap="round" stroke-opacity="1.0" stroke="rgb(0, 0, 0)" stroke-linejoin="round" d=" M 374.096, 327.360 376.299, 330.341 " stroke-name="b_1252_p1b1251" stroke-occlusion=" True True " />
        </g>
    </g>
</svg>
