<?xml version='1.0' encoding='ascii'?>
<svg xmlns="http://www.w3.org/2000/svg" version="1.1" width="512" height="512">
    <g id="ViewLayer_LineSet 2" xmlns:inkscape="http://www.inkscape.org/namespaces/inkscape" inkscape:groupmode="lineset" inkscape:label="ViewLayer_LineSet 2">
        <g xmlns:inkscape="http://www.inkscape.org/namespaces/inkscape" inkscape:groupmode="layer" id="strokes" inkscape:label="strokes">
            <path fill="none" stroke-width="1.0" stroke-linecap="round" stroke-opacity="1.0" stroke="rgb(0, 0, 0)" stroke-linejoin="round" d=" M 128.306, 219.904 128.324, 219.474 128.136, 219.719 " stroke-name="b_1445_p1b1444" stroke-occlusion=" True True True " />
            <path fill="none" stroke-width="1.0" stroke-linecap="round" stroke-opacity="1.0" stroke="rgb(0, 0, 0)" stroke-linejoin="round" d=" M 115.249, 240.035 113.559, 240.027 113.512, 240.153 " stroke-name="b_1445_p1b1444" stroke-occlusion=" True True True " />
            <path fill="none" stroke-width="1.0" stroke-linecap="round" stroke-opacity="1.0" stroke="rgb(0, 0, 0)" stroke-linejoin="round" d=" M 122.760, 339.115 126.824, 339.286 126.820, 339.120 " stroke-name="b_1445_p1b1444" stroke-occlusion=" True True True " />
            <path fill="none" stroke-width="1.0" stroke-linecap="round" stroke-opacity="1.0" stroke="rgb(0, 0, 0)" stroke-linejoin="round" d=" M 142.250, 338.972 142.350, 338.907 142.338, 313.907 142.329, 293.976 " stroke-name="b_1445_p1b1444" stroke-occlusion=" True True True True " />
            <path fill="none" stroke-width="1.0" stroke-linecap="round" stroke-opacity="1.0" stroke="rgb(0, 0, 0)" stroke-linejoin="round" d=" M 182.216, 268.369 169.806, 268.452 169.962, 256.537 169.659, 256.475 169.748, 254.094 159.844, 254.143 " stroke-name="b_1445_p1b1444" stroke-occlusion=" True True True True True True " />
            <path fill="none" stroke-width="1.0" stroke-linecap="round" stroke-opacity="1.0" stroke="rgb(0, 0, 0)" stroke-linejoin="round" d=" M 227.265, 340.143 242.583, 340.337 242.676, 340.068 242.659, 315.068 242.658, 313.887 243.371, 313.797 243.860, 313.578 243.784, 288.578 243.707, 263.579 243.630, 238.095 226.804, 238.172 226.000, 238.240 225.871, 238.275 " stroke-name="b_1445_p1b1444" stroke-occlusion=" True True True True True True True True True True True True True " />
            <path fill="none" stroke-width="1.0" stroke-linecap="round" stroke-opacity="1.0" stroke="rgb(0, 0, 0)" stroke-linejoin="round" d=" M 159.844, 254.143 155.532, 254.128 155.148, 254.167 142.392, 254.226 " stroke-name="b_1445_p1b1444" stroke-occlusion=" True True True True " />
            <path fill="none" stroke-width="1.0" stroke-linecap="round" stroke-opacity="1.0" stroke="rgb(0, 0, 0)" stroke-linejoin="round" d=" M 128.136, 219.719 122.550, 219.691 122.249, 219.872 " stroke-name="b_1445_p1b1444" stroke-occlusion=" True True True " />
            <path fill="none" stroke-width="1.0" stroke-linecap="round" stroke-opacity="1.0" stroke="rgb(0, 0, 0)" stroke-linejoin="round" d=" M 142.329, 293.976 167.327, 294.266 169.558, 294.292 170.325, 293.991 169.954, 283.614 " stroke-name="b_1445_p1b1444" stroke-occlusion=" True True True True True " />
            <path fill="none" stroke-width="1.0" stroke-linecap="round" stroke-opacity="1.0" stroke="rgb(0, 0, 0)" stroke-linejoin="round" d=" M 115.708, 219.827 115.316, 219.821 115.188, 219.823 115.249, 240.035 " stroke-name="b_1445_p1b1444" stroke-occlusion=" True True True True " />
            <path fill="none" stroke-width="1.0" stroke-linecap="round" stroke-opacity="1.0" stroke="rgb(0, 0, 0)" stroke-linejoin="round" d=" M 113.512, 240.153 104.218, 240.213 104.088, 240.248 104.169, 240.870 100.098, 240.826 100.152, 265.826 100.206, 290.826 100.259, 315.826 100.309, 339.132 106.095, 339.093 " stroke-name="b_1445_p1b1444" stroke-occlusion=" True True True True True True True True True True " />
            <path fill="none" stroke-width="1.0" stroke-linecap="round" stroke-opacity="1.0" stroke="rgb(0, 0, 0)" stroke-linejoin="round" d=" M 180.774, 264.626 182.092, 264.689 182.216, 268.369 " stroke-name="b_1445_p1b1444" stroke-occlusion=" True True True " />
            <path fill="none" stroke-width="1.0" stroke-linecap="round" stroke-opacity="1.0" stroke="rgb(0, 0, 0)" stroke-linejoin="round" d=" M 225.871, 238.275 225.940, 239.754 200.940, 239.776 178.048, 239.797 178.089, 250.063 180.173, 249.999 " stroke-name="b_1445_p1b1444" stroke-occlusion=" True True True True True True " />
            <path fill="none" stroke-width="1.0" stroke-linecap="round" stroke-opacity="1.0" stroke="rgb(0, 0, 0)" stroke-linejoin="round" d=" M 182.031, 260.118 178.090, 260.129 178.130, 264.399 178.169, 264.598 " stroke-name="b_1445_p1b1444" stroke-occlusion=" True True True True " />
            <path fill="none" stroke-width="1.0" stroke-linecap="round" stroke-opacity="1.0" stroke="rgb(0, 0, 0)" stroke-linejoin="round" d=" M 178.169, 264.598 180.774, 264.626 " stroke-name="b_1445_p1b1444" stroke-occlusion=" True True " />
            <path fill="none" stroke-width="1.0" stroke-linecap="round" stroke-opacity="1.0" stroke="rgb(0, 0, 0)" stroke-linejoin="round" d=" M 142.392, 254.226 142.241, 229.227 142.185, 219.812 130.513, 219.923 " stroke-name="b_1445_p1b1444" stroke-occlusion=" True True True True " />
            <path fill="none" stroke-width="1.0" stroke-linecap="round" stroke-opacity="1.0" stroke="rgb(0, 0, 0)" stroke-linejoin="round" d=" M 140.142, 339.040 142.102, 339.067 142.250, 339.019 142.250, 338.972 " stroke-name="b_1445_p1b1444" stroke-occlusion=" True True True True " />
            <path fill="none" stroke-width="1.0" stroke-linecap="round" stroke-opacity="1.0" stroke="rgb(0, 0, 0)" stroke-linejoin="round" d=" M 182.138, 311.869 207.137, 312.002 212.492, 312.031 " stroke-name="b_1445_p1b1444" stroke-occlusion=" True True True " />
            <path fill="none" stroke-width="1.0" stroke-linecap="round" stroke-opacity="1.0" stroke="rgb(0, 0, 0)" stroke-linejoin="round" d=" M 212.774, 336.785 212.773, 339.960 212.812, 340.160 " stroke-name="b_1445_p1b1444" stroke-occlusion=" True True True " />
            <path fill="none" stroke-width="1.0" stroke-linecap="round" stroke-opacity="1.0" stroke="rgb(0, 0, 0)" stroke-linejoin="round" d=" M 212.812, 340.160 227.265, 340.143 " stroke-name="b_1445_p1b1444" stroke-occlusion=" True True " />
            <path fill="none" stroke-width="1.0" stroke-linecap="round" stroke-opacity="1.0" stroke="rgb(0, 0, 0)" stroke-linejoin="round" d=" M 172.075, 283.605 181.817, 283.702 182.102, 308.700 182.138, 311.869 " stroke-name="b_1445_p1b1444" stroke-occlusion=" True True True True " />
            <path fill="none" stroke-width="1.0" stroke-linecap="round" stroke-opacity="1.0" stroke="rgb(0, 0, 0)" stroke-linejoin="round" d=" M 126.820, 339.120 131.089, 339.126 140.142, 339.040 " stroke-name="b_1445_p1b1444" stroke-occlusion=" True True True " />
            <path fill="none" stroke-width="1.0" stroke-linecap="round" stroke-opacity="1.0" stroke="rgb(0, 0, 0)" stroke-linejoin="round" d=" M 219.067, 217.347 219.129, 227.824 219.167, 228.023 241.342, 227.858 241.557, 227.655 241.791, 206.296 241.907, 206.206 241.747, 195.119 242.148, 195.102 242.047, 184.426 242.159, 184.402 242.493, 173.719 242.402, 148.720 242.370, 140.055 217.370, 140.105 198.548, 140.143 197.948, 140.385 187.065, 140.409 186.574, 140.661 186.627, 165.661 186.680, 190.661 186.690, 195.313 " stroke-name="b_1395_p1b1394" stroke-occlusion=" True True True True True True True True True True True True True True True True True True True True True True " />
            <path fill="none" stroke-width="1.0" stroke-linecap="round" stroke-opacity="1.0" stroke="rgb(0, 0, 0)" stroke-linejoin="round" d=" M 197.708, 173.744 207.950, 173.886 207.947, 177.562 " stroke-name="b_1395_p1b1394" stroke-occlusion=" True True True " />
            <path fill="none" stroke-width="1.0" stroke-linecap="round" stroke-opacity="1.0" stroke="rgb(0, 0, 0)" stroke-linejoin="round" d=" M 207.755, 195.445 207.867, 217.254 207.906, 217.453 " stroke-name="b_1395_p1b1394" stroke-occlusion=" True True True " />
            <path fill="none" stroke-width="1.0" stroke-linecap="round" stroke-opacity="1.0" stroke="rgb(0, 0, 0)" stroke-linejoin="round" d=" M 207.906, 217.453 219.067, 217.347 " stroke-name="b_1395_p1b1394" stroke-occlusion=" True True " />
            <path fill="none" stroke-width="1.0" stroke-linecap="round" stroke-opacity="1.0" stroke="rgb(0, 0, 0)" stroke-linejoin="round" d=" M 186.690, 195.313 207.755, 195.445 " stroke-name="b_1395_p1b1394" stroke-occlusion=" True True " />
            <path fill="none" stroke-width="1.0" stroke-linecap="round" stroke-opacity="1.0" stroke="rgb(0, 0, 0)" stroke-linejoin="round" d=" M 207.657, 184.695 197.866, 184.697 197.708, 173.744 " stroke-name="b_1395_p1b1394" stroke-occlusion=" True True True " />
            <path fill="none" stroke-width="1.0" stroke-linecap="round" stroke-opacity="1.0" stroke="rgb(0, 0, 0)" stroke-linejoin="round" d=" M 218.706, 184.909 218.912, 195.154 " stroke-name="b_1395_p1b1394" stroke-occlusion=" True True " />
            <path fill="none" stroke-width="1.0" stroke-linecap="round" stroke-opacity="1.0" stroke="rgb(0, 0, 0)" stroke-linejoin="round" d=" M 218.912, 195.154 208.512, 195.021 208.377, 195.102 " stroke-name="b_1395_p1b1394" stroke-occlusion=" True True True " />
            <path fill="none" stroke-width="1.0" stroke-linecap="round" stroke-opacity="1.0" stroke="rgb(0, 0, 0)" stroke-linejoin="round" d=" M 358.453, 369.094 371.863, 378.538 372.405, 378.575 386.936, 358.232 401.468, 337.889 415.999, 317.546 430.531, 297.203 438.981, 285.374 418.683, 270.779 398.385, 256.184 383.060, 245.165 382.698, 245.382 374.124, 257.290 374.163, 257.490 " stroke-name="b_1394_p1b1393" stroke-occlusion=" True True True True True True True True True True True True True True " />
            <path fill="none" stroke-width="1.0" stroke-linecap="round" stroke-opacity="1.0" stroke="rgb(0, 0, 0)" stroke-linejoin="round" d=" M 324.292, 350.324 319.837, 356.072 340.114, 370.695 349.510, 377.472 349.561, 377.404 " stroke-name="b_1394_p1b1393" stroke-occlusion=" True True True True True " />
            <path fill="none" stroke-width="1.0" stroke-linecap="round" stroke-opacity="1.0" stroke="rgb(0, 0, 0)" stroke-linejoin="round" d=" M 374.163, 257.490 375.164, 258.385 360.443, 278.592 345.722, 298.798 331.001, 319.004 317.082, 338.110 327.540, 345.888 " stroke-name="b_1394_p1b1393" stroke-occlusion=" True True True True True True True " />
            <path fill="none" stroke-width="1.0" stroke-linecap="round" stroke-opacity="1.0" stroke="rgb(0, 0, 0)" stroke-linejoin="round" d=" M 349.561, 377.404 349.622, 377.448 358.558, 365.629 " stroke-name="b_1394_p1b1393" stroke-occlusion=" True True True " />
            <path fill="none" stroke-width="1.0" stroke-linecap="round" stroke-opacity="1.0" stroke="rgb(0, 0, 0)" stroke-linejoin="round" d=" M 359.551, 365.922 360.512, 366.279 358.453, 369.094 " stroke-name="b_1394_p1b1393" stroke-occlusion=" True True True " />
            <path fill="none" stroke-width="1.0" stroke-linecap="round" stroke-opacity="1.0" stroke="rgb(0, 0, 0)" stroke-linejoin="round" d=" M 241.357, 7.552 241.976, 7.500 241.829, -17.499 241.712, -37.263 " stroke-name="b_1352_p1b1351" stroke-occlusion=" True True True True " />
            <path fill="none" stroke-width="1.0" stroke-linecap="round" stroke-opacity="1.0" stroke="rgb(0, 0, 0)" stroke-linejoin="round" d=" M 218.959, 109.912 240.375, 109.907 241.007, 109.708 241.054, 84.708 241.061, 81.123 235.501, 81.094 " stroke-name="b_1352_p1b1351" stroke-occlusion=" True True True True True True " />
            <path fill="none" stroke-width="1.0" stroke-linecap="round" stroke-opacity="1.0" stroke="rgb(0, 0, 0)" stroke-linejoin="round" d=" M 240.759, 36.593 241.155, 36.386 241.917, 36.152 241.728, 27.858 241.507, 15.416 241.335, 15.193 " stroke-name="b_1352_p1b1351" stroke-occlusion=" True True True True True True " />
            <path fill="none" stroke-width="1.0" stroke-linecap="round" stroke-opacity="1.0" stroke="rgb(0, 0, 0)" stroke-linejoin="round" d=" M 239.627, 79.312 240.508, 79.330 240.406, 54.330 240.344, 39.248 228.249, 39.227 " stroke-name="b_1352_p1b1351" stroke-occlusion=" True True True True True " />
            <path fill="none" stroke-width="1.0" stroke-linecap="round" stroke-opacity="1.0" stroke="rgb(0, 0, 0)" stroke-linejoin="round" d=" M 140.782, 81.529 124.990, 81.556 124.085, 81.770 123.955, 81.806 " stroke-name="b_1352_p1b1351" stroke-occlusion=" True True True True " />
            <path fill="none" stroke-width="1.0" stroke-linecap="round" stroke-opacity="1.0" stroke="rgb(0, 0, 0)" stroke-linejoin="round" d=" M 183.317, -36.991 183.346, -11.991 183.376, 13.009 183.405, 38.009 183.434, 63.009 183.455, 81.563 " stroke-name="b_1352_p1b1351" stroke-occlusion=" True True True True True True " />
            <path fill="none" stroke-width="1.0" stroke-linecap="round" stroke-opacity="1.0" stroke="rgb(0, 0, 0)" stroke-linejoin="round" d=" M 125.500, -37.395 125.557, -12.395 125.615, 12.604 125.672, 37.604 125.730, 62.604 125.735, 65.160 125.774, 65.359 140.858, 65.344 140.782, 81.529 " stroke-name="b_1352_p1b1351" stroke-occlusion=" True True True True True True True True True " />
            <path fill="none" stroke-width="1.0" stroke-linecap="round" stroke-opacity="1.0" stroke="rgb(0, 0, 0)" stroke-linejoin="round" d=" M 241.104, 7.733 241.358, 7.754 241.357, 7.552 " stroke-name="b_1352_p1b1351" stroke-occlusion=" True True True " />
            <path fill="none" stroke-width="1.0" stroke-linecap="round" stroke-opacity="1.0" stroke="rgb(0, 0, 0)" stroke-linejoin="round" d=" M 235.501, 81.094 235.501, 80.914 235.371, 80.917 " stroke-name="b_1352_p1b1351" stroke-occlusion=" True True True " />
            <path fill="none" stroke-width="1.0" stroke-linecap="round" stroke-opacity="1.0" stroke="rgb(0, 0, 0)" stroke-linejoin="round" d=" M 123.955, 81.806 124.003, 106.806 124.010, 110.144 149.009, 110.083 174.009, 110.022 199.009, 109.961 218.959, 109.912 " stroke-name="b_1352_p1b1351" stroke-occlusion=" True True True True True True True " />
            <path fill="none" stroke-width="1.0" stroke-linecap="round" stroke-opacity="1.0" stroke="rgb(0, 0, 0)" stroke-linejoin="round" d=" M 170.756, 65.263 170.886, 65.228 171.673, 65.138 171.636, 40.138 171.598, 15.138 171.561, -9.862 171.523, -34.862 171.519, -37.775 " stroke-name="b_1352_p1b1351" stroke-occlusion=" True True True True True True True True " />
            <path fill="none" stroke-width="1.0" stroke-linecap="round" stroke-opacity="1.0" stroke="rgb(0, 0, 0)" stroke-linejoin="round" d=" M 239.300, 79.482 239.627, 79.312 " stroke-name="b_1352_p1b1351" stroke-occlusion=" True True " />
            <path fill="none" stroke-width="1.0" stroke-linecap="round" stroke-opacity="1.0" stroke="rgb(0, 0, 0)" stroke-linejoin="round" d=" M 357.610, 219.949 357.795, 209.799 357.532, 209.798 " stroke-name="b_1351_p1b1350" stroke-occlusion=" True True True " />
            <path fill="none" stroke-width="1.0" stroke-linecap="round" stroke-opacity="1.0" stroke="rgb(0, 0, 0)" stroke-linejoin="round" d=" M 300.303, 318.182 300.539, 318.184 313.614, 299.632 " stroke-name="b_1351_p1b1350" stroke-occlusion=" True True True " />
            <path fill="none" stroke-width="1.0" stroke-linecap="round" stroke-opacity="1.0" stroke="rgb(0, 0, 0)" stroke-linejoin="round" d=" M 319.753, 254.722 319.890, 245.726 317.886, 245.741 " stroke-name="b_1351_p1b1350" stroke-occlusion=" True True True " />
            <path fill="none" stroke-width="1.0" stroke-linecap="round" stroke-opacity="1.0" stroke="rgb(0, 0, 0)" stroke-linejoin="round" d=" M 310.218, 180.082 297.925, 180.433 298.034, 174.192 293.993, 171.355 294.108, 171.095 " stroke-name="b_1351_p1b1350" stroke-occlusion=" True True True True True " />
            <path fill="none" stroke-width="1.0" stroke-linecap="round" stroke-opacity="1.0" stroke="rgb(0, 0, 0)" stroke-linejoin="round" d=" M 299.609, 190.603 298.244, 190.616 297.993, 186.950 " stroke-name="b_1351_p1b1350" stroke-occlusion=" True True True " />
            <path fill="none" stroke-width="1.0" stroke-linecap="round" stroke-opacity="1.0" stroke="rgb(0, 0, 0)" stroke-linejoin="round" d=" M 313.614, 299.632 326.604, 281.774 341.215, 261.488 352.813, 245.384 352.541, 245.385 " stroke-name="b_1351_p1b1350" stroke-occlusion=" True True True True True " />
            <path fill="none" stroke-width="1.0" stroke-linecap="round" stroke-opacity="1.0" stroke="rgb(0, 0, 0)" stroke-linejoin="round" d=" M 319.516, 209.704 319.588, 209.628 319.585, 191.958 " stroke-name="b_1351_p1b1350" stroke-occlusion=" True True True " />
            <path fill="none" stroke-width="1.0" stroke-linecap="round" stroke-opacity="1.0" stroke="rgb(0, 0, 0)" stroke-linejoin="round" d=" M 320.684, 191.948 321.080, 191.741 321.180, 191.628 321.732, 174.458 301.300, 160.052 294.724, 155.416 294.375, 155.436 " stroke-name="b_1351_p1b1350" stroke-occlusion=" True True True True True True True " />
            <path fill="none" stroke-width="1.0" stroke-linecap="round" stroke-opacity="1.0" stroke="rgb(0, 0, 0)" stroke-linejoin="round" d=" M 297.993, 186.950 299.480, 186.936 299.618, 188.948 " stroke-name="b_1351_p1b1350" stroke-occlusion=" True True True " />
            <path fill="none" stroke-width="1.0" stroke-linecap="round" stroke-opacity="1.0" stroke="rgb(0, 0, 0)" stroke-linejoin="round" d=" M 306.045, 179.109 306.500, 179.313 309.361, 176.674 " stroke-name="b_1351_p1b1350" stroke-occlusion=" True True True " />
            <path fill="none" stroke-width="1.0" stroke-linecap="round" stroke-opacity="1.0" stroke="rgb(0, 0, 0)" stroke-linejoin="round" d=" M 352.541, 245.385 352.531, 245.277 327.531, 245.485 321.207, 245.537 321.202, 245.604 320.806, 254.655 " stroke-name="b_1351_p1b1350" stroke-occlusion=" True True True True True True " />
            <path fill="none" stroke-width="1.0" stroke-linecap="round" stroke-opacity="1.0" stroke="rgb(0, 0, 0)" stroke-linejoin="round" d=" M 349.259, 209.751 330.630, 209.646 330.382, 209.806 330.453, 223.274 326.255, 223.427 " stroke-name="b_1351_p1b1350" stroke-occlusion=" True True True True True " />
            <path fill="none" stroke-width="1.0" stroke-linecap="round" stroke-opacity="1.0" stroke="rgb(0, 0, 0)" stroke-linejoin="round" d=" M 317.660, 227.513 342.660, 227.628 357.658, 227.697 357.610, 219.949 " stroke-name="b_1351_p1b1350" stroke-occlusion=" True True True True " />
            <path fill="none" stroke-width="1.0" stroke-linecap="round" stroke-opacity="1.0" stroke="rgb(0, 0, 0)" stroke-linejoin="round" d=" M 300.123, 318.179 300.123, 318.180 300.107, 318.179 " stroke-name="b_1351_p1b1350" stroke-occlusion=" True True True " />
            <path fill="none" stroke-width="1.0" stroke-linecap="round" stroke-opacity="1.0" stroke="rgb(0, 0, 0)" stroke-linejoin="round" d=" M 326.255, 223.427 326.312, 209.762 326.125, 209.609 321.107, 209.717 " stroke-name="b_1351_p1b1350" stroke-occlusion=" True True True True " />
            <path fill="none" stroke-width="1.0" stroke-linecap="round" stroke-opacity="1.0" stroke="rgb(0, 0, 0)" stroke-linejoin="round" d=" M 294.326, 155.400 294.177, 155.447 284.563, 169.130 284.609, 194.130 284.654, 219.130 284.699, 244.130 284.744, 269.130 284.789, 294.130 284.832, 317.831 284.871, 318.030 " stroke-name="b_1351_p1b1350" stroke-occlusion=" True True True True True True True True True True " />
            <path fill="none" stroke-width="1.0" stroke-linecap="round" stroke-opacity="1.0" stroke="rgb(0, 0, 0)" stroke-linejoin="round" d=" M 308.895, 187.049 310.245, 187.037 310.226, 190.801 " stroke-name="b_1351_p1b1350" stroke-occlusion=" True True True " />
            <path fill="none" stroke-width="1.0" stroke-linecap="round" stroke-opacity="1.0" stroke="rgb(0, 0, 0)" stroke-linejoin="round" d=" M 284.871, 318.030 300.162, 318.379 300.303, 318.182 " stroke-name="b_1351_p1b1350" stroke-occlusion=" True True True " />
            <path fill="none" stroke-width="1.0" stroke-linecap="round" stroke-opacity="1.0" stroke="rgb(0, 0, 0)" stroke-linejoin="round" d=" M 357.527, 209.748 349.259, 209.751 " stroke-name="b_1351_p1b1350" stroke-occlusion=" True True " />
            <path fill="none" stroke-width="1.0" stroke-linecap="round" stroke-opacity="1.0" stroke="rgb(0, 0, 0)" stroke-linejoin="round" d=" M 315.852, 223.419 312.014, 223.378 311.931, 218.201 " stroke-name="b_1351_p1b1350" stroke-occlusion=" True True True " />
            <path fill="none" stroke-width="1.0" stroke-linecap="round" stroke-opacity="1.0" stroke="rgb(0, 0, 0)" stroke-linejoin="round" d=" M 448.075, 102.130 448.361, 102.170 448.589, 102.055 457.163, 90.146 457.165, 90.113 457.819, 89.613 455.382, 87.829 465.927, 72.984 " stroke-name="b_1251_p1b1250" stroke-occlusion=" True True True True True True True True " />
            <path fill="none" stroke-width="1.0" stroke-linecap="round" stroke-opacity="1.0" stroke="rgb(0, 0, 0)" stroke-linejoin="round" d=" M 468.695, 68.990 468.730, 68.812 456.378, 59.729 455.875, 59.846 " stroke-name="b_1251_p1b1250" stroke-occlusion=" True True True True " />
            <path fill="none" stroke-width="1.0" stroke-linecap="round" stroke-opacity="1.0" stroke="rgb(0, 0, 0)" stroke-linejoin="round" d=" M 455.862, 59.837 455.714, 59.884 455.420, 60.335 " stroke-name="b_1251_p1b1250" stroke-occlusion=" True True True " />
            <path fill="none" stroke-width="1.0" stroke-linecap="round" stroke-opacity="1.0" stroke="rgb(0, 0, 0)" stroke-linejoin="round" d=" M 399.567, 170.841 399.697, 170.806 400.204, 170.576 409.542, 157.921 " stroke-name="b_1251_p1b1250" stroke-occlusion=" True True True True " />
            <path fill="none" stroke-width="1.0" stroke-linecap="round" stroke-opacity="1.0" stroke="rgb(0, 0, 0)" stroke-linejoin="round" d=" M 409.542, 157.921 408.709, 157.189 407.877, 156.457 " stroke-name="b_1251_p1b1250" stroke-occlusion=" True True True " />
            <path fill="none" stroke-width="1.0" stroke-linecap="round" stroke-opacity="1.0" stroke="rgb(0, 0, 0)" stroke-linejoin="round" d=" M 407.877, 156.457 422.420, 136.122 436.962, 115.787 447.210, 101.457 " stroke-name="b_1251_p1b1250" stroke-occlusion=" True True True True " />
            <path fill="none" stroke-width="1.0" stroke-linecap="round" stroke-opacity="1.0" stroke="rgb(0, 0, 0)" stroke-linejoin="round" d=" M 386.325, 27.804 374.602, 44.013 375.543, 44.499 361.035, 64.858 346.527, 85.218 332.019, 105.577 331.234, 106.679 " stroke-name="b_1251_p1b1250" stroke-occlusion=" True True True True True True True " />
            <path fill="none" stroke-width="1.0" stroke-linecap="round" stroke-opacity="1.0" stroke="rgb(0, 0, 0)" stroke-linejoin="round" d=" M 330.274, 106.528 330.125, 106.575 325.080, 113.649 " stroke-name="b_1251_p1b1250" stroke-occlusion=" True True True " />
            <path fill="none" stroke-width="1.0" stroke-linecap="round" stroke-opacity="1.0" stroke="rgb(0, 0, 0)" stroke-linejoin="round" d=" M 371.472, 176.941 370.730, 178.224 370.769, 178.423 382.744, 186.979 383.420, 186.913 396.587, 168.547 " stroke-name="b_1251_p1b1250" stroke-occlusion=" True True True True True True " />
            <path fill="none" stroke-width="1.0" stroke-linecap="round" stroke-opacity="1.0" stroke="rgb(0, 0, 0)" stroke-linejoin="round" d=" M 331.234, 106.679 330.644, 106.434 330.280, 106.533 " stroke-name="b_1251_p1b1250" stroke-occlusion=" True True True " />
            <path fill="none" stroke-width="1.0" stroke-linecap="round" stroke-opacity="1.0" stroke="rgb(0, 0, 0)" stroke-linejoin="round" d=" M 455.420, 60.335 435.075, 45.806 414.730, 31.277 399.092, 20.109 398.694, 20.093 391.263, 30.622 " stroke-name="b_1251_p1b1250" stroke-occlusion=" True True True True True True " />
            <path fill="none" stroke-width="1.0" stroke-linecap="round" stroke-opacity="1.0" stroke="rgb(0, 0, 0)" stroke-linejoin="round" d=" M 391.263, 30.622 386.721, 27.598 386.325, 27.804 " stroke-name="b_1251_p1b1250" stroke-occlusion=" True True True " />
            <path fill="none" stroke-width="1.0" stroke-linecap="round" stroke-opacity="1.0" stroke="rgb(0, 0, 0)" stroke-linejoin="round" d=" M 325.080, 113.649 310.788, 133.242 331.075, 147.851 351.362, 162.460 371.472, 176.941 " stroke-name="b_1251_p1b1250" stroke-occlusion=" True True True True True " />
            <path fill="none" stroke-width="1.0" stroke-linecap="round" stroke-opacity="1.0" stroke="rgb(0, 0, 0)" stroke-linejoin="round" d=" M 465.927, 72.984 468.817, 69.077 468.695, 68.990 " stroke-name="b_1251_p1b1250" stroke-occlusion=" True True True " />
            <path fill="none" stroke-width="1.0" stroke-linecap="round" stroke-opacity="1.0" stroke="rgb(0, 0, 0)" stroke-linejoin="round" d=" M 122.249, 219.872 115.708, 219.827 " stroke-name="b_1445_p1b1444" stroke-occlusion=" True True " />
            <path fill="none" stroke-width="1.0" stroke-linecap="round" stroke-opacity="1.0" stroke="rgb(0, 0, 0)" stroke-linejoin="round" d=" M 106.095, 339.093 122.760, 339.115 " stroke-name="b_1445_p1b1444" stroke-occlusion=" True True " />
            <path fill="none" stroke-width="1.0" stroke-linecap="round" stroke-opacity="1.0" stroke="rgb(0, 0, 0)" stroke-linejoin="round" d=" M 130.513, 219.923 128.306, 219.904 " stroke-name="b_1445_p1b1444" stroke-occlusion=" True True " />
            <path fill="none" stroke-width="1.0" stroke-linecap="round" stroke-opacity="1.0" stroke="rgb(0, 0, 0)" stroke-linejoin="round" d=" M 145.335, 81.558 145.544, 65.385 " stroke-name="b_1352_p1b1351" stroke-occlusion=" True True " />
            <path fill="none" stroke-width="1.0" stroke-linecap="round" stroke-opacity="1.0" stroke="rgb(0, 0, 0)" stroke-linejoin="round" d=" M 159.753, 65.297 170.756, 65.263 " stroke-name="b_1352_p1b1351" stroke-occlusion=" True True " />
            <path fill="none" stroke-width="1.0" stroke-linecap="round" stroke-opacity="1.0" stroke="rgb(0, 0, 0)" stroke-linejoin="round" d=" M 145.544, 65.385 159.753, 65.297 " stroke-name="b_1352_p1b1351" stroke-occlusion=" True True " />
            <path fill="none" stroke-width="1.0" stroke-linecap="round" stroke-opacity="1.0" stroke="rgb(0, 0, 0)" stroke-linejoin="round" d=" M 180.173, 249.999 181.991, 250.152 " stroke-name="b_1445_p1b1444" stroke-occlusion=" True True " />
            <path fill="none" stroke-width="1.0" stroke-linecap="round" stroke-opacity="1.0" stroke="rgb(0, 0, 0)" stroke-linejoin="round" d=" M 181.991, 250.152 182.031, 260.118 " stroke-name="b_1445_p1b1444" stroke-occlusion=" True True " />
            <path fill="none" stroke-width="1.0" stroke-linecap="round" stroke-opacity="1.0" stroke="rgb(0, 0, 0)" stroke-linejoin="round" d=" M 169.954, 283.614 172.075, 283.605 " stroke-name="b_1445_p1b1444" stroke-occlusion=" True True " />
            <path fill="none" stroke-width="1.0" stroke-linecap="round" stroke-opacity="1.0" stroke="rgb(0, 0, 0)" stroke-linejoin="round" d=" M 183.455, 81.563 158.455, 81.560 145.335, 81.558 " stroke-name="b_1352_p1b1351" stroke-occlusion=" True True True " />
            <path fill="none" stroke-width="1.0" stroke-linecap="round" stroke-opacity="1.0" stroke="rgb(0, 0, 0)" stroke-linejoin="round" d=" M 207.947, 177.562 207.657, 184.695 " stroke-name="b_1395_p1b1394" stroke-occlusion=" True True " />
            <path fill="none" stroke-width="1.0" stroke-linecap="round" stroke-opacity="1.0" stroke="rgb(0, 0, 0)" stroke-linejoin="round" d=" M 208.377, 195.102 208.171, 184.811 " stroke-name="b_1395_p1b1394" stroke-occlusion=" True True " />
            <path fill="none" stroke-width="1.0" stroke-linecap="round" stroke-opacity="1.0" stroke="rgb(0, 0, 0)" stroke-linejoin="round" d=" M 212.492, 312.031 212.774, 336.785 " stroke-name="b_1445_p1b1444" stroke-occlusion=" True True " />
            <path fill="none" stroke-width="1.0" stroke-linecap="round" stroke-opacity="1.0" stroke="rgb(0, 0, 0)" stroke-linejoin="round" d=" M 208.171, 184.811 218.706, 184.909 " stroke-name="b_1395_p1b1394" stroke-occlusion=" True True " />
            <path fill="none" stroke-width="1.0" stroke-linecap="round" stroke-opacity="1.0" stroke="rgb(0, 0, 0)" stroke-linejoin="round" d=" M 228.249, 39.227 228.239, 36.636 " stroke-name="b_1352_p1b1351" stroke-occlusion=" True True " />
            <path fill="none" stroke-width="1.0" stroke-linecap="round" stroke-opacity="1.0" stroke="rgb(0, 0, 0)" stroke-linejoin="round" d=" M 235.371, 80.917 235.166, 79.522 " stroke-name="b_1352_p1b1351" stroke-occlusion=" True True " />
            <path fill="none" stroke-width="1.0" stroke-linecap="round" stroke-opacity="1.0" stroke="rgb(0, 0, 0)" stroke-linejoin="round" d=" M 235.166, 79.522 239.300, 79.482 " stroke-name="b_1352_p1b1351" stroke-occlusion=" True True " />
            <path fill="none" stroke-width="1.0" stroke-linecap="round" stroke-opacity="1.0" stroke="rgb(0, 0, 0)" stroke-linejoin="round" d=" M 228.239, 36.636 240.759, 36.593 " stroke-name="b_1352_p1b1351" stroke-occlusion=" True True " />
            <path fill="none" stroke-width="1.0" stroke-linecap="round" stroke-opacity="1.0" stroke="rgb(0, 0, 0)" stroke-linejoin="round" d=" M 241.335, 15.193 241.104, 7.733 " stroke-name="b_1352_p1b1351" stroke-occlusion=" True True " />
            <path fill="none" stroke-width="1.0" stroke-linecap="round" stroke-opacity="1.0" stroke="rgb(0, 0, 0)" stroke-linejoin="round" d=" M 298.294, 207.885 298.134, 202.081 " stroke-name="b_1351_p1b1350" stroke-occlusion=" True True " />
            <path fill="none" stroke-width="1.0" stroke-linecap="round" stroke-opacity="1.0" stroke="rgb(0, 0, 0)" stroke-linejoin="round" d=" M 299.618, 188.948 299.609, 190.603 " stroke-name="b_1351_p1b1350" stroke-occlusion=" True True " />
            <path fill="none" stroke-width="1.0" stroke-linecap="round" stroke-opacity="1.0" stroke="rgb(0, 0, 0)" stroke-linejoin="round" d=" M 298.134, 202.081 299.900, 202.001 " stroke-name="b_1351_p1b1350" stroke-occlusion=" True True " />
            <path fill="none" stroke-width="1.0" stroke-linecap="round" stroke-opacity="1.0" stroke="rgb(0, 0, 0)" stroke-linejoin="round" d=" M 299.938, 206.000 299.938, 207.852 " stroke-name="b_1351_p1b1350" stroke-occlusion=" True True " />
            <path fill="none" stroke-width="1.0" stroke-linecap="round" stroke-opacity="1.0" stroke="rgb(0, 0, 0)" stroke-linejoin="round" d=" M 299.900, 202.001 299.938, 206.000 " stroke-name="b_1351_p1b1350" stroke-occlusion=" True True " />
            <path fill="none" stroke-width="1.0" stroke-linecap="round" stroke-opacity="1.0" stroke="rgb(0, 0, 0)" stroke-linejoin="round" d=" M 299.938, 207.852 298.294, 207.885 " stroke-name="b_1351_p1b1350" stroke-occlusion=" True True " />
            <path fill="none" stroke-width="1.0" stroke-linecap="round" stroke-opacity="1.0" stroke="rgb(0, 0, 0)" stroke-linejoin="round" d=" M 294.108, 171.095 306.045, 179.109 " stroke-name="b_1351_p1b1350" stroke-occlusion=" True True " />
            <path fill="none" stroke-width="1.0" stroke-linecap="round" stroke-opacity="1.0" stroke="rgb(0, 0, 0)" stroke-linejoin="round" d=" M 308.650, 187.310 308.651, 187.080 " stroke-name="b_1351_p1b1350" stroke-occlusion=" True True " />
            <path fill="none" stroke-width="1.0" stroke-linecap="round" stroke-opacity="1.0" stroke="rgb(0, 0, 0)" stroke-linejoin="round" d=" M 309.171, 190.896 308.650, 187.310 " stroke-name="b_1351_p1b1350" stroke-occlusion=" True True " />
            <path fill="none" stroke-width="1.0" stroke-linecap="round" stroke-opacity="1.0" stroke="rgb(0, 0, 0)" stroke-linejoin="round" d=" M 309.361, 176.674 310.218, 180.082 " stroke-name="b_1351_p1b1350" stroke-occlusion=" True True " />
            <path fill="none" stroke-width="1.0" stroke-linecap="round" stroke-opacity="1.0" stroke="rgb(0, 0, 0)" stroke-linejoin="round" d=" M 308.651, 187.080 308.895, 187.049 " stroke-name="b_1351_p1b1350" stroke-occlusion=" True True " />
            <path fill="none" stroke-width="1.0" stroke-linecap="round" stroke-opacity="1.0" stroke="rgb(0, 0, 0)" stroke-linejoin="round" d=" M 310.226, 190.801 309.171, 190.896 " stroke-name="b_1351_p1b1350" stroke-occlusion=" True True " />
            <path fill="none" stroke-width="1.0" stroke-linecap="round" stroke-opacity="1.0" stroke="rgb(0, 0, 0)" stroke-linejoin="round" d=" M 311.931, 218.201 311.941, 209.747 " stroke-name="b_1351_p1b1350" stroke-occlusion=" True True " />
            <path fill="none" stroke-width="1.0" stroke-linecap="round" stroke-opacity="1.0" stroke="rgb(0, 0, 0)" stroke-linejoin="round" d=" M 315.864, 209.779 316.093, 222.836 " stroke-name="b_1351_p1b1350" stroke-occlusion=" True True " />
            <path fill="none" stroke-width="1.0" stroke-linecap="round" stroke-opacity="1.0" stroke="rgb(0, 0, 0)" stroke-linejoin="round" d=" M 316.085, 223.411 315.852, 223.419 " stroke-name="b_1351_p1b1350" stroke-occlusion=" True True " />
            <path fill="none" stroke-width="1.0" stroke-linecap="round" stroke-opacity="1.0" stroke="rgb(0, 0, 0)" stroke-linejoin="round" d=" M 316.093, 222.836 316.085, 223.411 " stroke-name="b_1351_p1b1350" stroke-occlusion=" True True " />
            <path fill="none" stroke-width="1.0" stroke-linecap="round" stroke-opacity="1.0" stroke="rgb(0, 0, 0)" stroke-linejoin="round" d=" M 311.941, 209.747 315.864, 209.779 " stroke-name="b_1351_p1b1350" stroke-occlusion=" True True " />
            <path fill="none" stroke-width="1.0" stroke-linecap="round" stroke-opacity="1.0" stroke="rgb(0, 0, 0)" stroke-linejoin="round" d=" M 317.886, 245.741 317.660, 227.513 " stroke-name="b_1351_p1b1350" stroke-occlusion=" True True " />
            <path fill="none" stroke-width="1.0" stroke-linecap="round" stroke-opacity="1.0" stroke="rgb(0, 0, 0)" stroke-linejoin="round" d=" M 319.428, 186.455 319.493, 182.184 " stroke-name="b_1351_p1b1350" stroke-occlusion=" True True " />
            <path fill="none" stroke-width="1.0" stroke-linecap="round" stroke-opacity="1.0" stroke="rgb(0, 0, 0)" stroke-linejoin="round" d=" M 320.383, 182.176 320.318, 186.447 " stroke-name="b_1351_p1b1350" stroke-occlusion=" True True " />
            <path fill="none" stroke-width="1.0" stroke-linecap="round" stroke-opacity="1.0" stroke="rgb(0, 0, 0)" stroke-linejoin="round" d=" M 319.493, 182.184 320.383, 182.176 " stroke-name="b_1351_p1b1350" stroke-occlusion=" True True " />
            <path fill="none" stroke-width="1.0" stroke-linecap="round" stroke-opacity="1.0" stroke="rgb(0, 0, 0)" stroke-linejoin="round" d=" M 320.318, 186.447 319.428, 186.455 " stroke-name="b_1351_p1b1350" stroke-occlusion=" True True " />
            <path fill="none" stroke-width="1.0" stroke-linecap="round" stroke-opacity="1.0" stroke="rgb(0, 0, 0)" stroke-linejoin="round" d=" M 319.585, 191.958 320.684, 191.948 " stroke-name="b_1351_p1b1350" stroke-occlusion=" True True " />
            <path fill="none" stroke-width="1.0" stroke-linecap="round" stroke-opacity="1.0" stroke="rgb(0, 0, 0)" stroke-linejoin="round" d=" M 320.806, 254.655 319.753, 254.722 " stroke-name="b_1351_p1b1350" stroke-occlusion=" True True " />
            <path fill="none" stroke-width="1.0" stroke-linecap="round" stroke-opacity="1.0" stroke="rgb(0, 0, 0)" stroke-linejoin="round" d=" M 294.375, 155.436 294.326, 155.400 " stroke-name="b_1351_p1b1350" stroke-occlusion=" True True " />
            <path fill="none" stroke-width="1.0" stroke-linecap="round" stroke-opacity="1.0" stroke="rgb(0, 0, 0)" stroke-linejoin="round" d=" M 321.107, 209.717 319.516, 209.704 " stroke-name="b_1351_p1b1350" stroke-occlusion=" True True " />
            <path fill="none" stroke-width="1.0" stroke-linecap="round" stroke-opacity="1.0" stroke="rgb(0, 0, 0)" stroke-linejoin="round" d=" M 327.540, 345.888 324.292, 350.324 " stroke-name="b_1394_p1b1393" stroke-occlusion=" True True " />
            <path fill="none" stroke-width="1.0" stroke-linecap="round" stroke-opacity="1.0" stroke="rgb(0, 0, 0)" stroke-linejoin="round" d=" M 330.280, 106.533 330.274, 106.528 " stroke-name="b_1251_p1b1250" stroke-occlusion=" True True " />
            <path fill="none" stroke-width="1.0" stroke-linecap="round" stroke-opacity="1.0" stroke="rgb(0, 0, 0)" stroke-linejoin="round" d=" M 357.532, 209.798 357.527, 209.748 " stroke-name="b_1351_p1b1350" stroke-occlusion=" True True " />
            <path fill="none" stroke-width="1.0" stroke-linecap="round" stroke-opacity="1.0" stroke="rgb(0, 0, 0)" stroke-linejoin="round" d=" M 358.558, 365.629 359.551, 365.922 " stroke-name="b_1394_p1b1393" stroke-occlusion=" True True " />
            <path fill="none" stroke-width="1.0" stroke-linecap="round" stroke-opacity="1.0" stroke="rgb(0, 0, 0)" stroke-linejoin="round" d=" M 396.587, 168.547 399.567, 170.841 " stroke-name="b_1251_p1b1250" stroke-occlusion=" True True " />
            <path fill="none" stroke-width="1.0" stroke-linecap="round" stroke-opacity="1.0" stroke="rgb(0, 0, 0)" stroke-linejoin="round" d=" M 447.576, 101.683 448.075, 102.130 " stroke-name="b_1251_p1b1250" stroke-occlusion=" True True " />
            <path fill="none" stroke-width="1.0" stroke-linecap="round" stroke-opacity="1.0" stroke="rgb(0, 0, 0)" stroke-linejoin="round" d=" M 447.210, 101.457 447.576, 101.683 " stroke-name="b_1251_p1b1250" stroke-occlusion=" True True " />
            <path fill="none" stroke-width="1.0" stroke-linecap="round" stroke-opacity="1.0" stroke="rgb(0, 0, 0)" stroke-linejoin="round" d=" M 455.875, 59.846 455.862, 59.837 " stroke-name="b_1251_p1b1250" stroke-occlusion=" True True " />
        </g>
    </g>
</svg>
