<?xml version='1.0' encoding='ascii'?>
<svg xmlns="http://www.w3.org/2000/svg" version="1.1" width="512" height="512">
    <g id="ViewLayer_LineSet 2" xmlns:inkscape="http://www.inkscape.org/namespaces/inkscape" inkscape:groupmode="lineset" inkscape:label="ViewLayer_LineSet 2">
        <g xmlns:inkscape="http://www.inkscape.org/namespaces/inkscape" inkscape:groupmode="layer" id="strokes" inkscape:label="strokes">
            <path fill="none" stroke-width="1.0" stroke-linecap="round" stroke-opacity="1.0" stroke="rgb(0, 0, 0)" stroke-linejoin="round" d=" M 491.640, 67.693 491.295, 67.580 485.363, 84.651 485.411, 84.669 " stroke-name="b_1639_p1b1638" stroke-occlusion=" True True True True " />
            <path fill="none" stroke-width="1.0" stroke-linecap="round" stroke-opacity="1.0" stroke="rgb(0, 0, 0)" stroke-linejoin="round" d=" M 510.157, 109.931 510.803, 110.165 510.577, 111.201 " stroke-name="b_1639_p1b1638" stroke-occlusion=" True True True " />
            <path fill="none" stroke-width="1.0" stroke-linecap="round" stroke-opacity="1.0" stroke="rgb(0, 0, 0)" stroke-linejoin="round" d=" M 479.971, 99.497 475.355, 111.579 475.508, 111.662 " stroke-name="b_1639_p1b1638" stroke-occlusion=" True True True " />
            <path fill="none" stroke-width="1.0" stroke-linecap="round" stroke-opacity="1.0" stroke="rgb(0, 0, 0)" stroke-linejoin="round" d=" M 474.354, 114.807 473.078, 117.945 470.544, 124.822 493.956, 133.590 497.318, 134.849 494.546, 141.662 " stroke-name="b_1639_p1b1638" stroke-occlusion=" True True True True True True " />
            <path fill="none" stroke-width="1.0" stroke-linecap="round" stroke-opacity="1.0" stroke="rgb(0, 0, 0)" stroke-linejoin="round" d=" M 482.641, 137.320 481.182, 136.766 474.127, 156.084 " stroke-name="b_1639_p1b1638" stroke-occlusion=" True True True " />
            <path fill="none" stroke-width="1.0" stroke-linecap="round" stroke-opacity="1.0" stroke="rgb(0, 0, 0)" stroke-linejoin="round" d=" M 474.127, 156.084 473.124, 158.722 473.090, 158.922 496.504, 167.685 506.005, 171.240 " stroke-name="b_1639_p1b1638" stroke-occlusion=" True True True True True " />
            <path fill="none" stroke-width="1.0" stroke-linecap="round" stroke-opacity="1.0" stroke="rgb(0, 0, 0)" stroke-linejoin="round" d=" M 510.591, 98.873 510.746, 98.881 510.767, 98.876 510.866, 98.624 " stroke-name="b_1639_p1b1638" stroke-occlusion=" True True True True " />
            <path fill="none" stroke-width="1.0" stroke-linecap="round" stroke-opacity="1.0" stroke="rgb(0, 0, 0)" stroke-linejoin="round" d=" M 506.005, 171.240 505.984, 172.018 512.707, 174.901 " stroke-name="b_1639_p1b1638" stroke-occlusion=" True True True " />
            <path fill="none" stroke-width="1.0" stroke-linecap="round" stroke-opacity="1.0" stroke="rgb(0, 0, 0)" stroke-linejoin="round" d=" M 526.966, 137.057 503.556, 128.284 500.869, 127.277 " stroke-name="b_1639_p1b1638" stroke-occlusion=" True True True " />
            <path fill="none" stroke-width="1.0" stroke-linecap="round" stroke-opacity="1.0" stroke="rgb(0, 0, 0)" stroke-linejoin="round" d=" M 507.533, 108.204 509.637, 103.244 508.139, 102.698 509.502, 98.473 510.591, 98.873 " stroke-name="b_1639_p1b1638" stroke-occlusion=" True True True True True " />
            <path fill="none" stroke-width="1.0" stroke-linecap="round" stroke-opacity="1.0" stroke="rgb(0, 0, 0)" stroke-linejoin="round" d=" M 518.141, 77.573 494.779, 68.674 491.709, 67.504 491.640, 67.693 " stroke-name="b_1639_p1b1638" stroke-occlusion=" True True True True " />
            <path fill="none" stroke-width="1.0" stroke-linecap="round" stroke-opacity="1.0" stroke="rgb(0, 0, 0)" stroke-linejoin="round" d=" M 507.533, 109.337 507.630, 109.069 510.157, 109.931 " stroke-name="b_1639_p1b1638" stroke-occlusion=" True True True " />
            <path fill="none" stroke-width="1.0" stroke-linecap="round" stroke-opacity="1.0" stroke="rgb(0, 0, 0)" stroke-linejoin="round" d=" M 346.991, 264.025 344.463, 270.621 344.555, 270.808 368.003, 279.479 379.109, 283.587 379.137, 283.526 386.090, 264.470 386.073, 264.464 " stroke-name="b_1501_p1b1500" stroke-occlusion=" True True True True True True True True " />
            <path fill="none" stroke-width="1.0" stroke-linecap="round" stroke-opacity="1.0" stroke="rgb(0, 0, 0)" stroke-linejoin="round" d=" M 386.095, 264.330 362.647, 255.658 351.541, 251.551 346.991, 264.025 " stroke-name="b_1501_p1b1500" stroke-occlusion=" True True True True " />
            <path fill="none" stroke-width="1.0" stroke-linecap="round" stroke-opacity="1.0" stroke="rgb(0, 0, 0)" stroke-linejoin="round" d=" M 342.848, 223.434 344.513, 224.185 341.952, 231.205 365.342, 240.032 388.732, 248.858 390.309, 249.453 390.479, 249.380 " stroke-name="b_1500_p1b1499" stroke-occlusion=" True True True True True True True " />
            <path fill="none" stroke-width="1.0" stroke-linecap="round" stroke-opacity="1.0" stroke="rgb(0, 0, 0)" stroke-linejoin="round" d=" M 368.544, 154.887 368.196, 154.752 359.420, 178.161 350.644, 201.570 342.506, 223.279 342.736, 223.383 " stroke-name="b_1500_p1b1499" stroke-occlusion=" True True True True True True " />
            <path fill="none" stroke-width="1.0" stroke-linecap="round" stroke-opacity="1.0" stroke="rgb(0, 0, 0)" stroke-linejoin="round" d=" M 390.479, 249.380 390.703, 249.464 399.506, 226.066 408.309, 202.667 417.112, 179.268 419.090, 174.012 419.123, 173.812 403.072, 167.910 " stroke-name="b_1500_p1b1499" stroke-occlusion=" True True True True True True True True " />
            <path fill="none" stroke-width="1.0" stroke-linecap="round" stroke-opacity="1.0" stroke="rgb(0, 0, 0)" stroke-linejoin="round" d=" M 342.736, 223.383 342.731, 223.396 342.848, 223.434 " stroke-name="b_1500_p1b1499" stroke-occlusion=" True True True " />
            <path fill="none" stroke-width="1.0" stroke-linecap="round" stroke-opacity="1.0" stroke="rgb(0, 0, 0)" stroke-linejoin="round" d=" M 403.072, 167.910 403.665, 166.548 384.890, 159.612 384.735, 159.604 " stroke-name="b_1500_p1b1499" stroke-occlusion=" True True True True " />
            <path fill="none" stroke-width="1.0" stroke-linecap="round" stroke-opacity="1.0" stroke="rgb(0, 0, 0)" stroke-linejoin="round" d=" M 384.735, 159.604 384.691, 159.803 " stroke-name="b_1500_p1b1499" stroke-occlusion=" True True " />
            <path fill="none" stroke-width="1.0" stroke-linecap="round" stroke-opacity="1.0" stroke="rgb(0, 0, 0)" stroke-linejoin="round" d=" M 383.942, 160.619 368.590, 154.764 368.544, 154.887 " stroke-name="b_1500_p1b1499" stroke-occlusion=" True True True " />
            <path fill="none" stroke-width="1.0" stroke-linecap="round" stroke-opacity="1.0" stroke="rgb(0, 0, 0)" stroke-linejoin="round" d=" M 364.551, 323.957 364.296, 323.819 356.706, 320.874 356.304, 320.837 355.881, 322.149 " stroke-name="b_1446_p1b1445" stroke-occlusion=" True True True True True " />
            <path fill="none" stroke-width="1.0" stroke-linecap="round" stroke-opacity="1.0" stroke="rgb(0, 0, 0)" stroke-linejoin="round" d=" M 342.555, 317.160 343.124, 315.744 343.157, 315.543 338.530, 313.892 338.228, 314.067 336.296, 318.474 " stroke-name="b_1446_p1b1445" stroke-occlusion=" True True True True True True " />
            <path fill="none" stroke-width="1.0" stroke-linecap="round" stroke-opacity="1.0" stroke="rgb(0, 0, 0)" stroke-linejoin="round" d=" M 296.314, 322.972 291.711, 335.134 291.824, 335.234 308.501, 341.345 " stroke-name="b_1446_p1b1445" stroke-occlusion=" True True True True " />
            <path fill="none" stroke-width="1.0" stroke-linecap="round" stroke-opacity="1.0" stroke="rgb(0, 0, 0)" stroke-linejoin="round" d=" M 332.785, 351.437 351.465, 358.500 351.531, 358.462 " stroke-name="b_1446_p1b1445" stroke-occlusion=" True True True " />
            <path fill="none" stroke-width="1.0" stroke-linecap="round" stroke-opacity="1.0" stroke="rgb(0, 0, 0)" stroke-linejoin="round" d=" M 308.501, 341.345 308.424, 341.535 325.312, 347.691 325.601, 347.712 325.707, 347.660 " stroke-name="b_1446_p1b1445" stroke-occlusion=" True True True True True " />
            <path fill="none" stroke-width="1.0" stroke-linecap="round" stroke-opacity="1.0" stroke="rgb(0, 0, 0)" stroke-linejoin="round" d=" M 315.194, 304.903 314.751, 304.958 314.241, 306.571 311.112, 305.466 311.575, 303.918 " stroke-name="b_1446_p1b1445" stroke-occlusion=" True True True True True " />
            <path fill="none" stroke-width="1.0" stroke-linecap="round" stroke-opacity="1.0" stroke="rgb(0, 0, 0)" stroke-linejoin="round" d=" M 321.732, 307.373 321.738, 307.357 321.028, 307.107 " stroke-name="b_1446_p1b1445" stroke-occlusion=" True True True " />
            <path fill="none" stroke-width="1.0" stroke-linecap="round" stroke-opacity="1.0" stroke="rgb(0, 0, 0)" stroke-linejoin="round" d=" M 331.898, 328.294 333.075, 328.736 335.687, 322.167 " stroke-name="b_1446_p1b1445" stroke-occlusion=" True True True " />
            <path fill="none" stroke-width="1.0" stroke-linecap="round" stroke-opacity="1.0" stroke="rgb(0, 0, 0)" stroke-linejoin="round" d=" M 311.600, 303.857 311.655, 303.652 304.454, 300.941 296.314, 322.972 " stroke-name="b_1446_p1b1445" stroke-occlusion=" True True True True " />
            <path fill="none" stroke-width="1.0" stroke-linecap="round" stroke-opacity="1.0" stroke="rgb(0, 0, 0)" stroke-linejoin="round" d=" M 343.878, 344.163 340.446, 342.831 341.868, 338.888 " stroke-name="b_1446_p1b1445" stroke-occlusion=" True True True " />
            <path fill="none" stroke-width="1.0" stroke-linecap="round" stroke-opacity="1.0" stroke="rgb(0, 0, 0)" stroke-linejoin="round" d=" M 329.970, 337.570 329.615, 337.219 325.698, 335.751 " stroke-name="b_1446_p1b1445" stroke-occlusion=" True True True " />
            <path fill="none" stroke-width="1.0" stroke-linecap="round" stroke-opacity="1.0" stroke="rgb(0, 0, 0)" stroke-linejoin="round" d=" M 316.109, 322.735 319.481, 323.884 316.490, 332.397 " stroke-name="b_1446_p1b1445" stroke-occlusion=" True True True " />
            <path fill="none" stroke-width="1.0" stroke-linecap="round" stroke-opacity="1.0" stroke="rgb(0, 0, 0)" stroke-linejoin="round" d=" M 351.531, 358.462 351.711, 358.529 360.415, 335.093 364.551, 323.957 " stroke-name="b_1446_p1b1445" stroke-occlusion=" True True True True " />
            <path fill="none" stroke-width="1.0" stroke-linecap="round" stroke-opacity="1.0" stroke="rgb(0, 0, 0)" stroke-linejoin="round" d=" M 325.707, 347.660 325.346, 348.649 332.785, 351.437 " stroke-name="b_1446_p1b1445" stroke-occlusion=" True True True " />
            <path fill="none" stroke-width="1.0" stroke-linecap="round" stroke-opacity="1.0" stroke="rgb(0, 0, 0)" stroke-linejoin="round" d=" M 336.910, 322.577 337.088, 322.658 330.832, 338.538 " stroke-name="b_1446_p1b1445" stroke-occlusion=" True True True " />
            <path fill="none" stroke-width="1.0" stroke-linecap="round" stroke-opacity="1.0" stroke="rgb(0, 0, 0)" stroke-linejoin="round" d=" M 320.175, 312.430 321.985, 307.469 321.732, 307.373 " stroke-name="b_1446_p1b1445" stroke-occlusion=" True True True " />
            <path fill="none" stroke-width="1.0" stroke-linecap="round" stroke-opacity="1.0" stroke="rgb(0, 0, 0)" stroke-linejoin="round" d=" M 299.325, 253.190 299.157, 253.587 299.419, 253.422 " stroke-name="b_1445_p1b1444" stroke-occlusion=" True True True " />
            <path fill="none" stroke-width="1.0" stroke-linecap="round" stroke-opacity="1.0" stroke="rgb(0, 0, 0)" stroke-linejoin="round" d=" M 318.626, 238.934 320.205, 239.536 320.294, 239.434 " stroke-name="b_1445_p1b1444" stroke-occlusion=" True True True " />
            <path fill="none" stroke-width="1.0" stroke-linecap="round" stroke-opacity="1.0" stroke="rgb(0, 0, 0)" stroke-linejoin="round" d=" M 346.426, 143.539 342.682, 141.949 342.627, 142.106 " stroke-name="b_1445_p1b1444" stroke-occlusion=" True True True " />
            <path fill="none" stroke-width="1.0" stroke-linecap="round" stroke-opacity="1.0" stroke="rgb(0, 0, 0)" stroke-linejoin="round" d=" M 328.131, 136.821 328.014, 136.846 319.236, 160.254 312.238, 178.916 " stroke-name="b_1445_p1b1444" stroke-occlusion=" True True True True " />
            <path fill="none" stroke-width="1.0" stroke-linecap="round" stroke-opacity="1.0" stroke="rgb(0, 0, 0)" stroke-linejoin="round" d=" M 265.894, 188.866 277.541, 193.151 273.207, 204.251 273.469, 204.415 272.548, 206.613 281.838, 210.049 " stroke-name="b_1445_p1b1444" stroke-occlusion=" True True True True True True " />
            <path fill="none" stroke-width="1.0" stroke-linecap="round" stroke-opacity="1.0" stroke="rgb(0, 0, 0)" stroke-linejoin="round" d=" M 248.954, 105.836 234.682, 100.270 234.501, 100.488 225.728, 123.898 225.313, 125.005 224.614, 124.838 224.080, 124.871 215.362, 148.302 206.644, 171.733 197.758, 195.617 213.537, 201.460 214.313, 201.679 214.447, 201.691 " stroke-name="b_1445_p1b1444" stroke-occlusion=" True True True True True True True True True True True True True " />
            <path fill="none" stroke-width="1.0" stroke-linecap="round" stroke-opacity="1.0" stroke="rgb(0, 0, 0)" stroke-linejoin="round" d=" M 281.838, 210.049 285.868, 211.579 286.242, 211.678 298.204, 216.106 " stroke-name="b_1445_p1b1444" stroke-occlusion=" True True True True " />
            <path fill="none" stroke-width="1.0" stroke-linecap="round" stroke-opacity="1.0" stroke="rgb(0, 0, 0)" stroke-linejoin="round" d=" M 299.419, 253.422 304.639, 255.413 304.984, 255.349 " stroke-name="b_1445_p1b1444" stroke-occlusion=" True True True " />
            <path fill="none" stroke-width="1.0" stroke-linecap="round" stroke-opacity="1.0" stroke="rgb(0, 0, 0)" stroke-linejoin="round" d=" M 312.238, 178.916 288.938, 169.856 286.858, 169.048 286.034, 169.060 282.733, 178.905 " stroke-name="b_1445_p1b1444" stroke-occlusion=" True True True True True " />
            <path fill="none" stroke-width="1.0" stroke-linecap="round" stroke-opacity="1.0" stroke="rgb(0, 0, 0)" stroke-linejoin="round" d=" M 311.089, 257.690 311.457, 257.834 311.577, 257.877 318.626, 238.934 " stroke-name="b_1445_p1b1444" stroke-occlusion=" True True True True " />
            <path fill="none" stroke-width="1.0" stroke-linecap="round" stroke-opacity="1.0" stroke="rgb(0, 0, 0)" stroke-linejoin="round" d=" M 320.294, 239.434 329.015, 242.646 329.149, 242.658 329.292, 242.048 333.087, 243.520 341.826, 220.097 350.565, 196.674 359.303, 173.251 367.450, 151.415 362.021, 149.418 " stroke-name="b_1445_p1b1444" stroke-occlusion=" True True True True True True True True True True " />
            <path fill="none" stroke-width="1.0" stroke-linecap="round" stroke-opacity="1.0" stroke="rgb(0, 0, 0)" stroke-linejoin="round" d=" M 265.929, 192.877 264.717, 192.354 265.894, 188.866 " stroke-name="b_1445_p1b1444" stroke-occlusion=" True True True " />
            <path fill="none" stroke-width="1.0" stroke-linecap="round" stroke-opacity="1.0" stroke="rgb(0, 0, 0)" stroke-linejoin="round" d=" M 214.447, 201.691 214.901, 200.283 238.313, 209.051 259.752, 217.079 263.323, 207.455 261.349, 206.782 " stroke-name="b_1445_p1b1444" stroke-occlusion=" True True True True True True " />
            <path fill="none" stroke-width="1.0" stroke-linecap="round" stroke-opacity="1.0" stroke="rgb(0, 0, 0)" stroke-linejoin="round" d=" M 263.167, 196.656 266.860, 198.031 268.323, 194.019 268.357, 193.819 " stroke-name="b_1445_p1b1444" stroke-occlusion=" True True True True " />
            <path fill="none" stroke-width="1.0" stroke-linecap="round" stroke-opacity="1.0" stroke="rgb(0, 0, 0)" stroke-linejoin="round" d=" M 268.357, 193.819 265.929, 192.877 " stroke-name="b_1445_p1b1444" stroke-occlusion=" True True " />
            <path fill="none" stroke-width="1.0" stroke-linecap="round" stroke-opacity="1.0" stroke="rgb(0, 0, 0)" stroke-linejoin="round" d=" M 298.204, 216.106 289.557, 239.563 286.300, 248.397 297.265, 252.396 " stroke-name="b_1445_p1b1444" stroke-occlusion=" True True True True " />
            <path fill="none" stroke-width="1.0" stroke-linecap="round" stroke-opacity="1.0" stroke="rgb(0, 0, 0)" stroke-linejoin="round" d=" M 330.127, 137.498 328.302, 136.784 328.147, 136.776 328.131, 136.821 " stroke-name="b_1445_p1b1444" stroke-occlusion=" True True True True " />
            <path fill="none" stroke-width="1.0" stroke-linecap="round" stroke-opacity="1.0" stroke="rgb(0, 0, 0)" stroke-linejoin="round" d=" M 281.261, 148.170 257.904, 139.257 252.901, 137.348 " stroke-name="b_1445_p1b1444" stroke-occlusion=" True True True " />
            <path fill="none" stroke-width="1.0" stroke-linecap="round" stroke-opacity="1.0" stroke="rgb(0, 0, 0)" stroke-linejoin="round" d=" M 261.340, 114.075 262.457, 111.102 262.490, 110.902 " stroke-name="b_1445_p1b1444" stroke-occlusion=" True True True " />
            <path fill="none" stroke-width="1.0" stroke-linecap="round" stroke-opacity="1.0" stroke="rgb(0, 0, 0)" stroke-linejoin="round" d=" M 262.490, 110.902 248.954, 105.836 " stroke-name="b_1445_p1b1444" stroke-occlusion=" True True " />
            <path fill="none" stroke-width="1.0" stroke-linecap="round" stroke-opacity="1.0" stroke="rgb(0, 0, 0)" stroke-linejoin="round" d=" M 280.745, 178.168 271.658, 174.652 280.181, 151.150 281.261, 148.170 " stroke-name="b_1445_p1b1444" stroke-occlusion=" True True True True " />
            <path fill="none" stroke-width="1.0" stroke-linecap="round" stroke-opacity="1.0" stroke="rgb(0, 0, 0)" stroke-linejoin="round" d=" M 342.627, 142.106 338.633, 140.600 330.127, 137.498 " stroke-name="b_1445_p1b1444" stroke-occlusion=" True True True " />
            <path fill="none" stroke-width="1.0" stroke-linecap="round" stroke-opacity="1.0" stroke="rgb(0, 0, 0)" stroke-linejoin="round" d=" M 213.459, 223.675 217.084, 213.846 217.118, 213.646 196.301, 206.005 196.028, 206.119 188.300, 226.032 188.159, 226.076 184.412, 236.511 184.031, 236.387 180.372, 246.416 180.259, 246.399 176.190, 256.282 167.487, 279.719 164.470, 287.842 187.892, 296.584 205.526, 303.165 206.173, 303.150 216.370, 306.953 216.918, 306.890 225.657, 283.467 234.397, 260.045 236.023, 255.685 " stroke-name="b_1395_p1b1394" stroke-occlusion=" True True True True True True True True True True True True True True True True True True True True True True " />
            <path fill="none" stroke-width="1.0" stroke-linecap="round" stroke-opacity="1.0" stroke="rgb(0, 0, 0)" stroke-linejoin="round" d=" M 218.125, 272.004 208.587, 268.270 209.882, 264.831 " stroke-name="b_1395_p1b1394" stroke-occlusion=" True True True " />
            <path fill="none" stroke-width="1.0" stroke-linecap="round" stroke-opacity="1.0" stroke="rgb(0, 0, 0)" stroke-linejoin="round" d=" M 216.349, 248.157 223.911, 227.700 223.945, 227.500 " stroke-name="b_1395_p1b1394" stroke-occlusion=" True True True " />
            <path fill="none" stroke-width="1.0" stroke-linecap="round" stroke-opacity="1.0" stroke="rgb(0, 0, 0)" stroke-linejoin="round" d=" M 223.945, 227.500 213.459, 223.675 " stroke-name="b_1395_p1b1394" stroke-occlusion=" True True " />
            <path fill="none" stroke-width="1.0" stroke-linecap="round" stroke-opacity="1.0" stroke="rgb(0, 0, 0)" stroke-linejoin="round" d=" M 236.023, 255.685 216.349, 248.157 " stroke-name="b_1395_p1b1394" stroke-occlusion=" True True " />
            <path fill="none" stroke-width="1.0" stroke-linecap="round" stroke-opacity="1.0" stroke="rgb(0, 0, 0)" stroke-linejoin="round" d=" M 212.661, 258.255 221.828, 261.695 218.125, 272.004 " stroke-name="b_1395_p1b1394" stroke-occlusion=" True True True " />
            <path fill="none" stroke-width="1.0" stroke-linecap="round" stroke-opacity="1.0" stroke="rgb(0, 0, 0)" stroke-linejoin="round" d=" M 202.393, 254.169 205.801, 244.507 " stroke-name="b_1395_p1b1394" stroke-occlusion=" True True " />
            <path fill="none" stroke-width="1.0" stroke-linecap="round" stroke-opacity="1.0" stroke="rgb(0, 0, 0)" stroke-linejoin="round" d=" M 205.801, 244.507 215.491, 248.287 215.645, 248.259 " stroke-name="b_1395_p1b1394" stroke-occlusion=" True True True " />
            <path fill="none" stroke-width="1.0" stroke-linecap="round" stroke-opacity="1.0" stroke="rgb(0, 0, 0)" stroke-linejoin="round" d=" M 118.836, 412.243 118.238, 412.073 109.587, 435.529 102.749, 454.071 126.137, 462.903 149.525, 471.734 156.808, 474.484 157.511, 474.346 166.273, 450.932 175.035, 427.517 183.796, 404.103 192.558, 380.689 199.061, 363.312 " stroke-name="b_1352_p1b1351" stroke-occlusion=" True True True True True True True True True True True True True " />
            <path fill="none" stroke-width="1.0" stroke-linecap="round" stroke-opacity="1.0" stroke="rgb(0, 0, 0)" stroke-linejoin="round" d=" M 175.794, 324.292 155.740, 316.767 155.078, 316.731 146.244, 340.118 144.977, 343.472 150.173, 345.453 " stroke-name="b_1352_p1b1351" stroke-occlusion=" True True True True True True " />
            <path fill="none" stroke-width="1.0" stroke-linecap="round" stroke-opacity="1.0" stroke="rgb(0, 0, 0)" stroke-linejoin="round" d=" M 129.605, 385.265 129.162, 385.319 128.367, 385.271 125.628, 393.102 121.460, 404.827 121.542, 405.097 " stroke-name="b_1352_p1b1351" stroke-occlusion=" True True True True True True " />
            <path fill="none" stroke-width="1.0" stroke-linecap="round" stroke-opacity="1.0" stroke="rgb(0, 0, 0)" stroke-linejoin="round" d=" M 145.683, 345.671 144.865, 345.344 136.172, 368.785 130.928, 382.926 142.243, 387.198 " stroke-name="b_1352_p1b1351" stroke-occlusion=" True True True True True " />
            <path fill="none" stroke-width="1.0" stroke-linecap="round" stroke-opacity="1.0" stroke="rgb(0, 0, 0)" stroke-linejoin="round" d=" M 238.998, 378.345 253.791, 383.872 254.714, 383.990 254.848, 384.002 " stroke-name="b_1352_p1b1351" stroke-occlusion=" True True True True " />
            <path fill="none" stroke-width="1.0" stroke-linecap="round" stroke-opacity="1.0" stroke="rgb(0, 0, 0)" stroke-linejoin="round" d=" M 205.219, 383.036 205.085, 383.023 204.317, 382.830 195.563, 406.248 186.809, 429.665 178.055, 453.082 169.301, 476.500 168.281, 479.228 191.704, 487.966 210.425, 494.951 211.052, 495.105 211.496, 495.051 220.231, 471.627 228.966, 448.203 237.701, 424.778 246.437, 401.354 247.329, 398.960 247.363, 398.760 233.237, 393.471 238.998, 378.345 " stroke-name="b_1352_p1b1351" stroke-occlusion=" True True True True True True True True True True True True True True True True True True True True " />
            <path fill="none" stroke-width="1.0" stroke-linecap="round" stroke-opacity="1.0" stroke="rgb(0, 0, 0)" stroke-linejoin="round" d=" M 119.136, 412.162 118.906, 412.053 118.836, 412.243 " stroke-name="b_1352_p1b1351" stroke-occlusion=" True True True " />
            <path fill="none" stroke-width="1.0" stroke-linecap="round" stroke-opacity="1.0" stroke="rgb(0, 0, 0)" stroke-linejoin="round" d=" M 150.173, 345.453 150.109, 345.622 150.232, 345.665 " stroke-name="b_1352_p1b1351" stroke-occlusion=" True True True " />
            <path fill="none" stroke-width="1.0" stroke-linecap="round" stroke-opacity="1.0" stroke="rgb(0, 0, 0)" stroke-linejoin="round" d=" M 254.848, 384.002 263.592, 360.581 264.760, 357.454 241.334, 348.722 217.909, 339.990 194.483, 331.258 175.794, 324.292 " stroke-name="b_1352_p1b1351" stroke-occlusion=" True True True True True True True " />
            <path fill="none" stroke-width="1.0" stroke-linecap="round" stroke-opacity="1.0" stroke="rgb(0, 0, 0)" stroke-linejoin="round" d=" M 146.049, 345.627 145.683, 345.671 " stroke-name="b_1352_p1b1351" stroke-occlusion=" True True " />
            <path fill="none" stroke-width="1.0" stroke-linecap="round" stroke-opacity="1.0" stroke="rgb(0, 0, 0)" stroke-linejoin="round" d=" M 121.542, 405.097 119.136, 412.162 " stroke-name="b_1352_p1b1351" stroke-occlusion=" True True " />
            <path fill="none" stroke-width="1.0" stroke-linecap="round" stroke-opacity="1.0" stroke="rgb(0, 0, 0)" stroke-linejoin="round" d=" M 141.341, 389.626 129.605, 385.265 " stroke-name="b_1352_p1b1351" stroke-occlusion=" True True " />
            <path fill="none" stroke-width="1.0" stroke-linecap="round" stroke-opacity="1.0" stroke="rgb(0, 0, 0)" stroke-linejoin="round" d=" M 150.232, 345.665 149.934, 347.043 " stroke-name="b_1352_p1b1351" stroke-occlusion=" True True " />
            <path fill="none" stroke-width="1.0" stroke-linecap="round" stroke-opacity="1.0" stroke="rgb(0, 0, 0)" stroke-linejoin="round" d=" M 149.934, 347.043 146.049, 345.627 " stroke-name="b_1352_p1b1351" stroke-occlusion=" True True " />
            <path fill="none" stroke-width="1.0" stroke-linecap="round" stroke-opacity="1.0" stroke="rgb(0, 0, 0)" stroke-linejoin="round" d=" M 142.243, 387.198 141.341, 389.626 " stroke-name="b_1352_p1b1351" stroke-occlusion=" True True " />
            <path fill="none" stroke-width="1.0" stroke-linecap="round" stroke-opacity="1.0" stroke="rgb(0, 0, 0)" stroke-linejoin="round" d=" M 212.221, 257.965 202.393, 254.169 " stroke-name="b_1395_p1b1394" stroke-occlusion=" True True " />
            <path fill="none" stroke-width="1.0" stroke-linecap="round" stroke-opacity="1.0" stroke="rgb(0, 0, 0)" stroke-linejoin="round" d=" M 209.882, 264.831 212.661, 258.255 " stroke-name="b_1395_p1b1394" stroke-occlusion=" True True " />
            <path fill="none" stroke-width="1.0" stroke-linecap="round" stroke-opacity="1.0" stroke="rgb(0, 0, 0)" stroke-linejoin="round" d=" M 215.645, 248.259 212.221, 257.965 " stroke-name="b_1395_p1b1394" stroke-occlusion=" True True " />
            <path fill="none" stroke-width="1.0" stroke-linecap="round" stroke-opacity="1.0" stroke="rgb(0, 0, 0)" stroke-linejoin="round" d=" M 215.533, 386.873 205.219, 383.036 " stroke-name="b_1352_p1b1351" stroke-occlusion=" True True " />
            <path fill="none" stroke-width="1.0" stroke-linecap="round" stroke-opacity="1.0" stroke="rgb(0, 0, 0)" stroke-linejoin="round" d=" M 228.865, 391.785 215.533, 386.873 " stroke-name="b_1352_p1b1351" stroke-occlusion=" True True " />
            <path fill="none" stroke-width="1.0" stroke-linecap="round" stroke-opacity="1.0" stroke="rgb(0, 0, 0)" stroke-linejoin="round" d=" M 234.746, 376.718 228.865, 391.785 " stroke-name="b_1352_p1b1351" stroke-occlusion=" True True " />
            <path fill="none" stroke-width="1.0" stroke-linecap="round" stroke-opacity="1.0" stroke="rgb(0, 0, 0)" stroke-linejoin="round" d=" M 199.061, 363.312 222.464, 372.103 234.746, 376.718 " stroke-name="b_1352_p1b1351" stroke-occlusion=" True True True " />
            <path fill="none" stroke-width="1.0" stroke-linecap="round" stroke-opacity="1.0" stroke="rgb(0, 0, 0)" stroke-linejoin="round" d=" M 252.901, 137.348 261.340, 114.075 " stroke-name="b_1445_p1b1444" stroke-occlusion=" True True " />
            <path fill="none" stroke-width="1.0" stroke-linecap="round" stroke-opacity="1.0" stroke="rgb(0, 0, 0)" stroke-linejoin="round" d=" M 261.349, 206.782 259.701, 205.999 " stroke-name="b_1445_p1b1444" stroke-occlusion=" True True " />
            <path fill="none" stroke-width="1.0" stroke-linecap="round" stroke-opacity="1.0" stroke="rgb(0, 0, 0)" stroke-linejoin="round" d=" M 259.701, 205.999 263.167, 196.656 " stroke-name="b_1445_p1b1444" stroke-occlusion=" True True " />
            <path fill="none" stroke-width="1.0" stroke-linecap="round" stroke-opacity="1.0" stroke="rgb(0, 0, 0)" stroke-linejoin="round" d=" M 282.733, 178.905 280.745, 178.168 " stroke-name="b_1445_p1b1444" stroke-occlusion=" True True " />
            <path fill="none" stroke-width="1.0" stroke-linecap="round" stroke-opacity="1.0" stroke="rgb(0, 0, 0)" stroke-linejoin="round" d=" M 297.265, 252.396 299.325, 253.190 " stroke-name="b_1445_p1b1444" stroke-occlusion=" True True " />
            <path fill="none" stroke-width="1.0" stroke-linecap="round" stroke-opacity="1.0" stroke="rgb(0, 0, 0)" stroke-linejoin="round" d=" M 304.984, 255.349 311.089, 257.690 " stroke-name="b_1445_p1b1444" stroke-occlusion=" True True " />
            <path fill="none" stroke-width="1.0" stroke-linecap="round" stroke-opacity="1.0" stroke="rgb(0, 0, 0)" stroke-linejoin="round" d=" M 311.575, 303.918 311.600, 303.857 " stroke-name="b_1446_p1b1445" stroke-occlusion=" True True " />
            <path fill="none" stroke-width="1.0" stroke-linecap="round" stroke-opacity="1.0" stroke="rgb(0, 0, 0)" stroke-linejoin="round" d=" M 312.983, 331.200 316.109, 322.735 " stroke-name="b_1446_p1b1445" stroke-occlusion=" True True " />
            <path fill="none" stroke-width="1.0" stroke-linecap="round" stroke-opacity="1.0" stroke="rgb(0, 0, 0)" stroke-linejoin="round" d=" M 312.997, 331.206 312.983, 331.200 " stroke-name="b_1446_p1b1445" stroke-occlusion=" True True " />
            <path fill="none" stroke-width="1.0" stroke-linecap="round" stroke-opacity="1.0" stroke="rgb(0, 0, 0)" stroke-linejoin="round" d=" M 316.490, 332.397 312.997, 331.206 " stroke-name="b_1446_p1b1445" stroke-occlusion=" True True " />
            <path fill="none" stroke-width="1.0" stroke-linecap="round" stroke-opacity="1.0" stroke="rgb(0, 0, 0)" stroke-linejoin="round" d=" M 321.028, 307.107 315.194, 304.903 " stroke-name="b_1446_p1b1445" stroke-occlusion=" True True " />
            <path fill="none" stroke-width="1.0" stroke-linecap="round" stroke-opacity="1.0" stroke="rgb(0, 0, 0)" stroke-linejoin="round" d=" M 325.698, 335.751 326.342, 333.916 " stroke-name="b_1446_p1b1445" stroke-occlusion=" True True " />
            <path fill="none" stroke-width="1.0" stroke-linecap="round" stroke-opacity="1.0" stroke="rgb(0, 0, 0)" stroke-linejoin="round" d=" M 326.342, 333.916 328.811, 327.275 " stroke-name="b_1446_p1b1445" stroke-occlusion=" True True " />
            <path fill="none" stroke-width="1.0" stroke-linecap="round" stroke-opacity="1.0" stroke="rgb(0, 0, 0)" stroke-linejoin="round" d=" M 329.711, 338.129 329.970, 337.570 " stroke-name="b_1446_p1b1445" stroke-occlusion=" True True " />
            <path fill="none" stroke-width="1.0" stroke-linecap="round" stroke-opacity="1.0" stroke="rgb(0, 0, 0)" stroke-linejoin="round" d=" M 330.832, 338.538 329.711, 338.129 " stroke-name="b_1446_p1b1445" stroke-occlusion=" True True " />
            <path fill="none" stroke-width="1.0" stroke-linecap="round" stroke-opacity="1.0" stroke="rgb(0, 0, 0)" stroke-linejoin="round" d=" M 328.811, 327.275 331.898, 328.294 " stroke-name="b_1446_p1b1445" stroke-occlusion=" True True " />
            <path fill="none" stroke-width="1.0" stroke-linecap="round" stroke-opacity="1.0" stroke="rgb(0, 0, 0)" stroke-linejoin="round" d=" M 336.296, 318.474 320.175, 312.430 " stroke-name="b_1446_p1b1445" stroke-occlusion=" True True " />
            <path fill="none" stroke-width="1.0" stroke-linecap="round" stroke-opacity="1.0" stroke="rgb(0, 0, 0)" stroke-linejoin="round" d=" M 335.687, 322.167 336.910, 322.577 " stroke-name="b_1446_p1b1445" stroke-occlusion=" True True " />
            <path fill="none" stroke-width="1.0" stroke-linecap="round" stroke-opacity="1.0" stroke="rgb(0, 0, 0)" stroke-linejoin="round" d=" M 341.868, 338.888 346.022, 328.526 " stroke-name="b_1446_p1b1445" stroke-occlusion=" True True " />
            <path fill="none" stroke-width="1.0" stroke-linecap="round" stroke-opacity="1.0" stroke="rgb(0, 0, 0)" stroke-linejoin="round" d=" M 349.192, 329.756 343.878, 344.163 " stroke-name="b_1446_p1b1445" stroke-occlusion=" True True " />
            <path fill="none" stroke-width="1.0" stroke-linecap="round" stroke-opacity="1.0" stroke="rgb(0, 0, 0)" stroke-linejoin="round" d=" M 346.022, 328.526 349.192, 329.756 " stroke-name="b_1446_p1b1445" stroke-occlusion=" True True " />
            <path fill="none" stroke-width="1.0" stroke-linecap="round" stroke-opacity="1.0" stroke="rgb(0, 0, 0)" stroke-linejoin="round" d=" M 353.612, 321.336 342.555, 317.160 " stroke-name="b_1446_p1b1445" stroke-occlusion=" True True " />
            <path fill="none" stroke-width="1.0" stroke-linecap="round" stroke-opacity="1.0" stroke="rgb(0, 0, 0)" stroke-linejoin="round" d=" M 355.881, 322.149 353.612, 321.336 " stroke-name="b_1446_p1b1445" stroke-occlusion=" True True " />
            <path fill="none" stroke-width="1.0" stroke-linecap="round" stroke-opacity="1.0" stroke="rgb(0, 0, 0)" stroke-linejoin="round" d=" M 362.021, 149.418 346.426, 143.539 " stroke-name="b_1445_p1b1444" stroke-occlusion=" True True " />
            <path fill="none" stroke-width="1.0" stroke-linecap="round" stroke-opacity="1.0" stroke="rgb(0, 0, 0)" stroke-linejoin="round" d=" M 384.691, 159.803 383.942, 160.619 " stroke-name="b_1500_p1b1499" stroke-occlusion=" True True " />
            <path fill="none" stroke-width="1.0" stroke-linecap="round" stroke-opacity="1.0" stroke="rgb(0, 0, 0)" stroke-linejoin="round" d=" M 386.073, 264.464 386.095, 264.330 " stroke-name="b_1501_p1b1500" stroke-occlusion=" True True " />
            <path fill="none" stroke-width="1.0" stroke-linecap="round" stroke-opacity="1.0" stroke="rgb(0, 0, 0)" stroke-linejoin="round" d=" M 475.508, 111.662 474.354, 114.807 " stroke-name="b_1639_p1b1638" stroke-occlusion=" True True " />
            <path fill="none" stroke-width="1.0" stroke-linecap="round" stroke-opacity="1.0" stroke="rgb(0, 0, 0)" stroke-linejoin="round" d=" M 485.411, 84.669 479.971, 99.497 " stroke-name="b_1639_p1b1638" stroke-occlusion=" True True " />
            <path fill="none" stroke-width="1.0" stroke-linecap="round" stroke-opacity="1.0" stroke="rgb(0, 0, 0)" stroke-linejoin="round" d=" M 494.546, 141.662 482.641, 137.320 " stroke-name="b_1639_p1b1638" stroke-occlusion=" True True " />
            <path fill="none" stroke-width="1.0" stroke-linecap="round" stroke-opacity="1.0" stroke="rgb(0, 0, 0)" stroke-linejoin="round" d=" M 500.869, 127.277 502.912, 121.946 " stroke-name="b_1639_p1b1638" stroke-occlusion=" True True " />
            <path fill="none" stroke-width="1.0" stroke-linecap="round" stroke-opacity="1.0" stroke="rgb(0, 0, 0)" stroke-linejoin="round" d=" M 507.292, 110.082 507.533, 109.337 " stroke-name="b_1639_p1b1638" stroke-occlusion=" True True " />
            <path fill="none" stroke-width="1.0" stroke-linecap="round" stroke-opacity="1.0" stroke="rgb(0, 0, 0)" stroke-linejoin="round" d=" M 510.577, 111.201 507.292, 110.082 " stroke-name="b_1639_p1b1638" stroke-occlusion=" True True " />
            <path fill="none" stroke-width="1.0" stroke-linecap="round" stroke-opacity="1.0" stroke="rgb(0, 0, 0)" stroke-linejoin="round" d=" M 510.920, 109.519 507.533, 108.204 " stroke-name="b_1639_p1b1638" stroke-occlusion=" True True " />
            <path fill="none" stroke-width="1.0" stroke-linecap="round" stroke-opacity="1.0" stroke="rgb(0, 0, 0)" stroke-linejoin="round" d=" M 510.866, 98.624 512.631, 94.862 " stroke-name="b_1639_p1b1638" stroke-occlusion=" True True " />
            <path fill="none" stroke-width="1.0" stroke-linecap="round" stroke-opacity="1.0" stroke="rgb(0, 0, 0)" stroke-linejoin="round" d=" M 515.873, 96.103 510.920, 109.519 " stroke-name="b_1639_p1b1638" stroke-occlusion=" True True " />
            <path fill="none" stroke-width="1.0" stroke-linecap="round" stroke-opacity="1.0" stroke="rgb(0, 0, 0)" stroke-linejoin="round" d=" M 502.912, 121.946 521.396, 128.808 " stroke-name="b_1639_p1b1638" stroke-occlusion=" True True " />
        </g>
    </g>
</svg>
