<?xml version='1.0' encoding='ascii'?>
<svg xmlns="http://www.w3.org/2000/svg" version="1.1" width="512" height="512">
    <g id="ViewLayer_LineSet" xmlns:inkscape="http://www.inkscape.org/namespaces/inkscape" inkscape:groupmode="lineset" inkscape:label="ViewLayer_LineSet">
        <g xmlns:inkscape="http://www.inkscape.org/namespaces/inkscape" inkscape:groupmode="layer" id="strokes" inkscape:label="strokes">
            <path fill="none" stroke-width="1.0" stroke-linecap="round" stroke-opacity="1.0" stroke="rgb(0, 0, 0)" stroke-linejoin="round" d=" M 522.436, 325.550 512.437, 325.407 508.248, 325.348 502.091, 325.309 492.091, 325.242 486.889, 325.207 476.889, 325.139 471.466, 325.103 465.530, 325.063 455.530, 324.981 451.849, 324.951 444.172, 324.888 440.841, 324.861 430.842, 324.738 422.814, 324.640 412.814, 324.583 410.216, 324.569 401.455, 324.519 397.910, 324.499 " stroke-name="p1g9_newyork_plane" stroke-occlusion=" True True True True True True True True True True True True True True True True True True True " />
            <path fill="none" stroke-width="1.0" stroke-linecap="round" stroke-opacity="1.0" stroke="rgb(0, 0, 0)" stroke-linejoin="round" d=" M 341.522, 323.926 337.380, 323.875 327.380, 323.812 318.963, 323.758 " stroke-name="p1g9_newyork_plane" stroke-occlusion=" True True True True " />
            <path fill="none" stroke-width="1.0" stroke-linecap="round" stroke-opacity="1.0" stroke="rgb(0, 0, 0)" stroke-linejoin="round" d=" M 360.569, 324.159 358.738, 324.137 348.967, 324.017 348.009, 324.005 " stroke-name="p1g9_newyork_plane" stroke-occlusion=" True True True True " />
            <path fill="none" stroke-width="1.0" stroke-linecap="round" stroke-opacity="1.0" stroke="rgb(0, 0, 0)" stroke-linejoin="round" d=" M 142.570, 321.707 134.596, 321.632 124.596, 321.532 123.796, 321.524 113.796, 321.417 103.970, 321.312 102.437, 321.296 98.902, 321.258 88.902, 321.148 81.078, 321.063 73.345, 320.984 63.345, 320.887 59.719, 320.852 49.719, 320.756 42.720, 320.688 38.359, 320.646 28.310, 320.489 18.311, 320.333 17.002, 320.313 12.096, 320.237 2.097, 320.066 -4.356, 319.955 " stroke-name="p1g9_newyork_plane" stroke-occlusion=" True True True True True True True True True True True True True True True True True True True True True True " />
            <path fill="none" stroke-width="1.0" stroke-linecap="round" stroke-opacity="1.0" stroke="rgb(0, 0, 0)" stroke-linejoin="round" d=" M 189.539, 322.321 187.871, 322.293 177.872, 322.125 169.494, 321.984 166.514, 321.934 165.221, 321.922 155.221, 321.827 151.627, 321.793 " stroke-name="p1g9_newyork_plane" stroke-occlusion=" True True True True True True True True " />
            <path fill="none" stroke-width="1.0" stroke-linecap="round" stroke-opacity="1.0" stroke="rgb(0, 0, 0)" stroke-linejoin="round" d=" M 88.591, 358.663 88.845, 357.007 78.866, 357.657 68.887, 358.306 67.945, 358.367 63.789, 364.432 63.389, 365.909 63.196, 366.623 " stroke-name="b_2430_p1b2429" stroke-occlusion=" True True True True True True True True " />
            <path fill="none" stroke-width="1.0" stroke-linecap="round" stroke-opacity="1.0" stroke="rgb(0, 0, 0)" stroke-linejoin="round" d=" M 96.707, 343.763 96.660, 343.352 96.646, 343.228 96.552, 342.402 96.455, 341.549 86.502, 342.517 79.302, 343.217 78.783, 343.978 78.181, 344.862 76.370, 347.519 76.389, 348.810 86.363, 348.095 95.094, 347.469 " stroke-name="b_2430_p1b2429" stroke-occlusion=" True True True True True True True True True True True True True " />
            <path fill="none" stroke-width="1.0" stroke-linecap="round" stroke-opacity="1.0" stroke="rgb(0, 0, 0)" stroke-linejoin="round" d=" M 148.574, 338.635 138.623, 339.619 128.672, 340.603 118.720, 341.587 108.769, 342.571 98.817, 343.555 96.707, 343.763 95.094, 347.469 94.345, 345.691 " stroke-name="b_2430_p1b2429" stroke-occlusion=" True True True True True True True True True " />
            <path fill="none" stroke-width="1.0" stroke-linecap="round" stroke-opacity="1.0" stroke="rgb(0, 0, 0)" stroke-linejoin="round" d=" M 85.668, 364.597 86.245, 363.425 88.591, 358.663 " stroke-name="b_2430_p1b2429" stroke-occlusion=" True True True " />
            <path fill="none" stroke-width="1.0" stroke-linecap="round" stroke-opacity="1.0" stroke="rgb(0, 0, 0)" stroke-linejoin="round" d=" M 85.352, 361.870 85.542, 363.502 85.668, 364.597 75.709, 365.495 65.749, 366.393 63.196, 366.623 " stroke-name="b_2430_p1b2429" stroke-occlusion=" True True True True True True " />
            <path fill="none" stroke-width="1.0" stroke-linecap="round" stroke-opacity="1.0" stroke="rgb(0, 0, 0)" stroke-linejoin="round" d=" M 199.894, 730.309 198.712, 720.379 197.530, 710.449 196.348, 700.519 195.166, 690.589 193.984, 680.659 192.802, 670.729 191.620, 660.799 190.438, 650.870 189.256, 640.940 188.074, 631.010 186.892, 621.080 185.710, 611.150 184.528, 601.220 183.346, 591.290 182.164, 581.360 180.982, 571.430 179.800, 561.500 178.618, 551.571 177.436, 541.641 176.254, 531.711 175.072, 521.781 173.890, 511.851 172.708, 501.921 171.526, 491.991 170.344, 482.061 169.162, 472.131 167.980, 462.202 166.798, 452.272 165.616, 442.342 164.434, 432.412 163.252, 422.482 162.070, 412.552 160.888, 402.622 159.706, 392.692 158.524, 382.762 158.095, 379.161 156.913, 369.232 156.128, 362.631 155.749, 359.453 155.381, 356.363 153.611, 356.569 152.646, 356.682 152.598, 356.215 152.525, 355.498 " stroke-name="b_2430_p1b2429" stroke-occlusion=" True True True True True True True True True True True True True True True True True True True True True True True True True True True True True True True True True True True True True True True True True True True True True " />
            <path fill="none" stroke-width="1.0" stroke-linecap="round" stroke-opacity="1.0" stroke="rgb(0, 0, 0)" stroke-linejoin="round" d=" M 158.095, 379.161 158.200, 377.888 158.214, 367.889 158.227, 357.889 158.235, 352.157 156.281, 342.443 153.918, 341.868 153.825, 339.104 152.952, 339.200 151.685, 339.340 148.532, 339.689 147.978, 339.751 " stroke-name="b_2430_p1b2429" stroke-occlusion=" True True True True True True True True True True True True " />
            <path fill="none" stroke-width="1.0" stroke-linecap="round" stroke-opacity="1.0" stroke="rgb(0, 0, 0)" stroke-linejoin="round" d=" M 156.128, 362.631 156.138, 355.381 155.827, 353.108 158.235, 352.157 " stroke-name="b_2430_p1b2429" stroke-occlusion=" True True True True " />
            <path fill="none" stroke-width="1.0" stroke-linecap="round" stroke-opacity="1.0" stroke="rgb(0, 0, 0)" stroke-linejoin="round" d=" M 78.181, 344.862 68.220, 345.743 58.259, 346.624 53.357, 347.057 43.396, 347.939 33.435, 348.820 30.806, 349.052 20.845, 349.933 19.508, 350.051 16.988, 352.120 9.068, 352.977 4.230, 355.438 -0.248, 356.604 " stroke-name="b_2430_p1b2429" stroke-occlusion=" True True True True True True True True True True True True True " />
            <path fill="none" stroke-width="1.0" stroke-linecap="round" stroke-opacity="1.0" stroke="rgb(0, 0, 0)" stroke-linejoin="round" d=" M 148.574, 338.635 138.616, 339.540 128.657, 340.445 118.698, 341.350 108.739, 342.255 98.780, 343.159 96.660, 343.352 " stroke-name="b_2430_p1b2429" stroke-occlusion=" True True True True True True True " />
            <path fill="none" stroke-width="1.0" stroke-linecap="round" stroke-opacity="1.0" stroke="rgb(0, 0, 0)" stroke-linejoin="round" d=" M 152.525, 355.498 152.694, 355.493 152.751, 355.491 155.799, 355.392 156.138, 355.381 " stroke-name="b_2430_p1b2429" stroke-occlusion=" True True True True True " />
            <path fill="none" stroke-width="1.0" stroke-linecap="round" stroke-opacity="1.0" stroke="rgb(0, 0, 0)" stroke-linejoin="round" d=" M 96.455, 341.549 95.550, 343.325 95.278, 343.860 94.345, 345.691 84.397, 346.703 77.268, 347.428 76.370, 347.519 " stroke-name="b_2430_p1b2429" stroke-occlusion=" True True True True True True True " />
            <path fill="none" stroke-width="1.0" stroke-linecap="round" stroke-opacity="1.0" stroke="rgb(0, 0, 0)" stroke-linejoin="round" d=" M 88.845, 357.007 87.571, 358.781 85.352, 361.870 75.422, 363.050 65.340, 364.248 63.789, 364.432 " stroke-name="b_2430_p1b2429" stroke-occlusion=" True True True True True True " />
            <path fill="none" stroke-width="1.0" stroke-linecap="round" stroke-opacity="1.0" stroke="rgb(0, 0, 0)" stroke-linejoin="round" d=" M 148.532, 339.689 148.574, 338.635 138.613, 339.516 128.652, 340.397 118.691, 341.278 108.730, 342.160 98.769, 343.041 96.646, 343.228 " stroke-name="b_2430_p1b2429" stroke-occlusion=" True True True True True True True True " />
            <path fill="none" stroke-width="1.0" stroke-linecap="round" stroke-opacity="1.0" stroke="rgb(0, 0, 0)" stroke-linejoin="round" d=" M 147.978, 339.751 148.574, 338.635 " stroke-name="b_2430_p1b2429" stroke-occlusion=" True True " />
            <path fill="none" stroke-width="1.0" stroke-linecap="round" stroke-opacity="1.0" stroke="rgb(0, 0, 0)" stroke-linejoin="round" d=" M 228.199, 408.126 230.177, 410.504 234.513, 419.516 238.227, 427.237 241.264, 430.159 243.957, 436.127 244.770, 437.929 249.386, 446.800 254.001, 455.671 258.616, 464.543 263.231, 473.414 267.846, 482.285 272.461, 491.157 276.841, 499.575 277.169, 489.580 277.497, 479.586 277.825, 469.591 278.162, 459.334 287.292, 455.254 296.421, 451.173 303.340, 448.081 " stroke-name="b_2429_p1b2428" stroke-occlusion=" True True True True True True True True True True True True True True True True True True True True True " />
            <path fill="none" stroke-width="1.0" stroke-linecap="round" stroke-opacity="1.0" stroke="rgb(0, 0, 0)" stroke-linejoin="round" d=" M 334.692, 456.522 344.247, 453.572 347.959, 452.425 349.018, 445.470 348.786, 445.270 341.221, 438.730 340.455, 438.069 340.010, 437.684 334.656, 433.057 331.334, 433.972 323.317, 436.178 319.750, 437.160 310.725, 439.645 " stroke-name="b_2429_p1b2428" stroke-occlusion=" True True True True True True True True True True True True True " />
            <path fill="none" stroke-width="1.0" stroke-linecap="round" stroke-opacity="1.0" stroke="rgb(0, 0, 0)" stroke-linejoin="round" d=" M 317.513, 454.605 317.375, 453.553 316.410, 446.190 316.381, 445.963 311.621, 440.234 310.725, 439.645 " stroke-name="b_2429_p1b2428" stroke-occlusion=" True True True True True True " />
            <path fill="none" stroke-width="1.0" stroke-linecap="round" stroke-opacity="1.0" stroke="rgb(0, 0, 0)" stroke-linejoin="round" d=" M 316.604, 454.187 316.522, 453.562 316.475, 453.203 315.580, 446.358 310.725, 439.645 309.701, 446.377 303.340, 448.081 312.657, 451.714 316.008, 453.021 316.475, 453.203 " stroke-name="b_2429_p1b2428" stroke-occlusion=" True True True True True True True True True True " />
            <path fill="none" stroke-width="1.0" stroke-linecap="round" stroke-opacity="1.0" stroke="rgb(0, 0, 0)" stroke-linejoin="round" d=" M 445.273, 476.735 437.227, 470.797 429.181, 464.859 421.135, 458.921 415.396, 454.687 415.335, 454.641 407.289, 448.703 399.797, 443.175 400.374, 439.390 400.808, 436.540 392.618, 430.803 385.485, 425.808 383.446, 424.380 380.637, 424.939 370.829, 426.891 370.544, 426.948 370.506, 429.678 " stroke-name="b_2429_p1b2428" stroke-occlusion=" True True True True True True True True True True True True True True True True True " />
            <path fill="none" stroke-width="1.0" stroke-linecap="round" stroke-opacity="1.0" stroke="rgb(0, 0, 0)" stroke-linejoin="round" d=" M 400.808, 436.540 397.597, 437.356 393.091, 438.501 383.399, 440.964 383.282, 440.994 380.933, 441.591 " stroke-name="b_2429_p1b2428" stroke-occlusion=" True True True True True True " />
            <path fill="none" stroke-width="1.0" stroke-linecap="round" stroke-opacity="1.0" stroke="rgb(0, 0, 0)" stroke-linejoin="round" d=" M 453.093, 508.805 459.108, 513.795 " stroke-name="b_2429_p1b2428" stroke-occlusion=" True True " />
            <path fill="none" stroke-width="1.0" stroke-linecap="round" stroke-opacity="1.0" stroke="rgb(0, 0, 0)" stroke-linejoin="round" d=" M 340.701, 416.253 340.949, 408.430 333.230, 402.073 326.818, 396.793 317.130, 399.270 307.441, 401.747 306.536, 401.979 307.265, 404.921 300.480, 397.575 300.023, 397.080 296.635, 395.228 286.808, 397.080 276.981, 398.932 267.154, 400.784 257.327, 402.636 247.500, 404.488 237.673, 406.341 228.199, 408.126 227.921, 418.122 227.661, 427.525 227.894, 437.522 227.954, 440.072 " stroke-name="b_2429_p1b2428" stroke-occlusion=" True True True True True True True True True True True True True True True True True True True True True True " />
            <path fill="none" stroke-width="1.0" stroke-linecap="round" stroke-opacity="1.0" stroke="rgb(0, 0, 0)" stroke-linejoin="round" d=" M 318.765, 413.479 313.483, 410.723 307.265, 404.921 " stroke-name="b_2429_p1b2428" stroke-occlusion=" True True True " />
            <path fill="none" stroke-width="1.0" stroke-linecap="round" stroke-opacity="1.0" stroke="rgb(0, 0, 0)" stroke-linejoin="round" d=" M 340.949, 408.430 331.222, 410.750 321.495, 413.070 318.925, 413.682 318.691, 413.738 " stroke-name="b_2429_p1b2428" stroke-occlusion=" True True True True True " />
            <path fill="none" stroke-width="1.0" stroke-linecap="round" stroke-opacity="1.0" stroke="rgb(0, 0, 0)" stroke-linejoin="round" d=" M 318.765, 413.479 318.691, 413.738 319.511, 414.425 322.970, 419.924 326.970, 419.096 336.762, 417.069 340.701, 416.253 350.493, 414.226 360.286, 412.199 362.587, 411.723 370.655, 417.630 378.724, 423.538 380.637, 424.939 " stroke-name="b_2429_p1b2428" stroke-occlusion=" True True True True True True True True True True True True True " />
            <path fill="none" stroke-width="1.0" stroke-linecap="round" stroke-opacity="1.0" stroke="rgb(0, 0, 0)" stroke-linejoin="round" d=" M 619.694, 540.704 611.125, 535.549 602.556, 530.394 593.987, 525.239 585.418, 520.083 576.850, 514.928 568.281, 509.773 559.712, 504.618 551.143, 499.463 542.574, 494.308 534.006, 489.152 525.437, 483.997 516.868, 478.842 508.299, 473.687 499.730, 468.532 491.162, 463.377 482.593, 458.221 474.024, 453.066 465.455, 447.911 456.886, 442.756 448.318, 437.601 439.749, 432.445 431.180, 427.290 422.611, 422.135 419.564, 420.302 409.572, 420.694 402.597, 420.968 392.974, 423.690 385.485, 425.808 " stroke-name="b_2429_p1b2428" stroke-occlusion=" True True True True True True True True True True True True True True True True True True True True True True True True True True True True True " />
            <path fill="none" stroke-width="1.0" stroke-linecap="round" stroke-opacity="1.0" stroke="rgb(0, 0, 0)" stroke-linejoin="round" d=" M 372.215, 429.221 370.506, 429.678 366.832, 430.662 367.187, 438.938 361.660, 440.663 358.514, 441.644 352.356, 435.180 351.359, 434.649 341.699, 437.233 340.443, 437.568 340.010, 437.684 " stroke-name="b_2429_p1b2428" stroke-occlusion=" True True True True True True True True True True True " />
            <path fill="none" stroke-width="1.0" stroke-linecap="round" stroke-opacity="1.0" stroke="rgb(0, 0, 0)" stroke-linejoin="round" d=" M 459.463, 495.807 452.821, 497.163 452.473, 497.234 452.756, 502.514 453.093, 508.805 452.678, 508.998 445.031, 512.561 " stroke-name="b_2429_p1b2428" stroke-occlusion=" True True True True True True True " />
            <path fill="none" stroke-width="1.0" stroke-linecap="round" stroke-opacity="1.0" stroke="rgb(0, 0, 0)" stroke-linejoin="round" d=" M 501.999, 519.015 502.261, 509.019 502.271, 508.651 494.188, 502.763 486.105, 496.874 478.023, 490.986 469.940, 485.098 468.663, 484.168 460.038, 488.002 452.893, 491.179 452.821, 497.163 " stroke-name="b_2429_p1b2428" stroke-occlusion=" True True True True True True True True True True True " />
            <path fill="none" stroke-width="1.0" stroke-linecap="round" stroke-opacity="1.0" stroke="rgb(0, 0, 0)" stroke-linejoin="round" d=" M 445.273, 476.735 445.205, 486.735 445.138, 496.735 445.070, 506.735 445.031, 512.561 " stroke-name="b_2429_p1b2428" stroke-occlusion=" True True True True True " />
            <path fill="none" stroke-width="1.0" stroke-linecap="round" stroke-opacity="1.0" stroke="rgb(0, 0, 0)" stroke-linejoin="round" d=" M 442.471, 513.753 435.124, 506.970 427.776, 500.186 420.429, 493.403 414.453, 487.885 405.025, 484.551 395.597, 481.216 386.169, 477.882 382.544, 476.600 377.557, 474.836 371.893, 472.833 369.920, 472.136 366.659, 470.982 366.546, 470.943 366.226, 470.829 358.159, 467.976 351.464, 465.609 342.036, 462.275 332.608, 458.940 323.180, 455.606 319.252, 454.217 317.375, 453.553 " stroke-name="b_2429_p1b2428" stroke-occlusion=" True True True True True True True True True True True True True True True True True True True True True True " />
            <path fill="none" stroke-width="1.0" stroke-linecap="round" stroke-opacity="1.0" stroke="rgb(0, 0, 0)" stroke-linejoin="round" d=" M 434.083, 526.803 426.751, 520.003 419.419, 513.203 414.326, 508.480 406.993, 501.680 405.785, 500.560 396.592, 504.495 387.399, 508.430 382.266, 510.626 380.563, 511.355 377.138, 512.822 " stroke-name="b_2429_p1b2428" stroke-occlusion=" True True True True True True True True True True True " />
            <path fill="none" stroke-width="1.0" stroke-linecap="round" stroke-opacity="1.0" stroke="rgb(0, 0, 0)" stroke-linejoin="round" d=" M 328.385, 451.440 326.770, 451.931 319.252, 454.217 " stroke-name="b_2429_p1b2428" stroke-occlusion=" True True True " />
            <path fill="none" stroke-width="1.0" stroke-linecap="round" stroke-opacity="1.0" stroke="rgb(0, 0, 0)" stroke-linejoin="round" d=" M 333.932, 449.894 334.692, 456.522 328.387, 451.441 328.385, 451.440 327.822, 447.009 327.435, 443.967 " stroke-name="b_2429_p1b2428" stroke-occlusion=" True True True True True True " />
            <path fill="none" stroke-width="1.0" stroke-linecap="round" stroke-opacity="1.0" stroke="rgb(0, 0, 0)" stroke-linejoin="round" d=" M 399.797, 443.175 399.584, 443.259 390.270, 446.899 383.102, 449.700 381.325, 450.394 " stroke-name="b_2429_p1b2428" stroke-occlusion=" True True True True True " />
            <path fill="none" stroke-width="1.0" stroke-linecap="round" stroke-opacity="1.0" stroke="rgb(0, 0, 0)" stroke-linejoin="round" d=" M 366.832, 430.662 370.454, 433.469 372.173, 434.802 378.300, 439.550 380.933, 441.591 381.325, 450.394 378.122, 447.799 372.113, 442.930 370.343, 441.495 367.187, 438.938 " stroke-name="b_2429_p1b2428" stroke-occlusion=" True True True True True True True True True True " />
            <path fill="none" stroke-width="1.0" stroke-linecap="round" stroke-opacity="1.0" stroke="rgb(0, 0, 0)" stroke-linejoin="round" d=" M 452.473, 497.234 452.816, 497.520 459.322, 502.936 467.007, 509.335 468.945, 510.949 476.630, 517.347 478.626, 519.009 " stroke-name="b_2429_p1b2428" stroke-occlusion=" True True True True True True True " />
            <path fill="none" stroke-width="1.0" stroke-linecap="round" stroke-opacity="1.0" stroke="rgb(0, 0, 0)" stroke-linejoin="round" d=" M 316.381, 445.963 315.580, 446.358 " stroke-name="b_2429_p1b2428" stroke-occlusion=" True True " />
            <path fill="none" stroke-width="1.0" stroke-linecap="round" stroke-opacity="1.0" stroke="rgb(0, 0, 0)" stroke-linejoin="round" d=" M 318.765, 413.479 311.480, 406.628 306.536, 401.979 " stroke-name="b_2429_p1b2428" stroke-occlusion=" True True True " />
            <path fill="none" stroke-width="1.0" stroke-linecap="round" stroke-opacity="1.0" stroke="rgb(0, 0, 0)" stroke-linejoin="round" d=" M 349.018, 445.470 342.882, 447.269 333.932, 449.894 333.824, 449.796 330.048, 446.351 327.435, 443.967 319.610, 445.545 316.410, 446.190 " stroke-name="b_2429_p1b2428" stroke-occlusion=" True True True True True True True True " />
            <path fill="none" stroke-width="1.0" stroke-linecap="round" stroke-opacity="1.0" stroke="rgb(0, 0, 0)" stroke-linejoin="round" d=" M 372.215, 429.221 370.544, 426.948 " stroke-name="b_2429_p1b2428" stroke-occlusion=" True True " />
            <path fill="none" stroke-width="1.0" stroke-linecap="round" stroke-opacity="1.0" stroke="rgb(0, 0, 0)" stroke-linejoin="round" d=" M 459.463, 495.807 452.893, 491.179 " stroke-name="b_2429_p1b2428" stroke-occlusion=" True True " />
            <path fill="none" stroke-width="1.0" stroke-linecap="round" stroke-opacity="1.0" stroke="rgb(0, 0, 0)" stroke-linejoin="round" d=" M 460.038, 488.002 452.088, 481.936 445.273, 476.735 435.870, 480.137 426.466, 483.539 417.062, 486.941 415.459, 487.521 414.453, 487.885 " stroke-name="b_2429_p1b2428" stroke-occlusion=" True True True True True True True True " />
            <path fill="none" stroke-width="1.0" stroke-linecap="round" stroke-opacity="1.0" stroke="rgb(0, 0, 0)" stroke-linejoin="round" d=" M 136.936, 328.547 136.520, 326.414 126.544, 327.119 116.569, 327.824 106.594, 328.528 96.619, 329.233 86.644, 329.938 76.669, 330.643 66.694, 331.348 56.719, 332.053 55.495, 332.140 50.972, 332.459 47.288, 332.719 45.612, 336.340 " stroke-name="b_2398_p1b2397" stroke-occlusion=" True True True True True True True True True True True True True True " />
            <path fill="none" stroke-width="1.0" stroke-linecap="round" stroke-opacity="1.0" stroke="rgb(0, 0, 0)" stroke-linejoin="round" d=" M 136.521, 328.821 136.936, 328.547 " stroke-name="b_2398_p1b2397" stroke-occlusion=" True True " />
            <path fill="none" stroke-width="1.0" stroke-linecap="round" stroke-opacity="1.0" stroke="rgb(0, 0, 0)" stroke-linejoin="round" d=" M 152.952, 339.200 152.967, 337.397 152.350, 328.069 152.055, 328.092 151.435, 328.140 141.465, 328.913 136.539, 329.294 136.430, 329.303 126.460, 330.075 116.490, 330.848 106.520, 331.620 96.550, 332.393 86.580, 333.166 76.610, 333.938 66.640, 334.711 56.670, 335.483 55.531, 335.571 45.612, 336.340 45.431, 336.354 37.680, 342.673 30.866, 348.229 30.806, 349.052 " stroke-name="b_2398_p1b2397" stroke-occlusion=" True True True True True True True True True True True True True True True True True True True True True True " />
            <path fill="none" stroke-width="1.0" stroke-linecap="round" stroke-opacity="1.0" stroke="rgb(0, 0, 0)" stroke-linejoin="round" d=" M 152.055, 328.092 152.067, 327.898 151.923, 326.816 151.627, 321.793 151.586, 321.099 142.570, 321.707 132.593, 322.381 122.616, 323.054 112.638, 323.728 102.661, 324.401 92.684, 325.075 82.707, 325.748 72.729, 326.422 62.752, 327.095 52.925, 327.759 50.972, 332.459 " stroke-name="b_2398_p1b2397" stroke-occlusion=" True True True True True True True True True True True True True True True True " />
            <path fill="none" stroke-width="1.0" stroke-linecap="round" stroke-opacity="1.0" stroke="rgb(0, 0, 0)" stroke-linejoin="round" d=" M 126.606, 332.591 126.734, 331.602 126.758, 331.413 116.789, 332.191 106.819, 332.969 96.849, 333.747 86.880, 334.525 76.910, 335.303 66.940, 336.081 56.970, 336.859 55.546, 336.971 49.273, 337.460 49.029, 337.638 44.073, 341.263 44.320, 343.258 " stroke-name="b_2398_p1b2397" stroke-occlusion=" True True True True True True True True True True True True True True True " />
            <path fill="none" stroke-width="1.0" stroke-linecap="round" stroke-opacity="1.0" stroke="rgb(0, 0, 0)" stroke-linejoin="round" d=" M 126.082, 336.024 126.085, 335.024 " stroke-name="b_2398_p1b2397" stroke-occlusion=" True True " />
            <path fill="none" stroke-width="1.0" stroke-linecap="round" stroke-opacity="1.0" stroke="rgb(0, 0, 0)" stroke-linejoin="round" d=" M 44.320, 343.258 54.281, 342.376 64.242, 341.495 74.203, 340.614 84.164, 339.733 94.125, 338.851 104.086, 337.970 114.047, 337.089 124.008, 336.208 126.082, 336.024 126.606, 332.591 " stroke-name="b_2398_p1b2397" stroke-occlusion=" True True True True True True True True True True True " />
            <path fill="none" stroke-width="1.0" stroke-linecap="round" stroke-opacity="1.0" stroke="rgb(0, 0, 0)" stroke-linejoin="round" d=" M 152.967, 337.397 151.572, 337.521 141.611, 338.405 131.650, 339.288 121.689, 340.172 111.728, 341.056 101.767, 341.939 96.552, 342.402 " stroke-name="b_2398_p1b2397" stroke-occlusion=" True True True True True True True True " />
            <path fill="none" stroke-width="1.0" stroke-linecap="round" stroke-opacity="1.0" stroke="rgb(0, 0, 0)" stroke-linejoin="round" d=" M 136.539, 329.294 136.521, 328.821 146.503, 328.228 152.067, 327.898 " stroke-name="b_2398_p1b2397" stroke-occlusion=" True True True True " />
            <path fill="none" stroke-width="1.0" stroke-linecap="round" stroke-opacity="1.0" stroke="rgb(0, 0, 0)" stroke-linejoin="round" d=" M 136.520, 326.414 136.453, 328.582 136.430, 329.303 " stroke-name="b_2398_p1b2397" stroke-occlusion=" True True True " />
            <path fill="none" stroke-width="1.0" stroke-linecap="round" stroke-opacity="1.0" stroke="rgb(0, 0, 0)" stroke-linejoin="round" d=" M 126.758, 331.413 126.723, 331.603 126.537, 332.597 126.085, 335.024 116.114, 335.782 106.143, 336.541 96.172, 337.299 86.200, 338.058 76.229, 338.817 66.258, 339.575 56.287, 340.334 46.622, 341.069 44.073, 341.263 " stroke-name="b_2398_p1b2397" stroke-occlusion=" True True True True True True True True True True True True True " />
            <path fill="none" stroke-width="1.0" stroke-linecap="round" stroke-opacity="1.0" stroke="rgb(0, 0, 0)" stroke-linejoin="round" d=" M 317.922, 376.139 317.803, 367.933 318.026, 357.935 318.058, 356.517 316.034, 355.363 313.372, 353.846 312.317, 353.245 307.852, 350.700 299.164, 345.748 298.158, 345.174 290.638, 340.567 288.211, 339.080 283.798, 336.376 281.280, 336.660 271.344, 337.782 261.407, 338.904 251.470, 340.026 241.533, 341.148 231.596, 342.270 221.708, 343.387 211.743, 344.230 201.779, 345.073 194.609, 345.680 194.330, 355.676 194.320, 356.026 194.429, 363.763 " stroke-name="b_2361_p1b2360" stroke-occlusion=" True True True True True True True True True True True True True True True True True True True True True True True True True True " />
            <path fill="none" stroke-width="1.0" stroke-linecap="round" stroke-opacity="1.0" stroke="rgb(0, 0, 0)" stroke-linejoin="round" d=" M 209.022, 394.630 208.783, 385.089 209.055, 375.093 209.146, 371.784 " stroke-name="b_2361_p1b2360" stroke-occlusion=" True True True True " />
            <path fill="none" stroke-width="1.0" stroke-linecap="round" stroke-opacity="1.0" stroke="rgb(0, 0, 0)" stroke-linejoin="round" d=" M 318.058, 356.517 316.065, 356.796 309.498, 357.717 299.595, 359.105 294.456, 359.825 284.553, 361.214 274.650, 362.602 264.747, 363.990 254.843, 365.378 244.940, 366.766 235.037, 368.154 225.134, 369.543 215.231, 370.931 209.146, 371.784 204.388, 362.988 204.138, 362.527 200.939, 356.613 195.929, 347.959 194.609, 345.680 " stroke-name="b_2361_p1b2360" stroke-occlusion=" True True True True True True True True True True True True True True True True True True True " />
            <path fill="none" stroke-width="1.0" stroke-linecap="round" stroke-opacity="1.0" stroke="rgb(0, 0, 0)" stroke-linejoin="round" d=" M 316.034, 355.363 315.993, 353.447 312.428, 350.566 307.852, 350.700 " stroke-name="b_2361_p1b2360" stroke-occlusion=" True True True True " />
            <path fill="none" stroke-width="1.0" stroke-linecap="round" stroke-opacity="1.0" stroke="rgb(0, 0, 0)" stroke-linejoin="round" d=" M 402.082, 347.559 395.259, 353.464 " stroke-name="b_2360_p1b2359" stroke-occlusion=" True True " />
            <path fill="none" stroke-width="1.0" stroke-linecap="round" stroke-opacity="1.0" stroke="rgb(0, 0, 0)" stroke-linejoin="round" d=" M 395.556, 348.694 395.259, 353.464 404.560, 357.138 413.861, 360.811 423.199, 364.499 " stroke-name="b_2360_p1b2359" stroke-occlusion=" True True True True True " />
            <path fill="none" stroke-width="1.0" stroke-linecap="round" stroke-opacity="1.0" stroke="rgb(0, 0, 0)" stroke-linejoin="round" d=" M 463.378, 359.372 463.808, 356.566 454.319, 353.410 444.830, 350.255 437.235, 347.729 434.023, 346.661 430.195, 348.781 " stroke-name="b_2360_p1b2359" stroke-occlusion=" True True True True True True True " />
            <path fill="none" stroke-width="1.0" stroke-linecap="round" stroke-opacity="1.0" stroke="rgb(0, 0, 0)" stroke-linejoin="round" d=" M 477.443, 356.982 471.625, 358.236 " stroke-name="b_2360_p1b2359" stroke-occlusion=" True True " />
            <path fill="none" stroke-width="1.0" stroke-linecap="round" stroke-opacity="1.0" stroke="rgb(0, 0, 0)" stroke-linejoin="round" d=" M 484.401, 357.504 484.007, 357.339 477.443, 356.982 477.896, 351.712 468.305, 348.883 458.713, 346.055 449.121, 343.227 447.226, 342.668 447.482, 341.211 437.876, 338.433 428.270, 335.654 418.663, 332.876 409.785, 330.308 409.790, 327.760 400.146, 325.113 397.910, 324.499 388.266, 321.852 385.656, 321.136 375.707, 322.151 367.815, 322.956 367.796, 323.476 " stroke-name="b_2360_p1b2359" stroke-occlusion=" True True True True True True True True True True True True True True True True True True True True True " />
            <path fill="none" stroke-width="1.0" stroke-linecap="round" stroke-opacity="1.0" stroke="rgb(0, 0, 0)" stroke-linejoin="round" d=" M 463.378, 359.372 471.823, 354.017 474.326, 352.430 477.896, 351.712 " stroke-name="b_2360_p1b2359" stroke-occlusion=" True True True True " />
            <path fill="none" stroke-width="1.0" stroke-linecap="round" stroke-opacity="1.0" stroke="rgb(0, 0, 0)" stroke-linejoin="round" d=" M 361.470, 335.700 367.426, 337.971 368.397, 338.341 374.161, 340.538 383.505, 344.100 392.849, 347.662 395.556, 348.694 402.082, 347.559 " stroke-name="b_2360_p1b2359" stroke-occlusion=" True True True True True True True True " />
            <path fill="none" stroke-width="1.0" stroke-linecap="round" stroke-opacity="1.0" stroke="rgb(0, 0, 0)" stroke-linejoin="round" d=" M 540.812, 369.334 531.189, 366.613 521.567, 363.891 511.944, 361.170 502.322, 358.448 494.435, 356.217 486.212, 357.765 485.391, 357.919 479.413, 359.044 469.586, 360.894 459.758, 362.743 456.133, 363.425 446.305, 365.275 445.979, 365.336 438.767, 366.693 438.767, 366.763 438.825, 372.067 " stroke-name="b_2360_p1b2359" stroke-occlusion=" True True True True True True True True True True True True True True True True True " />
            <path fill="none" stroke-width="1.0" stroke-linecap="round" stroke-opacity="1.0" stroke="rgb(0, 0, 0)" stroke-linejoin="round" d=" M 438.767, 366.693 447.890, 370.117 457.252, 373.630 466.615, 377.143 475.978, 380.656 481.926, 382.888 " stroke-name="b_2360_p1b2359" stroke-occlusion=" True True True True True True " />
            <path fill="none" stroke-width="1.0" stroke-linecap="round" stroke-opacity="1.0" stroke="rgb(0, 0, 0)" stroke-linejoin="round" d=" M 548.797, 374.280 538.879, 375.556 528.961, 376.833 519.043, 378.110 509.125, 379.387 504.283, 380.010 494.365, 381.287 484.447, 382.564 481.926, 382.888 472.169, 385.079 462.412, 387.270 458.460, 388.157 458.197, 398.153 458.176, 398.949 458.019, 404.912 458.320, 414.908 458.337, 415.473 " stroke-name="b_2360_p1b2359" stroke-occlusion=" True True True True True True True True True True True True True True True True True " />
            <path fill="none" stroke-width="1.0" stroke-linecap="round" stroke-opacity="1.0" stroke="rgb(0, 0, 0)" stroke-linejoin="round" d=" M 439.192, 364.197 439.082, 361.987 430.684, 357.982 421.288, 354.558 413.131, 351.585 403.735, 348.162 402.082, 347.559 " stroke-name="b_2360_p1b2359" stroke-occlusion=" True True True True True True True " />
            <path fill="none" stroke-width="1.0" stroke-linecap="round" stroke-opacity="1.0" stroke="rgb(0, 0, 0)" stroke-linejoin="round" d=" M 430.684, 357.982 428.255, 360.097 423.199, 364.499 422.923, 366.982 " stroke-name="b_2360_p1b2359" stroke-occlusion=" True True True True " />
            <path fill="none" stroke-width="1.0" stroke-linecap="round" stroke-opacity="1.0" stroke="rgb(0, 0, 0)" stroke-linejoin="round" d=" M 455.987, 441.129 455.975, 431.129 455.972, 428.587 456.144, 418.588 456.187, 416.077 458.337, 415.473 467.964, 412.767 477.590, 410.061 480.644, 409.203 481.863, 408.860 486.558, 407.540 495.785, 411.396 505.012, 415.251 512.750, 418.485 503.300, 421.757 493.851, 425.030 486.282, 427.651 482.357, 429.011 482.047, 429.118 " stroke-name="b_2360_p1b2359" stroke-occlusion=" True True True True True True True True True True True True True True True True True True True " />
            <path fill="none" stroke-width="1.0" stroke-linecap="round" stroke-opacity="1.0" stroke="rgb(0, 0, 0)" stroke-linejoin="round" d=" M 447.482, 341.211 437.579, 342.596 427.675, 343.981 417.771, 345.366 407.763, 346.765 402.082, 347.559 " stroke-name="b_2360_p1b2359" stroke-occlusion=" True True True True True True " />
            <path fill="none" stroke-width="1.0" stroke-linecap="round" stroke-opacity="1.0" stroke="rgb(0, 0, 0)" stroke-linejoin="round" d=" M 437.235, 347.729 444.483, 343.505 447.226, 342.668 " stroke-name="b_2360_p1b2359" stroke-occlusion=" True True True " />
            <path fill="none" stroke-width="1.0" stroke-linecap="round" stroke-opacity="1.0" stroke="rgb(0, 0, 0)" stroke-linejoin="round" d=" M 447.429, 362.657 447.320, 360.390 447.220, 358.307 437.739, 355.127 428.258, 351.947 422.302, 349.949 418.231, 348.584 " stroke-name="b_2360_p1b2359" stroke-occlusion=" True True True True True True True " />
            <path fill="none" stroke-width="1.0" stroke-linecap="round" stroke-opacity="1.0" stroke="rgb(0, 0, 0)" stroke-linejoin="round" d=" M 447.220, 358.307 445.320, 359.701 443.283, 361.195 439.192, 364.197 " stroke-name="b_2360_p1b2359" stroke-occlusion=" True True True True " />
            <path fill="none" stroke-width="1.0" stroke-linecap="round" stroke-opacity="1.0" stroke="rgb(0, 0, 0)" stroke-linejoin="round" d=" M 436.361, 367.240 426.363, 367.048 422.923, 366.982 432.779, 365.295 439.192, 364.197 447.429, 362.657 " stroke-name="b_2360_p1b2359" stroke-occlusion=" True True True True True True " />
            <path fill="none" stroke-width="1.0" stroke-linecap="round" stroke-opacity="1.0" stroke="rgb(0, 0, 0)" stroke-linejoin="round" d=" M 486.212, 357.765 486.009, 357.412 484.401, 357.504 474.418, 358.076 471.625, 358.236 " stroke-name="b_2360_p1b2359" stroke-occlusion=" True True True True True " />
            <path fill="none" stroke-width="1.0" stroke-linecap="round" stroke-opacity="1.0" stroke="rgb(0, 0, 0)" stroke-linejoin="round" d=" M 456.033, 361.278 463.378, 359.372 471.625, 358.236 " stroke-name="b_2360_p1b2359" stroke-occlusion=" True True True " />
            <path fill="none" stroke-width="1.0" stroke-linecap="round" stroke-opacity="1.0" stroke="rgb(0, 0, 0)" stroke-linejoin="round" d=" M 463.808, 356.566 460.634, 358.489 456.033, 361.278 " stroke-name="b_2360_p1b2359" stroke-occlusion=" True True True " />
            <path fill="none" stroke-width="1.0" stroke-linecap="round" stroke-opacity="1.0" stroke="rgb(0, 0, 0)" stroke-linejoin="round" d=" M 456.223, 357.455 452.073, 359.910 449.811, 361.248 447.429, 362.657 451.847, 361.949 456.033, 361.278 456.223, 357.455 446.736, 354.294 437.249, 351.132 430.195, 348.781 426.400, 347.517 " stroke-name="b_2360_p1b2359" stroke-occlusion=" True True True True True True True True True True True " />
            <path fill="none" stroke-width="1.0" stroke-linecap="round" stroke-opacity="1.0" stroke="rgb(0, 0, 0)" stroke-linejoin="round" d=" M 361.729, 333.117 361.470, 335.700 367.376, 335.041 368.495, 334.916 378.433, 333.807 388.371, 332.698 398.310, 331.589 408.248, 330.479 409.785, 330.308 " stroke-name="b_2360_p1b2359" stroke-occlusion=" True True True True True True True True True " />
            <path fill="none" stroke-width="1.0" stroke-linecap="round" stroke-opacity="1.0" stroke="rgb(0, 0, 0)" stroke-linejoin="round" d=" M 409.790, 327.760 399.851, 328.867 389.913, 329.975 379.974, 331.083 370.036, 332.191 368.537, 332.358 367.469, 332.477 361.729, 333.117 352.336, 329.687 344.911, 326.976 " stroke-name="b_2360_p1b2359" stroke-occlusion=" True True True True True True True True True True " />
            <path fill="none" stroke-width="1.0" stroke-linecap="round" stroke-opacity="1.0" stroke="rgb(0, 0, 0)" stroke-linejoin="round" d=" M 341.047, 345.495 341.154, 339.040 341.398, 329.043 341.522, 323.926 341.586, 321.297 344.258, 321.044 348.022, 322.524 348.009, 324.005 347.998, 325.348 347.984, 327.067 344.911, 326.976 345.009, 325.962 345.041, 325.627 345.201, 323.971 345.315, 322.789 " stroke-name="b_2360_p1b2359" stroke-occlusion=" True True True True True True True True True True True True True True True " />
            <path fill="none" stroke-width="1.0" stroke-linecap="round" stroke-opacity="1.0" stroke="rgb(0, 0, 0)" stroke-linejoin="round" d=" M 348.022, 322.524 345.315, 322.789 341.586, 321.297 " stroke-name="b_2360_p1b2359" stroke-occlusion=" True True True " />
            <path fill="none" stroke-width="1.0" stroke-linecap="round" stroke-opacity="1.0" stroke="rgb(0, 0, 0)" stroke-linejoin="round" d=" M 438.825, 372.067 436.361, 367.240 438.767, 366.763 " stroke-name="b_2360_p1b2359" stroke-occlusion=" True True True " />
            <path fill="none" stroke-width="1.0" stroke-linecap="round" stroke-opacity="1.0" stroke="rgb(0, 0, 0)" stroke-linejoin="round" d=" M 482.008, 456.242 482.023, 446.242 482.028, 442.699 482.042, 432.699 482.042, 432.578 482.047, 429.118 473.118, 424.615 464.189, 420.113 456.187, 416.077 " stroke-name="b_2360_p1b2359" stroke-occlusion=" True True True True True True True True True " />
            <path fill="none" stroke-width="1.0" stroke-linecap="round" stroke-opacity="1.0" stroke="rgb(0, 0, 0)" stroke-linejoin="round" d=" M 486.009, 357.412 484.768, 357.658 478.894, 358.821 469.084, 360.762 459.274, 362.704 455.950, 363.362 446.140, 365.304 445.979, 365.336 " stroke-name="b_2360_p1b2359" stroke-occlusion=" True True True True True True True True " />
            <path fill="none" stroke-width="1.0" stroke-linecap="round" stroke-opacity="1.0" stroke="rgb(0, 0, 0)" stroke-linejoin="round" d=" M 367.815, 322.956 368.685, 323.392 367.796, 323.476 360.569, 324.159 350.613, 325.100 347.998, 325.348 " stroke-name="b_2360_p1b2359" stroke-occlusion=" True True True True True True " />
            <path fill="none" stroke-width="1.0" stroke-linecap="round" stroke-opacity="1.0" stroke="rgb(0, 0, 0)" stroke-linejoin="round" d=" M 513.163, 411.496 503.965, 407.572 494.767, 403.648 485.570, 399.723 482.022, 398.210 472.824, 394.285 463.626, 390.361 458.460, 388.157 " stroke-name="b_2360_p1b2359" stroke-occlusion=" True True True True True True True True " />
            <path fill="none" stroke-width="1.0" stroke-linecap="round" stroke-opacity="1.0" stroke="rgb(0, 0, 0)" stroke-linejoin="round" d=" M 254.568, 330.585 254.496, 326.518 254.474, 325.273 254.584, 323.117 254.768, 319.530 250.298, 316.993 246.825, 315.021 245.748, 314.409 242.172, 313.306 241.718, 313.166 231.740, 313.822 221.762, 314.478 220.790, 314.542 217.009, 314.790 207.031, 315.446 199.148, 315.964 189.620, 318.000 189.539, 322.321 189.504, 324.152 189.544, 325.634 " stroke-name="b_2270_p1b2269" stroke-occlusion=" True True True True True True True True True True True True True True True True True True True True " />
            <path fill="none" stroke-width="1.0" stroke-linecap="round" stroke-opacity="1.0" stroke="rgb(0, 0, 0)" stroke-linejoin="round" d=" M 189.620, 318.000 192.932, 322.379 194.204, 324.061 " stroke-name="b_2270_p1b2269" stroke-occlusion=" True True True " />
            <path fill="none" stroke-width="1.0" stroke-linecap="round" stroke-opacity="1.0" stroke="rgb(0, 0, 0)" stroke-linejoin="round" d=" M 251.763, 312.050 241.765, 311.831 235.110, 311.685 225.110, 311.693 217.079, 311.699 217.078, 311.837 217.082, 312.380 217.009, 314.790 " stroke-name="b_2270_p1b2269" stroke-occlusion=" True True True True True True True True " />
            <path fill="none" stroke-width="1.0" stroke-linecap="round" stroke-opacity="1.0" stroke="rgb(0, 0, 0)" stroke-linejoin="round" d=" M 319.031, 337.332 318.906, 331.591 318.963, 323.758 318.972, 322.436 319.046, 319.861 311.651, 320.447 301.683, 321.236 296.934, 321.612 289.248, 322.221 282.892, 322.724 282.857, 323.393 282.710, 326.173 " stroke-name="b_2270_p1b2269" stroke-occlusion=" True True True True True True True True True True True True " />
            <path fill="none" stroke-width="1.0" stroke-linecap="round" stroke-opacity="1.0" stroke="rgb(0, 0, 0)" stroke-linejoin="round" d=" M 288.212, 325.445 284.225, 323.406 282.892, 322.724 " stroke-name="b_2270_p1b2269" stroke-occlusion=" True True True " />
            <path fill="none" stroke-width="1.0" stroke-linecap="round" stroke-opacity="1.0" stroke="rgb(0, 0, 0)" stroke-linejoin="round" d=" M 240.177, 338.505 240.451, 333.137 240.517, 331.825 240.723, 327.769 234.037, 322.893 233.267, 322.332 " stroke-name="b_2270_p1b2269" stroke-occlusion=" True True True True True True " />
            <path fill="none" stroke-width="1.0" stroke-linecap="round" stroke-opacity="1.0" stroke="rgb(0, 0, 0)" stroke-linejoin="round" d=" M 189.851, 332.261 189.784, 336.404 189.760, 337.842 189.924, 343.942 " stroke-name="b_2270_p1b2269" stroke-occlusion=" True True True True " />
            <path fill="none" stroke-width="1.0" stroke-linecap="round" stroke-opacity="1.0" stroke="rgb(0, 0, 0)" stroke-linejoin="round" d=" M 193.928, 325.201 189.544, 325.634 186.068, 325.978 185.983, 331.124 186.136, 336.754 " stroke-name="b_2270_p1b2269" stroke-occlusion=" True True True True True " />
            <path fill="none" stroke-width="1.0" stroke-linecap="round" stroke-opacity="1.0" stroke="rgb(0, 0, 0)" stroke-linejoin="round" d=" M 186.068, 325.978 189.851, 332.261 191.408, 332.123 194.020, 331.893 203.981, 331.013 213.943, 330.134 223.904, 329.254 233.231, 328.431 240.723, 327.769 " stroke-name="b_2270_p1b2269" stroke-occlusion=" True True True True True True True True True " />
            <path fill="none" stroke-width="1.0" stroke-linecap="round" stroke-opacity="1.0" stroke="rgb(0, 0, 0)" stroke-linejoin="round" d=" M 233.267, 322.332 226.804, 322.803 220.948, 323.230 217.557, 323.478 207.584, 324.205 197.610, 324.932 193.928, 325.201 194.204, 324.061 204.176, 323.315 213.268, 322.635 216.954, 322.359 220.920, 322.062 230.892, 321.316 240.865, 320.570 249.470, 319.927 254.768, 319.530 " stroke-name="b_2270_p1b2269" stroke-occlusion=" True True True True True True True True True True True True True True True True " />
            <path fill="none" stroke-width="1.0" stroke-linecap="round" stroke-opacity="1.0" stroke="rgb(0, 0, 0)" stroke-linejoin="round" d=" M 258.782, 326.250 258.730, 323.377 258.726, 323.158 258.692, 321.257 258.772, 316.288 255.040, 314.671 " stroke-name="b_2270_p1b2269" stroke-occlusion=" True True True True True True " />
            <path fill="none" stroke-width="1.0" stroke-linecap="round" stroke-opacity="1.0" stroke="rgb(0, 0, 0)" stroke-linejoin="round" d=" M 296.986, 314.684 294.254, 313.649 290.491, 312.267 286.939, 313.298 284.057, 314.268 280.489, 312.983 278.022, 312.098 275.301, 312.982 272.159, 314.272 268.690, 312.926 265.916, 311.967 262.543, 312.961 261.003, 313.387 261.100, 313.785 259.152, 314.278 259.076, 314.277 254.073, 314.316 252.855, 314.195 " stroke-name="b_2270_p1b2269" stroke-occlusion=" True True True True True True True True True True True True True True True True True True " />
            <path fill="none" stroke-width="1.0" stroke-linecap="round" stroke-opacity="1.0" stroke="rgb(0, 0, 0)" stroke-linejoin="round" d=" M 272.159, 314.272 281.226, 318.489 289.248, 322.221 " stroke-name="b_2270_p1b2269" stroke-occlusion=" True True True " />
            <path fill="none" stroke-width="1.0" stroke-linecap="round" stroke-opacity="1.0" stroke="rgb(0, 0, 0)" stroke-linejoin="round" d=" M 261.003, 313.387 270.538, 316.402 280.072, 319.417 285.999, 321.292 276.425, 318.405 266.851, 315.519 261.100, 313.785 " stroke-name="b_2270_p1b2269" stroke-occlusion=" True True True True True True True " />
            <path fill="none" stroke-width="1.0" stroke-linecap="round" stroke-opacity="1.0" stroke="rgb(0, 0, 0)" stroke-linejoin="round" d=" M 252.868, 314.575 252.855, 314.195 252.797, 312.641 251.763, 312.050 " stroke-name="b_2270_p1b2269" stroke-occlusion=" True True True True " />
            <path fill="none" stroke-width="1.0" stroke-linecap="round" stroke-opacity="1.0" stroke="rgb(0, 0, 0)" stroke-linejoin="round" d=" M 288.211, 339.080 288.141, 335.031 288.210, 325.785 288.212, 325.445 298.219, 324.466 306.732, 323.633 316.685, 322.660 317.163, 322.613 318.972, 322.436 " stroke-name="b_2270_p1b2269" stroke-occlusion=" True True True True True True True True True " />
            <path fill="none" stroke-width="1.0" stroke-linecap="round" stroke-opacity="1.0" stroke="rgb(0, 0, 0)" stroke-linejoin="round" d=" M 259.209, 314.305 259.303, 318.961 259.089, 323.162 " stroke-name="b_2270_p1b2269" stroke-occlusion=" True True True " />
            <path fill="none" stroke-width="1.0" stroke-linecap="round" stroke-opacity="1.0" stroke="rgb(0, 0, 0)" stroke-linejoin="round" d=" M 255.040, 314.671 259.209, 314.305 268.135, 318.813 277.093, 323.337 282.710, 326.173 " stroke-name="b_2270_p1b2269" stroke-occlusion=" True True True True True " />
            <path fill="none" stroke-width="1.0" stroke-linecap="round" stroke-opacity="1.0" stroke="rgb(0, 0, 0)" stroke-linejoin="round" d=" M 78.783, 343.978 68.822, 344.862 58.861, 345.746 54.284, 346.152 44.323, 347.035 34.362, 347.919 30.866, 348.229 " stroke-name="b_2398_p1b2397" stroke-occlusion=" True True True True True True True " />
            <path fill="none" stroke-width="1.0" stroke-linecap="round" stroke-opacity="1.0" stroke="rgb(0, 0, 0)" stroke-linejoin="round" d=" M 220.790, 314.542 217.079, 311.699 " stroke-name="b_2270_p1b2269" stroke-occlusion=" True True " />
            <path fill="none" stroke-width="1.0" stroke-linecap="round" stroke-opacity="1.0" stroke="rgb(0, 0, 0)" stroke-linejoin="round" d=" M 242.172, 313.306 251.804, 312.703 252.797, 312.641 " stroke-name="b_2270_p1b2269" stroke-occlusion=" True True True " />
            <path fill="none" stroke-width="1.0" stroke-linecap="round" stroke-opacity="1.0" stroke="rgb(0, 0, 0)" stroke-linejoin="round" d=" M 246.825, 315.021 252.868, 314.575 " stroke-name="b_2270_p1b2269" stroke-occlusion=" True True " />
            <path fill="none" stroke-width="1.0" stroke-linecap="round" stroke-opacity="1.0" stroke="rgb(0, 0, 0)" stroke-linejoin="round" d=" M 250.298, 316.993 254.941, 316.606 258.772, 316.288 " stroke-name="b_2270_p1b2269" stroke-occlusion=" True True True " />
            <path fill="none" stroke-width="1.0" stroke-linecap="round" stroke-opacity="1.0" stroke="rgb(0, 0, 0)" stroke-linejoin="round" d=" M 313.372, 353.846 315.993, 353.447 " stroke-name="b_2361_p1b2360" stroke-occlusion=" True True " />
            <path fill="none" stroke-width="1.0" stroke-linecap="round" stroke-opacity="1.0" stroke="rgb(0, 0, 0)" stroke-linejoin="round" d=" M 316.008, 453.021 309.701, 446.377 " stroke-name="b_2429_p1b2428" stroke-occlusion=" True True " />
            <path fill="none" stroke-width="1.0" stroke-linecap="round" stroke-opacity="1.0" stroke="rgb(0, 0, 0)" stroke-linejoin="round" d=" M 311.651, 320.447 302.344, 316.789 296.986, 314.684 " stroke-name="b_2270_p1b2269" stroke-occlusion=" True True True " />
            <path fill="none" stroke-width="1.0" stroke-linecap="round" stroke-opacity="1.0" stroke="rgb(0, 0, 0)" stroke-linejoin="round" d=" M 413.131, 351.585 416.316, 349.711 418.231, 348.584 " stroke-name="b_2360_p1b2359" stroke-occlusion=" True True True " />
            <path fill="none" stroke-width="1.0" stroke-linecap="round" stroke-opacity="1.0" stroke="rgb(0, 0, 0)" stroke-linejoin="round" d=" M 422.302, 349.949 426.400, 347.517 " stroke-name="b_2360_p1b2359" stroke-occlusion=" True True " />
            <path fill="none" stroke-width="1.0" stroke-linecap="round" stroke-opacity="1.0" stroke="rgb(0, 0, 0)" stroke-linejoin="round" d=" M 452.756, 502.514 452.678, 508.998 " stroke-name="b_2429_p1b2428" stroke-occlusion=" True True " />
            <path fill="none" stroke-width="1.0" stroke-linecap="round" stroke-opacity="1.0" stroke="rgb(0, 0, 0)" stroke-linejoin="round" d=" M 493.245, 512.605 502.271, 508.651 " stroke-name="b_2429_p1b2428" stroke-occlusion=" True True " />
            <path fill="none" stroke-width="1.0" stroke-linecap="round" stroke-opacity="1.0" stroke="rgb(0, 0, 0)" stroke-linejoin="round" d=" M 1324.706, 2062.830 1319.240, 2054.456 1313.775, 2046.082 1308.309, 2037.708 1302.843, 2029.333 1297.378, 2020.959 1291.912, 2012.585 1286.447, 2004.211 1280.981, 1995.837 1275.516, 1987.462 1270.050, 1979.088 1264.584, 1970.714 1259.119, 1962.340 1253.653, 1953.965 1248.188, 1945.591 1242.722, 1937.217 1237.257, 1928.843 1231.791, 1920.468 1226.326, 1912.094 1220.860, 1903.720 1215.395, 1895.346 1209.929, 1886.972 1204.463, 1878.597 1198.998, 1870.223 1193.532, 1861.849 1188.067, 1853.475 1182.601, 1845.100 1177.136, 1836.726 1171.670, 1828.352 1166.205, 1819.978 1160.739, 1811.603 1155.273, 1803.229 1149.808, 1794.855 1144.342, 1786.481 1138.877, 1778.107 1133.411, 1769.732 1127.946, 1761.358 1122.480, 1752.984 1117.015, 1744.610 1111.549, 1736.235 1106.083, 1727.861 1100.618, 1719.487 1095.152, 1711.113 1089.687, 1702.739 1084.221, 1694.364 1078.756, 1685.990 1073.290, 1677.616 1067.825, 1669.242 1062.359, 1660.867 1056.893, 1652.493 1051.428, 1644.119 1045.962, 1635.745 1040.497, 1627.370 1035.031, 1618.996 1029.566, 1610.622 1024.100, 1602.248 1018.635, 1593.873 1013.169, 1585.499 1007.703, 1577.125 1002.238, 1568.751 996.772, 1560.377 991.307, 1552.002 985.841, 1543.628 980.376, 1535.254 974.910, 1526.880 969.445, 1518.505 963.979, 1510.131 958.513, 1501.757 953.048, 1493.383 947.582, 1485.008 942.117, 1476.634 936.651, 1468.260 931.186, 1459.886 925.720, 1451.512 920.255, 1443.137 914.789, 1434.763 909.323, 1426.389 903.858, 1418.015 898.392, 1409.640 892.927, 1401.266 887.461, 1392.892 881.996, 1384.518 876.530, 1376.143 871.065, 1367.769 865.599, 1359.395 860.133, 1351.021 854.668, 1342.647 849.202, 1334.272 843.737, 1325.898 838.271, 1317.524 832.806, 1309.150 827.340, 1300.775 821.875, 1292.401 816.409, 1284.027 810.943, 1275.653 805.478, 1267.279 800.012, 1258.904 794.547, 1250.530 789.081, 1242.156 783.616, 1233.782 778.150, 1225.407 772.685, 1217.033 767.219, 1208.659 761.753, 1200.285 756.288, 1191.910 750.822, 1183.536 745.357, 1175.162 739.891, 1166.788 734.426, 1158.414 728.960, 1150.039 723.495, 1141.665 718.029, 1133.291 712.563, 1124.917 707.098, 1116.542 701.632, 1108.168 696.167, 1099.794 690.701, 1091.420 685.236, 1083.045 679.770, 1074.671 674.305, 1066.297 668.839, 1057.923 663.374, 1049.549 657.908, 1041.174 652.442, 1032.800 646.977, 1024.426 641.511, 1016.052 636.046, 1007.677 630.580, 999.303 625.115, 990.929 619.649, 982.555 614.184, 974.181 608.718, 965.806 603.252, 957.432 597.787, 949.058 592.321, 940.684 586.856, 932.309 581.390, 923.935 575.925, 915.561 570.459, 907.187 564.994, 898.812 559.528, 890.438 554.062, 882.064 548.597, 873.690 543.131, 865.315 537.666, 856.941 532.200, 848.567 526.735, 840.193 521.269, 831.819 515.804, 823.444 510.338, 815.070 504.872, 806.696 499.407, 798.322 493.941, 789.947 488.476, 781.573 483.010, 773.199 477.545, 764.825 472.079, 756.451 466.614, 748.076 461.148, 739.702 455.682, 731.328 450.217, 722.954 444.751, 714.579 439.286, 706.205 433.820, 697.831 428.355, 689.457 422.889, 681.082 417.424, 672.708 411.958, 664.334 406.492, 655.960 401.027, 647.586 395.561, 639.211 390.096, 630.837 384.630, 622.463 379.165, 614.089 373.699, 605.714 368.234, 597.340 362.768, 588.966 357.302, 580.592 351.837, 572.217 346.371, 563.843 340.906, 555.469 335.440, 547.095 329.975, 538.721 324.509, 530.346 319.044, 521.972 313.578, 513.598 299.707, 492.345 294.242, 483.971 288.776, 475.597 283.311, 467.223 278.162, 459.334 " stroke-name="b_2429_p1b2428" stroke-occlusion=" True True True True True True True True True True True True True True True True True True True True True True True True True True True True True True True True True True True True True True True True True True True True True True True True True True True True True True True True True True True True True True True True True True True True True True True True True True True True True True True True True True True True True True True True True True True True True True True True True True True True True True True True True True True True True True True True True True True True True True True True True True True True True True True True True True True True True True True True True True True True True True True True True True True True True True True True True True True True True True True True True True True True True True True True True True True True True True True True True True True True True True True True True True True True True True True " />
        </g>
    </g>
</svg>
