<?xml version='1.0' encoding='ascii'?>
<svg xmlns="http://www.w3.org/2000/svg" version="1.1" width="512" height="512">
    <g id="ViewLayer_LineSet" xmlns:inkscape="http://www.inkscape.org/namespaces/inkscape" inkscape:groupmode="lineset" inkscape:label="ViewLayer_LineSet">
        <g xmlns:inkscape="http://www.inkscape.org/namespaces/inkscape" inkscape:groupmode="layer" id="strokes" inkscape:label="strokes">
            <path fill="none" stroke-width="1.0" stroke-linecap="round" stroke-opacity="1.0" stroke="rgb(0, 0, 0)" stroke-linejoin="round" d=" M 356.409, 219.205 356.270, 209.206 356.247, 207.528 347.693, 204.327 345.139, 204.666 343.360, 204.901 342.066, 205.073 " stroke-name="b_2534_p1b2533" stroke-occlusion=" True True True True True True True " />
            <path fill="none" stroke-width="1.0" stroke-linecap="round" stroke-opacity="1.0" stroke="rgb(0, 0, 0)" stroke-linejoin="round" d=" M 402.584, 261.481 402.486, 251.481 402.388, 241.482 402.295, 231.948 401.358, 231.679 401.078, 227.168 398.740, 226.264 398.639, 219.186 397.151, 215.886 391.805, 216.184 390.765, 217.459 388.039, 217.637 386.415, 217.743 " stroke-name="b_2534_p1b2533" stroke-occlusion=" True True True True True True True True True True True True True " />
            <path fill="none" stroke-width="1.0" stroke-linecap="round" stroke-opacity="1.0" stroke="rgb(0, 0, 0)" stroke-linejoin="round" d=" M 357.529, 219.059 356.425, 220.332 356.356, 220.412 356.426, 220.408 358.224, 220.293 360.169, 220.169 361.316, 218.808 371.287, 218.047 377.016, 217.609 377.552, 218.749 " stroke-name="b_2534_p1b2533" stroke-occlusion=" True True True True True True True True True True " />
            <path fill="none" stroke-width="1.0" stroke-linecap="round" stroke-opacity="1.0" stroke="rgb(0, 0, 0)" stroke-linejoin="round" d=" M 387.487, 216.477 386.415, 217.743 " stroke-name="b_2534_p1b2533" stroke-occlusion=" True True " />
            <path fill="none" stroke-width="1.0" stroke-linecap="round" stroke-opacity="1.0" stroke="rgb(0, 0, 0)" stroke-linejoin="round" d=" M 397.151, 215.886 395.788, 217.980 " stroke-name="b_2534_p1b2533" stroke-occlusion=" True True " />
            <path fill="none" stroke-width="1.0" stroke-linecap="round" stroke-opacity="1.0" stroke="rgb(0, 0, 0)" stroke-linejoin="round" d=" M 350.771, 221.811 350.972, 221.794 356.337, 221.338 356.439, 221.329 361.970, 220.858 371.934, 220.010 375.895, 219.673 377.905, 219.502 386.390, 218.780 388.498, 218.601 395.788, 217.980 395.749, 225.132 392.998, 224.189 392.129, 223.892 390.980, 223.980 388.269, 224.189 386.261, 224.344 382.222, 224.655 380.231, 224.808 378.125, 224.970 376.075, 225.128 366.104, 225.896 362.498, 226.174 360.044, 226.363 358.677, 226.469 356.512, 226.635 356.232, 226.657 351.054, 227.056 350.828, 227.073 348.818, 227.228 347.975, 227.293 345.933, 227.450 346.050, 237.450 346.167, 247.449 346.284, 257.448 346.401, 267.448 346.518, 277.447 346.635, 287.446 346.684, 291.603 " stroke-name="b_2534_p1b2533" stroke-occlusion=" True True True True True True True True True True True True True True True True True True True True True True True True True True True True True True True True True True True True True True True " />
            <path fill="none" stroke-width="1.0" stroke-linecap="round" stroke-opacity="1.0" stroke="rgb(0, 0, 0)" stroke-linejoin="round" d=" M 392.129, 223.892 392.147, 225.409 392.160, 226.519 392.279, 236.518 392.399, 246.518 392.518, 256.517 392.589, 262.461 " stroke-name="b_2534_p1b2533" stroke-occlusion=" True True True True True True True " />
            <path fill="none" stroke-width="1.0" stroke-linecap="round" stroke-opacity="1.0" stroke="rgb(0, 0, 0)" stroke-linejoin="round" d=" M 358.224, 220.293 357.529, 219.059 356.409, 219.205 352.633, 219.699 350.969, 221.586 350.771, 221.811 350.828, 227.073 " stroke-name="b_2534_p1b2533" stroke-occlusion=" True True True True True True True " />
            <path fill="none" stroke-width="1.0" stroke-linecap="round" stroke-opacity="1.0" stroke="rgb(0, 0, 0)" stroke-linejoin="round" d=" M 388.039, 217.637 387.487, 216.477 381.145, 217.333 380.027, 218.591 377.552, 218.749 375.868, 218.857 " stroke-name="b_2534_p1b2533" stroke-occlusion=" True True True True True True " />
            <path fill="none" stroke-width="1.0" stroke-linecap="round" stroke-opacity="1.0" stroke="rgb(0, 0, 0)" stroke-linejoin="round" d=" M 377.016, 217.609 375.868, 218.857 " stroke-name="b_2534_p1b2533" stroke-occlusion=" True True " />
            <path fill="none" stroke-width="1.0" stroke-linecap="round" stroke-opacity="1.0" stroke="rgb(0, 0, 0)" stroke-linejoin="round" d=" M 469.227, 437.704 459.710, 434.634 450.193, 431.563 440.676, 428.492 431.159, 425.422 421.642, 422.351 412.125, 419.281 404.348, 416.772 394.831, 413.701 388.204, 411.563 388.072, 403.336 387.966, 396.687 387.807, 386.688 387.731, 381.920 387.571, 371.921 387.530, 369.327 387.493, 367.007 387.403, 361.401 387.300, 354.931 387.156, 345.898 387.123, 343.856 387.049, 339.228 386.982, 335.034 386.823, 325.035 386.749, 320.418 386.589, 310.419 386.430, 300.420 386.270, 290.421 386.110, 280.423 385.951, 270.424 385.834, 263.124 392.589, 262.461 402.584, 261.481 412.536, 260.505 416.657, 260.100 426.656, 260.031 436.656, 259.962 446.656, 259.892 456.656, 259.823 459.018, 259.806 " stroke-name="b_2514_p1b2513" stroke-occlusion=" True True True True True True True True True True True True True True True True True True True True True True True True True True True True True True True True True True True True True True True True " />
            <path fill="none" stroke-width="1.0" stroke-linecap="round" stroke-opacity="1.0" stroke="rgb(0, 0, 0)" stroke-linejoin="round" d=" M 467.548, 445.519 469.227, 437.704 469.074, 427.705 468.921, 417.707 468.768, 407.708 468.615, 397.709 468.462, 387.710 468.308, 377.711 468.252, 374.033 468.174, 368.909 468.021, 358.910 467.868, 348.912 467.715, 338.913 467.561, 328.914 467.414, 319.302 467.261, 309.303 467.108, 299.305 466.955, 289.306 466.802, 279.307 466.649, 269.308 466.565, 263.822 " stroke-name="b_2514_p1b2513" stroke-occlusion=" True True True True True True True True True True True True True True True True True True True True True " />
            <path fill="none" stroke-width="1.0" stroke-linecap="round" stroke-opacity="1.0" stroke="rgb(0, 0, 0)" stroke-linejoin="round" d=" M 467.051, 142.258 457.217, 144.073 456.911, 144.130 457.093, 154.128 457.275, 164.126 457.457, 174.125 457.640, 184.123 457.822, 194.121 458.004, 204.120 458.186, 214.118 458.368, 224.116 458.550, 234.115 458.732, 244.113 458.914, 254.111 459.018, 259.806 459.053, 261.710 469.048, 262.028 469.222, 262.033 469.190, 260.238 469.187, 260.100 469.180, 259.736 468.999, 249.737 468.818, 239.739 468.637, 229.741 468.455, 219.742 468.274, 209.744 468.093, 199.746 467.912, 189.747 467.730, 179.749 467.541, 169.285 467.360, 159.287 467.178, 149.288 467.051, 142.258 466.910, 134.509 476.718, 132.558 479.749, 131.954 480.008, 121.958 480.266, 111.961 480.387, 107.291 490.046, 104.702 494.390, 103.537 494.440, 103.524 495.920, 103.127 505.579, 100.538 514.548, 98.133 " stroke-name="b_2514_p1b2513" stroke-occlusion=" True True True True True True True True True True True True True True True True True True True True True True True True True True True True True True True True True True True True True True True True True True True True True " />
            <path fill="none" stroke-width="1.0" stroke-linecap="round" stroke-opacity="1.0" stroke="rgb(0, 0, 0)" stroke-linejoin="round" d=" M 385.834, 263.124 395.834, 263.210 402.601, 263.269 412.601, 263.355 422.600, 263.442 432.600, 263.528 442.600, 263.615 452.599, 263.701 462.599, 263.787 466.565, 263.822 469.152, 262.080 469.222, 262.033 469.223, 262.083 469.346, 272.082 469.469, 282.082 469.591, 292.081 469.714, 302.080 469.837, 312.079 469.926, 319.274 470.048, 329.273 470.171, 339.272 470.294, 349.271 470.417, 359.271 470.541, 369.360 470.604, 374.494 470.727, 384.493 470.850, 394.492 470.973, 404.491 471.096, 414.491 471.219, 424.490 471.341, 434.489 471.464, 444.488 471.587, 454.488 471.710, 464.487 471.833, 474.486 471.947, 483.769 472.070, 493.768 472.193, 503.767 472.316, 513.766 472.439, 523.766 472.562, 533.765 472.684, 543.764 472.807, 553.763 472.930, 563.763 473.053, 573.762 473.167, 583.055 " stroke-name="b_2514_p1b2513" stroke-occlusion=" True True True True True True True True True True True True True True True True True True True True True True True True True True True True True True True True True True True True True True True True True True True True True True " />
            <path fill="none" stroke-width="1.0" stroke-linecap="round" stroke-opacity="1.0" stroke="rgb(0, 0, 0)" stroke-linejoin="round" d=" M 479.749, 131.954 479.869, 141.954 479.988, 151.953 480.107, 161.952 480.226, 171.952 480.346, 181.951 480.465, 191.950 480.584, 201.949 480.704, 211.949 480.823, 221.948 480.942, 231.947 481.061, 241.947 481.181, 251.946 481.300, 261.945 481.419, 271.944 481.539, 281.944 481.658, 291.943 481.777, 301.942 481.897, 311.942 481.982, 319.136 482.102, 329.135 482.221, 339.134 482.340, 349.134 482.459, 359.133 482.579, 369.132 482.698, 379.131 482.817, 389.131 482.937, 399.130 483.056, 409.129 483.175, 419.129 483.295, 429.128 483.414, 439.127 483.533, 449.126 483.652, 459.126 483.772, 469.125 483.891, 479.124 484.010, 489.124 484.130, 499.123 484.166, 502.217 484.286, 512.216 484.405, 522.215 484.524, 532.214 484.644, 542.214 484.763, 552.213 484.882, 562.212 485.001, 572.212 485.121, 582.211 485.204, 589.217 " stroke-name="b_2514_p1b2513" stroke-occlusion=" True True True True True True True True True True True True True True True True True True True True True True True True True True True True True True True True True True True True True True True True True True True True True True True True " />
            <path fill="none" stroke-width="1.0" stroke-linecap="round" stroke-opacity="1.0" stroke="rgb(0, 0, 0)" stroke-linejoin="round" d=" M 517.385, 72.306 507.789, 75.119 498.193, 77.933 495.176, 78.817 494.858, 88.812 494.540, 98.807 494.390, 103.537 " stroke-name="b_2514_p1b2513" stroke-occlusion=" True True True True True True True " />
            <path fill="none" stroke-width="1.0" stroke-linecap="round" stroke-opacity="1.0" stroke="rgb(0, 0, 0)" stroke-linejoin="round" d=" M 480.387, 107.291 480.498, 117.290 480.608, 127.290 480.719, 137.289 480.830, 147.288 480.940, 157.288 481.051, 167.287 481.162, 177.286 481.272, 187.286 481.383, 197.285 481.493, 207.285 481.604, 217.284 481.715, 227.283 481.825, 237.283 481.936, 247.282 482.047, 257.282 482.157, 267.281 482.268, 277.280 482.378, 287.280 482.489, 297.279 482.600, 307.279 482.731, 319.127 482.841, 329.126 482.952, 339.126 483.063, 349.125 483.173, 359.124 483.284, 369.124 483.395, 379.123 483.505, 389.123 483.616, 399.122 483.726, 409.121 483.837, 419.121 483.948, 429.120 484.058, 439.119 484.169, 449.119 484.280, 459.118 484.390, 469.118 484.501, 479.117 484.611, 489.116 484.722, 499.116 484.759, 502.465 484.870, 512.465 484.980, 522.464 485.091, 532.463 485.202, 542.463 485.312, 552.462 485.423, 562.462 485.533, 572.461 485.644, 582.460 485.755, 592.460 485.809, 597.382 " stroke-name="b_2514_p1b2513" stroke-occlusion=" True True True True True True True True True True True True True True True True True True True True True True True True True True True True True True True True True True True True True True True True True True True True True True True True True True True " />
            <path fill="none" stroke-width="1.0" stroke-linecap="round" stroke-opacity="1.0" stroke="rgb(0, 0, 0)" stroke-linejoin="round" d=" M 354.266, 407.476 363.746, 410.659 370.126, 412.802 379.605, 415.986 389.085, 419.169 398.565, 422.353 404.407, 424.315 413.887, 427.498 423.366, 430.682 432.846, 433.865 442.326, 437.049 451.806, 440.233 461.285, 443.416 467.548, 445.519 467.786, 455.516 468.024, 465.514 468.262, 475.511 468.425, 482.382 468.664, 492.379 468.902, 502.376 469.140, 512.373 469.378, 522.370 469.616, 532.368 469.854, 542.365 470.092, 552.362 470.330, 562.359 470.568, 572.356 470.806, 582.353 471.044, 592.351 471.283, 602.348 471.372, 606.104 " stroke-name="b_2514_p1b2513" stroke-occlusion=" True True True True True True True True True True True True True True True True True True True True True True True True True True True True True True True " />
            <path fill="none" stroke-width="1.0" stroke-linecap="round" stroke-opacity="1.0" stroke="rgb(0, 0, 0)" stroke-linejoin="round" d=" M 387.530, 369.327 387.060, 369.865 380.488, 377.403 378.340, 379.867 371.768, 387.404 369.367, 390.158 369.085, 390.480 364.744, 395.459 358.172, 402.996 355.443, 406.126 354.266, 407.476 354.341, 414.310 354.424, 421.821 354.503, 429.085 354.613, 439.084 354.673, 444.596 354.777, 454.058 354.886, 464.058 354.996, 474.057 355.105, 484.057 355.215, 494.056 355.324, 504.055 355.434, 514.055 355.543, 524.054 355.653, 534.054 355.671, 535.696 " stroke-name="b_2514_p1b2513" stroke-occlusion=" True True True True True True True True True True True True True True True True True True True True True True True True True True " />
            <path fill="none" stroke-width="1.0" stroke-linecap="round" stroke-opacity="1.0" stroke="rgb(0, 0, 0)" stroke-linejoin="round" d=" M 252.669, 325.806 257.181, 326.737 266.975, 328.758 276.769, 330.779 286.562, 332.800 296.356, 334.821 298.956, 335.357 " stroke-name="b_2512_p1b2511" stroke-occlusion=" True True True True True True True " />
            <path fill="none" stroke-width="1.0" stroke-linecap="round" stroke-opacity="1.0" stroke="rgb(0, 0, 0)" stroke-linejoin="round" d=" M 349.671, 325.526 347.099, 327.047 345.318, 328.099 343.245, 329.324 333.263, 329.922 323.281, 330.521 313.299, 331.119 306.994, 331.497 297.409, 332.071 " stroke-name="b_2512_p1b2511" stroke-occlusion=" True True True True True True True True True " />
            <path fill="none" stroke-width="1.0" stroke-linecap="round" stroke-opacity="1.0" stroke="rgb(0, 0, 0)" stroke-linejoin="round" d=" M 361.072, 329.166 364.890, 329.681 " stroke-name="b_2512_p1b2511" stroke-occlusion=" True True " />
            <path fill="none" stroke-width="1.0" stroke-linecap="round" stroke-opacity="1.0" stroke="rgb(0, 0, 0)" stroke-linejoin="round" d=" M 364.690, 331.649 364.705, 331.506 364.890, 329.681 367.161, 328.155 " stroke-name="b_2512_p1b2511" stroke-occlusion=" True True True True " />
            <path fill="none" stroke-width="1.0" stroke-linecap="round" stroke-opacity="1.0" stroke="rgb(0, 0, 0)" stroke-linejoin="round" d=" M 375.117, 338.603 370.906, 337.888 " stroke-name="b_2512_p1b2511" stroke-occlusion=" True True " />
            <path fill="none" stroke-width="1.0" stroke-linecap="round" stroke-opacity="1.0" stroke="rgb(0, 0, 0)" stroke-linejoin="round" d=" M 371.111, 335.912 370.906, 337.888 369.716, 338.601 " stroke-name="b_2512_p1b2511" stroke-occlusion=" True True True " />
            <path fill="none" stroke-width="1.0" stroke-linecap="round" stroke-opacity="1.0" stroke="rgb(0, 0, 0)" stroke-linejoin="round" d=" M 369.922, 336.606 369.716, 338.601 368.347, 338.152 " stroke-name="b_2512_p1b2511" stroke-occlusion=" True True True " />
            <path fill="none" stroke-width="1.0" stroke-linecap="round" stroke-opacity="1.0" stroke="rgb(0, 0, 0)" stroke-linejoin="round" d=" M 367.979, 336.572 368.347, 338.152 367.274, 339.196 " stroke-name="b_2512_p1b2511" stroke-occlusion=" True True True " />
            <path fill="none" stroke-width="1.0" stroke-linecap="round" stroke-opacity="1.0" stroke="rgb(0, 0, 0)" stroke-linejoin="round" d=" M 359.382, 338.180 357.377, 339.634 352.594, 339.973 342.620, 340.682 332.645, 341.391 322.670, 342.099 322.213, 342.132 " stroke-name="b_2512_p1b2511" stroke-occlusion=" True True True True True True True " />
            <path fill="none" stroke-width="1.0" stroke-linecap="round" stroke-opacity="1.0" stroke="rgb(0, 0, 0)" stroke-linejoin="round" d=" M 366.765, 332.828 367.274, 339.196 359.382, 338.180 359.592, 331.821 " stroke-name="b_2512_p1b2511" stroke-occlusion=" True True True True " />
            <path fill="none" stroke-width="1.0" stroke-linecap="round" stroke-opacity="1.0" stroke="rgb(0, 0, 0)" stroke-linejoin="round" d=" M 250.839, 290.734 256.946, 291.083 256.921, 289.609 256.751, 279.610 256.582, 269.611 256.412, 259.613 256.243, 249.614 256.074, 239.616 255.904, 229.617 255.735, 219.619 255.565, 209.620 255.396, 199.621 255.226, 189.623 255.174, 186.525 254.999, 176.527 254.973, 175.024 264.699, 172.697 268.629, 171.757 275.187, 170.188 282.454, 168.449 285.489, 167.723 295.462, 166.989 304.405, 166.330 305.870, 166.223 315.858, 166.708 319.892, 166.905 324.794, 167.143 330.712, 167.431 339.160, 172.782 340.263, 173.481 340.262, 176.459 " stroke-name="b_2512_p1b2511" stroke-occlusion=" True True True True True True True True True True True True True True True True True True True True True True True True True True True True True True True " />
            <path fill="none" stroke-width="1.0" stroke-linecap="round" stroke-opacity="1.0" stroke="rgb(0, 0, 0)" stroke-linejoin="round" d=" M 367.081, 331.502 365.350, 331.609 364.690, 331.649 361.568, 331.013 " stroke-name="b_2512_p1b2511" stroke-occlusion=" True True True True " />
            <path fill="none" stroke-width="1.0" stroke-linecap="round" stroke-opacity="1.0" stroke="rgb(0, 0, 0)" stroke-linejoin="round" d=" M 369.411, 332.768 375.375, 334.299 " stroke-name="b_2512_p1b2511" stroke-occlusion=" True True " />
            <path fill="none" stroke-width="1.0" stroke-linecap="round" stroke-opacity="1.0" stroke="rgb(0, 0, 0)" stroke-linejoin="round" d=" M 376.336, 337.684 375.117, 338.603 375.375, 334.299 375.932, 334.037 " stroke-name="b_2512_p1b2511" stroke-occlusion=" True True True True " />
            <path fill="none" stroke-width="1.0" stroke-linecap="round" stroke-opacity="1.0" stroke="rgb(0, 0, 0)" stroke-linejoin="round" d=" M 299.669, 372.287 299.888, 364.374 299.567, 354.379 299.384, 348.665 299.063, 338.671 298.956, 335.357 308.935, 334.710 318.914, 334.062 320.835, 333.938 330.814, 333.290 340.793, 332.642 347.159, 332.229 357.035, 331.588 357.223, 331.576 357.747, 331.248 361.072, 329.166 361.567, 331.010 361.568, 331.013 359.592, 331.821 366.765, 332.828 369.411, 332.768 369.182, 335.880 " stroke-name="b_2512_p1b2511" stroke-occlusion=" True True True True True True True True True True True True True True True True True True True True True True " />
            <path fill="none" stroke-width="1.0" stroke-linecap="round" stroke-opacity="1.0" stroke="rgb(0, 0, 0)" stroke-linejoin="round" d=" M 330.714, 176.285 340.262, 176.459 341.703, 176.486 341.830, 186.485 341.957, 196.484 342.033, 202.446 342.059, 204.489 342.066, 205.073 342.095, 207.324 342.120, 209.352 342.129, 210.023 342.256, 220.023 342.383, 230.022 342.510, 240.021 342.637, 250.020 342.763, 260.019 342.890, 270.019 343.017, 280.018 343.144, 290.017 343.158, 291.074 343.186, 293.292 346.695, 292.582 349.472, 292.021 " stroke-name="b_2512_p1b2511" stroke-occlusion=" True True True True True True True True True True True True True True True True True True True True True True True " />
            <path fill="none" stroke-width="1.0" stroke-linecap="round" stroke-opacity="1.0" stroke="rgb(0, 0, 0)" stroke-linejoin="round" d=" M 387.049, 339.228 377.151, 337.802 376.336, 337.684 375.932, 334.037 370.052, 332.353 367.081, 331.502 367.161, 328.155 360.350, 327.131 357.889, 326.761 352.526, 325.955 351.904, 325.862 351.895, 325.861 350.198, 325.606 349.671, 325.526 349.644, 320.882 349.584, 310.882 349.525, 300.883 349.472, 292.021 348.768, 291.915 346.684, 291.603 343.158, 291.074 " stroke-name="b_2512_p1b2511" stroke-occlusion=" True True True True True True True True True True True True True True True True True True True True True " />
            <path fill="none" stroke-width="1.0" stroke-linecap="round" stroke-opacity="1.0" stroke="rgb(0, 0, 0)" stroke-linejoin="round" d=" M 306.099, 189.058 296.104, 188.745 295.639, 188.730 285.823, 190.636 285.247, 190.747 " stroke-name="b_2512_p1b2511" stroke-occlusion=" True True True True True " />
            <path fill="none" stroke-width="1.0" stroke-linecap="round" stroke-opacity="1.0" stroke="rgb(0, 0, 0)" stroke-linejoin="round" d=" M 324.794, 167.143 324.710, 163.493 320.000, 160.000 310.062, 161.111 300.124, 162.223 290.186, 163.334 280.248, 164.445 272.874, 165.270 268.631, 166.592 268.629, 171.757 " stroke-name="b_2512_p1b2511" stroke-occlusion=" True True True True True True True True True True " />
            <path fill="none" stroke-width="1.0" stroke-linecap="round" stroke-opacity="1.0" stroke="rgb(0, 0, 0)" stroke-linejoin="round" d=" M 251.292, 330.245 253.044, 330.620 " stroke-name="b_2512_p1b2511" stroke-occlusion=" True True " />
            <path fill="none" stroke-width="1.0" stroke-linecap="round" stroke-opacity="1.0" stroke="rgb(0, 0, 0)" stroke-linejoin="round" d=" M 257.147, 324.551 252.669, 325.806 253.044, 330.620 253.215, 332.815 " stroke-name="b_2512_p1b2511" stroke-occlusion=" True True True True " />
            <path fill="none" stroke-width="1.0" stroke-linecap="round" stroke-opacity="1.0" stroke="rgb(0, 0, 0)" stroke-linejoin="round" d=" M 366.071, 356.208 376.053, 355.607 386.035, 355.007 387.300, 354.931 " stroke-name="b_2512_p1b2511" stroke-occlusion=" True True True True " />
            <path fill="none" stroke-width="1.0" stroke-linecap="round" stroke-opacity="1.0" stroke="rgb(0, 0, 0)" stroke-linejoin="round" d=" M 365.986, 376.744 365.982, 368.394 366.031, 361.775 366.071, 356.208 375.765, 358.665 385.458, 361.123 386.785, 361.459 " stroke-name="b_2512_p1b2511" stroke-occlusion=" True True True True True True True " />
            <path fill="none" stroke-width="1.0" stroke-linecap="round" stroke-opacity="1.0" stroke="rgb(0, 0, 0)" stroke-linejoin="round" d=" M 322.562, 370.493 322.683, 362.336 322.451, 352.338 322.446, 352.128 322.213, 342.132 332.065, 343.848 341.917, 345.563 351.139, 347.170 " stroke-name="b_2512_p1b2511" stroke-occlusion=" True True True True True True True True " />
            <path fill="none" stroke-width="1.0" stroke-linecap="round" stroke-opacity="1.0" stroke="rgb(0, 0, 0)" stroke-linejoin="round" d=" M 369.182, 335.880 371.111, 335.912 369.922, 336.606 367.979, 336.572 369.182, 335.880 " stroke-name="b_2512_p1b2511" stroke-occlusion=" True True True True True " />
            <path fill="none" stroke-width="1.0" stroke-linecap="round" stroke-opacity="1.0" stroke="rgb(0, 0, 0)" stroke-linejoin="round" d=" M 387.060, 369.865 386.962, 366.877 386.785, 361.459 387.403, 361.401 " stroke-name="b_2512_p1b2511" stroke-occlusion=" True True True True " />
            <path fill="none" stroke-width="1.0" stroke-linecap="round" stroke-opacity="1.0" stroke="rgb(0, 0, 0)" stroke-linejoin="round" d=" M 256.921, 289.609 250.839, 290.734 250.954, 300.733 251.068, 310.733 251.183, 320.732 251.203, 322.429 251.292, 330.245 248.357, 331.201 246.440, 331.824 244.601, 332.423 244.219, 332.547 236.061, 335.201 236.174, 338.607 236.504, 348.601 236.715, 355.007 236.549, 362.187 " stroke-name="b_2512_p1b2511" stroke-occlusion=" True True True True True True True True True True True True True True True True " />
            <path fill="none" stroke-width="1.0" stroke-linecap="round" stroke-opacity="1.0" stroke="rgb(0, 0, 0)" stroke-linejoin="round" d=" M 251.715, 338.654 261.687, 337.900 271.658, 337.145 273.769, 336.985 " stroke-name="b_2512_p1b2511" stroke-occlusion=" True True True True " />
            <path fill="none" stroke-width="1.0" stroke-linecap="round" stroke-opacity="1.0" stroke="rgb(0, 0, 0)" stroke-linejoin="round" d=" M 274.252, 364.828 273.993, 357.798 273.908, 349.875 273.800, 339.875 273.769, 336.985 263.969, 334.997 254.169, 333.008 253.215, 332.815 " stroke-name="b_2512_p1b2511" stroke-occlusion=" True True True True True True True True " />
            <path fill="none" stroke-width="1.0" stroke-linecap="round" stroke-opacity="1.0" stroke="rgb(0, 0, 0)" stroke-linejoin="round" d=" M 236.061, 335.201 242.150, 336.544 251.715, 338.654 251.690, 348.654 251.672, 355.482 251.662, 359.664 252.217, 366.892 " stroke-name="b_2512_p1b2511" stroke-occlusion=" True True True True True True True " />
            <path fill="none" stroke-width="1.0" stroke-linecap="round" stroke-opacity="1.0" stroke="rgb(0, 0, 0)" stroke-linejoin="round" d=" M 295.639, 188.730 295.654, 189.904 295.777, 199.903 295.901, 209.903 296.024, 219.902 296.148, 229.901 296.271, 239.900 296.394, 249.899 296.518, 259.899 296.641, 269.898 296.765, 279.897 296.888, 289.896 297.012, 299.896 297.135, 309.895 297.258, 319.894 297.280, 321.660 297.404, 331.659 297.409, 332.071 287.579, 330.235 277.749, 328.399 267.919, 326.563 258.089, 324.727 257.147, 324.551 " stroke-name="b_2512_p1b2511" stroke-occlusion=" True True True True True True True True True True True True True True True True True True True True True True True " />
            <path fill="none" stroke-width="1.0" stroke-linecap="round" stroke-opacity="1.0" stroke="rgb(0, 0, 0)" stroke-linejoin="round" d=" M 351.205, 378.101 351.467, 369.751 351.322, 359.752 351.304, 358.515 351.159, 348.516 351.139, 347.170 361.097, 346.253 371.055, 345.336 379.397, 344.568 387.123, 343.856 " stroke-name="b_2512_p1b2511" stroke-occlusion=" True True True True True True True True True True " />
            <path fill="none" stroke-width="1.0" stroke-linecap="round" stroke-opacity="1.0" stroke="rgb(0, 0, 0)" stroke-linejoin="round" d=" M 167.910, 368.196 168.046, 360.662 167.865, 350.663 167.684, 340.665 167.631, 337.746 167.505, 330.772 167.372, 323.454 167.330, 321.123 167.305, 319.726 167.208, 314.388 167.075, 307.060 167.037, 304.912 167.027, 304.378 167.006, 303.205 166.986, 302.141 166.976, 301.593 166.795, 291.595 166.614, 281.597 166.433, 271.598 166.252, 261.600 166.071, 251.602 165.890, 241.603 165.709, 231.605 165.595, 225.283 155.647, 224.268 147.914, 223.480 137.966, 222.465 128.017, 221.450 118.069, 220.436 117.045, 220.331 111.993, 219.816 104.085, 219.009 96.654, 220.462 87.036, 222.343 77.175, 224.271 72.380, 225.209 62.566, 227.128 60.546, 227.523 60.726, 237.521 60.906, 247.519 61.086, 257.518 61.266, 267.516 61.446, 277.515 61.626, 287.513 61.806, 297.511 61.985, 307.510 62.165, 317.508 62.297, 324.825 62.413, 331.265 62.588, 341.009 62.619, 342.710 " stroke-name="b_2466_p1b2465" stroke-occlusion=" True True True True True True True True True True True True True True True True True True True True True True True True True True True True True True True True True True True True True True True True True True True True True True True True True True True " />
            <path fill="none" stroke-width="1.0" stroke-linecap="round" stroke-opacity="1.0" stroke="rgb(0, 0, 0)" stroke-linejoin="round" d=" M 147.914, 223.480 147.674, 213.911 137.760, 212.601 127.846, 211.290 117.932, 209.980 111.764, 209.165 102.111, 211.778 92.459, 214.391 86.917, 215.891 77.264, 218.504 77.122, 218.543 77.175, 224.271 " stroke-name="b_2466_p1b2465" stroke-occlusion=" True True True True True True True True True True True True " />
            <path fill="none" stroke-width="1.0" stroke-linecap="round" stroke-opacity="1.0" stroke="rgb(0, 0, 0)" stroke-linejoin="round" d=" M 104.085, 219.009 104.141, 222.513 104.300, 232.512 104.459, 242.511 104.619, 252.510 104.778, 262.508 104.937, 272.507 105.096, 282.506 105.256, 292.505 105.415, 302.503 105.574, 312.502 105.734, 322.501 105.761, 324.231 105.921, 334.230 106.080, 344.228 106.177, 350.299 106.336, 360.298 106.495, 370.297 106.654, 380.295 106.666, 381.043 107.006, 390.093 " stroke-name="b_2466_p1b2465" stroke-occlusion=" True True True True True True True True True True True True True True True True True True True True True " />
            <path fill="none" stroke-width="1.0" stroke-linecap="round" stroke-opacity="1.0" stroke="rgb(0, 0, 0)" stroke-linejoin="round" d=" M 168.614, 304.683 168.593, 303.299 168.572, 301.882 166.976, 301.593 " stroke-name="b_2465_p1b2464" stroke-occlusion=" True True True True " />
            <path fill="none" stroke-width="1.0" stroke-linecap="round" stroke-opacity="1.0" stroke="rgb(0, 0, 0)" stroke-linejoin="round" d=" M 203.381, 158.064 203.464, 164.064 203.515, 167.781 203.653, 177.780 203.792, 187.779 203.930, 197.778 204.068, 207.777 204.206, 217.777 204.344, 227.776 204.482, 237.775 204.621, 247.774 204.759, 257.773 204.897, 267.772 205.035, 277.771 205.173, 287.770 205.311, 297.769 205.408, 304.790 205.456, 308.220 205.523, 313.101 205.660, 322.969 205.691, 325.225 205.700, 325.891 205.838, 335.890 205.916, 341.489 206.092, 347.336 " stroke-name="b_2465_p1b2464" stroke-occlusion=" True True True True True True True True True True True True True True True True True True True True True True True True True " />
            <path fill="none" stroke-width="1.0" stroke-linecap="round" stroke-opacity="1.0" stroke="rgb(0, 0, 0)" stroke-linejoin="round" d=" M 246.440, 331.824 246.401, 329.598 246.296, 322.492 246.148, 312.493 245.999, 302.494 245.851, 292.495 245.703, 282.496 245.555, 272.497 245.407, 262.499 245.259, 252.500 245.110, 242.501 244.962, 232.502 244.814, 222.503 244.666, 212.504 244.518, 202.505 244.369, 192.506 244.221, 182.507 244.076, 172.725 244.059, 171.569 244.046, 170.690 234.560, 167.524 225.075, 164.358 215.589, 161.192 206.104, 158.026 205.029, 157.668 203.381, 158.064 197.796, 156.166 188.415, 159.628 179.033, 163.090 169.711, 166.529 169.889, 176.528 170.068, 186.526 170.246, 196.525 170.425, 206.523 170.604, 216.521 170.782, 226.520 170.961, 236.518 171.139, 246.517 171.318, 256.515 171.496, 266.513 171.675, 276.512 171.853, 286.510 172.032, 296.509 172.165, 303.935 172.205, 306.180 172.334, 313.426 172.367, 315.262 172.405, 317.404 172.467, 320.893 172.512, 323.385 172.568, 326.503 172.666, 332.042 172.715, 334.746 172.714, 334.782 172.633, 339.213 " stroke-name="b_2465_p1b2464" stroke-occlusion=" True True True True True True True True True True True True True True True True True True True True True True True True True True True True True True True True True True True True True True True True True True True True True True True True True True True True True True True " />
            <path fill="none" stroke-width="1.0" stroke-linecap="round" stroke-opacity="1.0" stroke="rgb(0, 0, 0)" stroke-linejoin="round" d=" M 172.405, 317.404 168.141, 316.431 167.263, 316.231 168.132, 316.066 172.367, 315.262 " stroke-name="b_2465_p1b2464" stroke-occlusion=" True True True True True " />
            <path fill="none" stroke-width="1.0" stroke-linecap="round" stroke-opacity="1.0" stroke="rgb(0, 0, 0)" stroke-linejoin="round" d=" M 197.796, 156.166 197.934, 166.011 197.981, 169.429 198.121, 179.428 198.260, 189.428 198.399, 199.427 198.539, 209.426 198.678, 219.425 198.818, 229.424 198.957, 239.423 199.096, 249.422 199.236, 259.421 199.375, 269.420 199.514, 279.419 199.654, 289.418 199.793, 299.417 199.842, 302.931 199.861, 304.255 199.878, 305.489 199.913, 307.981 199.985, 313.204 200.005, 314.614 200.122, 323.030 200.262, 333.029 200.401, 343.028 200.405, 343.269 200.864, 349.321 " stroke-name="b_2465_p1b2464" stroke-occlusion=" True True True True True True True True True True True True True True True True True True True True True True True True True True True " />
            <path fill="none" stroke-width="1.0" stroke-linecap="round" stroke-opacity="1.0" stroke="rgb(0, 0, 0)" stroke-linejoin="round" d=" M 208.028, 348.320 207.882, 342.015 207.727, 332.016 207.639, 326.314 207.587, 322.947 207.432, 312.949 207.352, 307.782 207.310, 305.047 207.155, 295.048 207.000, 285.049 206.845, 275.050 206.691, 265.052 206.536, 255.053 206.381, 245.054 206.226, 235.055 206.072, 225.056 205.917, 215.057 205.762, 205.059 205.607, 195.060 205.453, 185.061 205.298, 175.062 205.178, 167.286 205.119, 163.482 205.029, 157.668 " stroke-name="b_2465_p1b2464" stroke-occlusion=" True True True True True True True True True True True True True True True True True True True True True True True True " />
            <path fill="none" stroke-width="1.0" stroke-linecap="round" stroke-opacity="1.0" stroke="rgb(0, 0, 0)" stroke-linejoin="round" d=" M 248.357, 331.201 248.304, 328.139 248.220, 322.467 248.071, 312.468 247.922, 302.469 247.773, 292.470 247.624, 282.472 247.475, 272.473 247.327, 262.474 247.178, 252.475 247.029, 242.476 246.880, 232.477 246.731, 222.478 246.583, 212.479 246.434, 202.480 246.285, 192.482 246.136, 182.483 245.984, 172.241 244.059, 171.569 " stroke-name="b_2465_p1b2464" stroke-occlusion=" True True True True True True True True True True True True True True True True True True True " />
            <path fill="none" stroke-width="1.0" stroke-linecap="round" stroke-opacity="1.0" stroke="rgb(0, 0, 0)" stroke-linejoin="round" d=" M 355.443, 406.126 350.290, 407.988 341.240, 412.241 332.190, 416.495 323.626, 420.520 315.345, 426.126 307.064, 431.732 298.783, 437.338 295.879, 439.304 288.523, 446.079 284.393, 449.883 277.037, 456.658 269.682, 463.433 262.326, 470.207 254.971, 476.982 253.573, 478.270 " stroke-name="b_2446_p1b2445" stroke-occlusion=" True True True True True True True True True True True True True True True True " />
            <path fill="none" stroke-width="1.0" stroke-linecap="round" stroke-opacity="1.0" stroke="rgb(0, 0, 0)" stroke-linejoin="round" d=" M 265.669, 485.969 272.732, 478.890 279.796, 471.811 286.859, 464.732 293.922, 457.653 300.985, 450.574 302.183, 449.373 309.246, 442.294 309.928, 441.610 318.037, 435.758 323.463, 431.843 330.490, 426.773 339.342, 422.121 348.194, 417.469 353.888, 414.477 354.341, 414.310 " stroke-name="b_2446_p1b2445" stroke-occlusion=" True True True True True True True True True True True True True True True True " />
            <path fill="none" stroke-width="1.0" stroke-linecap="round" stroke-opacity="1.0" stroke="rgb(0, 0, 0)" stroke-linejoin="round" d=" M 369.367, 390.158 364.464, 386.549 354.598, 388.177 350.871, 388.792 341.198, 391.329 331.525, 393.865 321.852, 396.401 312.179, 398.937 307.737, 400.101 298.618, 404.204 289.498, 408.307 280.378, 412.410 271.259, 416.513 262.139, 420.615 261.672, 420.826 252.937, 425.695 244.203, 430.565 235.469, 435.434 230.012, 438.476 221.883, 444.300 213.754, 450.123 211.684, 451.606 " stroke-name="b_2446_p1b2445" stroke-occlusion=" True True True True True True True True True True True True True True True True True True True True True True " />
            <path fill="none" stroke-width="1.0" stroke-linecap="round" stroke-opacity="1.0" stroke="rgb(0, 0, 0)" stroke-linejoin="round" d=" M 303.606, 572.097 303.649, 562.097 303.693, 552.097 303.736, 542.097 303.779, 532.097 303.822, 522.097 303.866, 512.097 303.873, 510.352 303.883, 508.028 299.779, 507.680 296.637, 505.680 288.201, 500.311 285.052, 498.306 276.616, 492.937 268.180, 487.567 265.669, 485.969 257.233, 480.599 255.544, 479.524 253.573, 478.270 246.410, 473.710 237.974, 468.341 229.538, 462.971 221.025, 457.552 212.589, 452.182 211.684, 451.606 203.248, 446.237 194.812, 440.867 186.376, 435.497 177.940, 430.128 169.444, 424.720 160.657, 429.493 151.869, 434.266 143.082, 439.038 134.294, 443.811 125.507, 448.584 116.719, 453.357 107.932, 458.129 99.144, 462.902 90.357, 467.675 81.569, 472.448 72.781, 477.220 63.994, 481.993 55.206, 486.766 46.419, 491.539 37.631, 496.311 28.844, 501.084 20.056, 505.857 11.269, 510.630 2.481, 515.402 -6.306, 520.175 -15.094, 524.948 -23.881, 529.721 -32.669, 534.493 -41.456, 539.266 -50.244, 544.039 -59.032, 548.812 -67.819, 553.584 -76.607, 558.357 -85.394, 563.130 -94.182, 567.903 -102.969, 572.676 -111.757, 577.448 -120.544, 582.221 -129.332, 586.994 -138.119, 591.767 -146.907, 596.539 -153.827, 600.297 " stroke-name="b_2446_p1b2445" stroke-occlusion=" True True True True True True True True True True True True True True True True True True True True True True True True True True True True True True True True True True True True True True True True True True True True True True True True True True True True True True True True True True True True True True True True True True True " />
            <path fill="none" stroke-width="1.0" stroke-linecap="round" stroke-opacity="1.0" stroke="rgb(0, 0, 0)" stroke-linejoin="round" d=" M 303.883, 508.028 302.738, 509.611 299.872, 513.570 " stroke-name="b_2446_p1b2445" stroke-occlusion=" True True True " />
            <path fill="none" stroke-width="1.0" stroke-linecap="round" stroke-opacity="1.0" stroke="rgb(0, 0, 0)" stroke-linejoin="round" d=" M 307.707, 512.853 303.873, 510.352 " stroke-name="b_2446_p1b2445" stroke-occlusion=" True True " />
            <path fill="none" stroke-width="1.0" stroke-linecap="round" stroke-opacity="1.0" stroke="rgb(0, 0, 0)" stroke-linejoin="round" d=" M 221.025, 457.552 229.126, 451.689 236.040, 446.683 244.483, 441.324 252.926, 435.966 261.369, 430.607 263.921, 428.987 272.920, 424.625 281.918, 420.263 290.916, 415.900 299.915, 411.538 305.487, 408.837 314.874, 405.389 324.261, 401.941 330.187, 399.764 339.914, 397.442 349.641, 395.121 359.368, 392.800 369.085, 390.480 " stroke-name="b_2446_p1b2445" stroke-occlusion=" True True True True True True True True True True True True True True True True True True True " />
            <path fill="none" stroke-width="1.0" stroke-linecap="round" stroke-opacity="1.0" stroke="rgb(0, 0, 0)" stroke-linejoin="round" d=" M 31.545, 149.465 31.472, 139.465 31.463, 138.220 21.783, 135.712 12.102, 133.204 5.191, 131.414 -0.704, 139.491 -2.412, 141.831 " stroke-name="b_2444_p1b2443" stroke-occlusion=" True True True True True True True True " />
            <path fill="none" stroke-width="1.0" stroke-linecap="round" stroke-opacity="1.0" stroke="rgb(0, 0, 0)" stroke-linejoin="round" d=" M 60.255, 357.951 60.266, 350.807 56.479, 349.217 46.763, 351.586 43.734, 352.324 41.114, 352.962 40.423, 353.131 36.555, 354.074 36.461, 356.087 36.241, 360.800 " stroke-name="b_2444_p1b2443" stroke-occlusion=" True True True True True True True True True True " />
            <path fill="none" stroke-width="1.0" stroke-linecap="round" stroke-opacity="1.0" stroke="rgb(0, 0, 0)" stroke-linejoin="round" d=" M 40.261, 362.895 48.339, 360.898 58.047, 358.497 60.255, 357.951 " stroke-name="b_2444_p1b2443" stroke-occlusion=" True True True True " />
            <path fill="none" stroke-width="1.0" stroke-linecap="round" stroke-opacity="1.0" stroke="rgb(0, 0, 0)" stroke-linejoin="round" d=" M 36.241, 360.800 40.261, 362.895 40.167, 359.856 40.045, 355.933 " stroke-name="b_2444_p1b2443" stroke-occlusion=" True True True True " />
            <path fill="none" stroke-width="1.0" stroke-linecap="round" stroke-opacity="1.0" stroke="rgb(0, 0, 0)" stroke-linejoin="round" d=" M 103.126, 387.562 103.185, 383.094 103.028, 373.096 102.870, 363.097 102.713, 353.098 102.692, 351.785 101.836, 351.392 92.750, 347.216 83.663, 343.041 76.654, 339.821 66.859, 341.837 62.619, 342.710 60.706, 343.104 50.911, 345.120 43.706, 346.603 41.858, 345.445 40.888, 344.837 40.263, 344.973 37.864, 345.495 32.580, 346.646 30.577, 347.082 " stroke-name="b_2444_p1b2443" stroke-occlusion=" True True True True True True True True True True True True True True True True True True True True True " />
            <path fill="none" stroke-width="1.0" stroke-linecap="round" stroke-opacity="1.0" stroke="rgb(0, 0, 0)" stroke-linejoin="round" d=" M 30.642, 349.432 30.577, 347.082 30.498, 344.258 27.918, 342.575 18.162, 344.095 18.308, 349.253 8.503, 351.218 -1.302, 353.182 -11.107, 355.147 -16.790, 356.285 " stroke-name="b_2444_p1b2443" stroke-occlusion=" True True True True True True True True True True " />
            <path fill="none" stroke-width="1.0" stroke-linecap="round" stroke-opacity="1.0" stroke="rgb(0, 0, 0)" stroke-linejoin="round" d=" M 18.162, 344.095 21.083, 345.978 " stroke-name="b_2444_p1b2443" stroke-occlusion=" True True " />
            <path fill="none" stroke-width="1.0" stroke-linecap="round" stroke-opacity="1.0" stroke="rgb(0, 0, 0)" stroke-linejoin="round" d=" M 20.981, 351.655 21.083, 345.978 30.498, 344.258 " stroke-name="b_2444_p1b2443" stroke-occlusion=" True True True " />
            <path fill="none" stroke-width="1.0" stroke-linecap="round" stroke-opacity="1.0" stroke="rgb(0, 0, 0)" stroke-linejoin="round" d=" M 36.555, 354.074 39.204, 355.485 40.045, 355.933 41.100, 355.666 50.794, 353.209 60.266, 350.807 " stroke-name="b_2444_p1b2443" stroke-occlusion=" True True True True True True " />
            <path fill="none" stroke-width="1.0" stroke-linecap="round" stroke-opacity="1.0" stroke="rgb(0, 0, 0)" stroke-linejoin="round" d=" M 18.308, 349.253 20.981, 351.655 30.642, 349.432 " stroke-name="b_2444_p1b2443" stroke-occlusion=" True True True " />
            <path fill="none" stroke-width="1.0" stroke-linecap="round" stroke-opacity="1.0" stroke="rgb(0, 0, 0)" stroke-linejoin="round" d=" M 60.706, 343.104 60.676, 341.418 60.506, 331.612 60.388, 324.856 60.215, 314.857 60.041, 304.859 59.867, 294.860 59.693, 284.862 59.519, 274.863 59.345, 264.865 59.172, 254.866 58.998, 244.868 58.824, 234.869 58.650, 224.871 58.476, 214.872 58.302, 204.874 58.128, 194.876 58.049, 190.322 58.011, 188.151 57.993, 187.061 57.895, 181.432 57.861, 179.504 57.839, 178.249 57.665, 168.250 57.492, 158.252 57.440, 155.287 47.684, 153.093 37.927, 150.900 31.545, 149.465 21.838, 147.283 12.081, 145.089 5.690, 143.652 -2.412, 141.831 " stroke-name="b_2444_p1b2443" stroke-occlusion=" True True True True True True True True True True True True True True True True True True True True True True True True True True True True True True True True True " />
            <path fill="none" stroke-width="1.0" stroke-linecap="round" stroke-opacity="1.0" stroke="rgb(0, 0, 0)" stroke-linejoin="round" d=" M -0.114, 386.968 0.143, 394.224 0.497, 404.218 0.852, 414.212 0.983, 417.919 1.087, 427.918 1.098, 428.934 " stroke-name="b_2444_p1b2443" stroke-occlusion=" True True True True True True True " />
            <path fill="none" stroke-width="1.0" stroke-linecap="round" stroke-opacity="1.0" stroke="rgb(0, 0, 0)" stroke-linejoin="round" d=" M 102.692, 351.785 93.005, 354.265 83.317, 356.746 76.598, 358.466 66.911, 360.947 63.614, 361.791 61.042, 362.449 53.247, 364.445 43.560, 366.926 43.341, 366.982 33.654, 369.462 23.967, 371.942 14.279, 374.423 4.592, 376.903 -0.426, 378.188 " stroke-name="b_2444_p1b2443" stroke-occlusion=" True True True True True True True True True True True True True True True " />
            <path fill="none" stroke-width="1.0" stroke-linecap="round" stroke-opacity="1.0" stroke="rgb(0, 0, 0)" stroke-linejoin="round" d=" M 62.192, 182.144 62.166, 179.033 57.839, 178.249 " stroke-name="b_2418_p1b2417" stroke-occlusion=" True True True " />
            <path fill="none" stroke-width="1.0" stroke-linecap="round" stroke-opacity="1.0" stroke="rgb(0, 0, 0)" stroke-linejoin="round" d=" M 86.917, 215.891 86.731, 205.893 86.546, 195.895 86.366, 186.147 76.500, 184.513 66.635, 182.879 62.192, 182.144 60.347, 181.838 57.895, 181.432 " stroke-name="b_2418_p1b2417" stroke-occlusion=" True True True True True True True True True " />
            <path fill="none" stroke-width="1.0" stroke-linecap="round" stroke-opacity="1.0" stroke="rgb(0, 0, 0)" stroke-linejoin="round" d=" M 5.690, 143.652 5.283, 133.661 5.191, 131.414 " stroke-name="b_2444_p1b2443" stroke-occlusion=" True True True " />
            <path fill="none" stroke-width="1.0" stroke-linecap="round" stroke-opacity="1.0" stroke="rgb(0, 0, 0)" stroke-linejoin="round" d=" M 111.993, 219.816 111.897, 215.356 111.865, 213.851 111.764, 209.165 " stroke-name="b_2466_p1b2465" stroke-occlusion=" True True True True " />
            <path fill="none" stroke-width="1.0" stroke-linecap="round" stroke-opacity="1.0" stroke="rgb(0, 0, 0)" stroke-linejoin="round" d=" M 166.986, 302.141 168.572, 301.882 " stroke-name="b_2465_p1b2464" stroke-occlusion=" True True " />
            <path fill="none" stroke-width="1.0" stroke-linecap="round" stroke-opacity="1.0" stroke="rgb(0, 0, 0)" stroke-linejoin="round" d=" M 167.037, 304.912 167.857, 304.793 168.614, 304.683 " stroke-name="b_2465_p1b2464" stroke-occlusion=" True True True " />
            <path fill="none" stroke-width="1.0" stroke-linecap="round" stroke-opacity="1.0" stroke="rgb(0, 0, 0)" stroke-linejoin="round" d=" M 172.467, 320.893 168.226, 319.934 167.311, 319.727 167.305, 319.726 " stroke-name="b_2465_p1b2464" stroke-occlusion=" True True True True " />
            <path fill="none" stroke-width="1.0" stroke-linecap="round" stroke-opacity="1.0" stroke="rgb(0, 0, 0)" stroke-linejoin="round" d=" M 167.208, 314.388 168.087, 314.223 172.334, 313.426 " stroke-name="b_2465_p1b2464" stroke-occlusion=" True True True " />
            <path fill="none" stroke-width="1.0" stroke-linecap="round" stroke-opacity="1.0" stroke="rgb(0, 0, 0)" stroke-linejoin="round" d=" M 172.205, 306.180 167.909, 306.917 167.075, 307.060 " stroke-name="b_2465_p1b2464" stroke-occlusion=" True True True " />
            <path fill="none" stroke-width="1.0" stroke-linecap="round" stroke-opacity="1.0" stroke="rgb(0, 0, 0)" stroke-linejoin="round" d=" M 172.165, 303.935 168.593, 303.299 " stroke-name="b_2465_p1b2464" stroke-occlusion=" True True " />
            <path fill="none" stroke-width="1.0" stroke-linecap="round" stroke-opacity="1.0" stroke="rgb(0, 0, 0)" stroke-linejoin="round" d=" M 251.203, 322.429 248.220, 322.467 " stroke-name="p1g9_newyork_plane" stroke-occlusion=" True True " />
            <path fill="none" stroke-width="1.0" stroke-linecap="round" stroke-opacity="1.0" stroke="rgb(0, 0, 0)" stroke-linejoin="round" d=" M 319.892, 166.905 320.000, 160.000 " stroke-name="b_2512_p1b2511" stroke-occlusion=" True True " />
            <path fill="none" stroke-width="1.0" stroke-linecap="round" stroke-opacity="1.0" stroke="rgb(0, 0, 0)" stroke-linejoin="round" d=" M 345.139, 204.666 342.033, 202.446 " stroke-name="b_2534_p1b2533" stroke-occlusion=" True True " />
            <path fill="none" stroke-width="1.0" stroke-linecap="round" stroke-opacity="1.0" stroke="rgb(0, 0, 0)" stroke-linejoin="round" d=" M 342.059, 204.489 343.360, 204.901 " stroke-name="b_2534_p1b2533" stroke-occlusion=" True True " />
            <path fill="none" stroke-width="1.0" stroke-linecap="round" stroke-opacity="1.0" stroke="rgb(0, 0, 0)" stroke-linejoin="round" d=" M 347.975, 227.293 347.852, 217.294 347.730, 207.295 347.693, 204.327 " stroke-name="b_2534_p1b2533" stroke-occlusion=" True True True True " />
            <path fill="none" stroke-width="1.0" stroke-linecap="round" stroke-opacity="1.0" stroke="rgb(0, 0, 0)" stroke-linejoin="round" d=" M 495.920, 103.127 495.614, 93.132 495.308, 83.136 495.176, 78.817 " stroke-name="b_2514_p1b2513" stroke-occlusion=" True True True True " />
        </g>
    </g>
</svg>
