<?xml version='1.0' encoding='ascii'?>
<svg xmlns="http://www.w3.org/2000/svg" version="1.1" width="512" height="512">
    <g id="ViewLayer_LineSet" xmlns:inkscape="http://www.inkscape.org/namespaces/inkscape" inkscape:groupmode="lineset" inkscape:label="ViewLayer_LineSet">
        <g xmlns:inkscape="http://www.inkscape.org/namespaces/inkscape" inkscape:groupmode="layer" id="strokes" inkscape:label="strokes">
            <path fill="none" stroke-width="1.0" stroke-linecap="round" stroke-opacity="1.0" stroke="rgb(0, 0, 0)" stroke-linejoin="round" d=" M 329.907, 323.649 322.754, 323.559 316.233, 323.482 312.751, 323.421 302.752, 323.259 295.470, 323.141 291.154, 323.071 " stroke-name="p1g9_newyork_plane" stroke-occlusion=" True True True True True True True " />
            <path fill="none" stroke-width="1.0" stroke-linecap="round" stroke-opacity="1.0" stroke="rgb(0, 0, 0)" stroke-linejoin="round" d=" M 179.390, 321.034 170.897, 320.828 160.900, 320.586 160.503, 320.576 " stroke-name="p1g9_newyork_plane" stroke-occlusion=" True True True True " />
            <path fill="none" stroke-width="1.0" stroke-linecap="round" stroke-opacity="1.0" stroke="rgb(0, 0, 0)" stroke-linejoin="round" d=" M 0.644, 52.170 10.482, 53.963 15.121, 54.808 21.477, 55.967 26.870, 56.949 32.937, 64.899 38.593, 72.308 39.580, 72.343 40.948, 72.392 45.714, 72.561 50.934, 72.746 52.155, 74.561 55.496, 79.527 57.135, 81.961 62.718, 90.258 63.896, 92.008 69.479, 100.304 75.062, 108.601 80.645, 116.897 86.228, 125.193 91.811, 133.490 97.394, 141.786 98.102, 142.837 97.887, 152.835 97.671, 162.833 97.456, 172.831 97.240, 182.828 97.025, 192.826 96.810, 202.824 96.594, 212.821 96.379, 222.819 96.163, 232.817 95.948, 242.814 95.733, 252.812 95.556, 261.015 105.555, 261.143 115.554, 261.270 125.553, 261.398 135.553, 261.526 145.552, 261.653 155.551, 261.781 161.549, 261.858 161.371, 271.856 161.193, 281.855 161.015, 291.853 160.837, 301.851 160.659, 311.850 160.503, 320.576 160.326, 330.575 160.148, 340.573 159.970, 350.572 159.792, 360.570 159.614, 370.568 159.436, 380.567 159.258, 390.565 159.234, 391.879 159.109, 398.936 158.335, 408.906 157.562, 418.876 156.788, 428.846 156.015, 438.816 155.241, 448.786 154.468, 458.756 153.694, 468.727 152.921, 478.697 152.147, 488.667 151.374, 498.637 150.600, 508.607 149.827, 518.577 148.967, 529.659 " stroke-name="b_2514_p1b2513" stroke-occlusion=" True True True True True True True True True True True True True True True True True True True True True True True True True True True True True True True True True True True True True True True True True True True True True True True True True True True True True True True True True True True True True True True True True True True True True True " />
            <path fill="none" stroke-width="1.0" stroke-linecap="round" stroke-opacity="1.0" stroke="rgb(0, 0, 0)" stroke-linejoin="round" d=" M 63.896, 92.008 64.185, 82.921 58.774, 74.512 53.363, 66.102 47.952, 57.693 42.541, 49.283 37.130, 40.874 31.719, 32.464 26.308, 24.055 20.897, 15.645 15.485, 7.236 10.074, -1.174 4.663, -9.583 2.418, -13.072 " stroke-name="b_2514_p1b2513" stroke-occlusion=" True True True True True True True True True True True True True True " />
            <path fill="none" stroke-width="1.0" stroke-linecap="round" stroke-opacity="1.0" stroke="rgb(0, 0, 0)" stroke-linejoin="round" d=" M 49.760, 267.286 59.668, 265.929 69.576, 264.573 79.483, 263.216 81.623, 262.923 82.800, 262.762 92.707, 261.405 95.556, 261.015 " stroke-name="b_2514_p1b2513" stroke-occlusion=" True True True True True True True True " />
            <path fill="none" stroke-width="1.0" stroke-linecap="round" stroke-opacity="1.0" stroke="rgb(0, 0, 0)" stroke-linejoin="round" d=" M 50.934, 72.746 50.873, 82.746 50.853, 86.055 50.793, 96.055 50.758, 101.863 50.707, 110.309 50.647, 120.309 50.631, 122.896 50.571, 132.896 50.511, 142.896 50.450, 152.895 50.390, 162.895 50.330, 172.895 50.269, 182.895 50.209, 192.895 50.149, 202.895 50.088, 212.894 50.028, 222.894 49.968, 232.894 49.908, 242.894 49.847, 252.894 49.787, 262.893 49.760, 267.286 39.895, 265.653 34.947, 264.835 " stroke-name="b_2514_p1b2513" stroke-occlusion=" True True True True True True True True True True True True True True True True True True True True True True True True True " />
            <path fill="none" stroke-width="1.0" stroke-linecap="round" stroke-opacity="1.0" stroke="rgb(0, 0, 0)" stroke-linejoin="round" d=" M 38.593, 72.308 38.404, 82.306 38.344, 85.472 38.154, 95.470 38.150, 95.726 38.023, 102.416 37.834, 112.414 37.644, 122.412 37.455, 132.410 37.266, 142.409 37.076, 152.407 36.887, 162.405 36.698, 172.403 36.508, 182.401 36.319, 192.400 36.130, 202.398 35.940, 212.396 35.751, 222.394 35.561, 232.392 35.372, 242.391 35.183, 252.389 34.993, 262.387 34.947, 264.835 25.025, 266.084 22.816, 266.362 " stroke-name="b_2514_p1b2513" stroke-occlusion=" True True True True True True True True True True True True True True True True True True True True True True True True True " />
            <path fill="none" stroke-width="1.0" stroke-linecap="round" stroke-opacity="1.0" stroke="rgb(0, 0, 0)" stroke-linejoin="round" d=" M 13.212, 560.992 13.321, 550.993 13.430, 540.994 13.539, 530.994 13.648, 520.995 13.757, 510.995 13.866, 500.996 13.976, 490.997 14.085, 480.997 14.194, 470.998 14.303, 460.998 14.412, 450.999 14.521, 441.000 14.630, 431.000 14.739, 421.001 14.849, 411.001 14.958, 401.002 15.067, 391.003 15.176, 381.003 15.285, 371.004 15.394, 361.004 15.503, 351.005 15.612, 341.006 15.721, 331.006 15.831, 321.007 15.885, 315.993 15.994, 305.994 16.104, 295.994 16.213, 285.995 16.322, 275.995 16.416, 267.375 22.816, 266.362 23.010, 256.364 23.203, 246.366 23.397, 236.368 23.590, 226.370 23.784, 216.371 23.978, 206.373 24.171, 196.375 24.365, 186.377 24.558, 176.379 24.752, 166.381 24.945, 156.383 25.139, 146.385 25.332, 136.386 25.526, 126.388 25.719, 116.390 25.913, 106.392 26.024, 100.679 26.217, 90.681 26.384, 82.062 26.578, 72.064 26.618, 69.989 26.811, 59.991 26.870, 56.949 " stroke-name="b_2514_p1b2513" stroke-occlusion=" True True True True True True True True True True True True True True True True True True True True True True True True True True True True True True True True True True True True True True True True True True True True True True True True True True True True True True True " />
            <path fill="none" stroke-width="1.0" stroke-linecap="round" stroke-opacity="1.0" stroke="rgb(0, 0, 0)" stroke-linejoin="round" d=" M 204.234, 551.933 203.106, 541.997 201.977, 532.061 200.849, 522.124 199.720, 512.188 198.592, 502.252 197.463, 492.316 196.335, 482.380 195.206, 472.444 194.078, 462.508 192.950, 452.572 191.821, 442.635 190.693, 432.699 189.564, 422.763 188.436, 412.827 187.307, 402.891 186.179, 392.955 185.704, 388.769 175.772, 389.936 165.840, 391.103 159.234, 391.879 " stroke-name="b_2514_p1b2513" stroke-occlusion=" True True True True True True True True True True True True True True True True True True True True True " />
            <path fill="none" stroke-width="1.0" stroke-linecap="round" stroke-opacity="1.0" stroke="rgb(0, 0, 0)" stroke-linejoin="round" d=" M 152.531, 268.594 160.542, 262.609 161.549, 261.858 " stroke-name="b_2514_p1b2513" stroke-occlusion=" True True True " />
            <path fill="none" stroke-width="1.0" stroke-linecap="round" stroke-opacity="1.0" stroke="rgb(0, 0, 0)" stroke-linejoin="round" d=" M 16.416, 267.375 22.798, 267.432 32.798, 267.522 42.798, 267.611 52.797, 267.701 62.797, 267.791 72.796, 267.880 81.540, 267.958 82.720, 267.969 92.720, 268.059 102.719, 268.148 112.719, 268.238 122.718, 268.327 132.718, 268.417 142.718, 268.506 152.531, 268.594 152.391, 278.593 152.252, 288.592 152.112, 298.591 151.972, 308.590 151.833, 318.589 151.808, 320.365 151.668, 330.364 151.529, 340.363 151.389, 350.362 151.250, 360.362 151.110, 370.361 150.970, 380.360 150.831, 390.359 150.796, 392.870 150.697, 399.956 150.557, 409.955 150.418, 419.954 150.278, 429.953 150.138, 439.952 149.999, 449.951 149.859, 459.950 149.720, 469.949 149.580, 479.948 149.441, 489.947 149.301, 499.946 149.161, 509.945 149.022, 519.944 148.886, 529.678 " stroke-name="b_2514_p1b2513" stroke-occlusion=" True True True True True True True True True True True True True True True True True True True True True True True True True True True True True True True True True True True True True True True True True True True True " />
            <path fill="none" stroke-width="1.0" stroke-linecap="round" stroke-opacity="1.0" stroke="rgb(0, 0, 0)" stroke-linejoin="round" d=" M 288.139, 531.127 285.652, 521.441 283.165, 511.755 280.678, 502.069 278.191, 492.384 275.704, 482.698 274.231, 476.960 271.035, 469.705 267.003, 460.554 262.971, 451.402 258.940, 442.251 254.908, 433.100 253.455, 429.802 " stroke-name="b_2446_p1b2445" stroke-occlusion=" True True True True True True True True True True True True True " />
            <path fill="none" stroke-width="1.0" stroke-linecap="round" stroke-opacity="1.0" stroke="rgb(0, 0, 0)" stroke-linejoin="round" d=" M 253.455, 429.802 243.610, 431.554 241.882, 431.862 " stroke-name="b_2446_p1b2445" stroke-occlusion=" True True True " />
            <path fill="none" stroke-width="1.0" stroke-linecap="round" stroke-opacity="1.0" stroke="rgb(0, 0, 0)" stroke-linejoin="round" d=" M 241.882, 431.862 245.255, 441.276 248.629, 450.689 252.003, 460.103 253.139, 463.274 256.513, 472.688 256.610, 472.960 259.984, 482.374 260.151, 482.839 262.302, 492.605 264.454, 502.371 266.606, 512.136 267.460, 516.012 " stroke-name="b_2446_p1b2445" stroke-occlusion=" True True True True True True True True True True True True True " />
            <path fill="none" stroke-width="1.0" stroke-linecap="round" stroke-opacity="1.0" stroke="rgb(0, 0, 0)" stroke-linejoin="round" d=" M 358.209, 555.395 354.721, 546.023 351.232, 536.651 347.744, 527.279 344.256, 517.907 340.768, 508.535 337.279, 499.163 333.791, 489.791 330.303, 480.419 326.815, 471.048 325.842, 468.435 321.104, 459.629 320.709, 458.896 315.971, 450.090 311.232, 441.284 308.324, 435.880 302.252, 427.934 297.547, 421.778 " stroke-name="b_2446_p1b2445" stroke-occlusion=" True True True True True True True True True True True True True True True True True True " />
            <path fill="none" stroke-width="1.0" stroke-linecap="round" stroke-opacity="1.0" stroke="rgb(0, 0, 0)" stroke-linejoin="round" d=" M 200.158, 418.490 203.078, 419.138 " stroke-name="b_2446_p1b2445" stroke-occlusion=" True True " />
            <path fill="none" stroke-width="1.0" stroke-linecap="round" stroke-opacity="1.0" stroke="rgb(0, 0, 0)" stroke-linejoin="round" d=" M 333.982, 456.123 333.764, 446.126 333.674, 442.024 333.800, 432.025 333.927, 422.026 334.012, 415.293 332.148, 410.205 329.195, 402.145 319.285, 403.480 309.374, 404.815 299.464, 406.151 296.746, 406.517 286.835, 407.852 276.925, 409.188 267.014, 410.523 257.104, 411.858 247.193, 413.194 237.283, 414.529 227.373, 415.864 217.462, 417.200 207.552, 418.535 203.078, 419.138 " stroke-name="b_2446_p1b2445" stroke-occlusion=" True True True True True True True True True True True True True True True True True True True True True True " />
            <path fill="none" stroke-width="1.0" stroke-linecap="round" stroke-opacity="1.0" stroke="rgb(0, 0, 0)" stroke-linejoin="round" d=" M 201.828, 306.389 191.834, 306.706 181.839, 307.023 180.041, 307.080 179.874, 312.412 179.835, 313.648 " stroke-name="b_2446_p1b2445" stroke-occlusion=" True True True True True True " />
            <path fill="none" stroke-width="1.0" stroke-linecap="round" stroke-opacity="1.0" stroke="rgb(0, 0, 0)" stroke-linejoin="round" d=" M 332.412, 399.800 322.522, 401.278 312.632, 402.757 302.742, 404.236 295.728, 405.285 285.838, 406.763 275.948, 408.242 266.058, 409.721 256.168, 411.200 246.278, 412.679 236.388, 414.157 226.498, 415.636 216.608, 417.115 206.718, 418.594 203.078, 419.138 " stroke-name="b_2446_p1b2445" stroke-occlusion=" True True True True True True True True True True True True True True True " />
            <path fill="none" stroke-width="1.0" stroke-linecap="round" stroke-opacity="1.0" stroke="rgb(0, 0, 0)" stroke-linejoin="round" d=" M 241.836, 475.488 241.951, 465.489 242.009, 460.459 241.964, 450.459 241.920, 440.459 241.882, 431.862 251.720, 430.072 261.559, 428.282 271.397, 426.492 281.236, 424.702 287.044, 423.645 " stroke-name="b_2446_p1b2445" stroke-occlusion=" True True True True True True True True True True True " />
            <path fill="none" stroke-width="1.0" stroke-linecap="round" stroke-opacity="1.0" stroke="rgb(0, 0, 0)" stroke-linejoin="round" d=" M 275.793, 349.444 275.560, 342.213 " stroke-name="b_2446_p1b2445" stroke-occlusion=" True True " />
            <path fill="none" stroke-width="1.0" stroke-linecap="round" stroke-opacity="1.0" stroke="rgb(0, 0, 0)" stroke-linejoin="round" d=" M 245.637, 322.470 253.091, 329.137 256.907, 332.550 264.360, 339.217 271.813, 345.884 275.793, 349.444 283.265, 356.090 290.737, 362.735 291.402, 363.326 298.874, 369.972 306.346, 376.617 313.819, 383.263 321.291, 389.909 328.763, 396.554 332.412, 399.800 332.158, 409.796 332.148, 410.205 " stroke-name="b_2446_p1b2445" stroke-occlusion=" True True True True True True True True True True True True True True True True True " />
            <path fill="none" stroke-width="1.0" stroke-linecap="round" stroke-opacity="1.0" stroke="rgb(0, 0, 0)" stroke-linejoin="round" d=" M 291.402, 363.326 291.414, 353.326 291.426, 343.326 291.430, 340.776 283.240, 335.038 277.994, 331.362 272.690, 327.645 272.384, 327.430 270.351, 326.006 269.081, 325.116 265.552, 322.643 264.836, 322.141 264.481, 321.892 263.736, 321.370 257.665, 317.116 247.684, 317.735 247.516, 317.746 245.853, 317.849 245.646, 322.278 245.637, 322.470 245.419, 322.273 243.465, 320.513 243.268, 320.335 242.166, 319.342 242.042, 319.231 240.259, 317.625 240.048, 317.434 237.754, 315.368 230.325, 308.674 228.144, 306.709 " stroke-name="b_2446_p1b2445" stroke-occlusion=" True True True True True True True True True True True True True True True True True True True True True True True True True True True True True True " />
            <path fill="none" stroke-width="1.0" stroke-linecap="round" stroke-opacity="1.0" stroke="rgb(0, 0, 0)" stroke-linejoin="round" d=" M 199.292, 475.188 199.930, 465.208 200.246, 460.264 200.225, 450.264 200.203, 440.264 200.182, 430.265 200.161, 420.265 200.158, 418.490 198.381, 408.649 196.604, 398.809 194.827, 388.968 193.050, 379.127 191.273, 369.286 189.496, 359.445 187.719, 349.604 185.942, 339.763 184.165, 329.923 182.574, 321.112 181.103, 312.962 181.003, 312.411 180.557, 309.938 180.469, 309.451 180.041, 307.080 " stroke-name="b_2446_p1b2445" stroke-occlusion=" True True True True True True True True True True True True True True True True True True True True True True True " />
            <path fill="none" stroke-width="1.0" stroke-linecap="round" stroke-opacity="1.0" stroke="rgb(0, 0, 0)" stroke-linejoin="round" d=" M 179.637, 312.417 179.835, 313.648 " stroke-name="b_2446_p1b2445" stroke-occlusion=" True True " />
            <path fill="none" stroke-width="1.0" stroke-linecap="round" stroke-opacity="1.0" stroke="rgb(0, 0, 0)" stroke-linejoin="round" d=" M 204.224, 482.913 203.967, 472.916 203.829, 467.548 204.017, 457.550 204.206, 447.552 204.395, 437.553 204.410, 436.765 203.656, 426.793 203.078, 419.138 202.942, 429.137 202.806, 439.136 202.670, 449.135 202.534, 459.134 202.526, 459.729 202.634, 469.729 202.695, 475.384 " stroke-name="b_2446_p1b2445" stroke-occlusion=" True True True True True True True True True True True True True True True True " />
            <path fill="none" stroke-width="1.0" stroke-linecap="round" stroke-opacity="1.0" stroke="rgb(0, 0, 0)" stroke-linejoin="round" d=" M 331.363, 531.536 328.136, 522.071 324.910, 512.605 321.683, 503.140 318.457, 493.675 315.230, 484.210 312.004, 474.745 308.777, 465.279 307.539, 461.648 307.327, 461.025 302.907, 452.054 298.488, 443.084 296.942, 439.946 294.712, 435.418 289.254, 427.039 287.044, 423.645 286.896, 433.644 286.747, 443.643 286.624, 451.885 286.448, 461.883 286.372, 466.244 " stroke-name="b_2446_p1b2445" stroke-occlusion=" True True True True True True True True True True True True True True True True True True True True True " />
            <path fill="none" stroke-width="1.0" stroke-linecap="round" stroke-opacity="1.0" stroke="rgb(0, 0, 0)" stroke-linejoin="round" d=" M 228.144, 306.709 227.407, 306.854 217.409, 306.672 207.410, 306.491 201.828, 306.389 " stroke-name="b_2446_p1b2445" stroke-occlusion=" True True True True True " />
            <path fill="none" stroke-width="1.0" stroke-linecap="round" stroke-opacity="1.0" stroke="rgb(0, 0, 0)" stroke-linejoin="round" d=" M 291.430, 340.776 281.470, 341.678 275.560, 342.213 267.828, 335.871 263.362, 332.209 255.630, 325.867 251.393, 322.393 245.853, 317.849 " stroke-name="b_2446_p1b2445" stroke-occlusion=" True True True True True True True True " />
            <path fill="none" stroke-width="1.0" stroke-linecap="round" stroke-opacity="1.0" stroke="rgb(0, 0, 0)" stroke-linejoin="round" d=" M 179.874, 312.412 179.637, 312.417 179.644, 313.614 179.684, 318.069 179.390, 321.034 " stroke-name="b_2446_p1b2445" stroke-occlusion=" True True True True True " />
            <path fill="none" stroke-width="1.0" stroke-linecap="round" stroke-opacity="1.0" stroke="rgb(0, 0, 0)" stroke-linejoin="round" d=" M 411.151, 91.272 411.312, 94.419 " stroke-name="b_2445_p1b2444" stroke-occlusion=" True True " />
            <path fill="none" stroke-width="1.0" stroke-linecap="round" stroke-opacity="1.0" stroke="rgb(0, 0, 0)" stroke-linejoin="round" d=" M 387.961, 106.855 380.325, 105.310 377.385, 107.364 377.309, 114.501 " stroke-name="b_2445_p1b2444" stroke-occlusion=" True True True True " />
            <path fill="none" stroke-width="1.0" stroke-linecap="round" stroke-opacity="1.0" stroke="rgb(0, 0, 0)" stroke-linejoin="round" d=" M 407.988, 90.549 407.601, 98.234 407.559, 99.070 407.393, 102.361 " stroke-name="b_2445_p1b2444" stroke-occlusion=" True True True True " />
            <path fill="none" stroke-width="1.0" stroke-linecap="round" stroke-opacity="1.0" stroke="rgb(0, 0, 0)" stroke-linejoin="round" d=" M 407.988, 90.549 405.264, 92.356 402.860, 91.934 400.216, 93.711 397.687, 93.333 394.573, 95.437 394.392, 104.717 " stroke-name="b_2445_p1b2444" stroke-occlusion=" True True True True True True True " />
            <path fill="none" stroke-width="1.0" stroke-linecap="round" stroke-opacity="1.0" stroke="rgb(0, 0, 0)" stroke-linejoin="round" d=" M 394.935, 104.887 394.392, 104.717 391.984, 103.967 387.961, 106.855 380.691, 112.074 380.329, 112.333 379.956, 112.601 379.767, 112.737 378.151, 113.897 377.958, 114.035 377.309, 114.501 376.979, 114.738 376.825, 115.903 " stroke-name="b_2445_p1b2444" stroke-occlusion=" True True True True True True True True True True True True True " />
            <path fill="none" stroke-width="1.0" stroke-linecap="round" stroke-opacity="1.0" stroke="rgb(0, 0, 0)" stroke-linejoin="round" d=" M 446.147, 108.437 446.238, 99.646 446.214, 99.641 445.222, 99.422 435.456, 97.267 425.691, 95.113 415.926, 92.958 413.218, 92.361 411.312, 94.419 410.622, 103.002 " stroke-name="b_2445_p1b2444" stroke-occlusion=" True True True True True True True True True True " />
            <path fill="none" stroke-width="1.0" stroke-linecap="round" stroke-opacity="1.0" stroke="rgb(0, 0, 0)" stroke-linejoin="round" d=" M 446.214, 99.641 446.229, 98.878 436.456, 96.759 426.683, 94.640 416.910, 92.521 411.151, 91.272 410.817, 91.574 407.988, 90.549 408.024, 98.325 408.026, 98.773 408.042, 102.178 " stroke-name="b_2445_p1b2444" stroke-occlusion=" True True True True True True True True True True True " />
            <path fill="none" stroke-width="1.0" stroke-linecap="round" stroke-opacity="1.0" stroke="rgb(0, 0, 0)" stroke-linejoin="round" d=" M 398.102, 344.987 400.529, 345.093 " stroke-name="b_2445_p1b2444" stroke-occlusion=" True True " />
            <path fill="none" stroke-width="1.0" stroke-linecap="round" stroke-opacity="1.0" stroke="rgb(0, 0, 0)" stroke-linejoin="round" d=" M 402.368, 345.759 400.529, 345.093 400.535, 344.176 400.555, 341.230 400.621, 331.230 400.637, 328.767 400.665, 324.591 400.731, 314.591 400.797, 304.591 400.863, 294.591 400.929, 284.592 400.996, 274.592 401.062, 264.592 401.128, 254.592 401.194, 244.592 401.260, 234.593 401.326, 224.593 401.392, 214.593 401.459, 204.593 401.525, 194.594 401.559, 189.427 401.567, 188.182 " stroke-name="b_2445_p1b2444" stroke-occlusion=" True True True True True True True True True True True True True True True True True True True True True True " />
            <path fill="none" stroke-width="1.0" stroke-linecap="round" stroke-opacity="1.0" stroke="rgb(0, 0, 0)" stroke-linejoin="round" d=" M 400.710, 345.930 402.368, 345.759 402.389, 343.968 402.413, 341.933 402.528, 331.934 402.558, 329.362 402.613, 324.620 402.728, 314.621 402.844, 304.621 402.960, 294.622 403.075, 284.623 403.191, 274.623 403.306, 264.624 403.422, 254.625 403.538, 244.625 403.653, 234.626 403.769, 224.627 403.885, 214.627 404.000, 204.628 404.116, 194.629 404.170, 189.948 404.199, 187.405 " stroke-name="b_2445_p1b2444" stroke-occlusion=" True True True True True True True True True True True True True True True True True True True True True True " />
            <path fill="none" stroke-width="1.0" stroke-linecap="round" stroke-opacity="1.0" stroke="rgb(0, 0, 0)" stroke-linejoin="round" d=" M 398.102, 344.987 400.710, 345.930 400.668, 347.975 400.465, 357.973 400.357, 363.262 400.445, 370.904 " stroke-name="b_2445_p1b2444" stroke-occlusion=" True True True True True True " />
            <path fill="none" stroke-width="1.0" stroke-linecap="round" stroke-opacity="1.0" stroke="rgb(0, 0, 0)" stroke-linejoin="round" d=" M 454.457, 341.236 454.460, 340.903 454.464, 340.548 454.468, 340.101 454.469, 340.010 454.474, 339.514 454.570, 329.514 454.610, 325.404 454.706, 315.405 454.802, 305.405 454.899, 295.406 454.995, 285.406 455.091, 275.406 455.188, 265.407 455.284, 255.407 455.381, 245.408 455.477, 235.408 455.573, 225.409 455.670, 215.409 455.766, 205.410 455.872, 194.461 455.873, 194.360 455.880, 193.600 455.881, 193.436 455.882, 193.337 450.804, 192.622 450.928, 182.623 451.051, 172.623 451.175, 162.624 451.298, 152.625 451.422, 142.626 451.546, 132.626 451.669, 122.627 451.793, 112.628 451.830, 109.596 446.147, 108.437 446.041, 108.416 445.685, 108.343 445.597, 108.325 445.504, 108.306 444.981, 108.200 443.552, 107.909 443.303, 107.858 443.156, 107.828 442.690, 107.733 438.532, 106.885 428.733, 104.888 418.935, 102.891 413.136, 101.710 412.921, 101.666 411.239, 102.699 410.703, 103.028 410.622, 103.002 408.427, 102.301 408.042, 102.178 407.693, 102.066 407.393, 102.361 405.366, 104.353 405.320, 104.338 402.549, 103.400 402.494, 103.381 399.943, 105.028 399.908, 105.023 398.513, 104.832 397.378, 104.676 397.375, 104.676 396.028, 105.557 394.897, 106.297 394.864, 106.286 392.002, 105.399 391.900, 105.367 389.365, 107.139 382.044, 112.256 381.944, 112.326 380.334, 113.451 379.898, 113.756 379.772, 113.844 378.266, 114.896 378.132, 114.990 377.927, 115.133 377.297, 115.573 376.825, 115.903 372.085, 119.216 372.016, 129.216 371.946, 139.216 371.877, 149.215 371.807, 159.215 371.738, 169.215 371.668, 179.215 371.599, 189.214 371.546, 196.907 367.228, 198.226 367.226, 198.378 367.224, 198.516 367.101, 208.515 366.978, 218.514 366.856, 228.513 366.733, 238.513 366.610, 248.512 366.487, 258.511 366.364, 268.510 366.241, 278.509 366.118, 288.509 366.062, 293.137 365.939, 303.136 365.883, 307.660 365.777, 316.274 365.711, 321.691 365.691, 323.311 365.681, 324.087 365.595, 331.108 365.574, 332.796 365.573, 332.922 " stroke-name="b_2445_p1b2444" stroke-occlusion=" True True True True True True True True True True True True True True True True True True True True True True True True True True True True True True True True True True True True True True True True True True True True True True True True True True True True True True True True True True True True True True True True True True True True True True True True True True True True True True True True True True True True True True True True True True True True True True True True True True True True True True True True True True True True True True True True True " />
            <path fill="none" stroke-width="1.0" stroke-linecap="round" stroke-opacity="1.0" stroke="rgb(0, 0, 0)" stroke-linejoin="round" d=" M 396.007, 344.142 397.056, 344.565 398.102, 344.987 " stroke-name="b_2445_p1b2444" stroke-occlusion=" True True True " />
            <path fill="none" stroke-width="1.0" stroke-linecap="round" stroke-opacity="1.0" stroke="rgb(0, 0, 0)" stroke-linejoin="round" d=" M 398.102, 344.987 398.109, 344.447 398.160, 340.323 398.285, 330.324 398.313, 328.047 398.357, 324.555 398.482, 314.556 398.606, 304.557 398.731, 294.557 398.856, 284.558 398.980, 274.559 399.105, 264.560 399.230, 254.560 399.354, 244.561 399.479, 234.562 399.604, 224.563 399.728, 214.564 399.853, 204.564 399.978, 194.565 400.039, 189.683 400.059, 188.094 " stroke-name="b_2445_p1b2444" stroke-occlusion=" True True True True True True True True True True True True True True True True True True True True True " />
            <path fill="none" stroke-width="1.0" stroke-linecap="round" stroke-opacity="1.0" stroke="rgb(0, 0, 0)" stroke-linejoin="round" d=" M 455.184, 340.771 455.185, 340.694 455.186, 340.527 455.193, 339.733 455.277, 329.734 455.313, 325.415 455.397, 315.415 455.480, 305.415 455.564, 295.416 455.648, 285.416 455.731, 275.416 455.815, 265.417 455.899, 255.417 455.982, 245.417 456.066, 235.418 456.150, 225.418 456.233, 215.418 456.317, 205.419 456.401, 195.419 456.417, 193.491 455.881, 193.436 " stroke-name="b_2445_p1b2444" stroke-occlusion=" True True True True True True True True True True True True True True True True True True True True True " />
            <path fill="none" stroke-width="1.0" stroke-linecap="round" stroke-opacity="1.0" stroke="rgb(0, 0, 0)" stroke-linejoin="round" d=" M 365.595, 331.108 363.778, 331.254 363.784, 331.760 " stroke-name="b_2445_p1b2444" stroke-occlusion=" True True True " />
            <path fill="none" stroke-width="1.0" stroke-linecap="round" stroke-opacity="1.0" stroke="rgb(0, 0, 0)" stroke-linejoin="round" d=" M 394.365, 344.307 394.417, 338.905 394.512, 328.906 394.532, 326.875 394.555, 324.495 394.651, 314.495 394.746, 304.495 394.842, 294.496 394.938, 284.496 395.034, 274.497 395.130, 264.497 395.226, 254.498 395.321, 244.498 395.417, 234.499 395.513, 224.499 395.609, 214.500 395.705, 204.500 395.801, 194.501 395.842, 190.145 395.856, 188.697 " stroke-name="b_2445_p1b2444" stroke-occlusion=" True True True True True True True True True True True True True True True True True True True True " />
            <path fill="none" stroke-width="1.0" stroke-linecap="round" stroke-opacity="1.0" stroke="rgb(0, 0, 0)" stroke-linejoin="round" d=" M 412.145, 188.575 412.043, 188.560 409.938, 188.250 409.926, 188.248 407.645, 187.912 407.353, 187.869 404.291, 187.418 404.199, 187.405 401.567, 188.182 401.393, 188.172 400.059, 188.094 399.178, 188.357 397.490, 188.859 396.278, 188.739 395.856, 188.697 393.812, 189.266 390.789, 190.107 " stroke-name="b_2445_p1b2444" stroke-occlusion=" True True True True True True True True True True True True True True True True True " />
            <path fill="none" stroke-width="1.0" stroke-linecap="round" stroke-opacity="1.0" stroke="rgb(0, 0, 0)" stroke-linejoin="round" d=" M 396.914, 345.237 395.539, 344.735 394.365, 344.307 396.007, 344.142 396.051, 339.524 396.147, 329.525 396.167, 327.382 396.195, 324.521 396.290, 314.521 396.386, 304.522 396.481, 294.522 396.577, 284.522 396.672, 274.523 396.768, 264.523 396.863, 254.524 396.958, 244.524 397.054, 234.525 397.149, 224.525 397.245, 214.526 397.340, 204.526 397.436, 194.527 397.480, 189.960 397.490, 188.859 " stroke-name="b_2445_p1b2444" stroke-occlusion=" True True True True True True True True True True True True True True True True True True True True True True True " />
            <path fill="none" stroke-width="1.0" stroke-linecap="round" stroke-opacity="1.0" stroke="rgb(0, 0, 0)" stroke-linejoin="round" d=" M 396.653, 370.033 396.564, 362.446 396.767, 352.448 396.850, 348.348 396.914, 345.237 398.102, 344.987 398.100, 348.225 398.094, 358.225 398.092, 361.954 398.307, 369.812 " stroke-name="b_2445_p1b2444" stroke-occlusion=" True True True True True True True True True True " />
            <path fill="none" stroke-width="1.0" stroke-linecap="round" stroke-opacity="1.0" stroke="rgb(0, 0, 0)" stroke-linejoin="round" d=" M 363.778, 331.254 364.963, 331.824 363.784, 331.760 362.826, 331.708 362.849, 332.989 363.024, 342.987 363.078, 346.009 363.014, 348.303 " stroke-name="b_2445_p1b2444" stroke-occlusion=" True True True True True True True True " />
            <path fill="none" stroke-width="1.0" stroke-linecap="round" stroke-opacity="1.0" stroke="rgb(0, 0, 0)" stroke-linejoin="round" d=" M 456.971, 341.066 456.999, 340.284 455.193, 339.733 " stroke-name="b_2445_p1b2444" stroke-occlusion=" True True True " />
            <path fill="none" stroke-width="1.0" stroke-linecap="round" stroke-opacity="1.0" stroke="rgb(0, 0, 0)" stroke-linejoin="round" d=" M 457.398, 346.303 457.520, 341.181 456.971, 341.066 455.185, 340.694 " stroke-name="b_2445_p1b2444" stroke-occlusion=" True True True True " />
            <path fill="none" stroke-width="1.0" stroke-linecap="round" stroke-opacity="1.0" stroke="rgb(0, 0, 0)" stroke-linejoin="round" d=" M 367.226, 198.378 366.885, 198.457 366.798, 208.456 366.711, 218.456 366.624, 228.456 366.537, 238.455 366.450, 248.455 366.363, 258.454 366.276, 268.454 366.189, 278.454 366.102, 288.453 366.062, 293.137 " stroke-name="b_2445_p1b2444" stroke-occlusion=" True True True True True True True True True True True True " />
            <path fill="none" stroke-width="1.0" stroke-linecap="round" stroke-opacity="1.0" stroke="rgb(0, 0, 0)" stroke-linejoin="round" d=" M 380.325, 105.310 380.083, 110.085 379.956, 112.601 " stroke-name="b_2445_p1b2444" stroke-occlusion=" True True True " />
            <path fill="none" stroke-width="1.0" stroke-linecap="round" stroke-opacity="1.0" stroke="rgb(0, 0, 0)" stroke-linejoin="round" d=" M 397.375, 104.676 397.363, 105.564 397.349, 106.663 397.237, 115.266 397.187, 119.093 397.186, 119.164 397.056, 129.163 396.925, 139.162 396.795, 149.162 396.664, 159.161 396.534, 169.160 396.403, 179.159 396.278, 188.739 " stroke-name="b_2445_p1b2444" stroke-occlusion=" True True True True True True True True True True True True True " />
            <path fill="none" stroke-width="1.0" stroke-linecap="round" stroke-opacity="1.0" stroke="rgb(0, 0, 0)" stroke-linejoin="round" d=" M 405.366, 104.353 405.341, 106.321 405.293, 110.001 405.219, 115.738 405.219, 115.744 405.151, 121.004 405.149, 121.109 405.020, 131.109 404.890, 141.108 404.761, 151.107 404.631, 161.106 404.502, 171.105 404.372, 181.104 404.291, 187.418 " stroke-name="b_2445_p1b2444" stroke-occlusion=" True True True True True True True True True True True True True True " />
            <path fill="none" stroke-width="1.0" stroke-linecap="round" stroke-opacity="1.0" stroke="rgb(0, 0, 0)" stroke-linejoin="round" d=" M 457.520, 341.181 456.966, 341.191 454.672, 341.232 454.457, 341.236 " stroke-name="b_2445_p1b2444" stroke-occlusion=" True True True True " />
            <path fill="none" stroke-width="1.0" stroke-linecap="round" stroke-opacity="1.0" stroke="rgb(0, 0, 0)" stroke-linejoin="round" d=" M 390.789, 190.107 390.920, 180.108 391.052, 170.108 391.183, 160.109 391.314, 150.110 391.445, 140.111 391.576, 130.112 391.707, 120.113 391.737, 117.833 391.737, 117.786 391.746, 117.126 391.862, 108.302 391.870, 107.646 391.900, 105.367 " stroke-name="b_2445_p1b2444" stroke-occlusion=" True True True True True True True True True True True True True True " />
            <path fill="none" stroke-width="1.0" stroke-linecap="round" stroke-opacity="1.0" stroke="rgb(0, 0, 0)" stroke-linejoin="round" d=" M 362.826, 331.708 363.789, 332.134 364.973, 332.657 365.326, 332.813 365.573, 332.922 " stroke-name="b_2445_p1b2444" stroke-occlusion=" True True True True True " />
            <path fill="none" stroke-width="1.0" stroke-linecap="round" stroke-opacity="1.0" stroke="rgb(0, 0, 0)" stroke-linejoin="round" d=" M 405.264, 92.356 405.302, 100.508 405.320, 104.338 " stroke-name="b_2445_p1b2444" stroke-occlusion=" True True True " />
            <path fill="none" stroke-width="1.0" stroke-linecap="round" stroke-opacity="1.0" stroke="rgb(0, 0, 0)" stroke-linejoin="round" d=" M 400.216, 93.711 399.944, 103.708 399.938, 103.924 399.908, 105.023 " stroke-name="b_2445_p1b2444" stroke-occlusion=" True True True True " />
            <path fill="none" stroke-width="1.0" stroke-linecap="round" stroke-opacity="1.0" stroke="rgb(0, 0, 0)" stroke-linejoin="round" d=" M 412.145, 188.575 412.234, 178.575 412.323, 168.576 412.413, 158.576 412.502, 148.577 412.591, 138.577 412.666, 130.246 412.669, 129.898 412.758, 119.899 412.848, 109.899 412.869, 107.541 412.876, 106.658 412.904, 103.633 412.905, 103.476 412.906, 103.378 412.921, 101.666 " stroke-name="b_2445_p1b2444" stroke-occlusion=" True True True True True True True True True True True True True True True True " />
            <path fill="none" stroke-width="1.0" stroke-linecap="round" stroke-opacity="1.0" stroke="rgb(0, 0, 0)" stroke-linejoin="round" d=" M 496.508, 362.826 496.929, 355.817 487.319, 353.053 486.387, 352.785 478.555, 350.532 471.519, 351.215 470.926, 357.708 480.392, 360.932 488.570, 363.717 " stroke-name="b_2444_p1b2443" stroke-occlusion=" True True True True True True True True True " />
            <path fill="none" stroke-width="1.0" stroke-linecap="round" stroke-opacity="1.0" stroke="rgb(0, 0, 0)" stroke-linejoin="round" d=" M 496.508, 362.826 488.570, 363.717 488.613, 360.224 488.662, 356.234 " stroke-name="b_2444_p1b2443" stroke-occlusion=" True True True True " />
            <path fill="none" stroke-width="1.0" stroke-linecap="round" stroke-opacity="1.0" stroke="rgb(0, 0, 0)" stroke-linejoin="round" d=" M 514.017, 345.453 511.923, 345.682 506.730, 346.248 506.571, 348.571 506.350, 351.789 " stroke-name="b_2444_p1b2443" stroke-occlusion=" True True True True True " />
            <path fill="none" stroke-width="1.0" stroke-linecap="round" stroke-opacity="1.0" stroke="rgb(0, 0, 0)" stroke-linejoin="round" d=" M 506.730, 346.248 515.447, 348.788 " stroke-name="b_2444_p1b2443" stroke-occlusion=" True True " />
            <path fill="none" stroke-width="1.0" stroke-linecap="round" stroke-opacity="1.0" stroke="rgb(0, 0, 0)" stroke-linejoin="round" d=" M 506.350, 351.789 515.536, 354.251 " stroke-name="b_2444_p1b2443" stroke-occlusion=" True True " />
            <path fill="none" stroke-width="1.0" stroke-linecap="round" stroke-opacity="1.0" stroke="rgb(0, 0, 0)" stroke-linejoin="round" d=" M 496.929, 355.817 488.662, 356.234 479.065, 353.424 471.519, 351.215 " stroke-name="b_2444_p1b2443" stroke-occlusion=" True True True True " />
            <path fill="none" stroke-width="1.0" stroke-linecap="round" stroke-opacity="1.0" stroke="rgb(0, 0, 0)" stroke-linejoin="round" d=" M 506.571, 348.571 501.583, 347.151 491.965, 344.412 486.524, 342.863 476.593, 344.036 471.462, 344.642 461.531, 345.815 457.398, 346.303 456.777, 346.376 454.475, 346.648 444.544, 347.821 434.613, 348.994 432.820, 349.206 432.810, 353.641 432.788, 363.640 432.780, 366.957 432.758, 376.957 432.751, 379.984 432.335, 388.294 " stroke-name="b_2444_p1b2443" stroke-occlusion=" True True True True True True True True True True True True True True True True True True True " />
            <path fill="none" stroke-width="1.0" stroke-linecap="round" stroke-opacity="1.0" stroke="rgb(0, 0, 0)" stroke-linejoin="round" d=" M 533.933, 141.075 524.390, 144.065 514.847, 147.054 505.305, 150.044 503.679, 150.553 503.675, 150.946 503.646, 153.668 503.618, 156.246 503.616, 156.407 503.592, 158.661 503.486, 168.661 503.466, 170.489 503.360, 180.488 503.253, 190.488 503.146, 200.487 503.040, 210.487 502.933, 220.486 502.827, 230.486 502.720, 240.485 502.613, 250.484 502.507, 260.484 502.400, 270.483 502.294, 280.483 502.187, 290.482 502.080, 300.482 501.974, 310.481 501.867, 320.480 501.808, 326.022 501.701, 336.022 501.694, 336.730 501.587, 346.730 501.583, 347.151 " stroke-name="b_2444_p1b2443" stroke-occlusion=" True True True True True True True True True True True True True True True True True True True True True True True True True True True True True True True True " />
            <path fill="none" stroke-width="1.0" stroke-linecap="round" stroke-opacity="1.0" stroke="rgb(0, 0, 0)" stroke-linejoin="round" d=" M 521.347, 381.172 511.941, 377.776 509.678, 376.959 501.488, 374.002 492.083, 370.605 482.677, 367.209 473.272, 363.813 463.866, 360.416 457.099, 357.973 456.524, 357.765 454.181, 356.919 444.775, 353.523 435.370, 350.127 432.820, 349.206 " stroke-name="b_2444_p1b2443" stroke-occlusion=" True True True True True True True True True True True True True True " />
            <path fill="none" stroke-width="1.0" stroke-linecap="round" stroke-opacity="1.0" stroke="rgb(0, 0, 0)" stroke-linejoin="round" d=" M 275.904, 213.364 275.724, 210.973 265.742, 210.362 256.818, 209.816 251.425, 212.951 251.350, 214.124 " stroke-name="b_2421_p1b2420" stroke-occlusion=" True True True True True True " />
            <path fill="none" stroke-width="1.0" stroke-linecap="round" stroke-opacity="1.0" stroke="rgb(0, 0, 0)" stroke-linejoin="round" d=" M 249.160, 294.749 249.259, 284.750 249.359, 274.750 249.458, 264.751 249.558, 254.751 249.592, 251.320 " stroke-name="b_2421_p1b2420" stroke-occlusion=" True True True True True True " />
            <path fill="none" stroke-width="1.0" stroke-linecap="round" stroke-opacity="1.0" stroke="rgb(0, 0, 0)" stroke-linejoin="round" d=" M 244.599, 294.823 249.160, 294.749 250.547, 295.556 " stroke-name="b_2421_p1b2420" stroke-occlusion=" True True True " />
            <path fill="none" stroke-width="1.0" stroke-linecap="round" stroke-opacity="1.0" stroke="rgb(0, 0, 0)" stroke-linejoin="round" d=" M 273.181, 231.679 269.959, 230.917 263.391, 231.392 263.151, 241.389 262.907, 251.547 " stroke-name="b_2421_p1b2420" stroke-occlusion=" True True True True True " />
            <path fill="none" stroke-width="1.0" stroke-linecap="round" stroke-opacity="1.0" stroke="rgb(0, 0, 0)" stroke-linejoin="round" d=" M 242.042, 319.231 242.218, 309.233 242.395, 299.234 242.444, 296.462 242.620, 286.463 242.796, 276.465 242.972, 266.466 243.149, 256.468 243.229, 251.898 243.229, 251.880 243.230, 251.868 243.237, 251.427 243.238, 251.410 243.238, 251.384 243.451, 251.332 244.143, 251.166 244.846, 251.089 245.074, 251.064 247.284, 251.189 247.320, 251.191 249.592, 251.320 250.986, 251.358 252.038, 251.458 255.356, 251.773 256.774, 251.661 262.907, 251.547 265.538, 251.600 " stroke-name="b_2421_p1b2420" stroke-occlusion=" True True True True True True True True True True True True True True True True True True True True True True True True True True True " />
            <path fill="none" stroke-width="1.0" stroke-linecap="round" stroke-opacity="1.0" stroke="rgb(0, 0, 0)" stroke-linejoin="round" d=" M 280.467, 251.945 280.468, 251.894 280.469, 251.842 280.614, 241.843 280.731, 233.782 280.736, 233.431 280.740, 233.186 280.741, 233.121 280.745, 232.812 280.330, 232.780 280.312, 232.779 278.892, 232.670 277.306, 232.548 277.259, 232.544 276.423, 232.480 276.455, 224.083 276.459, 222.797 276.465, 221.224 273.372, 220.983 272.865, 220.954 263.048, 220.388 260.244, 220.424 258.678, 220.996 " stroke-name="b_2421_p1b2420" stroke-occlusion=" True True True True True True True True True True True True True True True True True True True True True True True " />
            <path fill="none" stroke-width="1.0" stroke-linecap="round" stroke-opacity="1.0" stroke="rgb(0, 0, 0)" stroke-linejoin="round" d=" M 271.438, 251.926 273.048, 251.968 " stroke-name="b_2421_p1b2420" stroke-occlusion=" True True " />
            <path fill="none" stroke-width="1.0" stroke-linecap="round" stroke-opacity="1.0" stroke="rgb(0, 0, 0)" stroke-linejoin="round" d=" M 241.134, 251.466 239.124, 251.519 239.024, 261.519 238.923, 271.518 238.822, 281.518 238.724, 291.293 238.721, 291.597 " stroke-name="b_2421_p1b2420" stroke-occlusion=" True True True True True True True " />
            <path fill="none" stroke-width="1.0" stroke-linecap="round" stroke-opacity="1.0" stroke="rgb(0, 0, 0)" stroke-linejoin="round" d=" M 238.721, 291.597 238.213, 291.274 " stroke-name="b_2421_p1b2420" stroke-occlusion=" True True " />
            <path fill="none" stroke-width="1.0" stroke-linecap="round" stroke-opacity="1.0" stroke="rgb(0, 0, 0)" stroke-linejoin="round" d=" M 238.724, 291.293 238.213, 291.274 237.991, 301.272 237.974, 302.072 237.809, 312.071 237.754, 315.368 " stroke-name="b_2421_p1b2420" stroke-occlusion=" True True True True True True " />
            <path fill="none" stroke-width="1.0" stroke-linecap="round" stroke-opacity="1.0" stroke="rgb(0, 0, 0)" stroke-linejoin="round" d=" M 247.871, 295.951 245.988, 295.352 244.599, 294.823 244.707, 284.824 244.816, 274.824 244.924, 264.825 245.033, 254.825 245.064, 251.958 245.064, 251.947 245.071, 251.314 245.074, 251.064 244.846, 251.104 243.238, 251.384 " stroke-name="b_2421_p1b2420" stroke-occlusion=" True True True True True True True True True True True True True " />
            <path fill="none" stroke-width="1.0" stroke-linecap="round" stroke-opacity="1.0" stroke="rgb(0, 0, 0)" stroke-linejoin="round" d=" M 265.518, 251.822 264.767, 251.808 262.729, 251.771 256.774, 251.661 256.773, 251.779 256.638, 261.779 256.503, 271.778 256.368, 281.777 256.233, 291.776 256.181, 295.684 " stroke-name="b_2421_p1b2420" stroke-occlusion=" True True True True True True True True True True " />
            <path fill="none" stroke-width="1.0" stroke-linecap="round" stroke-opacity="1.0" stroke="rgb(0, 0, 0)" stroke-linejoin="round" d=" M 281.445, 295.345 281.451, 294.659 281.470, 292.685 281.471, 292.510 281.474, 292.197 281.476, 291.989 281.571, 281.989 281.665, 271.990 281.759, 261.990 281.850, 252.381 281.850, 252.338 281.853, 252.001 281.853, 251.997 281.326, 251.977 280.467, 251.945 278.781, 251.880 278.611, 251.874 273.590, 251.683 273.586, 251.969 273.586, 251.995 273.585, 252.032 273.510, 258.123 273.387, 268.122 273.264, 278.121 273.141, 288.120 273.018, 298.120 272.895, 308.119 272.772, 318.118 272.715, 322.769 272.668, 326.572 " stroke-name="b_2421_p1b2420" stroke-occlusion=" True True True True True True True True True True True True True True True True True True True True True True True True True True True True True True " />
            <path fill="none" stroke-width="1.0" stroke-linecap="round" stroke-opacity="1.0" stroke="rgb(0, 0, 0)" stroke-linejoin="round" d=" M 288.764, 329.071 288.888, 327.639 289.093, 325.262 289.114, 323.038 289.210, 313.038 289.306, 303.039 289.382, 295.148 287.735, 294.497 " stroke-name="b_2421_p1b2420" stroke-occlusion=" True True True True True True True True " />
            <path fill="none" stroke-width="1.0" stroke-linecap="round" stroke-opacity="1.0" stroke="rgb(0, 0, 0)" stroke-linejoin="round" d=" M 285.777, 330.550 285.689, 325.609 285.688, 325.578 285.713, 322.983 285.810, 312.983 285.907, 302.984 285.984, 295.129 285.805, 294.994 " stroke-name="b_2421_p1b2420" stroke-occlusion=" True True True True True True True True " />
            <path fill="none" stroke-width="1.0" stroke-linecap="round" stroke-opacity="1.0" stroke="rgb(0, 0, 0)" stroke-linejoin="round" d=" M 247.918, 231.918 247.420, 231.931 244.336, 232.013 241.391, 232.091 241.258, 242.090 241.134, 251.466 241.134, 251.502 241.131, 251.707 240.999, 261.707 240.900, 269.223 240.767, 279.222 240.635, 289.222 240.607, 291.349 240.604, 291.545 240.472, 301.544 240.340, 311.543 240.259, 317.625 " stroke-name="b_2421_p1b2420" stroke-occlusion=" True True True True True True True True True True True True True True True True True " />
            <path fill="none" stroke-width="1.0" stroke-linecap="round" stroke-opacity="1.0" stroke="rgb(0, 0, 0)" stroke-linejoin="round" d=" M 259.987, 232.122 258.460, 232.007 255.479, 231.780 253.984, 232.168 253.202, 232.171 249.864, 232.185 248.759, 232.415 " stroke-name="b_2421_p1b2420" stroke-occlusion=" True True True True True True True " />
            <path fill="none" stroke-width="1.0" stroke-linecap="round" stroke-opacity="1.0" stroke="rgb(0, 0, 0)" stroke-linejoin="round" d=" M 264.481, 321.892 264.629, 311.894 264.777, 301.895 264.925, 291.896 265.073, 281.897 265.221, 271.898 265.369, 261.899 265.518, 251.822 264.768, 251.773 " stroke-name="b_2421_p1b2420" stroke-occlusion=" True True True True True True True True True " />
            <path fill="none" stroke-width="1.0" stroke-linecap="round" stroke-opacity="1.0" stroke="rgb(0, 0, 0)" stroke-linejoin="round" d=" M 264.768, 251.773 265.538, 251.600 265.438, 261.599 265.339, 271.599 265.239, 281.598 265.140, 291.598 265.040, 301.597 264.941, 311.597 264.836, 322.141 " stroke-name="b_2421_p1b2420" stroke-occlusion=" True True True True True True True True True " />
            <path fill="none" stroke-width="1.0" stroke-linecap="round" stroke-opacity="1.0" stroke="rgb(0, 0, 0)" stroke-linejoin="round" d=" M 254.771, 295.144 250.547, 295.556 250.646, 285.556 250.745, 275.557 250.845, 265.557 250.944, 255.558 250.985, 251.429 250.986, 251.358 " stroke-name="b_2421_p1b2420" stroke-occlusion=" True True True True True True True True " />
            <path fill="none" stroke-width="1.0" stroke-linecap="round" stroke-opacity="1.0" stroke="rgb(0, 0, 0)" stroke-linejoin="round" d=" M 247.516, 317.746 247.679, 307.747 247.842, 297.749 247.871, 295.951 256.181, 295.684 254.771, 295.144 254.906, 285.145 255.041, 275.146 255.175, 265.147 255.310, 255.148 255.356, 251.773 " stroke-name="b_2421_p1b2420" stroke-occlusion=" True True True True True True True True True True True " />
            <path fill="none" stroke-width="1.0" stroke-linecap="round" stroke-opacity="1.0" stroke="rgb(0, 0, 0)" stroke-linejoin="round" d=" M 286.138, 293.731 286.148, 292.753 286.244, 282.754 286.340, 272.754 286.436, 262.754 286.533, 252.755 286.541, 251.852 282.984, 251.795 282.870, 251.794 283.022, 245.222 283.254, 235.225 283.302, 233.168 281.609, 233.137 280.741, 233.121 " stroke-name="b_2421_p1b2420" stroke-occlusion=" True True True True True True True True True True True True True True " />
            <path fill="none" stroke-width="1.0" stroke-linecap="round" stroke-opacity="1.0" stroke="rgb(0, 0, 0)" stroke-linejoin="round" d=" M 290.905, 328.918 291.144, 324.105 291.154, 323.071 291.250, 313.072 291.346, 303.072 291.429, 294.512 286.148, 292.753 " stroke-name="b_2421_p1b2420" stroke-occlusion=" True True True True True True True " />
            <path fill="none" stroke-width="1.0" stroke-linecap="round" stroke-opacity="1.0" stroke="rgb(0, 0, 0)" stroke-linejoin="round" d=" M 285.805, 294.994 287.729, 295.077 289.382, 295.148 " stroke-name="b_2421_p1b2420" stroke-occlusion=" True True True " />
            <path fill="none" stroke-width="1.0" stroke-linecap="round" stroke-opacity="1.0" stroke="rgb(0, 0, 0)" stroke-linejoin="round" d=" M 287.735, 294.497 291.429, 294.512 " stroke-name="b_2421_p1b2420" stroke-occlusion=" True True " />
            <path fill="none" stroke-width="1.0" stroke-linecap="round" stroke-opacity="1.0" stroke="rgb(0, 0, 0)" stroke-linejoin="round" d=" M 255.479, 231.780 255.476, 232.251 255.415, 242.251 255.356, 251.773 254.071, 251.573 " stroke-name="b_2421_p1b2420" stroke-occlusion=" True True True True True " />
            <path fill="none" stroke-width="1.0" stroke-linecap="round" stroke-opacity="1.0" stroke="rgb(0, 0, 0)" stroke-linejoin="round" d=" M 254.518, 215.094 254.508, 215.403 254.508, 215.404 254.501, 215.621 254.189, 225.616 253.984, 232.168 254.029, 242.168 254.071, 251.573 252.038, 251.458 " stroke-name="b_2421_p1b2420" stroke-occlusion=" True True True True True True True True True " />
            <path fill="none" stroke-width="1.0" stroke-linecap="round" stroke-opacity="1.0" stroke="rgb(0, 0, 0)" stroke-linejoin="round" d=" M 278.892, 232.670 278.885, 223.560 278.885, 223.372 278.884, 222.559 278.880, 216.269 276.989, 216.177 271.168, 215.893 261.179, 215.405 257.983, 215.248 255.612, 215.133 254.518, 215.094 253.890, 215.360 253.876, 215.366 253.872, 215.367 253.134, 215.680 249.128, 217.377 247.562, 218.041 247.525, 221.633 " stroke-name="b_2421_p1b2420" stroke-occlusion=" True True True True True True True True True True True True True True True True True True " />
            <path fill="none" stroke-width="1.0" stroke-linecap="round" stroke-opacity="1.0" stroke="rgb(0, 0, 0)" stroke-linejoin="round" d=" M 244.336, 232.013 244.517, 222.827 247.525, 221.633 248.113, 221.400 248.983, 221.054 253.080, 221.003 253.190, 231.002 253.202, 232.171 " stroke-name="b_2421_p1b2420" stroke-occlusion=" True True True True True True True True " />
            <path fill="none" stroke-width="1.0" stroke-linecap="round" stroke-opacity="1.0" stroke="rgb(0, 0, 0)" stroke-linejoin="round" d=" M 284.189, 294.613 284.203, 293.857 284.216, 293.096 284.233, 292.116 284.410, 282.117 284.587, 272.119 284.763, 262.120 284.936, 252.332 283.618, 252.335 282.981, 252.336 282.428, 252.337 281.850, 252.338 " stroke-name="b_2421_p1b2420" stroke-occlusion=" True True True True True True True True True True True True " />
            <path fill="none" stroke-width="1.0" stroke-linecap="round" stroke-opacity="1.0" stroke="rgb(0, 0, 0)" stroke-linejoin="round" d=" M 281.609, 233.137 281.645, 223.137 281.647, 222.640 278.884, 222.559 " stroke-name="b_2421_p1b2420" stroke-occlusion=" True True True True " />
            <path fill="none" stroke-width="1.0" stroke-linecap="round" stroke-opacity="1.0" stroke="rgb(0, 0, 0)" stroke-linejoin="round" d=" M 259.987, 232.122 260.206, 222.125 260.230, 221.064 260.244, 220.424 " stroke-name="b_2421_p1b2420" stroke-occlusion=" True True True True " />
            <path fill="none" stroke-width="1.0" stroke-linecap="round" stroke-opacity="1.0" stroke="rgb(0, 0, 0)" stroke-linejoin="round" d=" M 249.592, 251.320 249.734, 241.321 249.860, 232.476 249.864, 232.185 " stroke-name="b_2421_p1b2420" stroke-occlusion=" True True True True " />
            <path fill="none" stroke-width="1.0" stroke-linecap="round" stroke-opacity="1.0" stroke="rgb(0, 0, 0)" stroke-linejoin="round" d=" M 255.612, 215.133 255.596, 213.240 255.588, 212.175 " stroke-name="b_2421_p1b2420" stroke-occlusion=" True True True " />
            <path fill="none" stroke-width="1.0" stroke-linecap="round" stroke-opacity="1.0" stroke="rgb(0, 0, 0)" stroke-linejoin="round" d=" M 276.989, 216.177 277.128, 213.436 275.904, 213.364 271.252, 213.092 261.269, 212.507 256.996, 212.257 255.588, 212.175 253.608, 213.085 251.350, 214.124 249.239, 215.095 249.128, 217.377 " stroke-name="b_2421_p1b2420" stroke-occlusion=" True True True True True True True True True True True " />
            <path fill="none" stroke-width="1.0" stroke-linecap="round" stroke-opacity="1.0" stroke="rgb(0, 0, 0)" stroke-linejoin="round" d=" M 281.445, 295.345 284.107, 295.218 285.802, 295.138 285.984, 295.129 " stroke-name="b_2421_p1b2420" stroke-occlusion=" True True True True " />
            <path fill="none" stroke-width="1.0" stroke-linecap="round" stroke-opacity="1.0" stroke="rgb(0, 0, 0)" stroke-linejoin="round" d=" M 254.518, 215.094 255.584, 215.145 256.537, 215.191 257.986, 215.261 267.974, 215.743 271.167, 215.897 276.989, 216.178 278.880, 216.269 " stroke-name="b_2421_p1b2420" stroke-occlusion=" True True True True True True True True " />
            <path fill="none" stroke-width="1.0" stroke-linecap="round" stroke-opacity="1.0" stroke="rgb(0, 0, 0)" stroke-linejoin="round" d=" M 248.983, 221.054 248.945, 223.008 248.759, 232.415 " stroke-name="b_2421_p1b2420" stroke-occlusion=" True True True " />
            <path fill="none" stroke-width="1.0" stroke-linecap="round" stroke-opacity="1.0" stroke="rgb(0, 0, 0)" stroke-linejoin="round" d=" M 356.587, 312.536 356.657, 311.151 356.712, 310.052 356.725, 309.805 353.158, 308.791 353.230, 306.948 353.032, 306.901 352.790, 306.842 349.228, 305.984 343.248, 306.345 343.243, 307.236 343.225, 310.487 " stroke-name="b_2420_p1b2419" stroke-occlusion=" True True True True True True True True True True True True " />
            <path fill="none" stroke-width="1.0" stroke-linecap="round" stroke-opacity="1.0" stroke="rgb(0, 0, 0)" stroke-linejoin="round" d=" M 347.151, 307.323 346.300, 307.110 343.248, 306.345 " stroke-name="b_2420_p1b2419" stroke-occlusion=" True True True " />
            <path fill="none" stroke-width="1.0" stroke-linecap="round" stroke-opacity="1.0" stroke="rgb(0, 0, 0)" stroke-linejoin="round" d=" M 347.264, 308.855 347.151, 307.323 353.033, 306.960 353.230, 306.948 " stroke-name="b_2420_p1b2419" stroke-occlusion=" True True True True " />
            <path fill="none" stroke-width="1.0" stroke-linecap="round" stroke-opacity="1.0" stroke="rgb(0, 0, 0)" stroke-linejoin="round" d=" M 350.657, 312.803 350.718, 310.717 350.742, 309.878 " stroke-name="b_2420_p1b2419" stroke-occlusion=" True True True " />
            <path fill="none" stroke-width="1.0" stroke-linecap="round" stroke-opacity="1.0" stroke="rgb(0, 0, 0)" stroke-linejoin="round" d=" M 356.725, 309.805 353.066, 309.850 350.742, 309.878 347.264, 308.855 353.054, 308.792 353.158, 308.791 " stroke-name="b_2420_p1b2419" stroke-occlusion=" True True True True True True " />
            <path fill="none" stroke-width="1.0" stroke-linecap="round" stroke-opacity="1.0" stroke="rgb(0, 0, 0)" stroke-linejoin="round" d=" M 343.225, 310.487 350.657, 312.803 356.587, 312.536 " stroke-name="b_2420_p1b2419" stroke-occlusion=" True True True " />
            <path fill="none" stroke-width="1.0" stroke-linecap="round" stroke-opacity="1.0" stroke="rgb(0, 0, 0)" stroke-linejoin="round" d=" M 365.883, 307.660 361.529, 306.482 358.971, 306.588 " stroke-name="b_2420_p1b2419" stroke-occlusion=" True True True " />
            <path fill="none" stroke-width="1.0" stroke-linecap="round" stroke-opacity="1.0" stroke="rgb(0, 0, 0)" stroke-linejoin="round" d=" M 356.950, 311.254 356.657, 311.151 " stroke-name="b_2420_p1b2419" stroke-occlusion=" True True " />
            <path fill="none" stroke-width="1.0" stroke-linecap="round" stroke-opacity="1.0" stroke="rgb(0, 0, 0)" stroke-linejoin="round" d=" M 362.129, 310.966 362.330, 307.487 361.527, 307.272 358.971, 306.588 358.124, 306.361 353.029, 306.613 353.032, 306.832 353.032, 306.901 " stroke-name="b_2420_p1b2419" stroke-occlusion=" True True True True True True True True " />
            <path fill="none" stroke-width="1.0" stroke-linecap="round" stroke-opacity="1.0" stroke="rgb(0, 0, 0)" stroke-linejoin="round" d=" M 356.853, 307.739 353.682, 306.806 353.029, 306.613 " stroke-name="b_2420_p1b2419" stroke-occlusion=" True True True " />
            <path fill="none" stroke-width="1.0" stroke-linecap="round" stroke-opacity="1.0" stroke="rgb(0, 0, 0)" stroke-linejoin="round" d=" M 362.129, 310.966 356.950, 311.254 356.917, 310.061 356.853, 307.739 362.330, 307.487 " stroke-name="b_2420_p1b2419" stroke-occlusion=" True True True True True " />
            <path fill="none" stroke-width="1.0" stroke-linecap="round" stroke-opacity="1.0" stroke="rgb(0, 0, 0)" stroke-linejoin="round" d=" M 356.559, 316.855 356.496, 323.983 356.413, 333.446 356.328, 342.985 356.030, 348.858 " stroke-name="b_2420_p1b2419" stroke-occlusion=" True True True True True " />
            <path fill="none" stroke-width="1.0" stroke-linecap="round" stroke-opacity="1.0" stroke="rgb(0, 0, 0)" stroke-linejoin="round" d=" M 343.243, 307.236 333.251, 307.647 329.894, 307.786 329.902, 317.786 329.907, 323.649 329.912, 330.014 329.473, 335.357 " stroke-name="b_2420_p1b2419" stroke-occlusion=" True True True True True True True " />
            <path fill="none" stroke-width="1.0" stroke-linecap="round" stroke-opacity="1.0" stroke="rgb(0, 0, 0)" stroke-linejoin="round" d=" M 329.894, 307.786 339.361, 311.006 348.828, 314.226 356.559, 316.855 365.777, 316.274 " stroke-name="b_2420_p1b2419" stroke-occlusion=" True True True True True " />
            <path fill="none" stroke-width="1.0" stroke-linecap="round" stroke-opacity="1.0" stroke="rgb(0, 0, 0)" stroke-linejoin="round" d=" M 503.675, 150.946 494.129, 153.926 484.583, 156.905 475.037, 159.884 465.491, 162.864 460.896, 164.298 460.787, 174.297 460.678, 184.297 460.569, 194.296 460.461, 204.295 460.352, 214.295 460.243, 224.294 460.134, 234.294 460.025, 244.293 459.916, 254.292 459.808, 264.292 459.699, 274.291 459.590, 284.291 459.481, 294.290 459.372, 304.289 459.263, 314.289 459.142, 325.472 459.038, 335.008 458.955, 340.918 " stroke-name="b_2385_p1b2384" stroke-occlusion=" True True True True True True True True True True True True True True True True True True True True True True True True " />
            <path fill="none" stroke-width="1.0" stroke-linecap="round" stroke-opacity="1.0" stroke="rgb(0, 0, 0)" stroke-linejoin="round" d=" M -0.042, 96.906 0.111, 86.907 0.265, 76.909 0.418, 66.910 0.571, 56.911 0.644, 52.170 " stroke-name="b_2514_p1b2513" stroke-occlusion=" True True True True True True " />
            <path fill="none" stroke-width="1.0" stroke-linecap="round" stroke-opacity="1.0" stroke="rgb(0, 0, 0)" stroke-linejoin="round" d=" M 3.186, 20.302 2.956, 10.305 2.726, 0.308 2.496, -9.690 2.418, -13.072 " stroke-name="b_2514_p1b2513" stroke-occlusion=" True True True True True " />
            <path fill="none" stroke-width="1.0" stroke-linecap="round" stroke-opacity="1.0" stroke="rgb(0, 0, 0)" stroke-linejoin="round" d=" M 40.948, 72.392 35.079, 64.296 29.210, 56.199 28.087, 54.650 22.217, 46.554 16.348, 38.458 10.479, 30.361 4.609, 22.265 3.186, 20.302 -2.683, 12.206 -7.433, 5.654 " stroke-name="b_2514_p1b2513" stroke-occlusion=" True True True True True True True True True True True " />
            <path fill="none" stroke-width="1.0" stroke-linecap="round" stroke-opacity="1.0" stroke="rgb(0, 0, 0)" stroke-linejoin="round" d=" M 241.134, 251.502 239.124, 251.519 " stroke-name="b_2421_p1b2420" stroke-occlusion=" True True " />
            <path fill="none" stroke-width="1.0" stroke-linecap="round" stroke-opacity="1.0" stroke="rgb(0, 0, 0)" stroke-linejoin="round" d=" M 240.900, 269.223 240.723, 279.222 240.546, 289.220 240.509, 291.349 240.505, 291.548 240.329, 301.546 240.152, 311.545 240.048, 317.434 " stroke-name="b_2421_p1b2420" stroke-occlusion=" True True True True True True True True " />
            <path fill="none" stroke-width="1.0" stroke-linecap="round" stroke-opacity="1.0" stroke="rgb(0, 0, 0)" stroke-linejoin="round" d=" M 256.996, 212.257 256.818, 209.816 " stroke-name="b_2421_p1b2420" stroke-occlusion=" True True " />
            <path fill="none" stroke-width="1.0" stroke-linecap="round" stroke-opacity="1.0" stroke="rgb(0, 0, 0)" stroke-linejoin="round" d=" M 258.460, 232.007 258.658, 222.009 258.678, 220.996 " stroke-name="b_2421_p1b2420" stroke-occlusion=" True True True " />
            <path fill="none" stroke-width="1.0" stroke-linecap="round" stroke-opacity="1.0" stroke="rgb(0, 0, 0)" stroke-linejoin="round" d=" M 269.081, 325.116 269.104, 322.706 269.197, 312.706 269.290, 302.706 269.384, 292.707 269.477, 282.707 269.570, 272.708 269.663, 262.708 269.756, 252.709 269.850, 242.709 269.943, 232.710 269.953, 231.585 269.959, 230.917 " stroke-name="b_2421_p1b2420" stroke-occlusion=" True True True True True True True True True True True True True " />
            <path fill="none" stroke-width="1.0" stroke-linecap="round" stroke-opacity="1.0" stroke="rgb(0, 0, 0)" stroke-linejoin="round" d=" M 270.351, 326.006 270.399, 322.728 270.546, 312.730 270.693, 302.731 270.840, 292.732 270.986, 282.733 271.133, 272.734 271.280, 262.735 271.426, 252.736 271.438, 251.926 273.585, 252.032 " stroke-name="b_2421_p1b2420" stroke-occlusion=" True True True True True True True True True True True " />
            <path fill="none" stroke-width="1.0" stroke-linecap="round" stroke-opacity="1.0" stroke="rgb(0, 0, 0)" stroke-linejoin="round" d=" M 272.384, 327.430 272.358, 326.175 272.416, 322.764 272.585, 312.766 272.755, 302.767 272.924, 292.768 273.093, 282.770 273.262, 272.771 273.432, 262.773 273.510, 258.123 " stroke-name="b_2421_p1b2420" stroke-occlusion=" True True True True True True True True True True " />
            <path fill="none" stroke-width="1.0" stroke-linecap="round" stroke-opacity="1.0" stroke="rgb(0, 0, 0)" stroke-linejoin="round" d=" M 272.690, 327.645 272.668, 326.572 " stroke-name="b_2421_p1b2420" stroke-occlusion=" True True " />
            <path fill="none" stroke-width="1.0" stroke-linecap="round" stroke-opacity="1.0" stroke="rgb(0, 0, 0)" stroke-linejoin="round" d=" M 273.586, 251.969 273.048, 251.968 " stroke-name="b_2421_p1b2420" stroke-occlusion=" True True " />
            <path fill="none" stroke-width="1.0" stroke-linecap="round" stroke-opacity="1.0" stroke="rgb(0, 0, 0)" stroke-linejoin="round" d=" M 282.984, 251.795 283.022, 245.222 " stroke-name="b_2421_p1b2420" stroke-occlusion=" True True " />
            <path fill="none" stroke-width="1.0" stroke-linecap="round" stroke-opacity="1.0" stroke="rgb(0, 0, 0)" stroke-linejoin="round" d=" M 281.451, 294.659 284.113, 294.614 284.189, 294.613 " stroke-name="b_2421_p1b2420" stroke-occlusion=" True True True " />
            <path fill="none" stroke-width="1.0" stroke-linecap="round" stroke-opacity="1.0" stroke="rgb(0, 0, 0)" stroke-linejoin="round" d=" M 284.203, 293.857 286.138, 293.731 " stroke-name="b_2421_p1b2420" stroke-occlusion=" True True " />
            <path fill="none" stroke-width="1.0" stroke-linecap="round" stroke-opacity="1.0" stroke="rgb(0, 0, 0)" stroke-linejoin="round" d=" M 297.547, 421.778 307.393, 420.027 307.835, 419.948 317.680, 418.197 327.526, 416.446 328.873, 416.207 332.010, 415.649 334.012, 415.293 " stroke-name="b_2446_p1b2445" stroke-occlusion=" True True True True True True True True " />
            <path fill="none" stroke-width="1.0" stroke-linecap="round" stroke-opacity="1.0" stroke="rgb(0, 0, 0)" stroke-linejoin="round" d=" M 353.032, 306.832 352.790, 306.842 " stroke-name="b_2420_p1b2419" stroke-occlusion=" True True " />
            <path fill="none" stroke-width="1.0" stroke-linecap="round" stroke-opacity="1.0" stroke="rgb(0, 0, 0)" stroke-linejoin="round" d=" M 392.002, 105.399 391.984, 103.967 " stroke-name="b_2445_p1b2444" stroke-occlusion=" True True " />
            <path fill="none" stroke-width="1.0" stroke-linecap="round" stroke-opacity="1.0" stroke="rgb(0, 0, 0)" stroke-linejoin="round" d=" M 393.812, 189.266 393.943, 179.266 394.074, 169.267 394.204, 159.268 394.335, 149.269 394.466, 139.270 394.597, 129.271 394.737, 118.566 394.737, 118.505 394.759, 116.886 394.872, 108.187 394.886, 107.142 394.897, 106.297 " stroke-name="b_2445_p1b2444" stroke-occlusion=" True True True True True True True True True True True True True " />
            <path fill="none" stroke-width="1.0" stroke-linecap="round" stroke-opacity="1.0" stroke="rgb(0, 0, 0)" stroke-linejoin="round" d=" M 394.864, 106.286 394.935, 104.887 " stroke-name="b_2445_p1b2444" stroke-occlusion=" True True " />
            <path fill="none" stroke-width="1.0" stroke-linecap="round" stroke-opacity="1.0" stroke="rgb(0, 0, 0)" stroke-linejoin="round" d=" M 397.378, 104.676 397.650, 94.680 397.687, 93.333 " stroke-name="b_2445_p1b2444" stroke-occlusion=" True True True " />
            <path fill="none" stroke-width="1.0" stroke-linecap="round" stroke-opacity="1.0" stroke="rgb(0, 0, 0)" stroke-linejoin="round" d=" M 399.178, 188.357 399.270, 178.357 399.362, 168.357 399.453, 158.358 399.545, 148.358 399.637, 138.359 399.729, 128.359 399.807, 119.804 399.808, 119.722 399.865, 113.549 399.925, 106.957 399.943, 105.028 " stroke-name="b_2445_p1b2444" stroke-occlusion=" True True True True True True True True True True True True " />
            <path fill="none" stroke-width="1.0" stroke-linecap="round" stroke-opacity="1.0" stroke="rgb(0, 0, 0)" stroke-linejoin="round" d=" M 401.393, 188.172 401.523, 178.173 401.653, 168.174 401.782, 158.175 401.912, 148.176 402.042, 138.176 402.172, 128.177 402.273, 120.407 402.274, 120.314 402.347, 114.705 402.347, 114.703 402.383, 111.903 402.468, 105.395 402.494, 103.381 " stroke-name="b_2445_p1b2444" stroke-occlusion=" True True True True True True True True True True True True True True " />
            <path fill="none" stroke-width="1.0" stroke-linecap="round" stroke-opacity="1.0" stroke="rgb(0, 0, 0)" stroke-linejoin="round" d=" M 402.549, 103.400 402.581, 102.241 402.852, 92.245 402.860, 91.934 " stroke-name="b_2445_p1b2444" stroke-occlusion=" True True True True " />
            <path fill="none" stroke-width="1.0" stroke-linecap="round" stroke-opacity="1.0" stroke="rgb(0, 0, 0)" stroke-linejoin="round" d=" M 407.353, 187.869 407.392, 177.869 407.432, 167.869 407.472, 157.869 407.511, 147.869 407.551, 137.869 407.590, 127.870 407.615, 121.712 407.615, 121.596 407.635, 116.618 407.635, 116.609 407.667, 108.450 407.681, 104.910 407.683, 104.543 407.683, 104.488 407.684, 104.235 407.693, 102.066 " stroke-name="b_2445_p1b2444" stroke-occlusion=" True True True True True True True True True True True True True True True True True " />
            <path fill="none" stroke-width="1.0" stroke-linecap="round" stroke-opacity="1.0" stroke="rgb(0, 0, 0)" stroke-linejoin="round" d=" M 409.938, 188.250 410.028, 178.250 410.117, 168.251 410.207, 158.251 410.297, 148.251 410.387, 138.252 410.448, 131.377 410.449, 131.353 410.510, 124.494 410.548, 120.259 410.571, 117.681 410.571, 117.677 410.649, 109.012 410.657, 108.153 410.683, 105.221 410.684, 105.147 410.703, 103.028 " stroke-name="b_2445_p1b2444" stroke-occlusion=" True True True True True True True True True True True True True True True True True " />
            <path fill="none" stroke-width="1.0" stroke-linecap="round" stroke-opacity="1.0" stroke="rgb(0, 0, 0)" stroke-linejoin="round" d=" M 413.136, 101.710 413.197, 94.829 413.218, 92.361 " stroke-name="b_2445_p1b2444" stroke-occlusion=" True True True " />
            <path fill="none" stroke-width="1.0" stroke-linecap="round" stroke-opacity="1.0" stroke="rgb(0, 0, 0)" stroke-linejoin="round" d=" M 454.460, 340.903 454.686, 340.862 455.184, 340.771 " stroke-name="b_2445_p1b2444" stroke-occlusion=" True True True " />
            <path fill="none" stroke-width="1.0" stroke-linecap="round" stroke-opacity="1.0" stroke="rgb(0, 0, 0)" stroke-linejoin="round" d=" M 455.186, 340.527 456.999, 340.284 " stroke-name="b_2445_p1b2444" stroke-occlusion=" True True " />
            <path fill="none" stroke-width="1.0" stroke-linecap="round" stroke-opacity="1.0" stroke="rgb(0, 0, 0)" stroke-linejoin="round" d=" M 459.142, 325.472 455.313, 325.415 " stroke-name="p1g9_newyork_plane" stroke-occlusion=" True True " />
        </g>
    </g>
</svg>
