<?xml version='1.0' encoding='ascii'?>
<svg xmlns="http://www.w3.org/2000/svg" version="1.1" width="512" height="512">
    <g id="ViewLayer_LineSet" xmlns:inkscape="http://www.inkscape.org/namespaces/inkscape" inkscape:groupmode="lineset" inkscape:label="ViewLayer_LineSet">
        <g xmlns:inkscape="http://www.inkscape.org/namespaces/inkscape" inkscape:groupmode="layer" id="strokes" inkscape:label="strokes">
            <path fill="none" stroke-width="1.0" stroke-linecap="round" stroke-opacity="1.0" stroke="rgb(0, 0, 0)" stroke-linejoin="round" d=" M 427.501, 363.700 427.817, 361.449 427.823, 361.409 427.885, 360.963 428.129, 359.231 427.912, 359.152 427.537, 359.015 426.654, 358.692 426.054, 358.473 425.390, 358.231 424.750, 357.997 424.315, 357.838 423.574, 357.568 423.546, 357.558 423.097, 357.394 414.702, 354.329 409.694, 355.404 409.692, 355.428 409.629, 356.849 409.434, 361.196 418.936, 364.314 423.027, 365.657 " stroke-name="b_2465_p1b2464" stroke-occlusion=" True True True True True True True True True True True True True True True True True True True True True True " />
            <path fill="none" stroke-width="1.0" stroke-linecap="round" stroke-opacity="1.0" stroke="rgb(0, 0, 0)" stroke-linejoin="round" d=" M 427.501, 363.700 423.027, 365.657 422.848, 362.397 422.713, 359.940 " stroke-name="b_2465_p1b2464" stroke-occlusion=" True True True True " />
            <path fill="none" stroke-width="1.0" stroke-linecap="round" stroke-opacity="1.0" stroke="rgb(0, 0, 0)" stroke-linejoin="round" d=" M 437.907, 242.182 438.884, 241.224 438.944, 241.166 445.448, 234.792 444.366, 234.688 443.488, 234.603 442.527, 234.510 439.083, 234.176 439.019, 234.170 438.966, 234.165 437.484, 234.021 435.702, 233.671 434.586, 233.451 434.241, 233.384 432.610, 233.490 432.388, 233.504 430.663, 233.616 430.662, 233.616 430.332, 233.638 429.393, 233.699 428.864, 233.733 427.733, 233.807 427.174, 233.843 426.782, 233.868 426.750, 233.871 426.619, 233.879 426.120, 233.911 426.097, 233.913 425.985, 233.920 425.441, 233.956 425.376, 233.960 425.000, 233.984 424.782, 233.998 424.760, 234.000 424.699, 234.004 424.137, 234.040 424.128, 234.041 423.916, 234.055 423.823, 234.061 423.786, 234.063 423.554, 234.078 423.428, 234.086 416.521, 234.535 412.664, 234.786 412.722, 235.921 413.061, 242.489 " stroke-name="b_2465_p1b2464" stroke-occlusion=" True True True True True True True True True True True True True True True True True True True True True True True True True True True True True True True True True True True True True True True True True True True True True True " />
            <path fill="none" stroke-width="1.0" stroke-linecap="round" stroke-opacity="1.0" stroke="rgb(0, 0, 0)" stroke-linejoin="round" d=" M 319.054, 291.161 319.038, 281.161 319.025, 273.539 329.024, 273.383 339.023, 273.228 340.324, 273.208 350.323, 273.052 351.048, 273.041 " stroke-name="b_2465_p1b2464" stroke-occlusion=" True True True True True True True True " />
            <path fill="none" stroke-width="1.0" stroke-linecap="round" stroke-opacity="1.0" stroke="rgb(0, 0, 0)" stroke-linejoin="round" d=" M 353.658, 518.726 346.837, 511.413 340.016, 504.101 335.136, 498.870 335.069, 498.798 328.248, 491.485 321.427, 484.173 321.165, 483.892 321.034, 473.893 320.903, 463.894 320.877, 461.953 316.448, 457.459 309.429, 450.337 308.105, 448.993 307.950, 448.836 " stroke-name="b_2465_p1b2464" stroke-occlusion=" True True True True True True True True True True True True True True True " />
            <path fill="none" stroke-width="1.0" stroke-linecap="round" stroke-opacity="1.0" stroke="rgb(0, 0, 0)" stroke-linejoin="round" d=" M 412.722, 235.921 409.830, 236.112 399.856, 235.391 398.053, 235.260 397.727, 235.237 397.363, 235.210 397.230, 235.201 394.588, 235.010 393.746, 234.949 393.309, 235.147 391.532, 235.958 385.562, 238.681 376.463, 242.830 375.662, 243.196 375.428, 253.193 375.299, 258.721 368.640, 258.831 368.505, 268.830 368.370, 278.829 368.301, 283.892 " stroke-name="b_2465_p1b2464" stroke-occlusion=" True True True True True True True True True True True True True True True True True True True True " />
            <path fill="none" stroke-width="1.0" stroke-linecap="round" stroke-opacity="1.0" stroke="rgb(0, 0, 0)" stroke-linejoin="round" d=" M 375.662, 243.196 385.521, 242.527 395.498, 241.849 396.526, 241.780 " stroke-name="b_2465_p1b2464" stroke-occlusion=" True True True True " />
            <path fill="none" stroke-width="1.0" stroke-linecap="round" stroke-opacity="1.0" stroke="rgb(0, 0, 0)" stroke-linejoin="round" d=" M 396.526, 241.780 393.746, 234.949 " stroke-name="b_2465_p1b2464" stroke-occlusion=" True True " />
            <path fill="none" stroke-width="1.0" stroke-linecap="round" stroke-opacity="1.0" stroke="rgb(0, 0, 0)" stroke-linejoin="round" d=" M 308.098, 434.698 317.614, 431.625 327.130, 428.551 328.147, 428.223 320.317, 422.003 318.168, 420.296 310.338, 414.076 308.331, 412.482 " stroke-name="b_2465_p1b2464" stroke-occlusion=" True True True True True True True True " />
            <path fill="none" stroke-width="1.0" stroke-linecap="round" stroke-opacity="1.0" stroke="rgb(0, 0, 0)" stroke-linejoin="round" d=" M 394.063, 409.948 393.969, 402.726 393.945, 400.914 391.617, 399.699 382.752, 395.073 375.105, 391.083 372.856, 391.657 363.167, 394.131 353.478, 396.605 345.486, 398.646 344.492, 398.899 341.066, 399.774 341.807, 408.395 " stroke-name="b_2465_p1b2464" stroke-occlusion=" True True True True True True True True True True True True True " />
            <path fill="none" stroke-width="1.0" stroke-linecap="round" stroke-opacity="1.0" stroke="rgb(0, 0, 0)" stroke-linejoin="round" d=" M 341.807, 408.395 347.443, 412.315 355.652, 418.026 360.220, 421.204 " stroke-name="b_2465_p1b2464" stroke-occlusion=" True True True True " />
            <path fill="none" stroke-width="1.0" stroke-linecap="round" stroke-opacity="1.0" stroke="rgb(0, 0, 0)" stroke-linejoin="round" d=" M 394.063, 409.948 384.574, 413.104 375.085, 416.260 365.596, 419.415 360.220, 421.204 360.101, 411.491 " stroke-name="b_2465_p1b2464" stroke-occlusion=" True True True True True True " />
            <path fill="none" stroke-width="1.0" stroke-linecap="round" stroke-opacity="1.0" stroke="rgb(0, 0, 0)" stroke-linejoin="round" d=" M 478.451, 381.287 471.536, 378.954 464.893, 376.713 464.908, 373.933 464.921, 371.429 464.949, 366.107 457.425, 363.527 456.919, 363.354 453.689, 362.246 444.778, 364.750 441.125, 365.777 441.016, 367.542 441.003, 367.747 440.508, 375.745 " stroke-name="b_2465_p1b2464" stroke-occlusion=" True True True True True True True True True True True True True True " />
            <path fill="none" stroke-width="1.0" stroke-linecap="round" stroke-opacity="1.0" stroke="rgb(0, 0, 0)" stroke-linejoin="round" d=" M 440.508, 375.745 450.022, 378.826 453.840, 380.062 " stroke-name="b_2465_p1b2464" stroke-occlusion=" True True True " />
            <path fill="none" stroke-width="1.0" stroke-linecap="round" stroke-opacity="1.0" stroke="rgb(0, 0, 0)" stroke-linejoin="round" d=" M 464.893, 376.713 455.323, 379.613 453.840, 380.062 453.719, 371.423 453.701, 370.139 " stroke-name="b_2465_p1b2464" stroke-occlusion=" True True True True True " />
            <path fill="none" stroke-width="1.0" stroke-linecap="round" stroke-opacity="1.0" stroke="rgb(0, 0, 0)" stroke-linejoin="round" d=" M 512.083, 365.266 511.764, 365.175 510.924, 364.937 509.292, 364.473 509.269, 364.467 509.262, 364.465 508.964, 364.380 508.601, 364.277 506.921, 363.800 506.745, 363.750 506.670, 363.729 506.635, 363.719 505.750, 363.467 503.931, 362.951 503.224, 362.750 503.195, 362.742 501.430, 362.240 500.709, 362.036 500.292, 361.917 499.254, 361.623 498.122, 361.301 496.436, 360.822 495.657, 360.601 492.201, 359.620 491.416, 359.397 490.466, 359.127 488.574, 359.717 487.481, 360.058 484.751, 360.910 483.918, 361.170 481.155, 362.032 480.386, 362.272 478.724, 362.791 478.577, 372.790 478.531, 375.893 478.530, 375.941 478.518, 376.759 478.451, 381.287 478.333, 389.258 " stroke-name="b_2465_p1b2464" stroke-occlusion=" True True True True True True True True True True True True True True True True True True True True True True True True True True True True True True True True True True True True True True True " />
            <path fill="none" stroke-width="1.0" stroke-linecap="round" stroke-opacity="1.0" stroke="rgb(0, 0, 0)" stroke-linejoin="round" d=" M 504.027, 398.631 513.170, 394.582 514.719, 393.897 " stroke-name="b_2465_p1b2464" stroke-occlusion=" True True True " />
            <path fill="none" stroke-width="1.0" stroke-linecap="round" stroke-opacity="1.0" stroke="rgb(0, 0, 0)" stroke-linejoin="round" d=" M 492.018, 254.305 492.217, 244.307 492.285, 240.861 489.454, 239.963 488.620, 239.698 485.910, 238.838 484.954, 238.534 483.689, 238.133 482.240, 237.672 481.447, 237.421 481.000, 237.279 480.270, 237.047 479.693, 236.864 478.915, 236.617 478.909, 236.615 478.292, 236.419 477.794, 236.261 475.189, 235.434 474.579, 235.240 471.466, 234.252 471.360, 234.218 468.778, 233.399 468.577, 233.335 465.682, 232.416 462.055, 232.656 461.569, 232.688 459.845, 232.802 459.313, 232.837 458.704, 232.878 458.075, 232.919 457.192, 232.978 456.971, 232.992 454.665, 233.145 454.161, 233.178 452.394, 233.295 451.045, 233.385 449.296, 233.500 448.436, 233.557 446.773, 233.667 445.825, 233.730 444.374, 233.826 443.496, 233.884 442.533, 233.948 439.083, 234.176 " stroke-name="b_2465_p1b2464" stroke-occlusion=" True True True True True True True True True True True True True True True True True True True True True True True True True True True True True True True True True True True True True True True True True True True True " />
            <path fill="none" stroke-width="1.0" stroke-linecap="round" stroke-opacity="1.0" stroke="rgb(0, 0, 0)" stroke-linejoin="round" d=" M 475.079, 240.643 480.975, 240.718 483.664, 240.752 492.285, 240.861 " stroke-name="b_2465_p1b2464" stroke-occlusion=" True True True True " />
            <path fill="none" stroke-width="1.0" stroke-linecap="round" stroke-opacity="1.0" stroke="rgb(0, 0, 0)" stroke-linejoin="round" d=" M 425.972, 464.843 417.120, 469.495 408.267, 474.147 405.535, 475.583 396.683, 480.235 389.892, 483.803 381.023, 479.184 378.774, 478.013 368.865, 476.663 358.957, 475.313 357.634, 475.132 347.916, 477.488 347.547, 477.578 340.005, 484.144 338.760, 485.228 336.083, 494.862 335.077, 498.483 335.069, 498.798 " stroke-name="b_2465_p1b2464" stroke-occlusion=" True True True True True True True True True True True True True True True True True True " />
            <path fill="none" stroke-width="1.0" stroke-linecap="round" stroke-opacity="1.0" stroke="rgb(0, 0, 0)" stroke-linejoin="round" d=" M 351.062, 289.564 351.059, 285.563 351.059, 285.271 351.050, 275.995 351.048, 273.041 342.234, 268.317 340.391, 267.329 338.590, 266.364 328.603, 266.859 319.316, 267.320 315.409, 269.225 314.588, 269.625 309.805, 271.957 " stroke-name="b_2465_p1b2464" stroke-occlusion=" True True True True True True True True True True True True True " />
            <path fill="none" stroke-width="1.0" stroke-linecap="round" stroke-opacity="1.0" stroke="rgb(0, 0, 0)" stroke-linejoin="round" d=" M 230.383, 459.798 235.568, 468.349 237.001, 470.712 " stroke-name="b_2465_p1b2464" stroke-occlusion=" True True True " />
            <path fill="none" stroke-width="1.0" stroke-linecap="round" stroke-opacity="1.0" stroke="rgb(0, 0, 0)" stroke-linejoin="round" d=" M 321.165, 483.892 311.902, 487.659 307.524, 489.439 " stroke-name="b_2465_p1b2464" stroke-occlusion=" True True True " />
            <path fill="none" stroke-width="1.0" stroke-linecap="round" stroke-opacity="1.0" stroke="rgb(0, 0, 0)" stroke-linejoin="round" d=" M 341.066, 399.774 349.582, 405.016 350.773, 405.750 357.004, 409.585 360.101, 411.491 369.645, 408.508 379.190, 405.525 383.805, 404.083 393.350, 401.100 393.945, 400.914 " stroke-name="b_2465_p1b2464" stroke-occlusion=" True True True True True True True True True True " />
            <path fill="none" stroke-width="1.0" stroke-linecap="round" stroke-opacity="1.0" stroke="rgb(0, 0, 0)" stroke-linejoin="round" d=" M 373.602, 364.563 373.632, 361.100 373.696, 353.725 373.783, 343.726 373.826, 338.711 373.913, 328.711 373.953, 324.100 374.040, 314.101 374.127, 304.101 374.213, 294.102 374.269, 287.739 374.269, 287.672 369.104, 285.074 368.291, 284.666 366.965, 283.999 364.069, 282.542 355.135, 278.049 351.050, 275.995 " stroke-name="b_2465_p1b2464" stroke-occlusion=" True True True True True True True True True True True True True True True True True True " />
            <path fill="none" stroke-width="1.0" stroke-linecap="round" stroke-opacity="1.0" stroke="rgb(0, 0, 0)" stroke-linejoin="round" d=" M 441.003, 367.747 436.907, 366.203 435.818, 365.793 426.082, 368.074 425.870, 368.124 416.133, 370.405 415.974, 370.442 406.238, 372.724 405.652, 372.861 405.661, 373.876 405.755, 383.875 405.848, 393.875 405.858, 394.911 405.868, 396.035 405.962, 406.034 405.990, 409.028 406.052, 415.639 " stroke-name="b_2465_p1b2464" stroke-occlusion=" True True True True True True True True True True True True True True True True True " />
            <path fill="none" stroke-width="1.0" stroke-linecap="round" stroke-opacity="1.0" stroke="rgb(0, 0, 0)" stroke-linejoin="round" d=" M 441.125, 365.777 450.573, 369.054 453.701, 370.139 463.115, 366.765 464.949, 366.107 " stroke-name="b_2465_p1b2464" stroke-occlusion=" True True True True True " />
            <path fill="none" stroke-width="1.0" stroke-linecap="round" stroke-opacity="1.0" stroke="rgb(0, 0, 0)" stroke-linejoin="round" d=" M 503.733, 265.686 503.458, 265.722 503.449, 265.723 502.506, 265.843 501.573, 265.962 501.322, 265.994 501.216, 266.008 501.163, 276.008 501.111, 286.008 501.058, 296.008 501.016, 303.971 501.014, 304.279 500.961, 314.279 500.908, 324.279 500.901, 325.658 500.848, 335.657 500.804, 343.993 500.801, 344.518 500.749, 354.518 500.713, 361.307 500.709, 362.036 " stroke-name="b_2465_p1b2464" stroke-occlusion=" True True True True True True True True True True True True True True True True True True True True True " />
            <path fill="none" stroke-width="1.0" stroke-linecap="round" stroke-opacity="1.0" stroke="rgb(0, 0, 0)" stroke-linejoin="round" d=" M 501.216, 266.008 503.730, 266.137 504.666, 266.184 505.481, 266.226 507.201, 266.314 507.998, 266.355 509.334, 266.423 509.968, 266.456 509.988, 266.457 510.165, 266.466 511.694, 266.544 512.717, 266.596 " stroke-name="b_2465_p1b2464" stroke-occlusion=" True True True True True True True True True True True True " />
            <path fill="none" stroke-width="1.0" stroke-linecap="round" stroke-opacity="1.0" stroke="rgb(0, 0, 0)" stroke-linejoin="round" d=" M 408.336, 242.521 408.223, 252.520 408.197, 254.826 408.194, 255.088 408.194, 255.098 408.152, 258.782 408.039, 268.781 407.926, 278.781 407.813, 288.780 407.705, 298.268 407.676, 300.822 407.656, 302.609 407.543, 312.608 407.430, 322.608 407.408, 324.579 407.312, 333.019 407.248, 338.673 407.183, 344.449 407.070, 354.449 407.068, 354.563 " stroke-name="b_2465_p1b2464" stroke-occlusion=" True True True True True True True True True True True True True True True True True True True True " />
            <path fill="none" stroke-width="1.0" stroke-linecap="round" stroke-opacity="1.0" stroke="rgb(0, 0, 0)" stroke-linejoin="round" d=" M 413.061, 242.489 408.336, 242.521 398.356, 241.894 397.970, 241.870 397.294, 241.828 397.169, 241.820 396.526, 241.780 396.610, 251.779 396.671, 259.068 396.671, 259.090 396.673, 259.321 " stroke-name="b_2465_p1b2464" stroke-occlusion=" True True True True True True True True True True True " />
            <path fill="none" stroke-width="1.0" stroke-linecap="round" stroke-opacity="1.0" stroke="rgb(0, 0, 0)" stroke-linejoin="round" d=" M 436.810, 362.108 433.703, 362.940 " stroke-name="b_2465_p1b2464" stroke-occlusion=" True True " />
            <path fill="none" stroke-width="1.0" stroke-linecap="round" stroke-opacity="1.0" stroke="rgb(0, 0, 0)" stroke-linejoin="round" d=" M 409.692, 355.428 407.068, 354.563 397.254, 356.481 396.592, 356.611 393.805, 357.156 386.539, 358.576 376.725, 360.495 373.632, 361.100 " stroke-name="b_2465_p1b2464" stroke-occlusion=" True True True True True True True True " />
            <path fill="none" stroke-width="1.0" stroke-linecap="round" stroke-opacity="1.0" stroke="rgb(0, 0, 0)" stroke-linejoin="round" d=" M 409.629, 356.849 405.669, 357.705 396.610, 359.662 396.234, 359.744 396.029, 359.788 392.655, 360.517 392.637, 360.810 392.209, 368.072 " stroke-name="b_2465_p1b2464" stroke-occlusion=" True True True True True True True True " />
            <path fill="none" stroke-width="1.0" stroke-linecap="round" stroke-opacity="1.0" stroke="rgb(0, 0, 0)" stroke-linejoin="round" d=" M 392.209, 368.072 401.391, 372.034 405.661, 373.876 " stroke-name="b_2465_p1b2464" stroke-occlusion=" True True True " />
            <path fill="none" stroke-width="1.0" stroke-linecap="round" stroke-opacity="1.0" stroke="rgb(0, 0, 0)" stroke-linejoin="round" d=" M 352.782, 381.133 361.638, 385.776 370.495, 390.420 372.856, 391.657 " stroke-name="b_2465_p1b2464" stroke-occlusion=" True True True True " />
            <path fill="none" stroke-width="1.0" stroke-linecap="round" stroke-opacity="1.0" stroke="rgb(0, 0, 0)" stroke-linejoin="round" d=" M 503.733, 265.686 504.671, 265.696 505.485, 265.705 507.207, 265.722 508.003, 265.731 509.339, 265.745 509.973, 265.751 509.993, 265.751 510.170, 265.753 511.700, 265.769 512.724, 265.780 " stroke-name="b_2465_p1b2464" stroke-occlusion=" True True True True True True True True True True True " />
            <path fill="none" stroke-width="1.0" stroke-linecap="round" stroke-opacity="1.0" stroke="rgb(0, 0, 0)" stroke-linejoin="round" d=" M 444.778, 364.750 436.810, 362.108 436.902, 352.109 436.930, 348.995 436.973, 344.266 437.010, 340.226 437.102, 330.226 437.150, 324.947 437.241, 314.947 437.317, 306.676 437.320, 306.376 437.362, 301.768 437.453, 291.769 437.545, 281.769 437.636, 271.770 437.728, 261.770 437.789, 255.064 437.790, 254.900 437.882, 244.900 437.907, 242.182 438.874, 242.142 438.934, 242.140 448.925, 241.726 458.917, 241.312 468.908, 240.898 475.079, 240.643 474.967, 250.642 474.927, 254.211 475.009, 254.212 477.622, 254.226 478.159, 254.229 478.955, 254.234 478.960, 254.234 479.550, 254.237 480.124, 254.240 480.874, 254.244 481.304, 254.246 482.095, 254.251 483.533, 254.259 484.821, 254.266 485.764, 254.271 488.482, 254.286 489.349, 254.291 492.018, 254.305 492.405, 254.307 493.193, 254.312 496.547, 254.330 497.433, 254.335 500.276, 254.351 501.208, 254.356 504.096, 254.372 504.780, 254.375 504.814, 254.376 505.579, 254.380 506.904, 254.387 507.311, 254.389 507.669, 254.391 508.097, 254.394 509.433, 254.401 510.055, 254.404 510.073, 254.404 510.196, 254.405 510.250, 254.405 511.791, 254.414 512.546, 254.418 " stroke-name="b_2465_p1b2464" stroke-occlusion=" True True True True True True True True True True True True True True True True True True True True True True True True True True True True True True True True True True True True True True True True True True True True True True True True True True True True True True True True True True True True True True True True True " />
            <path fill="none" stroke-width="1.0" stroke-linecap="round" stroke-opacity="1.0" stroke="rgb(0, 0, 0)" stroke-linejoin="round" d=" M 392.201, 259.638 396.673, 259.321 386.677, 259.040 385.345, 259.003 375.299, 258.721 " stroke-name="b_2465_p1b2464" stroke-occlusion=" True True True True True " />
            <path fill="none" stroke-width="1.0" stroke-linecap="round" stroke-opacity="1.0" stroke="rgb(0, 0, 0)" stroke-linejoin="round" d=" M 428.129, 359.231 427.908, 359.259 427.533, 359.308 426.677, 359.421 426.058, 359.502 425.190, 359.615 424.272, 359.736 422.713, 359.940 413.270, 356.650 412.228, 356.287 409.694, 355.404 " stroke-name="b_2465_p1b2464" stroke-occlusion=" True True True True True True True True True True True " />
            <path fill="none" stroke-width="1.0" stroke-linecap="round" stroke-opacity="1.0" stroke="rgb(0, 0, 0)" stroke-linejoin="round" d=" M 308.105, 448.993 317.571, 445.770 327.037, 442.546 328.052, 442.201 337.518, 438.977 346.985, 435.753 356.451, 432.530 365.917, 429.306 375.383, 426.083 384.849, 422.859 394.316, 419.635 403.782, 416.412 406.052, 415.639 405.965, 425.638 405.879, 435.638 405.793, 445.638 405.707, 455.637 405.620, 465.637 405.535, 475.583 " stroke-name="b_2465_p1b2464" stroke-occlusion=" True True True True True True True True True True True True True True True True True True True " />
            <path fill="none" stroke-width="1.0" stroke-linecap="round" stroke-opacity="1.0" stroke="rgb(0, 0, 0)" stroke-linejoin="round" d=" M 504.483, 370.340 504.359, 378.068 504.197, 388.067 504.036, 398.066 504.027, 398.631 503.038, 398.271 500.522, 397.353 491.128, 393.926 481.734, 390.498 478.333, 389.258 " stroke-name="b_2465_p1b2464" stroke-occlusion=" True True True True True True True True True True " />
            <path fill="none" stroke-width="1.0" stroke-linecap="round" stroke-opacity="1.0" stroke="rgb(0, 0, 0)" stroke-linejoin="round" d=" M 392.655, 360.517 394.016, 361.044 403.340, 364.658 405.193, 365.376 414.517, 368.989 415.987, 369.558 " stroke-name="b_2465_p1b2464" stroke-occlusion=" True True True True True True " />
            <path fill="none" stroke-width="1.0" stroke-linecap="round" stroke-opacity="1.0" stroke="rgb(0, 0, 0)" stroke-linejoin="round" d=" M 415.974, 370.442 415.987, 369.558 424.006, 367.469 433.683, 364.948 434.324, 364.781 437.038, 364.074 " stroke-name="b_2465_p1b2464" stroke-occlusion=" True True True True True True " />
            <path fill="none" stroke-width="1.0" stroke-linecap="round" stroke-opacity="1.0" stroke="rgb(0, 0, 0)" stroke-linejoin="round" d=" M 335.077, 498.483 335.136, 498.870 " stroke-name="b_2465_p1b2464" stroke-occlusion=" True True " />
            <path fill="none" stroke-width="1.0" stroke-linecap="round" stroke-opacity="1.0" stroke="rgb(0, 0, 0)" stroke-linejoin="round" d=" M 436.907, 366.203 436.919, 365.995 437.038, 364.074 433.703, 362.940 433.024, 362.709 431.453, 362.176 431.303, 362.125 429.596, 361.545 429.125, 361.385 427.885, 360.963 " stroke-name="b_2465_p1b2464" stroke-occlusion=" True True True True True True True True True True " />
            <path fill="none" stroke-width="1.0" stroke-linecap="round" stroke-opacity="1.0" stroke="rgb(0, 0, 0)" stroke-linejoin="round" d=" M 368.640, 258.831 378.634, 259.174 385.341, 259.403 392.201, 259.638 392.063, 269.637 391.925, 279.636 391.828, 286.688 " stroke-name="b_2465_p1b2464" stroke-occlusion=" True True True True True True True " />
            <path fill="none" stroke-width="1.0" stroke-linecap="round" stroke-opacity="1.0" stroke="rgb(0, 0, 0)" stroke-linejoin="round" d=" M 352.133, 369.073 352.181, 369.969 352.595, 377.666 352.782, 381.133 343.038, 383.383 333.295, 385.633 323.551, 387.883 313.807, 390.133 308.553, 391.346 " stroke-name="b_2465_p1b2464" stroke-occlusion=" True True True True True True True True True " />
            <path fill="none" stroke-width="1.0" stroke-linecap="round" stroke-opacity="1.0" stroke="rgb(0, 0, 0)" stroke-linejoin="round" d=" M 373.602, 364.563 363.815, 366.619 363.167, 366.755 353.381, 368.811 352.133, 369.073 361.145, 373.407 362.852, 374.228 371.864, 378.563 380.876, 382.897 389.888, 387.231 398.900, 391.565 405.858, 394.911 " stroke-name="b_2465_p1b2464" stroke-occlusion=" True True True True True True True True True True True True " />
            <path fill="none" stroke-width="1.0" stroke-linecap="round" stroke-opacity="1.0" stroke="rgb(0, 0, 0)" stroke-linejoin="round" d=" M 369.115, 283.827 368.301, 283.892 366.965, 283.999 " stroke-name="b_2465_p1b2464" stroke-occlusion=" True True True " />
            <path fill="none" stroke-width="1.0" stroke-linecap="round" stroke-opacity="1.0" stroke="rgb(0, 0, 0)" stroke-linejoin="round" d=" M 512.847, 366.598 509.265, 368.200 509.235, 368.214 504.483, 370.340 503.186, 369.960 500.671, 369.223 491.075, 366.410 481.478, 363.598 478.724, 362.791 " stroke-name="b_2465_p1b2464" stroke-occlusion=" True True True True True True True True True " />
            <path fill="none" stroke-width="1.0" stroke-linecap="round" stroke-opacity="1.0" stroke="rgb(0, 0, 0)" stroke-linejoin="round" d=" M 351.062, 289.564 361.029, 288.751 364.005, 288.509 368.244, 288.163 369.077, 288.095 369.903, 288.028 374.269, 287.672 " stroke-name="b_2465_p1b2464" stroke-occlusion=" True True True True True True True " />
            <path fill="none" stroke-width="1.0" stroke-linecap="round" stroke-opacity="1.0" stroke="rgb(0, 0, 0)" stroke-linejoin="round" d=" M 374.269, 287.739 384.251, 287.141 385.046, 287.094 391.828, 286.688 385.060, 285.835 375.138, 284.585 369.115, 283.827 " stroke-name="b_2465_p1b2464" stroke-occlusion=" True True True True True True True " />
            <path fill="none" stroke-width="1.0" stroke-linecap="round" stroke-opacity="1.0" stroke="rgb(0, 0, 0)" stroke-linejoin="round" d=" M 339.572, 141.585 339.658, 138.688 332.921, 137.307 329.474, 139.076 " stroke-name="b_2418_p1b2417" stroke-occlusion=" True True True True " />
            <path fill="none" stroke-width="1.0" stroke-linecap="round" stroke-opacity="1.0" stroke="rgb(0, 0, 0)" stroke-linejoin="round" d=" M 315.900, 135.703 315.853, 140.520 315.755, 150.520 315.729, 153.217 315.631, 163.216 315.533, 173.216 315.435, 183.215 315.337, 193.215 315.238, 203.214 315.141, 213.214 315.042, 223.213 314.944, 233.213 314.846, 243.212 314.748, 253.212 314.650, 263.211 314.588, 269.625 " stroke-name="b_2418_p1b2417" stroke-occlusion=" True True True True True True True True True True True True True True True True " />
            <path fill="none" stroke-width="1.0" stroke-linecap="round" stroke-opacity="1.0" stroke="rgb(0, 0, 0)" stroke-linejoin="round" d=" M 364.069, 282.542 364.176, 272.543 364.283, 262.543 364.390, 252.544 364.497, 242.544 364.604, 232.545 364.711, 222.546 364.820, 212.374 364.826, 211.788 364.839, 210.542 364.842, 210.258 364.843, 210.209 364.843, 210.209 364.843, 210.180 364.862, 208.434 364.868, 207.914 364.881, 206.671 364.891, 205.771 364.894, 205.488 364.902, 204.677 364.902, 204.671 364.905, 204.417 364.912, 203.750 365.019, 193.751 365.126, 183.751 365.233, 173.752 365.340, 163.753 365.447, 153.753 365.509, 148.030 355.804, 145.619 346.099, 143.207 339.572, 141.585 335.902, 140.673 332.845, 139.913 329.474, 139.076 319.769, 136.664 315.900, 135.703 311.206, 138.440 " stroke-name="b_2418_p1b2417" stroke-occlusion=" True True True True True True True True True True True True True True True True True True True True True True True True True True True True True True True True True True True True True True " />
            <path fill="none" stroke-width="1.0" stroke-linecap="round" stroke-opacity="1.0" stroke="rgb(0, 0, 0)" stroke-linejoin="round" d=" M 397.743, 198.466 397.568, 198.471 396.955, 198.486 396.304, 198.191 395.169, 198.043 394.868, 198.210 394.070, 198.652 393.587, 198.748 391.871, 199.087 385.941, 200.259 377.748, 201.879 375.003, 202.421 365.193, 204.360 364.905, 204.417 " stroke-name="b_2384_p1b2383" stroke-occlusion=" True True True True True True True True True True True True True True " />
            <path fill="none" stroke-width="1.0" stroke-linecap="round" stroke-opacity="1.0" stroke="rgb(0, 0, 0)" stroke-linejoin="round" d=" M 398.053, 235.260 398.178, 225.261 398.304, 215.262 398.429, 205.263 398.506, 199.157 398.344, 198.719 397.895, 198.530 " stroke-name="b_2384_p1b2383" stroke-occlusion=" True True True True True True True " />
            <path fill="none" stroke-width="1.0" stroke-linecap="round" stroke-opacity="1.0" stroke="rgb(0, 0, 0)" stroke-linejoin="round" d=" M 397.363, 235.210 397.466, 225.211 397.569, 215.211 397.673, 205.212 397.731, 199.605 397.739, 198.825 397.741, 198.618 397.743, 198.466 398.217, 198.677 397.895, 198.530 397.569, 198.382 397.568, 198.471 " stroke-name="b_2384_p1b2383" stroke-occlusion=" True True True True True True True True True True True True " />
            <path fill="none" stroke-width="1.0" stroke-linecap="round" stroke-opacity="1.0" stroke="rgb(0, 0, 0)" stroke-linejoin="round" d=" M 397.743, 198.466 397.569, 198.382 " stroke-name="b_2384_p1b2383" stroke-occlusion=" True True " />
            <path fill="none" stroke-width="1.0" stroke-linecap="round" stroke-opacity="1.0" stroke="rgb(0, 0, 0)" stroke-linejoin="round" d=" M 398.344, 198.719 398.217, 198.677 398.083, 208.676 397.949, 218.675 397.815, 228.674 397.727, 235.237 " stroke-name="b_2384_p1b2383" stroke-occlusion=" True True True True True True " />
            <path fill="none" stroke-width="1.0" stroke-linecap="round" stroke-opacity="1.0" stroke="rgb(0, 0, 0)" stroke-linejoin="round" d=" M 377.748, 201.879 374.965, 201.713 365.164, 203.699 364.912, 203.750 " stroke-name="b_2384_p1b2383" stroke-occlusion=" True True True True " />
            <path fill="none" stroke-width="1.0" stroke-linecap="round" stroke-opacity="1.0" stroke="rgb(0, 0, 0)" stroke-linejoin="round" d=" M 425.910, 123.388 425.647, 123.501 425.627, 133.501 425.614, 139.573 " stroke-name="b_2383_p1b2382" stroke-occlusion=" True True True True " />
            <path fill="none" stroke-width="1.0" stroke-linecap="round" stroke-opacity="1.0" stroke="rgb(0, 0, 0)" stroke-linejoin="round" d=" M 445.074, 88.845 443.865, 89.132 442.463, 89.466 442.466, 89.942 442.524, 99.942 442.570, 107.835 " stroke-name="b_2383_p1b2382" stroke-occlusion=" True True True True True True " />
            <path fill="none" stroke-width="1.0" stroke-linecap="round" stroke-opacity="1.0" stroke="rgb(0, 0, 0)" stroke-linejoin="round" d=" M 428.943, 104.374 427.872, 104.891 427.878, 105.835 427.879, 106.053 427.884, 106.731 427.888, 107.329 427.890, 107.689 427.910, 110.730 427.917, 111.864 427.921, 112.382 427.964, 119.151 " stroke-name="b_2383_p1b2382" stroke-occlusion=" True True True True True True True True True True True " />
            <path fill="none" stroke-width="1.0" stroke-linecap="round" stroke-opacity="1.0" stroke="rgb(0, 0, 0)" stroke-linejoin="round" d=" M 427.878, 105.835 427.785, 105.885 427.763, 106.780 427.753, 107.173 427.738, 107.769 427.670, 110.550 427.634, 112.009 427.628, 112.251 427.521, 116.640 427.434, 120.188 " stroke-name="b_2383_p1b2382" stroke-occlusion=" True True True True True True True True True True " />
            <path fill="none" stroke-width="1.0" stroke-linecap="round" stroke-opacity="1.0" stroke="rgb(0, 0, 0)" stroke-linejoin="round" d=" M 427.763, 106.780 427.505, 106.884 427.477, 109.138 427.461, 110.393 427.457, 110.687 427.440, 112.109 427.439, 112.166 427.400, 115.286 427.339, 120.235 " stroke-name="b_2383_p1b2382" stroke-occlusion=" True True True True True True True True True " />
            <path fill="none" stroke-width="1.0" stroke-linecap="round" stroke-opacity="1.0" stroke="rgb(0, 0, 0)" stroke-linejoin="round" d=" M 427.477, 109.138 427.354, 110.313 427.317, 113.257 " stroke-name="b_2383_p1b2382" stroke-occlusion=" True True True " />
            <path fill="none" stroke-width="1.0" stroke-linecap="round" stroke-opacity="1.0" stroke="rgb(0, 0, 0)" stroke-linejoin="round" d=" M 511.363, 72.826 509.197, 73.703 508.824, 72.919 506.280, 74.103 505.606, 72.595 502.745, 73.846 502.002, 73.128 499.116, 74.615 498.064, 73.179 494.883, 74.726 494.103, 74.017 490.668, 74.838 490.188, 74.066 487.463, 75.296 486.338, 74.655 483.658, 75.103 482.826, 75.177 479.493, 75.984 479.333, 75.695 476.714, 76.903 475.940, 75.970 472.980, 77.472 472.878, 76.950 470.327, 78.138 469.931, 77.679 460.380, 80.641 460.195, 80.698 459.426, 80.544 451.553, 83.763 451.561, 85.085 451.561, 85.095 451.612, 93.943 451.629, 96.967 451.630, 97.175 451.648, 100.284 451.662, 102.752 449.360, 103.713 449.194, 113.712 449.178, 114.707 449.012, 124.706 449.000, 125.455 447.605, 126.380 447.101, 126.714 446.458, 127.141 " stroke-name="b_2383_p1b2382" stroke-occlusion=" True True True True True True True True True True True True True True True True True True True True True True True True True True True True True True True True True True True True True True True True True True True True " />
            <path fill="none" stroke-width="1.0" stroke-linecap="round" stroke-opacity="1.0" stroke="rgb(0, 0, 0)" stroke-linejoin="round" d=" M 442.466, 89.942 440.381, 91.162 440.375, 91.619 440.258, 101.619 440.175, 108.749 " stroke-name="b_2383_p1b2382" stroke-occlusion=" True True True True True " />
            <path fill="none" stroke-width="1.0" stroke-linecap="round" stroke-opacity="1.0" stroke="rgb(0, 0, 0)" stroke-linejoin="round" d=" M 440.375, 91.619 438.666, 92.559 438.657, 92.911 438.410, 102.908 438.248, 109.483 " stroke-name="b_2383_p1b2382" stroke-occlusion=" True True True True True " />
            <path fill="none" stroke-width="1.0" stroke-linecap="round" stroke-opacity="1.0" stroke="rgb(0, 0, 0)" stroke-linejoin="round" d=" M 438.657, 92.911 437.084, 93.701 437.070, 94.862 436.947, 104.861 436.877, 110.646 " stroke-name="b_2383_p1b2382" stroke-occlusion=" True True True True True " />
            <path fill="none" stroke-width="1.0" stroke-linecap="round" stroke-opacity="1.0" stroke="rgb(0, 0, 0)" stroke-linejoin="round" d=" M 434.892, 96.390 433.676, 97.053 433.644, 98.352 433.398, 108.349 433.283, 112.996 433.274, 113.380 " stroke-name="b_2383_p1b2382" stroke-occlusion=" True True True True True True " />
            <path fill="none" stroke-width="1.0" stroke-linecap="round" stroke-opacity="1.0" stroke="rgb(0, 0, 0)" stroke-linejoin="round" d=" M 432.582, 99.599 431.119, 100.389 431.113, 101.341 431.054, 111.340 431.043, 113.280 431.032, 115.036 " stroke-name="b_2383_p1b2382" stroke-occlusion=" True True True True True True " />
            <path fill="none" stroke-width="1.0" stroke-linecap="round" stroke-opacity="1.0" stroke="rgb(0, 0, 0)" stroke-linejoin="round" d=" M 433.644, 98.352 432.595, 98.494 432.582, 99.599 432.460, 109.598 432.412, 113.538 " stroke-name="b_2383_p1b2382" stroke-occlusion=" True True True True True " />
            <path fill="none" stroke-width="1.0" stroke-linecap="round" stroke-opacity="1.0" stroke="rgb(0, 0, 0)" stroke-linejoin="round" d=" M 431.113, 101.341 430.289, 101.743 430.265, 102.714 430.019, 112.711 430.005, 113.314 429.926, 116.494 " stroke-name="b_2383_p1b2382" stroke-occlusion=" True True True True True True " />
            <path fill="none" stroke-width="1.0" stroke-linecap="round" stroke-opacity="1.0" stroke="rgb(0, 0, 0)" stroke-linejoin="round" d=" M 430.265, 102.714 428.968, 103.344 428.943, 104.374 428.771, 111.376 428.770, 111.426 428.737, 112.747 428.638, 116.753 428.609, 117.951 " stroke-name="b_2383_p1b2382" stroke-occlusion=" True True True True True True True True " />
            <path fill="none" stroke-width="1.0" stroke-linecap="round" stroke-opacity="1.0" stroke="rgb(0, 0, 0)" stroke-linejoin="round" d=" M 439.846, 129.866 439.809, 129.874 438.199, 130.188 438.194, 130.189 437.775, 130.271 437.604, 130.304 437.403, 130.344 436.933, 130.435 436.933, 130.517 436.938, 131.265 436.940, 131.438 436.942, 131.862 437.010, 141.862 437.077, 151.861 437.128, 159.359 435.656, 159.676 435.574, 159.693 434.896, 160.387 " stroke-name="b_2383_p1b2382" stroke-occlusion=" True True True True True True True True True True True True True True True True True True " />
            <path fill="none" stroke-width="1.0" stroke-linecap="round" stroke-opacity="1.0" stroke="rgb(0, 0, 0)" stroke-linejoin="round" d=" M 435.342, 132.260 434.657, 132.356 434.115, 132.432 433.939, 132.457 433.383, 132.535 433.378, 133.741 433.376, 134.009 433.330, 144.009 433.283, 154.009 433.251, 160.654 " stroke-name="b_2383_p1b2382" stroke-occlusion=" True True True True True True True True True True " />
            <path fill="none" stroke-width="1.0" stroke-linecap="round" stroke-opacity="1.0" stroke="rgb(0, 0, 0)" stroke-linejoin="round" d=" M 428.795, 137.160 428.532, 137.194 428.409, 137.210 427.811, 137.289 427.726, 137.300 427.693, 137.304 427.360, 137.348 427.278, 137.359 427.217, 137.367 427.170, 137.373 427.179, 138.749 427.181, 139.097 427.183, 139.321 427.183, 139.374 427.189, 140.201 427.190, 140.433 427.194, 140.994 427.197, 141.525 427.198, 141.646 427.202, 142.322 427.203, 142.351 427.222, 145.338 427.225, 145.699 427.290, 155.699 427.318, 160.018 427.345, 164.049 " stroke-name="b_2383_p1b2382" stroke-occlusion=" True True True True True True True True True True True True True True True True True True True True True True True True True True " />
            <path fill="none" stroke-width="1.0" stroke-linecap="round" stroke-opacity="1.0" stroke="rgb(0, 0, 0)" stroke-linejoin="round" d=" M 426.669, 139.439 426.578, 139.451 426.544, 139.455 426.445, 139.468 425.878, 139.539 425.665, 139.566 425.614, 139.573 425.297, 139.613 425.310, 141.651 425.310, 141.713 425.311, 141.764 425.324, 143.787 425.326, 144.121 425.327, 144.197 425.393, 154.197 425.409, 156.588 425.462, 164.703 " stroke-name="b_2383_p1b2382" stroke-occlusion=" True True True True True True True True True True True True True True True True True " />
            <path fill="none" stroke-width="1.0" stroke-linecap="round" stroke-opacity="1.0" stroke="rgb(0, 0, 0)" stroke-linejoin="round" d=" M 425.310, 141.651 425.260, 141.668 425.209, 143.826 425.205, 144.013 424.969, 154.010 424.794, 161.392 424.657, 167.190 " stroke-name="b_2383_p1b2382" stroke-occlusion=" True True True True True True True " />
            <path fill="none" stroke-width="1.0" stroke-linecap="round" stroke-opacity="1.0" stroke="rgb(0, 0, 0)" stroke-linejoin="round" d=" M 427.846, 119.985 427.484, 120.163 427.434, 120.188 427.432, 120.189 427.339, 120.235 427.230, 120.288 427.061, 120.371 427.059, 121.228 427.058, 121.765 427.058, 122.074 427.056, 122.760 427.056, 122.896 427.054, 123.904 427.051, 125.082 427.050, 125.833 427.048, 126.763 427.047, 127.123 427.026, 137.123 427.023, 138.809 " stroke-name="b_2383_p1b2382" stroke-occlusion=" True True True True True True True True True True True True True True True True True True True " />
            <path fill="none" stroke-width="1.0" stroke-linecap="round" stroke-opacity="1.0" stroke="rgb(0, 0, 0)" stroke-linejoin="round" d=" M 430.931, 115.994 430.526, 116.195 430.111, 116.402 429.926, 116.494 429.780, 116.567 429.778, 117.370 429.777, 118.190 429.777, 118.256 429.775, 119.155 429.754, 129.155 429.740, 136.262 " stroke-name="b_2383_p1b2382" stroke-occlusion=" True True True True True True True True True True True " />
            <path fill="none" stroke-width="1.0" stroke-linecap="round" stroke-opacity="1.0" stroke="rgb(0, 0, 0)" stroke-linejoin="round" d=" M 435.819, 112.045 434.985, 112.200 434.527, 112.285 434.156, 112.353 434.154, 113.219 434.153, 113.850 434.152, 114.133 434.151, 114.768 434.150, 115.091 434.130, 125.091 434.121, 129.569 434.118, 130.940 434.115, 132.432 " stroke-name="b_2383_p1b2382" stroke-occlusion=" True True True True True True True True True True True True True " />
            <path fill="none" stroke-width="1.0" stroke-linecap="round" stroke-opacity="1.0" stroke="rgb(0, 0, 0)" stroke-linejoin="round" d=" M 437.815, 110.210 437.401, 110.402 436.877, 110.646 435.908, 111.096 435.807, 111.143 435.819, 112.045 435.828, 112.680 435.839, 113.487 435.840, 113.543 435.850, 114.348 435.986, 124.347 436.064, 130.149 436.070, 130.591 436.086, 131.784 " stroke-name="b_2383_p1b2382" stroke-occlusion=" True True True True True True True True True True True True True True " />
            <path fill="none" stroke-width="1.0" stroke-linecap="round" stroke-opacity="1.0" stroke="rgb(0, 0, 0)" stroke-linejoin="round" d=" M 445.166, 106.233 445.269, 105.981 442.766, 107.149 442.724, 107.168 442.570, 107.835 441.002, 108.433 440.175, 108.749 439.057, 109.175 438.248, 109.483 437.817, 109.647 437.815, 110.210 437.813, 111.375 437.807, 114.194 437.802, 117.065 437.782, 127.065 437.775, 130.271 " stroke-name="b_2383_p1b2382" stroke-occlusion=" True True True True True True True True True True True True True True True True " />
            <path fill="none" stroke-width="1.0" stroke-linecap="round" stroke-opacity="1.0" stroke="rgb(0, 0, 0)" stroke-linejoin="round" d=" M 442.364, 128.423 442.534, 118.425 442.706, 108.240 442.714, 107.736 442.724, 107.168 " stroke-name="b_2383_p1b2382" stroke-occlusion=" True True True True True " />
            <path fill="none" stroke-width="1.0" stroke-linecap="round" stroke-opacity="1.0" stroke="rgb(0, 0, 0)" stroke-linejoin="round" d=" M 511.721, 73.610 511.636, 83.609 511.552, 93.609 511.468, 103.609 511.383, 113.608 511.299, 123.608 511.215, 133.608 511.130, 143.607 511.046, 153.607 510.962, 163.606 510.878, 173.606 510.793, 183.606 510.709, 193.605 510.625, 203.605 510.537, 214.047 510.452, 224.046 510.368, 234.046 510.284, 244.046 510.196, 254.405 " stroke-name="b_2383_p1b2382" stroke-occlusion=" True True True True True True True True True True True True True True True True True True True " />
            <path fill="none" stroke-width="1.0" stroke-linecap="round" stroke-opacity="1.0" stroke="rgb(0, 0, 0)" stroke-linejoin="round" d=" M 479.333, 75.695 479.262, 83.159 479.230, 86.455 479.134, 96.455 479.039, 106.454 478.943, 116.454 478.847, 126.453 478.751, 136.453 478.655, 146.452 478.559, 156.452 478.463, 166.451 478.368, 176.451 478.272, 186.450 478.176, 196.450 478.080, 206.450 477.984, 216.449 477.888, 226.449 477.794, 236.261 " stroke-name="b_2383_p1b2382" stroke-occlusion=" True True True True True True True True True True True True True True True True True True " />
            <path fill="none" stroke-width="1.0" stroke-linecap="round" stroke-opacity="1.0" stroke="rgb(0, 0, 0)" stroke-linejoin="round" d=" M 508.824, 72.919 508.718, 82.919 508.613, 92.918 508.507, 102.918 508.401, 112.917 508.295, 122.917 508.189, 132.916 508.084, 142.915 507.978, 152.915 507.872, 162.914 507.766, 172.914 507.660, 182.913 507.555, 192.913 507.449, 202.912 507.343, 212.912 507.237, 222.911 507.131, 232.910 507.025, 242.910 506.904, 254.387 " stroke-name="b_2383_p1b2382" stroke-occlusion=" True True True True True True True True True True True True True True True True True True True " />
            <path fill="none" stroke-width="1.0" stroke-linecap="round" stroke-opacity="1.0" stroke="rgb(0, 0, 0)" stroke-linejoin="round" d=" M 509.197, 73.703 509.112, 83.703 509.027, 93.702 509.006, 96.211 508.922, 106.211 508.837, 116.210 508.753, 126.210 508.668, 136.210 508.584, 146.209 508.499, 156.209 508.415, 166.209 508.330, 176.208 508.246, 186.208 508.161, 196.208 508.076, 206.207 507.992, 216.207 507.907, 226.207 507.823, 236.206 507.738, 246.206 507.669, 254.391 " stroke-name="b_2383_p1b2382" stroke-occlusion=" True True True True True True True True True True True True True True True True True True True True " />
            <path fill="none" stroke-width="1.0" stroke-linecap="round" stroke-opacity="1.0" stroke="rgb(0, 0, 0)" stroke-linejoin="round" d=" M 479.493, 75.984 479.440, 83.089 479.415, 86.384 479.341, 96.384 479.266, 106.384 479.191, 116.384 479.116, 126.383 479.041, 136.383 478.966, 146.383 478.891, 156.383 478.816, 166.382 478.742, 176.382 478.667, 186.382 478.592, 196.381 478.517, 206.381 478.442, 216.381 478.367, 226.381 478.292, 236.419 " stroke-name="b_2383_p1b2382" stroke-occlusion=" True True True True True True True True True True True True True True True True True True " />
            <path fill="none" stroke-width="1.0" stroke-linecap="round" stroke-opacity="1.0" stroke="rgb(0, 0, 0)" stroke-linejoin="round" d=" M 482.826, 75.177 482.770, 81.791 482.741, 85.118 482.656, 95.117 482.571, 105.117 482.556, 106.933 482.471, 116.932 482.386, 126.932 482.301, 136.931 482.216, 146.931 482.131, 156.931 482.046, 166.930 481.961, 176.930 481.876, 186.930 481.791, 196.929 481.706, 206.929 481.621, 216.929 481.536, 226.928 481.447, 237.421 " stroke-name="b_2383_p1b2382" stroke-occlusion=" True True True True True True True True True True True True True True True True True True True " />
            <path fill="none" stroke-width="1.0" stroke-linecap="round" stroke-opacity="1.0" stroke="rgb(0, 0, 0)" stroke-linejoin="round" d=" M 505.606, 72.595 505.523, 82.595 505.440, 92.594 505.357, 102.594 505.274, 112.594 505.191, 122.593 505.108, 132.593 505.025, 142.593 504.942, 152.592 504.859, 162.592 504.776, 172.592 504.692, 182.591 504.609, 192.591 504.526, 202.591 504.443, 212.590 504.360, 222.590 504.277, 232.589 504.194, 242.589 504.096, 254.372 " stroke-name="b_2383_p1b2382" stroke-occlusion=" True True True True True True True True True True True True True True True True True True True " />
            <path fill="none" stroke-width="1.0" stroke-linecap="round" stroke-opacity="1.0" stroke="rgb(0, 0, 0)" stroke-linejoin="round" d=" M 506.280, 74.103 506.199, 84.103 506.118, 94.103 506.036, 104.102 505.955, 114.102 505.874, 124.102 505.792, 134.101 505.711, 144.101 505.630, 154.101 505.548, 164.100 505.467, 174.100 505.386, 184.100 505.304, 194.099 505.223, 204.099 505.142, 214.099 505.060, 224.098 504.998, 231.734 504.917, 241.734 504.835, 251.733 504.814, 254.376 " stroke-name="b_2383_p1b2382" stroke-occlusion=" True True True True True True True True True True True True True True True True True True True True " />
            <path fill="none" stroke-width="1.0" stroke-linecap="round" stroke-opacity="1.0" stroke="rgb(0, 0, 0)" stroke-linejoin="round" d=" M 483.658, 75.103 483.603, 81.466 483.574, 84.801 483.486, 94.800 483.399, 104.800 483.375, 107.586 483.288, 117.585 483.200, 127.585 483.113, 137.585 483.026, 147.584 482.939, 157.584 482.851, 167.583 482.764, 177.583 482.677, 187.583 482.590, 197.582 482.502, 207.582 482.415, 217.581 482.328, 227.581 482.240, 237.672 " stroke-name="b_2383_p1b2382" stroke-occlusion=" True True True True True True True True True True True True True True True True True True True " />
            <path fill="none" stroke-width="1.0" stroke-linecap="round" stroke-opacity="1.0" stroke="rgb(0, 0, 0)" stroke-linejoin="round" d=" M 502.002, 73.128 501.907, 83.127 501.811, 93.127 501.716, 103.126 501.621, 113.126 501.526, 123.126 501.430, 133.125 501.335, 143.125 501.240, 153.124 501.145, 163.124 501.049, 173.123 500.954, 183.123 500.859, 193.122 500.764, 203.122 500.668, 213.121 500.573, 223.121 500.478, 233.121 500.383, 243.120 500.276, 254.351 " stroke-name="b_2383_p1b2382" stroke-occlusion=" True True True True True True True True True True True True True True True True True True True " />
            <path fill="none" stroke-width="1.0" stroke-linecap="round" stroke-opacity="1.0" stroke="rgb(0, 0, 0)" stroke-linejoin="round" d=" M 502.745, 73.846 502.660, 83.846 502.575, 93.845 502.490, 103.845 502.405, 113.845 502.320, 123.844 502.234, 133.844 502.149, 143.844 502.064, 153.843 501.979, 163.843 501.894, 173.843 501.809, 183.842 501.724, 193.842 501.638, 203.841 501.553, 213.841 501.468, 223.841 501.383, 233.840 501.298, 243.840 501.208, 254.356 " stroke-name="b_2383_p1b2382" stroke-occlusion=" True True True True True True True True True True True True True True True True True True True " />
            <path fill="none" stroke-width="1.0" stroke-linecap="round" stroke-opacity="1.0" stroke="rgb(0, 0, 0)" stroke-linejoin="round" d=" M 499.116, 74.615 499.022, 84.614 498.928, 94.614 498.835, 104.613 498.741, 114.613 498.647, 124.612 498.554, 134.612 498.460, 144.612 498.366, 154.611 498.273, 164.611 498.179, 174.610 498.086, 184.610 497.992, 194.609 497.898, 204.609 497.805, 214.609 497.711, 224.608 497.617, 234.608 497.524, 244.607 497.433, 254.335 " stroke-name="b_2383_p1b2382" stroke-occlusion=" True True True True True True True True True True True True True True True True True True True " />
            <path fill="none" stroke-width="1.0" stroke-linecap="round" stroke-opacity="1.0" stroke="rgb(0, 0, 0)" stroke-linejoin="round" d=" M 498.064, 73.179 497.980, 83.178 497.896, 93.178 497.813, 103.178 497.729, 113.177 497.645, 123.177 497.561, 133.177 497.478, 143.176 497.394, 153.176 497.310, 163.175 497.227, 173.175 497.143, 183.175 497.059, 193.174 496.975, 203.174 496.892, 213.174 496.808, 223.173 496.724, 233.173 496.640, 243.173 496.547, 254.330 " stroke-name="b_2383_p1b2382" stroke-occlusion=" True True True True True True True True True True True True True True True True True True True " />
            <path fill="none" stroke-width="1.0" stroke-linecap="round" stroke-opacity="1.0" stroke="rgb(0, 0, 0)" stroke-linejoin="round" d=" M 494.883, 74.726 494.789, 84.726 494.695, 94.726 494.601, 104.725 494.507, 114.725 494.413, 124.724 494.318, 134.724 494.224, 144.723 494.130, 154.723 494.036, 164.722 493.942, 174.722 493.848, 184.722 493.754, 194.721 493.660, 204.721 493.565, 214.720 493.471, 224.720 493.377, 234.719 493.283, 244.719 493.193, 254.312 " stroke-name="b_2383_p1b2382" stroke-occlusion=" True True True True True True True True True True True True True True True True True True True " />
            <path fill="none" stroke-width="1.0" stroke-linecap="round" stroke-opacity="1.0" stroke="rgb(0, 0, 0)" stroke-linejoin="round" d=" M 490.188, 74.066 490.093, 84.065 490.061, 87.454 490.034, 90.339 489.939, 100.338 489.844, 110.338 489.750, 120.337 489.655, 130.337 489.560, 140.336 489.466, 150.336 489.371, 160.336 489.277, 170.335 489.182, 180.335 489.087, 190.334 488.993, 200.334 488.898, 210.333 488.803, 220.333 488.709, 230.332 488.620, 239.698 " stroke-name="b_2383_p1b2382" stroke-occlusion=" True True True True True True True True True True True True True True True True True True True " />
            <path fill="none" stroke-width="1.0" stroke-linecap="round" stroke-opacity="1.0" stroke="rgb(0, 0, 0)" stroke-linejoin="round" d=" M 490.668, 74.838 490.594, 84.838 490.571, 88.015 490.550, 90.897 490.476, 100.897 490.403, 110.897 490.329, 120.896 490.256, 130.896 490.182, 140.896 490.109, 150.895 490.035, 160.895 489.962, 170.895 489.888, 180.895 489.815, 190.894 489.741, 200.894 489.668, 210.894 489.594, 220.894 489.521, 230.893 489.454, 239.963 " stroke-name="b_2383_p1b2382" stroke-occlusion=" True True True True True True True True True True True True True True True True True True True " />
            <path fill="none" stroke-width="1.0" stroke-linecap="round" stroke-opacity="1.0" stroke="rgb(0, 0, 0)" stroke-linejoin="round" d=" M 486.338, 74.655 486.266, 83.276 486.241, 86.235 486.156, 96.235 486.072, 106.234 485.987, 116.234 485.903, 126.234 485.818, 136.233 485.734, 146.233 485.649, 156.233 485.565, 166.232 485.480, 176.232 485.396, 186.231 485.311, 196.231 485.227, 206.231 485.143, 216.230 485.058, 226.230 484.974, 236.230 484.954, 238.534 " stroke-name="b_2383_p1b2382" stroke-occlusion=" True True True True True True True True True True True True True True True True True True True " />
            <path fill="none" stroke-width="1.0" stroke-linecap="round" stroke-opacity="1.0" stroke="rgb(0, 0, 0)" stroke-linejoin="round" d=" M 472.980, 77.472 472.902, 85.640 472.870, 88.877 472.774, 98.877 472.677, 108.876 472.581, 118.876 472.484, 128.875 472.387, 138.875 472.291, 148.875 472.194, 158.874 472.098, 168.874 472.001, 178.873 471.905, 188.873 471.808, 198.872 471.712, 208.872 471.615, 218.871 471.518, 228.871 471.466, 234.252 " stroke-name="b_2383_p1b2382" stroke-occlusion=" True True True True True True True True True True True True True True True True True True " />
            <path fill="none" stroke-width="1.0" stroke-linecap="round" stroke-opacity="1.0" stroke="rgb(0, 0, 0)" stroke-linejoin="round" d=" M 475.940, 75.970 475.867, 84.483 475.839, 87.747 475.754, 97.746 475.668, 107.746 475.583, 117.746 475.497, 127.745 475.412, 137.745 475.326, 147.744 475.241, 157.744 475.155, 167.744 475.070, 177.743 474.985, 187.743 474.899, 197.743 474.814, 207.742 474.728, 217.742 474.643, 227.742 474.579, 235.240 " stroke-name="b_2383_p1b2382" stroke-occlusion=" True True True True True True True True True True True True True True True True True True " />
            <path fill="none" stroke-width="1.0" stroke-linecap="round" stroke-opacity="1.0" stroke="rgb(0, 0, 0)" stroke-linejoin="round" d=" M 470.327, 78.138 470.241, 86.677 470.209, 89.891 470.110, 99.890 470.010, 109.890 469.910, 119.889 469.810, 129.889 469.711, 139.888 469.611, 149.888 469.511, 159.887 469.411, 169.887 469.312, 179.886 469.212, 189.886 469.112, 199.885 469.013, 209.885 468.913, 219.884 468.813, 229.884 468.778, 233.399 " stroke-name="b_2383_p1b2382" stroke-occlusion=" True True True True True True True True True True True True True True True True True True " />
            <path fill="none" stroke-width="1.0" stroke-linecap="round" stroke-opacity="1.0" stroke="rgb(0, 0, 0)" stroke-linejoin="round" d=" M 436.940, 131.438 436.837, 131.480 436.086, 131.784 435.361, 132.077 435.345, 132.084 435.342, 132.260 435.332, 132.900 435.304, 134.693 435.145, 144.692 435.069, 149.469 435.057, 150.225 434.898, 160.224 434.896, 160.387 433.784, 160.568 433.251, 160.654 433.153, 160.670 433.148, 161.174 433.148, 161.191 433.146, 161.384 433.041, 171.383 432.936, 181.383 432.831, 191.382 432.726, 201.382 432.621, 211.381 432.516, 221.381 432.411, 231.380 432.388, 233.504 " stroke-name="b_2383_p1b2382" stroke-occlusion=" True True True True True True True True True True True True True True True True True True True True True True True True True True True " />
            <path fill="none" stroke-width="1.0" stroke-linecap="round" stroke-opacity="1.0" stroke="rgb(0, 0, 0)" stroke-linejoin="round" d=" M 433.148, 161.174 431.952, 161.162 431.425, 161.157 430.895, 161.152 430.888, 162.103 430.887, 162.252 430.809, 172.251 430.731, 182.251 430.653, 192.251 430.576, 202.250 430.498, 212.250 430.420, 222.250 430.342, 232.250 430.332, 233.638 " stroke-name="b_2383_p1b2382" stroke-occlusion=" True True True True True True True True True True True True True True " />
            <path fill="none" stroke-width="1.0" stroke-linecap="round" stroke-opacity="1.0" stroke="rgb(0, 0, 0)" stroke-linejoin="round" d=" M 429.612, 162.650 429.426, 162.710 428.480, 163.014 428.292, 163.075 427.842, 163.220 427.836, 163.900 427.830, 164.539 427.827, 164.840 427.825, 165.101 427.730, 175.101 427.635, 185.100 427.540, 195.100 427.446, 205.099 427.351, 215.099 427.256, 225.099 427.174, 233.843 " stroke-name="b_2383_p1b2382" stroke-occlusion=" True True True True True True True True True True True True True True True True " />
            <path fill="none" stroke-width="1.0" stroke-linecap="round" stroke-opacity="1.0" stroke="rgb(0, 0, 0)" stroke-linejoin="round" d=" M 426.716, 164.713 426.469, 164.711 426.443, 164.711 426.424, 164.710 426.155, 164.708 426.073, 164.708 426.057, 164.708 425.765, 164.706 425.553, 164.704 425.462, 164.703 425.343, 164.702 425.316, 164.702 425.305, 165.865 425.301, 166.323 425.300, 166.484 425.295, 167.006 425.293, 167.197 425.290, 167.527 425.287, 167.918 425.285, 168.152 425.277, 169.085 425.277, 169.087 425.276, 169.169 425.187, 179.169 425.125, 186.149 425.105, 188.351 425.016, 198.350 424.927, 208.350 424.838, 218.349 424.749, 228.349 424.699, 234.004 " stroke-name="b_2383_p1b2382" stroke-occlusion=" True True True True True True True True True True True True True True True True True True True True True True True True True True True True True True True " />
            <path fill="none" stroke-width="1.0" stroke-linecap="round" stroke-opacity="1.0" stroke="rgb(0, 0, 0)" stroke-linejoin="round" d=" M 425.305, 165.865 424.848, 165.989 424.841, 166.576 424.835, 167.142 424.835, 167.183 424.830, 167.695 424.828, 167.807 424.823, 168.274 424.816, 168.975 424.816, 168.980 424.812, 169.336 424.706, 179.336 424.634, 186.163 424.608, 188.629 424.502, 198.629 424.397, 208.628 424.291, 218.628 424.222, 225.134 424.128, 234.041 " stroke-name="b_2383_p1b2382" stroke-occlusion=" True True True True True True True True True True True True True True True True True True True " />
            <path fill="none" stroke-width="1.0" stroke-linecap="round" stroke-opacity="1.0" stroke="rgb(0, 0, 0)" stroke-linejoin="round" d=" M 424.841, 166.576 424.779, 166.588 424.711, 167.179 " stroke-name="b_2383_p1b2382" stroke-occlusion=" True True True " />
            <path fill="none" stroke-width="1.0" stroke-linecap="round" stroke-opacity="1.0" stroke="rgb(0, 0, 0)" stroke-linejoin="round" d=" M 425.311, 141.764 425.263, 143.808 425.257, 144.059 425.019, 154.148 424.783, 164.145 424.711, 167.179 424.657, 167.190 424.614, 167.198 424.503, 167.220 424.025, 167.314 423.935, 177.314 423.856, 186.186 423.830, 189.066 423.741, 199.066 423.652, 209.065 423.562, 219.065 423.473, 229.064 423.428, 234.086 " stroke-name="b_2383_p1b2382" stroke-occlusion=" True True True True True True True True True True True True True True True True True True " />
            <path fill="none" stroke-width="1.0" stroke-linecap="round" stroke-opacity="1.0" stroke="rgb(0, 0, 0)" stroke-linejoin="round" d=" M 513.825, 73.525 511.721, 73.610 511.363, 72.826 511.292, 82.825 511.221, 92.825 511.212, 94.083 511.208, 94.672 511.206, 94.906 511.135, 104.906 511.064, 114.905 510.993, 124.905 510.922, 134.905 510.851, 144.905 510.780, 154.904 510.709, 164.904 510.638, 174.904 510.567, 184.904 510.496, 194.903 510.425, 204.903 510.354, 214.903 510.283, 224.903 510.212, 234.902 510.141, 244.902 510.073, 254.404 " stroke-name="b_2383_p1b2382" stroke-occlusion=" True True True True True True True True True True True True True True True True True True True True True True True True " />
            <path fill="none" stroke-width="1.0" stroke-linecap="round" stroke-opacity="1.0" stroke="rgb(0, 0, 0)" stroke-linejoin="round" d=" M 451.561, 85.085 450.330, 85.665 447.055, 86.640 447.047, 87.303 446.932, 97.303 446.847, 104.684 445.246, 106.159 445.166, 106.233 444.057, 115.018 442.804, 124.940 442.419, 127.990 442.364, 128.423 441.892, 128.616 440.442, 129.206 439.855, 129.445 439.846, 129.866 439.843, 130.010 439.829, 130.732 439.821, 131.103 439.620, 141.101 439.439, 150.128 439.431, 150.518 439.281, 157.979 " stroke-name="b_2383_p1b2382" stroke-occlusion=" True True True True True True True True True True True True True True True True True True True True True True True " />
            <path fill="none" stroke-width="1.0" stroke-linecap="round" stroke-opacity="1.0" stroke="rgb(0, 0, 0)" stroke-linejoin="round" d=" M 425.209, 143.826 425.054, 143.879 424.818, 153.876 424.582, 163.873 424.503, 167.220 " stroke-name="b_2383_p1b2382" stroke-occlusion=" True True True True True " />
            <path fill="none" stroke-width="1.0" stroke-linecap="round" stroke-opacity="1.0" stroke="rgb(0, 0, 0)" stroke-linejoin="round" d=" M 437.070, 94.862 434.886, 95.348 434.892, 96.390 434.951, 106.390 434.985, 112.200 " stroke-name="b_2383_p1b2382" stroke-occlusion=" True True True True True " />
            <path fill="none" stroke-width="1.0" stroke-linecap="round" stroke-opacity="1.0" stroke="rgb(0, 0, 0)" stroke-linejoin="round" d=" M 431.748, 134.631 431.045, 134.872 430.892, 134.924 430.710, 134.986 430.267, 135.137 430.263, 136.029 430.259, 136.805 430.257, 137.233 430.256, 137.552 430.210, 147.551 430.165, 157.551 430.143, 162.332 " stroke-name="b_2383_p1b2382" stroke-occlusion=" True True True True True True True True True True True True " />
            <path fill="none" stroke-width="1.0" stroke-linecap="round" stroke-opacity="1.0" stroke="rgb(0, 0, 0)" stroke-linejoin="round" d=" M 430.263, 136.029 429.848, 136.214 429.740, 136.262 428.801, 136.680 428.795, 137.160 428.784, 138.133 428.781, 138.312 428.775, 138.870 428.653, 148.869 428.531, 158.869 428.480, 163.014 " stroke-name="b_2383_p1b2382" stroke-occlusion=" True True True True True True True True True True True " />
            <path fill="none" stroke-width="1.0" stroke-linecap="round" stroke-opacity="1.0" stroke="rgb(0, 0, 0)" stroke-linejoin="round" d=" M 427.179, 138.749 427.023, 138.809 426.681, 138.939 426.669, 139.439 426.653, 140.134 426.646, 140.416 426.628, 141.191 426.625, 141.322 426.611, 141.901 426.602, 142.277 426.595, 142.576 426.571, 143.608 426.569, 143.691 426.561, 144.025 426.537, 145.058 426.517, 145.905 426.513, 146.078 426.277, 156.075 426.242, 157.541 426.073, 164.708 " stroke-name="b_2383_p1b2382" stroke-occlusion=" True True True True True True True True True True True True True True True True True True True True " />
            <path fill="none" stroke-width="1.0" stroke-linecap="round" stroke-opacity="1.0" stroke="rgb(0, 0, 0)" stroke-linejoin="round" d=" M 427.059, 121.228 426.878, 121.317 426.482, 121.511 426.480, 122.356 426.479, 122.696 426.479, 123.144 426.477, 123.795 426.474, 125.133 426.474, 125.565 426.453, 135.565 426.445, 139.468 " stroke-name="b_2383_p1b2382" stroke-occlusion=" True True True True True True True True True True True " />
            <path fill="none" stroke-width="1.0" stroke-linecap="round" stroke-opacity="1.0" stroke="rgb(0, 0, 0)" stroke-linejoin="round" d=" M 429.778, 117.370 429.409, 117.554 428.651, 117.930 428.624, 117.943 428.609, 117.951 428.469, 118.020 428.448, 118.030 428.446, 118.913 428.445, 119.558 428.445, 119.691 428.443, 120.614 428.441, 121.277 428.441, 121.483 428.438, 122.745 428.438, 122.854 428.430, 126.851 428.430, 126.853 428.410, 136.853 428.409, 137.210 " stroke-name="b_2383_p1b2382" stroke-occlusion=" True True True True True True True True True True True True True True True True True True True " />
            <path fill="none" stroke-width="1.0" stroke-linecap="round" stroke-opacity="1.0" stroke="rgb(0, 0, 0)" stroke-linejoin="round" d=" M 434.154, 113.219 433.285, 113.378 433.274, 113.380 432.412, 113.538 432.320, 113.555 432.320, 113.601 432.318, 114.444 432.317, 115.257 432.317, 115.303 432.314, 116.636 432.293, 126.636 432.278, 134.183 " stroke-name="b_2383_p1b2382" stroke-occlusion=" True True True True True True True True True True True True " />
            <path fill="none" stroke-width="1.0" stroke-linecap="round" stroke-opacity="1.0" stroke="rgb(0, 0, 0)" stroke-linejoin="round" d=" M 433.378, 133.741 433.218, 133.805 432.353, 134.153 432.278, 134.183 432.185, 134.221 431.751, 134.395 431.748, 134.631 431.738, 135.411 431.733, 135.824 431.729, 136.153 431.608, 146.153 431.574, 148.885 431.569, 149.318 431.447, 159.317 431.425, 161.157 " stroke-name="b_2383_p1b2382" stroke-occlusion=" True True True True True True True True True True True True True True True " />
            <path fill="none" stroke-width="1.0" stroke-linecap="round" stroke-opacity="1.0" stroke="rgb(0, 0, 0)" stroke-linejoin="round" d=" M 426.480, 122.356 425.912, 122.633 425.910, 123.388 425.910, 123.594 425.907, 125.183 425.906, 125.301 425.886, 135.301 425.878, 139.539 " stroke-name="b_2383_p1b2382" stroke-occlusion=" True True True True True True True True " />
            <path fill="none" stroke-width="1.0" stroke-linecap="round" stroke-opacity="1.0" stroke="rgb(0, 0, 0)" stroke-linejoin="round" d=" M 428.446, 118.913 428.169, 119.050 427.964, 119.151 427.848, 119.209 427.846, 119.985 427.845, 120.722 427.844, 120.844 427.843, 121.728 427.842, 122.270 427.840, 122.819 427.839, 123.490 427.838, 123.945 427.833, 126.532 427.832, 127.136 427.827, 129.440 427.811, 137.289 " stroke-name="b_2383_p1b2382" stroke-occlusion=" True True True True True True True True True True True True True True True True " />
            <path fill="none" stroke-width="1.0" stroke-linecap="round" stroke-opacity="1.0" stroke="rgb(0, 0, 0)" stroke-linejoin="round" d=" M 432.318, 114.444 431.953, 114.612 431.836, 114.666 431.032, 115.036 430.933, 115.081 430.931, 115.994 430.929, 116.739 430.929, 116.800 430.926, 118.106 430.917, 122.918 430.904, 129.285 430.902, 130.096 430.892, 134.924 " stroke-name="b_2383_p1b2382" stroke-occlusion=" True True True True True True True True True True True True True " />
            <path fill="none" stroke-width="1.0" stroke-linecap="round" stroke-opacity="1.0" stroke="rgb(0, 0, 0)" stroke-linejoin="round" d=" M 430.888, 162.103 430.772, 162.139 430.143, 162.332 429.614, 162.494 429.612, 162.650 429.605, 163.345 429.499, 173.344 429.394, 183.344 429.289, 193.343 429.184, 203.343 429.078, 213.342 428.973, 223.341 428.864, 233.733 " stroke-name="b_2383_p1b2382" stroke-occlusion=" True True True True True True True True True True True True True " />
            <path fill="none" stroke-width="1.0" stroke-linecap="round" stroke-opacity="1.0" stroke="rgb(0, 0, 0)" stroke-linejoin="round" d=" M 427.836, 163.900 427.345, 164.049 427.222, 164.087 426.721, 164.239 426.716, 164.713 426.708, 165.454 426.704, 165.824 426.701, 166.084 426.596, 176.083 426.490, 186.110 426.485, 186.544 426.478, 187.202 426.474, 187.582 426.369, 197.582 426.263, 207.581 426.243, 209.469 426.187, 214.787 426.082, 224.787 425.985, 233.920 " stroke-name="b_2383_p1b2382" stroke-occlusion=" True True True True True True True True True True True True True True True True True True True " />
            <path fill="none" stroke-width="1.0" stroke-linecap="round" stroke-opacity="1.0" stroke="rgb(0, 0, 0)" stroke-linejoin="round" d=" M 421.485, 186.254 421.550, 181.119 411.553, 181.361 401.556, 181.602 395.776, 181.742 390.228, 186.230 " stroke-name="b_2349_p1b2348" stroke-occlusion=" True True True True True True " />
            <path fill="none" stroke-width="1.0" stroke-linecap="round" stroke-opacity="1.0" stroke="rgb(0, 0, 0)" stroke-linejoin="round" d=" M 390.228, 186.230 390.274, 188.318 390.268, 189.415 " stroke-name="b_2349_p1b2348" stroke-occlusion=" True True True " />
            <path fill="none" stroke-width="1.0" stroke-linecap="round" stroke-opacity="1.0" stroke="rgb(0, 0, 0)" stroke-linejoin="round" d=" M 391.972, 188.129 391.938, 191.816 391.871, 199.087 " stroke-name="b_2349_p1b2348" stroke-occlusion=" True True True " />
            <path fill="none" stroke-width="1.0" stroke-linecap="round" stroke-opacity="1.0" stroke="rgb(0, 0, 0)" stroke-linejoin="round" d=" M 423.856, 186.186 421.485, 186.254 413.158, 186.493 408.176, 186.636 405.284, 186.719 402.641, 186.795 402.605, 186.796 400.038, 186.870 395.880, 186.989 394.953, 187.016 393.668, 188.109 391.972, 188.129 390.268, 189.415 386.017, 192.624 " stroke-name="b_2349_p1b2348" stroke-occlusion=" True True True True True True True True True True True True True True " />
            <path fill="none" stroke-width="1.0" stroke-linecap="round" stroke-opacity="1.0" stroke="rgb(0, 0, 0)" stroke-linejoin="round" d=" M 386.017, 192.624 385.941, 200.259 " stroke-name="b_2349_p1b2348" stroke-occlusion=" True True " />
            <path fill="none" stroke-width="1.0" stroke-linecap="round" stroke-opacity="1.0" stroke="rgb(0, 0, 0)" stroke-linejoin="round" d=" M 206.781, 437.842 206.895, 427.843 207.008, 417.844 207.122, 407.844 207.235, 397.845 207.349, 387.846 207.462, 377.846 207.576, 367.847 207.689, 357.848 207.803, 347.848 207.916, 337.849 208.029, 327.849 208.099, 321.689 " stroke-name="b_2465_p1b2464" stroke-occlusion=" True True True True True True True True True True True True True " />
            <path fill="none" stroke-width="1.0" stroke-linecap="round" stroke-opacity="1.0" stroke="rgb(0, 0, 0)" stroke-linejoin="round" d=" M 230.348, 481.202 230.365, 471.202 230.381, 461.202 230.383, 459.798 " stroke-name="b_2465_p1b2464" stroke-occlusion=" True True True True " />
            <path fill="none" stroke-width="1.0" stroke-linecap="round" stroke-opacity="1.0" stroke="rgb(0, 0, 0)" stroke-linejoin="round" d=" M 306.960, 543.155 307.065, 533.156 307.170, 523.157 307.275, 513.157 307.380, 503.158 307.485, 493.158 307.524, 489.439 307.629, 479.440 307.734, 469.440 307.762, 466.766 307.828, 460.488 307.933, 450.488 307.948, 449.047 307.950, 448.836 308.055, 438.837 308.095, 435.040 308.098, 434.698 308.203, 424.699 308.217, 423.352 308.322, 413.352 308.331, 412.482 308.436, 402.482 308.541, 392.483 308.553, 391.346 308.628, 384.227 308.733, 374.227 308.837, 364.228 308.942, 354.228 308.961, 352.443 309.066, 342.444 309.171, 332.444 309.268, 323.144 309.373, 313.145 309.478, 303.146 309.583, 293.146 309.602, 291.370 309.657, 286.110 309.728, 279.384 309.767, 275.638 309.794, 273.070 309.805, 271.957 309.910, 261.957 310.015, 251.958 310.120, 241.958 310.225, 231.959 310.330, 221.959 310.435, 211.960 310.540, 201.960 310.645, 191.961 310.750, 181.961 310.854, 171.962 310.900, 167.628 310.977, 160.277 311.061, 152.243 311.099, 148.644 311.195, 139.525 311.206, 138.440 311.311, 128.441 311.416, 118.442 311.521, 108.442 311.626, 98.443 311.731, 88.443 311.836, 78.444 311.940, 68.444 312.045, 58.445 312.150, 48.445 312.255, 38.446 312.360, 28.447 312.465, 18.447 312.570, 8.448 312.675, -1.552 312.780, -11.551 312.885, -21.551 312.989, -31.550 313.094, -41.550 313.199, -51.549 313.304, -61.549 313.409, -71.548 313.514, -81.547 313.619, -91.547 313.724, -101.546 313.829, -111.546 313.934, -121.545 314.038, -131.545 314.143, -141.544 314.248, -151.544 314.353, -161.543 314.458, -171.542 314.563, -181.542 314.668, -191.541 314.773, -201.541 314.878, -211.540 314.983, -221.540 315.087, -231.539 315.192, -241.539 315.297, -251.538 315.402, -261.537 315.507, -271.537 315.612, -281.536 315.717, -291.536 315.822, -301.535 315.927, -311.535 316.032, -321.534 316.137, -331.534 316.204, -337.955 " stroke-name="b_2465_p1b2464" stroke-occlusion=" True True True True True True True True True True True True True True True True True True True True True True True True True True True True True True True True True True True True True True True True True True True True True True True True True True True True True True True True True True True True True True True True True True True True True True True True True True True True True True True True True True True True True True True True True True True True True True True True True True True True True True True True True " />
            <path fill="none" stroke-width="1.0" stroke-linecap="round" stroke-opacity="1.0" stroke="rgb(0, 0, 0)" stroke-linejoin="round" d=" M 309.728, 279.384 315.936, 287.224 319.054, 291.161 309.602, 291.370 " stroke-name="b_2465_p1b2464" stroke-occlusion=" True True True True " />
            <path fill="none" stroke-width="1.0" stroke-linecap="round" stroke-opacity="1.0" stroke="rgb(0, 0, 0)" stroke-linejoin="round" d=" M 307.762, 466.766 317.150, 463.320 320.877, 461.953 " stroke-name="b_2465_p1b2464" stroke-occlusion=" True True True " />
            <path fill="none" stroke-width="1.0" stroke-linecap="round" stroke-opacity="1.0" stroke="rgb(0, 0, 0)" stroke-linejoin="round" d=" M 332.845, 139.913 332.921, 137.307 " stroke-name="b_2418_p1b2417" stroke-occlusion=" True True " />
            <path fill="none" stroke-width="1.0" stroke-linecap="round" stroke-opacity="1.0" stroke="rgb(0, 0, 0)" stroke-linejoin="round" d=" M 375.003, 202.421 374.965, 201.713 " stroke-name="b_2384_p1b2383" stroke-occlusion=" True True " />
            <path fill="none" stroke-width="1.0" stroke-linecap="round" stroke-opacity="1.0" stroke="rgb(0, 0, 0)" stroke-linejoin="round" d=" M 393.587, 198.748 393.649, 190.565 393.668, 188.109 " stroke-name="b_2349_p1b2348" stroke-occlusion=" True True True " />
            <path fill="none" stroke-width="1.0" stroke-linecap="round" stroke-opacity="1.0" stroke="rgb(0, 0, 0)" stroke-linejoin="round" d=" M 394.868, 198.210 394.933, 189.626 394.953, 187.016 " stroke-name="b_2349_p1b2348" stroke-occlusion=" True True True " />
            <path fill="none" stroke-width="1.0" stroke-linecap="round" stroke-opacity="1.0" stroke="rgb(0, 0, 0)" stroke-linejoin="round" d=" M 395.880, 186.989 395.869, 186.401 395.776, 181.742 " stroke-name="b_2349_p1b2348" stroke-occlusion=" True True True " />
            <path fill="none" stroke-width="1.0" stroke-linecap="round" stroke-opacity="1.0" stroke="rgb(0, 0, 0)" stroke-linejoin="round" d=" M 393.969, 402.726 402.826, 407.370 405.990, 409.028 " stroke-name="b_2465_p1b2464" stroke-occlusion=" True True True " />
            <path fill="none" stroke-width="1.0" stroke-linecap="round" stroke-opacity="1.0" stroke="rgb(0, 0, 0)" stroke-linejoin="round" d=" M 424.222, 225.134 424.317, 215.134 424.412, 205.135 424.507, 195.135 424.593, 186.165 424.688, 176.165 424.753, 169.358 424.756, 168.966 424.756, 168.961 424.763, 168.290 424.768, 167.717 424.774, 167.160 424.779, 166.588 " stroke-name="b_2383_p1b2382" stroke-occlusion=" True True True True True True True True True True True True True " />
            <path fill="none" stroke-width="1.0" stroke-linecap="round" stroke-opacity="1.0" stroke="rgb(0, 0, 0)" stroke-linejoin="round" d=" M 424.794, 161.392 424.614, 167.198 " stroke-name="b_2383_p1b2382" stroke-occlusion=" True True " />
            <path fill="none" stroke-width="1.0" stroke-linecap="round" stroke-opacity="1.0" stroke="rgb(0, 0, 0)" stroke-linejoin="round" d=" M 427.457, 110.687 427.317, 113.257 426.878, 121.317 " stroke-name="b_2383_p1b2382" stroke-occlusion=" True True True " />
            <path fill="none" stroke-width="1.0" stroke-linecap="round" stroke-opacity="1.0" stroke="rgb(0, 0, 0)" stroke-linejoin="round" d=" M 433.148, 161.191 431.952, 161.170 431.425, 161.161 430.895, 161.152 " stroke-name="b_2383_p1b2382" stroke-occlusion=" True True True True " />
            <path fill="none" stroke-width="1.0" stroke-linecap="round" stroke-opacity="1.0" stroke="rgb(0, 0, 0)" stroke-linejoin="round" d=" M 433.024, 362.709 433.118, 352.710 433.180, 346.114 433.199, 344.072 433.237, 340.014 433.332, 330.015 433.380, 324.900 433.474, 314.901 433.552, 306.598 433.570, 304.694 433.640, 297.259 433.734, 287.259 433.828, 277.260 433.922, 267.260 434.017, 257.261 434.037, 255.069 434.039, 254.923 434.133, 244.924 434.222, 235.400 434.231, 234.497 434.241, 233.384 " stroke-name="b_2465_p1b2464" stroke-occlusion=" True True True True True True True True True True True True True True True True True True True True True " />
            <path fill="none" stroke-width="1.0" stroke-linecap="round" stroke-opacity="1.0" stroke="rgb(0, 0, 0)" stroke-linejoin="round" d=" M 447.047, 87.303 443.865, 89.132 " stroke-name="b_2383_p1b2382" stroke-occlusion=" True True " />
            <path fill="none" stroke-width="1.0" stroke-linecap="round" stroke-opacity="1.0" stroke="rgb(0, 0, 0)" stroke-linejoin="round" d=" M 458.075, 232.919 458.164, 222.920 458.252, 212.920 458.341, 202.921 458.430, 192.921 458.518, 182.921 458.602, 173.424 458.603, 173.362 458.692, 163.362 458.780, 153.362 458.869, 143.363 458.957, 133.363 459.046, 123.364 459.135, 113.364 459.223, 103.364 459.306, 94.044 459.334, 90.931 459.422, 80.932 459.426, 80.544 " stroke-name="b_2383_p1b2382" stroke-occlusion=" True True True True True True True True True True True True True True True True True True True " />
            <path fill="none" stroke-width="1.0" stroke-linecap="round" stroke-opacity="1.0" stroke="rgb(0, 0, 0)" stroke-linejoin="round" d=" M 458.704, 232.878 458.802, 222.878 458.900, 212.879 458.998, 202.879 459.096, 192.880 459.194, 182.880 459.289, 173.164 459.289, 173.162 459.387, 163.163 459.485, 153.163 459.520, 149.629 459.562, 145.335 459.660, 135.336 459.758, 125.336 459.856, 115.337 459.954, 105.337 460.052, 95.338 460.067, 93.754 460.098, 90.633 460.195, 80.698 " stroke-name="b_2383_p1b2382" stroke-occlusion=" True True True True True True True True True True True True True True True True True True True True " />
            <path fill="none" stroke-width="1.0" stroke-linecap="round" stroke-opacity="1.0" stroke="rgb(0, 0, 0)" stroke-linejoin="round" d=" M 468.577, 233.335 468.664, 223.335 468.751, 213.336 468.838, 203.336 468.925, 193.336 469.012, 183.337 469.099, 173.337 469.186, 163.338 469.273, 153.338 469.360, 143.338 469.447, 133.339 469.534, 123.339 469.621, 113.339 469.708, 103.340 469.795, 93.340 469.824, 90.038 469.852, 86.829 469.931, 77.679 " stroke-name="b_2383_p1b2382" stroke-occlusion=" True True True True True True True True True True True True True True True True True True " />
            <path fill="none" stroke-width="1.0" stroke-linecap="round" stroke-opacity="1.0" stroke="rgb(0, 0, 0)" stroke-linejoin="round" d=" M 471.360, 234.218 471.456, 224.219 471.553, 214.219 471.649, 204.220 471.746, 194.220 471.842, 184.221 471.939, 174.221 472.036, 164.221 472.132, 154.222 472.229, 144.222 472.325, 134.223 472.422, 124.223 472.518, 114.224 472.615, 104.224 472.712, 94.225 472.763, 88.918 472.794, 85.681 472.878, 76.950 " stroke-name="b_2383_p1b2382" stroke-occlusion=" True True True True True True True True True True True True True True True True True True " />
            <path fill="none" stroke-width="1.0" stroke-linecap="round" stroke-opacity="1.0" stroke="rgb(0, 0, 0)" stroke-linejoin="round" d=" M 475.189, 235.434 475.285, 225.435 475.382, 215.435 475.478, 205.435 475.574, 195.436 475.670, 185.436 475.766, 175.437 475.862, 165.437 475.959, 155.438 476.055, 145.438 476.151, 135.439 476.247, 125.439 476.343, 115.440 476.439, 105.440 476.536, 95.441 476.612, 87.452 476.644, 84.180 476.714, 76.903 " stroke-name="b_2383_p1b2382" stroke-occlusion=" True True True True True True True True True True True True True True True True True True " />
            <path fill="none" stroke-width="1.0" stroke-linecap="round" stroke-opacity="1.0" stroke="rgb(0, 0, 0)" stroke-linejoin="round" d=" M 471.536, 378.954 478.518, 376.759 " stroke-name="b_2465_p1b2464" stroke-occlusion=" True True " />
            <path fill="none" stroke-width="1.0" stroke-linecap="round" stroke-opacity="1.0" stroke="rgb(0, 0, 0)" stroke-linejoin="round" d=" M 478.530, 375.941 476.970, 375.423 467.478, 372.276 464.921, 371.429 " stroke-name="b_2465_p1b2464" stroke-occlusion=" True True True True " />
            <path fill="none" stroke-width="1.0" stroke-linecap="round" stroke-opacity="1.0" stroke="rgb(0, 0, 0)" stroke-linejoin="round" d=" M 485.910, 238.838 486.005, 228.838 486.100, 218.839 486.195, 208.839 486.290, 198.839 486.385, 188.840 486.480, 178.840 486.575, 168.841 486.670, 158.841 486.765, 148.842 486.859, 138.842 486.954, 128.843 487.049, 118.843 487.144, 108.843 487.239, 98.844 487.348, 87.433 487.375, 84.498 487.463, 75.296 " stroke-name="b_2383_p1b2382" stroke-occlusion=" True True True True True True True True True True True True True True True True True True " />
            <path fill="none" stroke-width="1.0" stroke-linecap="round" stroke-opacity="1.0" stroke="rgb(0, 0, 0)" stroke-linejoin="round" d=" M 492.405, 254.307 492.499, 244.308 492.593, 234.308 492.688, 224.309 492.782, 214.309 492.876, 204.310 492.970, 194.310 493.064, 184.311 493.158, 174.311 493.252, 164.311 493.347, 154.312 493.441, 144.312 493.535, 134.313 493.629, 124.313 493.723, 114.314 493.817, 104.314 493.909, 94.532 493.936, 91.719 494.030, 81.720 494.103, 74.017 " stroke-name="b_2383_p1b2382" stroke-occlusion=" True True True True True True True True True True True True True True True True True True True True " />
            <path fill="none" stroke-width="1.0" stroke-linecap="round" stroke-opacity="1.0" stroke="rgb(0, 0, 0)" stroke-linejoin="round" d=" M 551.960, 431.708 542.683, 427.976 533.405, 424.245 524.127, 420.513 514.850, 416.781 505.572, 413.050 502.966, 412.002 500.450, 410.990 491.173, 407.258 481.895, 403.527 472.617, 399.795 463.340, 396.064 454.062, 392.332 444.784, 388.600 435.507, 384.869 426.229, 381.137 416.951, 377.406 407.674, 373.674 405.652, 372.861 " stroke-name="b_2465_p1b2464" stroke-occlusion=" True True True True True True True True True True True True True True True True True True True " />
            <path fill="none" stroke-width="1.0" stroke-linecap="round" stroke-opacity="1.0" stroke="rgb(0, 0, 0)" stroke-linejoin="round" d=" M 549.462, 548.301 541.177, 542.702 532.891, 537.102 524.606, 531.503 516.321, 525.904 508.035, 520.304 499.750, 514.705 491.465, 509.105 483.179, 503.506 474.894, 497.906 466.609, 492.307 458.323, 486.707 450.038, 481.108 441.753, 475.509 437.409, 472.573 432.505, 469.259 425.972, 464.843 " stroke-name="b_2465_p1b2464" stroke-occlusion=" True True True True True True True True True True True True True True True True True " />
        </g>
    </g>
</svg>
